<?xml version="1.0" encoding="utf-8"?>
<!-- Generator: Adobe Illustrator 25.4.0, SVG Export Plug-In . SVG Version: 6.00 Build 0)  -->
<svg version="1.1" id="Capa_1" xmlns="http://www.w3.org/2000/svg" xmlns:xlink="http://www.w3.org/1999/xlink" x="0px" y="0px"
	 viewBox="0 0 168.08 64.89" style="enable-background:new 0 0 168.08 64.89;" xml:space="preserve">
<style type="text/css">
	.st0{fill:#19C71D;}
	.st1{fill-rule:evenodd;clip-rule:evenodd;fill:#FFFFFF;}
	.st2{fill-rule:evenodd;clip-rule:evenodd;fill:#19C71D;}
	.st3{opacity:0.6;}
	.st4{fill:#FFD000;}
	.st5{fill:#FFCA00;}
	.st6{fill:#FFFFFF;}
	.st7{fill:none;stroke:#000000;stroke-width:20.8545;}
	.st8{fill:#FFD138;}
	.st9{fill:none;stroke:#000000;stroke-width:11.5424;}
	.st10{fill:#FFFFFF;stroke:#000000;stroke-width:6.4513;}
	.st11{fill:none;}
	.st12{fill:none;stroke:#000000;stroke-width:16.889;}
	.st13{fill:none;stroke:#000000;stroke-width:14.2223;}
	.st14{fill:none;stroke:#000000;stroke-width:15.3591;}
	.st15{clip-path:url(#SVGID_00000041997343939874083760000003895343487944433829_);}
	.st16{clip-path:url(#SVGID_00000075136238916866229040000013329544770136681111_);}
	.st17{fill:#FFD620;}
	.st18{clip-path:url(#SVGID_00000086655388442638904280000007605108042608888755_);}
	.st19{clip-path:url(#SVGID_00000132777105241784390690000006259205494445792690_);}
	.st20{fill:none;stroke:#FFD000;stroke-width:6;}
	.st21{fill:none;stroke:#000000;stroke-width:12.8148;}
	.st22{fill:none;stroke:#000000;stroke-width:11.7469;}
	.st23{fill:#D6D6D6;}
	.st24{fill:#FFCE00;}
	.st25{fill:none;stroke:#FFCA00;stroke-width:2.5865;stroke-miterlimit:10;}
	.st26{clip-path:url(#SVGID_00000136407459120672387660000009411609519168846235_);}
	.st27{clip-path:url(#SVGID_00000024702226384416510800000010101264667412707002_);}
	.st28{clip-path:url(#SVGID_00000176726801724744161920000008197866770286683801_);}
	.st29{clip-path:url(#SVGID_00000085246742165128858200000004836215841027814835_);}
	.st30{fill:none;stroke:#FFD000;stroke-width:2.0873;stroke-miterlimit:10;}
	.st31{fill:none;stroke:#FFD000;stroke-width:0.6006;stroke-miterlimit:10;}
	.st32{clip-path:url(#SVGID_00000178883691334198912560000014312083702805050046_);}
	.st33{clip-path:url(#SVGID_00000142156404542423708760000012145387215692769721_);}
	.st34{fill:none;stroke:#FFD000;stroke-width:1.9908;stroke-miterlimit:10;}
	.st35{fill:none;stroke:#FFD000;stroke-width:1.1606;stroke-miterlimit:10;}
</style>
<g>
	<path class="st4" d="M40.6,0.69C37.48,0.69,0,0,0,0l1.04,64.89l45.46-8.33l1.91-47.97L40.6,0.69z"/>
	<g>
		<path class="st6" d="M67.29,18.82c-0.74,1.6-1.38,2.66-1.9,3.19c-0.82,0.82-1.27,1.27-1.35,1.35c-0.57,0.45-1.13,0.72-1.7,0.82
			c-0.08,0.39-0.12,0.85-0.12,1.38c0,0.37,0.03,0.93,0.09,1.68c0.06,0.75,0.09,1.3,0.09,1.65c0,1.33-0.31,2.32-0.94,2.99l-0.82-0.44
			c-0.33-0.17-0.52-0.39-0.56-0.64c-0.2-1.27-0.29-2.68-0.29-4.24c0-1.03,0.06-2.58,0.18-4.62s0.18-3.6,0.18-4.65
			c0-1.52-0.09-2.92-0.26-4.19c-0.16,0.06-0.3-0.04-0.44-0.29c-0.14-0.25-0.25-0.4-0.35-0.44c0.1-0.62,0.26-0.94,0.5-0.94
			c0.29-0.1,0.9-0.08,1.81,0.06c2.54,0.41,4.45,1.52,5.74,3.34c0.41,0.59,0.61,1.25,0.61,1.99C67.75,17.44,67.6,18.12,67.29,18.82z
			 M65.38,16.56c0.1-0.78-0.23-1.39-1-1.84c-0.04,0-0.74-0.28-2.11-0.85c0.21,3.59,0.28,6.11,0.2,7.55
			C64.22,19.78,65.19,18.16,65.38,16.56z"/>
		<path class="st6" d="M81.69,29.15c0.06,0.08,0.09,0.17,0.09,0.26c0,0.45-0.47,0.79-1.41,1.02c-1.03-0.8-2.32-2.03-3.86-3.69
			c-1.72-1.85-3-3.14-3.83-3.86c-0.06,0.51-0.17,1.83-0.32,3.98c-0.1,1.62-0.27,2.91-0.53,3.86c-0.04,0-0.16,0.05-0.37,0.15
			s-0.38,0.13-0.51,0.09c-0.86-0.2-1.29-0.79-1.29-1.79c0-0.29,0.04-0.68,0.12-1.17c0.08-0.57,0.13-0.92,0.15-1.05
			c0.08-1.13,0.13-2.48,0.15-4.04v-3.19c0-2.65,0.15-4.89,0.44-6.7c0.2-1.21,1.34-1.77,3.42-1.67c1.05,0.04,1.97,0.57,2.75,1.58
			c0.72,0.94,1.08,1.95,1.08,3.04c0,0.92-0.34,1.83-1.02,2.75c-0.59,0.82-1.31,1.46-2.17,1.93c-0.35,0.2-0.53,0.41-0.53,0.64
			c0,0.25,0.2,0.56,0.61,0.91c0.31,0.25,0.62,0.51,0.94,0.76c0.02,0.02,1.09,1,3.22,2.93C80.16,27.11,81.12,28.19,81.69,29.15z
			 M75.51,16.01c0.06-0.35,0.08-0.66,0.06-0.94c-0.06-0.41-0.23-0.78-0.51-1.11c-0.28-0.33-0.74-0.5-1.36-0.5
			c-0.47,0-0.76,0.15-0.88,0.44c-0.1,0.49-0.15,1.04-0.15,1.67c0,0.25,0.03,0.91,0.09,1.96c0.04,0.8,0.04,1.45,0,1.96
			C74.38,18.28,75.3,17.12,75.51,16.01z"/>
		<path class="st6" d="M90.82,14.31c-0.72,0.29-1.79,0.63-3.19,1.02c-1.4,0.39-2.47,0.73-3.19,1.02c-0.18,0.51-0.3,1.64-0.38,3.39
			c0.31,0.12,0.67,0.18,1.08,0.18c0.29,0,0.75-0.05,1.38-0.15c0.62-0.1,1.08-0.15,1.38-0.15c0.55,0,1.01,0.12,1.41,0.35
			c0.27,0.39,0.41,0.64,0.41,0.76c0,0.14-0.07,0.24-0.2,0.32c-0.04,0.02-0.18,0.16-0.41,0.41c-0.16,0.17-0.35,0.25-0.58,0.23
			c-0.41,0.1-1.16,0.16-2.25,0.18c-0.92,0.02-1.65,0.14-2.2,0.35c-0.37,1.44-0.56,2.58-0.56,3.42c0,0.57,0.08,1.01,0.23,1.35
			c0.92,0.64,2.51,0.92,4.77,0.82c0.16,0,0.32-0.07,0.5-0.22s0.32-0.22,0.44-0.22c0.55-0.12,0.91,0.29,1.08,1.23
			c0.06,0.31,0,0.6-0.16,0.86c-0.17,0.26-0.41,0.41-0.72,0.42c-2.36,0.08-4.41-0.11-6.15-0.56c-0.55-0.14-1.04-0.44-1.49-0.91
			c-0.45-0.47-0.7-1-0.76-1.58c-0.18-1.7-0.18-3.22,0-4.57c-0.55-0.37-0.79-0.73-0.73-1.08c0.02-0.18,0.17-0.34,0.45-0.48
			s0.44-0.3,0.48-0.45c0.04-0.16,0.12-1.08,0.23-2.78c-1.09-0.21-1.63-0.62-1.61-1.23c0.02-0.57,0.36-1.01,1.02-1.35
			c0.62-0.25,1.25-0.51,1.87-0.76c0.74-0.37,1.66-0.7,2.75-1c0.94-0.25,1.88-0.5,2.84-0.73c0.1-0.02,0.21-0.03,0.35-0.03
			c0.53,0,1.14,0.2,1.84,0.61c0.02,0.08,0.07,0.22,0.15,0.44s0.12,0.37,0.12,0.47C91.02,14.09,90.95,14.21,90.82,14.31z"/>
		<path class="st6" d="M102.64,21.63c-0.53,1.31-0.87,2.92-1.02,4.83c-0.1,1.66-0.19,3.32-0.26,4.97c-0.04,0.49-0.36,0.73-0.97,0.73
			c-0.18,0-0.34-0.03-0.5-0.09c-0.84-0.35-1.26-1-1.26-1.96c0-0.27,0.04-0.69,0.12-1.24c0.08-0.56,0.12-0.96,0.12-1.21
			c0.08-0.57,0.18-1.41,0.29-2.55c-1.35,1.27-2.87,2.21-4.57,2.84c-0.23,0.08-0.47,0.12-0.7,0.12c-0.9,0-1.73-0.51-2.49-1.52
			c-0.43-0.57-0.64-1.27-0.64-2.11c0-0.74,0.17-1.61,0.5-2.61c1.03-3.16,2.68-6.25,4.95-9.28c1.13-1.5,2.14-2.25,3.01-2.25
			c0.78,0,1.22,0.29,1.32,0.88c0.08,0.49-0.09,0.84-0.5,1.05c-0.68,0.37-1.04,0.58-1.08,0.61c-1.64,1.81-3.14,4.16-4.51,7.02
			c-0.84,1.78-1.26,3.37-1.26,4.77c0,0.25,0.01,0.51,0.03,0.76c0.04,0.02,0.1,0.11,0.18,0.28c0.08,0.17,0.18,0.22,0.32,0.16
			c1.29-0.51,3.23-1.84,5.82-4.01c0.2-0.16,0.42-0.6,0.67-1.35c0.19-0.55,0.55-0.82,1.05-0.82c-0.16,0,0-0.02,0.47-0.06
			c0.23-0.04,0.39,0,0.47,0.12c0.37,0.55,0.56,1,0.56,1.35C102.76,21.25,102.72,21.43,102.64,21.63z"/>
		<path class="st6" d="M115.69,12.99c-0.14,1.37-0.53,3.19-1.17,5.47c-0.88,3.06-1.39,4.92-1.52,5.56
			c-0.43,1.97-1.25,3.77-2.46,5.39c-0.76,1.03-1.64,1.54-2.63,1.52c-0.88-0.02-1.53-0.58-1.96-1.67c-0.74-1.83-1.11-3.99-1.11-6.47
			c0-1.42,0.14-3.26,0.41-5.5c-0.02,0.2-0.03-0.41-0.03-1.81c0-1.21,0.47-1.82,1.41-1.82c0.19,0,0.4,0.05,0.63,0.16
			c0.22,0.11,0.44,0.22,0.66,0.34c0.02,1-0.01,2.46-0.09,4.39c-0.1,2.07-0.15,3.56-0.15,4.48c0,0.98,0.03,1.86,0.09,2.66
			c0.04,0.41,0.21,1.19,0.53,2.34c0.82-0.92,1.46-2.14,1.93-3.66c0.16-0.51,0.47-1.89,0.94-4.16c0.37-1.72,0.79-3.06,1.26-4.04
			c0.14-0.27,0.25-0.79,0.35-1.55c0.1-0.76,0.21-1.29,0.35-1.58c0.21-0.47,0.59-0.7,1.11-0.7C114.91,12.35,115.4,12.57,115.69,12.99
			z"/>
		<path class="st6" d="M129.54,11.21c-0.27,2.62-0.54,5.24-0.79,7.87c-0.33,3.12-0.5,5.73-0.5,7.81c0,0.68,0.02,1.36,0.06,2.02
			c0.02,0.31-0.09,0.58-0.34,0.82c-0.24,0.23-0.52,0.35-0.83,0.35c-0.6,0-1.11-0.41-1.52-1.23c-1.25-2.44-2.8-6.26-4.65-11.47
			c-0.04-0.12-0.09-0.18-0.15-0.18c-0.14,0-0.22,0.14-0.26,0.41c-0.33,2.79-0.5,5.73-0.5,8.81c0,1.48,0.04,2.99,0.12,4.54
			c0.02,0.57-0.15,0.96-0.5,1.17c-0.14,0.14-0.28,0.21-0.44,0.21c-0.14,0-0.31-0.06-0.53-0.18c-0.29-0.14-0.48-0.22-0.56-0.26
			c-0.25-0.08-0.41-0.31-0.47-0.7c-0.02-0.31-0.04-0.63-0.06-0.97c-0.06-1.09-0.09-2.23-0.09-3.42c0-2.07,0.12-4.65,0.35-7.76
			c0.37-4.72,0.58-7.34,0.61-7.84c0.02-0.43,0.38-0.64,1.08-0.64c0.33-0.04,0.82,0.2,1.46,0.73c0.62,1.19,1.4,3.12,2.31,5.79
			c0.88,2.56,1.68,4.5,2.4,5.82c0.29-2.59,0.75-6.52,1.38-11.77c0.06-0.39,0.34-0.58,0.85-0.58c0.18,0,0.38,0.03,0.62,0.09
			c0.31,0.08,0.5,0.13,0.56,0.15C129.35,10.88,129.48,11.01,129.54,11.21z"/>
		<path class="st6" d="M146.37,10.71c-0.18,0.7-0.51,1.11-1,1.23c-1.27,0.31-3.47,0.72-6.62,1.23c-0.39,4.86-0.58,8.91-0.58,12.15
			c0,1.23,0.02,2.44,0.06,3.63c0.02,0.37,0,0.65-0.06,0.85c-0.1,0.31-0.29,0.46-0.59,0.44c-0.57-0.02-1.03-0.26-1.4-0.72
			c-0.37-0.46-0.58-0.97-0.62-1.54c-0.04-0.72-0.06-1.48-0.06-2.28c0-1.29,0.09-3.33,0.26-6.12c0.18-2.67,0.25-4.71,0.23-6.12
			c-0.53-0.04-1.26,0.01-2.2,0.15c-1.07,0.16-1.81,0.23-2.22,0.23c-0.96,0-1.74-0.26-2.34-0.77c-0.23-0.51-0.35-0.78-0.35-0.8
			c0-0.14,0.07-0.29,0.21-0.44c0.62-0.22,1.9-0.41,3.83-0.59c1.7-0.18,2.97-0.49,3.8-0.94c0.68,0.23,1.46,0.35,2.34,0.35
			s1.72-0.11,2.52-0.32c0.23-0.02,0.83-0.16,1.79-0.41c0.7-0.18,1.29-0.23,1.76-0.18c0.35,0,0.5,0.15,0.44,0.44
			C146.1,10.18,146.37,10.36,146.37,10.71z"/>
		<path class="st6" d="M153.6,27.54c0.12,0.31,0.18,0.59,0.18,0.82c0,0.39-0.17,0.73-0.5,1.02c-0.33,0.29-0.56,0.43-0.67,0.41
			c-0.96-0.18-1.56-0.95-1.81-2.31c-0.27-1.48-0.6-2.72-0.97-3.72c-0.66,0.06-1.33,0.12-1.99,0.18c-0.76,0.1-1.36,0.33-1.79,0.7
			c-0.21,0.61-0.5,1.68-0.85,3.22c-0.33,1.42-0.65,2.51-0.97,3.25c-0.16,0.35-0.49,0.45-1,0.29c-0.64-0.22-0.99-0.51-1.02-0.88
			c-0.06-0.74,0.16-1.74,0.64-2.99c0.58-1.42,0.91-2.44,0.97-3.04c0.02-0.17-0.11-0.37-0.38-0.58s-0.41-0.38-0.41-0.5
			c0-0.1,0.04-0.2,0.13-0.31s0.29-0.2,0.62-0.26c0.32-0.07,0.5-0.17,0.54-0.31c0.35-0.97,0.91-2.79,1.67-5.44
			c0.64-2.3,1.22-4.07,1.73-5.3c0.12-0.27,0.36-0.41,0.73-0.41c0.27,0,0.52,0.09,0.73,0.26c0.55,0.47,0.9,1.17,1.05,2.11
			c0.12,0.8,0.22,1.6,0.32,2.4C151.53,20.76,152.54,24.55,153.6,27.54z M149.32,21.95c-0.06-0.72-0.19-1.53-0.38-2.43
			c-0.2-0.78-0.38-1.56-0.56-2.34c-0.58,1.62-1.09,3.24-1.52,4.86C147.18,21.98,148,21.95,149.32,21.95z"/>
		<path class="st6" d="M161.47,11.24c0,0.39-0.28,0.73-0.85,1.02c-0.16,0.08-0.32,0.09-0.5,0.03c-0.27-0.08-0.42-0.12-0.44-0.12
			c-0.12,0-0.23,0.06-0.35,0.18c-1.05,1.05-1.58,2.34-1.58,3.86c0,0.57,0.09,1.09,0.26,1.58c0.08,0.21,0.82,1.73,2.22,4.54
			c0.94,1.87,1.41,3.46,1.41,4.77c0,1.07-0.26,2.11-0.79,3.1c-0.18,0.33-0.62,0.76-1.32,1.29c-0.57,0.41-1.07,0.62-1.52,0.62
			c-0.18,0-0.34-0.03-0.5-0.09c-0.58-0.25-0.88-0.58-0.88-0.97c0-0.23,0.15-0.52,0.44-0.85c0.08-0.1,0.26-0.16,0.56-0.18
			s0.49-0.14,0.58-0.35c0.41-0.86,0.62-1.74,0.62-2.63c0-1.27-0.63-3.11-1.89-5.52c-1.26-2.41-1.89-4.34-1.89-5.78
			c0-1.19,0.23-2.25,0.7-3.19c0.53-1.07,1.28-1.84,2.25-2.31c0.45-0.21,0.89-0.32,1.32-0.32c0.82,0,1.43,0.22,1.84,0.67
			C161.37,10.81,161.47,11.02,161.47,11.24z"/>
		<path class="st6" d="M71.94,37.6c0,0.39-0.12,0.75-0.37,1.07c-0.24,0.32-0.56,0.52-0.95,0.6c-0.16,0.04-0.37,0-0.64-0.13
			c-0.27-0.13-0.49-0.18-0.64-0.16c-0.86,0.08-1.91,0.38-3.16,0.91c-1.58,0.66-2.62,1.06-3.1,1.2c-0.08,1.23-0.12,2.48-0.12,3.75
			c0,1.27,0.04,2.54,0.12,3.81c0.16,0.04,0.32,0.06,0.5,0.06c0.39,0,1.09-0.16,2.11-0.47c0.96-0.27,1.69-0.38,2.2-0.32
			c0.43,0.04,0.62,0.21,0.58,0.5c-0.12,0.76-0.6,1.35-1.46,1.76c-0.8,0.25-1.6,0.52-2.4,0.79c-0.31,0.04-0.82,0.14-1.52,0.29
			c-0.04,0.39-0.06,0.83-0.06,1.32c0,0.47,0.02,1.18,0.07,2.14c0.05,0.96,0.07,1.67,0.07,2.14c0,1.68-0.26,3-0.79,3.98
			c-0.12,0.21-0.29,0.32-0.53,0.32s-0.48-0.11-0.73-0.32c-0.25-0.21-0.42-0.45-0.5-0.7c-0.2-0.61-0.29-1.31-0.29-2.11
			c0-0.27,0.07-1.22,0.2-2.84c0.1-1.17,0.08-2.12-0.06-2.84c-0.04-0.25-0.23-0.46-0.58-0.61c-0.45-0.2-0.73-0.35-0.85-0.47
			c-0.06-0.14-0.04-0.53,0.06-1.17c0.23,0.04,0.43-0.04,0.6-0.23c0.17-0.19,0.33-0.29,0.48-0.29c0.08,0,0.16,0.01,0.23,0.03
			c0.2-0.96,0.29-2.03,0.29-3.22c0-0.41-0.08-1.92-0.23-4.54c-0.37-0.1-0.74-0.33-1.1-0.69c-0.36-0.36-0.54-0.72-0.54-1.07
			c0-0.49,0.35-0.78,1.05-0.88c0.96-0.14,2.72-0.62,5.3-1.46c2.26-0.74,4.08-1.12,5.44-1.14c0.35,0,0.66,0.09,0.92,0.28
			S71.94,37.29,71.94,37.6z"/>
		<path class="st6" d="M82.65,56.39c0.06,0.08,0.09,0.17,0.09,0.26c0,0.45-0.47,0.79-1.41,1.02c-1.03-0.8-2.32-2.03-3.86-3.69
			c-1.72-1.85-3-3.14-3.83-3.86c-0.06,0.51-0.17,1.83-0.32,3.98c-0.1,1.62-0.27,2.91-0.53,3.86c-0.04,0-0.16,0.05-0.37,0.15
			s-0.38,0.13-0.51,0.09c-0.86-0.2-1.29-0.79-1.29-1.79c0-0.29,0.04-0.68,0.12-1.17c0.08-0.57,0.13-0.92,0.15-1.05
			c0.08-1.13,0.13-2.48,0.15-4.04v-3.19c0-2.65,0.15-4.89,0.44-6.7c0.2-1.21,1.34-1.77,3.42-1.67c1.05,0.04,1.97,0.57,2.75,1.58
			c0.72,0.94,1.08,1.95,1.08,3.04c0,0.92-0.34,1.83-1.02,2.75c-0.59,0.82-1.31,1.46-2.17,1.93c-0.35,0.2-0.53,0.41-0.53,0.64
			c0,0.25,0.2,0.56,0.61,0.91c0.31,0.25,0.62,0.51,0.94,0.76c0.02,0.02,1.09,1,3.22,2.93C81.13,54.35,82.09,55.44,82.65,56.39z
			 M76.48,43.25c0.06-0.35,0.08-0.66,0.06-0.94c-0.06-0.41-0.23-0.78-0.51-1.11c-0.28-0.33-0.74-0.5-1.36-0.5
			c-0.47,0-0.76,0.15-0.88,0.44c-0.1,0.49-0.15,1.04-0.15,1.67c0,0.25,0.03,0.91,0.09,1.96c0.04,0.8,0.04,1.45,0,1.96
			C75.34,45.52,76.26,44.36,76.48,43.25z"/>
		<path class="st6" d="M91.78,41.55c-0.72,0.29-1.79,0.63-3.19,1.02c-1.4,0.39-2.47,0.73-3.19,1.02c-0.18,0.51-0.3,1.64-0.38,3.39
			c0.31,0.12,0.67,0.18,1.08,0.18c0.29,0,0.75-0.05,1.38-0.15c0.62-0.1,1.08-0.15,1.38-0.15c0.55,0,1.01,0.12,1.41,0.35
			c0.27,0.39,0.41,0.64,0.41,0.76c0,0.14-0.07,0.24-0.2,0.32c-0.04,0.02-0.18,0.16-0.41,0.41c-0.16,0.17-0.35,0.25-0.58,0.23
			c-0.41,0.1-1.16,0.16-2.25,0.18c-0.92,0.02-1.65,0.14-2.2,0.35c-0.37,1.44-0.56,2.58-0.56,3.42c0,0.57,0.08,1.01,0.23,1.35
			c0.92,0.64,2.51,0.92,4.77,0.82c0.16,0,0.32-0.07,0.5-0.22s0.32-0.22,0.44-0.22c0.55-0.12,0.91,0.29,1.08,1.23
			c0.06,0.31,0,0.6-0.16,0.86c-0.17,0.26-0.41,0.41-0.72,0.42c-2.36,0.08-4.41-0.11-6.15-0.56c-0.55-0.14-1.04-0.44-1.49-0.91
			c-0.45-0.47-0.7-1-0.76-1.58c-0.18-1.7-0.18-3.22,0-4.57c-0.55-0.37-0.79-0.73-0.73-1.08c0.02-0.18,0.17-0.34,0.45-0.48
			s0.44-0.3,0.48-0.45c0.04-0.16,0.12-1.08,0.23-2.78c-1.09-0.21-1.63-0.62-1.61-1.23c0.02-0.57,0.36-1.01,1.02-1.35
			c0.62-0.25,1.25-0.51,1.87-0.76c0.74-0.37,1.66-0.7,2.75-1c0.94-0.25,1.88-0.5,2.84-0.73c0.1-0.02,0.21-0.03,0.35-0.03
			c0.53,0,1.14,0.2,1.84,0.61c0.02,0.08,0.07,0.22,0.15,0.44s0.12,0.37,0.12,0.47C91.99,41.33,91.92,41.46,91.78,41.55z"/>
		<path class="st6" d="M101.03,38.54c0,0.53-0.35,0.86-1.05,1c-0.92,0.18-1.48,0.38-1.7,0.61c-2.19,2.3-3.28,5.28-3.28,8.93
			c0,1.72,0.27,3.34,0.82,4.86c0.45,1.25,0.77,2.07,0.97,2.46c0.49,0.96,1.08,1.64,1.79,2.05c0.29,0.14,0.59,0.26,0.88,0.38
			c0.31,0.18,0.47,0.42,0.47,0.73c0,0.31-0.1,0.59-0.31,0.85c-0.21,0.25-0.42,0.35-0.66,0.29c-0.25-0.04-0.64-0.17-1.17-0.38
			c-0.94-0.55-1.95-1.71-3.04-3.48c-0.27-0.45-0.55-0.91-0.83-1.39c-0.28-0.48-0.49-0.93-0.63-1.36c-0.1-0.31-0.26-1.57-0.5-3.78
			c-0.08-0.68-0.12-1.35-0.12-1.99c0-3.45,1-6.39,3.01-8.81c1.17-1.41,2.39-2.11,3.66-2.11c0.55,0,1.04,0.17,1.49,0.5
			C100.96,37.99,101.03,38.21,101.03,38.54z"/>
		<path class="st6" d="M111.71,40.24c-0.14,1.37-0.53,3.19-1.17,5.47c-0.88,3.06-1.38,4.92-1.52,5.56
			c-0.43,1.97-1.25,3.77-2.46,5.39c-0.76,1.03-1.64,1.54-2.63,1.52c-0.88-0.02-1.53-0.58-1.96-1.67c-0.74-1.83-1.11-3.99-1.11-6.47
			c0-1.42,0.14-3.26,0.41-5.5c-0.02,0.2-0.03-0.41-0.03-1.81c0-1.21,0.47-1.82,1.4-1.82c0.2,0,0.41,0.05,0.63,0.16
			c0.22,0.11,0.44,0.22,0.66,0.34c0.02,1-0.01,2.46-0.09,4.39c-0.1,2.07-0.15,3.56-0.15,4.48c0,0.98,0.03,1.86,0.09,2.66
			c0.04,0.41,0.21,1.19,0.53,2.34c0.82-0.92,1.46-2.14,1.93-3.66c0.16-0.51,0.47-1.89,0.94-4.16c0.37-1.72,0.79-3.06,1.26-4.04
			c0.14-0.27,0.25-0.79,0.35-1.55c0.1-0.76,0.21-1.29,0.35-1.58c0.21-0.47,0.58-0.7,1.11-0.7
			C110.93,39.59,111.42,39.81,111.71,40.24z"/>
		<path class="st6" d="M123.22,41.55c-0.72,0.29-1.79,0.63-3.19,1.02s-2.47,0.73-3.19,1.02c-0.18,0.51-0.3,1.64-0.38,3.39
			c0.31,0.12,0.67,0.18,1.08,0.18c0.29,0,0.75-0.05,1.38-0.15c0.62-0.1,1.08-0.15,1.38-0.15c0.55,0,1.01,0.12,1.4,0.35
			c0.27,0.39,0.41,0.64,0.41,0.76c0,0.14-0.07,0.24-0.21,0.32c-0.04,0.02-0.18,0.16-0.41,0.41c-0.16,0.17-0.35,0.25-0.59,0.23
			c-0.41,0.1-1.16,0.16-2.25,0.18c-0.92,0.02-1.65,0.14-2.19,0.35c-0.37,1.44-0.56,2.58-0.56,3.42c0,0.57,0.08,1.01,0.23,1.35
			c0.92,0.64,2.51,0.92,4.77,0.82c0.16,0,0.32-0.07,0.5-0.22c0.17-0.15,0.32-0.22,0.44-0.22c0.55-0.12,0.91,0.29,1.08,1.23
			c0.06,0.31,0,0.6-0.16,0.86c-0.17,0.26-0.41,0.41-0.72,0.42c-2.36,0.08-4.41-0.11-6.15-0.56c-0.55-0.14-1.04-0.44-1.49-0.91
			c-0.45-0.47-0.7-1-0.76-1.58c-0.17-1.7-0.17-3.22,0-4.57c-0.55-0.37-0.79-0.73-0.73-1.08c0.02-0.18,0.17-0.34,0.45-0.48
			c0.28-0.15,0.44-0.3,0.48-0.45s0.12-1.08,0.23-2.78c-1.09-0.21-1.63-0.62-1.61-1.23c0.02-0.57,0.36-1.01,1.02-1.35
			c0.62-0.25,1.25-0.51,1.87-0.76c0.74-0.37,1.66-0.7,2.75-1c0.94-0.25,1.88-0.5,2.84-0.73c0.1-0.02,0.21-0.03,0.35-0.03
			c0.53,0,1.14,0.2,1.84,0.61c0.02,0.08,0.07,0.22,0.15,0.44c0.08,0.21,0.12,0.37,0.12,0.47C123.42,41.33,123.35,41.46,123.22,41.55
			z"/>
		<path class="st6" d="M136.85,38.45c-0.27,2.62-0.54,5.24-0.79,7.87c-0.33,3.12-0.5,5.73-0.5,7.81c0,0.68,0.02,1.36,0.06,2.02
			c0.02,0.31-0.09,0.58-0.34,0.82s-0.52,0.35-0.83,0.35c-0.6,0-1.11-0.41-1.52-1.23c-1.25-2.44-2.8-6.26-4.65-11.47
			c-0.04-0.12-0.09-0.18-0.15-0.18c-0.14,0-0.22,0.14-0.26,0.41c-0.33,2.79-0.5,5.73-0.5,8.81c0,1.48,0.04,2.99,0.12,4.54
			c0.02,0.57-0.15,0.96-0.5,1.17c-0.14,0.14-0.28,0.21-0.44,0.21c-0.14,0-0.31-0.06-0.53-0.18c-0.29-0.14-0.48-0.22-0.56-0.26
			c-0.25-0.08-0.41-0.31-0.47-0.7c-0.02-0.31-0.04-0.63-0.06-0.97c-0.06-1.09-0.09-2.23-0.09-3.42c0-2.07,0.12-4.65,0.35-7.76
			c0.37-4.72,0.58-7.34,0.61-7.84c0.02-0.43,0.38-0.64,1.08-0.64c0.33-0.04,0.82,0.2,1.46,0.73c0.62,1.19,1.4,3.12,2.31,5.79
			c0.88,2.56,1.68,4.5,2.4,5.82c0.29-2.59,0.75-6.52,1.38-11.77c0.06-0.39,0.34-0.58,0.85-0.58c0.18,0,0.38,0.03,0.62,0.09
			c0.31,0.08,0.5,0.13,0.56,0.15C136.67,38.12,136.8,38.26,136.85,38.45z"/>
		<path class="st6" d="M153.68,37.95c-0.18,0.7-0.51,1.11-1,1.23c-1.27,0.31-3.47,0.72-6.62,1.23c-0.39,4.86-0.58,8.91-0.58,12.15
			c0,1.23,0.02,2.44,0.06,3.63c0.02,0.37,0,0.65-0.06,0.85c-0.1,0.31-0.29,0.46-0.59,0.44c-0.57-0.02-1.03-0.26-1.4-0.72
			c-0.37-0.46-0.58-0.97-0.62-1.54c-0.04-0.72-0.06-1.48-0.06-2.28c0-1.29,0.09-3.33,0.26-6.12c0.18-2.67,0.25-4.71,0.23-6.12
			c-0.53-0.04-1.26,0.01-2.2,0.15c-1.07,0.16-1.81,0.23-2.22,0.23c-0.96,0-1.74-0.26-2.34-0.77c-0.23-0.51-0.35-0.78-0.35-0.8
			c0-0.14,0.07-0.29,0.21-0.44c0.62-0.22,1.9-0.41,3.83-0.59c1.7-0.18,2.97-0.49,3.8-0.94c0.68,0.23,1.46,0.35,2.34,0.35
			s1.72-0.11,2.52-0.32c0.23-0.02,0.83-0.16,1.79-0.41c0.7-0.18,1.29-0.23,1.76-0.18c0.35,0,0.5,0.15,0.44,0.44
			C153.42,37.43,153.68,37.6,153.68,37.95z"/>
		<path class="st6" d="M160.41,41.55c-0.72,0.29-1.79,0.63-3.19,1.02c-1.4,0.39-2.47,0.73-3.19,1.02c-0.18,0.51-0.3,1.64-0.38,3.39
			c0.31,0.12,0.67,0.18,1.08,0.18c0.29,0,0.75-0.05,1.38-0.15c0.62-0.1,1.08-0.15,1.38-0.15c0.55,0,1.01,0.12,1.41,0.35
			c0.27,0.39,0.41,0.64,0.41,0.76c0,0.14-0.07,0.24-0.2,0.32c-0.04,0.02-0.18,0.16-0.41,0.41c-0.16,0.17-0.35,0.25-0.58,0.23
			c-0.41,0.1-1.16,0.16-2.25,0.18c-0.92,0.02-1.65,0.14-2.2,0.35c-0.37,1.44-0.56,2.58-0.56,3.42c0,0.57,0.08,1.01,0.23,1.35
			c0.92,0.64,2.51,0.92,4.77,0.82c0.16,0,0.32-0.07,0.5-0.22s0.32-0.22,0.44-0.22c0.55-0.12,0.91,0.29,1.08,1.23
			c0.06,0.31,0,0.6-0.16,0.86c-0.17,0.26-0.41,0.41-0.72,0.42c-2.36,0.08-4.41-0.11-6.15-0.56c-0.55-0.14-1.04-0.44-1.49-0.91
			c-0.45-0.47-0.7-1-0.76-1.58c-0.18-1.7-0.18-3.22,0-4.57c-0.55-0.37-0.79-0.73-0.73-1.08c0.02-0.18,0.17-0.34,0.45-0.48
			s0.44-0.3,0.48-0.45c0.04-0.16,0.12-1.08,0.23-2.78c-1.09-0.21-1.63-0.62-1.61-1.23c0.02-0.57,0.36-1.01,1.02-1.35
			c0.62-0.25,1.25-0.51,1.87-0.76c0.74-0.37,1.66-0.7,2.75-1c0.94-0.25,1.88-0.5,2.84-0.73c0.1-0.02,0.21-0.03,0.35-0.03
			c0.53,0,1.14,0.2,1.84,0.61c0.02,0.08,0.07,0.22,0.15,0.44s0.12,0.37,0.12,0.47C160.62,41.33,160.55,41.46,160.41,41.55z"/>
		<path class="st6" d="M167.91,38.48c0,0.39-0.28,0.73-0.85,1.02c-0.16,0.08-0.32,0.09-0.5,0.03c-0.27-0.08-0.42-0.12-0.44-0.12
			c-0.12,0-0.23,0.06-0.35,0.18c-1.05,1.05-1.58,2.34-1.58,3.86c0,0.57,0.09,1.09,0.26,1.58c0.08,0.21,0.82,1.73,2.22,4.54
			c0.94,1.87,1.4,3.46,1.4,4.77c0,1.07-0.26,2.11-0.79,3.1c-0.18,0.33-0.61,0.76-1.32,1.29c-0.57,0.41-1.07,0.62-1.52,0.62
			c-0.18,0-0.34-0.03-0.5-0.09c-0.59-0.25-0.88-0.58-0.88-0.97c0-0.23,0.15-0.52,0.44-0.85c0.08-0.1,0.26-0.16,0.56-0.18
			c0.29-0.02,0.49-0.14,0.59-0.35c0.41-0.86,0.61-1.74,0.61-2.63c0-1.27-0.63-3.11-1.89-5.52c-1.26-2.41-1.89-4.34-1.89-5.78
			c0-1.19,0.23-2.25,0.7-3.19c0.53-1.07,1.28-1.84,2.25-2.31c0.45-0.21,0.89-0.32,1.32-0.32c0.82,0,1.43,0.22,1.84,0.67
			C167.81,38.05,167.91,38.27,167.91,38.48z"/>
	</g>
	<g>
		<path d="M25.88,5.9c2.12-0.04,3.77,0.13,4.96,0.5c1.18,0.38,2.56,1.15,4.13,2.33c1.51,1.12,2.68,2.24,3.51,3.37
			c1.83,2.43,2.77,5.14,2.83,8.12c0.05,2.52-0.44,4.8-1.46,6.83c-1.02,2.03-2.75,3.87-5.18,5.52c-1.58,1.12-2.68,2.06-3.3,2.82
			c-0.62,0.76-1.11,1.71-1.49,2.87c-0.32,0.98-0.63,1.61-0.91,1.87c-0.28,0.26-0.82,0.4-1.63,0.42c-0.63,0.01-2.34-0.13-5.13-0.42
			c-2.79-0.29-4.44-0.49-4.96-0.59c-0.52-0.1-0.87-0.33-1.05-0.67c-0.18-0.34-0.27-0.68-0.28-1.03c-0.01-0.52,0.33-1.93,1.04-4.24
			c0.7-2.31,1.3-3.78,1.81-4.42c0.56-0.75,1.58-1.52,3.05-2.3c1.36-0.72,2.34-1.38,2.93-1.99c0.59-0.61,0.93-1.38,1.03-2.3
			l0.08-0.35l0-0.26c-0.03-1.49-0.79-2.22-2.28-2.19c-1.21,0.02-2.81,1.52-4.82,4.48c-0.67,0.99-1.18,1.49-1.52,1.49
			c-0.12,0-0.2-0.02-0.26-0.08l-0.26,0c-1.09-0.15-3.16-1.57-6.19-4.27c-1.05-0.95-1.58-1.72-1.59-2.29
			c-0.01-0.57,0.31-1.5,0.98-2.77c1.1-2.14,2.81-4.17,5.13-6.08c2.31-1.91,4.64-3.2,6.98-3.88C23.16,6.09,24.45,5.92,25.88,5.9z
			 M21.44,42.38c1.95-0.04,3.62,0.5,5.02,1.62c1.4,1.12,2.12,2.86,2.17,5.21c0.02,0.98-0.08,1.72-0.3,2.24
			c-0.38,1.21-1.22,2.25-2.52,3.1c-1.3,0.86-2.64,1.3-4.02,1.33c-2.01,0.04-3.64-0.56-4.9-1.8c-1.26-1.24-1.94-2.94-2.04-5.12
			l-0.01-0.6c-0.02-1.09,0.25-1.95,0.81-2.6c1-1.57,2.33-2.6,3.98-3.09C20.15,42.49,20.75,42.4,21.44,42.38z"/>
	</g>
</g>
</svg>
