<?xml version="1.0" encoding="utf-8"?>
<!-- Generator: Adobe Illustrator 25.4.0, SVG Export Plug-In . SVG Version: 6.00 Build 0)  -->
<svg version="1.1" id="Capa_1" xmlns="http://www.w3.org/2000/svg" xmlns:xlink="http://www.w3.org/1999/xlink" x="0px" y="0px"
	 viewBox="0 0 228.05 86.9" style="enable-background:new 0 0 228.05 86.9;" xml:space="preserve">
<style type="text/css">
	.st0{fill:#19C71D;}
	.st1{fill-rule:evenodd;clip-rule:evenodd;fill:#FFFFFF;}
	.st2{fill-rule:evenodd;clip-rule:evenodd;fill:#19C71D;}
	.st3{opacity:0.6;}
	.st4{fill:#FFD000;}
	.st5{fill:#FFCA00;}
	.st6{fill:#FFFFFF;}
	.st7{fill:none;stroke:#000000;stroke-width:20.8545;}
	.st8{fill:#FFD138;}
	.st9{fill:none;stroke:#000000;stroke-width:11.5424;}
	.st10{fill:#FFFFFF;stroke:#000000;stroke-width:6.4513;}
	.st11{fill:none;}
	.st12{fill:none;stroke:#000000;stroke-width:16.889;}
	.st13{fill:none;stroke:#000000;stroke-width:14.2223;}
	.st14{fill:none;stroke:#000000;stroke-width:15.3591;}
	.st15{clip-path:url(#SVGID_00000163778269490961029590000004415565377947924119_);}
	.st16{clip-path:url(#SVGID_00000001623584745674866280000001902402097935933090_);}
	.st17{fill:#FFD620;}
	.st18{clip-path:url(#SVGID_00000001626739300638707800000010018718772457386405_);}
	.st19{clip-path:url(#SVGID_00000001657887680222313720000007313468039067443871_);}
	.st20{fill:none;stroke:#FFD000;stroke-width:6;}
	.st21{fill:none;stroke:#000000;stroke-width:12.8148;}
	.st22{fill:none;stroke:#000000;stroke-width:11.7469;}
	.st23{fill:#D6D6D6;}
	.st24{fill:#FFCE00;}
	.st25{fill:none;stroke:#FFCA00;stroke-width:2.5865;stroke-miterlimit:10;}
	.st26{clip-path:url(#SVGID_00000010281044878255633290000011012994448561748621_);}
	.st27{clip-path:url(#SVGID_00000155107745237922398310000014788502231634653092_);}
	.st28{clip-path:url(#SVGID_00000010298871273909005900000017353273185950840202_);}
	.st29{clip-path:url(#SVGID_00000103224571859803056140000009703996756225004192_);}
	.st30{fill:none;stroke:#FFD000;stroke-width:2.0873;stroke-miterlimit:10;}
	.st31{fill:none;stroke:#FFD000;stroke-width:0.6006;stroke-miterlimit:10;}
	.st32{clip-path:url(#SVGID_00000075162073487903068790000009348977148951137923_);}
	.st33{clip-path:url(#SVGID_00000119079824757665169310000015768356505136467093_);}
	.st34{fill:none;stroke:#FFD000;stroke-width:1.9908;stroke-miterlimit:10;}
	.st35{fill:none;stroke:#FFD000;stroke-width:1.1606;stroke-miterlimit:10;}
</style>
<g>
	<g>
		<path class="st4" d="M79.39,14.23c1.53-0.06,3.07,0.12,4.62,0.53c0.69,0.19,1.17,0.38,1.44,0.58c0.27,0.2,0.41,0.47,0.42,0.8
			c0.01,0.26-0.15,0.9-0.48,1.91c-0.33,1.02-0.63,1.81-0.92,2.39c-0.09,0.24-0.25,0.36-0.48,0.37c-0.14,0-0.44-0.08-0.89-0.25
			c-0.93-0.36-1.85-0.53-2.74-0.5l-0.21,0.01l-0.18,0.04c-0.68,0.12-1.35,0.44-2,0.96c-0.65,0.52-1.12,1.1-1.4,1.75
			c-0.24,0.57-0.34,1.21-0.32,1.89c0.05,1.2,0.42,2.14,1.12,2.82c0.7,0.68,1.81,0.99,3.34,0.94c0.92-0.03,1.76-0.24,2.52-0.63
			c0.3-0.18,0.63-0.27,0.98-0.29c0.26-0.01,0.46,0.05,0.61,0.19c0.2,0.21,0.5,0.72,0.93,1.54c0.42,0.82,0.66,1.37,0.72,1.66
			c0.02,0.05,0.04,0.15,0.05,0.32c0.02,0.4-0.16,0.73-0.53,0.98c-0.37,0.3-1.1,0.64-2.19,1.04c-1.56,0.6-2.92,0.92-4.07,0.97
			l-0.64,0.02c-1.42-0.02-2.56-0.19-3.43-0.52c-0.88-0.33-1.78-0.94-2.71-1.83c-2.05-1.88-3.14-4.38-3.26-7.49
			c-0.03-0.78,0-1.34,0.08-1.7c0.19-1.21,0.67-2.39,1.42-3.54c0.76-1.15,1.69-2.15,2.81-2.99c1.11-0.84,2.29-1.42,3.53-1.73
			C78.18,14.34,78.8,14.25,79.39,14.23z"/>
		<path class="st4" d="M96.83,15.8c0.8-0.03,1.58,0,2.34,0.09c1.78,0.26,3.31,0.9,4.6,1.92s2.1,2.22,2.44,3.62
			c0.08,0.3,0.13,0.7,0.15,1.2c0.05,1.44-0.12,2.71-0.51,3.82c-0.39,1.11-1.07,2.17-2.02,3.17c-0.88,0.93-1.8,1.58-2.76,1.96
			c-0.95,0.38-1.95,0.59-2.98,0.63c-1.81,0.07-3.48-0.3-5-1.12c-1.52-0.82-2.72-1.86-3.6-3.12c-0.89-1.26-1.35-2.49-1.4-3.67
			c-0.01-0.38,0.02-0.94,0.11-1.7c0.63-3.82,2.72-6.01,6.26-6.57C95.31,15.91,96.1,15.83,96.83,15.8z M97.32,21.41
			c-0.33,0.01-0.61,0.11-0.84,0.28c-0.83,0.55-1.22,1.31-1.19,2.28c0.01,0.35,0.12,0.75,0.33,1.19c0.46,0.85,1.15,1.27,2.06,1.23
			c0.49-0.02,0.91-0.19,1.25-0.53c0.34-0.33,0.54-0.75,0.59-1.24c0.02-0.07,0.03-0.21,0.02-0.43c-0.02-0.57-0.17-1.1-0.45-1.61
			c-0.28-0.51-0.61-0.85-1-1.02C97.82,21.45,97.56,21.4,97.32,21.41z"/>
		<path class="st4" d="M129.96,14.94c0.61-0.02,1.33,0.16,2.14,0.54c0.82,0.38,1.47,0.92,1.97,1.61c0.5,0.69,0.9,1.72,1.21,3.1
			c0.26,1.17,0.5,3.1,0.71,5.78c0.03,0.26,0.07,0.78,0.1,1.55c0.06,1.48-0.13,2.46-0.56,2.92l-0.37,0.4l-2.79,0.04l-2.16,0.12
			c-0.35,0.01-0.6-0.02-0.73-0.11s-0.22-0.27-0.27-0.54c-0.04-0.27-0.08-0.77-0.11-1.5c-0.03-0.75-0.06-1.39-0.11-1.91
			c-0.16-2.45-0.34-4.05-0.54-4.79c-0.2-0.77-0.54-1.21-1.04-1.3c-0.05-0.02-0.14-0.03-0.28-0.03c-0.38,0.01-0.73,0.16-1.06,0.45
			c-0.33,0.28-0.57,0.64-0.72,1.07c-0.15,0.48-0.19,1.57-0.12,3.26c0.04,0.94,0.12,1.87,0.25,2.79l0.2,1.51
			c0.01,0.35-0.08,0.59-0.29,0.72c-0.19,0.08-0.7,0.16-1.55,0.24c-0.21,0.03-0.45,0.05-0.71,0.06l-2.01,0.15
			c-0.64,0.02-1.02-0.07-1.14-0.28c-0.13-0.35-0.49-2.61-1.07-6.79c-0.12-0.82-0.27-1.5-0.43-2.04c-0.11-0.37-0.29-0.55-0.55-0.54
			c-0.17,0.01-0.41,0.11-0.73,0.31c-0.55,0.35-0.9,0.92-1.03,1.7c-0.2,0.83-0.28,2.25-0.23,4.26c0.02,0.59,0.03,1,0.01,1.24
			c0.02,1.2-0.03,1.91-0.17,2.13c-0.13,0.22-0.48,0.34-1.05,0.36s-1.05,0.05-1.45,0.09l-1.76,0.14c-0.94,0.04-1.53-0.14-1.75-0.54
			c-0.28-0.58-0.54-4.05-0.78-10.41l-0.14-2.65c-0.03-0.66,0.04-1.12,0.2-1.37c0.16-0.25,0.46-0.42,0.92-0.5
			c0.46-0.08,1.31-0.14,2.56-0.19c1.27-0.05,2.08-0.01,2.41,0.12c0.36,0.15,0.55,0.43,0.56,0.83c0.01,0.17,0.06,0.25,0.15,0.24
			c0.09,0,0.35-0.16,0.76-0.45c1.15-0.8,2.43-1.22,3.84-1.28c1.84-0.07,3.24,0.43,4.2,1.5l0.48,0.55l0.75-0.67
			c0.84-0.74,1.8-1.29,2.87-1.67C128.95,15.03,129.42,14.96,129.96,14.94z"/>
		<path class="st4" d="M147.4,13.88c0.8-0.03,1.58,0,2.34,0.09c1.78,0.26,3.31,0.9,4.6,1.92s2.1,2.22,2.44,3.62
			c0.08,0.3,0.13,0.7,0.15,1.2c0.05,1.44-0.12,2.71-0.51,3.82c-0.4,1.11-1.07,2.17-2.02,3.17c-0.89,0.93-1.8,1.58-2.76,1.96
			c-0.95,0.38-1.95,0.59-2.98,0.63c-1.82,0.07-3.48-0.3-5-1.12c-1.52-0.82-2.72-1.86-3.6-3.12c-0.88-1.26-1.35-2.49-1.4-3.66
			c-0.01-0.38,0.02-0.95,0.11-1.7c0.63-3.82,2.72-6.01,6.26-6.57C145.89,13.99,146.67,13.91,147.4,13.88z M147.9,19.49
			c-0.33,0.01-0.61,0.11-0.84,0.28c-0.83,0.55-1.22,1.31-1.19,2.27c0.01,0.35,0.12,0.75,0.33,1.19c0.46,0.86,1.15,1.27,2.06,1.23
			c0.5-0.02,0.91-0.19,1.25-0.53c0.34-0.33,0.54-0.75,0.59-1.24c0.02-0.07,0.03-0.21,0.02-0.43c-0.02-0.57-0.17-1.1-0.45-1.61
			s-0.61-0.85-1-1.03C148.4,19.53,148.14,19.49,147.9,19.49z"/>
		<path class="st4" d="M23.3,52.31l1.06-0.04c1.58-0.01,2.49,0.01,2.73,0.07c0.33,0.11,0.51,0.41,0.53,0.9
			c0.02,0.4,0.07,0.6,0.16,0.6L29,53.51c0.77-0.24,1.54-0.38,2.32-0.41c1.37-0.05,2.58,0.21,3.64,0.78c0.38,0.2,0.85,0.58,1.41,1.13
			c0.55,0.56,0.98,1.07,1.28,1.53c0.58,1.02,0.89,2.08,0.93,3.19c0.08,2.03-0.63,3.85-2.13,5.46C35.71,66,35,66.57,34.34,66.92
			c-0.66,0.34-1.42,0.53-2.3,0.56c-0.78,0.03-1.95-0.17-3.53-0.61l-0.04,0c-0.12,0-0.17,0.93-0.14,2.77l0.07,2.83l-0.38,0.37
			l-0.38,0.33l-2.65,0.06c-1.25,0-2.02-0.01-2.3-0.02c-0.33-0.04-0.55-0.11-0.65-0.22c-0.1-0.14-0.19-0.72-0.28-1.76
			c-0.05-0.68-0.17-3.43-0.35-8.23c-0.25-6.5-0.34-9.86-0.28-10.08c0.09-0.21,0.23-0.37,0.44-0.48
			C21.83,52.39,22.4,52.34,23.3,52.31z M30.63,57.27c-0.26,0.01-0.49,0.05-0.7,0.13c-0.33,0.15-0.68,0.42-1.07,0.78l-0.65,0.66
			l0.19,1.3c0.15,0.84,0.26,1.33,0.34,1.47c0.08,0.21,0.26,0.36,0.53,0.44c0.27,0.08,0.59,0.12,0.94,0.11
			c0.73-0.03,1.33-0.29,1.81-0.79c0.48-0.5,0.7-1.13,0.67-1.88c-0.03-0.9-0.33-1.54-0.89-1.95C31.52,57.34,31.13,57.25,30.63,57.27z
			"/>
		<path class="st4" d="M53.58,51.06c1.32-0.05,2.35-0.01,3.08,0.13c0.52,0.1,0.91,0.27,1.17,0.52c0.26,0.25,0.46,0.65,0.59,1.18
			c0.08,0.3,0.16,1.35,0.23,3.14c0.15,4.03,0.17,6.78,0.06,8.25c-0.04,0.78-0.13,1.31-0.26,1.6s-0.4,0.49-0.81,0.6
			c-0.41,0.11-1.19,0.21-2.34,0.3c-0.31,0.04-0.81,0.07-1.52,0.09c-0.52,0.02-0.86-0.02-1.03-0.12c-0.17-0.1-0.34-0.33-0.52-0.71
			c-0.18-0.37-0.32-0.55-0.41-0.55c-0.09,0-0.45,0.17-1.08,0.5c-0.97,0.51-1.91,0.78-2.8,0.81c-0.94,0.04-1.95-0.28-3.01-0.95
			c-1.06-0.67-1.97-1.55-2.7-2.66c-0.74-1.1-1.13-2.25-1.17-3.42c-0.02-0.52,0.01-0.93,0.09-1.24L41.24,58l0.06-0.39
			c0.05-0.54,0.43-1.41,1.14-2.59c1.09-1.83,2.52-3,4.29-3.49c0.35-0.08,0.71-0.13,1.09-0.15c1.32-0.05,2.43,0.24,3.32,0.86
			c0.24,0.16,0.42,0.23,0.54,0.23c0.12,0,0.17-0.09,0.17-0.25c0-0.12,0.09-0.3,0.28-0.56s0.37-0.42,0.53-0.5
			C52.76,51.11,53.06,51.08,53.58,51.06z M50.04,56.5c-0.57,0.02-1.07,0.21-1.5,0.55c-0.44,0.35-0.73,0.81-0.87,1.38
			c-0.06,0.21-0.09,0.44-0.08,0.67c0.02,0.61,0.29,1.09,0.8,1.44c0.51,0.35,1.19,0.5,2.04,0.47c0.45-0.02,0.75-0.05,0.9-0.1
			c0.15-0.05,0.25-0.16,0.29-0.33s0.09-0.52,0.14-1.07c0.07-0.64,0.09-1.27,0.07-1.88c-0.01-0.35-0.04-0.57-0.1-0.65
			c-0.05-0.08-0.22-0.17-0.51-0.28C50.87,56.55,50.48,56.48,50.04,56.5z"/>
		<path class="st4" d="M62.23,50.48c0.21-0.15,0.71-0.24,1.51-0.27c0.82-0.03,1.61,0,2.36,0.09c0.75,0.09,1.19,0.23,1.34,0.41
			c0.17,0.18,0.26,0.34,0.27,0.48l0.07,0.03c0.14,0,0.47-0.15,0.97-0.43c0.97-0.53,1.86-0.81,2.66-0.84
			c0.82-0.03,1.68,0.17,2.57,0.61c0.89,0.44,1.34,0.92,1.36,1.43c0.01,0.28-0.17,0.86-0.54,1.74c-0.37,0.88-0.7,1.54-0.99,2
			c-0.22,0.36-0.46,0.55-0.72,0.56c-0.09,0-0.36-0.05-0.78-0.15c-0.43-0.13-0.83-0.18-1.21-0.17c-0.8,0.03-1.44,0.37-1.91,1.03
			c-0.81,1.12-1.14,3.49-1,7.12l0.02,0.49c0.02,0.52,0,0.88-0.05,1.1c-0.05,0.21-0.19,0.36-0.41,0.44
			c-0.22,0.08-0.59,0.13-1.11,0.15l-0.6-0.01l-0.78,0.03c-1.65,0.02-2.6-0.06-2.84-0.21c-0.29-0.18-0.45-0.37-0.48-0.58
			c-0.08-0.26-0.15-1.14-0.21-2.65c-0.09-2.29-0.13-4.76-0.12-7.43c0-2.67,0.06-4.14,0.17-4.43C61.9,50.79,62.05,50.61,62.23,50.48z
			"/>
		<path class="st4" d="M84.75,45.03c1.32-0.05,2.14-0.06,2.48-0.02c0.4,0.08,0.65,0.16,0.73,0.24c0.08,0.08,0.13,0.26,0.14,0.54
			v1.88l-0.03,1.13l-0.02,0.42l1.7-0.03c0.33-0.01,0.57-0.01,0.71,0.01c0.59-0.02,0.98,0.01,1.17,0.1c0.19,0.09,0.32,0.33,0.38,0.73
			c0.06,0.4,0.12,1.22,0.16,2.47l0.02,0.6c0.03,0.66,0.01,1.11-0.04,1.35c-0.05,0.24-0.17,0.4-0.37,0.47
			c-0.2,0.08-0.58,0.13-1.15,0.15l-2.26,0.09l-0.08,0.75c-0.03,0.57-0.04,0.92-0.03,1.06c0.09,2.45,0.76,3.65,2.01,3.6
			c0.26-0.01,0.6-0.15,1.01-0.41s0.67-0.46,0.76-0.58c0.07-0.1,0.15-0.15,0.24-0.15c0.21-0.01,0.49,0.15,0.83,0.46
			c0.39,0.36,0.77,0.8,1.13,1.32c0.36,0.52,0.55,0.87,0.55,1.06c0.01,0.28-0.3,0.7-0.93,1.24c-0.63,0.54-1.37,1.03-2.23,1.47
			c-1.11,0.56-2.33,0.87-3.65,0.92c-0.83,0.03-1.54-0.08-2.16-0.34s-1.27-0.73-1.98-1.41c-0.83-0.77-1.44-1.61-1.83-2.51
			c-0.39-0.9-0.62-2.29-0.69-4.15l-0.03-0.81l-0.02-0.5c-0.03-0.07-0.04-0.19-0.05-0.35c0-0.12-0.03-0.2-0.08-0.24l-0.15-0.14
			c-0.03-0.07-0.19-0.1-0.5-0.09l-0.42-0.02l-0.57,0.02c-0.5-0.03-0.82-0.05-0.96-0.07c-0.14-0.02-0.28-0.12-0.4-0.3
			c-0.1-0.16-0.16-0.46-0.18-0.91c-0.02-0.64-0.03-1.07-0.01-1.31c0.02-0.71,0.03-1.16,0.02-1.35c0.01-0.31,0.02-0.57,0.02-0.78
			c0-0.21,0.02-0.35,0.04-0.42l0.12-0.5l1.45-0.13c0.71-0.05,1.13-0.1,1.27-0.15c0.12-0.05,0.18-0.12,0.2-0.22
			c0-0.52,0.03-1.24,0.08-2.16c0.05-0.92,0.11-1.42,0.17-1.49c0.11-0.15,0.38-0.26,0.8-0.35C82.59,45.13,83.45,45.07,84.75,45.03z"
			/>
		<path class="st4" d="M100.84,51.14l0.95-0.04l0.39-0.01c0.33-0.01,0.6,0.01,0.82,0.08c0.19,0.06,0.32,0.14,0.38,0.23
			c0.06,0.09,0.11,0.28,0.15,0.56c0.07,0.61,0.18,2.79,0.32,6.54c0.15,3.94,0.18,5.95,0.09,6.05c-0.18,0.19-0.92,0.32-2.22,0.37
			l-1.27,0.05l-0.96,0c-0.57,0.02-0.9,0.02-0.99,0c-0.24-0.01-0.43-0.09-0.58-0.22l-0.29-0.27l-0.22-4.77l-0.06-1.48
			c-0.16-4.12-0.1-6.34,0.17-6.66c0.11-0.15,0.86-0.26,2.25-0.33C100.23,51.2,100.58,51.18,100.84,51.14z M100.1,44.62
			c0.78-0.03,1.46,0.22,2.05,0.74c0.59,0.52,0.89,1.11,0.92,1.77l0.02,0.46c-0.02,0.69-0.27,1.23-0.75,1.64s-1.13,0.63-1.96,0.66
			l-0.21,0.01c-0.83-0.02-1.5-0.23-2.02-0.65c-0.52-0.42-0.8-0.97-0.82-1.65c-0.01-0.35,0.03-0.68,0.14-0.98
			c0.11-0.3,0.32-0.63,0.63-1C98.65,44.98,99.32,44.65,100.1,44.62z"/>
		<path class="st4" d="M115.38,48.15c0.92-0.03,1.77,0.02,2.57,0.15c0.79,0.14,1.67,0.42,2.63,0.86c1.01,0.46,1.52,0.82,1.53,1.08
			c0.01,0.16-0.21,0.64-0.65,1.44c-0.44,0.8-0.87,1.45-1.27,1.96c-0.29,0.39-0.57,0.59-0.83,0.6c-0.21,0.01-0.52-0.11-0.93-0.35
			c-0.89-0.53-1.75-0.78-2.58-0.75c-0.52,0.02-0.92,0.11-1.21,0.26c-0.29,0.15-0.58,0.42-0.87,0.81c-0.65,0.92-0.96,1.86-0.92,2.83
			c0.01,0.26,0.07,0.52,0.17,0.77c0.44,0.97,1.28,1.44,2.53,1.39l0.21-0.04l0.21-0.01c0.7-0.1,1.58-0.53,2.64-1.3
			c0.43-0.32,0.71-0.49,0.83-0.49c0.07,0,0.17,0.03,0.29,0.09c0.24,0.13,0.61,0.51,1.12,1.14c0.51,0.63,0.92,1.23,1.22,1.81
			c0.31,0.58,0.46,0.96,0.47,1.15c0.01,0.33-0.25,0.67-0.78,1.02c-1.68,1.22-3.91,1.88-6.69,1.99c-0.59,0.02-1.26-0.01-2.02-0.1
			c-1.38-0.23-2.65-0.75-3.81-1.57c-1.16-0.82-1.93-1.77-2.3-2.87c-0.21-0.68-0.34-1.5-0.38-2.46c-0.03-0.75,0-1.33,0.08-1.74
			c0.28-1.45,0.84-2.76,1.69-3.92c0.85-1.17,1.72-2.02,2.59-2.58c0.71-0.45,1.61-0.78,2.69-0.99
			C114.11,48.23,114.69,48.18,115.38,48.15z"/>
		<path class="st4" d="M128.79,50.08l0.95-0.04l0.39-0.02c0.33-0.01,0.6,0.01,0.82,0.08c0.19,0.06,0.32,0.14,0.38,0.23
			c0.06,0.09,0.11,0.28,0.15,0.56c0.07,0.61,0.18,2.79,0.32,6.54c0.15,3.94,0.18,5.95,0.09,6.05c-0.18,0.2-0.92,0.32-2.22,0.37
			l-1.27,0.05l-0.96,0c-0.57,0.02-0.9,0.02-0.99,0c-0.24-0.01-0.43-0.09-0.58-0.22l-0.29-0.27l-0.22-4.77l-0.06-1.48
			c-0.16-4.12-0.1-6.34,0.17-6.66c0.11-0.15,0.86-0.26,2.25-0.33C128.18,50.14,128.54,50.12,128.79,50.08z M128.05,43.56
			c0.78-0.03,1.46,0.22,2.05,0.74c0.58,0.52,0.89,1.11,0.92,1.77l0.02,0.46c-0.02,0.69-0.27,1.23-0.75,1.64
			c-0.48,0.41-1.13,0.63-1.96,0.66l-0.21,0.01c-0.83-0.02-1.5-0.23-2.02-0.65c-0.52-0.42-0.8-0.97-0.82-1.65
			c-0.01-0.35,0.03-0.68,0.14-0.98c0.11-0.3,0.32-0.63,0.63-1C126.6,43.92,127.27,43.59,128.05,43.56z"/>
		<path class="st4" d="M136.93,48.01l1.06-0.04c1.58-0.01,2.49,0.01,2.73,0.07c0.33,0.11,0.51,0.41,0.53,0.9
			c0.02,0.4,0.07,0.6,0.16,0.59l1.23-0.33c0.77-0.24,1.54-0.38,2.32-0.41c1.37-0.05,2.58,0.21,3.64,0.78
			c0.38,0.2,0.85,0.58,1.41,1.13c0.55,0.56,0.98,1.07,1.28,1.53c0.58,1.02,0.89,2.08,0.93,3.19c0.08,2.03-0.63,3.85-2.13,5.46
			c-0.75,0.81-1.45,1.38-2.11,1.73c-0.66,0.34-1.42,0.53-2.3,0.56c-0.78,0.03-1.95-0.17-3.53-0.61l-0.04,0
			c-0.12,0-0.17,0.93-0.14,2.77l0.07,2.83l-0.38,0.37l-0.38,0.33l-2.65,0.07c-1.25,0-2.02-0.01-2.3-0.02
			c-0.33-0.03-0.55-0.11-0.65-0.22c-0.1-0.14-0.19-0.72-0.28-1.76c-0.05-0.68-0.17-3.43-0.35-8.23c-0.25-6.5-0.34-9.86-0.28-10.08
			c0.09-0.21,0.23-0.37,0.44-0.48C135.47,48.08,136.03,48.04,136.93,48.01z M144.27,52.97c-0.26,0.01-0.49,0.05-0.7,0.13
			c-0.33,0.15-0.68,0.42-1.07,0.78l-0.65,0.66l0.19,1.3c0.15,0.84,0.26,1.33,0.34,1.47c0.08,0.21,0.26,0.36,0.53,0.44
			c0.27,0.08,0.59,0.12,0.94,0.11c0.73-0.03,1.33-0.29,1.81-0.79c0.48-0.5,0.7-1.13,0.67-1.88c-0.03-0.9-0.33-1.55-0.89-1.95
			C145.15,53.04,144.76,52.95,144.27,52.97z"/>
		<path class="st4" d="M167.21,46.75c1.32-0.05,2.35-0.01,3.08,0.13c0.52,0.1,0.91,0.27,1.17,0.52c0.26,0.25,0.45,0.64,0.59,1.18
			c0.08,0.3,0.16,1.35,0.23,3.14c0.15,4.03,0.17,6.78,0.06,8.25c-0.04,0.78-0.13,1.32-0.26,1.6c-0.13,0.29-0.4,0.49-0.81,0.6
			c-0.41,0.11-1.19,0.21-2.34,0.3c-0.31,0.04-0.81,0.07-1.52,0.09c-0.52,0.02-0.86-0.02-1.03-0.12c-0.17-0.1-0.34-0.33-0.52-0.7
			c-0.18-0.37-0.32-0.56-0.41-0.55c-0.09,0-0.45,0.17-1.08,0.5c-0.97,0.51-1.91,0.78-2.8,0.81c-0.94,0.04-1.94-0.28-3.01-0.95
			c-1.06-0.67-1.96-1.55-2.7-2.66s-1.13-2.25-1.17-3.42c-0.02-0.52,0.01-0.93,0.09-1.24l0.09-0.54l0.06-0.39
			c0.05-0.54,0.43-1.41,1.14-2.59c1.09-1.83,2.52-3,4.29-3.49c0.35-0.08,0.71-0.13,1.09-0.15c1.32-0.05,2.43,0.24,3.32,0.87
			c0.24,0.16,0.42,0.23,0.54,0.23c0.12,0,0.17-0.09,0.17-0.25c0-0.12,0.09-0.3,0.28-0.56c0.19-0.25,0.37-0.42,0.53-0.5
			C166.39,46.81,166.69,46.77,167.21,46.75z M163.67,52.2c-0.57,0.02-1.07,0.21-1.5,0.55c-0.44,0.35-0.73,0.81-0.87,1.38
			c-0.06,0.21-0.09,0.44-0.08,0.67c0.02,0.61,0.29,1.09,0.8,1.44c0.51,0.35,1.19,0.5,2.04,0.47c0.45-0.02,0.75-0.05,0.9-0.1
			c0.15-0.05,0.25-0.16,0.29-0.33c0.04-0.17,0.09-0.52,0.14-1.07c0.07-0.64,0.09-1.26,0.07-1.88c-0.01-0.35-0.04-0.57-0.1-0.65
			c-0.05-0.08-0.22-0.17-0.5-0.28C164.51,52.25,164.12,52.18,163.67,52.2z"/>
		<path class="st4" d="M175.86,46.18c0.21-0.15,0.71-0.24,1.51-0.27c0.83-0.03,1.61,0,2.36,0.09c0.75,0.09,1.2,0.23,1.34,0.41
			c0.17,0.18,0.26,0.34,0.27,0.49l0.07,0.03c0.14-0.01,0.47-0.15,0.98-0.43c0.97-0.53,1.86-0.81,2.66-0.84
			c0.82-0.03,1.68,0.17,2.57,0.61c0.89,0.44,1.34,0.92,1.36,1.43c0.01,0.28-0.17,0.86-0.54,1.74c-0.37,0.88-0.7,1.54-0.98,2
			c-0.22,0.36-0.46,0.55-0.72,0.56c-0.09,0-0.35-0.04-0.78-0.15c-0.43-0.12-0.83-0.18-1.21-0.17c-0.8,0.03-1.44,0.37-1.91,1.03
			c-0.81,1.12-1.14,3.49-1,7.12l0.02,0.49c0.02,0.52,0,0.88-0.05,1.1c-0.05,0.21-0.19,0.36-0.41,0.44
			c-0.22,0.08-0.59,0.13-1.11,0.15l-0.6-0.01l-0.78,0.03c-1.65,0.02-2.6-0.05-2.84-0.21c-0.29-0.18-0.45-0.37-0.48-0.58
			c-0.08-0.26-0.15-1.14-0.21-2.65c-0.09-2.29-0.13-4.76-0.12-7.43c0-2.67,0.06-4.14,0.17-4.43
			C175.53,46.49,175.68,46.3,175.86,46.18z"/>
		<path class="st4" d="M199.97,42.4c0.87-0.03,1.55,0.02,2.04,0.17c0.49,0.15,1.06,0.46,1.72,0.93c0.63,0.45,1.12,0.9,1.47,1.36
			c0.77,0.99,1.18,2.09,1.22,3.32c0.04,1.04-0.14,1.98-0.55,2.82c-0.4,0.84-1.1,1.61-2.09,2.31c-0.64,0.47-1.09,0.87-1.34,1.18
			c-0.25,0.32-0.45,0.71-0.59,1.19c-0.13,0.41-0.25,0.67-0.36,0.77c-0.11,0.11-0.34,0.17-0.67,0.18c-0.26,0.01-0.96-0.03-2.11-0.13
			c-1.15-0.1-1.83-0.17-2.04-0.21c-0.21-0.04-0.36-0.13-0.43-0.27c-0.08-0.14-0.12-0.28-0.12-0.42c-0.01-0.21,0.12-0.8,0.39-1.75
			c0.27-0.95,0.51-1.56,0.71-1.83c0.22-0.32,0.64-0.64,1.24-0.97c0.55-0.3,0.95-0.58,1.19-0.84c0.24-0.26,0.37-0.57,0.41-0.95
			l0.03-0.14l0-0.11c-0.02-0.61-0.34-0.91-0.95-0.88c-0.49,0.02-1.14,0.64-1.95,1.88c-0.27,0.41-0.47,0.62-0.61,0.62l-0.11-0.03
			l-0.11,0c-0.45-0.05-1.31-0.62-2.58-1.71c-0.44-0.38-0.66-0.69-0.67-0.93c-0.01-0.24,0.12-0.62,0.38-1.15
			c0.44-0.89,1.13-1.74,2.06-2.54c0.94-0.8,1.88-1.35,2.84-1.65C198.85,42.5,199.38,42.42,199.97,42.4z M198.41,57.43
			c0.8-0.03,1.49,0.18,2.08,0.63c0.58,0.45,0.89,1.16,0.93,2.12c0.01,0.4-0.02,0.71-0.11,0.92c-0.15,0.5-0.48,0.93-1.01,1.29
			c-0.53,0.36-1.08,0.55-1.64,0.58c-0.82,0.03-1.5-0.2-2.03-0.7c-0.53-0.5-0.82-1.2-0.88-2.09l-0.01-0.25
			c-0.02-0.45,0.09-0.81,0.31-1.07c0.4-0.65,0.94-1.08,1.62-1.3C197.88,57.48,198.13,57.44,198.41,57.43z"/>
		<path class="st4" d="M59.91,35.41c-0.87,0.03-1.55-0.02-2.04-0.17c-0.49-0.15-1.06-0.46-1.72-0.93c-0.63-0.45-1.12-0.9-1.47-1.36
			c-0.77-0.99-1.18-2.09-1.22-3.32c-0.04-1.04,0.14-1.98,0.55-2.82c0.41-0.84,1.1-1.61,2.09-2.31c0.64-0.47,1.09-0.87,1.33-1.18
			c0.25-0.32,0.45-0.71,0.59-1.19c0.13-0.41,0.25-0.67,0.36-0.77c0.11-0.11,0.34-0.17,0.67-0.18c0.26-0.01,0.96,0.03,2.11,0.13
			c1.15,0.1,1.83,0.17,2.04,0.21c0.21,0.04,0.36,0.13,0.43,0.27s0.12,0.28,0.12,0.42c0.01,0.21-0.12,0.79-0.39,1.75
			s-0.51,1.56-0.71,1.83c-0.22,0.32-0.64,0.64-1.24,0.97c-0.55,0.3-0.95,0.58-1.19,0.84s-0.37,0.57-0.41,0.95l-0.03,0.14l0,0.11
			c0.02,0.61,0.34,0.91,0.95,0.88c0.5-0.02,1.14-0.64,1.95-1.88c0.27-0.41,0.47-0.62,0.61-0.63l0.11,0.03l0.11,0
			c0.45,0.05,1.31,0.62,2.58,1.71c0.44,0.38,0.66,0.69,0.67,0.93c0.01,0.24-0.12,0.62-0.38,1.15c-0.44,0.89-1.13,1.74-2.06,2.54
			c-0.94,0.8-1.88,1.35-2.84,1.65C61.03,35.31,60.5,35.39,59.91,35.41z M61.46,20.38c-0.8,0.03-1.49-0.18-2.08-0.63
			s-0.89-1.16-0.93-2.12c-0.02-0.4,0.02-0.71,0.11-0.92c0.15-0.5,0.48-0.93,1.01-1.29s1.08-0.55,1.64-0.58
			c0.83-0.03,1.5,0.2,2.03,0.7c0.53,0.5,0.82,1.2,0.88,2.09l0.01,0.25c0.02,0.45-0.09,0.81-0.31,1.07c-0.4,0.65-0.94,1.08-1.61,1.3
			C61.99,20.33,61.75,20.37,61.46,20.38z"/>
		<polygon class="st4" points="11.9,4.93 11.92,5.98 196.52,2.11 225.91,44.26 223.28,77.43 2.39,84.74 12.93,5.07 11.9,4.93 
			11.92,5.98 11.9,4.93 10.86,4.8 0,86.9 225.21,79.46 228.05,43.68 197.59,0 10.98,3.91 10.86,4.8 		"/>
	</g>
	<path class="st4" d="M102.22,9.21l0.42,0.62l0.17,0.25c0.14,0.22,0.25,0.4,0.31,0.57c0.05,0.15,0.06,0.26,0.04,0.33
		c-0.02,0.07-0.27,0.28-0.39,0.4c-0.27,0.24-1.13,0.87-2.93,2.13c-1.89,1.33-2.37,1.79-2.91,1.88c-0.18,0.03-0.59-0.44-1.16-1.29
		l-0.56-0.83l-0.4-0.64c-0.25-0.37-0.39-0.59-0.42-0.66c-0.09-0.16-0.14-0.31-0.13-0.45l0.24-0.43l2.05-1.48l0.71-0.5
		c1.98-1.39,3.02-1.88,3.29-1.8c0.12,0.03,0.57,0.32,1.19,1.22C101.93,8.82,102.09,9.05,102.22,9.21z"/>
</g>
</svg>
