<?xml version="1.0" encoding="utf-8"?>
<!-- Generator: Adobe Illustrator 25.4.0, SVG Export Plug-In . SVG Version: 6.00 Build 0)  -->
<svg version="1.1" id="Capa_1" xmlns="http://www.w3.org/2000/svg" xmlns:xlink="http://www.w3.org/1999/xlink" x="0px" y="0px"
	 viewBox="0 0 191 224.6" style="enable-background:new 0 0 191 224.6;" xml:space="preserve">
<style type="text/css">
	.st0{fill:#D6D6D6;}
	.st1{clip-path:url(#SVGID_00000023242454148134377200000013824506103569870748_);}
	.st2{fill:#FFD138;}
</style>
<polyline class="st0" points="136.5,98.4 54.5,97.8 65.7,71.5 74.7,50.5 96.2,0 117.4,51.6 126.5,73.9 136.5,98.4 "/>
<g>
	<g>
		<defs>
			<polyline id="SVGID_1_" points="109.6,32.6 82.3,32.6 74.7,50.5 65.7,71.5 54.5,97.8 136.5,98.4 126.5,73.9 117.4,51.6 
				109.6,32.6 			"/>
		</defs>
		<clipPath id="SVGID_00000062179191721746208850000003028734956541295544_">
			<use xlink:href="#SVGID_1_"  style="overflow:visible;"/>
		</clipPath>
		<g style="clip-path:url(#SVGID_00000062179191721746208850000003028734956541295544_);">
			
				<image style="overflow:visible;enable-background:new    ;" width="85" height="68" xlink:href="4C146AB6DE2B71E8.jpeg"  transform="matrix(0.9831 0 0 0.9831 53.7188 32.0211)">
			</image>
		</g>
	</g>
</g>
<path class="st0" d="M94.8,201.4c-40.4-0.3-73-33.4-72.7-73.7C22.4,87.6,55.2,55,95.3,55h0.6c40.4,0.3,73,33.4,72.7,73.7
	c-0.3,40.1-33.1,72.7-73.2,72.7H94.8z"/>
<path class="st2" d="M95.3,57.6c0.2,0,0.3,0,0.5,0c39,0.3,70.3,32.1,70,71.1c-0.3,38.8-31.8,70-70.5,70c-0.2,0-0.3,0-0.5,0
	c-39-0.3-70.3-32.1-70-71.1C25,88.9,56.6,57.6,95.3,57.6 M95.3,52.4L95.3,52.4c-20.1,0-39.1,7.8-53.4,22
	c-14.3,14.2-22.3,33.1-22.4,53.3c-0.3,41.8,33.5,76.1,75.3,76.4h0.6c20.1,0,39.1-7.8,53.4-22c14.3-14.2,22.3-33.1,22.4-53.3
	c0.1-20.3-7.6-39.4-21.8-53.8c-14.2-14.4-33.2-22.5-53.5-22.6L95.3,52.4z"/>
<path d="M65.2,128.8c-1.2,2.8-2,6.2-2.4,10.3c-0.3,3.6-0.6,7.1-0.8,10.7c-0.1,1-0.8,1.6-2,1.5c-0.4,0-0.7-0.1-1-0.2
	c-1.7-0.8-2.6-2.2-2.5-4.2c0-0.6,0.1-1.5,0.3-2.7c0.2-1.2,0.3-2.1,0.3-2.6c0.2-1.2,0.4-3,0.8-5.4c-2.9,2.7-6.1,4.7-9.7,5.9
	c-0.5,0.2-1,0.2-1.5,0.2c-1.9,0-3.6-1.1-5.1-3.3c-0.9-1.2-1.3-2.7-1.2-4.5c0-1.6,0.4-3.4,1.2-5.6c2.3-6.8,5.9-13.3,10.8-19.8
	c2.4-3.2,4.6-4.8,6.4-4.7c1.6,0,2.5,0.7,2.7,1.9c0.1,1.1-0.2,1.8-1.1,2.2c-1.4,0.8-2.2,1.2-2.3,1.3c-3.5,3.8-6.8,8.8-9.8,14.9
	c-1.8,3.8-2.8,7.2-2.9,10.2c0,0.5,0,1.1,0,1.6c0.1,0,0.2,0.2,0.3,0.6c0.2,0.4,0.4,0.5,0.7,0.4c2.7-1.1,6.8-3.9,12.4-8.4
	c0.4-0.3,0.9-1.3,1.5-2.9c0.4-1.2,1.2-1.7,2.2-1.7c-0.3,0,0,0,1-0.1c0.5-0.1,0.8,0,1,0.3c0.7,1.2,1.1,2.2,1.1,2.9
	C65.5,128,65.4,128.4,65.2,128.8z"/>
<path d="M76.6,112.9c0.1,1.2,0.1,2.5,0,3.8c-0.1,2.8-0.5,7.1-1.2,12.9c-0.7,5.7-1.1,10.1-1.2,13c0,1.1,0,2.1,0,3.2
	c-0.4,1.2-1.2,1.7-2.4,1.7c-1.8-0.1-2.7-0.9-2.8-2.4c-0.1-1.5-0.2-3-0.1-4.6c0.1-2.8,0.5-7.1,1.3-12.7s1.3-9.9,1.3-12.7
	c0-1.1,0-2.2,0-3.2c0.4-0.8,1.1-1.2,2.1-1.2c0.8,0,1.5,0.2,2.3,0.7c0.2-0.1,0.3-0.2,0.4-0.2c0.1,0,0.2,0.2,0.2,0.6
	c-0.1,0.5-0.1,0.8,0,0.9C76.5,112.8,76.6,112.8,76.6,112.9z"/>
<path d="M104.1,145.5c0.1,0.2,0.2,0.4,0.2,0.6c0,1-1,1.7-3,2.2c-2.1-1.8-4.7-4.4-7.8-8c-3.5-4-6.1-6.8-7.8-8.4
	c-0.2,1.1-0.4,3.9-0.9,8.5c-0.3,3.5-0.7,6.2-1.3,8.3c-0.1,0-0.3,0.1-0.8,0.3s-0.8,0.3-1.1,0.2c-1.8-0.4-2.6-1.7-2.6-3.9
	c0-0.6,0.1-1.5,0.3-2.5c0.2-1.2,0.3-2,0.4-2.2c0.2-2.4,0.4-5.3,0.5-8.7l0.2-6.8c0.2-5.7,0.6-10.5,1.3-14.4c0.5-2.6,2.9-3.8,7.2-3.5
	c2.2,0.1,4.1,1.3,5.7,3.5c1.4,2,2.2,4.2,2.1,6.6c-0.1,2-0.8,3.9-2.3,5.9c-1.3,1.7-2.8,3.1-4.6,4.1c-0.7,0.4-1.1,0.9-1.1,1.4
	c0,0.5,0.4,1.2,1.2,2c0.6,0.6,1.3,1.1,1.9,1.7c0,0,2.2,2.2,6.6,6.4C101.1,141.1,103,143.4,104.1,145.5z M92,117.1
	c0.1-0.8,0.2-1.4,0.2-2c-0.1-0.9-0.4-1.7-1-2.4s-1.5-1.1-2.8-1.1c-1,0-1.6,0.3-1.8,0.9c-0.2,1-0.4,2.2-0.4,3.6c0,0.5,0,1.9,0.1,4.2
	c0,1.7,0,3.1-0.1,4.2C89.5,122,91.5,119.5,92,117.1z"/>
<path d="M123.1,142.3c0.2,0.7,0.3,1.3,0.3,1.8c0,0.8-0.4,1.6-1.1,2.2c-0.7,0.6-1.2,0.9-1.4,0.9c-2-0.4-3.2-2.1-3.7-5
	c-0.5-3.2-1.1-5.9-1.8-8c-1.4,0.1-2.8,0.2-4.2,0.3c-1.6,0.2-2.8,0.7-3.8,1.4c-0.5,1.3-1.1,3.6-1.9,6.9c-0.8,3-1.5,5.4-2.2,6.9
	c-0.3,0.8-1,0.9-2.1,0.6c-1.3-0.5-2-1.1-2.1-1.9c-0.1-1.6,0.4-3.7,1.5-6.4c1.3-3,2-5.2,2.2-6.5c0.1-0.4-0.2-0.8-0.8-1.3
	c-0.6-0.5-0.8-0.8-0.8-1.1c0-0.2,0.1-0.4,0.3-0.6c0.2-0.2,0.6-0.4,1.3-0.6c0.7-0.1,1.1-0.4,1.2-0.6c0.8-2.1,2-6,3.8-11.6
	c1.5-4.9,2.8-8.7,3.9-11.3c0.3-0.6,0.8-0.9,1.6-0.9c0.6,0,1.1,0.2,1.5,0.6c1.1,1,1.8,2.5,2.1,4.6c0.2,1.7,0.4,3.4,0.5,5.2
	C119.1,127.7,121,135.9,123.1,142.3z M114.4,130.2c-0.1-1.6-0.3-3.3-0.7-5.2c-0.4-1.7-0.7-3.4-1-5c-1.3,3.5-2.5,6.9-3.4,10.4
	C110,130.2,111.7,130.1,114.4,130.2z"/>
<path d="M150,146.1c0.1,0.2,0.2,0.4,0.2,0.6c0,1-1,1.7-3,2.2c-2.1-1.8-4.7-4.4-7.9-8c-3.5-4-6.1-6.8-7.8-8.4
	c-0.1,1.1-0.4,3.9-0.9,8.5c-0.3,3.5-0.7,6.2-1.3,8.3c-0.1,0-0.3,0.1-0.8,0.3c-0.4,0.2-0.8,0.3-1.1,0.2c-1.8-0.4-2.6-1.7-2.6-3.9
	c0-0.6,0.1-1.5,0.3-2.5c0.2-1.2,0.3-2,0.4-2.2c0.2-2.4,0.4-5.3,0.5-8.7l0.2-6.8c0.2-5.7,0.6-10.5,1.3-14.4c0.5-2.6,2.9-3.8,7.2-3.5
	c2.2,0.1,4.1,1.3,5.6,3.5c1.4,2,2.1,4.2,2.1,6.6c-0.1,2-0.8,3.9-2.3,5.9c-1.3,1.7-2.8,3.1-4.6,4.1c-0.7,0.4-1.1,0.9-1.1,1.4
	c0,0.5,0.4,1.2,1.2,2c0.6,0.6,1.3,1.1,1.9,1.7c0,0,2.2,2.2,6.6,6.4C146.9,141.7,148.9,144.1,150,146.1z M137.8,117.8
	c0.1-0.8,0.2-1.4,0.2-2c-0.1-0.9-0.4-1.7-1-2.4c-0.6-0.7-1.5-1.1-2.8-1.1c-1,0-1.6,0.3-1.9,0.9c-0.2,1-0.4,2.2-0.4,3.6
	c0,0.5,0,1.9,0.1,4.2c0,1.7,0,3.1-0.1,4.2C135.4,122.6,137.3,120.2,137.8,117.8z"/>
</svg>
