<svg width="56" height="66" viewBox="0 0 56 66" fill="none" xmlns="http://www.w3.org/2000/svg">
<path d="M56 25.8986L47.8177 32.3933L51.005 42.2775L40.5207 42.7732L37.23 52.6283L28.4501 46.9354L19.9283 53L16.2024 43.298L5.70329 43.247L8.45534 33.2389L0 27.1014L8.18235 20.6067L4.98761 10.7225L15.4793 10.2268L18.7626 0.371751L27.5499 6.06464L36.0717 0L39.7903 9.70197L50.2893 9.75299L47.5373 19.7611L56 25.8986Z" fill="#030404"/>
<path d="M17.9393 25.9393C17.3536 26.5251 17.3536 27.4749 17.9393 28.0607L27.4853 37.6066C28.0711 38.1924 29.0208 38.1924 29.6066 37.6066C30.1924 37.0208 30.1924 36.0711 29.6066 35.4853L21.1213 27L29.6066 18.5147C30.1924 17.9289 30.1924 16.9792 29.6066 16.3934C29.0208 15.8076 28.0711 15.8076 27.4853 16.3934L17.9393 25.9393ZM37 25.5L19 25.5L19 28.5L37 28.5L37 25.5Z" fill="white"/>
<path d="M13.756 65V57.08H16.972C17.452 57.08 17.884 57.124 18.268 57.212C18.652 57.292 18.98 57.42 19.252 57.596C19.524 57.764 19.728 57.98 19.864 58.244C20.008 58.508 20.08 58.82 20.08 59.18C20.08 59.484 20.016 59.756 19.888 59.996C19.76 60.236 19.556 60.432 19.276 60.584C18.996 60.736 18.624 60.836 18.16 60.884V61.04C18.936 61.088 19.504 61.276 19.864 61.604C20.224 61.932 20.404 62.372 20.404 62.924C20.404 63.38 20.284 63.764 20.044 64.076C19.812 64.38 19.464 64.612 19 64.772C18.536 64.924 17.96 65 17.272 65H13.756ZM15.424 63.608H17.236C17.396 63.608 17.56 63.596 17.728 63.572C17.904 63.548 18.064 63.504 18.208 63.44C18.36 63.368 18.48 63.272 18.568 63.152C18.664 63.024 18.712 62.856 18.712 62.648C18.712 62.464 18.676 62.308 18.604 62.18C18.532 62.052 18.432 61.948 18.304 61.868C18.184 61.788 18.044 61.724 17.884 61.676C17.732 61.628 17.568 61.596 17.392 61.58C17.224 61.564 17.052 61.556 16.876 61.556H15.424V63.608ZM15.424 60.428H16.636C16.852 60.428 17.064 60.416 17.272 60.392C17.48 60.36 17.668 60.312 17.836 60.248C18.004 60.176 18.136 60.072 18.232 59.936C18.336 59.8 18.388 59.628 18.388 59.42C18.388 59.22 18.34 59.056 18.244 58.928C18.156 58.8 18.036 58.704 17.884 58.64C17.74 58.568 17.576 58.52 17.392 58.496C17.216 58.472 17.04 58.46 16.864 58.46H15.424V60.428ZM20.2787 65L22.9907 57.08H25.4147L28.1147 65H26.2427L24.2747 58.46H24.1307L22.1507 65H20.2787ZM21.7787 63.464V62.264H26.8547V63.464H21.7787ZM31.6716 65.168C31.0476 65.168 30.4956 65.076 30.0156 64.892C29.5356 64.7 29.1316 64.428 28.8036 64.076C28.4756 63.724 28.2276 63.3 28.0596 62.804C27.8996 62.3 27.8196 61.732 27.8196 61.1C27.8196 60.46 27.9036 59.884 28.0716 59.372C28.2396 58.86 28.4876 58.42 28.8156 58.052C29.1436 57.684 29.5356 57.404 29.9916 57.212C30.4556 57.012 30.9876 56.912 31.5876 56.912C32.0676 56.912 32.4996 56.98 32.8836 57.116C33.2676 57.244 33.5916 57.428 33.8556 57.668C34.1196 57.9 34.3196 58.18 34.4556 58.508C34.5916 58.836 34.6556 59.2 34.6476 59.6L33.0516 59.948C33.0596 59.596 32.9916 59.304 32.8476 59.072C32.7116 58.832 32.5276 58.652 32.2956 58.532C32.0716 58.404 31.8156 58.34 31.5276 58.34C31.2796 58.34 31.0396 58.392 30.8076 58.496C30.5836 58.592 30.3796 58.748 30.1956 58.964C30.0196 59.172 29.8796 59.448 29.7756 59.792C29.6796 60.128 29.6316 60.532 29.6316 61.004C29.6316 61.628 29.7156 62.144 29.8836 62.552C30.0596 62.952 30.3036 63.252 30.6156 63.452C30.9276 63.652 31.2916 63.752 31.7076 63.752C32.1316 63.752 32.4636 63.664 32.7036 63.488C32.9436 63.304 33.1156 63.064 33.2196 62.768C33.3316 62.472 33.3836 62.148 33.3756 61.796L34.9356 62.012C34.9436 62.444 34.8876 62.852 34.7676 63.236C34.6556 63.62 34.4716 63.956 34.2156 64.244C33.9596 64.532 33.6196 64.76 33.1956 64.928C32.7796 65.088 32.2716 65.168 31.6716 65.168ZM35.4169 65V57.08H37.1449V60.596C37.5529 60.444 37.9289 60.244 38.2729 59.996C38.6169 59.74 38.9209 59.456 39.1849 59.144C39.4569 58.824 39.6809 58.488 39.8569 58.136C40.0409 57.784 40.1769 57.432 40.2649 57.08H42.2209C42.1169 57.496 41.9569 57.904 41.7409 58.304C41.5329 58.696 41.2769 59.064 40.9729 59.408C40.6769 59.752 40.3489 60.056 39.9889 60.32C39.6369 60.576 39.2649 60.784 38.8729 60.944V61.088C39.3369 61.08 39.7249 61.132 40.0369 61.244C40.3569 61.348 40.6209 61.5 40.8289 61.7C41.0449 61.9 41.2209 62.128 41.3569 62.384C41.5009 62.64 41.6209 62.912 41.7169 63.2L42.3409 65H40.3969L40.0009 63.572C39.9049 63.252 39.7849 62.972 39.6409 62.732C39.5049 62.484 39.2969 62.292 39.0169 62.156C38.7449 62.012 38.3529 61.94 37.8409 61.94H37.1449V65H35.4169Z" fill="#030404"/>
</svg>
