<svg width="70" height="98" viewBox="0 0 70 98" fill="none" xmlns="http://www.w3.org/2000/svg">
<mask id="path-1-inside-1_100_9" fill="white">
<path fill-rule="evenodd" clip-rule="evenodd" d="M47.6814 31.4774L35.0972 0.235596L22.7098 30.9885C9.4967 35.8238 0.0664062 48.5092 0.0664062 63.3971C0.0664062 82.451 15.5126 97.8971 34.5664 97.8971C53.6202 97.8971 69.0664 82.451 69.0664 63.3971C69.0664 48.9863 60.2308 36.6391 47.6814 31.4774Z"/>
</mask>
<path fill-rule="evenodd" clip-rule="evenodd" d="M47.6814 31.4774L35.0972 0.235596L22.7098 30.9885C9.4967 35.8238 0.0664062 48.5092 0.0664062 63.3971C0.0664062 82.451 15.5126 97.8971 34.5664 97.8971C53.6202 97.8971 69.0664 82.451 69.0664 63.3971C69.0664 48.9863 60.2308 36.6391 47.6814 31.4774Z" fill="#030404"/>
<path d="M35.0972 0.235596L38.8075 -1.25893L35.0972 -10.4702L31.3869 -1.25893L35.0972 0.235596ZM47.6814 31.4774L43.9711 32.9719L44.6009 34.5355L46.1599 35.1767L47.6814 31.4774ZM22.7098 30.9885L24.0845 34.7449L25.7554 34.1334L26.4201 32.483L22.7098 30.9885ZM31.3869 1.73012L43.9711 32.9719L51.3917 29.9828L38.8075 -1.25893L31.3869 1.73012ZM26.4201 32.483L38.8075 1.73012L31.3869 -1.25893L18.9995 29.494L26.4201 32.483ZM4.06641 63.3971C4.06641 50.2416 12.3974 39.0218 24.0845 34.7449L21.3352 27.2321C6.59602 32.6259 -3.93359 46.7768 -3.93359 63.3971H4.06641ZM34.5664 93.8971C17.7217 93.8971 4.06641 80.2418 4.06641 63.3971H-3.93359C-3.93359 84.6601 13.3034 101.897 34.5664 101.897V93.8971ZM65.0664 63.3971C65.0664 80.2418 51.4111 93.8971 34.5664 93.8971V101.897C55.8294 101.897 73.0664 84.6601 73.0664 63.3971H65.0664ZM46.1599 35.1767C57.2618 39.7431 65.0664 50.6634 65.0664 63.3971H73.0664C73.0664 47.3092 63.1998 33.5352 49.203 27.7781L46.1599 35.1767Z" fill="white" mask="url(#path-1-inside-1_100_9)"/>
<path d="M16.2344 67.2903C15.3597 67.2903 14.5811 67.0823 13.8984 66.6663C13.2264 66.2503 12.6984 65.6423 12.3144 64.8423C11.9304 64.0317 11.7384 63.045 11.7384 61.8823C11.7384 61.029 11.8451 60.261 12.0584 59.5783C12.2824 58.8957 12.6131 58.309 13.0504 57.8183C13.4877 57.3277 14.0264 56.949 14.6664 56.6823C15.3064 56.4157 16.0531 56.2823 16.9064 56.2823C17.5677 56.2823 18.1597 56.3677 18.6824 56.5383C19.2051 56.6983 19.6477 56.9277 20.0104 57.2263C20.3837 57.525 20.6664 57.8877 20.8584 58.3143C21.0611 58.7303 21.1624 59.1943 21.1624 59.7063L18.9864 60.2343C18.9757 59.8823 18.9117 59.5783 18.7944 59.3223C18.6877 59.0663 18.5331 58.853 18.3304 58.6823C18.1384 58.5117 17.9091 58.389 17.6424 58.3143C17.3864 58.229 17.1091 58.1863 16.8104 58.1863C16.4477 58.1863 16.1064 58.2503 15.7864 58.3783C15.4664 58.5063 15.1837 58.7143 14.9384 59.0023C14.6931 59.2797 14.5011 59.6477 14.3624 60.1063C14.2237 60.565 14.1544 61.125 14.1544 61.7863C14.1544 62.4477 14.2237 63.013 14.3624 63.4823C14.5117 63.9517 14.7091 64.3303 14.9544 64.6183C15.2104 64.8957 15.5037 65.0983 15.8344 65.2263C16.1757 65.3543 16.5384 65.4183 16.9224 65.4183C17.3917 65.4183 17.7917 65.3383 18.1224 65.1783C18.4637 65.0183 18.7304 64.7837 18.9224 64.4743C19.1144 64.1543 19.2211 63.765 19.2424 63.3063H17.3224V61.6423H21.4504V63.5623V67.0663H19.8344L19.8664 64.2983H19.6264C19.4984 64.949 19.2904 65.4983 19.0024 65.9463C18.7251 66.3837 18.3571 66.7197 17.8984 66.9543C17.4504 67.1783 16.8957 67.2903 16.2344 67.2903ZM22.3994 67.0663V56.5063H24.7354V67.0663H22.3994ZM25.9432 67.0663V56.5063H30.1992C30.7005 56.5063 31.1698 56.549 31.6072 56.6343C32.0552 56.709 32.4605 56.8263 32.8232 56.9863C33.1858 57.1463 33.4952 57.3543 33.7512 57.6103C34.0178 57.8557 34.2205 58.1437 34.3592 58.4743C34.4978 58.805 34.5672 59.189 34.5672 59.6263C34.5672 59.9783 34.5085 60.3037 34.3912 60.6023C34.2845 60.901 34.1138 61.1677 33.8792 61.4023C33.6445 61.6263 33.3458 61.813 32.9832 61.9623C32.6205 62.1117 32.1938 62.213 31.7032 62.2663V62.4583C32.2898 62.5117 32.7485 62.645 33.0792 62.8583C33.4205 63.061 33.6872 63.333 33.8792 63.6743C34.0712 64.0157 34.2312 64.421 34.3592 64.8903L34.9672 67.0663H32.4232L31.9592 65.0663C31.8738 64.6503 31.7458 64.3197 31.5752 64.0743C31.4045 63.829 31.1805 63.653 30.9032 63.5463C30.6365 63.4397 30.3005 63.3863 29.8952 63.3863H28.2472V67.0663H25.9432ZM28.2472 61.6263H29.6712C29.8525 61.6263 30.0498 61.621 30.2632 61.6103C30.4872 61.5997 30.7112 61.573 30.9352 61.5303C31.1592 61.477 31.3618 61.3917 31.5432 61.2743C31.7352 61.157 31.8898 60.997 32.0072 60.7943C32.1245 60.581 32.1832 60.3143 32.1832 59.9943C32.1832 59.653 32.1245 59.3757 32.0072 59.1623C31.9005 58.949 31.7565 58.7837 31.5752 58.6663C31.3938 58.549 31.2018 58.469 30.9992 58.4263C30.8072 58.373 30.6258 58.341 30.4552 58.3303C30.2845 58.3197 30.1458 58.3143 30.0392 58.3143H28.2472V61.6263ZM34.8588 67.0663L38.4748 56.5063H41.7068L45.3068 67.0663H42.8108L40.1868 58.3463H39.9948L37.3548 67.0663H34.8588ZM36.8588 65.0183V63.4183H43.6268V65.0183H36.8588ZM45.7338 67.0663V56.5063H49.9898C50.4911 56.5063 50.9604 56.549 51.3978 56.6343C51.8458 56.709 52.2511 56.8263 52.6138 56.9863C52.9764 57.1463 53.2858 57.3543 53.5418 57.6103C53.8084 57.8557 54.0111 58.1437 54.1498 58.4743C54.2884 58.805 54.3578 59.189 54.3578 59.6263C54.3578 59.9783 54.2991 60.3037 54.1818 60.6023C54.0751 60.901 53.9044 61.1677 53.6698 61.4023C53.4351 61.6263 53.1364 61.813 52.7738 61.9623C52.4111 62.1117 51.9844 62.213 51.4938 62.2663V62.4583C52.0804 62.5117 52.5391 62.645 52.8698 62.8583C53.2111 63.061 53.4778 63.333 53.6698 63.6743C53.8618 64.0157 54.0218 64.421 54.1498 64.8903L54.7578 67.0663H52.2138L51.7498 65.0663C51.6644 64.6503 51.5364 64.3197 51.3658 64.0743C51.1951 63.829 50.9711 63.653 50.6938 63.5463C50.4271 63.4397 50.0911 63.3863 49.6858 63.3863H48.0378V67.0663H45.7338ZM48.0378 61.6263H49.4618C49.6431 61.6263 49.8404 61.621 50.0538 61.6103C50.2778 61.5997 50.5018 61.573 50.7258 61.5303C50.9498 61.477 51.1524 61.3917 51.3338 61.2743C51.5258 61.157 51.6804 60.997 51.7978 60.7943C51.9151 60.581 51.9738 60.3143 51.9738 59.9943C51.9738 59.653 51.9151 59.3757 51.7978 59.1623C51.6911 58.949 51.5471 58.7837 51.3658 58.6663C51.1844 58.549 50.9924 58.469 50.7898 58.4263C50.5978 58.373 50.4164 58.341 50.2458 58.3303C50.0751 58.3197 49.9364 58.3143 49.8298 58.3143H48.0378V61.6263Z" fill="white"/>
</svg>
