<svg width="299" height="302" viewBox="0 0 299 302" fill="none" xmlns="http://www.w3.org/2000/svg">
<path d="M264.48 153.854C265.45 154.104 266.48 154.174 267.48 154.314C268.67 154.484 269.86 154.844 271.02 155.154C273.23 155.734 275.44 156.374 277.59 157.114C279 157.594 280.44 158.074 281.77 158.744C281.97 158.844 282.43 158.984 282.56 159.164C282.74 159.404 282.59 159.484 282.35 159.684C281.9 160.044 281.3 160.194 280.73 160.314C279.71 160.534 278.63 160.644 277.6 160.824C276.89 160.944 275.95 161.044 275.47 161.644C276.82 162.644 277.97 163.914 279.24 165.004C280.34 165.954 281.4 166.994 282.41 168.054C282.61 168.264 283.48 169.034 283.29 169.394C283.05 169.844 281.97 169.244 281.73 169.114C280.03 168.164 278.21 167.574 276.4 166.874C274.62 166.184 272.88 165.394 271.12 164.644C269.7 164.044 268.2 163.454 266.87 162.654C266.39 162.364 265.91 162.144 265.45 161.834C265.17 161.644 264.57 161.404 264.38 161.124C263.65 160.114 266.72 160.314 266.7 159.464C266.69 158.884 265.84 158.224 265.51 157.794C265.07 157.224 264.65 156.594 264.26 155.984C264.04 155.644 263.84 155.364 263.57 155.064C263.45 154.934 263.01 154.544 263 154.364C262.98 153.794 263.78 153.554 264.24 153.694" fill="#DD4C97"/>
<path d="M267.03 154.544C271.08 155.674 275.22 156.524 279.24 157.734C279.73 157.884 280.58 158.074 280.89 158.524C281.23 159.024 280.48 159.184 280.1 159.304C278.92 159.664 277.37 159.654 276.34 160.394C276.07 160.584 275.93 161.024 276.23 161.284C278.48 163.204 281.11 164.964 282.74 167.494C282.9 167.214 283.07 166.924 283.23 166.644C279.15 167.064 275.53 164.374 271.85 163.084C270.67 162.674 268.35 162.414 267.82 161.104C267.54 160.414 268.24 160.354 268.78 160.224C269.45 160.064 270.11 159.924 270.71 159.594C271 159.434 271.11 158.934 270.82 158.704C269.22 157.424 266.92 155.634 266.58 153.484L266.18 154.184C266.35 154.164 266.52 154.154 266.69 154.134C267.41 154.054 267.41 152.924 266.69 153.004C266.42 153.034 266.15 153.044 265.88 153.094C265.56 153.154 265.44 153.514 265.48 153.794C265.85 156.154 268.27 158.114 270.01 159.514L270.12 158.624C269.07 159.194 266.83 159.004 266.6 160.534C266.31 162.454 268.69 163.284 270.09 163.734C272.21 164.414 274.19 165.354 276.25 166.224C278.43 167.154 280.81 168.034 283.22 167.784C283.62 167.744 283.96 167.324 283.71 166.934C282.02 164.314 279.37 162.494 277.03 160.494C276.99 160.794 276.95 161.084 276.92 161.384C277.52 160.954 278.4 160.884 279.1 160.734C279.83 160.574 280.63 160.434 281.3 160.064C282.65 159.314 282.16 157.854 280.99 157.224C279.51 156.414 277.59 156.134 275.98 155.704C273.11 154.934 270.2 154.274 267.34 153.464C266.64 153.264 266.34 154.364 267.04 154.554L267.03 154.544Z" fill="#030404"/>
<path d="M21.0998 291.818C20.4398 292.068 18.6898 292.288 18.8198 291.548C18.8498 291.368 19.0298 291.258 19.1698 291.138C19.3098 291.018 19.4198 290.798 19.2898 290.658C19.2098 290.578 19.0798 290.578 18.9598 290.598C18.4798 290.668 18.0098 290.868 17.5298 290.768C17.4898 290.768 17.4498 290.748 17.4298 290.718C17.3998 290.678 17.4098 290.628 17.4298 290.578C17.5498 290.198 17.9998 289.958 18.0798 289.598C18.0498 289.568 18.0198 289.548 17.9998 289.518C17.4898 289.808 16.9298 290.018 16.3498 290.138C16.2898 289.578 16.5998 289.058 16.9798 288.638C16.9998 288.618 17.0198 288.598 17.0398 288.578C16.6198 288.128 16.2598 287.668 15.9998 287.228C12.9498 289.868 9.2598 291.758 5.3298 292.668C5.5298 293.008 5.72982 293.348 5.93982 293.688C6.68982 293.688 7.5498 293.868 7.3598 294.378C7.2998 294.548 7.0998 294.628 6.9498 294.718C6.8298 294.788 6.74983 294.928 6.75983 295.058C6.79983 295.118 6.82981 295.178 6.86981 295.238C6.92981 295.268 7.0098 295.278 7.0798 295.288C7.5598 295.288 8.05981 295.178 8.51981 295.348C8.55981 295.358 8.5898 295.378 8.6098 295.408C8.6298 295.448 8.60981 295.508 8.58981 295.548C8.37981 295.948 7.77983 296.098 7.72983 296.538C8.31983 296.308 8.9498 296.178 9.5798 296.158C9.5498 296.718 9.14982 297.188 8.71982 297.538C8.60982 297.628 8.48982 297.708 8.37982 297.798C8.43982 297.908 8.50982 298.018 8.56982 298.128C13.3798 297.268 17.8998 295.208 21.6998 292.138C21.5098 292.038 21.3098 291.928 21.0998 291.808V291.818Z" fill="#DD4C97"/>
<path d="M21.1598 292.728L21.5898 292.308C21.7198 292.178 21.7498 291.938 21.5698 291.828C20.9298 291.428 19.5198 291.518 19.5098 290.668C19.5098 290.498 19.4098 290.368 19.2298 290.348C18.4698 290.258 17.8598 290.878 18.5298 289.838C18.6698 289.628 18.4998 289.318 18.2298 289.368C16.1198 289.808 17.3298 289.698 17.3298 288.548C17.3298 288.028 16.5298 287.418 16.2498 287.108C16.1498 286.988 15.9498 286.958 15.8298 287.068C12.8398 289.938 9.12982 291.218 5.24982 292.418C5.10982 292.458 4.95983 292.598 5.00983 292.768C5.09983 293.088 5.18981 293.408 5.26981 293.738C5.30981 293.868 5.39983 293.968 5.53983 293.978C7.29983 294.128 5.93982 294.478 6.43982 295.168C6.56982 295.338 6.70983 295.508 6.87983 295.648C7.42983 296.078 8.53983 295.518 7.56983 296.058C7.32983 296.188 7.34982 296.628 7.67982 296.628C8.86982 296.618 8.94982 296.438 8.02982 297.188C7.91982 297.278 7.9098 297.418 7.9498 297.548C8.0398 297.788 8.12982 298.038 8.21982 298.278C8.26982 298.398 8.41981 298.468 8.54981 298.448C13.1398 297.648 17.9798 295.328 21.6898 292.508C21.9998 292.278 21.6098 291.818 21.2998 292.048C19.2598 293.598 17.0698 294.878 14.6698 295.788C13.7098 296.148 12.7198 296.438 11.7498 296.788C11.2198 296.978 7.90981 298.108 9.73981 296.548C9.92981 296.388 9.83983 296.018 9.56983 296.018C8.33983 296.028 8.48982 296.518 8.80982 295.688C8.87982 295.498 8.73981 295.308 8.54981 295.288C7.93981 295.218 6.77983 295.158 7.50983 294.528C7.61983 294.438 7.63982 294.298 7.58982 294.168C7.37982 293.658 7.15981 293.918 6.88981 293.558C6.48981 293.038 5.77982 293.378 6.80982 292.558C7.27982 292.178 8.23981 292.088 8.79981 291.888C10.5498 291.258 12.2598 290.518 13.8098 289.498C14.8598 288.808 17.7598 286.818 15.9498 289.918C15.8198 290.128 15.9798 290.438 16.2498 290.388C17.2198 290.188 17.9098 289.678 17.3098 290.628C17.1598 290.858 17.3498 291.128 17.6098 291.098C18.3098 290.758 18.6098 290.978 18.4798 291.738C18.4098 291.868 18.5198 292.088 18.6598 292.118C18.9798 292.198 20.5898 292.438 20.7798 292.258C20.4998 292.528 20.8898 292.988 21.1698 292.718L21.1598 292.728Z" fill="#030404"/>
<path d="M194.247 26.366C193.786 26.5406 192.564 26.6943 192.654 26.1774C192.675 26.0516 192.801 25.9748 192.899 25.8909C192.997 25.8071 193.074 25.6534 192.983 25.5556C192.927 25.4997 192.836 25.4997 192.752 25.5137C192.417 25.5626 192.089 25.7023 191.753 25.6325C191.725 25.6325 191.697 25.6185 191.683 25.5975C191.662 25.5696 191.669 25.5347 191.683 25.4997C191.767 25.2343 192.082 25.0666 192.137 24.8151C192.116 24.7942 192.096 24.7802 192.082 24.7592C191.725 24.9618 191.334 25.1085 190.929 25.1924C190.887 24.8011 191.104 24.4379 191.369 24.1445C191.383 24.1305 191.397 24.1165 191.411 24.1026C191.118 23.7882 190.866 23.4668 190.684 23.1595C188.554 25.0037 185.976 26.3241 183.23 26.9598C183.37 27.1973 183.51 27.4348 183.657 27.6723C184.18 27.6723 184.781 27.7981 184.649 28.1544C184.607 28.2731 184.467 28.329 184.362 28.3919C184.278 28.4408 184.222 28.5386 184.229 28.6294C184.257 28.6713 184.278 28.7133 184.306 28.7552C184.348 28.7761 184.404 28.7831 184.453 28.7901C184.788 28.7901 185.138 28.7133 185.459 28.832C185.487 28.839 185.508 28.853 185.522 28.8739C185.536 28.9019 185.522 28.9438 185.508 28.9717C185.361 29.2512 184.942 29.356 184.907 29.6633C185.319 29.5027 185.759 29.4118 186.199 29.3979C186.178 29.7891 185.899 30.1174 185.599 30.3619C185.522 30.4248 185.438 30.4807 185.361 30.5436C185.403 30.6204 185.452 30.6972 185.494 30.7741C188.854 30.1733 192.012 28.7342 194.666 26.5895C194.534 26.5197 194.394 26.4428 194.247 26.359V26.366Z" fill="#DD4C97"/>
<path d="M194.289 27.0017L194.59 26.7083C194.68 26.6175 194.701 26.4498 194.576 26.373C194.128 26.0935 193.143 26.1564 193.136 25.5626C193.136 25.4438 193.067 25.353 192.941 25.339C192.41 25.2762 191.984 25.7093 192.452 24.9827C192.55 24.836 192.431 24.6195 192.242 24.6544C190.768 24.9618 191.613 24.885 191.613 24.0816C191.613 23.7183 191.055 23.2922 190.859 23.0756C190.789 22.9918 190.649 22.9708 190.566 23.0477C188.477 25.0526 185.885 25.9468 183.175 26.7851C183.077 26.8131 182.972 26.9109 183.007 27.0296C183.07 27.2532 183.133 27.4767 183.188 27.7073C183.216 27.7981 183.279 27.8679 183.377 27.8749C184.607 27.9797 183.657 28.2242 184.006 28.7063C184.097 28.825 184.194 28.9438 184.313 29.0416C184.697 29.342 185.473 28.9507 184.795 29.328C184.628 29.4188 184.642 29.7262 184.872 29.7262C185.703 29.7192 185.759 29.5935 185.117 30.1174C185.04 30.1803 185.033 30.2781 185.061 30.3689C185.124 30.5366 185.186 30.7112 185.249 30.8789C185.284 30.9627 185.389 31.0116 185.48 30.9976C188.686 30.4388 192.068 28.818 194.659 26.848C194.876 26.6873 194.603 26.366 194.387 26.5267C192.962 27.6095 191.432 28.5037 189.755 29.1394C189.085 29.3909 188.393 29.5935 187.715 29.838C187.345 29.9707 185.033 30.7601 186.311 29.6703C186.444 29.5585 186.381 29.3001 186.192 29.3001C185.333 29.307 185.438 29.6493 185.662 29.0695C185.71 28.9368 185.613 28.8041 185.48 28.7901C185.054 28.7412 184.243 28.6993 184.753 28.2591C184.83 28.1963 184.844 28.0985 184.809 28.0077C184.663 27.6514 184.509 27.833 184.32 27.5815C184.041 27.2182 183.545 27.4558 184.264 26.8829C184.593 26.6175 185.263 26.5546 185.655 26.4149C186.877 25.9748 188.072 25.4578 189.154 24.7452C189.888 24.2632 191.914 22.873 190.649 25.0386C190.559 25.1854 190.67 25.4019 190.859 25.367C191.537 25.2273 192.019 24.871 191.6 25.5346C191.495 25.6953 191.627 25.8839 191.809 25.863C192.298 25.6255 192.508 25.7792 192.417 26.3101C192.368 26.4009 192.445 26.5546 192.543 26.5755C192.766 26.6314 193.891 26.7991 194.024 26.6734C193.828 26.862 194.1 27.1833 194.296 26.9947L194.289 27.0017Z" fill="#030404"/>
<path d="M33.6826 56.8905C32.8757 57.1961 30.7363 57.4651 30.8952 56.5604C30.9319 56.3403 31.1519 56.2058 31.3231 56.0591C31.4942 55.9124 31.6288 55.6435 31.4698 55.4723C31.372 55.3745 31.2131 55.3745 31.0664 55.399C30.4796 55.4845 29.905 55.7291 29.3182 55.6068C29.2693 55.6068 29.2203 55.5823 29.1959 55.5457C29.1592 55.4968 29.1714 55.4356 29.1959 55.3745C29.3426 54.91 29.8927 54.6165 29.9905 54.1764C29.9539 54.1397 29.9172 54.1153 29.8927 54.0786C29.2693 54.4332 28.5846 54.6899 27.8756 54.8366C27.8022 54.152 28.1812 53.5163 28.6458 53.0028C28.6702 52.9784 28.6947 52.9539 28.7191 52.9295C28.2057 52.3793 27.7655 51.8169 27.4477 51.279C23.7189 54.5065 19.2078 56.8171 14.4032 57.9296C14.6477 58.3453 14.8922 58.7609 15.149 59.1766C16.0659 59.1766 17.1172 59.3966 16.885 60.0201C16.8116 60.228 16.5671 60.3258 16.3837 60.4358C16.237 60.5214 16.1392 60.6925 16.1515 60.8515C16.2004 60.9248 16.237 60.9982 16.2859 61.0715C16.3593 61.1082 16.4571 61.1204 16.5426 61.1326C17.1295 61.1326 17.7407 60.9982 18.3031 61.206C18.352 61.2182 18.3887 61.2427 18.4131 61.2793C18.4376 61.3282 18.4131 61.4016 18.3887 61.4505C18.132 61.9395 17.3985 62.1229 17.3373 62.6608C18.0586 62.3796 18.8288 62.2207 19.599 62.1962C19.5623 62.8809 19.0733 63.4555 18.5476 63.8834C18.4131 63.9934 18.2664 64.0912 18.132 64.2012C18.2053 64.3357 18.2909 64.4702 18.3643 64.6046C24.2446 63.5533 29.7705 61.0349 34.4161 57.2817C34.1838 57.1594 33.9393 57.0249 33.6826 56.8782V56.8905Z" fill="#DD4C97"/>
<path d="M33.7559 58.003L34.2816 57.4895C34.4406 57.3305 34.4772 57.0372 34.2572 56.9027C33.4748 56.4137 31.751 56.5237 31.7388 55.4845C31.7388 55.2767 31.6165 55.1178 31.3965 55.0933C30.4673 54.9833 29.7216 55.7412 30.5407 54.4698C30.7118 54.2131 30.504 53.8341 30.1739 53.8952C27.5944 54.4331 29.0736 54.2987 29.0736 52.8928C29.0736 52.2571 28.0956 51.5113 27.7533 51.1323C27.631 50.9856 27.3865 50.9489 27.2398 51.0834C23.5844 54.5921 19.0489 56.1569 14.3054 57.624C14.1343 57.6729 13.9509 57.844 14.012 58.0519C14.122 58.4431 14.2321 58.8343 14.3299 59.2377C14.3788 59.3967 14.4888 59.5189 14.66 59.5311C16.8116 59.7145 15.149 60.1424 15.7602 60.9859C15.9192 61.1938 16.0903 61.4016 16.2982 61.5728C16.9705 62.0985 18.3276 61.4138 17.1417 62.074C16.8483 62.2329 16.8727 62.7708 17.2762 62.7708C18.731 62.7586 18.8288 62.5385 17.7041 63.4555C17.5696 63.5655 17.5573 63.7367 17.6062 63.8956C17.7163 64.189 17.8263 64.4946 17.9363 64.788C17.9975 64.9347 18.1808 65.0203 18.3398 64.9959C23.9512 64.0178 29.8683 61.1815 34.4039 57.734C34.7829 57.4528 34.3061 56.8905 33.9271 57.1716C31.4331 59.0666 28.7558 60.6314 25.8217 61.7439C24.648 62.184 23.4378 62.5386 22.2519 62.9664C21.6039 63.1987 17.5573 64.5802 19.7946 62.673C20.0269 62.4774 19.9169 62.0251 19.5868 62.0251C18.0831 62.0373 18.2664 62.6364 18.6576 61.6216C18.7432 61.3894 18.572 61.1571 18.3398 61.1326C17.594 61.0471 16.1759 60.9737 17.0684 60.2035C17.2028 60.0935 17.2273 59.9223 17.1661 59.7634C16.9094 59.1399 16.6404 59.4578 16.3104 59.0176C15.8213 58.3819 14.9534 58.7976 16.2126 57.7951C16.7872 57.3305 17.9608 57.2205 18.6454 56.976C20.7848 56.2058 22.8754 55.3011 24.7703 54.0542C26.054 53.2106 29.5993 50.7778 27.3865 54.5676C27.2276 54.8244 27.4232 55.2034 27.7533 55.1422C28.9392 54.8977 29.7827 54.2742 29.0492 55.4356C28.8658 55.7168 29.0981 56.0469 29.4159 56.0102C30.2717 55.5946 30.6385 55.8635 30.4796 56.7927C30.394 56.9516 30.5285 57.2205 30.6996 57.2572C31.0908 57.355 33.0591 57.6484 33.2914 57.4284C32.9491 57.7584 33.4258 58.3208 33.7682 57.9907L33.7559 58.003Z" fill="#030404"/>
<path d="M260.354 13.53C260.574 12.85 260.754 12.16 260.964 11.49C261.744 9.05002 262.844 6.75 263.874 4.41C264.234 3.59 264.684 2.91002 265.264 2.24002C265.594 1.86002 265.874 1.47001 266.154 1.04001C266.404 0.650009 266.654 0.35 266.934 0C267.094 0.12 267.124 0.390007 267.194 0.570007C267.374 1.05001 267.394 1.54001 267.464 2.04001C267.554 2.66001 267.694 3.27001 267.814 3.89001C267.884 4.26001 267.994 4.63001 268.144 4.98001C268.214 5.13001 268.324 5.57001 268.444 5.67001C268.674 5.87001 269.324 5.46002 269.554 5.30002C270.094 4.94002 270.624 4.52999 271.144 4.14999C271.654 3.76999 272.204 3.45002 272.704 3.05002C273.174 2.68002 273.594 2.42999 274.154 2.20999C274.484 2.07999 275.044 1.76001 275.024 2.29001C274.984 3.14001 274.394 4.16001 273.904 4.85001C273.164 5.88001 272.374 6.89001 271.514 7.82001C270.714 8.69001 269.974 9.57999 269.114 10.4C268.794 10.71 268.574 11.03 268.334 11.4C267.984 11.92 267.474 12.32 267.044 12.77C266.674 13.15 266.304 13.47 265.874 13.79C265.664 13.94 265.544 14.12 265.294 14.17C265.014 14.23 265.034 14.17 265.004 13.9C264.884 12.9 264.934 11.91 265.094 10.92C264.824 11.16 264.554 11.44 264.294 11.69C263.904 12.06 263.484 12.37 263.074 12.73C262.484 13.24 261.874 13.74 261.234 14.19C260.834 14.47 260.214 13.89 260.334 13.53H260.354Z" fill="#DD4C97"/>
<path d="M260.384 13.71C261.624 10.25 262.744 6.71999 264.274 3.36999C264.604 2.63999 264.984 1.92999 265.444 1.27999C265.734 0.859992 266.024 0.199993 266.574 0.749993C266.854 1.02999 266.924 1.55001 267.014 1.92001C267.194 2.68001 267.384 3.44001 267.554 4.20001C267.624 4.49001 267.644 4.96001 267.934 5.14001C268.224 5.32001 268.654 5.11001 268.934 4.99001C269.594 4.69001 270.174 4.24 270.744 3.79C271.314 3.34 271.874 2.88001 272.424 2.42001C272.684 2.21001 273.974 1.16999 273.714 2.17999C273.584 2.69999 273.224 3.21001 272.964 3.67001C272.514 4.47001 271.994 5.23 271.464 5.98C270.534 7.31 269.654 8.7 268.634 9.96999C268.094 10.64 267.504 11.27 266.804 11.77C266.644 11.88 266.184 12.26 265.944 12.18C265.734 12.12 265.724 11.85 265.714 11.66C265.654 10.77 266.004 9.84999 265.774 8.96999C265.744 8.84999 265.634 8.81001 265.524 8.83001C264.574 8.98001 263.754 10.08 263.164 10.74C262.304 11.69 261.424 13.07 260.144 13.45C259.894 13.53 259.994 13.92 260.254 13.85C261.474 13.48 262.254 12.36 263.074 11.46C263.464 11.03 263.854 10.58 264.274 10.17C264.644 9.80001 265.104 9.29999 265.644 9.21999L265.394 9.08001C265.634 10 265.184 10.98 265.344 11.91C265.534 12.97 266.514 12.5 267.114 12.06C268.474 11.09 269.424 9.68 270.354 8.32C271.454 6.7 272.634 5.13999 273.594 3.42999C273.854 2.96999 274.774 1.33999 273.634 1.27999C273.114 1.24999 272.614 1.75001 272.244 2.05001C271.594 2.58001 270.954 3.12001 270.284 3.64001C269.884 3.95001 269.474 4.25001 269.024 4.49001C268.844 4.58001 268.584 4.77001 268.374 4.77001C268.084 4.77001 268.094 4.62999 268.034 4.39999C267.824 3.53999 267.624 2.67001 267.424 1.80001C267.284 1.21001 267.104 0.40999 266.524 0.0899897C266.044 -0.18001 265.724 0.21001 265.454 0.58001C264.144 2.35001 263.364 4.41999 262.574 6.46999C261.664 8.81999 260.854 11.21 260.014 13.59C259.924 13.84 260.324 13.95 260.414 13.7L260.384 13.71Z" fill="#030404"/>
<path d="M292.303 274.72C291.694 273.717 290.936 271.781 289.877 271.291C289.703 272.366 290.32 274.523 289.672 275.463C289.095 276.3 286.914 276.482 285.926 276.869C286.827 277.146 288.66 277.43 289.047 278.292C289.34 278.939 288.708 280.962 288.637 281.721C289.182 281.286 290.391 279.524 291.015 279.564C291.813 279.611 292.627 281.681 293.354 282.013C293.354 281.033 293.085 279.982 293.188 278.987C294.744 278.876 296.119 278.687 297.636 278.339C297.083 277.612 295.85 276.925 295.139 276.316C295.819 275.866 296.103 275.02 296.522 274.333C295.977 274.483 294.562 275.194 294.104 274.91C293.559 274.562 293.733 273.243 293.377 272.777C292.801 273.432 292.145 274.254 291.797 275.028" fill="#030404"/>
<path d="M292.563 274.57C291.86 273.393 291.331 271.702 290.035 271.038C289.814 270.928 289.616 271.07 289.585 271.299C289.49 271.978 289.608 272.674 289.656 273.353C289.695 273.954 289.814 274.831 289.403 275.337C289.032 275.803 288.273 275.953 287.728 276.087C287.104 276.253 286.456 276.356 285.847 276.585C285.579 276.688 285.547 277.075 285.847 277.162C286.638 277.399 288.629 277.58 288.81 278.584C288.905 279.113 288.716 279.73 288.613 280.243C288.51 280.757 288.392 281.215 288.336 281.713C288.305 281.997 288.676 282.076 288.85 281.926C289.245 281.594 289.569 281.16 289.917 280.773C290.169 280.488 290.683 279.761 291.118 279.888C291.584 280.022 291.979 280.859 292.24 281.231C292.508 281.61 292.785 282.037 293.211 282.258C293.409 282.361 293.67 282.234 293.662 281.997C293.638 280.986 293.417 279.99 293.496 278.971L293.196 279.271C294.721 279.161 296.23 278.955 297.723 278.616C297.96 278.56 297.992 278.276 297.857 278.11C297.178 277.272 296.182 276.767 295.36 276.087L295.297 276.561C296.024 276.024 296.34 275.226 296.791 274.475C296.925 274.254 296.704 273.962 296.451 274.033C296.119 274.128 295.803 274.27 295.479 274.388C295.195 274.491 294.602 274.776 294.302 274.641C293.994 274.507 293.978 273.875 293.938 273.59C293.883 273.251 293.836 272.903 293.646 272.611C293.551 272.46 293.306 272.397 293.172 272.547C292.556 273.258 291.947 274.001 291.544 274.862C291.378 275.21 291.9 275.518 292.066 275.163C292.453 274.349 293.014 273.646 293.599 272.974L293.124 272.911C293.543 273.575 293.18 274.839 294.065 275.202C294.831 275.518 295.89 274.823 296.609 274.61C296.498 274.459 296.38 274.317 296.269 274.167C295.89 274.807 295.613 275.581 294.997 276.04C294.855 276.142 294.776 276.379 294.934 276.514C295.756 277.193 296.751 277.699 297.431 278.536L297.565 278.031C296.127 278.355 294.673 278.56 293.196 278.671C293.022 278.687 292.911 278.797 292.895 278.971C292.824 279.982 293.038 280.986 293.061 281.997C293.211 281.91 293.361 281.823 293.512 281.736C292.919 281.428 292.579 280.63 292.192 280.117C291.916 279.753 291.528 279.256 291.023 279.248C290.533 279.232 290.09 279.714 289.782 280.03C289.324 280.504 288.937 281.065 288.431 281.492L288.945 281.705C289.024 281.041 289.221 280.393 289.332 279.737C289.411 279.24 289.537 278.639 289.332 278.157C288.85 277.027 287.033 276.869 286.021 276.561V277.138C287.206 276.703 289.071 276.743 289.901 275.653C290.801 274.467 290.011 272.618 290.193 271.267L289.743 271.528C290.928 272.137 291.418 273.764 292.058 274.847C292.255 275.178 292.777 274.878 292.579 274.546L292.563 274.57Z" fill="#030404"/>
<path d="M32.4402 207.708C31.6702 206.438 30.7102 203.988 29.3702 203.368C29.1502 204.728 29.9302 207.458 29.1102 208.648C28.3802 209.708 25.6202 209.938 24.3702 210.428C25.5102 210.778 27.8302 211.138 28.3202 212.228C28.6902 213.048 27.8902 215.608 27.8002 216.568C28.4902 216.018 30.0202 213.788 30.8102 213.838C31.8202 213.898 32.8502 216.518 33.7702 216.938C33.7702 215.698 33.4302 214.368 33.5602 213.108C35.5302 212.968 37.2702 212.728 39.1902 212.288C38.4902 211.368 36.9302 210.498 36.0302 209.728C36.8902 209.158 37.2502 208.088 37.7802 207.218C37.0902 207.408 35.3002 208.308 34.7202 207.948C34.0302 207.508 34.2502 205.838 33.8002 205.248C33.0702 206.078 32.2402 207.118 31.8002 208.098" fill="#030404"/>
<path d="M32.7702 207.518C31.8802 206.028 31.2102 203.888 29.5702 203.048C29.2902 202.908 29.0402 203.088 29.0002 203.378C28.8802 204.238 29.0302 205.118 29.0902 205.978C29.1402 206.738 29.2902 207.848 28.7702 208.488C28.3002 209.078 27.3402 209.268 26.6502 209.438C25.8602 209.648 25.0402 209.778 24.2702 210.068C23.9302 210.198 23.8902 210.688 24.2702 210.798C25.2702 211.098 27.7902 211.328 28.0202 212.598C28.1402 213.268 27.9002 214.048 27.7702 214.698C27.6402 215.348 27.4902 215.928 27.4202 216.558C27.3802 216.918 27.8502 217.018 28.0702 216.828C28.5702 216.408 28.9802 215.858 29.4202 215.368C29.7402 215.008 30.3902 214.088 30.9402 214.248C31.5302 214.418 32.0302 215.478 32.3602 215.948C32.7002 216.428 33.0502 216.968 33.5902 217.248C33.8402 217.378 34.1702 217.218 34.1602 216.918C34.1302 215.638 33.8502 214.378 33.9502 213.088L33.5702 213.468C35.5002 213.328 37.4102 213.068 39.3002 212.638C39.6002 212.568 39.6402 212.208 39.4702 211.998C38.6102 210.938 37.3502 210.298 36.3102 209.438L36.2302 210.038C37.1502 209.358 37.5502 208.348 38.1202 207.398C38.2902 207.118 38.0102 206.748 37.6902 206.838C37.2702 206.958 36.8702 207.138 36.4602 207.288C36.1002 207.418 35.3502 207.778 34.9702 207.608C34.5802 207.438 34.5602 206.638 34.5102 206.278C34.4402 205.848 34.3802 205.408 34.1402 205.038C34.0202 204.848 33.7102 204.768 33.5402 204.958C32.7602 205.858 31.9902 206.798 31.4802 207.888C31.2702 208.328 31.9302 208.718 32.1402 208.268C32.6302 207.238 33.3402 206.348 34.0802 205.498L33.4802 205.418C34.0102 206.258 33.5502 207.858 34.6702 208.318C35.6402 208.718 36.9802 207.838 37.8902 207.568C37.7502 207.378 37.6002 207.198 37.4602 207.008C36.9802 207.818 36.6302 208.798 35.8502 209.378C35.6702 209.508 35.5702 209.808 35.7702 209.978C36.8102 210.838 38.0702 211.478 38.9302 212.538L39.1002 211.898C37.2802 212.308 35.4402 212.568 33.5702 212.708C33.3502 212.728 33.2102 212.868 33.1902 213.088C33.1002 214.368 33.3702 215.638 33.4002 216.918C33.5902 216.808 33.7802 216.698 33.9702 216.588C33.2202 216.198 32.7902 215.188 32.3002 214.538C31.9502 214.078 31.4602 213.448 30.8202 213.438C30.2002 213.418 29.6402 214.028 29.2502 214.428C28.6702 215.028 28.1802 215.738 27.5402 216.278L28.1902 216.548C28.2902 215.708 28.5402 214.888 28.6802 214.058C28.7802 213.428 28.9402 212.668 28.6802 212.058C28.0702 210.628 25.7702 210.428 24.4902 210.038V210.768C25.9902 210.218 28.3502 210.268 29.4002 208.888C30.5402 207.388 29.5402 205.048 29.7702 203.338L29.2002 203.668C30.7002 204.438 31.3202 206.498 32.1302 207.868C32.3802 208.288 33.0402 207.908 32.7902 207.488L32.7702 207.518Z" fill="#030404"/>
<path d="M95.9555 30.7284C96.1355 28.7684 95.9655 26.7284 96.8655 24.9084C97.6955 23.2284 99.3755 22.0984 101.106 21.4784C101.606 21.2984 101.416 20.5585 100.886 20.6785C96.6855 21.6685 94.0355 18.0184 93.3555 14.2984C93.2555 13.7684 92.4855 14.0084 92.5555 14.5184C92.8755 16.8384 93.0755 19.3584 91.4755 21.2784C90.8755 21.9984 90.1055 22.5384 89.2555 22.9084C88.6255 23.1884 87.4455 23.2485 87.0555 23.8185C86.9155 24.0185 87.0555 24.3885 87.3055 24.4285C89.0355 24.7085 90.9155 24.9885 92.3355 26.0984C93.0655 26.6684 93.7355 27.3784 94.1855 28.1984C94.6455 29.0284 94.8355 29.9685 95.2655 30.8185C95.5055 31.2885 96.2255 30.8785 95.9855 30.3985C95.4855 29.4385 95.2955 28.3584 94.7055 27.4484C94.2055 26.6784 93.5555 26.0084 92.8355 25.4484C91.3155 24.2584 89.3755 23.9284 87.5255 23.6384L87.7755 24.2484C87.8155 24.1884 88.8055 23.9784 89.0655 23.8884C89.5455 23.7084 90.0255 23.4984 90.4655 23.2284C91.3155 22.7184 92.0255 22.0285 92.5755 21.2085C93.9355 19.1485 93.6955 16.6284 93.3755 14.3084C93.1055 14.3784 92.8455 14.4584 92.5755 14.5284C92.9355 16.4784 93.7655 18.4384 95.1755 19.8684C96.7755 21.4984 98.9255 22.0084 101.126 21.4884L100.906 20.6884C99.0555 21.3484 97.2555 22.5184 96.2855 24.2784C95.1855 26.2784 95.3555 28.5284 95.1555 30.7284C95.1055 31.2584 95.9355 31.2584 95.9855 30.7284H95.9555Z" fill="#030404"/>
<path d="M8.95551 138.728C9.13551 136.768 8.96551 134.728 9.86551 132.908C10.6955 131.228 12.3755 130.098 14.1055 129.478C14.6055 129.298 14.4155 128.558 13.8855 128.678C9.68551 129.668 7.03551 126.018 6.35551 122.298C6.25551 121.768 5.48551 122.008 5.55551 122.518C5.87551 124.838 6.07551 127.358 4.47551 129.278C3.87551 129.998 3.10551 130.538 2.25551 130.908C1.62551 131.188 0.445515 131.248 0.0555147 131.818C-0.0844853 132.018 0.0555147 132.388 0.305515 132.428C2.03551 132.708 3.91551 132.988 5.33551 134.098C6.06551 134.668 6.73551 135.378 7.18551 136.198C7.64551 137.028 7.83551 137.968 8.26551 138.818C8.50551 139.288 9.22551 138.878 8.98551 138.398C8.48551 137.438 8.29551 136.358 7.70551 135.448C7.20551 134.678 6.55551 134.008 5.83551 133.448C4.31551 132.258 2.37551 131.928 0.525512 131.638L0.775512 132.248C0.815512 132.188 1.80551 131.978 2.06551 131.888C2.54551 131.708 3.02551 131.498 3.46551 131.228C4.31551 130.718 5.02551 130.028 5.57551 129.208C6.93551 127.148 6.69551 124.628 6.37551 122.308C6.10551 122.378 5.84551 122.458 5.57551 122.528C5.93551 124.478 6.76551 126.438 8.17551 127.868C9.77551 129.498 11.9255 130.008 14.1255 129.488L13.9055 128.688C12.0555 129.348 10.2555 130.518 9.28551 132.278C8.18551 134.278 8.35551 136.528 8.15551 138.728C8.10551 139.258 8.93551 139.258 8.98551 138.728H8.95551Z" fill="#030404"/>
<path d="M203.654 293.559C204.024 293.809 204.774 294.639 204.344 294.839C204.234 294.889 204.114 294.839 204.004 294.799C203.894 294.769 203.734 294.799 203.714 294.909C203.704 294.979 203.754 295.049 203.804 295.099C204.014 295.319 204.294 295.499 204.414 295.779C204.414 295.799 204.434 295.829 204.424 295.849C204.424 295.879 204.384 295.899 204.354 295.899C204.114 295.969 203.824 295.829 203.604 295.919C203.604 295.939 203.604 295.969 203.604 295.989C203.944 296.149 204.254 296.369 204.524 296.619C204.254 296.849 203.864 296.879 203.514 296.839C203.494 296.839 203.474 296.839 203.464 296.839C203.374 297.219 203.274 297.579 203.144 297.869C205.624 298.489 207.954 299.729 209.854 301.439C209.954 301.209 210.064 300.979 210.164 300.749C209.894 300.349 209.674 299.849 210.004 299.759C210.114 299.729 210.224 299.799 210.334 299.849C210.414 299.889 210.514 299.879 210.584 299.829C210.604 299.789 210.624 299.749 210.634 299.709C210.634 299.669 210.604 299.619 210.584 299.579C210.414 299.329 210.164 299.109 210.094 298.809C210.094 298.789 210.084 298.759 210.094 298.739C210.104 298.709 210.144 298.699 210.174 298.699C210.454 298.659 210.754 298.919 211.004 298.789C210.674 298.569 210.374 298.289 210.134 297.969C210.434 297.779 210.824 297.819 211.164 297.919C211.254 297.939 211.334 297.979 211.424 298.009C211.454 297.939 211.494 297.859 211.524 297.789C209.324 295.599 206.614 293.999 203.634 293.139C203.654 293.269 203.664 293.419 203.684 293.569L203.654 293.559Z" fill="#DD4C97"/>
<path d="M204.114 293.199L203.744 293.129C203.634 293.109 203.494 293.179 203.504 293.309C203.534 293.789 204.084 294.489 203.654 294.809C203.564 294.869 203.534 294.969 203.584 295.069C203.814 295.499 204.354 295.589 203.584 295.619C203.424 295.619 203.324 295.829 203.454 295.949C204.494 296.939 203.994 296.229 203.384 296.709C203.094 296.929 203.084 297.479 203.004 297.799C202.984 297.889 203.034 298.009 203.134 298.029C205.704 298.529 207.734 300.019 209.764 301.589C209.864 301.669 209.984 301.659 210.064 301.549C210.194 301.399 210.314 301.249 210.444 301.099C210.504 301.039 210.514 300.939 210.474 300.869C209.954 299.959 210.554 300.449 210.784 299.949C210.844 299.819 210.854 299.679 210.854 299.539C210.854 299.059 210.124 298.719 210.814 299.059C210.964 299.129 211.194 298.969 211.074 298.799C210.634 298.189 210.504 298.209 211.234 298.409C211.324 298.429 211.404 298.389 211.454 298.319C211.544 298.189 211.644 298.049 211.734 297.919C211.784 297.849 211.764 297.749 211.704 297.689C209.624 295.599 206.634 293.899 203.834 293.009C203.604 292.939 203.504 293.299 203.734 293.379C205.284 293.879 206.744 294.549 208.084 295.469C208.664 295.859 209.204 296.299 209.774 296.699C210.114 296.939 211.684 298.129 210.274 297.759C210.124 297.719 209.954 297.899 210.054 298.039C210.284 298.359 210.504 298.669 210.734 298.989L210.994 298.729C210.684 298.579 210.414 298.359 210.114 298.569C210.044 298.619 210.014 298.699 210.024 298.789C210.084 299.119 210.694 299.829 210.024 299.649C209.944 299.629 209.854 299.669 209.804 299.739C209.514 300.199 209.954 300.239 209.914 300.709C209.854 301.619 208.884 300.449 208.444 300.129C207.484 299.429 206.474 298.769 205.374 298.309C205.024 298.159 204.644 298.069 204.294 297.919C203.944 297.919 203.664 297.769 203.454 297.509C203.724 297.079 204.094 296.889 204.564 296.939C204.724 296.929 204.824 296.739 204.694 296.609C204.314 296.249 203.604 295.999 204.434 295.969C204.604 295.969 204.684 295.769 204.564 295.639C204.134 295.399 204.134 295.169 204.574 294.949C204.664 294.939 204.744 294.799 204.704 294.719C204.624 294.519 204.164 293.599 204.004 293.569C204.244 293.619 204.344 293.249 204.104 293.199H204.114Z" fill="#030404"/>
<path d="M290.389 92.5672C288.837 96.6122 295.123 99.0388 296.686 94.9868C298.238 90.9419 291.952 88.5152 290.389 92.5672Z" fill="white"/>
<path d="M284.718 101.388C284.251 102.606 286.137 103.339 286.604 102.121C287.072 100.903 285.186 100.171 284.718 101.388Z" fill="white"/>
<path d="M284.195 90.1887C283.728 91.4065 285.614 92.1392 286.081 90.9214C286.549 89.7036 284.663 88.9709 284.195 90.1887Z" fill="white"/>
<g clip-path="url(#clip0_104_14)">
<path d="M123.767 101.411C124.484 98.6319 124.213 95.2935 124.277 92.4183C124.34 89.4314 124.261 86.4763 124.356 83.5053C124.436 81.1094 124.101 78.8412 124.006 76.4771C123.926 74.3527 124.739 71.5734 123.799 69.6087C120.229 70.1198 117.011 70.3754 113.633 71.7491C112.023 72.404 110.127 72.7235 108.709 73.4263C106.382 74.5604 106.478 75.9181 106.59 78.2502C106.972 86.6361 106.112 94.9421 105.968 103.344C105.904 107.353 105.713 111.41 106.096 115.388C106.319 117.752 106.861 118.646 109.537 118.183C111.45 117.864 113.409 117.225 115.258 116.538C119.002 115.132 122.827 114.333 126.794 113.742C130.061 113.247 135.686 112.864 138.203 110.644C139.781 109.254 138.57 106.698 138.57 104.813C138.57 103.36 139.701 99.8938 138.028 98.9993C136.642 98.2485 133.981 100.245 132.674 100.629C130.666 101.235 128.547 101.539 126.539 101.954C125.743 102.114 124.834 102.433 124.022 102.721L123.767 101.411Z" fill="#030404"/>
<path d="M153.803 209.805C152.942 209.421 152.353 208.607 152.273 207.664C151.907 203.575 152.879 198.927 153.086 194.966C153.309 190.973 152.592 186.963 152.735 183.05C150.058 183.05 145.963 186.867 145.565 182.491C145.421 180.893 145.947 178.993 146.043 177.379C146.107 176.133 145.676 174.217 145.995 173.067C146.696 170.415 151.636 170.335 154.201 169.76C157.818 168.962 161.148 168.275 164.909 167.875C167.841 167.556 172.988 165.543 173.975 168.978C174.82 171.901 174.438 173.498 174.23 176.581C174.055 179.089 173.928 178.833 171.633 179.456C169.817 179.951 167.952 180.574 166.184 181.229C164.176 181.964 164.256 181.932 164.112 184.232C163.985 186.165 164.144 191.611 164.367 193.592C164.765 197.202 165.897 202.09 164.941 205.572C164.272 208.032 162.726 207.585 160.415 208.335C158.822 208.846 157.26 209.374 155.699 209.917C155.077 210.124 154.408 210.092 153.819 209.837L153.803 209.805Z" fill="#030404"/>
<path d="M178.565 204.102C177.29 199.774 178.007 193.528 178.007 188.992C178.007 184.759 177.784 180.51 177.608 176.309C177.497 173.434 176.876 167.955 178.756 166.23C181.178 164.01 185.894 164.361 188.762 163.243C190.595 167.189 190.085 172.923 190.292 177.236C190.404 179.504 190.547 181.82 190.945 184.104C191.392 186.66 192.188 187.602 194.77 188.065C199.853 188.976 198.976 180.271 198.674 176.629C198.45 173.945 198.371 171.278 198.132 168.626C198.004 167.173 196.793 163.962 197.51 162.86C198.084 161.981 202.418 161.247 203.47 161.007C206.131 160.4 206.657 160.799 207.374 163.674C208.489 168.115 208.856 173.019 209.62 177.523C210.433 182.331 210.529 187.011 210.991 191.771C211.501 197.01 208.68 199.662 204.665 201.659C201.797 203.08 178.341 211.37 178.549 204.086L178.565 204.102Z" fill="#030404"/>
<path d="M169.657 62.3729C167.729 62.1173 165.403 62.884 163.491 63.2833C161.34 63.7306 159.3 63.6827 157.181 63.9063C156.145 64.0181 154.966 64.2737 153.962 64.4813C153.261 64.6251 151.891 64.7049 151.253 64.9605C149.309 65.7592 149.74 68.5864 149.596 70.2476C149.23 74.4006 148.449 78.9689 147.429 83.0101C145.262 91.6037 145.055 100.437 144.003 109.27C143.876 110.292 144.736 111.155 145.756 111.043C149.118 110.676 153.373 110.628 156.177 109.046C158.105 107.96 158.981 94.4469 159.953 91.8113C161.403 91.8752 163.013 102.817 163.013 103.983C163.013 104.558 162.471 106.874 162.742 107.257C163.379 108.136 167.984 106.187 168.877 105.852C169.912 105.452 174.135 104.622 175.202 104.031C174.438 101.283 174.294 96.2998 173.864 93.4406C173.099 88.2653 172.382 82.9782 171.84 77.771C171.299 72.7075 170.948 67.3724 169.657 62.4048V62.3729ZM162.296 83.4574C161.531 83.697 160.686 83.9046 159.89 83.9685C159.22 84.0164 158.185 83.7609 157.611 84.1442L157.468 83.7928C156.878 82.8983 158.009 79.8155 158.392 78.7293C158.679 77.9147 159.842 73.5381 160.862 73.8575C161.435 74.0332 161.834 75.6785 161.945 76.1736C162.168 77.1161 162.375 78.0585 162.614 79.0169C162.837 79.9273 163.061 80.8218 163.252 81.7483C163.475 82.8025 163.379 83.1379 162.328 83.4734L162.296 83.4574Z" fill="#030404"/>
<path d="M131.128 201.675C130.013 196.978 129.328 192.027 127.75 187.506C126.97 185.254 126.316 183.018 125.153 180.925C123.512 177.938 122.747 178.082 119.592 178.418C114.828 178.929 110.063 180.159 105.458 181.133C99.9132 182.299 97.6027 183.257 96.4873 189.136C95.6269 193.704 95.4994 198.288 95.0851 203C94.7983 206.307 94.5752 209.565 94.2247 212.872C93.906 215.907 92.9499 219.261 92.9181 222.232L95.8978 221.194C97.6027 220.299 101.092 220.267 103.02 220.076C105.665 219.804 108.438 219.692 111.115 219.293C111.354 216.673 110.987 213.67 110.733 211.067C110.382 207.457 109.697 207.521 113.107 206.498C116.915 205.348 116.533 205.907 117.282 209.549C117.536 210.795 118.19 216.338 119.018 217.073C120.771 218.606 129.901 215.395 131.399 214.165C134.443 211.658 131.909 204.933 131.128 201.659V201.675ZM114.828 198.592C113.441 199.055 112.262 199.63 110.748 199.342C110.398 195.94 111.513 192.186 112.501 188.96C114.923 189.439 114.461 195.637 115.561 197.521L114.844 198.608L114.828 198.592Z" fill="#030404"/>
<path d="M85.0466 143.948C84.9988 140.721 85.2696 137.463 85.3175 134.252C85.3175 133.661 85.4609 132.463 85.174 131.936C84.6163 130.882 84.7916 131.345 83.6284 131.233C82.1943 131.105 80.6328 131.361 79.2306 131.6C73.3508 132.591 67.7579 134.236 61.8304 134.875C59.1375 135.162 55.6001 135.514 53.3853 137.319C50.8039 139.411 51.3775 144.139 51.3935 147.062C51.3935 150.321 50.8836 153.755 50.7561 157.014C50.6286 160.272 50.8039 163.706 50.6446 167.125C50.4693 170.623 51.0111 173.977 51.0111 177.459C51.0111 179.073 50.5171 180.654 50.3896 182.267C50.2622 184.024 51.1067 185.158 51.4094 186.835C52.0468 190.366 50.9155 193.353 55.9188 192.602C57.4963 192.362 59.2331 192.234 60.7628 191.787C62.0057 191.42 64.6189 190.957 65.5909 190.142C67.3118 188.688 66.0848 183.337 66.3239 180.893C66.6425 177.571 65.8299 173.945 66.5469 170.607C67.264 167.268 71.5343 167.939 74.3547 167.476C75.5179 167.284 77.6531 166.869 78.6251 166.262C80.1866 165.288 79.9158 163.531 79.9158 161.869C79.9158 160.192 80.0432 158.371 79.8361 156.694C79.5652 154.458 78.8004 154.442 76.697 154.538C74.9602 154.618 68.0448 156.518 66.9294 155.416C66.3398 154.825 66.4832 150.72 66.7859 149.954C67.5189 148.053 69.2239 148.244 71.1041 148.021C74.0838 147.669 77.3185 146.855 80.4256 146.36C82.1784 146.088 83.2938 145.705 84.8076 144.922L85.0306 143.964L85.0466 143.948Z" fill="#030404"/>
<path d="M99.8495 127.911C97.9214 128.294 96.0093 128.821 94.0813 129.284C91.9939 129.795 91.1653 129.508 91.245 131.856C91.3724 135.434 90.9741 138.836 90.8466 142.43C90.5279 150.816 90.0021 159.09 90.4164 167.476C90.5439 170.016 89.2213 177.22 92.1373 178.338C93.6351 178.913 95.9137 177.779 97.4275 177.315C99.0527 176.82 101.475 176.677 102.925 175.75C105.331 174.201 105.028 167.684 105.108 164.968C105.235 160.687 105.602 156.423 105.522 152.126C105.426 147.382 105.171 142.494 104.757 137.734C104.598 135.881 105.586 124.492 101.57 125.994L99.8495 127.927V127.911Z" fill="#030404"/>
<path d="M111.29 172.332C112.677 158.691 110.748 144.746 111.848 131.185C112.087 128.23 112.278 125.722 115.242 124.908C118.19 124.093 121.169 123.422 124.181 122.783C127.161 122.16 129.742 121.697 132.69 121.585C133.933 121.537 135.59 120.451 136.498 121.154C137.183 121.697 137.502 124.508 137.63 125.323C137.884 126.92 138.251 129.188 137.837 130.77C137.359 132.591 136.164 132.687 134.315 132.974C131.128 133.485 127.766 134.3 124.866 135.418C124.532 137.175 125.344 138.916 124.93 140.721C126.571 141.009 127.511 140.114 128.977 139.747C129.87 139.523 131.367 139.555 132.292 139.619C133.136 141.328 132.562 144.123 132.594 146.008C132.642 148.819 132.801 149.458 130.077 150.576C128.659 151.167 124.962 151.375 124.069 152.27C123.193 153.132 123.384 157.349 123.719 158.643C124.739 158.707 125.615 158.068 126.603 157.876C127.814 157.637 128.929 157.748 130.124 157.301C132.132 156.566 133.742 155.624 135.909 155.544C136.642 157.157 137.406 162.636 136.514 164.074C135.765 165.288 133.582 165.32 132.371 165.655C130.826 166.086 129.407 166.805 127.878 167.3C122.54 169.025 116.947 169.632 111.736 171.709" fill="#030404"/>
<path d="M141.772 139.922C140.195 137.878 140.816 133.821 140.848 131.441C140.88 128.55 141.31 124.668 142.824 122.176C145.82 117.272 153.596 116.362 158.886 116.298C166.295 116.202 167.857 122.943 166.662 129.109C166.056 132.223 162.901 132.75 159.985 132.958C158.551 133.054 157.499 133.214 156.91 131.92C156.32 130.642 157.404 128.773 155.715 127.879C153.149 126.505 153.357 132.798 154.137 134.204C155.492 136.648 159.22 136.296 161.563 137.143C168.287 139.555 168.972 147.733 166.741 153.883C164.351 160.48 158.774 164.713 151.715 165.048C144.067 165.416 141.533 158.531 142.92 151.918C143.685 148.292 145.342 147.797 148.752 147.302C153.914 146.535 148.831 151.136 151.046 153.244C153.373 155.448 155.476 148.564 154.249 146.759C152.751 144.555 148.194 144.618 145.995 143.357C144.736 142.638 143.477 141.616 142.744 140.306L141.756 139.906L141.772 139.922Z" fill="#030404"/>
<path d="M169.801 126.968C169.131 123.726 169.625 120.116 169.625 116.825C169.625 112.417 172.239 112.369 175.999 111.394C182.452 109.717 188.715 107.689 195.359 106.634C198.849 106.075 202.004 104.909 205.509 104.494C206.147 107.577 206.37 111.251 206.131 114.349C205.987 116.218 205.748 117.576 203.948 118.215C202.275 118.806 200.442 119.062 198.753 119.589C197.845 119.876 194.929 120.355 194.308 121.026C193.591 121.793 193.782 124.86 193.798 125.914C193.845 129.348 193.654 132.735 193.575 136.201C193.511 139.475 193.463 142.782 193.67 146.056C193.782 147.909 194.069 149.347 192.348 150.225C190.914 150.96 189.145 151.088 187.615 151.806C186.309 152.429 184.189 154.57 183.6 152.381C183.424 151.759 183.902 150.497 183.982 149.858C184.126 148.692 183.95 147.637 183.982 146.519C184.062 142.51 184.556 138.533 184.524 134.508C184.524 132.415 184.731 130.355 184.604 128.262C184.54 127.208 184.444 125.978 184.253 124.956C183.918 123.199 184.014 123.454 182.405 123.486C180.493 123.534 178.118 124.013 176.35 124.62C174.724 125.195 172.94 126.425 171.187 126.521C170.741 126.154 171.187 126.409 171.187 126.377L169.801 126.968Z" fill="#030404"/>
<path d="M235.832 126.904C235.29 123.47 234.557 120.132 233.856 116.761C233.123 113.247 232.374 109.909 231.498 106.459C231.052 104.718 230.813 102.897 230.303 101.172C229.729 99.2708 229.65 98.9354 227.769 98.8874C225.013 98.8235 222.129 100.053 219.436 100.676C217.524 101.124 212.265 102.034 211.118 103.647C210.513 104.494 211.007 106.986 211.023 107.976C211.038 109.366 211.134 110.771 211.086 112.161C210.991 115.34 210.991 118.486 211.054 121.697C211.118 125.531 210.975 129.364 210.959 133.214C210.959 137.063 210.672 139.89 210.401 143.692C210.401 143.692 218.623 143.117 219.85 140.13C221.157 136.951 218.289 131.169 223.802 131.345C223.897 133.294 223.881 135.194 224.184 137.175C224.503 139.156 224.264 141.152 226.59 140.45C230.064 139.411 233.681 137.447 237.442 137.079C237.76 133.964 236.342 130.019 235.848 126.856L235.832 126.904ZM221.714 120.403L220.487 120.787C219.484 119.397 219.691 111.075 221.746 111.187C223.18 111.267 223.547 115.212 223.866 116.17C224.63 118.518 224.407 119.748 221.73 120.403H221.714Z" fill="#030404"/>
<path d="M96.6148 274.448C96.8379 274.081 96.9813 273.649 96.9972 273.218C97.4753 262.644 97.6665 251.91 96.9016 241.32C96.7264 238.876 96.6786 236.368 96.5033 233.86C96.2643 230.538 96.5989 229.787 93.189 229.436C90.5439 229.164 88.3449 228.989 85.6839 229.196C83.9312 229.324 79.5015 228.461 78.4179 229.867C77.8443 230.618 78.0355 233.221 77.8284 234.244C77.5097 235.777 77.0316 237.279 76.6333 238.796C76.1393 240.713 75.5498 247.182 73.4942 247.565C72.0602 245.473 71.8052 241.943 71.4865 239.403C71.3113 238.029 71.2953 236.544 70.9926 235.202C70.5146 233.126 70.6898 233.094 68.5228 232.918C65.7183 232.71 63.376 233.605 60.9062 234.483C58.7232 235.266 55.2177 234.803 53.3215 236.16C50.4693 238.205 50.4852 246.958 50.0072 250.44C49.2742 255.744 48.3341 261.142 47.5215 266.414C46.6929 271.797 46.0714 277.882 44.0956 282.978C43.4423 284.974 49.1308 283.441 51.3935 283.137C54.166 282.77 57.1776 282.866 58.771 280.406C61.7667 275.742 62.1331 269.017 64.4436 264.066C64.6189 267.979 63.631 271.828 63.6628 275.71C63.7106 280.071 67.4552 279.144 71.0563 278.889C72.5382 278.777 75.6294 278.585 76.7448 277.563C78.0355 276.381 78.0674 274.224 78.5135 272.515C79.6608 268.235 80.2663 263.634 82.0191 259.513C83.5169 261.063 82.3377 265.487 82.2581 267.548C82.1784 269.608 81.4614 273.058 82.1465 275.039C82.7839 276.892 82.5608 276.253 84.5526 276.333C86.0504 276.397 87.5323 276.141 89.0301 276.029C90.8626 275.918 93.2686 276.077 95.1489 275.566C95.7703 275.39 96.3121 274.991 96.6626 274.448H96.6148Z" fill="#030404"/>
<path d="M134.968 265.264C133.63 262.452 134.379 256.782 134.299 253.603C134.188 249.786 133.694 246.048 133.407 242.198C133.136 238.588 133.216 234.978 133.104 231.416C133.056 229.931 132.706 227.87 133.04 226.417C133.534 224.165 134.634 224.117 136.546 223.35C139.892 222.024 143.398 220.012 146.855 219.293C147.891 222.839 149.309 226.289 150.504 229.707C151.747 233.205 152.416 237.039 154.185 240.298C156.814 238.141 155.699 228.206 155.635 224.804C155.603 222.983 155.157 218.973 155.986 217.392C157.006 215.427 160.479 214.916 162.28 214.517C165.323 213.83 165.355 214.357 165.753 217.743C166.088 220.635 166.056 223.446 166.295 226.273C166.757 231.944 166.853 237.486 167.108 243.125C167.235 246.032 167.331 248.859 167.411 251.75C167.506 254.881 166.901 258.14 167.076 261.126C164.431 262.452 161.802 262.772 159.013 263.682C157.691 264.113 156.464 265.04 155.316 264.161C154.631 263.634 153.755 260.679 153.42 259.673C151.413 253.715 150.871 246.926 148.321 241.32C147.031 243.86 147.764 248.3 147.636 251.175C147.509 254.05 147.206 257.261 147.047 260.216C146.824 264.305 146.489 265.407 142.856 266.398C140.864 266.941 137.645 268.602 135.797 268.027L134.984 265.264H134.968Z" fill="#030404"/>
<path d="M128.085 229.436C127.782 228.27 127.607 224.42 126.922 223.494C125.902 222.12 123.639 223.27 122.11 223.59C118.174 224.388 114.206 225.906 110.223 226.752C108.024 227.216 107.115 226.081 106.271 228.637C105.777 230.123 105.984 232.327 105.777 233.94C105.219 238.317 104.693 242.662 104.056 247.054C103.435 251.319 103.036 255.76 102.654 260.072C102.303 263.906 100.949 268.57 101.793 272.356C103.881 272.356 105.395 271.445 107.339 270.838C109.075 270.279 111.8 269.385 113.218 268.314C114.796 267.116 113.951 264.369 113.935 262.388C113.903 259.673 115.29 258.986 118.222 258.986C119.098 262.5 117.6 267.068 118.716 270.247C121.456 270.199 129.423 268.426 130.252 265.918C131.463 262.261 129.615 256.654 129.694 252.804C129.854 245.409 130.045 236.672 128.101 229.436H128.085ZM119.48 249.019L118.779 249.099C114.939 250.233 113.218 250.856 114.381 246.032C115.035 243.348 115.624 238.109 117.457 236.208C118.158 240.457 118.971 244.69 119.48 249.019Z" fill="#030404"/>
<path d="M172.398 261.35C171.41 258.363 172.207 254.577 172.43 251.511C172.685 248.14 172.972 244.674 172.972 241.272C172.972 234.755 173.163 228.142 173.577 221.657C173.657 220.555 173.434 218.558 173.736 217.552C174.342 215.619 174.788 216.082 176.477 215.619C179.218 214.884 181.974 214.165 184.906 213.638C186.866 213.287 190.818 211.897 192.889 212.648C195.216 213.479 194.61 218.43 194.642 221.098C194.658 222.951 195.184 224.74 193.893 226.002C192.873 226.992 190.356 226.976 189.065 227.279C185.114 228.19 183.154 228.813 183.998 233.892C187.249 234.116 190.547 232.087 193.909 231.991C194.371 233.972 193.989 236.368 193.814 238.317C193.559 241.304 193.112 240.92 190.42 241.416C189.288 241.623 185.894 241.703 185.161 242.725C184.476 243.684 184.827 247.406 184.827 248.62C187.153 248.699 189.591 247.054 191.662 246.479C193.622 245.936 195.774 245.92 197.702 245.393C198.211 248.604 197.956 253.252 197.351 256.43C196.618 260.248 193.001 259.385 189.926 260.184C184.317 261.638 178.15 260.823 172.35 261.366" fill="#030404"/>
<path d="M223.993 209.581C220.456 204.023 213.381 206.147 208.585 207.473C205.876 208.223 202.322 208.431 201.239 211.897C200.586 213.974 201.207 217.504 201.191 219.772C201.127 232.087 200.378 244.866 201.446 257.133L202.147 257.069C204.187 256.303 206.051 255.009 208.075 254.386C210.879 253.523 211.485 253.827 211.787 250.281C212.154 245.872 210.353 239.643 211.787 235.601C213.397 239.499 214.417 244.291 215.181 248.556C215.357 249.498 215.42 253.619 216.09 254.114C216.966 254.769 219.739 252.98 220.727 252.725C224.057 251.846 227.546 252.134 226.192 247.374C224.152 240.282 221.061 233.78 217.779 227.375C223.085 223.526 228.901 217.312 223.993 209.597V209.581ZM215.165 218.319C214.64 221.242 213.03 222.567 211.07 224.213L210.146 224.564C209.859 221.321 208.441 214.725 211.915 214.165C214.767 213.718 215.643 215.667 215.15 218.319H215.165Z" fill="#030404"/>
<path d="M251.464 198.783C247.209 198.815 243.003 200.972 239.115 202.297C237.25 202.936 235.019 202.888 233.187 203.623C231.068 204.47 231.386 205.444 231.052 208.112C230.43 212.952 230.59 217.759 230.638 222.695C230.685 227.823 230.319 232.854 230.128 237.949C229.984 242.039 229.044 247.613 229.905 251.575L230.749 253.108C231.944 254.498 237.808 251.559 239.704 251.207C241.712 250.824 243.194 250.92 243.847 248.891C244.261 247.581 244.07 244.866 244.118 243.412C244.229 240.489 242.652 234.994 244.468 232.774C247.831 228.653 247.91 236.576 247.926 238.844C247.942 241.655 246.667 248.124 247.862 250.472C249.536 249.386 251.495 248.843 253.392 248.38C254.81 248.045 258.124 247.821 259.176 246.783C260.737 245.249 258.714 237.854 258.331 235.346C257.71 231.305 257.296 227.327 256.77 223.222C255.702 214.9 253.487 206.834 251.464 198.751V198.783ZM246.89 223.717C246.381 224.564 244.15 224.564 243.369 224.676L242.54 224.756C241.568 223.733 242.365 219.197 242.493 217.616C242.636 215.779 242.843 212.025 243.975 210.779C245.536 213.207 246.078 216.961 246.46 219.884C246.588 220.906 247.321 223.031 246.906 223.717H246.89Z" fill="#030404"/>
<path d="M127.017 95.613C127.734 92.8336 127.463 89.4952 127.527 86.6201C127.591 83.6331 127.511 80.6781 127.607 77.7071C127.687 75.3111 127.352 73.0429 127.256 70.6789C127.177 68.5545 127.989 65.7752 127.049 63.8105C123.48 64.3216 120.261 64.5772 116.883 65.9509C115.274 66.6058 113.378 66.9252 111.959 67.628C109.633 68.7621 109.729 70.1198 109.84 72.4519C110.223 80.8378 109.362 89.1438 109.219 97.5457C109.155 101.555 108.964 105.612 109.346 109.589C109.569 111.953 110.111 112.848 112.788 112.385C114.7 112.065 116.66 111.426 118.508 110.74C122.253 109.334 126.077 108.535 130.045 107.944C133.311 107.449 138.936 107.066 141.454 104.845C143.031 103.456 141.82 100.9 141.82 99.0152C141.82 97.5617 142.952 94.0955 141.278 93.201C139.892 92.4503 137.231 94.4469 135.925 94.8303C133.917 95.4372 131.798 95.7407 129.79 96.156C128.993 96.3158 128.085 96.6352 127.272 96.9227L127.017 95.613Z" fill="white"/>
<path d="M157.037 204.007C156.177 203.623 155.587 202.809 155.508 201.866C155.141 197.777 156.113 193.129 156.32 189.168C156.543 185.174 155.826 181.165 155.97 177.252C153.293 177.252 149.198 181.069 148.799 176.693C148.656 175.095 149.182 173.194 149.277 171.581C149.341 170.335 148.911 168.418 149.23 167.268C149.931 164.617 154.87 164.537 157.436 163.962C161.053 163.163 164.383 162.476 168.144 162.077C171.075 161.758 176.222 159.745 177.21 163.179C178.055 166.102 177.672 167.7 177.465 170.782C177.29 173.29 177.162 173.035 174.868 173.658C173.051 174.153 171.187 174.776 169.418 175.431C167.411 176.165 167.49 176.133 167.347 178.434C167.219 180.366 167.379 185.813 167.602 187.794C168 191.404 169.131 196.292 168.175 199.774C167.506 202.234 165.961 201.786 163.65 202.537C162.057 203.048 160.495 203.575 158.934 204.118C158.312 204.326 157.643 204.294 157.053 204.039L157.037 204.007Z" fill="white"/>
<path d="M181.799 198.304C180.524 193.975 181.241 187.73 181.241 183.194C181.241 178.961 181.018 174.712 180.843 170.511C180.732 167.636 180.11 162.157 181.99 160.432C184.412 158.212 189.129 158.563 191.997 157.445C193.83 161.39 193.32 167.125 193.527 171.437C193.638 173.706 193.782 176.022 194.18 178.306C194.626 180.862 195.423 181.804 198.004 182.267C203.087 183.178 202.211 174.472 201.908 170.83C201.685 168.147 201.605 165.479 201.366 162.828C201.239 161.374 200.028 158.164 200.745 157.062C201.319 156.183 205.653 155.448 206.704 155.209C209.365 154.602 209.891 155.001 210.608 157.876C211.724 162.317 212.09 167.22 212.855 171.725C213.668 176.533 213.763 181.213 214.225 185.973C214.735 191.212 211.915 193.864 207.899 195.86C205.031 197.282 181.576 205.572 181.783 198.288L181.799 198.304Z" fill="white"/>
<path d="M172.892 56.5746C170.964 56.319 168.638 57.0858 166.725 57.4851C164.574 57.9323 162.535 57.8844 160.415 58.108C159.38 58.2198 158.201 58.4754 157.197 58.6831C156.496 58.8268 155.125 58.9067 154.488 59.1623C152.544 59.9609 152.974 62.7882 152.831 64.4494C152.464 68.6024 151.684 73.1707 150.664 77.2119C148.497 85.8054 148.29 94.6386 147.238 103.472C147.11 104.494 147.971 105.357 148.991 105.245C152.353 104.877 156.607 104.829 159.412 103.248C161.34 102.162 162.216 88.6486 163.188 86.0131C164.638 86.077 166.247 97.0186 166.247 98.1846C166.247 98.7596 165.706 101.076 165.977 101.459C166.614 102.338 171.219 100.389 172.111 100.053C173.147 99.6541 177.369 98.8235 178.437 98.2325C177.672 95.4851 177.529 90.5015 177.099 87.6423C176.334 82.4671 175.617 77.1799 175.075 71.9727C174.533 66.9092 174.183 61.5742 172.892 56.6066V56.5746ZM165.53 77.6432C164.765 77.8828 163.921 78.0904 163.124 78.1543C162.455 78.2022 161.419 77.9467 160.846 78.33L160.702 77.9786C160.113 77.0841 161.244 74.0013 161.626 72.9151C161.913 72.1005 163.076 67.7239 164.096 68.0433C164.67 68.219 165.068 69.8643 165.18 70.3594C165.403 71.3018 165.61 72.2442 165.849 73.2026C166.072 74.1131 166.295 75.0076 166.486 75.934C166.709 76.9883 166.614 77.3237 165.562 77.6591L165.53 77.6432Z" fill="white"/>
<path d="M134.363 195.876C133.248 191.18 132.562 186.228 130.985 181.708C130.204 179.456 129.551 177.22 128.388 175.127C126.746 172.14 125.982 172.284 122.827 172.619C118.062 173.131 113.298 174.36 108.693 175.335C103.148 176.501 100.837 177.459 99.722 183.337C98.8615 187.906 98.7341 192.49 98.3198 197.202C98.033 200.508 97.8099 203.767 97.4593 207.073C97.1406 210.108 96.1846 213.463 96.1527 216.434L99.1324 215.395C100.837 214.501 104.327 214.469 106.255 214.277C108.9 214.006 111.673 213.894 114.35 213.495C114.589 210.875 114.222 207.872 113.967 205.268C113.617 201.659 112.931 201.722 116.341 200.7C120.15 199.55 119.767 200.109 120.516 203.751C120.771 204.997 121.424 210.54 122.253 211.274C124.006 212.808 133.136 209.597 134.634 208.367C137.677 205.859 135.144 199.135 134.363 195.86V195.876ZM118.062 192.777C116.676 193.241 115.497 193.816 113.983 193.528C113.633 190.126 114.748 186.372 115.736 183.146C118.158 183.625 117.696 189.822 118.795 191.707L118.078 192.793L118.062 192.777Z" fill="white"/>
<path d="M88.2812 138.149C88.2334 134.923 88.5043 131.664 88.5521 128.454C88.5521 127.863 88.6955 126.665 88.4087 126.138C87.851 125.083 88.0263 125.547 86.8631 125.435C85.429 125.307 83.8674 125.563 82.4652 125.802C76.5855 126.793 70.9926 128.438 65.065 129.077C62.3722 129.364 58.8348 129.716 56.6199 131.521C54.0386 133.613 54.6122 138.341 54.6281 141.264C54.6281 144.523 54.1182 147.957 53.9908 151.215C53.8633 154.618 54.0386 157.908 53.8792 161.326C53.7039 164.825 54.2457 168.179 54.2457 171.661C54.2457 173.274 53.7517 174.856 53.6243 176.469C53.4968 178.226 54.3413 179.36 54.6441 181.037C55.2814 184.567 54.1501 187.554 59.1534 186.804C60.7309 186.564 62.4678 186.436 63.9975 185.989C65.2403 185.622 67.8535 185.158 68.8255 184.344C70.5464 182.89 69.3195 177.539 69.5585 175.095C69.8772 171.773 69.0645 168.147 69.7816 164.809C70.4986 161.47 74.769 162.141 77.5893 161.678C78.7525 161.486 80.8877 161.071 81.8597 160.464C83.4213 159.489 83.1504 157.732 83.1504 156.071C83.1504 154.394 83.2779 152.573 83.0707 150.896C82.7998 148.66 82.035 148.644 79.9317 148.74C78.1948 148.819 71.2794 150.72 70.164 149.618C69.5744 149.027 69.7178 144.922 70.0206 144.155C70.7536 142.254 72.4585 142.446 74.3388 142.223C77.3185 141.871 80.5531 141.057 83.6603 140.561C85.413 140.29 86.5284 139.906 88.0422 139.124L88.2653 138.165L88.2812 138.149Z" fill="#DD4C97"/>
<path d="M103.084 122.112C101.156 122.496 99.244 123.023 97.3159 123.486C95.2285 123.997 94.4 123.71 94.4796 126.058C94.6071 129.636 94.2087 133.038 94.0813 136.632C93.7626 145.018 93.2368 153.292 93.651 161.678C93.7785 164.218 92.456 171.421 95.3719 172.54C96.8698 173.115 99.1484 171.98 100.662 171.517C102.287 171.022 104.709 170.878 106.159 169.952C108.565 168.402 108.263 161.885 108.342 159.17C108.47 154.889 108.836 150.624 108.757 146.328C108.661 141.584 108.406 136.696 107.992 131.936C107.833 130.083 108.82 118.694 104.805 120.196L103.084 122.128V122.112Z" fill="#DD4C97"/>
<path d="M114.525 166.518C115.911 152.877 113.983 138.932 115.083 125.371C115.322 122.416 115.513 119.908 118.477 119.093C121.424 118.279 124.404 117.608 127.416 116.969C130.395 116.346 132.977 115.883 135.925 115.771C137.167 115.723 138.825 114.637 139.733 115.34C140.418 115.883 140.737 118.694 140.864 119.509C141.119 121.106 141.486 123.374 141.071 124.956C140.593 126.777 139.398 126.872 137.55 127.16C134.363 127.671 131.001 128.486 128.101 129.604C127.766 131.361 128.579 133.102 128.165 134.907C129.806 135.194 130.746 134.3 132.212 133.932C133.104 133.709 134.602 133.741 135.526 133.805C136.371 135.514 135.797 138.309 135.829 140.194C135.877 143.005 136.036 143.644 133.311 144.762C131.893 145.353 128.196 145.561 127.304 146.455C126.428 147.318 126.619 151.535 126.954 152.829C127.973 152.893 128.85 152.254 129.838 152.062C131.049 151.822 132.164 151.934 133.359 151.487C135.367 150.752 136.976 149.81 139.143 149.73C139.876 151.343 140.641 156.822 139.749 158.26C139 159.474 136.817 159.505 135.606 159.841C134.06 160.272 132.642 160.991 131.112 161.486C125.774 163.211 120.182 163.818 114.971 165.895" fill="#DD4C97"/>
<path d="M145.023 134.124C143.446 132.08 144.067 128.022 144.099 125.642C144.131 122.751 144.561 118.87 146.075 116.378C149.07 111.474 156.846 110.564 162.136 110.5C169.546 110.404 171.107 117.145 169.912 123.31C169.307 126.425 166.152 126.952 163.236 127.16C161.802 127.256 160.75 127.415 160.161 126.122C159.571 124.844 160.654 122.975 158.965 122.08C156.4 120.707 156.607 127 157.388 128.406C158.742 130.85 162.471 130.498 164.813 131.345C171.538 133.757 172.223 141.935 169.992 148.085C167.602 154.682 162.025 158.914 154.966 159.25C147.318 159.617 144.784 152.733 146.17 146.12C146.935 142.494 148.592 141.999 152.002 141.504C157.165 140.737 152.082 145.337 154.297 147.446C156.623 149.65 158.726 142.766 157.499 140.961C156.002 138.756 151.444 138.82 149.246 137.558C147.987 136.84 146.728 135.817 145.995 134.508L145.007 134.108L145.023 134.124Z" fill="#DD4C97"/>
<path d="M173.035 121.17C172.366 117.927 172.86 114.317 172.86 111.027C172.86 106.618 175.473 106.571 179.234 105.596C185.687 103.919 191.949 101.89 198.594 100.836C202.083 100.277 205.238 99.1111 208.744 98.6958C209.381 101.779 209.604 105.452 209.365 108.551C209.222 110.42 208.983 111.778 207.182 112.417C205.509 113.008 203.677 113.263 201.988 113.79C201.08 114.078 198.164 114.557 197.542 115.228C196.825 115.995 197.016 119.062 197.032 120.116C197.08 123.55 196.889 126.936 196.809 130.402C196.745 133.677 196.698 136.983 196.905 140.258C197.016 142.111 197.303 143.548 195.582 144.427C194.148 145.162 192.38 145.289 190.85 146.008C189.543 146.631 187.424 148.772 186.834 146.583C186.659 145.96 187.137 144.698 187.217 144.059C187.36 142.893 187.185 141.839 187.217 140.721C187.296 136.712 187.79 132.735 187.759 128.709C187.759 126.617 187.966 124.556 187.838 122.464C187.775 121.41 187.679 120.18 187.488 119.157C187.153 117.4 187.249 117.656 185.639 117.688C183.727 117.736 181.353 118.215 179.584 118.822C177.959 119.397 176.174 120.627 174.422 120.723C173.975 120.355 174.422 120.611 174.422 120.579L173.035 121.17Z" fill="#DD4C97"/>
<path d="M239.083 121.106C238.541 117.672 237.808 114.333 237.107 110.963C236.374 107.449 235.625 104.111 234.749 100.66C234.302 98.9194 234.063 97.0984 233.554 95.3733C232.98 93.4725 232.9 93.1371 231.02 93.0892C228.263 93.0253 225.379 94.2552 222.686 94.8782C220.774 95.3254 215.516 96.2359 214.369 97.8492C213.763 98.6958 214.257 101.188 214.273 102.178C214.289 103.568 214.385 104.973 214.337 106.363C214.241 109.542 214.241 112.688 214.305 115.899C214.369 119.732 214.225 123.566 214.209 127.415C214.209 131.265 213.923 134.092 213.652 137.894C213.652 137.894 221.874 137.319 223.101 134.332C224.407 131.153 221.539 125.371 227.052 125.547C227.148 127.495 227.132 129.396 227.435 131.377C227.753 133.357 227.514 135.354 229.841 134.651C233.315 133.613 236.932 131.648 240.692 131.281C241.011 128.166 239.593 124.221 239.099 121.058L239.083 121.106ZM224.949 114.589L223.722 114.972C222.718 113.583 222.925 105.261 224.981 105.373C226.415 105.452 226.782 109.398 227.1 110.356C227.865 112.704 227.642 113.934 224.965 114.589H224.949Z" fill="#DD4C97"/>
<path d="M99.8495 268.65C100.073 268.282 100.216 267.851 100.232 267.42C100.71 256.846 100.901 246.112 100.136 235.522C99.961 233.078 99.9132 230.57 99.7379 228.062C99.4989 224.74 99.8335 223.989 96.4236 223.638C93.7785 223.366 91.5796 223.19 88.9186 223.398C87.1658 223.526 82.7361 222.663 81.6526 224.069C81.0789 224.82 81.2702 227.423 81.063 228.445C80.7443 229.979 80.2663 231.48 79.8679 232.998C79.374 234.915 78.7844 241.384 76.7289 241.767C75.2948 239.675 75.0399 236.145 74.7212 233.605C74.5459 232.231 74.53 230.746 74.2272 229.404C73.7492 227.327 73.9245 227.295 71.7574 227.12C68.953 226.912 66.6107 227.807 64.1409 228.685C61.9579 229.468 58.4523 229.005 56.5562 230.362C53.7039 232.407 53.7199 241.16 53.2419 244.642C52.5089 249.945 51.5688 255.344 50.7561 260.615C49.9275 265.998 49.3061 272.084 47.3303 277.179C46.677 279.176 52.3655 277.643 54.6281 277.339C57.4007 276.972 60.4123 277.068 62.0057 274.608C65.0013 269.944 65.3678 263.219 67.6783 258.267C67.8535 262.181 66.8656 266.03 66.8975 269.912C66.9453 274.272 70.6898 273.346 74.291 273.09C75.7728 272.979 78.8641 272.787 79.9795 271.765C81.2702 270.583 81.302 268.426 81.7482 266.717C82.8954 262.436 83.5009 257.836 85.2537 253.715C86.7515 255.264 85.5724 259.689 85.4927 261.749C85.4131 263.81 84.696 267.26 85.3812 269.241C86.0186 271.094 85.7955 270.455 87.7873 270.535C89.2851 270.599 90.767 270.343 92.2648 270.231C94.0972 270.119 96.5033 270.279 98.3835 269.768C99.005 269.592 99.5467 269.193 99.8973 268.65H99.8495Z" fill="#DD4C97"/>
<path d="M138.203 259.465C136.865 256.654 137.614 250.984 137.534 247.805C137.422 243.987 136.928 240.25 136.642 236.4C136.371 232.79 136.45 229.18 136.339 225.618C136.291 224.133 135.94 222.072 136.275 220.619C136.769 218.366 137.869 218.319 139.781 217.552C143.127 216.226 146.632 214.213 150.09 213.495C151.126 217.041 152.544 220.491 153.739 223.909C154.982 227.407 155.651 231.241 157.42 234.499C160.049 232.343 158.934 222.408 158.87 219.005C158.838 217.184 158.392 213.175 159.22 211.594C160.24 209.629 163.714 209.118 165.514 208.719C168.558 208.032 168.59 208.559 168.988 211.945C169.323 214.836 169.291 217.648 169.53 220.475C169.992 226.145 170.088 231.688 170.342 237.327C170.47 240.234 170.566 243.061 170.645 245.952C170.741 249.083 170.135 252.341 170.311 255.328C167.666 256.654 165.036 256.973 162.248 257.884C160.925 258.315 159.698 259.242 158.551 258.363C157.866 257.836 156.99 254.881 156.655 253.875C154.647 247.917 154.106 241.128 151.556 235.522C150.265 238.061 150.998 242.502 150.871 245.377C150.743 248.396 150.441 251.463 150.281 254.418C150.058 258.507 149.724 259.609 146.091 260.599C144.099 261.142 140.88 262.804 139.032 262.229L138.219 259.465H138.203Z" fill="#DD4C97"/>
<path d="M131.32 223.638C131.017 222.472 130.842 218.622 130.156 217.696C129.137 216.322 126.874 217.472 125.344 217.791C121.408 218.59 117.441 220.108 113.457 220.954C111.258 221.417 110.35 220.283 109.506 222.839C109.012 224.324 109.219 226.529 109.012 228.142C108.454 232.519 107.928 236.863 107.291 241.256C106.669 245.521 106.271 249.961 105.889 254.274C105.538 258.108 104.184 262.772 105.028 266.557C107.115 266.557 108.629 265.647 110.573 265.04C112.31 264.481 115.035 263.586 116.453 262.516C118.03 261.318 117.186 258.571 117.17 256.59C117.138 253.875 118.524 253.188 121.456 253.188C122.333 256.702 120.835 261.27 121.95 264.449C124.691 264.401 132.658 262.628 133.487 260.12C134.698 256.462 132.849 250.856 132.929 247.006C133.088 239.611 133.279 230.873 131.336 223.638H131.32ZM122.715 243.205L122.014 243.285C118.174 244.419 116.453 245.042 117.616 240.218C118.269 237.534 118.859 232.295 120.691 230.394C121.393 234.643 122.205 238.876 122.715 243.205Z" fill="#DD4C97"/>
<path d="M175.633 255.552C174.645 252.565 175.441 248.779 175.665 245.712C175.919 242.342 176.206 238.876 176.206 235.474C176.206 228.957 176.397 222.344 176.812 215.859C176.891 214.756 176.668 212.76 176.971 211.754C177.577 209.821 178.023 210.284 179.712 209.821C182.452 209.086 185.209 208.367 188.141 207.84C190.101 207.489 194.053 206.099 196.124 206.85C198.45 207.68 197.845 212.632 197.877 215.3C197.893 217.152 198.419 218.941 197.128 220.203C196.108 221.194 193.591 221.178 192.3 221.481C188.348 222.392 186.388 223.015 187.233 228.094C190.483 228.318 193.782 226.289 197.144 226.193C197.606 228.174 197.224 230.57 197.048 232.519C196.793 235.506 196.347 235.122 193.654 235.617C192.523 235.825 189.129 235.905 188.396 236.927C187.711 237.886 188.061 241.607 188.061 242.821C190.388 242.901 192.826 241.256 194.897 240.681C196.857 240.138 199.008 240.122 200.936 239.595C201.446 242.805 201.191 247.453 200.586 250.632C199.853 254.45 196.236 253.587 193.16 254.386C187.551 255.839 181.385 255.025 175.585 255.568" fill="#DD4C97"/>
<path d="M227.228 203.783C223.69 198.224 216.615 200.349 211.819 201.675C209.11 202.425 205.557 202.633 204.474 206.099C203.82 208.176 204.442 211.706 204.426 213.974C204.362 226.289 203.613 239.068 204.681 251.335L205.382 251.271C207.421 250.504 209.286 249.211 211.309 248.588C214.114 247.725 214.719 248.029 215.022 244.482C215.389 240.074 213.588 233.844 215.022 229.803C216.631 233.701 217.651 238.493 218.416 242.757C218.591 243.7 218.655 247.821 219.324 248.316C220.201 248.971 222.973 247.182 223.961 246.926C227.291 246.048 230.781 246.335 229.427 241.575C227.387 234.483 224.296 227.982 221.013 221.577C226.319 217.728 232.135 211.514 227.228 203.799V203.783ZM218.4 212.52C217.874 215.443 216.265 216.769 214.305 218.414L213.381 218.766C213.094 215.523 211.676 208.926 215.15 208.367C218.002 207.92 218.878 209.869 218.384 212.52H218.4Z" fill="#DD4C97"/>
<path d="M254.698 192.985C250.444 193.017 246.237 195.173 242.349 196.499C240.485 197.138 238.254 197.09 236.422 197.825C234.302 198.672 234.621 199.646 234.287 202.313C233.665 207.153 233.824 211.961 233.872 216.897C233.92 222.024 233.554 227.056 233.362 232.151C233.219 236.24 232.279 241.815 233.139 245.776L233.984 247.31C235.179 248.699 241.043 245.76 242.939 245.409C244.947 245.026 246.428 245.121 247.082 243.093C247.496 241.783 247.305 239.068 247.353 237.614C247.464 234.691 245.887 229.196 247.703 226.976C251.065 222.855 251.145 230.778 251.161 233.046C251.177 235.857 249.902 242.326 251.097 244.674C252.77 243.588 254.73 243.045 256.626 242.582C258.044 242.246 261.359 242.023 262.41 240.984C263.972 239.451 261.948 232.055 261.566 229.548C260.944 225.506 260.53 221.529 260.004 217.424C258.937 209.102 256.722 201.036 254.698 192.953V192.985ZM250.141 217.919C249.631 218.766 247.4 218.766 246.62 218.878L245.791 218.957C244.819 217.935 245.616 213.399 245.743 211.817C245.887 209.981 246.094 206.227 247.225 204.981C248.787 207.409 249.328 211.163 249.711 214.086C249.838 215.108 250.571 217.232 250.157 217.919H250.141Z" fill="#DD4C97"/>
<path d="M155.412 51.6709C155.842 51.7508 155.954 51.0799 155.524 51C155.093 50.9202 154.982 51.591 155.412 51.6709Z" fill="#030404"/>
<path d="M224.838 114.27C224.423 114.397 224.009 114.525 223.611 114.653L224.009 114.781C223.77 114.429 223.69 113.934 223.627 113.519C223.531 112.864 223.483 112.193 223.483 111.522C223.467 110.085 223.563 108.583 223.961 107.193C224.152 106.523 224.758 105.053 225.523 106.107C226.367 107.273 226.399 108.919 226.734 110.26C226.941 111.059 227.307 111.921 227.084 112.752C226.829 113.726 225.698 114.046 224.838 114.27C224.423 114.381 224.662 115.02 225.077 114.908C225.985 114.669 226.989 114.317 227.499 113.471C227.945 112.72 227.833 111.81 227.626 110.995C227.419 110.18 227.228 109.446 227.068 108.647C226.893 107.768 226.686 106.874 226.272 106.075C225.985 105.516 225.491 104.941 224.806 105.037C224.28 105.101 223.929 105.532 223.69 105.964C222.957 107.305 222.862 109.062 222.798 110.564C222.766 111.506 222.798 112.449 222.909 113.375C222.989 113.966 223.085 114.669 223.435 115.164C223.531 115.292 223.69 115.324 223.834 115.292L225.061 114.908C225.475 114.781 225.236 114.142 224.822 114.27H224.838Z" fill="#030404"/>
</g>
<defs>
<clipPath id="clip0_104_14">
<rect width="219" height="233" fill="white" transform="translate(44 51)"/>
</clipPath>
</defs>
</svg>
