<svg width="327" height="179" viewBox="0 0 327 179" fill="none" xmlns="http://www.w3.org/2000/svg">
<g clip-path="url(#clip0_104_12)">
<path d="M14 69.0124L323.495 61L327 112.408L19.0106 120L14 69.0124Z" fill="#030404"/>
<path d="M71.7879 98.347L71.6542 94.6695L75.9074 94.5148C76.2485 94.5024 76.6318 94.4778 77.0575 94.4409C77.5044 94.4033 77.9391 94.3235 78.3616 94.2014C78.8047 94.0572 79.2024 93.8399 79.5547 93.5496C79.9071 93.2593 80.1809 92.8651 80.3763 92.367C80.5922 91.8468 80.6862 91.2029 80.6583 90.4354C80.6304 89.6679 80.4902 89.0433 80.2379 88.5615C80.0069 88.0789 79.7055 87.7163 79.3337 87.4736C78.9826 87.2089 78.6025 87.0306 78.1936 86.9387C77.7838 86.8255 77.3974 86.7649 77.0342 86.7567C76.6915 86.7265 76.4029 86.7156 76.1684 86.7242L71.3716 86.8986L71.2402 83.285L76.3248 83.1001C77.6253 83.0528 78.8143 83.1697 79.8919 83.4507C80.9687 83.7104 81.9021 84.1354 82.6921 84.7257C83.5026 85.294 84.1279 86.0504 84.5678 86.9951C85.0283 87.9176 85.2822 89.0291 85.3295 90.3296C85.3884 91.9499 85.0653 93.3385 84.3603 94.4956C83.6544 95.6313 82.5871 96.5134 81.1583 97.1417C79.7509 97.7693 77.9705 98.1222 75.8173 98.2005L71.7879 98.347ZM68.7779 104.509L68.0103 83.4025L72.6153 83.235L73.3828 104.341L68.7779 104.509ZM87.0096 103.845L86.242 82.7394L90.847 82.572L91.6145 103.678L87.0096 103.845ZM87.937 103.812L87.7951 99.9103L100.171 99.4603L100.313 103.362L87.937 103.812ZM100.082 103.37L106.542 82.0012L113.002 81.7663L120.964 102.611L115.976 102.792L110.097 85.5543L109.714 85.5683L105.071 103.189L100.082 103.37ZM103.931 99.1314L103.814 95.9335L117.341 95.4416L117.458 98.6395L103.931 99.1314ZM121.818 102.58L121.05 81.4736L127.126 81.2526L136.754 95.9204L137.009 95.9111L136.272 80.92L140.781 80.756L141.549 101.862L135.952 102.066L125.823 86.8076L125.567 86.8169L126.327 102.416L121.818 102.58ZM153.92 101.412L153.152 80.3061L157.789 80.1375L158.557 101.244L153.92 101.412ZM147.378 84.4227L147.236 80.5213L163.737 79.9212L163.879 83.8226L147.378 84.4227ZM165.458 100.993L164.69 79.8865L173.197 79.5772C174.199 79.5407 175.14 79.5919 176.02 79.7306C176.921 79.8473 177.739 80.0524 178.476 80.3458C179.212 80.6392 179.846 81.0325 180.376 81.5255C180.927 81.9965 181.353 82.5574 181.654 83.2082C181.955 83.859 182.122 84.6215 182.154 85.4955C182.179 86.1991 182.086 86.8536 181.873 87.459C181.681 88.0637 181.36 88.6091 180.908 89.0952C180.455 89.56 179.871 89.9548 179.157 90.2796C178.443 90.6044 177.598 90.838 176.621 90.9802L176.635 91.364C177.812 91.4279 178.738 91.6611 179.414 92.0634C180.111 92.4437 180.664 92.9679 181.073 93.6362C181.481 94.3045 181.83 95.103 182.12 96.0317L183.494 100.337L178.409 100.522L177.336 96.5579C177.136 95.7327 176.856 95.0811 176.497 94.6031C176.138 94.1252 175.677 93.7897 175.115 93.5967C174.575 93.4029 173.899 93.3207 173.089 93.3502L169.795 93.4699L170.063 100.825L165.458 100.993ZM169.667 89.9523L172.513 89.8488C172.876 89.8356 173.27 89.8106 173.695 89.7738C174.142 89.7362 174.588 89.6666 175.033 89.565C175.477 89.4421 175.875 89.2569 176.229 89.0092C176.605 88.7607 176.902 88.4297 177.122 88.0161C177.341 87.5812 177.439 87.0439 177.415 86.4043C177.391 85.7221 177.253 85.1721 177.003 84.7542C176.774 84.3356 176.475 84.0156 176.104 83.7943C175.733 83.573 175.343 83.427 174.935 83.3565C174.547 83.2638 174.183 83.2131 173.841 83.2041C173.499 83.1952 173.221 83.1946 173.008 83.2024L169.427 83.3326L169.667 89.9523ZM183.277 100.345L189.737 78.9756L196.197 78.7407L204.159 99.5851L199.171 99.7665L193.292 82.5288L192.909 82.5427L188.266 100.163L183.277 100.345ZM187.126 96.1058L187.009 92.908L200.536 92.416L200.653 95.6139L187.126 96.1058ZM205.013 99.5541L204.245 78.448L210.321 78.227L219.949 92.8948L220.204 92.8855L219.467 77.8944L223.976 77.7305L224.744 98.8365L219.147 99.04L209.018 83.7821L208.762 83.7914L209.522 99.3901L205.013 99.5541ZM246.255 102.889C244.773 103.242 243.511 103.47 242.469 103.571C241.427 103.695 240.489 103.729 239.655 103.674C238.842 103.639 238.038 103.551 237.243 103.409C236.471 103.288 235.623 103.159 234.7 103.021C233.778 102.906 232.697 102.827 231.457 102.787C230.218 102.768 228.716 102.833 226.949 102.983L226.811 99.1776C227.451 99.1757 228.187 99.1489 229.017 99.0974C229.849 99.0671 230.721 98.9927 231.635 98.8741C232.549 98.7768 233.452 98.6479 234.343 98.4874C235.233 98.3269 236.059 98.1368 236.82 97.917C237.601 97.6751 238.252 97.3953 238.774 97.0774L238.762 96.7257C237.117 97.2765 235.632 97.5546 234.309 97.56C233.007 97.5647 231.846 97.3401 230.826 96.8862C229.828 96.4315 228.993 95.7894 228.323 94.9599C227.651 94.1091 227.124 93.1142 226.741 91.9754C226.379 90.8358 226.173 89.5731 226.123 88.1873C226.065 86.5884 226.225 85.1203 226.603 83.783C226.981 82.4244 227.567 81.2396 228.363 80.2287C229.159 79.2177 230.165 78.4233 231.383 77.8454C232.599 77.2461 234.028 76.9166 235.669 76.8569C237.716 76.7825 239.48 77.1559 240.962 77.9773C242.464 78.7979 243.629 80.0044 244.456 81.5967C245.282 83.1891 245.737 85.1365 245.821 87.439C245.892 89.4003 245.675 91.0733 245.171 92.4579C244.687 93.8204 243.97 94.9565 243.021 95.8663C242.072 96.776 240.925 97.5116 239.579 98.0728C238.254 98.612 236.775 99.0394 235.143 99.3549L235.188 99.7055C236.344 99.8129 237.393 99.8922 238.334 99.9433C239.276 100.016 240.163 100.037 240.994 100.007C241.847 99.9757 242.677 99.8921 243.483 99.7561C244.31 99.6192 245.188 99.3952 246.116 99.0839L246.255 102.889ZM236.338 95.2448C236.999 95.2207 237.624 95.0913 238.213 94.8564C238.802 94.6001 239.331 94.1966 239.802 93.6458C240.273 93.095 240.631 92.3562 240.874 91.4294C241.118 90.4812 241.213 89.293 241.161 87.8646C241.122 86.7986 241.003 85.8637 240.803 85.0598C240.602 84.2345 240.331 83.5399 239.991 82.9759C239.65 82.4119 239.26 81.9565 238.82 81.6095C238.38 81.2413 237.89 80.9816 237.351 80.8304C236.833 80.6785 236.276 80.6134 235.679 80.6351C234.783 80.6676 233.95 80.9328 233.178 81.4305C232.427 81.9061 231.836 82.6854 231.406 83.7684C230.976 84.8514 230.794 86.3097 230.86 88.1431C230.912 89.5502 231.093 90.7177 231.404 91.6457C231.715 92.5737 232.126 93.3059 232.637 93.8424C233.147 94.3788 233.716 94.7531 234.343 94.9651C234.991 95.1763 235.656 95.2696 236.338 95.2448ZM257.069 98.1092C255.833 98.1542 254.709 98.0563 253.697 97.8156C252.707 97.5954 251.84 97.2534 251.098 96.7894C250.354 96.3041 249.724 95.7186 249.208 95.0329C248.692 94.3259 248.3 93.5289 248.033 92.642C247.766 91.7551 247.613 90.7787 247.574 89.7128L247.108 76.8892L251.713 76.7218L252.172 89.3534C252.212 90.462 252.416 91.3725 252.784 92.085C253.172 92.7753 253.713 93.2787 254.408 93.595C255.102 93.9113 255.94 94.0516 256.921 94.0159C257.923 93.9795 258.758 93.7783 259.428 93.4124C260.098 93.0465 260.591 92.5055 260.906 91.7896C261.221 91.0523 261.358 90.1294 261.318 89.0208L260.859 76.3892L265.464 76.2217L265.93 89.0452C265.981 90.4523 265.835 91.7064 265.49 92.8077C265.145 93.8876 264.592 94.815 263.83 95.5898C263.09 96.3639 262.151 96.9638 261.014 97.3894C259.898 97.8142 258.583 98.0542 257.069 98.1092ZM268.546 97.2436L267.778 76.1375L272.447 75.9677L273.215 97.0738L268.546 97.2436Z" fill="white"/>
</g>
<path d="M108.012 55.7117L107.639 52.5526C107.816 52.5799 107.992 52.5991 108.169 52.6103C108.345 52.6216 108.473 52.6261 108.553 52.624C109.177 52.6071 109.654 52.4982 109.985 52.2972C110.331 52.0797 110.563 51.7614 110.679 51.3421C110.812 50.9063 110.869 50.3526 110.851 49.6808L110.579 39.6285L114.034 39.5352L114.306 49.6115C114.341 50.907 114.187 52.0076 113.843 52.9132C113.499 53.8188 112.942 54.5141 112.171 54.9991C111.415 55.4677 110.422 55.7186 109.19 55.7519C109.014 55.7567 108.838 55.7534 108.662 55.7422C108.485 55.7309 108.269 55.7208 108.012 55.7117ZM123.047 55.4735C122.12 55.4986 121.277 55.4173 120.52 55.2297C119.779 55.0577 119.132 54.7951 118.578 54.4419C118.024 54.0727 117.556 53.6292 117.173 53.1113C116.791 52.5775 116.503 51.977 116.308 51.31C116.114 50.643 116.006 49.9097 115.985 49.11L115.725 39.4895L119.18 39.3961L119.436 48.8727C119.458 49.7044 119.605 50.3887 119.875 50.9256C120.162 51.446 120.564 51.8273 121.083 52.0694C121.601 52.3114 122.229 52.4225 122.964 52.4027C123.716 52.3824 124.344 52.2373 124.849 51.9676C125.354 51.6979 125.727 51.2956 125.969 50.7609C126.21 50.2102 126.32 49.519 126.297 48.6873L126.041 39.2107L129.496 39.1174L129.756 48.7379C129.784 49.7935 129.666 50.7331 129.4 51.5565C129.134 52.364 128.712 53.0557 128.135 53.6314C127.575 54.2068 126.866 54.6501 126.011 54.9613C125.171 55.2721 124.183 55.4429 123.047 55.4735ZM137.884 55.0727C136.572 55.1081 135.396 54.8278 134.356 54.2317C133.331 53.6351 132.515 52.7448 131.907 51.5608C131.298 50.3608 130.97 48.8892 130.923 47.1458C130.888 45.8663 131.017 44.7104 131.31 43.6781C131.618 42.6454 132.09 41.7523 132.726 40.9989C133.362 40.2454 134.154 39.6558 135.103 39.23C136.052 38.8042 137.166 38.5741 138.445 38.5395C139.437 38.5127 140.328 38.6167 141.119 38.8514C141.909 39.0701 142.582 39.3961 143.138 39.8292C143.71 40.2619 144.148 40.7943 144.453 41.4263C144.774 42.0418 144.945 42.7335 144.966 43.5012L141.724 44.3811C141.694 43.8537 141.586 43.4004 141.399 43.0213C141.229 42.6418 140.989 42.3282 140.678 42.0805C140.383 41.8323 140.034 41.6577 139.631 41.5566C139.244 41.439 138.826 41.3862 138.379 41.3983C137.835 41.413 137.326 41.5228 136.851 41.7277C136.376 41.9326 135.961 42.2559 135.605 42.6977C135.248 43.1235 134.975 43.6831 134.786 44.3765C134.596 45.0698 134.515 45.9123 134.542 46.904C134.569 47.8956 134.695 48.7405 134.922 49.4386C135.165 50.1363 135.477 50.6961 135.856 51.118C136.251 51.5235 136.699 51.8155 137.2 51.994C137.717 52.1721 138.264 52.2534 138.839 52.2378C139.543 52.2188 140.14 52.0827 140.629 51.8294C141.134 51.5756 141.525 51.2129 141.8 50.7413C142.075 50.2537 142.219 49.6656 142.233 48.977L139.354 49.0548L139.286 46.5597L145.476 46.3925L145.554 49.2714L145.696 54.5255L143.273 54.591L143.208 50.4392L142.849 50.4489C142.683 51.4297 142.393 52.2619 141.98 52.9453C141.582 53.6123 141.043 54.131 140.365 54.5015C139.702 54.8555 138.875 55.0459 137.884 55.0727ZM146.153 54.5131L151.148 38.5324L155.994 38.4015L161.82 54.0898L158.077 54.191L153.789 41.222L153.501 41.2298L149.896 54.412L146.153 54.5131ZM149.069 51.3612L149.005 48.9621L159.153 48.6879L159.218 51.087L149.069 51.3612ZM162.46 54.0725L162.032 38.2383L168.414 38.0659C169.166 38.0456 169.871 38.0905 170.53 38.2008C171.205 38.2946 171.818 38.4541 172.368 38.6793C172.918 38.9045 173.39 39.2039 173.785 39.5774C174.194 39.9345 174.51 40.3581 174.731 40.8483C174.953 41.3385 175.072 41.9115 175.09 42.5672C175.104 43.095 175.029 43.5852 174.865 44.0378C174.718 44.49 174.473 44.8968 174.13 45.2581C173.787 45.6035 173.347 45.8955 172.809 46.1341C172.272 46.3727 171.636 46.542 170.902 46.6418L170.91 46.9297C171.792 46.9859 172.485 47.1673 172.99 47.4737C173.51 47.7638 173.921 48.1609 174.222 48.6649C174.524 49.1689 174.78 49.7702 174.991 50.4688L175.991 53.707L172.176 53.81L171.4 50.8299C171.255 50.2096 171.05 49.719 170.784 49.358C170.518 48.9971 170.175 48.7422 169.755 48.5935C169.351 48.4444 168.845 48.378 168.237 48.3944L165.766 48.4612L165.915 53.9792L162.46 54.0725ZM165.694 45.8222L167.83 45.7645C168.101 45.7571 168.397 45.7411 168.717 45.7165C169.052 45.6914 169.387 45.6424 169.721 45.5693C170.055 45.4803 170.355 45.3441 170.622 45.1608C170.905 44.9771 171.131 44.7309 171.299 44.4223C171.466 44.0977 171.543 43.6954 171.53 43.2156C171.516 42.7038 171.417 42.2903 171.232 41.9752C171.064 41.6596 170.841 41.4176 170.565 41.249C170.288 41.0804 169.997 40.9682 169.691 40.9124C169.401 40.8402 169.128 40.7996 168.872 40.7905C168.615 40.7814 168.407 40.7791 168.247 40.7834L165.56 40.856L165.694 45.8222ZM175.829 53.7113L180.823 37.7306L185.669 37.5997L191.495 53.2881L187.752 53.3892L183.464 40.4203L183.176 40.428L179.571 53.6102L175.829 53.7113ZM178.744 50.5594L178.68 48.1603L188.828 47.8861L188.893 50.2852L178.744 50.5594ZM184.405 36.1213L181.598 36.1971L183.153 32.4578L186.752 32.3605L184.405 36.1213ZM197.887 53.4515C196.831 53.48 195.884 53.3935 195.046 53.1921C194.225 53.0062 193.521 52.7051 192.933 52.2888C192.346 51.8726 191.892 51.3566 191.571 50.7411C191.25 50.1095 191.07 49.3781 191.032 48.5468L194.103 47.5995C194.139 48.3348 194.323 48.9381 194.656 49.4093C194.989 49.8804 195.446 50.2202 196.028 50.4286C196.61 50.6369 197.261 50.7314 197.981 50.712C198.652 50.6938 199.218 50.5985 199.677 50.426C200.137 50.2535 200.483 50.0201 200.715 49.7257C200.963 49.4309 201.082 49.1076 201.073 48.7557C201.062 48.3399 200.893 48.0083 200.566 47.7611C200.239 47.4978 199.801 47.2855 199.252 47.1243C198.704 46.9631 198.083 46.8118 197.391 46.6704C196.634 46.4988 195.885 46.3109 195.143 46.1069C194.417 45.9024 193.746 45.6405 193.129 45.321C192.528 44.9851 192.044 44.542 191.677 43.9918C191.31 43.4415 191.115 42.7425 191.092 41.8948C191.066 40.9191 191.291 40.0728 191.768 39.3556C192.244 38.6225 192.941 38.0515 193.858 37.6425C194.775 37.2176 195.873 36.9879 197.153 36.9533C198.448 36.9183 199.573 37.088 200.528 37.4623C201.498 37.8362 202.257 38.3919 202.805 39.1294C203.353 39.8509 203.633 40.7316 203.645 41.7717L200.522 42.6003C200.525 42.1041 200.441 41.6742 200.271 41.3106C200.117 40.9307 199.893 40.6166 199.598 40.3685C199.319 40.1199 198.97 39.9373 198.551 39.8206C198.147 39.7034 197.69 39.6518 197.178 39.6656C196.57 39.682 196.053 39.776 195.625 39.9476C195.213 40.1028 194.899 40.3194 194.682 40.5973C194.466 40.8753 194.362 41.1902 194.372 41.5421C194.383 41.9739 194.561 42.3213 194.904 42.5841C195.247 42.8309 195.7 43.0347 196.265 43.1955C196.845 43.3559 197.49 43.5146 198.198 43.6715C198.891 43.8129 199.591 43.986 200.301 44.1909C201.027 44.3794 201.69 44.6416 202.291 44.9774C202.909 45.3129 203.409 45.7715 203.793 46.3534C204.176 46.9192 204.38 47.642 204.404 48.5217C204.431 49.5133 204.19 50.3681 203.681 51.0861C203.188 51.8037 202.451 52.3678 201.47 52.7785C200.488 53.1891 199.294 53.4135 197.887 53.4515ZM209.744 52.795L209.316 36.9608L212.771 36.8674L213.199 52.7016L209.744 52.795ZM212.167 52.7295L212.09 49.8746L221.495 49.6205L221.572 52.4754L212.167 52.7295ZM211.986 46.012L211.917 43.4449L220.17 43.2219L220.239 45.789L211.986 46.012ZM211.816 39.7263L211.74 36.8953L221.12 36.6418L221.197 39.4728L211.816 39.7263ZM222.719 52.4444L222.291 36.6102L226.85 36.487L233.967 47.5548L234.159 47.5497L233.711 36.3017L237.094 36.2103L237.522 52.0445L233.323 52.1579L225.834 40.644L225.642 40.6492L226.102 52.353L222.719 52.4444Z" fill="#030404"/>
<path d="M300.48 162.854C301.45 163.104 302.48 163.174 303.48 163.314C304.67 163.484 305.86 163.844 307.02 164.154C309.23 164.734 311.44 165.374 313.59 166.114C315 166.594 316.44 167.074 317.77 167.744C317.97 167.844 318.43 167.984 318.56 168.164C318.74 168.404 318.59 168.484 318.35 168.684C317.9 169.044 317.3 169.194 316.73 169.314C315.71 169.534 314.63 169.644 313.6 169.824C312.89 169.944 311.95 170.044 311.47 170.644C312.82 171.644 313.97 172.914 315.24 174.004C316.34 174.954 317.4 175.994 318.41 177.054C318.61 177.264 319.48 178.034 319.29 178.394C319.05 178.844 317.97 178.244 317.73 178.114C316.03 177.164 314.21 176.574 312.4 175.874C310.62 175.184 308.88 174.394 307.12 173.644C305.7 173.044 304.2 172.454 302.87 171.654C302.39 171.364 301.91 171.144 301.45 170.834C301.17 170.644 300.57 170.404 300.38 170.124C299.65 169.114 302.72 169.314 302.7 168.464C302.69 167.884 301.84 167.224 301.51 166.794C301.07 166.224 300.65 165.594 300.26 164.984C300.04 164.644 299.84 164.364 299.57 164.064C299.45 163.934 299.01 163.544 299 163.364C298.98 162.794 299.78 162.554 300.24 162.694" fill="#DD4C97"/>
<path d="M303.03 163.544C307.08 164.674 311.22 165.524 315.24 166.734C315.73 166.884 316.58 167.074 316.89 167.524C317.23 168.024 316.48 168.184 316.1 168.304C314.92 168.664 313.37 168.654 312.34 169.394C312.07 169.584 311.93 170.024 312.23 170.284C314.48 172.204 317.11 173.964 318.74 176.494C318.9 176.214 319.07 175.924 319.23 175.644C315.15 176.064 311.53 173.374 307.85 172.084C306.67 171.674 304.35 171.414 303.82 170.104C303.54 169.414 304.24 169.354 304.78 169.224C305.45 169.064 306.11 168.924 306.71 168.594C307 168.434 307.11 167.934 306.82 167.704C305.22 166.424 302.92 164.634 302.58 162.484L302.18 163.184C302.35 163.164 302.52 163.154 302.69 163.134C303.41 163.054 303.41 161.924 302.69 162.004C302.42 162.034 302.15 162.044 301.88 162.094C301.56 162.154 301.44 162.514 301.48 162.794C301.85 165.154 304.27 167.114 306.01 168.514L306.12 167.624C305.07 168.194 302.83 168.004 302.6 169.534C302.31 171.454 304.69 172.284 306.09 172.734C308.21 173.414 310.19 174.354 312.25 175.224C314.43 176.154 316.81 177.034 319.22 176.784C319.62 176.744 319.96 176.324 319.71 175.934C318.02 173.314 315.37 171.494 313.03 169.494C312.99 169.794 312.95 170.084 312.92 170.384C313.52 169.954 314.4 169.884 315.1 169.734C315.83 169.574 316.63 169.434 317.3 169.064C318.65 168.314 318.16 166.854 316.99 166.224C315.51 165.414 313.59 165.134 311.98 164.704C309.11 163.934 306.2 163.274 303.34 162.464C302.64 162.264 302.34 163.364 303.04 163.554L303.03 163.544Z" fill="#030404"/>
<path d="M86.0999 152.818C85.4399 153.068 83.6899 153.288 83.8199 152.548C83.8499 152.368 84.0298 152.258 84.1698 152.138C84.3098 152.018 84.4199 151.798 84.2899 151.658C84.2099 151.578 84.0798 151.578 83.9598 151.598C83.4798 151.668 83.0098 151.868 82.5298 151.768C82.4898 151.768 82.4498 151.748 82.4298 151.718C82.3998 151.678 82.4098 151.628 82.4298 151.578C82.5498 151.198 82.9998 150.958 83.0798 150.598C83.0498 150.568 83.0198 150.548 82.9998 150.518C82.4898 150.808 81.9299 151.018 81.3499 151.138C81.2899 150.578 81.5999 150.058 81.9799 149.638C81.9999 149.618 82.0199 149.598 82.0399 149.578C81.6199 149.128 81.2598 148.668 80.9998 148.228C77.9498 150.868 74.2598 152.758 70.3298 153.668C70.5298 154.008 70.7298 154.348 70.9398 154.688C71.6898 154.688 72.5498 154.868 72.3598 155.378C72.2998 155.548 72.0998 155.628 71.9498 155.718C71.8298 155.788 71.7499 155.928 71.7599 156.058C71.7999 156.118 71.8298 156.178 71.8698 156.238C71.9298 156.268 72.0098 156.278 72.0798 156.288C72.5598 156.288 73.0598 156.178 73.5198 156.348C73.5598 156.358 73.5898 156.378 73.6098 156.408C73.6298 156.448 73.6098 156.508 73.5898 156.548C73.3798 156.948 72.7799 157.098 72.7299 157.538C73.3199 157.308 73.9498 157.178 74.5798 157.158C74.5498 157.718 74.1498 158.188 73.7198 158.538C73.6098 158.628 73.4899 158.708 73.3799 158.798C73.4399 158.908 73.5099 159.018 73.5699 159.128C78.3799 158.268 82.8998 156.208 86.6998 153.138C86.5098 153.038 86.3099 152.928 86.0999 152.808V152.818Z" fill="#DD4C97"/>
<path d="M86.1598 153.728L86.5898 153.308C86.7198 153.178 86.7498 152.938 86.5698 152.828C85.9298 152.428 84.5198 152.518 84.5098 151.668C84.5098 151.498 84.4098 151.368 84.2298 151.348C83.4698 151.258 82.8598 151.878 83.5298 150.838C83.6698 150.628 83.4998 150.318 83.2298 150.368C81.1198 150.808 82.3298 150.698 82.3298 149.548C82.3298 149.028 81.5298 148.418 81.2498 148.108C81.1498 147.988 80.9498 147.958 80.8298 148.068C77.8398 150.938 74.1298 152.218 70.2498 153.418C70.1098 153.458 69.9598 153.598 70.0098 153.768C70.0998 154.088 70.1898 154.408 70.2698 154.738C70.3098 154.868 70.3998 154.968 70.5398 154.978C72.2998 155.128 70.9398 155.478 71.4398 156.168C71.5698 156.338 71.7098 156.508 71.8798 156.648C72.4298 157.078 73.5398 156.518 72.5698 157.058C72.3298 157.188 72.3498 157.628 72.6798 157.628C73.8698 157.618 73.9498 157.438 73.0298 158.188C72.9198 158.278 72.9098 158.418 72.9498 158.548C73.0398 158.788 73.1298 159.038 73.2198 159.278C73.2698 159.398 73.4198 159.468 73.5498 159.448C78.1398 158.648 82.9798 156.328 86.6898 153.508C86.9998 153.278 86.6098 152.818 86.2998 153.048C84.2598 154.598 82.0698 155.878 79.6698 156.788C78.7098 157.148 77.7198 157.438 76.7498 157.788C76.2198 157.978 72.9098 159.108 74.7398 157.548C74.9298 157.388 74.8398 157.018 74.5698 157.018C73.3398 157.028 73.4898 157.518 73.8098 156.688C73.8798 156.498 73.7398 156.308 73.5498 156.288C72.9398 156.218 71.7798 156.158 72.5098 155.528C72.6198 155.438 72.6398 155.298 72.5898 155.168C72.3798 154.658 72.1598 154.918 71.8898 154.558C71.4898 154.038 70.7798 154.378 71.8098 153.558C72.2798 153.178 73.2398 153.088 73.7998 152.888C75.5498 152.258 77.2598 151.518 78.8098 150.498C79.8598 149.808 82.7598 147.818 80.9498 150.918C80.8198 151.128 80.9798 151.438 81.2498 151.388C82.2198 151.188 82.9098 150.678 82.3098 151.628C82.1598 151.858 82.3498 152.128 82.6098 152.098C83.3098 151.758 83.6098 151.978 83.4798 152.738C83.4098 152.868 83.5198 153.088 83.6598 153.118C83.9798 153.198 85.5898 153.438 85.7798 153.258C85.4998 153.528 85.8898 153.988 86.1698 153.718L86.1598 153.728Z" fill="#030404"/>
<path d="M64.6826 28.8905C63.8757 29.1961 61.7363 29.4651 61.8952 28.5604C61.9319 28.3403 62.1519 28.2059 62.3231 28.0592C62.4942 27.9124 62.6287 27.6435 62.4698 27.4723C62.372 27.3745 62.2131 27.3745 62.0664 27.399C61.4795 27.4846 60.905 27.7291 60.3181 27.6068C60.2692 27.6068 60.2203 27.5823 60.1959 27.5457C60.1592 27.4968 60.1714 27.4357 60.1959 27.3745C60.3426 26.91 60.8927 26.6166 60.9905 26.1764C60.9538 26.1398 60.9172 26.1153 60.8927 26.0787C60.2692 26.4332 59.5846 26.6899 58.8756 26.8366C58.8022 26.152 59.1812 25.5163 59.6458 25.0028C59.6702 24.9784 59.6947 24.9539 59.7191 24.9295C59.2056 24.3793 58.7655 23.817 58.4477 23.279C54.7189 26.5065 50.2078 28.8171 45.4032 29.9296C45.6477 30.3453 45.8922 30.7609 46.149 31.1766C47.0659 31.1766 48.1172 31.3967 47.8849 32.0202C47.8116 32.228 47.5671 32.3258 47.3837 32.4358C47.237 32.5214 47.1392 32.6925 47.1515 32.8515C47.2004 32.9248 47.237 32.9982 47.2859 33.0716C47.3593 33.1082 47.4571 33.1204 47.5426 33.1327C48.1295 33.1327 48.7407 32.9982 49.3031 33.206C49.352 33.2182 49.3887 33.2427 49.4131 33.2794C49.4376 33.3283 49.4131 33.4016 49.3887 33.4505C49.1319 33.9395 48.3984 34.1229 48.3373 34.6608C49.0586 34.3797 49.8288 34.2207 50.599 34.1963C50.5623 34.8809 50.0733 35.4555 49.5476 35.8834C49.4131 35.9934 49.2664 36.0912 49.132 36.2012C49.2053 36.3357 49.2909 36.4702 49.3642 36.6047C55.2446 35.5533 60.7705 33.0349 65.4161 29.2817C65.1838 29.1594 64.9393 29.0249 64.6826 28.8782V28.8905Z" fill="#DD4C97"/>
<path d="M64.7559 30.003L65.2816 29.4895C65.4406 29.3305 65.4772 29.0372 65.2572 28.9027C64.4748 28.4137 62.751 28.5237 62.7388 27.4845C62.7388 27.2767 62.6165 27.1178 62.3965 27.0933C61.4673 26.9833 60.7216 27.7412 61.5407 26.4698C61.7118 26.2131 61.504 25.8341 61.1739 25.8952C58.5944 26.4331 60.0736 26.2987 60.0736 24.8928C60.0736 24.2571 59.0956 23.5113 58.7533 23.1323C58.631 22.9856 58.3865 22.9489 58.2398 23.0834C54.5844 26.5921 50.0489 28.1569 45.3054 29.624C45.1343 29.6729 44.9509 29.844 45.012 30.0519C45.122 30.4431 45.2321 30.8343 45.3299 31.2377C45.3788 31.3967 45.4888 31.5189 45.66 31.5311C47.8116 31.7145 46.149 32.1424 46.7602 32.9859C46.9192 33.1938 47.0903 33.4016 47.2982 33.5728C47.9705 34.0985 49.3276 33.4138 48.1417 34.074C47.8483 34.2329 47.8727 34.7708 48.2762 34.7708C49.731 34.7586 49.8288 34.5385 48.7041 35.4555C48.5696 35.5655 48.5573 35.7367 48.6062 35.8956C48.7163 36.189 48.8263 36.4946 48.9363 36.788C48.9975 36.9347 49.1808 37.0203 49.3398 36.9959C54.9512 36.0178 60.8683 33.1815 65.4039 29.734C65.7829 29.4528 65.3061 28.8905 64.9271 29.1716C62.4331 31.0666 59.7558 32.6314 56.8217 33.7439C55.648 34.184 54.4378 34.5386 53.2519 34.9664C52.6039 35.1987 48.5573 36.5802 50.7946 34.673C51.0269 34.4774 50.9169 34.0251 50.5868 34.0251C49.0831 34.0373 49.2664 34.6364 49.6576 33.6216C49.7432 33.3894 49.572 33.1571 49.3398 33.1326C48.594 33.0471 47.1759 32.9737 48.0684 32.2035C48.2028 32.0935 48.2273 31.9223 48.1661 31.7634C47.9094 31.1399 47.6404 31.4578 47.3104 31.0176C46.8213 30.3819 45.9534 30.7976 47.2126 29.7951C47.7872 29.3305 48.9608 29.2205 49.6454 28.976C51.7848 28.2058 53.8754 27.3011 55.7703 26.0542C57.054 25.2106 60.5993 22.7778 58.3865 26.5676C58.2276 26.8244 58.4232 27.2034 58.7533 27.1422C59.9392 26.8977 60.7827 26.2742 60.0492 27.4356C59.8658 27.7168 60.0981 28.0469 60.4159 28.0102C61.2717 27.5946 61.6385 27.8635 61.4796 28.7927C61.394 28.9516 61.5285 29.2205 61.6996 29.2572C62.0908 29.355 64.0591 29.6484 64.2914 29.4284C63.9491 29.7584 64.4258 30.3208 64.7682 29.9907L64.7559 30.003Z" fill="#030404"/>
<path d="M281.354 45.53C281.574 44.85 281.754 44.16 281.964 43.49C282.744 41.05 283.844 38.75 284.874 36.41C285.234 35.59 285.684 34.91 286.264 34.24C286.594 33.86 286.874 33.47 287.154 33.04C287.404 32.65 287.654 32.35 287.934 32C288.094 32.12 288.124 32.39 288.194 32.57C288.374 33.05 288.394 33.54 288.464 34.04C288.554 34.66 288.694 35.27 288.814 35.89C288.884 36.26 288.994 36.63 289.144 36.98C289.214 37.13 289.324 37.57 289.444 37.67C289.674 37.87 290.324 37.46 290.554 37.3C291.094 36.94 291.624 36.53 292.144 36.15C292.654 35.77 293.204 35.45 293.704 35.05C294.174 34.68 294.594 34.43 295.154 34.21C295.484 34.08 296.044 33.76 296.024 34.29C295.984 35.14 295.394 36.16 294.904 36.85C294.164 37.88 293.374 38.89 292.514 39.82C291.714 40.69 290.974 41.58 290.114 42.4C289.794 42.71 289.574 43.03 289.334 43.4C288.984 43.92 288.474 44.32 288.044 44.77C287.674 45.15 287.304 45.47 286.874 45.79C286.664 45.94 286.544 46.12 286.294 46.17C286.014 46.23 286.034 46.17 286.004 45.9C285.884 44.9 285.934 43.91 286.094 42.92C285.824 43.16 285.554 43.44 285.294 43.69C284.904 44.06 284.484 44.37 284.074 44.73C283.484 45.24 282.874 45.74 282.234 46.19C281.834 46.47 281.214 45.89 281.334 45.53H281.354Z" fill="#DD4C97"/>
<path d="M281.384 45.71C282.624 42.25 283.744 38.72 285.274 35.37C285.604 34.64 285.984 33.93 286.444 33.28C286.734 32.86 287.024 32.2 287.574 32.75C287.854 33.03 287.924 33.55 288.014 33.92C288.194 34.68 288.384 35.44 288.554 36.2C288.624 36.49 288.644 36.96 288.934 37.14C289.224 37.32 289.654 37.11 289.934 36.99C290.594 36.69 291.174 36.24 291.744 35.79C292.314 35.34 292.874 34.88 293.424 34.42C293.684 34.21 294.974 33.17 294.714 34.18C294.584 34.7 294.224 35.21 293.964 35.67C293.514 36.47 292.994 37.23 292.464 37.98C291.534 39.31 290.654 40.7 289.634 41.97C289.094 42.64 288.504 43.27 287.804 43.77C287.644 43.88 287.184 44.26 286.944 44.18C286.734 44.12 286.724 43.85 286.714 43.66C286.654 42.77 287.004 41.85 286.774 40.97C286.744 40.85 286.634 40.81 286.524 40.83C285.574 40.98 284.754 42.08 284.164 42.74C283.304 43.69 282.424 45.07 281.144 45.45C280.894 45.53 280.994 45.92 281.254 45.85C282.474 45.48 283.254 44.36 284.074 43.46C284.464 43.03 284.854 42.58 285.274 42.17C285.644 41.8 286.104 41.3 286.644 41.22L286.394 41.08C286.634 42 286.184 42.98 286.344 43.91C286.534 44.97 287.514 44.5 288.114 44.06C289.474 43.09 290.424 41.68 291.354 40.32C292.454 38.7 293.634 37.14 294.594 35.43C294.854 34.97 295.774 33.34 294.634 33.28C294.114 33.25 293.614 33.75 293.244 34.05C292.594 34.58 291.954 35.12 291.284 35.64C290.884 35.95 290.474 36.25 290.024 36.49C289.844 36.58 289.584 36.77 289.374 36.77C289.084 36.77 289.094 36.63 289.034 36.4C288.824 35.54 288.624 34.67 288.424 33.8C288.284 33.21 288.104 32.41 287.524 32.09C287.044 31.82 286.724 32.21 286.454 32.58C285.144 34.35 284.364 36.42 283.574 38.47C282.664 40.82 281.854 43.21 281.014 45.59C280.924 45.84 281.324 45.95 281.414 45.7L281.384 45.71Z" fill="#030404"/>
<path d="M203.44 130.708C202.67 129.438 201.71 126.988 200.37 126.368C200.15 127.728 200.93 130.458 200.11 131.648C199.38 132.708 196.62 132.938 195.37 133.428C196.51 133.778 198.83 134.138 199.32 135.228C199.69 136.048 198.89 138.608 198.8 139.568C199.49 139.018 201.02 136.788 201.81 136.838C202.82 136.898 203.85 139.518 204.77 139.938C204.77 138.698 204.43 137.368 204.56 136.108C206.53 135.968 208.27 135.728 210.19 135.288C209.49 134.368 207.93 133.498 207.03 132.728C207.89 132.158 208.25 131.088 208.78 130.218C208.09 130.408 206.3 131.308 205.72 130.948C205.03 130.508 205.25 128.838 204.8 128.248C204.07 129.078 203.24 130.118 202.8 131.098" fill="#030404"/>
<path d="M203.77 130.518C202.88 129.028 202.21 126.888 200.57 126.048C200.29 125.908 200.04 126.088 200 126.378C199.88 127.238 200.03 128.118 200.09 128.978C200.14 129.738 200.29 130.848 199.77 131.488C199.3 132.078 198.34 132.268 197.65 132.438C196.86 132.648 196.04 132.778 195.27 133.068C194.93 133.198 194.89 133.688 195.27 133.798C196.27 134.098 198.79 134.328 199.02 135.598C199.14 136.268 198.9 137.048 198.77 137.698C198.64 138.348 198.49 138.928 198.42 139.558C198.38 139.918 198.85 140.018 199.07 139.828C199.57 139.408 199.98 138.858 200.42 138.368C200.74 138.008 201.39 137.088 201.94 137.248C202.53 137.418 203.03 138.478 203.36 138.948C203.7 139.428 204.05 139.968 204.59 140.248C204.84 140.378 205.17 140.218 205.16 139.918C205.13 138.638 204.85 137.378 204.95 136.088L204.57 136.468C206.5 136.328 208.41 136.068 210.3 135.638C210.6 135.568 210.64 135.208 210.47 134.998C209.61 133.938 208.35 133.298 207.31 132.438L207.23 133.038C208.15 132.358 208.55 131.348 209.12 130.398C209.29 130.118 209.01 129.748 208.69 129.838C208.27 129.958 207.87 130.138 207.46 130.288C207.1 130.418 206.35 130.778 205.97 130.608C205.58 130.438 205.56 129.638 205.51 129.278C205.44 128.848 205.38 128.408 205.14 128.038C205.02 127.848 204.71 127.768 204.54 127.958C203.76 128.858 202.99 129.798 202.48 130.888C202.27 131.328 202.93 131.718 203.14 131.268C203.63 130.238 204.34 129.348 205.08 128.498L204.48 128.418C205.01 129.258 204.55 130.858 205.67 131.318C206.64 131.718 207.98 130.838 208.89 130.568C208.75 130.378 208.6 130.198 208.46 130.008C207.98 130.818 207.63 131.798 206.85 132.378C206.67 132.508 206.57 132.808 206.77 132.978C207.81 133.838 209.07 134.478 209.93 135.538L210.1 134.898C208.28 135.308 206.44 135.568 204.57 135.708C204.35 135.728 204.21 135.868 204.19 136.088C204.1 137.368 204.37 138.638 204.4 139.918C204.59 139.808 204.78 139.698 204.97 139.588C204.22 139.198 203.79 138.188 203.3 137.538C202.95 137.078 202.46 136.448 201.82 136.438C201.2 136.418 200.64 137.028 200.25 137.428C199.67 138.028 199.18 138.738 198.54 139.278L199.19 139.548C199.29 138.708 199.54 137.888 199.68 137.058C199.78 136.428 199.94 135.668 199.68 135.058C199.07 133.628 196.77 133.428 195.49 133.038V133.768C196.99 133.218 199.35 133.268 200.4 131.888C201.54 130.388 200.54 128.048 200.77 126.338L200.2 126.668C201.7 127.438 202.32 129.498 203.13 130.868C203.38 131.288 204.04 130.908 203.79 130.488L203.77 130.518Z" fill="#030404"/>
<path d="M195.956 16.7284C196.136 14.7684 195.966 12.7284 196.866 10.9084C197.696 9.22845 199.376 8.09844 201.106 7.47844C201.606 7.29844 201.416 6.55845 200.886 6.67845C196.686 7.66845 194.036 4.01845 193.356 0.298447C193.256 -0.231553 192.486 0.00844806 192.556 0.518448C192.876 2.83845 193.076 5.35844 191.476 7.27844C190.876 7.99844 190.106 8.53845 189.256 8.90845C188.626 9.18845 187.446 9.24845 187.056 9.81845C186.916 10.0185 187.056 10.3885 187.306 10.4285C189.036 10.7085 190.916 10.9885 192.336 12.0984C193.066 12.6684 193.736 13.3784 194.186 14.1984C194.646 15.0284 194.836 15.9685 195.266 16.8185C195.506 17.2885 196.226 16.8785 195.986 16.3985C195.486 15.4385 195.296 14.3584 194.706 13.4484C194.206 12.6784 193.556 12.0084 192.836 11.4484C191.316 10.2584 189.376 9.92844 187.526 9.63844L187.776 10.2484C187.816 10.1884 188.806 9.97844 189.066 9.88844C189.546 9.70844 190.026 9.49844 190.466 9.22844C191.316 8.71844 192.026 8.02845 192.576 7.20845C193.936 5.14845 193.696 2.62844 193.376 0.308441C193.106 0.378441 192.846 0.458443 192.576 0.528443C192.936 2.47844 193.766 4.43844 195.176 5.86844C196.776 7.49844 198.926 8.00845 201.126 7.48845L200.906 6.68845C199.056 7.34845 197.256 8.51844 196.286 10.2784C195.186 12.2784 195.356 14.5284 195.156 16.7284C195.106 17.2584 195.936 17.2584 195.986 16.7284H195.956Z" fill="#030404"/>
<path d="M8.95551 170.728C9.13551 168.768 8.96551 166.728 9.86551 164.908C10.6955 163.228 12.3755 162.098 14.1055 161.478C14.6055 161.298 14.4155 160.558 13.8855 160.678C9.68551 161.668 7.03551 158.018 6.35551 154.298C6.25551 153.768 5.48551 154.008 5.55551 154.518C5.87551 156.838 6.07551 159.358 4.47551 161.278C3.87551 161.998 3.10551 162.538 2.25551 162.908C1.62551 163.188 0.445515 163.248 0.0555147 163.818C-0.0844853 164.018 0.0555147 164.388 0.305515 164.428C2.03551 164.708 3.91551 164.988 5.33551 166.098C6.06551 166.668 6.73551 167.378 7.18551 168.198C7.64551 169.028 7.83551 169.968 8.26551 170.818C8.50551 171.288 9.22551 170.878 8.98551 170.398C8.48551 169.438 8.29551 168.358 7.70551 167.448C7.20551 166.678 6.55551 166.008 5.83551 165.448C4.31551 164.258 2.37551 163.928 0.525512 163.638L0.775512 164.248C0.815512 164.188 1.80551 163.978 2.06551 163.888C2.54551 163.708 3.02551 163.498 3.46551 163.228C4.31551 162.718 5.02551 162.028 5.57551 161.208C6.93551 159.148 6.69551 156.628 6.37551 154.308C6.10551 154.378 5.84551 154.458 5.57551 154.528C5.93551 156.478 6.76551 158.438 8.17551 159.868C9.77551 161.498 11.9255 162.008 14.1255 161.488L13.9055 160.688C12.0555 161.348 10.2555 162.518 9.28551 164.278C8.18551 166.278 8.35551 168.528 8.15551 170.728C8.10551 171.258 8.93551 171.258 8.98551 170.728H8.95551Z" fill="#030404"/>
<defs>
<clipPath id="clip0_104_12">
<rect width="313" height="59" fill="white" transform="translate(14 61)"/>
</clipPath>
</defs>
</svg>
