<?xml version="1.0" encoding="UTF-8" standalone="no"?>
<svg
   width="313"
   height="177.55882"
   viewBox="0 0 313 177.55882"
   fill="none"
   version="1.1"
   id="svg16"
   xmlns="http://www.w3.org/2000/svg"
   xmlns:svg="http://www.w3.org/2000/svg">
  <defs
     id="defs16" />
  <path
     d="m 286.48,161.854 c 0.97,0.25 2,0.32 3,0.46 1.19,0.17 2.38,0.53 3.54,0.84 2.21,0.58 4.42,1.22 6.57,1.96 1.41,0.48 2.85,0.96 4.18,1.63 0.2,0.1 0.66,0.24 0.79,0.42 0.18,0.24 0.03,0.32 -0.21,0.52 -0.45,0.36 -1.05,0.51 -1.62,0.63 -1.02,0.22 -2.1,0.33 -3.13,0.51 -0.71,0.12 -1.65,0.22 -2.13,0.82 1.35,1 2.5,2.27 3.77,3.36 1.1,0.95 2.16,1.99 3.17,3.05 0.2,0.21 1.07,0.98 0.88,1.34 -0.24,0.45 -1.32,-0.15 -1.56,-0.28 -1.7,-0.95 -3.52,-1.54 -5.33,-2.24 -1.78,-0.69 -3.52,-1.48 -5.28,-2.23 -1.42,-0.6 -2.92,-1.19 -4.25,-1.99 -0.48,-0.29 -0.96,-0.51 -1.42,-0.82 -0.28,-0.19 -0.88,-0.43 -1.07,-0.71 -0.73,-1.01 2.34,-0.81 2.32,-1.66 -0.01,-0.58 -0.86,-1.24 -1.19,-1.67 -0.44,-0.57 -0.86,-1.2 -1.25,-1.81 -0.22,-0.34 -0.42,-0.62 -0.69,-0.92 -0.12,-0.13 -0.56,-0.52 -0.57,-0.7 -0.02,-0.57 0.78,-0.81 1.24,-0.67"
     fill="#dd4c97"
     id="path1" />
  <path
     d="m 50.6826,27.8905 c -0.8069,0.3056 -2.9463,0.5746 -2.7874,-0.3301 0.0367,-0.22 0.2567,-0.3545 0.4279,-0.5012 0.1711,-0.1467 0.3056,-0.4157 0.1467,-0.5869 -0.0978,-0.0978 -0.2567,-0.0978 -0.4034,-0.0733 -0.5869,0.0856 -1.1614,0.3301 -1.7483,0.2078 -0.0489,0 -0.0978,-0.0244 -0.1222,-0.0611 -0.0367,-0.0489 -0.0245,-0.11 0,-0.1711 0.1467,-0.4646 0.6968,-0.758 0.7946,-1.1981 -0.0367,-0.0367 -0.0733,-0.0612 -0.0978,-0.0978 -0.6235,0.3545 -1.3081,0.6112 -2.0171,0.7579 -0.0734,-0.6846 0.3056,-1.3203 0.7702,-1.8338 0.0244,-0.0244 0.0489,-0.0489 0.0733,-0.0733 -0.5135,-0.5502 -0.9536,-1.1125 -1.2714,-1.6504 -3.7288,3.2274 -8.2399,5.538 -13.0445,6.6505 0.2445,0.4157 0.489,0.8314 0.7458,1.247 0.9169,0 1.9682,0.2201 1.7359,0.8436 -0.0733,0.2078 -0.3178,0.3056 -0.5012,0.4156 -0.1467,0.0856 -0.2445,0.2568 -0.2322,0.4157 0.0489,0.0733 0.0855,0.1467 0.1344,0.2201 0.0734,0.0366 0.1712,0.0489 0.2567,0.0611 0.5869,0 1.1981,-0.1345 1.7605,0.0733 0.0489,0.0123 0.0856,0.0367 0.11,0.0734 0.0245,0.0489 0,0.1222 -0.0244,0.1712 -0.2568,0.489 -0.9903,0.6723 -1.0514,1.2102 0.7213,-0.2811 1.4915,-0.4401 2.2617,-0.4645 -0.0367,0.6846 -0.5257,1.2592 -1.0514,1.6871 -0.1345,0.11 -0.2812,0.2078 -0.4156,0.3179 0.0733,0.1344 0.1589,0.2689 0.2322,0.4034 5.8804,-1.0514 11.4063,-3.5698 16.0519,-7.323 -0.2323,-0.1223 -0.4768,-0.2568 -0.7335,-0.4035 z"
     fill="#dd4c97"
     id="path2" />
  <path
     d="m 267.354,44.53 c 0.22,-0.68 0.4,-1.37 0.61,-2.04 0.78,-2.44 1.88,-4.74 2.91,-7.08 0.36,-0.82 0.81,-1.5 1.39,-2.17 0.33,-0.38 0.61,-0.77 0.89,-1.2 0.25,-0.39 0.5,-0.69 0.78,-1.04 0.16,0.12 0.19,0.39 0.26,0.57 0.18,0.48 0.2,0.97 0.27,1.47 0.09,0.62 0.23,1.23 0.35,1.85 0.07,0.37 0.18,0.74 0.33,1.09 0.07,0.15 0.18,0.59 0.3,0.69 0.23,0.2 0.88,-0.21 1.11,-0.37 0.54,-0.36 1.07,-0.77 1.59,-1.15 0.51,-0.38 1.06,-0.7 1.56,-1.1 0.47,-0.37 0.89,-0.62 1.45,-0.84 0.33,-0.13 0.89,-0.45 0.87,0.08 -0.04,0.85 -0.63,1.87 -1.12,2.56 -0.74,1.03 -1.53,2.04 -2.39,2.97 -0.8,0.87 -1.54,1.76 -2.4,2.58 -0.32,0.31 -0.54,0.63 -0.78,1 -0.35,0.52 -0.86,0.92 -1.29,1.37 -0.37,0.38 -0.74,0.7 -1.17,1.02 -0.21,0.15 -0.33,0.33 -0.58,0.38 -0.28,0.06 -0.26,0 -0.29,-0.27 -0.12,-1 -0.07,-1.99 0.09,-2.98 -0.27,0.24 -0.54,0.52 -0.8,0.77 -0.39,0.37 -0.81,0.68 -1.22,1.04 -0.59,0.51 -1.2,1.01 -1.84,1.46 -0.4,0.28 -1.02,-0.3 -0.9,-0.66 z"
     fill="#dd4c97"
     id="path3" />
  <path
     d="m 72.1598,153.728 0.43,-0.42 c 0.13,-0.13 0.16,-0.37 -0.02,-0.48 -0.64,-0.4 -2.05,-0.31 -2.06,-1.16 0,-0.17 -0.1,-0.3 -0.28,-0.32 -0.76,-0.09 -1.37,0.53 -0.7,-0.51 0.14,-0.21 -0.03,-0.52 -0.3,-0.47 -2.11,0.44 -0.9,0.33 -0.9,-0.82 0,-0.52 -0.8,-1.13 -1.08,-1.44 -0.1,-0.12 -0.3,-0.15 -0.42,-0.04 -2.99,2.87 -6.7,4.15 -10.58,5.35 -0.14,0.04 -0.29,0.18 -0.24,0.35 0.09,0.32 0.18,0.64 0.26,0.97 0.04,0.13 0.13,0.23 0.27,0.24 1.76,0.15 0.4,0.5 0.9,1.19 0.13,0.17 0.27,0.34 0.44,0.48 0.55,0.43 1.66,-0.13 0.69,0.41 -0.24,0.13 -0.22,0.57 0.11,0.57 1.19,-0.01 1.27,-0.19 0.35,0.56 -0.11,0.09 -0.12,0.23 -0.08,0.36 0.09,0.24 0.18,0.49 0.27,0.73 0.05,0.12 0.2,0.19 0.33,0.17 4.59,-0.8 9.43,-3.12 13.14,-5.94 0.31,-0.23 -0.08,-0.69 -0.39,-0.46 -2.04,1.55 -4.23,2.83 -6.63,3.74 -0.96,0.36 -1.95,0.65 -2.92,1 -0.53,0.19 -3.84,1.32 -2.01,-0.24 0.19,-0.16 0.1,-0.53 -0.17,-0.53 -1.23,0.01 -1.08,0.5 -0.76,-0.33 0.07,-0.19 -0.07,-0.38 -0.26,-0.4 -0.61,-0.07 -1.77,-0.13 -1.04,-0.76 0.11,-0.09 0.13,-0.23 0.08,-0.36 -0.21,-0.51 -0.43,-0.25 -0.7,-0.61 -0.4,-0.52 -1.11,-0.18 -0.08,-1 0.47,-0.38 1.43,-0.47 1.99,-0.67 1.75,-0.63 3.46,-1.37 5.01,-2.39 1.05,-0.69 3.95,-2.68 2.14,0.42 -0.13,0.21 0.03,0.52 0.3,0.47 0.97,-0.2 1.66,-0.71 1.06,0.24 -0.15,0.23 0.04,0.5 0.3,0.47 0.7,-0.34 1,-0.12 0.87,0.64 -0.07,0.13 0.04,0.35 0.18,0.38 0.32,0.08 1.93,0.32 2.12,0.14 -0.28,0.27 0.11,0.73 0.39,0.46 z"
     fill="#030404"
     id="path4" />
  <path
     d="m 189.44,129.708 c -0.77,-1.27 -1.73,-3.72 -3.07,-4.34 -0.22,1.36 0.56,4.09 -0.26,5.28 -0.73,1.06 -3.49,1.29 -4.74,1.78 1.14,0.35 3.46,0.71 3.95,1.8 0.37,0.82 -0.43,3.38 -0.52,4.34 0.69,-0.55 2.22,-2.78 3.01,-2.73 1.01,0.06 2.04,2.68 2.96,3.1 0,-1.24 -0.34,-2.57 -0.21,-3.83 1.97,-0.14 3.71,-0.38 5.63,-0.82 -0.7,-0.92 -2.26,-1.79 -3.16,-2.56 0.86,-0.57 1.22,-1.64 1.75,-2.51 -0.69,0.19 -2.48,1.09 -3.06,0.73 -0.69,-0.44 -0.47,-2.11 -0.92,-2.7 -0.73,0.83 -1.56,1.87 -2,2.85"
     fill="#030404"
     id="path5" />
  <path
     d="M 0,69.0124 309.495,61 313,112.408 5.0106,120 Z"
     fill="#030404"
     id="path6" />
  <path
     d="m 72.0999,151.818 c -0.66,0.25 -2.41,0.47 -2.28,-0.27 0.03,-0.18 0.2099,-0.29 0.3499,-0.41 0.14,-0.12 0.2501,-0.34 0.1201,-0.48 -0.08,-0.08 -0.2101,-0.08 -0.3301,-0.06 -0.48,0.07 -0.95,0.27 -1.43,0.17 -0.04,0 -0.08,-0.02 -0.1,-0.05 -0.03,-0.04 -0.02,-0.09 0,-0.14 0.12,-0.38 0.57,-0.62 0.65,-0.98 -0.03,-0.03 -0.06,-0.05 -0.08,-0.08 -0.51,0.29 -1.0699,0.5 -1.6499,0.62 -0.06,-0.56 0.25,-1.08 0.63,-1.5 0.02,-0.02 0.04,-0.04 0.06,-0.06 -0.42,-0.45 -0.7801,-0.91 -1.0401,-1.35 -3.05,2.64 -6.74,4.53 -10.67,5.44 0.2,0.34 0.4,0.68 0.61,1.02 0.75,0 1.61,0.18 1.42,0.69 -0.06,0.17 -0.26,0.25 -0.41,0.34 -0.12,0.07 -0.1999,0.21 -0.1899,0.34 0.04,0.06 0.0699,0.12 0.1099,0.18 0.06,0.03 0.14,0.04 0.21,0.05 0.48,0 0.98,-0.11 1.44,0.06 0.04,0.01 0.07,0.03 0.09,0.06 0.02,0.04 0,0.1 -0.02,0.14 -0.21,0.4 -0.8099,0.55 -0.8599,0.99 0.59,-0.23 1.2199,-0.36 1.8499,-0.38 -0.03,0.56 -0.43,1.03 -0.86,1.38 -0.11,0.09 -0.2299,0.17 -0.3399,0.26 0.06,0.11 0.13,0.22 0.19,0.33 4.81,-0.86 9.3299,-2.92 13.1299,-5.99 -0.19,-0.1 -0.3899,-0.21 -0.5999,-0.33 z"
     fill="#dd4c97"
     id="path8" />
  <g
     id="g16"
     transform="translate(-2.0805,22.2791)">
    <path
       d="m 94.012,33.4326 -0.373,-3.159 c 0.177,0.0272 0.353,0.0464 0.53,0.0577 0.176,0.0112 0.304,0.0158 0.384,0.0136 0.624,-0.0169 1.101,-0.1258 1.432,-0.3268 0.346,-0.2174 0.578,-0.5358 0.694,-0.9551 0.133,-0.4357 0.19,-0.9895 0.172,-1.6612 l -0.272,-10.0524 3.455,-0.0933 0.272,10.0763 c 0.035,1.2956 -0.119,2.3961 -0.463,3.3017 -0.344,0.9056 -0.901,1.601 -1.672,2.086 -0.756,0.4685 -1.749,0.7195 -2.981,0.7527 -0.176,0.0048 -0.352,0.0016 -0.528,-0.0097 -0.177,-0.0112 -0.393,-0.0214 -0.65,-0.0305 z m 15.035,-0.2381 c -0.927,0.025 -1.77,-0.0562 -2.527,-0.2439 -0.741,-0.172 -1.388,-0.4346 -1.942,-0.7878 -0.554,-0.3692 -1.022,-0.8127 -1.405,-1.3305 -0.382,-0.5339 -0.67,-1.1343 -0.865,-1.8013 -0.194,-0.667 -0.302,-1.4004 -0.323,-2.2001 l -0.26,-9.6205 3.455,-0.0933 0.256,9.4765 c 0.022,0.8317 0.169,1.516 0.439,2.0529 0.287,0.5204 0.689,0.9017 1.208,1.1438 0.518,0.2421 1.146,0.3532 1.881,0.3333 0.752,-0.0203 1.38,-0.1653 1.885,-0.4351 0.505,-0.2697 0.878,-0.6719 1.12,-1.2067 0.241,-0.5507 0.351,-1.2419 0.328,-2.0736 l -0.256,-9.4765 3.455,-0.0934 0.26,9.6205 c 0.028,1.0556 -0.09,1.9952 -0.356,2.8187 -0.266,0.8075 -0.688,1.4991 -1.265,2.0749 -0.56,0.5753 -1.269,1.0186 -2.124,1.3299 -0.84,0.3107 -1.828,0.4815 -2.964,0.5122 z m 14.837,-0.4009 c -1.312,0.0354 -2.488,-0.2449 -3.528,-0.841 -1.025,-0.5966 -1.841,-1.4868 -2.449,-2.6708 -0.609,-1.2 -0.937,-2.6717 -0.984,-4.4151 -0.035,-1.2795 0.094,-2.4354 0.387,-3.4677 0.308,-1.0327 0.78,-1.9258 1.416,-2.6792 0.636,-0.7535 1.428,-1.3431 2.377,-1.7689 0.949,-0.4257 2.063,-0.6559 3.342,-0.6905 0.992,-0.0268 1.883,0.0772 2.674,0.3119 0.79,0.2188 1.463,0.5447 2.019,0.9778 0.572,0.4328 1.01,0.9651 1.315,1.5971 0.321,0.6156 0.492,1.3072 0.513,2.0749 l -3.242,0.8799 c -0.03,-0.5274 -0.138,-0.9806 -0.325,-1.3597 -0.17,-0.3796 -0.41,-0.6932 -0.721,-0.9409 -0.295,-0.2481 -0.644,-0.4228 -1.047,-0.5239 -0.387,-0.1176 -0.805,-0.1703 -1.252,-0.1582 -0.544,0.0147 -1.053,0.1244 -1.528,0.3293 -0.475,0.2049 -0.89,0.5283 -1.246,0.9701 -0.357,0.4257 -0.63,0.9853 -0.819,1.6787 -0.19,0.6934 -0.271,1.5359 -0.244,2.5275 0.027,0.9916 0.153,1.8365 0.38,2.5346 0.243,0.6977 0.555,1.2575 0.934,1.6794 0.395,0.4055 0.843,0.6975 1.344,0.876 0.517,0.1782 1.064,0.2594 1.639,0.2439 0.704,-0.019 1.301,-0.1552 1.79,-0.4085 0.505,-0.2538 0.896,-0.6164 1.171,-1.088 0.275,-0.4876 0.419,-1.0758 0.433,-1.7644 l -2.879,0.0778 -0.068,-2.4951 6.19,-0.1672 0.078,2.8789 0.142,5.2541 -2.423,0.0655 -0.065,-4.1518 -0.359,0.0097 c -0.166,0.9809 -0.456,1.813 -0.869,2.4964 -0.398,0.667 -0.937,1.1857 -1.615,1.5562 -0.663,0.354 -1.49,0.5444 -2.481,0.5712 z m 8.269,-0.5595 4.995,-15.9808 4.846,-0.1309 5.826,15.6884 -3.743,0.1011 -4.288,-12.9689 -0.288,0.0077 -3.605,13.1822 z m 2.916,-3.152 -0.064,-2.3991 10.148,-0.2742 0.065,2.3992 z m 13.391,2.7114 -0.428,-15.8342 6.382,-0.1725 c 0.752,-0.0203 1.457,0.0247 2.116,0.1349 0.675,0.0938 1.288,0.2533 1.838,0.4786 0.55,0.2252 1.022,0.5245 1.417,0.898 0.409,0.3571 0.725,0.7807 0.946,1.2709 0.222,0.4902 0.341,1.0632 0.359,1.719 0.014,0.5278 -0.061,1.018 -0.225,1.4706 -0.147,0.4521 -0.392,0.8589 -0.735,1.2203 -0.343,0.3453 -0.783,0.6373 -1.321,0.876 -0.537,0.2386 -1.173,0.4078 -1.907,0.5076 l 0.008,0.2879 c 0.882,0.0562 1.575,0.2376 2.08,0.5441 0.52,0.29 0.931,0.6871 1.232,1.1911 0.302,0.5041 0.558,1.1053 0.769,1.8039 l 1,3.2382 -3.815,0.103 -0.776,-2.9801 c -0.145,-0.6203 -0.35,-1.1109 -0.616,-1.4719 -0.266,-0.3609 -0.609,-0.6157 -1.029,-0.7644 -0.404,-0.1492 -0.91,-0.2155 -1.518,-0.1991 l -2.471,0.0667 0.149,5.518 z m 3.234,-8.2504 2.136,-0.0577 c 0.271,-0.0073 0.567,-0.0233 0.887,-0.048 0.335,-0.025 0.67,-0.0741 1.004,-0.1471 0.334,-0.0891 0.634,-0.2252 0.901,-0.4085 0.283,-0.1837 0.509,-0.4299 0.677,-0.7386 0.167,-0.3246 0.244,-0.7268 0.231,-1.2067 -0.014,-0.5118 -0.113,-0.9252 -0.298,-1.2404 -0.168,-0.3155 -0.391,-0.5576 -0.667,-0.7262 -0.277,-0.1686 -0.568,-0.2808 -0.874,-0.3365 -0.29,-0.0722 -0.563,-0.1129 -0.819,-0.1219 -0.257,-0.0091 -0.465,-0.0115 -0.625,-0.0072 l -2.687,0.0726 z m 10.135,7.8892 4.994,-15.9807 4.846,-0.131 5.826,15.6884 -3.743,0.1011 -4.288,-12.9689 -0.288,0.0078 -3.605,13.1822 z m 2.915,-3.1519 -0.064,-2.3992 10.148,-0.2741 0.065,2.3991 z m 5.661,-14.4382 -2.807,0.0759 1.555,-3.7394 3.599,-0.0972 z m 13.482,17.3302 c -1.056,0.0285 -2.003,-0.0579 -2.841,-0.2594 -0.821,-0.1859 -1.525,-0.4869 -2.113,-0.9032 -0.587,-0.4163 -1.041,-0.9322 -1.362,-1.5478 -0.321,-0.6315 -0.501,-1.363 -0.539,-2.1942 l 3.071,-0.9473 c 0.036,0.7353 0.22,1.3385 0.553,1.8097 0.333,0.4712 0.79,0.8109 1.372,1.0193 0.582,0.2084 1.233,0.3028 1.953,0.2834 0.671,-0.0182 1.237,-0.1135 1.696,-0.286 0.46,-0.1724 0.806,-0.4059 1.038,-0.7002 0.248,-0.2948 0.367,-0.6182 0.358,-0.9701 -0.011,-0.4158 -0.18,-0.7474 -0.507,-0.9946 -0.327,-0.2633 -0.765,-0.4755 -1.314,-0.6368 -0.548,-0.1612 -1.169,-0.3125 -1.861,-0.4539 -0.757,-0.1716 -1.506,-0.3594 -2.248,-0.5635 -0.726,-0.2044 -1.397,-0.4664 -2.014,-0.7859 -0.601,-0.3358 -1.085,-0.7789 -1.452,-1.3292 -0.367,-0.5503 -0.562,-1.2493 -0.585,-2.097 -0.026,-0.9756 0.199,-1.822 0.676,-2.5392 0.476,-0.7331 1.173,-1.3041 2.09,-1.713 0.917,-0.425 2.015,-0.6547 3.295,-0.6893 1.295,-0.035 2.42,0.1347 3.375,0.5091 0.97,0.3739 1.729,0.9296 2.277,1.667 0.548,0.7215 0.828,1.6023 0.84,2.6423 l -3.123,0.8287 c 0.003,-0.4963 -0.081,-0.9262 -0.251,-1.2897 -0.154,-0.38 -0.378,-0.694 -0.673,-0.9422 -0.279,-0.2485 -0.628,-0.4312 -1.047,-0.5479 -0.404,-0.1171 -0.861,-0.1688 -1.373,-0.155 -0.608,0.0165 -1.125,0.1105 -1.553,0.2821 -0.412,0.1552 -0.726,0.3717 -0.943,0.6497 -0.216,0.2779 -0.32,0.5928 -0.31,0.9447 0.011,0.4319 0.189,0.7792 0.532,1.042 0.343,0.2468 0.796,0.4507 1.361,0.6115 0.58,0.1604 1.225,0.319 1.933,0.4759 0.693,0.1414 1.393,0.3145 2.103,0.5194 0.726,0.1885 1.389,0.4507 1.99,0.7866 0.618,0.3354 1.118,0.7941 1.502,1.3759 0.383,0.5659 0.587,1.2886 0.611,2.1683 0.027,0.9916 -0.214,1.8465 -0.723,2.5645 -0.493,0.7175 -1.23,1.2816 -2.211,1.6923 -0.982,0.4107 -2.176,0.635 -3.583,0.673 z m 11.857,-0.6565 -0.428,-15.8342 3.455,-0.0933 0.428,15.8342 z m 2.423,-0.0655 -0.077,-2.8549 9.405,-0.2541 0.077,2.855 z m -0.181,-6.7175 -0.069,-2.5671 8.253,-0.2229 0.069,2.567 z m -0.17,-6.2857 -0.076,-2.831 9.38,-0.2534 0.077,2.8309 z m 10.903,12.7182 -0.428,-15.8343 4.559,-0.1231 7.117,11.0678 0.192,-0.0052 -0.448,-11.248 3.383,-0.0914 0.428,15.8342 -4.199,0.1134 -7.489,-11.5139 -0.192,0.0052 0.46,11.7039 z"
       fill="#030404"
       id="path10" />
  </g>
  <path
     d="m 289.03,163.544 c 4.05,1.13 8.19,1.98 12.21,3.19 0.49,0.15 1.34,0.34 1.65,0.79 0.34,0.5 -0.41,0.66 -0.79,0.78 -1.18,0.36 -2.73,0.35 -3.76,1.09 -0.27,0.19 -0.41,0.63 -0.11,0.89 2.25,1.92 4.88,3.68 6.51,6.21 0.16,-0.28 0.33,-0.57 0.49,-0.85 -4.08,0.42 -7.7,-2.27 -11.38,-3.56 -1.18,-0.41 -3.5,-0.67 -4.03,-1.98 -0.28,-0.69 0.42,-0.75 0.96,-0.88 0.67,-0.16 1.33,-0.3 1.93,-0.63 0.29,-0.16 0.4,-0.66 0.11,-0.89 -1.6,-1.28 -3.9,-3.07 -4.24,-5.22 l -0.4,0.7 c 0.17,-0.02 0.34,-0.03 0.51,-0.05 0.72,-0.08 0.72,-1.21 0,-1.13 -0.27,0.03 -0.54,0.04 -0.81,0.09 -0.32,0.06 -0.44,0.42 -0.4,0.7 0.37,2.36 2.79,4.32 4.53,5.72 l 0.11,-0.89 c -1.05,0.57 -3.29,0.38 -3.52,1.91 -0.29,1.92 2.09,2.75 3.49,3.2 2.12,0.68 4.1,1.62 6.16,2.49 2.18,0.93 4.56,1.81 6.97,1.56 0.4,-0.04 0.74,-0.46 0.49,-0.85 -1.69,-2.62 -4.34,-4.44 -6.68,-6.44 -0.04,0.3 -0.08,0.59 -0.11,0.89 0.6,-0.43 1.48,-0.5 2.18,-0.65 0.73,-0.16 1.53,-0.3 2.2,-0.67 1.35,-0.75 0.86,-2.21 -0.31,-2.84 -1.48,-0.81 -3.4,-1.09 -5.01,-1.52 -2.87,-0.77 -5.78,-1.43 -8.64,-2.24 -0.7,-0.2 -1,0.9 -0.3,1.09 z"
     fill="#030404"
     id="path11" />
  <path
     d="m 50.7559,30.003 0.5257,-0.5135 c 0.159,-0.159 0.1956,-0.4523 -0.0244,-0.5868 -0.7824,-0.489 -2.5062,-0.379 -2.5184,-1.4182 0,-0.2078 -0.1223,-0.3667 -0.3423,-0.3912 -0.9292,-0.11 -1.6749,0.6479 -0.8558,-0.6235 0.1711,-0.2567 -0.0367,-0.6357 -0.3668,-0.5746 -2.5795,0.5379 -1.1003,0.4035 -1.1003,-1.0024 0,-0.6357 -0.978,-1.3815 -1.3203,-1.7605 -0.1223,-0.1467 -0.3668,-0.1834 -0.5135,-0.0489 -3.6554,3.5087 -8.1909,5.0735 -12.9344,6.5406 -0.1711,0.0489 -0.3545,0.22 -0.2934,0.4279 0.11,0.3912 0.2201,0.7824 0.3179,1.1858 0.0489,0.159 0.1589,0.2812 0.3301,0.2934 2.1516,0.1834 0.489,0.6113 1.1002,1.4548 0.159,0.2079 0.3301,0.4157 0.538,0.5869 0.6723,0.5257 2.0294,-0.159 0.8435,0.5012 -0.2934,0.1589 -0.269,0.6968 0.1345,0.6968 1.4548,-0.0122 1.5526,-0.2323 0.4279,0.6847 -0.1345,0.11 -0.1468,0.2812 -0.0979,0.4401 0.1101,0.2934 0.2201,0.599 0.3301,0.8924 0.0612,0.1467 0.2445,0.2323 0.4035,0.2079 5.6114,-0.9781 11.5285,-3.8144 16.0641,-7.2619 0.379,-0.2812 -0.0978,-0.8435 -0.4768,-0.5624 -2.494,1.895 -5.1713,3.4598 -8.1054,4.5723 -1.1737,0.4401 -2.3839,0.7947 -3.5698,1.2225 -0.648,0.2323 -4.6946,1.6138 -2.4573,-0.2934 0.2323,-0.1956 0.1223,-0.6479 -0.2078,-0.6479 -1.5037,0.0122 -1.3204,0.6113 -0.9292,-0.4035 0.0856,-0.2322 -0.0856,-0.4645 -0.3178,-0.489 -0.7458,-0.0855 -2.1639,-0.1589 -1.2714,-0.9291 0.1344,-0.11 0.1589,-0.2812 0.0977,-0.4401 -0.2567,-0.6235 -0.5257,-0.3056 -0.8557,-0.7458 -0.4891,-0.6357 -1.357,-0.22 -0.0978,-1.2225 0.5746,-0.4646 1.7482,-0.5746 2.4328,-0.8191 2.1394,-0.7702 4.23,-1.6749 6.1249,-2.9218 1.2837,-0.8436 4.829,-3.2764 2.6162,0.5134 -0.1589,0.2568 0.0367,0.6358 0.3668,0.5746 1.1859,-0.2445 2.0294,-0.868 1.2959,0.2934 -0.1834,0.2812 0.0489,0.6113 0.3667,0.5746 0.8558,-0.4156 1.2226,-0.1467 1.0637,0.7825 -0.0856,0.1589 0.0489,0.4278 0.22,0.4645 0.3912,0.0978 2.3595,0.3912 2.5918,0.1712 -0.3423,0.33 0.1344,0.8924 0.4768,0.5623 z"
     fill="#030404"
     id="path12" />
  <path
     d="m 267.384,45.71 c 1.24,-3.46 2.36,-6.99 3.89,-10.34 0.33,-0.73 0.71,-1.44 1.17,-2.09 0.29,-0.42 0.58,-1.08 1.13,-0.53 0.28,0.28 0.35,0.8 0.44,1.17 0.18,0.76 0.37,1.52 0.54,2.28 0.07,0.29 0.09,0.76 0.38,0.94 0.29,0.18 0.72,-0.03 1,-0.15 0.66,-0.3 1.24,-0.75 1.81,-1.2 0.57,-0.45 1.13,-0.91 1.68,-1.37 0.26,-0.21 1.55,-1.25 1.29,-0.24 -0.13,0.52 -0.49,1.03 -0.75,1.49 -0.45,0.8 -0.97,1.56 -1.5,2.31 -0.93,1.33 -1.81,2.72 -2.83,3.99 -0.54,0.67 -1.13,1.3 -1.83,1.8 -0.16,0.11 -0.62,0.49 -0.86,0.41 -0.21,-0.06 -0.22,-0.33 -0.23,-0.52 -0.06,-0.89 0.29,-1.81 0.06,-2.69 -0.03,-0.12 -0.14,-0.16 -0.25,-0.14 -0.95,0.15 -1.77,1.25 -2.36,1.91 -0.86,0.95 -1.74,2.33 -3.02,2.71 -0.25,0.08 -0.15,0.47 0.11,0.4 1.22,-0.37 2,-1.49 2.82,-2.39 0.39,-0.43 0.78,-0.88 1.2,-1.29 0.37,-0.37 0.83,-0.87 1.37,-0.95 l -0.25,-0.14 c 0.24,0.92 -0.21,1.9 -0.05,2.83 0.19,1.06 1.17,0.59 1.77,0.15 1.36,-0.97 2.31,-2.38 3.24,-3.74 1.1,-1.62 2.28,-3.18 3.24,-4.89 0.26,-0.46 1.18,-2.09 0.04,-2.15 -0.52,-0.03 -1.02,0.47 -1.39,0.77 -0.65,0.53 -1.29,1.07 -1.96,1.59 -0.4,0.31 -0.81,0.61 -1.26,0.85 -0.18,0.09 -0.44,0.28 -0.65,0.28 -0.29,0 -0.28,-0.14 -0.34,-0.37 -0.21,-0.86 -0.41,-1.73 -0.61,-2.6 -0.14,-0.59 -0.32,-1.39 -0.9,-1.71 -0.48,-0.27 -0.8,0.12 -1.07,0.49 -1.31,1.77 -2.09,3.84 -2.88,5.89 -0.91,2.35 -1.72,4.74 -2.56,7.12 -0.09,0.25 0.31,0.36 0.4,0.11 z"
     fill="#030404"
     id="path13" />
  <path
     d="m 189.77,130.518 c -0.89,-1.49 -1.56,-3.63 -3.2,-4.47 -0.28,-0.14 -0.53,0.04 -0.57,0.33 -0.12,0.86 0.03,1.74 0.09,2.6 0.05,0.76 0.2,1.87 -0.32,2.51 -0.47,0.59 -1.43,0.78 -2.12,0.95 -0.79,0.21 -1.61,0.34 -2.38,0.63 -0.34,0.13 -0.38,0.62 0,0.73 1,0.3 3.52,0.53 3.75,1.8 0.12,0.67 -0.12,1.45 -0.25,2.1 -0.13,0.65 -0.28,1.23 -0.35,1.86 -0.04,0.36 0.43,0.46 0.65,0.27 0.5,-0.42 0.91,-0.97 1.35,-1.46 0.32,-0.36 0.97,-1.28 1.52,-1.12 0.59,0.17 1.09,1.23 1.42,1.7 0.34,0.48 0.69,1.02 1.23,1.3 0.25,0.13 0.58,-0.03 0.57,-0.33 -0.03,-1.28 -0.31,-2.54 -0.21,-3.83 l -0.38,0.38 c 1.93,-0.14 3.84,-0.4 5.73,-0.83 0.3,-0.07 0.34,-0.43 0.17,-0.64 -0.86,-1.06 -2.12,-1.7 -3.16,-2.56 l -0.08,0.6 c 0.92,-0.68 1.32,-1.69 1.89,-2.64 0.17,-0.28 -0.11,-0.65 -0.43,-0.56 -0.42,0.12 -0.82,0.3 -1.23,0.45 -0.36,0.13 -1.11,0.49 -1.49,0.32 -0.39,-0.17 -0.41,-0.97 -0.46,-1.33 -0.07,-0.43 -0.13,-0.87 -0.37,-1.24 -0.12,-0.19 -0.43,-0.27 -0.6,-0.08 -0.78,0.9 -1.55,1.84 -2.06,2.93 -0.21,0.44 0.45,0.83 0.66,0.38 0.49,-1.03 1.2,-1.92 1.94,-2.77 l -0.6,-0.08 c 0.53,0.84 0.07,2.44 1.19,2.9 0.97,0.4 2.31,-0.48 3.22,-0.75 -0.14,-0.19 -0.29,-0.37 -0.43,-0.56 -0.48,0.81 -0.83,1.79 -1.61,2.37 -0.18,0.13 -0.28,0.43 -0.08,0.6 1.04,0.86 2.3,1.5 3.16,2.56 l 0.17,-0.64 c -1.82,0.41 -3.66,0.67 -5.53,0.81 -0.22,0.02 -0.36,0.16 -0.38,0.38 -0.09,1.28 0.18,2.55 0.21,3.83 0.19,-0.11 0.38,-0.22 0.57,-0.33 -0.75,-0.39 -1.18,-1.4 -1.67,-2.05 -0.35,-0.46 -0.84,-1.09 -1.48,-1.1 -0.62,-0.02 -1.18,0.59 -1.57,0.99 -0.58,0.6 -1.07,1.31 -1.71,1.85 l 0.65,0.27 c 0.1,-0.84 0.35,-1.66 0.49,-2.49 0.1,-0.63 0.26,-1.39 0,-2 -0.61,-1.43 -2.91,-1.63 -4.19,-2.02 v 0.73 c 1.5,-0.55 3.86,-0.5 4.91,-1.88 1.14,-1.5 0.14,-3.84 0.37,-5.55 l -0.57,0.33 c 1.5,0.77 2.12,2.83 2.93,4.2 0.25,0.42 0.91,0.04 0.66,-0.38 z"
     fill="#030404"
     id="path14" />
  <path
     d="m 181.956,16.7284 c 0.18,-1.96 0.01,-4 0.91,-5.82 0.83,-1.67995 2.51,-2.80996 4.24,-3.42996 0.5,-0.18 0.31,-0.91999 -0.22,-0.79999 -4.2,0.99 -6.85,-2.66 -7.53,-6.38000305 -0.1,-0.53 -0.87,-0.289999 -0.8,0.220001 0.32,2.32000205 0.52,4.83999205 -1.08,6.75999205 -0.6,0.72 -1.37,1.26001 -2.22,1.63001 -0.63,0.28 -1.81,0.34 -2.2,0.91 -0.14,0.20005 0,0.57005 0.25,0.61005 1.73,0.28 3.61,0.56 5.03,1.6699 0.73,0.57 1.4,1.28 1.85,2.1 0.46,0.83 0.65,1.7701 1.08,2.6201 0.24,0.47 0.96,0.06 0.72,-0.42 -0.5,-0.96 -0.69,-2.0401 -1.28,-2.9501 -0.5,-0.77 -1.15,-1.44 -1.87,-2 -1.52,-1.19 -3.46,-1.51996 -5.31,-1.80996 l 0.25,0.60996 c 0.04,-0.06 1.03,-0.26996 1.29,-0.35996 0.48,-0.18 0.96,-0.39 1.4,-0.66 0.85,-0.51 1.56,-1.19999 2.11,-2.01999 1.36,-2.06 1.12,-4.58001 0.8,-6.90000905 -0.27,0.07 -0.53,0.150002 -0.8,0.220002 0.36,1.94999705 1.19,3.90999705 2.6,5.33999705 1.6,1.63 3.75,2.14001 5.95,1.62001 l -0.22,-0.8 c -1.85,0.66 -3.65,1.82999 -4.62,3.58995 -1.1,2 -0.93,4.25 -1.13,6.45 -0.05,0.53 0.78,0.53 0.83,0 z"
     fill="#030404"
     id="path15" />
  <path
     d="m 23.99412,169.8863 c 0.18,-1.96 0.01,-4 0.91,-5.82 0.82999,-1.68 2.50999,-2.81 4.23999,-3.43 0.5,-0.18 0.31,-0.92 -0.22,-0.8 -4.19999,0.99 -6.84999,-2.66 -7.52999,-6.38 -0.1,-0.53 -0.87,-0.29 -0.8,0.22 0.32,2.32 0.52,4.84 -1.08,6.76 -0.6,0.72 -1.37,1.26 -2.22,1.63 -0.63,0.28 -1.809995,0.34 -2.199995,0.91 -0.14,0.2 0,0.57 0.25,0.61 1.729995,0.28 3.609995,0.56 5.029995,1.67 0.73,0.57 1.4,1.28 1.85,2.1 0.46,0.83 0.65,1.77 1.08,2.62 0.24,0.47 0.96,0.06 0.72,-0.42 -0.5,-0.96 -0.69,-2.04 -1.28,-2.95 -0.5,-0.77 -1.15,-1.44 -1.87,-2 -1.52,-1.19 -3.46,-1.52 -5.309998,-1.81 l 0.25,0.61 c 0.04,-0.06 1.029998,-0.27 1.289998,-0.36 0.48,-0.18 0.96,-0.39 1.4,-0.66 0.85,-0.51 1.56,-1.2 2.11,-2.02 1.36,-2.06 1.12,-4.58 0.8,-6.9 -0.27,0.07 -0.53,0.15 -0.8,0.22 0.36,1.95 1.19,3.91 2.6,5.34 1.6,1.63 3.74999,2.14 5.94999,1.62 l -0.22,-0.8 c -1.85,0.66 -3.65,1.83 -4.61999,3.59 -1.1,2 -0.93,4.25 -1.13,6.45 -0.05,0.53 0.78,0.53 0.83,0 z"
     fill="#030404"
     id="path16" />
  <g
     id="g17"
     transform="translate(-13.147039,22.2791)">
    <path
       d="m 283.82819,59.543303 c -0.774,-2.0557 -1.903,-3.9595 -3.335,-5.625 -2.479,-2.8694 -5.738,-4.7225 -8.304,-4.7225 -0.153,1e-4 -0.303,0.0351 -0.44,0.1024 -0.137,0.0672 -0.257,0.1649 -0.35,0.2855 -0.093,0.1207 -0.158,0.2611 -0.189,0.4105 -0.03,0.1494 -0.027,0.3039 0.012,0.4516 0.866,3.3125 -0.93,6.0669 -2.832,8.9825 -1.576,2.415 -3.201,4.9094 -3.201,7.7675 0,5.5138 4.486,10 10,10 5.514,0 10,-4.4862 10,-10 0,-2.7063 -0.457,-5.2806 -1.361,-7.6525 z m -6.618,13.8206 c -0.646,0.6875 -1.455,0.8319 -2.021,0.8319 -0.566,0 -1.375,-0.1444 -2.021,-0.8319 -0.645,-0.6875 -0.979,-1.7781 -0.979,-3.1681 0,-1.5713 0.551,-2.7675 1.084,-3.9237 0.309,-0.6713 0.625,-1.3544 0.812,-2.0857 0.02,-0.0795 0.059,-0.1529 0.114,-0.2138 0.055,-0.0608 0.124,-0.1072 0.201,-0.1351 0.078,-0.0278 0.16,-0.0363 0.242,-0.0246 0.081,0.0117 0.158,0.0432 0.224,0.0916 0.572,0.4423 1.08,0.9609 1.511,1.5413 1.135,1.5 1.812,3.2763 1.812,4.75 0,1.39 -0.339,2.4856 -0.979,3.1681 z"
       fill="#ffffff"
       id="path7" />
    <path
       d="m 54.889081,76.619929 v -3.443611 h 4.624278 q 2.492519,0 3.738778,-0.951093 1.24626,-0.951093 1.24626,-3.148445 0,-2.03337 -1.147871,-3.050055 -1.14787,-1.016686 -3.509204,-1.016686 h -4.952241 v -3.410815 h 5.280204 q 1.869389,0 3.410815,0.459148 1.574223,0.426352 2.722093,1.377445 1.180667,0.918296 1.836593,2.328537 0.655926,1.410241 0.655926,3.345223 0,2.426926 -1.115074,4.099537 -1.082278,1.672611 -3.246834,2.558111 -2.131759,0.852704 -5.313,0.852704 z m -2.787685,6.624852 V 61.599224 h 4.16513 v 21.645557 z m 18.792278,0 V 61.599224 h 4.16513 v 21.645557 z m 0.951093,0 v -3.607592 h 12.13463 v 3.607592 z m 12.965465,0 7.44476,-21.645557 h 5.444186 l 7.444762,21.645557 h -4.4931 L 95.042677,65.042836 H 94.8459 l -5.575371,18.201945 z m 3.804371,-4.296315 v -3.082852 h 13.216907 v 3.082852 z m 18.267557,4.296315 V 61.599224 h 5.67376 l 9.21576,16.365353 h 0.0656 V 61.599224 h 4.13233 v 21.645557 h -5.41139 l -9.47813,-16.693316 h -0.0656 v 16.693316 z m 30.92692,0 v -3.542 h 5.83774 q 1.67261,0 2.88607,-0.754315 1.24626,-0.754315 1.93498,-2.328537 0.72152,-1.607019 0.72152,-4.132334 0,-1.836592 -0.39355,-3.214037 -0.36076,-1.377444 -1.11508,-2.295741 -0.75431,-0.918296 -1.93498,-1.377444 -1.14787,-0.459149 -2.78768,-0.459149 h -5.14902 v -3.542 h 4.98503 q 3.73878,0 6.10012,1.279056 2.36133,1.279055 3.4764,3.673185 1.11508,2.361334 1.11508,5.67376 0,2.558111 -0.55754,4.4275 -0.55754,1.869389 -1.54142,3.148445 -0.98389,1.279056 -2.23015,2.033371 -1.24626,0.754315 -2.6565,1.082278 -1.37745,0.327962 -2.7221,0.327962 z m -2.00058,0 V 61.599224 h 4.16513 v 21.645557 z m 17.63345,0 7.44476,-21.645557 h 5.44419 l 7.44476,21.645557 h -4.49309 L 163.6744,65.042836 h -0.19678 l -5.57537,18.201945 z m 3.80437,-4.296315 v -3.082852 h 13.21691 v 3.082852 z m 18.26757,4.296315 V 61.599224 h 5.67376 l 9.21576,16.365353 h 0.0656 V 61.599224 h 4.13233 v 21.645557 h -5.41139 l -9.47813,-16.693316 h -0.0656 v 16.693316 z m 30.66452,0.459149 q -2.6893,0 -4.72267,-1.344649 -2.03337,-1.344648 -3.18124,-3.837167 -1.11507,-2.525315 -1.11507,-5.93613 0,-2.492518 0.62313,-4.591482 0.62313,-2.098963 1.86939,-3.607592 1.27905,-1.541426 3.18124,-2.39413 1.90218,-0.852704 4.4275,-0.852704 2.00057,0 3.542,0.557537 1.57422,0.557537 2.6237,1.574222 1.08228,1.016686 1.57423,2.426927 0.52474,1.41024 0.49194,3.181241 l -3.93556,0.52474 q 0,-1.607018 -0.55753,-2.623704 -0.52474,-1.049481 -1.54143,-1.574222 -0.98389,-0.524741 -2.36133,-0.524741 -1.57422,0 -2.85328,0.852704 -1.27906,0.852704 -2.00057,2.558111 -0.72152,1.705408 -0.72152,4.329112 0,1.967778 0.42635,3.443611 0.42635,1.475834 1.21346,2.459723 0.81991,0.951092 1.90219,1.443037 1.11507,0.459148 2.45972,0.459148 1.50863,0 2.52531,-0.557537 1.04949,-0.590333 1.60702,-1.639815 0.59034,-1.049482 0.65593,-2.525315 h -3.80437 v -3.082852 h 7.57594 v 3.738778 l 0.0328,7.084 h -3.08285 l 0.19678,-6.001722 h -0.29517 q -0.22958,2.066167 -1.08228,3.509204 -0.8527,1.443037 -2.29574,2.197352 -1.41024,0.754315 -3.37802,0.754315 z m 12.62658,-0.459149 V 61.599224 h 4.16513 v 21.645557 z m 2.78769,0 v -3.542 h 12.29861 v 3.542 z m 0,-9.314148 v -3.214038 h 10.78998 v 3.214038 z m 0,-8.789409 v -3.542 h 12.29861 v 3.542 z m 14.72554,18.103557 V 61.599224 h 8.29747 q 1.47583,0 2.75489,0.262371 1.27905,0.229574 2.32853,0.754314 1.04948,0.491945 1.8038,1.279056 0.75431,0.754315 1.14787,1.803797 0.42635,1.016685 0.42635,2.328537 0,0.983889 -0.32796,1.902185 -0.32796,0.918296 -1.04948,1.672611 -0.68873,0.754315 -1.86939,1.24626 -1.18067,0.491944 -2.88608,0.623129 v 0.262371 q 1.96778,0.131185 3.08286,0.819907 1.14787,0.655926 1.7382,1.803797 0.62313,1.115074 0.98389,2.558111 l 1.11507,4.329111 h -4.59148 l -0.81991,-3.968352 q -0.22957,-1.180666 -0.72152,-2.03337 -0.45914,-0.852704 -1.34464,-1.311852 -0.8855,-0.491945 -2.39413,-0.491945 h -3.50921 v 7.805519 z m 4.16513,-11.085149 h 3.6076 q 2.29574,0 3.4764,-0.852703 1.18067,-0.852704 1.18067,-2.623704 0,-1.836593 -1.11507,-2.754889 -1.11508,-0.918297 -3.37802,-0.918297 h -3.77158 z"
       id="text16"
       style="font-weight:600;font-size:32.7963px;font-family:'Bricolage Grotesque';-inkscape-font-specification:'Bricolage Grotesque Semi-Bold';fill:#ffffff;stroke-width:3.07464"
       transform="rotate(-1.8902382)"
       aria-label="PLAN DANGER" />
  </g>
</svg>
