<?xml version="1.0" encoding="UTF-8" standalone="no"?>
<svg
   width="313"
   height="178.55882"
   viewBox="0 0 313 178.55882"
   fill="none"
   version="1.1"
   id="svg15"
   xmlns="http://www.w3.org/2000/svg"
   xmlns:svg="http://www.w3.org/2000/svg">
  <g
     clip-path="url(#clip0_104_12)"
     id="g2"
     transform="translate(-14)">
    <path
       d="M 14,69.0124 323.495,61 327,112.408 19.0106,120 Z"
       fill="#030404"
       id="path1" />
    <path
       d="m 44.853537,-25.803579 -0.1337,-3.6775 4.2532,-0.1547 c 0.3411,-0.0124 0.7244,-0.037 1.1501,-0.0739 0.4469,-0.0376 0.8816,-0.1174 1.3041,-0.2395 0.4431,-0.1442 0.8408,-0.3615 1.1931,-0.6518 0.3524,-0.2903 0.6262,-0.6845 0.8216,-1.1826 0.2159,-0.5202 0.3099,-1.1641 0.282,-1.9316 -0.0279,-0.7675 -0.1681,-1.3921 -0.4204,-1.8739 -0.231,-0.4826 -0.5324,-0.8452 -0.9042,-1.0879 -0.3511,-0.2647 -0.7312,-0.443 -1.1401,-0.5349 -0.4098,-0.1132 -0.7962,-0.1738 -1.1594,-0.182 -0.3427,-0.0302 -0.6313,-0.0411 -0.8658,-0.0325 l -4.7968,0.1744 -0.1314,-3.6136 5.0846,-0.1849 c 1.3005,-0.0473 2.4895,0.0696 3.5671,0.3506 1.0768,0.2597 2.0102,0.6847 2.8002,1.275 0.8105,0.5683 1.4358,1.3247 1.8757,2.2694 0.4605,0.9225 0.7144,2.034 0.7617,3.3345 0.0589,1.6203 -0.2642,3.0089 -0.9692,4.166 -0.7059,1.1357 -1.7732,2.0178 -3.202,2.6461 -1.4074,0.6276 -3.1878,0.9805 -5.341,1.0588 z m -3.01,6.162 -0.7676,-21.1065 4.605,-0.1675 0.7675,21.106 z m 18.2317,-0.664 -0.7676,-21.1056 4.605,-0.1674 0.7675,21.106 z m 0.9274,-0.033 -0.1419,-3.9017 12.3759,-0.45 0.142,3.9017 z m 12.145,-0.442 6.46,-21.3688 6.46,-0.2349 7.962,20.8447 -4.988,0.181 -5.879,-17.2377 -0.383,0.014 -4.643,17.6207 z m 3.849,-4.2386 -0.117,-3.1979 13.527,-0.4919 0.117,3.1979 z m 17.887,3.4486 -0.768,-21.1064 6.076003,-0.221 9.628,14.6678 0.255,-0.0093 -0.737,-14.9911 4.509,-0.164 0.768,21.106 -5.597,0.204 -10.129003,-15.2584 -0.256,0.0093 0.76,15.5991 z m 32.102003,-1.168 -0.768,-21.1059 4.637,-0.1686 0.768,21.1065 z m -6.542,-16.9893 -0.142,-3.9014 16.501,-0.6001 0.142,3.9014 z m 18.08,16.5703 -0.768,-21.1065 8.507,-0.3093 c 1.002,-0.0365 1.943,0.0147 2.823,0.1534 0.901,0.1167 1.719,0.3218 2.456,0.6152 0.736,0.2934 1.37,0.6867 1.9,1.1797 0.551,0.471 0.977,1.0319 1.278,1.6827 0.301,0.6508 0.468,1.4133 0.5,2.2873 0.025,0.7036 -0.068,1.3581 -0.281,1.9635 -0.192,0.6047 -0.513,1.1501 -0.965,1.6362 -0.453,0.4648 -1.037,0.8596 -1.751,1.1844 -0.714,0.3248 -1.559,0.5584 -2.536,0.7006 l 0.014,0.3838 c 1.177,0.0639 2.103,0.2971 2.779,0.6994 0.697,0.3803 1.25,0.9045 1.659,1.5728 0.408,0.6683 0.757,1.4668 1.047,2.3955 l 1.374,4.3053 -5.085,0.185 -1.073,-3.9641 c -0.2,-0.8252 -0.48,-1.4768 -0.839,-1.9548 -0.359,-0.4779 -0.82,-0.8134 -1.382,-1.0064 -0.54,-0.1938 -1.216,-0.276 -2.026,-0.2465 l -3.294,0.1197 0.268,7.3551 z m 4.209,-11.0407 2.846,-0.1035 c 0.363,-0.0132 0.757,-0.0382 1.182,-0.075 0.447,-0.0376 0.893,-0.1072 1.338,-0.2088 0.444,-0.1229 0.842,-0.3081 1.196,-0.5558 0.376,-0.2485 0.673,-0.5795 0.893,-0.9931 0.219,-0.4349 0.317,-0.9722 0.293,-1.6118 -0.024,-0.6822 -0.162,-1.2322 -0.412,-1.6501 -0.229,-0.4186 -0.528,-0.7386 -0.899,-0.9599 -0.371,-0.2213 -0.761,-0.3673 -1.169,-0.4378 -0.388,-0.0927 -0.752,-0.1434 -1.094,-0.1524 -0.342,-0.0089 -0.62,-0.0095 -0.833,-0.0017 l -3.581,0.1302 z m 13.61,10.3927 6.46,-21.3694 6.46,-0.2349 7.962,20.8444 -4.988,0.1814 -5.879,-17.2377 -0.383,0.0139 -4.643,17.6203 z m 3.849,-4.2392 -0.117,-3.1978 13.527,-0.492 0.117,3.1979 z m 17.887,3.4483 -0.768,-21.1061 6.076,-0.221 9.628,14.6678 0.255,-0.0093 -0.737,-14.9911 4.509,-0.1639 0.768,21.106 -5.597,0.2035 -10.129,-15.2579 -0.256,0.0093 0.76,15.5987 z m 41.242,3.3349 c -1.482,0.353 -2.744,0.581 -3.786,0.682 -1.042,0.124 -1.98,0.158 -2.814,0.103 -0.813,-0.035 -1.617,-0.123 -2.412,-0.265 -0.772,-0.121 -1.62,-0.25 -2.543,-0.388 -0.922,-0.115 -2.003,-0.194 -3.243,-0.234 -1.239,-0.019 -2.741,0.046 -4.508,0.196 l -0.138,-3.8054 c 0.64,-0.0019 1.376,-0.0287 2.206,-0.0802 0.832,-0.0303 1.704,-0.1047 2.618,-0.2233 0.914,-0.0973 1.817,-0.2262 2.708,-0.3867 0.89,-0.1605 1.716,-0.3506 2.477,-0.5704 0.781,-0.2419 1.432,-0.5217 1.954,-0.8396 l -0.012,-0.3517 c -1.645,0.5508 -3.13,0.8289 -4.453,0.8343 -1.302,0.0047 -2.463,-0.2199 -3.483,-0.6738 -0.998,-0.4547 -1.833,-1.0968 -2.503,-1.9263 -0.672,-0.8508 -1.199,-1.8457 -1.582,-2.9845 -0.362,-1.1396 -0.568,-2.4023 -0.618,-3.7881 -0.058,-1.5989 0.102,-3.067 0.48,-4.4043 0.378,-1.3586 0.964,-2.5434 1.76,-3.5543 0.796,-1.011 1.802,-1.8054 3.02,-2.3833 1.216,-0.5993 2.645,-0.9288 4.286,-0.9885 2.047,-0.0744 3.811,0.299 5.293,1.1204 1.502,0.8206 2.667,2.0271 3.494,3.6194 0.826,1.5924 1.281,3.5398 1.365,5.8423 0.071,1.9613 -0.146,3.6343 -0.65,5.0189 -0.484,1.3625 -1.201,2.4986 -2.15,3.4084 -0.949,0.9097 -2.096,1.6453 -3.442,2.2065 -1.325,0.5392 -2.804,0.9666 -4.436,1.2821 l 0.045,0.3506 c 1.156,0.1074 2.205,0.1867 3.146,0.2378 0.942,0.0727 1.829,0.0937 2.66,0.0637 0.853,-0.0313 1.683,-0.1149 2.489,-0.2509 0.827,-0.1369 1.705,-0.3609 2.633,-0.6722 z m -9.917,-7.6442 c 0.661,-0.0241 1.286,-0.1535 1.875,-0.3884 0.589,-0.2563 1.118,-0.6598 1.589,-1.2106 0.471,-0.5508 0.829,-1.2896 1.072,-2.2164 0.244,-0.9482 0.339,-2.1364 0.287,-3.5648 -0.039,-1.066 -0.158,-2.0009 -0.358,-2.8048 -0.201,-0.8253 -0.472,-1.5199 -0.812,-2.0839 -0.341,-0.564 -0.731,-1.0194 -1.171,-1.3664 -0.44,-0.3682 -0.93,-0.6279 -1.469,-0.7791 -0.518,-0.1519 -1.075,-0.217 -1.672,-0.1953 -0.896,0.0325 -1.729,0.2977 -2.501,0.7954 -0.751,0.4756 -1.342,1.2549 -1.772,2.3379 -0.43,1.083 -0.612,2.5413 -0.546,4.3747 0.052,1.4071 0.233,2.5746 0.544,3.5026 0.311,0.928 0.722,1.6602 1.233,2.1967 0.51,0.5364 1.079,0.9107 1.706,1.1227 0.648,0.2112 1.313,0.3045 1.995,0.2797 z m 20.731,2.8644 c -1.236,0.045 -2.36,-0.0529 -3.372,-0.2936 -0.99,-0.2202 -1.857,-0.5622 -2.599,-1.0262 -0.744,-0.4853 -1.374,-1.0708 -1.89,-1.7565 -0.516,-0.707 -0.908,-1.504 -1.175,-2.3909 -0.267,-0.8869 -0.42,-1.8633 -0.459,-2.9292 l -0.466,-12.8236 4.605,-0.1674 0.459,12.6316 c 0.04,1.1086 0.244,2.0191 0.612,2.7316 0.388,0.6903 0.929,1.1937 1.624,1.51 0.694,0.3163 1.532,0.4566 2.513,0.4209 1.002,-0.0364 1.837,-0.2376 2.507,-0.6035 0.67,-0.3659 1.163,-0.9069 1.478,-1.6228 0.315,-0.7373 0.452,-1.6602 0.412,-2.7688 l -0.459,-12.6316 4.605,-0.1675 0.466,12.8235 c 0.051,1.4071 -0.095,2.6612 -0.44,3.7625 -0.345,1.0799 -0.898,2.0073 -1.66,2.7821 -0.74,0.7741 -1.679,1.374 -2.816,1.7996 -1.116,0.4248 -2.431,0.6648 -3.945,0.7198 z m 11.477,-0.8656 -0.768,-21.1061 4.669,-0.1698 0.768,21.1061 z"
       fill="#ffffff"
       id="path2"
       style="fill:#ffffff" />
    <path
       d="m 97.599796,99.914113 v -3.079997 h 4.135994 q 2.22933,0 3.344,-0.850665 1.11466,-0.850666 1.11466,-2.815997 0,-1.818665 -1.02666,-2.727997 -1.02667,-0.909332 -3.13867,-0.909332 h -4.429324 v -3.050663 h 4.722664 q 1.672,0 3.05066,0.410666 1.408,0.381333 2.43466,1.231998 1.056,0.821333 1.64267,2.082665 0.58666,1.261332 0.58666,2.991996 0,2.170664 -0.99733,3.666663 -0.968,1.495998 -2.90399,2.287997 -1.90667,0.762666 -4.752,0.762666 z m -2.493331,5.925327 V 86.479462 h 3.725329 v 19.359978 z m 16.807975,0 V 86.479462 h 3.72533 v 19.359978 z m 0.85067,0 v -3.22666 h 10.85332 v 3.22666 z m 11.59643,0 6.65865,-19.359978 h 4.86933 l 6.65866,19.359978 h -4.01866 l -5.016,-16.279982 h -0.17599 l -4.98667,16.279982 z m 3.40266,-3.84266 v -2.757333 h 11.82132 v 2.757333 z m 16.33867,3.84266 V 86.479462 h 5.07466 l 8.24266,14.637318 h 0.0587 V 86.479462 h 3.696 v 19.359978 h -4.84 l -8.47732,-14.93065 h -0.0587 v 14.93065 z m 34.43729,0.41067 q -2.288,0 -3.98933,-0.76267 -1.70133,-0.76267 -2.816,-2.112 -1.11466,-1.37866 -1.67199,-3.19733 -0.528,-1.818662 -0.528,-3.93066 0,-2.199997 0.55733,-4.047995 0.58666,-1.877331 1.672,-3.226663 1.11466,-1.378665 2.78666,-2.141331 1.672,-0.762666 3.872,-0.762666 1.90666,0 3.34399,0.557333 1.43733,0.557333 2.34667,1.554665 0.90933,0.967999 1.31999,2.258664 0.44,1.290665 0.352,2.786664 l -3.43199,0.469332 q -0.0293,-1.407998 -0.49867,-2.40533 -0.46933,-0.997332 -1.34933,-1.525332 -0.88,-0.557333 -2.17066,-0.557333 -1.08534,0 -1.99467,0.44 -0.90933,0.410666 -1.55466,1.290665 -0.64534,0.850666 -0.99734,2.141331 -0.352,1.261332 -0.352,2.991997 0,2.199997 0.58667,3.783995 0.616,1.554664 1.76,2.405334 1.17333,0.85066 2.84533,0.85066 1.496,0 2.43466,-0.67466 0.968,-0.67467 1.408,-1.90667 0.46933,-1.231996 0.38133,-2.874661 l 3.52,0.381333 q 0.088,1.671998 -0.32267,3.167998 -0.38133,1.46666 -1.34933,2.61066 -0.968,1.144 -2.49333,1.78933 -1.52533,0.64534 -3.66666,0.64534 z m 21.85333,-0.41067 V 86.479462 h 3.72533 v 19.359978 z m -12.02665,0 V 86.479462 h 3.72533 v 19.359978 z m 2.52267,-8.154658 v -3.19733 h 11.38132 v 3.19733 z m 15.92797,8.154658 V 86.479462 h 3.75466 v 19.359978 z m 6.4533,0 V 86.479462 h 3.72533 v 19.359978 z m 0.85067,0 v -3.22666 h 10.85332 v 3.22666 z m 12.43729,0 V 86.479462 h 3.72532 v 19.359978 z m 0.85066,0 v -3.22666 h 10.85332 v 3.22666 z"
       id="text15"
       style="font-weight:600;font-size:29.3333px;font-family:'Bricolage Grotesque';-inkscape-font-specification:'Bricolage Grotesque Semi-Bold';fill:#ffffff"
       transform="rotate(-2.3581479)"
       aria-label="PLAN CHILL" />
  </g>
  <path
     d="m 84.9315,55.7117 -0.373,-3.1591 c 0.177,0.0273 0.353,0.0465 0.53,0.0577 0.176,0.0113 0.304,0.0158 0.384,0.0137 0.624,-0.0169 1.101,-0.1258 1.432,-0.3268 0.346,-0.2175 0.578,-0.5358 0.694,-0.9551 0.133,-0.4358 0.19,-0.9895 0.172,-1.6613 l -0.272,-10.0523 3.455,-0.0933 0.272,10.0763 c 0.035,1.2955 -0.119,2.3961 -0.463,3.3017 -0.344,0.9056 -0.901,1.6009 -1.672,2.0859 -0.756,0.4686 -1.749,0.7195 -2.981,0.7528 -0.176,0.0048 -0.352,0.0015 -0.528,-0.0097 -0.177,-0.0113 -0.393,-0.0214 -0.65,-0.0305 z m 15.035,-0.2382 c -0.927,0.0251 -1.77,-0.0562 -2.527,-0.2438 -0.741,-0.172 -1.388,-0.4346 -1.942,-0.7878 -0.554,-0.3692 -1.022,-0.8127 -1.405,-1.3306 -0.382,-0.5338 -0.67,-1.1343 -0.865,-1.8013 -0.194,-0.667 -0.302,-1.4003 -0.323,-2.2 l -0.26,-9.6205 3.455,-0.0934 0.256,9.4766 c 0.022,0.8317 0.169,1.516 0.439,2.0529 0.287,0.5204 0.689,0.9017 1.208,1.1438 0.518,0.242 1.146,0.3531 1.881,0.3333 0.752,-0.0203 1.38,-0.1654 1.885,-0.4351 0.505,-0.2697 0.878,-0.672 1.12,-1.2067 0.241,-0.5507 0.351,-1.2419 0.328,-2.0736 l -0.256,-9.4766 3.455,-0.0933 0.26,9.6205 c 0.028,1.0556 -0.09,1.9952 -0.356,2.8186 -0.266,0.8075 -0.688,1.4992 -1.265,2.0749 -0.56,0.5754 -1.269,1.0187 -2.124,1.3299 -0.84,0.3108 -1.828,0.4816 -2.964,0.5122 z m 14.837,-0.4008 c -1.312,0.0354 -2.488,-0.2449 -3.528,-0.841 -1.025,-0.5966 -1.841,-1.4869 -2.449,-2.6709 -0.609,-1.2 -0.937,-2.6716 -0.984,-4.415 -0.035,-1.2795 0.094,-2.4354 0.387,-3.4677 0.308,-1.0327 0.78,-1.9258 1.416,-2.6792 0.636,-0.7535 1.428,-1.3431 2.377,-1.7689 0.949,-0.4258 2.063,-0.6559 3.342,-0.6905 0.992,-0.0268 1.883,0.0772 2.674,0.3119 0.79,0.2187 1.463,0.5447 2.019,0.9778 0.572,0.4327 1.01,0.9651 1.315,1.5971 0.321,0.6155 0.492,1.3072 0.513,2.0749 l -3.242,0.8799 c -0.03,-0.5274 -0.138,-0.9807 -0.325,-1.3598 -0.17,-0.3795 -0.41,-0.6931 -0.721,-0.9408 -0.295,-0.2482 -0.644,-0.4228 -1.047,-0.5239 -0.387,-0.1176 -0.805,-0.1704 -1.252,-0.1583 -0.544,0.0147 -1.053,0.1245 -1.528,0.3294 -0.475,0.2049 -0.89,0.5282 -1.246,0.97 -0.357,0.4258 -0.63,0.9854 -0.819,1.6788 -0.19,0.6933 -0.271,1.5358 -0.244,2.5275 0.027,0.9916 0.153,1.8365 0.38,2.5346 0.243,0.6977 0.555,1.2575 0.934,1.6794 0.395,0.4055 0.843,0.6975 1.344,0.876 0.517,0.1781 1.064,0.2594 1.639,0.2438 0.704,-0.019 1.301,-0.1551 1.79,-0.4084 0.505,-0.2538 0.896,-0.6165 1.171,-1.0881 0.275,-0.4876 0.419,-1.0757 0.433,-1.7643 l -2.879,0.0778 -0.068,-2.4951 6.19,-0.1672 0.078,2.8789 0.142,5.2541 -2.423,0.0655 -0.065,-4.1518 -0.359,0.0097 c -0.166,0.9808 -0.456,1.813 -0.869,2.4964 -0.398,0.667 -0.937,1.1857 -1.615,1.5562 -0.663,0.354 -1.49,0.5444 -2.481,0.5712 z m 8.269,-0.5596 4.995,-15.9807 4.846,-0.1309 5.826,15.6883 -3.743,0.1012 -4.288,-12.969 -0.288,0.0078 -3.605,13.1822 z m 2.916,-3.1519 -0.064,-2.3991 10.148,-0.2742 0.065,2.3991 z m 13.391,2.7113 -0.428,-15.8342 6.382,-0.1724 c 0.752,-0.0203 1.457,0.0246 2.116,0.1349 0.675,0.0938 1.288,0.2533 1.838,0.4785 0.55,0.2252 1.022,0.5246 1.417,0.8981 0.409,0.3571 0.725,0.7807 0.946,1.2709 0.222,0.4902 0.341,1.0632 0.359,1.7189 0.014,0.5278 -0.061,1.018 -0.225,1.4706 -0.147,0.4522 -0.392,0.859 -0.735,1.2203 -0.343,0.3454 -0.783,0.6374 -1.321,0.876 -0.537,0.2386 -1.173,0.4079 -1.907,0.5077 l 0.008,0.2879 c 0.882,0.0562 1.575,0.2376 2.08,0.544 0.52,0.2901 0.931,0.6872 1.232,1.1912 0.302,0.504 0.558,1.1053 0.769,1.8039 l 1,3.2382 -3.815,0.103 -0.776,-2.9801 c -0.145,-0.6203 -0.35,-1.1109 -0.616,-1.4719 -0.266,-0.3609 -0.609,-0.6158 -1.029,-0.7645 -0.404,-0.1491 -0.91,-0.2155 -1.518,-0.1991 l -2.471,0.0668 0.149,5.518 z m 3.234,-8.2503 2.136,-0.0577 c 0.271,-0.0074 0.567,-0.0234 0.887,-0.048 0.335,-0.0251 0.67,-0.0741 1.004,-0.1472 0.334,-0.089 0.634,-0.2252 0.901,-0.4085 0.283,-0.1837 0.509,-0.4299 0.677,-0.7385 0.167,-0.3246 0.244,-0.7269 0.231,-1.2067 -0.014,-0.5118 -0.113,-0.9253 -0.298,-1.2404 -0.168,-0.3156 -0.391,-0.5576 -0.667,-0.7262 -0.277,-0.1686 -0.568,-0.2808 -0.874,-0.3366 -0.29,-0.0722 -0.563,-0.1128 -0.819,-0.1219 -0.257,-0.0091 -0.465,-0.0114 -0.625,-0.0071 l -2.687,0.0726 z m 10.135,7.8891 4.994,-15.9807 4.846,-0.1309 5.826,15.6884 -3.743,0.1011 -4.288,-12.9689 -0.288,0.0077 -3.605,13.1822 z m 2.915,-3.1519 -0.064,-2.3991 10.148,-0.2742 0.065,2.3991 z m 5.661,-14.4381 -2.807,0.0758 1.555,-3.7393 3.599,-0.0973 z m 13.482,17.3302 c -1.056,0.0285 -2.003,-0.058 -2.841,-0.2594 -0.821,-0.1859 -1.525,-0.487 -2.113,-0.9033 -0.587,-0.4162 -1.041,-0.9322 -1.362,-1.5477 -0.321,-0.6316 -0.501,-1.363 -0.539,-2.1943 l 3.071,-0.9473 c 0.036,0.7353 0.22,1.3386 0.553,1.8098 0.333,0.4711 0.79,0.8109 1.372,1.0193 0.582,0.2083 1.233,0.3028 1.953,0.2834 0.671,-0.0182 1.237,-0.1135 1.696,-0.286 0.46,-0.1725 0.806,-0.4059 1.038,-0.7003 0.248,-0.2948 0.367,-0.6181 0.358,-0.97 -0.011,-0.4158 -0.18,-0.7474 -0.507,-0.9946 -0.327,-0.2633 -0.765,-0.4756 -1.314,-0.6368 -0.548,-0.1612 -1.169,-0.3125 -1.861,-0.4539 -0.757,-0.1716 -1.506,-0.3595 -2.248,-0.5635 -0.726,-0.2045 -1.397,-0.4664 -2.014,-0.7859 -0.601,-0.3359 -1.085,-0.779 -1.452,-1.3292 -0.367,-0.5503 -0.562,-1.2493 -0.585,-2.097 -0.026,-0.9757 0.199,-1.822 0.676,-2.5392 0.476,-0.7331 1.173,-1.3041 2.09,-1.7131 0.917,-0.4249 2.015,-0.6546 3.295,-0.6892 1.295,-0.035 2.42,0.1347 3.375,0.509 0.97,0.3739 1.729,0.9296 2.277,1.6671 0.548,0.7215 0.828,1.6022 0.84,2.6423 l -3.123,0.8286 c 0.003,-0.4962 -0.081,-0.9261 -0.251,-1.2897 -0.154,-0.3799 -0.378,-0.694 -0.673,-0.9421 -0.279,-0.2486 -0.628,-0.4312 -1.047,-0.5479 -0.404,-0.1172 -0.861,-0.1688 -1.373,-0.155 -0.608,0.0164 -1.125,0.1104 -1.553,0.282 -0.412,0.1552 -0.726,0.3718 -0.943,0.6497 -0.216,0.278 -0.32,0.5929 -0.31,0.9448 0.011,0.4318 0.189,0.7792 0.532,1.042 0.343,0.2468 0.796,0.4506 1.361,0.6114 0.58,0.1604 1.225,0.3191 1.933,0.476 0.693,0.1414 1.393,0.3145 2.103,0.5194 0.726,0.1885 1.389,0.4507 1.99,0.7865 0.618,0.3355 1.118,0.7941 1.502,1.376 0.383,0.5658 0.587,1.2886 0.611,2.1683 0.027,0.9916 -0.214,1.8464 -0.723,2.5644 -0.493,0.7176 -1.23,1.2817 -2.211,1.6924 -0.982,0.4106 -2.176,0.635 -3.583,0.673 z m 11.857,-0.6565 -0.428,-15.8342 3.455,-0.0934 0.428,15.8342 z m 2.423,-0.0655 -0.077,-2.8549 9.405,-0.2541 0.077,2.8549 z m -0.181,-6.7175 -0.069,-2.5671 8.253,-0.223 0.069,2.5671 z m -0.17,-6.2857 -0.076,-2.831 9.38,-0.2535 0.077,2.831 z m 10.903,12.7181 -0.428,-15.8342 4.559,-0.1232 7.117,11.0678 0.192,-0.0051 -0.448,-11.248 3.383,-0.0914 0.428,15.8342 -4.199,0.1134 -7.489,-11.5139 -0.192,0.0052 0.46,11.7038 z"
     fill="#030404"
     id="path3" />
  <path
     d="m 286.48,162.854 c 0.97,0.25 2,0.32 3,0.46 1.19,0.17 2.38,0.53 3.54,0.84 2.21,0.58 4.42,1.22 6.57,1.96 1.41,0.48 2.85,0.96 4.18,1.63 0.2,0.1 0.66,0.24 0.79,0.42 0.18,0.24 0.03,0.32 -0.21,0.52 -0.45,0.36 -1.05,0.51 -1.62,0.63 -1.02,0.22 -2.1,0.33 -3.13,0.51 -0.71,0.12 -1.65,0.22 -2.13,0.82 1.35,1 2.5,2.27 3.77,3.36 1.1,0.95 2.16,1.99 3.17,3.05 0.2,0.21 1.07,0.98 0.88,1.34 -0.24,0.45 -1.32,-0.15 -1.56,-0.28 -1.7,-0.95 -3.52,-1.54 -5.33,-2.24 -1.78,-0.69 -3.52,-1.48 -5.28,-2.23 -1.42,-0.6 -2.92,-1.19 -4.25,-1.99 -0.48,-0.29 -0.96,-0.51 -1.42,-0.82 -0.28,-0.19 -0.88,-0.43 -1.07,-0.71 -0.73,-1.01 2.34,-0.81 2.32,-1.66 -0.01,-0.58 -0.86,-1.24 -1.19,-1.67 -0.44,-0.57 -0.86,-1.2 -1.25,-1.81 -0.22,-0.34 -0.42,-0.62 -0.69,-0.92 -0.12,-0.13 -0.56,-0.52 -0.57,-0.7 -0.02,-0.57 0.78,-0.81 1.24,-0.67"
     fill="#dd4c97"
     id="path4" />
  <path
     d="m 289.03,163.544 c 4.05,1.13 8.19,1.98 12.21,3.19 0.49,0.15 1.34,0.34 1.65,0.79 0.34,0.5 -0.41,0.66 -0.79,0.78 -1.18,0.36 -2.73,0.35 -3.76,1.09 -0.27,0.19 -0.41,0.63 -0.11,0.89 2.25,1.92 4.88,3.68 6.51,6.21 0.16,-0.28 0.33,-0.57 0.49,-0.85 -4.08,0.42 -7.7,-2.27 -11.38,-3.56 -1.18,-0.41 -3.5,-0.67 -4.03,-1.98 -0.28,-0.69 0.42,-0.75 0.96,-0.88 0.67,-0.16 1.33,-0.3 1.93,-0.63 0.29,-0.16 0.4,-0.66 0.11,-0.89 -1.6,-1.28 -3.9,-3.07 -4.24,-5.22 l -0.4,0.7 c 0.17,-0.02 0.34,-0.03 0.51,-0.05 0.72,-0.08 0.72,-1.21 0,-1.13 -0.27,0.03 -0.54,0.04 -0.81,0.09 -0.32,0.06 -0.44,0.42 -0.4,0.7 0.37,2.36 2.79,4.32 4.53,5.72 l 0.11,-0.89 c -1.05,0.57 -3.29,0.38 -3.52,1.91 -0.29,1.92 2.09,2.75 3.49,3.2 2.12,0.68 4.1,1.62 6.16,2.49 2.18,0.93 4.56,1.81 6.97,1.56 0.4,-0.04 0.74,-0.46 0.49,-0.85 -1.69,-2.62 -4.34,-4.44 -6.68,-6.44 -0.04,0.3 -0.08,0.59 -0.11,0.89 0.6,-0.43 1.48,-0.5 2.18,-0.65 0.73,-0.16 1.53,-0.3 2.2,-0.67 1.35,-0.75 0.86,-2.21 -0.31,-2.84 -1.48,-0.81 -3.4,-1.09 -5.01,-1.52 -2.87,-0.77 -5.78,-1.43 -8.64,-2.24 -0.7,-0.2 -1,0.9 -0.3,1.09 z"
     fill="#030404"
     id="path5" />
  <path
     d="m 72.0999,152.818 c -0.66,0.25 -2.41,0.47 -2.28,-0.27 0.03,-0.18 0.2099,-0.29 0.3499,-0.41 0.14,-0.12 0.2501,-0.34 0.1201,-0.48 -0.08,-0.08 -0.2101,-0.08 -0.3301,-0.06 -0.48,0.07 -0.95,0.27 -1.43,0.17 -0.04,0 -0.08,-0.02 -0.1,-0.05 -0.03,-0.04 -0.02,-0.09 0,-0.14 0.12,-0.38 0.57,-0.62 0.65,-0.98 -0.03,-0.03 -0.06,-0.05 -0.08,-0.08 -0.51,0.29 -1.0699,0.5 -1.6499,0.62 -0.06,-0.56 0.25,-1.08 0.63,-1.5 0.02,-0.02 0.04,-0.04 0.06,-0.06 -0.42,-0.45 -0.7801,-0.91 -1.0401,-1.35 -3.05,2.64 -6.74,4.53 -10.67,5.44 0.2,0.34 0.4,0.68 0.61,1.02 0.75,0 1.61,0.18 1.42,0.69 -0.06,0.17 -0.26,0.25 -0.41,0.34 -0.12,0.07 -0.1999,0.21 -0.1899,0.34 0.04,0.06 0.0699,0.12 0.1099,0.18 0.06,0.03 0.14,0.04 0.21,0.05 0.48,0 0.98,-0.11 1.44,0.06 0.04,0.01 0.07,0.03 0.09,0.06 0.02,0.04 0,0.1 -0.02,0.14 -0.21,0.4 -0.8099,0.55 -0.8599,0.99 0.59,-0.23 1.2199,-0.36 1.8499,-0.38 -0.03,0.56 -0.43,1.03 -0.86,1.38 -0.11,0.09 -0.2299,0.17 -0.3399,0.26 0.06,0.11 0.13,0.22 0.19,0.33 4.81,-0.86 9.3299,-2.92 13.1299,-5.99 -0.19,-0.1 -0.3899,-0.21 -0.5999,-0.33 z"
     fill="#dd4c97"
     id="path6" />
  <path
     d="m 72.1598,153.728 0.43,-0.42 c 0.13,-0.13 0.16,-0.37 -0.02,-0.48 -0.64,-0.4 -2.05,-0.31 -2.06,-1.16 0,-0.17 -0.1,-0.3 -0.28,-0.32 -0.76,-0.09 -1.37,0.53 -0.7,-0.51 0.14,-0.21 -0.03,-0.52 -0.3,-0.47 -2.11,0.44 -0.9,0.33 -0.9,-0.82 0,-0.52 -0.8,-1.13 -1.08,-1.44 -0.1,-0.12 -0.3,-0.15 -0.42,-0.04 -2.99,2.87 -6.7,4.15 -10.58,5.35 -0.14,0.04 -0.29,0.18 -0.24,0.35 0.09,0.32 0.18,0.64 0.26,0.97 0.04,0.13 0.13,0.23 0.27,0.24 1.76,0.15 0.4,0.5 0.9,1.19 0.13,0.17 0.27,0.34 0.44,0.48 0.55,0.43 1.66,-0.13 0.69,0.41 -0.24,0.13 -0.22,0.57 0.11,0.57 1.19,-0.01 1.27,-0.19 0.35,0.56 -0.11,0.09 -0.12,0.23 -0.08,0.36 0.09,0.24 0.18,0.49 0.27,0.73 0.05,0.12 0.2,0.19 0.33,0.17 4.59,-0.8 9.43,-3.12 13.14,-5.94 0.31,-0.23 -0.08,-0.69 -0.39,-0.46 -2.04,1.55 -4.23,2.83 -6.63,3.74 -0.96,0.36 -1.95,0.65 -2.92,1 -0.53,0.19 -3.84,1.32 -2.01,-0.24 0.19,-0.16 0.1,-0.53 -0.17,-0.53 -1.23,0.01 -1.08,0.5 -0.76,-0.33 0.07,-0.19 -0.07,-0.38 -0.26,-0.4 -0.61,-0.07 -1.77,-0.13 -1.04,-0.76 0.11,-0.09 0.13,-0.23 0.08,-0.36 -0.21,-0.51 -0.43,-0.25 -0.7,-0.61 -0.4,-0.52 -1.11,-0.18 -0.08,-1 0.47,-0.38 1.43,-0.47 1.99,-0.67 1.75,-0.63 3.46,-1.37 5.01,-2.39 1.05,-0.69 3.95,-2.68 2.14,0.42 -0.13,0.21 0.03,0.52 0.3,0.47 0.97,-0.2 1.66,-0.71 1.06,0.24 -0.15,0.23 0.04,0.5 0.3,0.47 0.7,-0.34 1,-0.12 0.87,0.64 -0.07,0.13 0.04,0.35 0.18,0.38 0.32,0.08 1.93,0.32 2.12,0.14 -0.28,0.27 0.11,0.73 0.39,0.46 z"
     fill="#030404"
     id="path7" />
  <path
     d="m 50.6826,28.8905 c -0.8069,0.3056 -2.9463,0.5746 -2.7874,-0.3301 0.0367,-0.2201 0.2567,-0.3545 0.4279,-0.5012 0.1711,-0.1468 0.3056,-0.4157 0.1467,-0.5869 -0.0978,-0.0978 -0.2567,-0.0978 -0.4034,-0.0733 -0.5869,0.0856 -1.1614,0.3301 -1.7483,0.2078 -0.0489,0 -0.0978,-0.0245 -0.1222,-0.0611 -0.0367,-0.0489 -0.0245,-0.11 0,-0.1712 0.1467,-0.4645 0.6968,-0.7579 0.7946,-1.1981 -0.0367,-0.0366 -0.0733,-0.0611 -0.0978,-0.0977 -0.6235,0.3545 -1.3081,0.6112 -2.0171,0.7579 -0.0734,-0.6846 0.3056,-1.3203 0.7702,-1.8338 0.0244,-0.0244 0.0489,-0.0489 0.0733,-0.0733 -0.5135,-0.5502 -0.9536,-1.1125 -1.2714,-1.6505 -3.7288,3.2275 -8.2399,5.5381 -13.0445,6.6506 0.2445,0.4157 0.489,0.8313 0.7458,1.247 0.9169,0 1.9682,0.2201 1.7359,0.8436 -0.0733,0.2078 -0.3178,0.3056 -0.5012,0.4156 -0.1467,0.0856 -0.2445,0.2567 -0.2322,0.4157 0.0489,0.0733 0.0855,0.1467 0.1344,0.2201 0.0734,0.0366 0.1712,0.0488 0.2567,0.0611 0.5869,0 1.1981,-0.1345 1.7605,0.0733 0.0489,0.0122 0.0856,0.0367 0.11,0.0734 0.0245,0.0489 0,0.1222 -0.0244,0.1711 -0.2568,0.489 -0.9903,0.6724 -1.0514,1.2103 0.7213,-0.2811 1.4915,-0.4401 2.2617,-0.4645 -0.0367,0.6846 -0.5257,1.2592 -1.0514,1.6871 -0.1345,0.11 -0.2812,0.2078 -0.4156,0.3178 0.0733,0.1345 0.1589,0.269 0.2322,0.4035 5.8804,-1.0514 11.4063,-3.5698 16.0519,-7.323 -0.2323,-0.1223 -0.4768,-0.2568 -0.7335,-0.4035 z"
     fill="#dd4c97"
     id="path8" />
  <path
     d="m 50.7559,30.003 0.5257,-0.5135 c 0.159,-0.159 0.1956,-0.4523 -0.0244,-0.5868 -0.7824,-0.489 -2.5062,-0.379 -2.5184,-1.4182 0,-0.2078 -0.1223,-0.3667 -0.3423,-0.3912 -0.9292,-0.11 -1.6749,0.6479 -0.8558,-0.6235 0.1711,-0.2567 -0.0367,-0.6357 -0.3668,-0.5746 -2.5795,0.5379 -1.1003,0.4035 -1.1003,-1.0024 0,-0.6357 -0.978,-1.3815 -1.3203,-1.7605 -0.1223,-0.1467 -0.3668,-0.1834 -0.5135,-0.0489 -3.6554,3.5087 -8.1909,5.0735 -12.9344,6.5406 -0.1711,0.0489 -0.3545,0.22 -0.2934,0.4279 0.11,0.3912 0.2201,0.7824 0.3179,1.1858 0.0489,0.159 0.1589,0.2812 0.3301,0.2934 2.1516,0.1834 0.489,0.6113 1.1002,1.4548 0.159,0.2079 0.3301,0.4157 0.538,0.5869 0.6723,0.5257 2.0294,-0.159 0.8435,0.5012 -0.2934,0.1589 -0.269,0.6968 0.1345,0.6968 1.4548,-0.0122 1.5526,-0.2323 0.4279,0.6847 -0.1345,0.11 -0.1468,0.2812 -0.0979,0.4401 0.1101,0.2934 0.2201,0.599 0.3301,0.8924 0.0612,0.1467 0.2445,0.2323 0.4035,0.2079 5.6114,-0.9781 11.5285,-3.8144 16.0641,-7.2619 0.379,-0.2812 -0.0978,-0.8435 -0.4768,-0.5624 -2.494,1.895 -5.1713,3.4598 -8.1054,4.5723 -1.1737,0.4401 -2.3839,0.7947 -3.5698,1.2225 -0.648,0.2323 -4.6946,1.6138 -2.4573,-0.2934 0.2323,-0.1956 0.1223,-0.6479 -0.2078,-0.6479 -1.5037,0.0122 -1.3204,0.6113 -0.9292,-0.4035 0.0856,-0.2322 -0.0856,-0.4645 -0.3178,-0.489 -0.7458,-0.0855 -2.1639,-0.1589 -1.2714,-0.9291 0.1344,-0.11 0.1589,-0.2812 0.0977,-0.4401 -0.2567,-0.6235 -0.5257,-0.3056 -0.8557,-0.7458 -0.4891,-0.6357 -1.357,-0.22 -0.0978,-1.2225 0.5746,-0.4646 1.7482,-0.5746 2.4328,-0.8191 2.1394,-0.7702 4.23,-1.6749 6.1249,-2.9218 1.2837,-0.8436 4.829,-3.2764 2.6162,0.5134 -0.1589,0.2568 0.0367,0.6358 0.3668,0.5746 1.1859,-0.2445 2.0294,-0.868 1.2959,0.2934 -0.1834,0.2812 0.0489,0.6113 0.3667,0.5746 0.8558,-0.4156 1.2226,-0.1467 1.0637,0.7825 -0.0856,0.1589 0.0489,0.4278 0.22,0.4645 0.3912,0.0978 2.3595,0.3912 2.5918,0.1712 -0.3423,0.33 0.1344,0.8924 0.4768,0.5623 z"
     fill="#030404"
     id="path9" />
  <path
     d="m 267.354,45.53 c 0.22,-0.68 0.4,-1.37 0.61,-2.04 0.78,-2.44 1.88,-4.74 2.91,-7.08 0.36,-0.82 0.81,-1.5 1.39,-2.17 0.33,-0.38 0.61,-0.77 0.89,-1.2 0.25,-0.39 0.5,-0.69 0.78,-1.04 0.16,0.12 0.19,0.39 0.26,0.57 0.18,0.48 0.2,0.97 0.27,1.47 0.09,0.62 0.23,1.23 0.35,1.85 0.07,0.37 0.18,0.74 0.33,1.09 0.07,0.15 0.18,0.59 0.3,0.69 0.23,0.2 0.88,-0.21 1.11,-0.37 0.54,-0.36 1.07,-0.77 1.59,-1.15 0.51,-0.38 1.06,-0.7 1.56,-1.1 0.47,-0.37 0.89,-0.62 1.45,-0.84 0.33,-0.13 0.89,-0.45 0.87,0.08 -0.04,0.85 -0.63,1.87 -1.12,2.56 -0.74,1.03 -1.53,2.04 -2.39,2.97 -0.8,0.87 -1.54,1.76 -2.4,2.58 -0.32,0.31 -0.54,0.63 -0.78,1 -0.35,0.52 -0.86,0.92 -1.29,1.37 -0.37,0.38 -0.74,0.7 -1.17,1.02 -0.21,0.15 -0.33,0.33 -0.58,0.38 -0.28,0.06 -0.26,0 -0.29,-0.27 -0.12,-1 -0.07,-1.99 0.09,-2.98 -0.27,0.24 -0.54,0.52 -0.8,0.77 -0.39,0.37 -0.81,0.68 -1.22,1.04 -0.59,0.51 -1.2,1.01 -1.84,1.46 -0.4,0.28 -1.02,-0.3 -0.9,-0.66 z"
     fill="#dd4c97"
     id="path10" />
  <path
     d="m 267.384,45.71 c 1.24,-3.46 2.36,-6.99 3.89,-10.34 0.33,-0.73 0.71,-1.44 1.17,-2.09 0.29,-0.42 0.58,-1.08 1.13,-0.53 0.28,0.28 0.35,0.8 0.44,1.17 0.18,0.76 0.37,1.52 0.54,2.28 0.07,0.29 0.09,0.76 0.38,0.94 0.29,0.18 0.72,-0.03 1,-0.15 0.66,-0.3 1.24,-0.75 1.81,-1.2 0.57,-0.45 1.13,-0.91 1.68,-1.37 0.26,-0.21 1.55,-1.25 1.29,-0.24 -0.13,0.52 -0.49,1.03 -0.75,1.49 -0.45,0.8 -0.97,1.56 -1.5,2.31 -0.93,1.33 -1.81,2.72 -2.83,3.99 -0.54,0.67 -1.13,1.3 -1.83,1.8 -0.16,0.11 -0.62,0.49 -0.86,0.41 -0.21,-0.06 -0.22,-0.33 -0.23,-0.52 -0.06,-0.89 0.29,-1.81 0.06,-2.69 -0.03,-0.12 -0.14,-0.16 -0.25,-0.14 -0.95,0.15 -1.77,1.25 -2.36,1.91 -0.86,0.95 -1.74,2.33 -3.02,2.71 -0.25,0.08 -0.15,0.47 0.11,0.4 1.22,-0.37 2,-1.49 2.82,-2.39 0.39,-0.43 0.78,-0.88 1.2,-1.29 0.37,-0.37 0.83,-0.87 1.37,-0.95 l -0.25,-0.14 c 0.24,0.92 -0.21,1.9 -0.05,2.83 0.19,1.06 1.17,0.59 1.77,0.15 1.36,-0.97 2.31,-2.38 3.24,-3.74 1.1,-1.62 2.28,-3.18 3.24,-4.89 0.26,-0.46 1.18,-2.09 0.04,-2.15 -0.52,-0.03 -1.02,0.47 -1.39,0.77 -0.65,0.53 -1.29,1.07 -1.96,1.59 -0.4,0.31 -0.81,0.61 -1.26,0.85 -0.18,0.09 -0.44,0.28 -0.65,0.28 -0.29,0 -0.28,-0.14 -0.34,-0.37 -0.21,-0.86 -0.41,-1.73 -0.61,-2.6 -0.14,-0.59 -0.32,-1.39 -0.9,-1.71 -0.48,-0.27 -0.8,0.12 -1.07,0.49 -1.31,1.77 -2.09,3.84 -2.88,5.89 -0.91,2.35 -1.72,4.74 -2.56,7.12 -0.09,0.25 0.31,0.36 0.4,0.11 z"
     fill="#030404"
     id="path11" />
  <path
     d="m 189.44,130.708 c -0.77,-1.27 -1.73,-3.72 -3.07,-4.34 -0.22,1.36 0.56,4.09 -0.26,5.28 -0.73,1.06 -3.49,1.29 -4.74,1.78 1.14,0.35 3.46,0.71 3.95,1.8 0.37,0.82 -0.43,3.38 -0.52,4.34 0.69,-0.55 2.22,-2.78 3.01,-2.73 1.01,0.06 2.04,2.68 2.96,3.1 0,-1.24 -0.34,-2.57 -0.21,-3.83 1.97,-0.14 3.71,-0.38 5.63,-0.82 -0.7,-0.92 -2.26,-1.79 -3.16,-2.56 0.86,-0.57 1.22,-1.64 1.75,-2.51 -0.69,0.19 -2.48,1.09 -3.06,0.73 -0.69,-0.44 -0.47,-2.11 -0.92,-2.7 -0.73,0.83 -1.56,1.87 -2,2.85"
     fill="#030404"
     id="path12" />
  <path
     d="m 189.77,130.518 c -0.89,-1.49 -1.56,-3.63 -3.2,-4.47 -0.28,-0.14 -0.53,0.04 -0.57,0.33 -0.12,0.86 0.03,1.74 0.09,2.6 0.05,0.76 0.2,1.87 -0.32,2.51 -0.47,0.59 -1.43,0.78 -2.12,0.95 -0.79,0.21 -1.61,0.34 -2.38,0.63 -0.34,0.13 -0.38,0.62 0,0.73 1,0.3 3.52,0.53 3.75,1.8 0.12,0.67 -0.12,1.45 -0.25,2.1 -0.13,0.65 -0.28,1.23 -0.35,1.86 -0.04,0.36 0.43,0.46 0.65,0.27 0.5,-0.42 0.91,-0.97 1.35,-1.46 0.32,-0.36 0.97,-1.28 1.52,-1.12 0.59,0.17 1.09,1.23 1.42,1.7 0.34,0.48 0.69,1.02 1.23,1.3 0.25,0.13 0.58,-0.03 0.57,-0.33 -0.03,-1.28 -0.31,-2.54 -0.21,-3.83 l -0.38,0.38 c 1.93,-0.14 3.84,-0.4 5.73,-0.83 0.3,-0.07 0.34,-0.43 0.17,-0.64 -0.86,-1.06 -2.12,-1.7 -3.16,-2.56 l -0.08,0.6 c 0.92,-0.68 1.32,-1.69 1.89,-2.64 0.17,-0.28 -0.11,-0.65 -0.43,-0.56 -0.42,0.12 -0.82,0.3 -1.23,0.45 -0.36,0.13 -1.11,0.49 -1.49,0.32 -0.39,-0.17 -0.41,-0.97 -0.46,-1.33 -0.07,-0.43 -0.13,-0.87 -0.37,-1.24 -0.12,-0.19 -0.43,-0.27 -0.6,-0.08 -0.78,0.9 -1.55,1.84 -2.06,2.93 -0.21,0.44 0.45,0.83 0.66,0.38 0.49,-1.03 1.2,-1.92 1.94,-2.77 l -0.6,-0.08 c 0.53,0.84 0.07,2.44 1.19,2.9 0.97,0.4 2.31,-0.48 3.22,-0.75 -0.14,-0.19 -0.29,-0.37 -0.43,-0.56 -0.48,0.81 -0.83,1.79 -1.61,2.37 -0.18,0.13 -0.28,0.43 -0.08,0.6 1.04,0.86 2.3,1.5 3.16,2.56 l 0.17,-0.64 c -1.82,0.41 -3.66,0.67 -5.53,0.81 -0.22,0.02 -0.36,0.16 -0.38,0.38 -0.09,1.28 0.18,2.55 0.21,3.83 0.19,-0.11 0.38,-0.22 0.57,-0.33 -0.75,-0.39 -1.18,-1.4 -1.67,-2.05 -0.35,-0.46 -0.84,-1.09 -1.48,-1.1 -0.62,-0.02 -1.18,0.59 -1.57,0.99 -0.58,0.6 -1.07,1.31 -1.71,1.85 l 0.65,0.27 c 0.1,-0.84 0.35,-1.66 0.49,-2.49 0.1,-0.63 0.26,-1.39 0,-2 -0.61,-1.43 -2.91,-1.63 -4.19,-2.02 v 0.73 c 1.5,-0.55 3.86,-0.5 4.91,-1.88 1.14,-1.5 0.14,-3.84 0.37,-5.55 l -0.57,0.33 c 1.5,0.77 2.12,2.83 2.93,4.2 0.25,0.42 0.91,0.04 0.66,-0.38 z"
     fill="#030404"
     id="path13" />
  <path
     d="m 181.956,16.7284 c 0.18,-1.96 0.01,-4 0.91,-5.82 0.83,-1.6799501 2.51,-2.8099601 4.24,-3.4299601 0.5,-0.18 0.31,-0.91999 -0.22,-0.79999 -4.2,0.99 -6.85,-2.66 -7.53,-6.38000297 -0.1,-0.53 -0.87,-0.28999894 -0.8,0.220001 0.32,2.32000197 0.52,4.83999197 -1.08,6.75999197 -0.6,0.72 -1.37,1.26001 -2.22,1.63001 -0.63,0.28 -1.81,0.34 -2.2,0.91 -0.14,0.2000501 0,0.5700501 0.25,0.6100501 1.73,0.28 3.61,0.56 5.03,1.6699 0.73,0.57 1.4,1.28 1.85,2.1 0.46,0.83 0.65,1.7701 1.08,2.6201 0.24,0.47 0.96,0.06 0.72,-0.42 -0.5,-0.96 -0.69,-2.0401 -1.28,-2.9501 -0.5,-0.77 -1.15,-1.44 -1.87,-2 -1.52,-1.19 -3.46,-1.5199601 -5.31,-1.8099601 l 0.25,0.6099601 c 0.04,-0.06 1.03,-0.2699601 1.29,-0.3599601 0.48,-0.18 0.96,-0.39 1.4,-0.66 0.85,-0.51 1.56,-1.19999 2.11,-2.01999 1.36,-2.06 1.12,-4.58001 0.8,-6.90000897 -0.27,0.07 -0.53,0.150002 -0.8,0.220002 0.36,1.94999697 1.19,3.90999697 2.6,5.33999697 1.6,1.63 3.75,2.14001 5.95,1.62001 l -0.22,-0.8 c -1.85,0.66 -3.65,1.82999 -4.62,3.5899501 -1.1,2 -0.93,4.25 -1.13,6.45 -0.05,0.53 0.78,0.53 0.83,0 z"
     fill="#030404"
     id="path14" />
  <path
     d="m 21.889873,167.78205 c 0.18,-1.96 0.01,-4 0.91,-5.82 0.82999,-1.68 2.50999,-2.81 4.23999,-3.43 0.5,-0.18 0.31,-0.92 -0.22,-0.8 -4.19999,0.99 -6.84999,-2.66 -7.52999,-6.38 -0.1,-0.53 -0.87,-0.29 -0.8,0.22 0.32,2.32 0.52,4.84 -1.08,6.76 -0.6,0.72 -1.37,1.26 -2.22,1.63 -0.63,0.28 -1.809995,0.34 -2.199995,0.91 -0.14,0.2 0,0.57 0.25,0.61 1.729995,0.28 3.609995,0.56 5.029995,1.67 0.73,0.57 1.4,1.28 1.85,2.1 0.46,0.83 0.65,1.77 1.08,2.62 0.24,0.47 0.96,0.06 0.72,-0.42 -0.5,-0.96 -0.69,-2.04 -1.28,-2.95 -0.5,-0.77 -1.15,-1.44 -1.87,-2 -1.52,-1.19 -3.46,-1.52 -5.309998,-1.81 l 0.25,0.61 c 0.04,-0.06 1.029998,-0.27 1.289998,-0.36 0.48,-0.18 0.96,-0.39 1.4,-0.66 0.85,-0.51 1.56,-1.2 2.11,-2.02 1.36,-2.06 1.12,-4.58 0.8,-6.9 -0.27,0.07 -0.53,0.15 -0.8,0.22 0.36,1.95 1.19,3.91 2.6,5.34 1.6,1.63 3.74999,2.14 5.94999,1.62 l -0.22,-0.8 c -1.85,0.66 -3.65,1.83 -4.61999,3.59 -1.1,2 -0.93,4.25 -1.13,6.45 -0.05,0.53 0.78,0.53 0.83,0 z"
     fill="#030404"
     id="path15" />
  <defs
     id="defs15">
    <clipPath
       id="clip0_104_12">
      <rect
         width="313"
         height="59"
         fill="#ffffff"
         transform="translate(14,61)"
         id="rect15"
         x="0"
         y="0" />
    </clipPath>
  </defs>
</svg>
