<svg width="327" height="177" viewBox="0 0 327 177" fill="none" xmlns="http://www.w3.org/2000/svg">
<path d="M203.44 129.708C202.67 128.438 201.71 125.988 200.37 125.368C200.15 126.728 200.93 129.458 200.11 130.648C199.38 131.708 196.62 131.938 195.37 132.428C196.51 132.778 198.83 133.138 199.32 134.228C199.69 135.048 198.89 137.608 198.8 138.568C199.49 138.018 201.02 135.788 201.81 135.838C202.82 135.898 203.85 138.518 204.77 138.938C204.77 137.698 204.43 136.368 204.56 135.108C206.53 134.968 208.27 134.728 210.19 134.288C209.49 133.368 207.93 132.498 207.03 131.728C207.89 131.158 208.25 130.088 208.78 129.218C208.09 129.408 206.3 130.308 205.72 129.948C205.03 129.508 205.25 127.838 204.8 127.248C204.07 128.078 203.24 129.118 202.8 130.098" fill="#030404"/>
<path d="M14 69.0124L323.495 61L327 112.408L19.0106 120L14 69.0124Z" fill="#030404"/>
<path d="M253.639 84.3475C252.865 82.2918 251.736 80.388 250.304 78.7225C247.825 75.8531 244.566 74 242 74C241.847 74.0001 241.697 74.0351 241.56 74.1024C241.423 74.1696 241.303 74.2673 241.21 74.3879C241.117 74.5086 241.052 74.649 241.021 74.7984C240.991 74.9478 240.994 75.1023 241.033 75.25C241.899 78.5625 240.103 81.3169 238.201 84.2325C236.625 86.6475 235 89.1419 235 92C235 97.5138 239.486 102 245 102C250.514 102 255 97.5138 255 92C255 89.2937 254.543 86.7194 253.639 84.3475ZM247.021 98.1681C246.375 98.8556 245.566 99 245 99C244.434 99 243.625 98.8556 242.979 98.1681C242.334 97.4806 242 96.39 242 95C242 93.4287 242.551 92.2325 243.084 91.0763C243.393 90.405 243.709 89.7219 243.896 88.9906C243.916 88.9111 243.955 88.8377 244.01 88.7768C244.065 88.716 244.134 88.6696 244.211 88.6417C244.289 88.6139 244.371 88.6054 244.453 88.6171C244.534 88.6288 244.611 88.6603 244.677 88.7087C245.249 89.151 245.757 89.6696 246.188 90.25C247.323 91.75 248 93.5263 248 95C248 96.39 247.661 97.4856 247.021 98.1681Z" fill="white"/>
<path d="M86.0999 151.818C85.4399 152.068 83.6899 152.288 83.8199 151.548C83.8499 151.368 84.0298 151.258 84.1698 151.138C84.3098 151.018 84.4199 150.798 84.2899 150.658C84.2099 150.578 84.0798 150.578 83.9598 150.598C83.4798 150.668 83.0098 150.868 82.5298 150.768C82.4898 150.768 82.4498 150.748 82.4298 150.718C82.3998 150.678 82.4098 150.628 82.4298 150.578C82.5498 150.198 82.9998 149.958 83.0798 149.598C83.0498 149.568 83.0198 149.548 82.9998 149.518C82.4898 149.808 81.9299 150.018 81.3499 150.138C81.2899 149.578 81.5999 149.058 81.9799 148.638C81.9999 148.618 82.0199 148.598 82.0399 148.578C81.6199 148.128 81.2598 147.668 80.9998 147.228C77.9498 149.868 74.2598 151.758 70.3298 152.668C70.5298 153.008 70.7298 153.348 70.9398 153.688C71.6898 153.688 72.5498 153.868 72.3598 154.378C72.2998 154.548 72.0998 154.628 71.9498 154.718C71.8298 154.788 71.7499 154.928 71.7599 155.058C71.7999 155.118 71.8298 155.178 71.8698 155.238C71.9298 155.268 72.0098 155.278 72.0798 155.288C72.5598 155.288 73.0598 155.178 73.5198 155.348C73.5598 155.358 73.5898 155.378 73.6098 155.408C73.6298 155.448 73.6098 155.508 73.5898 155.548C73.3798 155.948 72.7799 156.098 72.7299 156.538C73.3199 156.308 73.9498 156.178 74.5798 156.158C74.5498 156.718 74.1498 157.188 73.7198 157.538C73.6098 157.628 73.4899 157.708 73.3799 157.798C73.4399 157.908 73.5099 158.018 73.5699 158.128C78.3799 157.268 82.8998 155.208 86.6998 152.138C86.5098 152.038 86.3099 151.928 86.0999 151.808V151.818Z" fill="#DD4C97"/>
<path d="M95.7879 99.347L95.6542 95.6695L99.9074 95.5148C100.248 95.5024 100.632 95.4778 101.057 95.4409C101.504 95.4033 101.939 95.3235 102.362 95.2014C102.805 95.0572 103.202 94.8399 103.555 94.5496C103.907 94.2593 104.181 93.8651 104.376 93.367C104.592 92.8468 104.686 92.2029 104.658 91.4354C104.63 90.6679 104.49 90.0433 104.238 89.5615C104.007 89.0789 103.705 88.7163 103.334 88.4736C102.983 88.2089 102.602 88.0306 102.194 87.9387C101.784 87.8255 101.397 87.7649 101.034 87.7567C100.692 87.7265 100.403 87.7156 100.168 87.7242L95.3716 87.8986L95.2402 84.285L100.325 84.1001C101.625 84.0528 102.814 84.1697 103.892 84.4507C104.969 84.7104 105.902 85.1354 106.692 85.7257C107.503 86.294 108.128 87.0504 108.568 87.9951C109.028 88.9176 109.282 90.0291 109.33 91.3296C109.388 92.9499 109.065 94.3385 108.36 95.4956C107.654 96.6313 106.587 97.5134 105.158 98.1417C103.751 98.7693 101.971 99.1222 99.8173 99.2005L95.7879 99.347ZM92.7779 105.509L92.0103 84.4025L96.6153 84.235L97.3828 105.341L92.7779 105.509ZM111.01 104.845L110.242 83.7394L114.847 83.572L115.615 104.678L111.01 104.845ZM111.937 104.812L111.795 100.91L124.171 100.46L124.313 104.362L111.937 104.812ZM124.082 104.37L130.542 83.0012L137.002 82.7663L144.964 103.611L139.976 103.792L134.097 86.5543L133.714 86.5683L129.071 104.189L124.082 104.37ZM127.931 100.131L127.814 96.9335L141.341 96.4416L141.458 99.6395L127.931 100.131ZM145.818 103.58L145.05 82.4736L151.126 82.2526L160.754 96.9204L161.009 96.9111L160.272 81.92L164.781 81.756L165.549 102.862L159.952 103.066L149.823 87.8076L149.567 87.8169L150.327 103.416L145.818 103.58ZM186.938 102.084L186.17 80.9782L190.775 80.8107L191.543 101.917L186.938 102.084ZM173.475 102.574L172.707 81.4678L177.312 81.3003L178.079 102.406L173.475 102.574ZM176.066 93.7058L175.928 89.9003L188.527 89.4421L188.666 93.2476L176.066 93.7058ZM203.116 101.944C201.603 101.999 200.23 101.814 198.997 101.389C197.786 100.943 196.737 100.276 195.851 99.3905C194.964 98.4835 194.272 97.3665 193.775 96.0397C193.278 94.6916 192.998 93.1434 192.934 91.3952C192.843 88.9009 193.195 86.828 193.989 85.1768C194.782 83.5042 195.91 82.2357 197.373 81.3713C198.856 80.4848 200.557 80.0066 202.476 79.9369C203.968 79.8826 205.32 80.0683 206.531 80.4939C207.742 80.9195 208.791 81.5858 209.678 82.4928C210.564 83.3785 211.256 84.5061 211.754 85.8756C212.273 87.223 212.564 88.7921 212.63 90.5829C212.695 92.3737 212.518 93.9705 212.099 95.3733C211.68 96.7548 211.05 97.9305 210.21 98.9003C209.391 99.848 208.382 100.579 207.184 101.092C205.986 101.605 204.63 101.889 203.116 101.944ZM203.108 98.198C203.705 98.1762 204.298 98.0586 204.888 97.845C205.478 97.6101 206.008 97.2279 206.48 96.6984C206.973 96.1682 207.341 95.4396 207.585 94.5128C207.849 93.5639 207.956 92.3859 207.905 90.9789C207.844 89.2946 207.58 87.9166 207.114 86.8449C206.648 85.7731 206.022 84.9847 205.235 84.4796C204.447 83.9532 203.531 83.709 202.486 83.747C201.932 83.7672 201.36 83.8947 200.771 84.1296C200.203 84.3424 199.672 84.7246 199.18 85.2762C198.687 85.8064 198.297 86.5464 198.012 87.4961C197.726 88.4458 197.61 89.6668 197.665 91.1591C197.715 92.5449 197.896 93.7017 198.207 94.6297C198.539 95.5356 198.96 96.2568 199.471 96.7932C199.981 97.3297 200.55 97.7039 201.177 97.916C201.803 98.128 202.447 98.222 203.108 98.198ZM218.505 100.936L217.738 79.8301L222.375 79.6615L223.142 100.768L218.505 100.936ZM211.963 83.9467L211.822 80.0453L228.323 79.4452L228.465 83.3466L211.963 83.9467Z" fill="white"/>
<path d="M108.012 55.7117L107.639 52.5527C107.816 52.5799 107.992 52.5991 108.169 52.6104C108.345 52.6216 108.473 52.6262 108.553 52.624C109.177 52.6071 109.654 52.4982 109.985 52.2972C110.331 52.0798 110.563 51.7614 110.679 51.3421C110.812 50.9064 110.869 50.3526 110.851 49.6809L110.579 39.6285L114.034 39.5352L114.306 49.6115C114.341 50.9071 114.187 52.0076 113.843 52.9132C113.499 53.8188 112.942 54.5142 112.171 54.9992C111.415 55.4677 110.422 55.7187 109.19 55.7519C109.014 55.7567 108.838 55.7535 108.662 55.7422C108.485 55.731 108.269 55.7208 108.012 55.7117ZM123.047 55.4736C122.12 55.4986 121.277 55.4174 120.52 55.2297C119.779 55.0577 119.132 54.7951 118.578 54.4419C118.024 54.0727 117.556 53.6292 117.173 53.1114C116.791 52.5775 116.503 51.9771 116.308 51.3101C116.114 50.6431 116.006 49.9097 115.985 49.11L115.725 39.4895L119.18 39.3962L119.436 48.8727C119.458 49.7044 119.605 50.3887 119.875 50.9256C120.162 51.446 120.564 51.8273 121.083 52.0694C121.601 52.3115 122.229 52.4226 122.964 52.4027C123.716 52.3824 124.344 52.2374 124.849 51.9676C125.354 51.6979 125.727 51.2957 125.969 50.7609C126.21 50.2102 126.32 49.519 126.297 48.6873L126.041 39.2108L129.496 39.1174L129.756 48.7379C129.784 49.7935 129.666 50.7331 129.4 51.5566C129.134 52.3641 128.712 53.0557 128.135 53.6315C127.575 54.2068 126.866 54.6501 126.011 54.9614C125.171 55.2721 124.183 55.4429 123.047 55.4736ZM137.884 55.0727C136.572 55.1081 135.396 54.8278 134.356 54.2317C133.331 53.6351 132.515 52.7449 131.907 51.5609C131.298 50.3609 130.97 48.8892 130.923 47.1458C130.888 45.8663 131.017 44.7104 131.31 43.6781C131.618 42.6454 132.09 41.7523 132.726 40.9989C133.362 40.2454 134.154 39.6558 135.103 39.23C136.052 38.8043 137.166 38.5741 138.445 38.5395C139.437 38.5127 140.328 38.6167 141.119 38.8514C141.909 39.0702 142.582 39.3961 143.138 39.8292C143.71 40.262 144.148 40.7943 144.453 41.4263C144.774 42.0419 144.945 42.7335 144.966 43.5012L141.724 44.3811C141.694 43.8537 141.586 43.4005 141.399 43.0214C141.229 42.6418 140.989 42.3282 140.678 42.0805C140.383 41.8324 140.034 41.6577 139.631 41.5566C139.244 41.439 138.826 41.3863 138.379 41.3984C137.835 41.4131 137.326 41.5228 136.851 41.7277C136.376 41.9326 135.961 42.256 135.605 42.6978C135.248 43.1235 134.975 43.6831 134.786 44.3765C134.596 45.0699 134.515 45.9124 134.542 46.904C134.569 47.8956 134.695 48.7405 134.922 49.4386C135.165 50.1363 135.477 50.6961 135.856 51.118C136.251 51.5235 136.699 51.8155 137.2 51.994C137.717 52.1722 138.264 52.2534 138.839 52.2379C139.543 52.2189 140.14 52.0827 140.629 51.8294C141.134 51.5756 141.525 51.213 141.8 50.7414C142.075 50.2538 142.219 49.6656 142.233 48.977L139.354 49.0548L139.286 46.5597L145.476 46.3925L145.554 49.2714L145.696 54.5255L143.273 54.591L143.208 50.4392L142.849 50.4489C142.683 51.4298 142.393 52.2619 141.98 52.9453C141.582 53.6123 141.043 54.131 140.365 54.5015C139.702 54.8555 138.875 55.0459 137.884 55.0727ZM146.153 54.5132L151.148 38.5324L155.994 38.4015L161.82 54.0899L158.077 54.191L153.789 41.2221L153.501 41.2298L149.896 54.412L146.153 54.5132ZM149.069 51.3612L149.005 48.9621L159.153 48.6879L159.218 51.0871L149.069 51.3612ZM162.46 54.0726L162.032 38.2384L168.414 38.0659C169.166 38.0456 169.871 38.0906 170.53 38.2008C171.205 38.2946 171.818 38.4541 172.368 38.6794C172.918 38.9046 173.39 39.2039 173.785 39.5774C174.194 39.9345 174.51 40.3581 174.731 40.8483C174.953 41.3385 175.072 41.9115 175.09 42.5673C175.104 43.0951 175.029 43.5853 174.865 44.0379C174.718 44.49 174.473 44.8968 174.13 45.2582C173.787 45.6035 173.347 45.8955 172.809 46.1342C172.272 46.3728 171.636 46.542 170.902 46.6418L170.91 46.9297C171.792 46.9859 172.485 47.1673 172.99 47.4738C173.51 47.7638 173.921 48.1609 174.222 48.6649C174.524 49.169 174.78 49.7702 174.991 50.4688L175.991 53.707L172.176 53.81L171.4 50.8299C171.255 50.2096 171.05 49.719 170.784 49.358C170.518 48.9971 170.175 48.7423 169.755 48.5936C169.351 48.4444 168.845 48.3781 168.237 48.3945L165.766 48.4612L165.915 53.9792L162.46 54.0726ZM165.694 45.8222L167.83 45.7645C168.101 45.7572 168.397 45.7412 168.717 45.7165C169.052 45.6915 169.387 45.6424 169.721 45.5694C170.055 45.4803 170.355 45.3442 170.622 45.1609C170.905 44.9772 171.131 44.731 171.299 44.4223C171.466 44.0977 171.543 43.6955 171.53 43.2156C171.516 42.7038 171.417 42.2904 171.232 41.9752C171.064 41.6597 170.841 41.4176 170.565 41.249C170.288 41.0804 169.997 40.9682 169.691 40.9125C169.401 40.8403 169.128 40.7996 168.872 40.7906C168.615 40.7815 168.407 40.7791 168.247 40.7834L165.56 40.856L165.694 45.8222ZM175.829 53.7114L180.823 37.7307L185.669 37.5997L191.495 53.2881L187.752 53.3892L183.464 40.4203L183.176 40.4281L179.571 53.6103L175.829 53.7114ZM178.744 50.5595L178.68 48.1603L188.828 47.8862L188.893 50.2853L178.744 50.5595ZM184.405 36.1213L181.598 36.1972L183.153 32.4578L186.752 32.3606L184.405 36.1213ZM197.887 53.4515C196.831 53.48 195.884 53.3936 195.046 53.1921C194.225 53.0062 193.521 52.7052 192.933 52.2889C192.346 51.8726 191.892 51.3567 191.571 50.7411C191.25 50.1096 191.07 49.3781 191.032 48.5469L194.103 47.5996C194.139 48.3349 194.323 48.9381 194.656 49.4093C194.989 49.8805 195.446 50.2202 196.028 50.4286C196.61 50.637 197.261 50.7314 197.981 50.712C198.652 50.6938 199.218 50.5985 199.677 50.426C200.137 50.2536 200.483 50.0201 200.715 49.7258C200.963 49.431 201.082 49.1076 201.073 48.7557C201.062 48.3399 200.893 48.0083 200.566 47.7611C200.239 47.4978 199.801 47.2856 199.252 47.1243C198.704 46.9631 198.083 46.8118 197.391 46.6704C196.634 46.4988 195.885 46.311 195.143 46.1069C194.417 45.9025 193.746 45.6405 193.129 45.321C192.528 44.9852 192.044 44.5421 191.677 43.9918C191.31 43.4415 191.115 42.7425 191.092 41.8948C191.066 40.9192 191.291 40.0728 191.768 39.3556C192.244 38.6225 192.941 38.0515 193.858 37.6426C194.775 37.2176 195.873 36.9879 197.153 36.9533C198.448 36.9183 199.573 37.088 200.528 37.4624C201.498 37.8363 202.257 38.392 202.805 39.1294C203.353 39.8509 203.633 40.7317 203.645 41.7717L200.522 42.6004C200.525 42.1041 200.441 41.6742 200.271 41.3107C200.117 40.9307 199.893 40.6167 199.598 40.3685C199.319 40.12 198.97 39.9373 198.551 39.8206C198.147 39.7035 197.69 39.6518 197.178 39.6656C196.57 39.6821 196.053 39.7761 195.625 39.9477C195.213 40.1029 194.899 40.3194 194.682 40.5974C194.466 40.8753 194.362 41.1902 194.372 41.5421C194.383 41.974 194.561 42.3213 194.904 42.5841C195.247 42.8309 195.7 43.0348 196.265 43.1956C196.845 43.356 197.49 43.5146 198.198 43.6715C198.891 43.8129 199.591 43.986 200.301 44.1909C201.027 44.3794 201.69 44.6416 202.291 44.9775C202.909 45.3129 203.409 45.7716 203.793 46.3534C204.176 46.9193 204.38 47.642 204.404 48.5217C204.431 49.5133 204.19 50.3682 203.681 51.0862C203.188 51.8037 202.451 52.3678 201.47 52.7785C200.488 53.1892 199.294 53.4135 197.887 53.4515ZM209.744 52.795L209.316 36.9608L212.771 36.8675L213.199 52.7017L209.744 52.795ZM212.167 52.7295L212.09 49.8746L221.495 49.6205L221.572 52.4755L212.167 52.7295ZM211.986 46.012L211.917 43.4449L220.17 43.222L220.239 45.789L211.986 46.012ZM211.816 39.7263L211.74 36.8953L221.12 36.6419L221.197 39.4728L211.816 39.7263ZM222.719 52.4445L222.291 36.6102L226.85 36.4871L233.967 47.5549L234.159 47.5497L233.711 36.3017L237.094 36.2103L237.522 52.0445L233.323 52.1579L225.834 40.644L225.642 40.6492L226.102 52.3531L222.719 52.4445Z" fill="#030404"/>
<path d="M303.03 163.544C307.08 164.674 311.22 165.524 315.24 166.734C315.73 166.884 316.58 167.074 316.89 167.524C317.23 168.024 316.48 168.184 316.1 168.304C314.92 168.664 313.37 168.654 312.34 169.394C312.07 169.584 311.93 170.024 312.23 170.284C314.48 172.204 317.11 173.964 318.74 176.494C318.9 176.214 319.07 175.924 319.23 175.644C315.15 176.064 311.53 173.374 307.85 172.084C306.67 171.674 304.35 171.414 303.82 170.104C303.54 169.414 304.24 169.354 304.78 169.224C305.45 169.064 306.11 168.924 306.71 168.594C307 168.434 307.11 167.934 306.82 167.704C305.22 166.424 302.92 164.634 302.58 162.484L302.18 163.184C302.35 163.164 302.52 163.154 302.69 163.134C303.41 163.054 303.41 161.924 302.69 162.004C302.42 162.034 302.15 162.044 301.88 162.094C301.56 162.154 301.44 162.514 301.48 162.794C301.85 165.154 304.27 167.114 306.01 168.514L306.12 167.624C305.07 168.194 302.83 168.004 302.6 169.534C302.31 171.454 304.69 172.284 306.09 172.734C308.21 173.414 310.19 174.354 312.25 175.224C314.43 176.154 316.81 177.034 319.22 176.784C319.62 176.744 319.96 176.324 319.71 175.934C318.02 173.314 315.37 171.494 313.03 169.494C312.99 169.794 312.95 170.084 312.92 170.384C313.52 169.954 314.4 169.884 315.1 169.734C315.83 169.574 316.63 169.434 317.3 169.064C318.65 168.314 318.16 166.854 316.99 166.224C315.51 165.414 313.59 165.134 311.98 164.704C309.11 163.934 306.2 163.274 303.34 162.464C302.64 162.264 302.34 163.364 303.04 163.554L303.03 163.544Z" fill="#030404"/>
<path d="M64.7559 30.003L65.2816 29.4895C65.4406 29.3305 65.4772 29.0372 65.2572 28.9027C64.4748 28.4137 62.751 28.5237 62.7388 27.4845C62.7388 27.2767 62.6165 27.1178 62.3965 27.0933C61.4673 26.9833 60.7216 27.7412 61.5407 26.4698C61.7118 26.2131 61.504 25.8341 61.1739 25.8952C58.5944 26.4331 60.0736 26.2987 60.0736 24.8928C60.0736 24.2571 59.0956 23.5113 58.7533 23.1323C58.631 22.9856 58.3865 22.9489 58.2398 23.0834C54.5844 26.5921 50.0489 28.1569 45.3054 29.624C45.1343 29.6729 44.9509 29.844 45.012 30.0519C45.122 30.4431 45.2321 30.8343 45.3299 31.2377C45.3788 31.3967 45.4888 31.5189 45.66 31.5311C47.8116 31.7145 46.149 32.1424 46.7602 32.9859C46.9192 33.1938 47.0903 33.4016 47.2982 33.5728C47.9705 34.0985 49.3276 33.4138 48.1417 34.074C47.8483 34.2329 47.8727 34.7708 48.2762 34.7708C49.731 34.7586 49.8288 34.5385 48.7041 35.4555C48.5696 35.5655 48.5573 35.7367 48.6062 35.8956C48.7163 36.189 48.8263 36.4946 48.9363 36.788C48.9975 36.9347 49.1808 37.0203 49.3398 36.9959C54.9512 36.0178 60.8683 33.1815 65.4039 29.734C65.7829 29.4528 65.3061 28.8905 64.9271 29.1716C62.4331 31.0666 59.7558 32.6314 56.8217 33.7439C55.648 34.184 54.4378 34.5386 53.2519 34.9664C52.6039 35.1987 48.5573 36.5802 50.7946 34.673C51.0269 34.4774 50.9169 34.0251 50.5868 34.0251C49.0831 34.0373 49.2664 34.6364 49.6576 33.6216C49.7432 33.3894 49.572 33.1571 49.3398 33.1326C48.594 33.0471 47.1759 32.9737 48.0684 32.2035C48.2028 32.0935 48.2273 31.9223 48.1661 31.7634C47.9094 31.1399 47.6404 31.4578 47.3104 31.0176C46.8213 30.3819 45.9534 30.7976 47.2126 29.7951C47.7872 29.3305 48.9608 29.2205 49.6454 28.976C51.7848 28.2058 53.8754 27.3011 55.7703 26.0542C57.054 25.2106 60.5993 22.7778 58.3865 26.5676C58.2276 26.8244 58.4232 27.2034 58.7533 27.1422C59.9392 26.8977 60.7827 26.2742 60.0492 27.4356C59.8658 27.7168 60.0981 28.0469 60.4159 28.0102C61.2717 27.5946 61.6385 27.8635 61.4796 28.7927C61.394 28.9516 61.5285 29.2205 61.6996 29.2572C62.0908 29.355 64.0591 29.6484 64.2914 29.4284C63.9491 29.7584 64.4258 30.3208 64.7682 29.9907L64.7559 30.003Z" fill="#030404"/>
<path d="M281.384 45.71C282.624 42.25 283.744 38.72 285.274 35.37C285.604 34.64 285.984 33.93 286.444 33.28C286.734 32.86 287.024 32.2 287.574 32.75C287.854 33.03 287.924 33.55 288.014 33.92C288.194 34.68 288.384 35.44 288.554 36.2C288.624 36.49 288.644 36.96 288.934 37.14C289.224 37.32 289.654 37.11 289.934 36.99C290.594 36.69 291.174 36.24 291.744 35.79C292.314 35.34 292.874 34.88 293.424 34.42C293.684 34.21 294.974 33.17 294.714 34.18C294.584 34.7 294.224 35.21 293.964 35.67C293.514 36.47 292.994 37.23 292.464 37.98C291.534 39.31 290.654 40.7 289.634 41.97C289.094 42.64 288.504 43.27 287.804 43.77C287.644 43.88 287.184 44.26 286.944 44.18C286.734 44.12 286.724 43.85 286.714 43.66C286.654 42.77 287.004 41.85 286.774 40.97C286.744 40.85 286.634 40.81 286.524 40.83C285.574 40.98 284.754 42.08 284.164 42.74C283.304 43.69 282.424 45.07 281.144 45.45C280.894 45.53 280.994 45.92 281.254 45.85C282.474 45.48 283.254 44.36 284.074 43.46C284.464 43.03 284.854 42.58 285.274 42.17C285.644 41.8 286.104 41.3 286.644 41.22L286.394 41.08C286.634 42 286.184 42.98 286.344 43.91C286.534 44.97 287.514 44.5 288.114 44.06C289.474 43.09 290.424 41.68 291.354 40.32C292.454 38.7 293.634 37.14 294.594 35.43C294.854 34.97 295.774 33.34 294.634 33.28C294.114 33.25 293.614 33.75 293.244 34.05C292.594 34.58 291.954 35.12 291.284 35.64C290.884 35.95 290.474 36.25 290.024 36.49C289.844 36.58 289.584 36.77 289.374 36.77C289.084 36.77 289.094 36.63 289.034 36.4C288.824 35.54 288.624 34.67 288.424 33.8C288.284 33.21 288.104 32.41 287.524 32.09C287.044 31.82 286.724 32.21 286.454 32.58C285.144 34.35 284.364 36.42 283.574 38.47C282.664 40.82 281.854 43.21 281.014 45.59C280.924 45.84 281.324 45.95 281.414 45.7L281.384 45.71Z" fill="#030404"/>
<path d="M203.77 130.518C202.88 129.028 202.21 126.888 200.57 126.048C200.29 125.908 200.04 126.088 200 126.378C199.88 127.238 200.03 128.118 200.09 128.978C200.14 129.738 200.29 130.848 199.77 131.488C199.3 132.078 198.34 132.268 197.65 132.438C196.86 132.648 196.04 132.778 195.27 133.068C194.93 133.198 194.89 133.688 195.27 133.798C196.27 134.098 198.79 134.328 199.02 135.598C199.14 136.268 198.9 137.048 198.77 137.698C198.64 138.348 198.49 138.928 198.42 139.558C198.38 139.918 198.85 140.018 199.07 139.828C199.57 139.408 199.98 138.858 200.42 138.368C200.74 138.008 201.39 137.088 201.94 137.248C202.53 137.418 203.03 138.478 203.36 138.948C203.7 139.428 204.05 139.968 204.59 140.248C204.84 140.378 205.17 140.218 205.16 139.918C205.13 138.638 204.85 137.378 204.95 136.088L204.57 136.468C206.5 136.328 208.41 136.068 210.3 135.638C210.6 135.568 210.64 135.208 210.47 134.998C209.61 133.938 208.35 133.298 207.31 132.438L207.23 133.038C208.15 132.358 208.55 131.348 209.12 130.398C209.29 130.118 209.01 129.748 208.69 129.838C208.27 129.958 207.87 130.138 207.46 130.288C207.1 130.418 206.35 130.778 205.97 130.608C205.58 130.438 205.56 129.638 205.51 129.278C205.44 128.848 205.38 128.408 205.14 128.038C205.02 127.848 204.71 127.768 204.54 127.958C203.76 128.858 202.99 129.798 202.48 130.888C202.27 131.328 202.93 131.718 203.14 131.268C203.63 130.238 204.34 129.348 205.08 128.498L204.48 128.418C205.01 129.258 204.55 130.858 205.67 131.318C206.64 131.718 207.98 130.838 208.89 130.568C208.75 130.378 208.6 130.198 208.46 130.008C207.98 130.818 207.63 131.798 206.85 132.378C206.67 132.508 206.57 132.808 206.77 132.978C207.81 133.838 209.07 134.478 209.93 135.538L210.1 134.898C208.28 135.308 206.44 135.568 204.57 135.708C204.35 135.728 204.21 135.868 204.19 136.088C204.1 137.368 204.37 138.638 204.4 139.918C204.59 139.808 204.78 139.698 204.97 139.588C204.22 139.198 203.79 138.188 203.3 137.538C202.95 137.078 202.46 136.448 201.82 136.438C201.2 136.418 200.64 137.028 200.25 137.428C199.67 138.028 199.18 138.738 198.54 139.278L199.19 139.548C199.29 138.708 199.54 137.888 199.68 137.058C199.78 136.428 199.94 135.668 199.68 135.058C199.07 133.628 196.77 133.428 195.49 133.038V133.768C196.99 133.218 199.35 133.268 200.4 131.888C201.54 130.388 200.54 128.048 200.77 126.338L200.2 126.668C201.7 127.438 202.32 129.498 203.13 130.868C203.38 131.288 204.04 130.908 203.79 130.488L203.77 130.518Z" fill="#030404"/>
<path d="M195.956 16.7284C196.136 14.7684 195.966 12.7284 196.866 10.9084C197.696 9.22845 199.376 8.09844 201.106 7.47844C201.606 7.29844 201.416 6.55845 200.886 6.67845C196.686 7.66845 194.036 4.01845 193.356 0.298447C193.256 -0.231553 192.486 0.00844806 192.556 0.518448C192.876 2.83845 193.076 5.35844 191.476 7.27844C190.876 7.99844 190.106 8.53845 189.256 8.90845C188.626 9.18845 187.446 9.24845 187.056 9.81845C186.916 10.0185 187.056 10.3885 187.306 10.4285C189.036 10.7085 190.916 10.9885 192.336 12.0984C193.066 12.6684 193.736 13.3784 194.186 14.1984C194.646 15.0284 194.836 15.9685 195.266 16.8185C195.506 17.2885 196.226 16.8785 195.986 16.3985C195.486 15.4385 195.296 14.3584 194.706 13.4484C194.206 12.6784 193.556 12.0084 192.836 11.4484C191.316 10.2584 189.376 9.92844 187.526 9.63844L187.776 10.2484C187.816 10.1884 188.806 9.97844 189.066 9.88844C189.546 9.70844 190.026 9.49844 190.466 9.22844C191.316 8.71844 192.026 8.02845 192.576 7.20845C193.936 5.14845 193.696 2.62844 193.376 0.308441C193.106 0.378441 192.846 0.458443 192.576 0.528443C192.936 2.47844 193.766 4.43844 195.176 5.86844C196.776 7.49844 198.926 8.00845 201.126 7.48845L200.906 6.68845C199.056 7.34845 197.256 8.51844 196.286 10.2784C195.186 12.2784 195.356 14.5284 195.156 16.7284C195.106 17.2584 195.936 17.2584 195.986 16.7284H195.956Z" fill="#030404"/>
<path d="M8.95551 170.728C9.13551 168.768 8.96551 166.728 9.86551 164.908C10.6955 163.228 12.3755 162.098 14.1055 161.478C14.6055 161.298 14.4155 160.558 13.8855 160.678C9.68551 161.668 7.03551 158.018 6.35551 154.298C6.25551 153.768 5.48551 154.008 5.55551 154.518C5.87551 156.838 6.07551 159.358 4.47551 161.278C3.87551 161.998 3.10551 162.538 2.25551 162.908C1.62551 163.188 0.445515 163.248 0.0555147 163.818C-0.0844853 164.018 0.0555147 164.388 0.305515 164.428C2.03551 164.708 3.91551 164.988 5.33551 166.098C6.06551 166.668 6.73551 167.378 7.18551 168.198C7.64551 169.028 7.83551 169.968 8.26551 170.818C8.50551 171.288 9.22551 170.878 8.98551 170.398C8.48551 169.438 8.29551 168.358 7.70551 167.448C7.20551 166.678 6.55551 166.008 5.83551 165.448C4.31551 164.258 2.37551 163.928 0.525512 163.638L0.775512 164.248C0.815512 164.188 1.80551 163.978 2.06551 163.888C2.54551 163.708 3.02551 163.498 3.46551 163.228C4.31551 162.718 5.02551 162.028 5.57551 161.208C6.93551 159.148 6.69551 156.628 6.37551 154.308C6.10551 154.378 5.84551 154.458 5.57551 154.528C5.93551 156.478 6.76551 158.438 8.17551 159.868C9.77551 161.498 11.9255 162.008 14.1255 161.488L13.9055 160.688C12.0555 161.348 10.2555 162.518 9.28551 164.278C8.18551 166.278 8.35551 168.528 8.15551 170.728C8.10551 171.258 8.93551 171.258 8.98551 170.728H8.95551Z" fill="#030404"/>
</svg>
