<?xml version="1.0" encoding="UTF-8" standalone="no"?>
<svg
   width="332.10172"
   height="332.10339"
   viewBox="0 0 332.10172 332.10339"
   fill="none"
   version="1.1"
   id="svg34"
   sodipodi:docname="Group 6 (1).svg"
   inkscape:version="1.3 (0e150ed6c4, 2023-07-21)"
   xmlns:inkscape="http://www.inkscape.org/namespaces/inkscape"
   xmlns:sodipodi="http://sodipodi.sourceforge.net/DTD/sodipodi-0.dtd"
   xmlns="http://www.w3.org/2000/svg"
   xmlns:svg="http://www.w3.org/2000/svg">
  <defs
     id="defs34" />
  <sodipodi:namedview
     id="namedview34"
     pagecolor="#ffffff"
     bordercolor="#000000"
     borderopacity="0.25"
     inkscape:showpageshadow="2"
     inkscape:pageopacity="0.0"
     inkscape:pagecheckerboard="0"
     inkscape:deskcolor="#d1d1d1"
     inkscape:zoom="2.202046"
     inkscape:cx="165.75494"
     inkscape:cy="166.43612"
     inkscape:window-width="1920"
     inkscape:window-height="1057"
     inkscape:window-x="1912"
     inkscape:window-y="-8"
     inkscape:window-maximized="1"
     inkscape:current-layer="svg34" />
  <path
     d="m 26.890862,75.531016 c -11.1476,17.123 -18.9517997,35.878004 -23.2139997,55.800004 l 57.8010997,11.558 c 2.6881,-12.132 7.5214,-23.803 14.4112,-34.548 z m 48.8927,-48.8494 32.701998,49.0474 c 10.48,-6.6719 22.15,-11.5107 34.619,-14.2385 l -11.448,-57.8516997 c -20.039,4.2359 -38.812998,11.9781997 -55.872998,23.0427997 z M 200.77256,3.6811163 189.21456,61.482116 c 12.133,2.6882 23.803,7.5215 34.549,14.4109 l 32.813,-49.0037 c -17.122,-11.1476 -35.881,-18.9459997 -55.804,-23.2081997 z m 70.7,143.7659037 c 2.225,12.563 2.201,25.2 0.019,37.433 l 57.806,11.557 c 3.727,-19.992 3.742,-40.296 0.026,-60.438 z m -17.721,79.993 c -7.312,10.458 -16.261,19.376 -26.456,26.483 l 32.701,49.043 c 16.798,-11.529 31.167,-25.888 42.754,-42.717 z m -106.528,44.051 -11.557,57.806 c 19.988,3.733 40.296,3.742 60.438,0.026 l -11.448,-57.851 c -12.568,2.226 -25.2,2.201 -37.433,0.019 z m -69.042998,-44.196 -49.0476,32.702 c 11.5295,16.803 25.8933,31.171 42.7172,42.758 l 32.813398,-49.004 c -10.462998,-7.311 -19.376998,-16.266 -26.482998,-26.456 z m -16.6895,-38.296 -57.8516997,11.448 c 4.2359,20.039 11.9771997,38.808 23.0379997,55.874 l 49.0525,-32.703 c -6.677,-10.48 -11.512,-22.155 -14.2388,-34.619 z m 46.849498,67.21 -32.813298,49.004 c 17.1223,11.148 35.877298,18.952 55.804298,23.213 l 11.558,-57.801 c -12.132,-2.688 -23.804,-7.526 -34.549,-14.416 z m 115.274,0.17 c -10.48,6.677 -22.151,11.506 -34.62,14.234 l 11.448,57.852 c 20.044,-4.237 38.813,-11.978 55.873,-23.043 z m 47.007,-67.165 c -2.69,12.128 -7.522,23.803 -14.412,34.549 l 49.004,32.813 c 11.148,-17.122 18.952,-35.877 23.213,-55.805 z m 34.801,-113.426004 -49.048,32.702004 c 6.677,10.479 11.511,22.15 14.239,34.619 l 57.852,-11.448 c -4.237,-20.044 -11.983,-38.813004 -23.043,-55.873004 z m -45.174,-46.4397 -32.813,49.0037 c 10.463,7.312 19.377,16.262 26.483,26.456004 l 49.043,-32.701004 c -11.529,-16.7972 -25.889,-31.1713 -42.713,-42.7587 z m -124.254,-26.5679997 11.448,57.8516997 c 12.568,-2.2264 25.2,-2.2017 37.433,-0.0192 l 11.557,-57.8058997 c -19.988,-3.73339999 -40.291,-3.74279999 -60.438,-0.0266 z M 72.107062,29.137216 c -16.8025,11.5295 -31.1717,25.8885 -42.7581,42.7168 l 49.0036,32.814004 c 7.312,-10.463004 16.262,-19.377004 26.455998,-26.483004 z M 2.8026623,135.67202 c -3.72850004,19.987 -3.73800004,40.29 -0.0217,60.437 l 57.8516997,-11.448 c -2.2265,-12.568 -2.2018,-25.2 -0.0193,-37.433 z"
     fill="#030404"
     id="path1" />
  <path
     d="m 79.549562,110.79202 c -6.4139,10.035 -11.1045,21.187 -13.738,32.963 l 18.311,3.664 c 2.145,-9.36 5.87,-18.231 10.936,-26.242 z m 31.385998,-31.390004 10.358,15.541 c 7.881,-4.975 16.716,-8.702 26.282,-10.856 l -3.625,-18.321 c -12.043,2.6487 -23.146,7.34 -33.015,13.636 z m 77.414,-13.5862 -3.665,18.3112 c 9.361,2.145 18.232,5.869 26.242,10.936 l 10.385,-15.509 c -10.035,-6.414 -21.186,-11.1047 -32.962,-13.7382 z m 60.526,86.102204 c 1.652,9.666 1.571,19.254 -0.028,28.437 l 18.315,3.658 c 2.063,-11.523 2.172,-23.576 0.034,-35.72 z m -14.293,62.685 c -5.477,7.736 -12.262,14.558 -20.1,20.106 l 10.363,15.536 c 9.885,-6.92 18.41,-15.504 25.246,-25.257 z m -82.833,34.249 -3.663,18.316 c 11.523,2.062 23.581,2.171 35.725,0.033 l -3.626,-18.321 c -9.666,1.652 -19.254,1.571 -28.436,-0.028 z m -54.354998,-34.365 -15.541,10.359 c 6.925,9.884 15.504,18.41 25.257998,25.25 l 10.388,-15.514 c -7.735,-5.477 -14.561,-12.256 -20.104998,-20.095 z m -13.311,-29.959 -18.3218,3.626 c 2.6486,12.043 7.3412,23.151 13.6368,33.02 l 15.541,-10.363 c -4.976,-7.881 -8.703,-16.716 -10.856,-26.283 z m 37.089998,52.517 -10.385,15.509 c 10.035,6.419 21.186,11.105 32.968,13.743 l 3.659,-18.316 c -9.361,-2.145 -18.232,-5.869 -26.242,-10.936 z m 89.633,0.12 c -7.881,4.976 -16.716,8.703 -26.283,10.856 l 3.626,18.322 c 12.043,-2.649 23.146,-7.341 33.015,-13.636 z m 37.17,-52.476 c -2.14,9.36 -5.87,18.227 -10.936,26.237 l 15.514,10.389 c 6.414,-10.04 11.099,-21.19 13.738,-32.967 z m 4.726,-73.75 -15.542,10.359 c 4.976,7.881 8.703,16.716 10.856,26.282 l 18.322,-3.625 c -2.649,-12.044 -7.341,-23.147 -13.636,-33.016 z m -27.718,-28.926004 -10.385,15.509 c 7.735,5.477004 14.558,12.261004 20.106,20.099004 l 15.535,-10.362 c -6.92,-9.886004 -15.504,-18.410004 -25.256,-25.246004 z m -76.696,-17.1055 3.626,18.3215 c 9.665,-1.652 19.254,-1.571 28.436,0.028 l 3.658,-18.3153 c -11.523,-2.0626 -23.576,-2.1719 -35.72,-0.0342 z m -41.03,16.9495 c -9.888998,6.926 -18.414998,15.506 -25.250998,25.258004 l 15.515,10.389 c 5.476998,-7.735 12.255998,-14.562 20.094998,-20.105004 z M 64.936462,148.09102 c -2.0625,11.522 -2.1709,23.58 -0.0332,35.725 l 18.3213,-3.626 c -1.652,-9.666 -1.571,-19.254 0.028,-28.436 z"
     fill="#ffffff"
     id="path2" />
  <path
     d="m 163.46456,46.051316 v -17.36 h -3.92 v -5.64 c 1.307,0 2.36,-0.2266 3.16,-0.68 0.8,-0.48 1.32,-1.3866 1.56,-2.72 h 5.72 v 26.4 z"
     fill="#ffffff"
     id="path3" />
  <path
     d="m 204.23456,51.658316 2.217,-6.004 12.154,-2.5482 c 0.493,-0.1024 1.012,-0.2377 1.557,-0.4059 0.546,-0.1682 1.072,-0.4003 1.579,-0.6963 0.532,-0.2867 1.003,-0.6387 1.413,-1.0559 0.419,-0.4422 0.744,-0.9761 0.975,-1.6015 0.24,-0.6504 0.293,-1.2562 0.159,-1.8173 -0.109,-0.5519 -0.397,-1.042 -0.864,-1.4703 -0.433,-0.4441 -1.037,-0.8093 -1.813,-1.0956 -0.875,-0.3232 -1.639,-0.4489 -2.291,-0.3769 -0.627,0.0813 -1.183,0.3166 -1.668,0.7062 -0.45,0.3737 -0.841,0.8548 -1.172,1.4432 -0.331,0.5885 -0.621,1.2205 -0.871,1.8959 l -5.359,-3.3855 c 0.643,-1.8947 1.609,-3.3572 2.899,-4.3876 1.299,-1.0553 2.833,-1.6687 4.602,-1.84 1.794,-0.1622 3.742,0.1447 5.843,0.9204 1.851,0.6834 3.384,1.5761 4.597,2.6778 1.239,1.1111 2.046,2.3897 2.422,3.836 0.41,1.4305 0.3,2.9963 -0.328,4.6974 -0.461,1.2509 -1.094,2.3106 -1.898,3.1793 -0.795,0.8436 -1.673,1.5285 -2.635,2.0547 -0.961,0.5261 -1.966,0.937 -3.013,1.2327 -1.013,0.2798 -1.973,0.4938 -2.881,0.6421 l -6.652,1.0406 -0.124,0.3377 12.766,4.4572 -1.801,4.8782 z"
     fill="#ffffff"
     id="path4" />
  <path
     d="m 253.36356,83.295016 c -1.35,-1.17 -2.416,-2.322 -3.196,-3.457 -0.761,-1.118 -1.264,-2.207 -1.51,-3.267 -0.229,-1.08 -0.22,-2.148 0.025,-3.206 0.266,-1.04 0.742,-2.057 1.427,-3.0508 l 5.588,2.4068 c -0.431,0.579 -0.748,1.169 -0.951,1.77 -0.165,0.598 -0.207,1.196 -0.127,1.795 0.081,0.6 0.294,1.189 0.638,1.77 0.361,0.56 0.844,1.102 1.449,1.626 0.705,0.611 1.407,1.043 2.106,1.295 0.736,0.25 1.429,0.285 2.077,0.107 0.687,-0.182 1.31,-0.595 1.868,-1.24 0.699,-0.806 0.983,-1.725 0.852,-2.755 -0.093,-1.033 -0.646,-2.165 -1.661,-3.397 -1.014,-1.232 -2.526,-2.542 -4.535,-3.9291 l 2.332,-2.6907 9.999,1.8363 0.236,-0.2721 -9.541,-8.1075 3.379,-3.8999 14.39,12.4676 -3.85,4.4444 -9.607,-1.496 -0.262,0.302 c 2.037,1.518 3.39,2.99 4.059,4.417 0.69,1.444 0.891,2.8 0.604,4.068 -0.268,1.286 -0.829,2.423 -1.685,3.41 -1.152,1.33 -2.46,2.209 -3.923,2.635 -1.425,0.423 -3,0.347 -4.723,-0.229 -1.704,-0.559 -3.523,-1.676 -5.458,-3.353 z"
     fill="#ffffff"
     id="path5" />
  <path
     d="m 278.23156,109.03002 5.356,-2.792 c 2.059,0.43 3.925,0.75 5.598,0.96 1.686,0.234 3.233,0.375 4.641,0.423 1.408,0.047 2.726,0.007 3.952,-0.121 1.239,-0.104 2.435,-0.262 3.588,-0.472 l 5.16,9.895 -23.445,12.224 -2.959,-5.675 19.756,-10.3 -0.185,-0.355 c -1.643,0.195 -3.245,0.294 -4.808,0.296 -1.538,-0.01 -3.049,-0.109 -4.531,-0.299 -1.446,-0.178 -2.894,-0.416 -4.342,-0.713 l -0.39,0.203 8.1,15.535 -4.469,2.33 z"
     fill="#ffffff"
     id="path6" />
  <path
     d="m 285.30956,170.63902 c -0.138,-2.049 0.032,-3.878 0.511,-5.487 0.48,-1.609 1.222,-2.889 2.227,-3.839 1.032,-0.952 2.32,-1.466 3.865,-1.544 l 1.569,6.028 c -1.135,0.211 -1.954,0.747 -2.457,1.609 -0.503,0.863 -0.719,1.826 -0.647,2.891 0.088,1.303 0.528,2.276 1.32,2.917 0.793,0.668 1.922,0.953 3.385,0.854 0.718,-0.048 1.352,-0.171 1.899,-0.368 0.575,-0.2 1.051,-0.472 1.429,-0.818 0.377,-0.347 0.642,-0.779 0.794,-1.297 0.181,-0.493 0.248,-1.072 0.204,-1.738 -0.026,-0.372 -0.103,-0.728 -0.233,-1.066 -0.103,-0.341 -0.258,-0.664 -0.466,-0.971 -0.208,-0.307 -0.481,-0.596 -0.82,-0.867 -0.338,-0.244 -0.742,-0.498 -1.214,-0.76 l -0.426,-6.305 15.355,0.005 1.25,18.518 -5.308,0.359 -0.891,-13.21 -6.942,-0.093 0.029,0.439 c 1.315,0.472 2.345,1.285 3.091,2.437 0.773,1.151 1.209,2.458 1.307,3.921 0.117,1.73 -0.158,3.191 -0.826,4.386 -0.639,1.219 -1.618,2.167 -2.935,2.844 -1.291,0.675 -2.868,1.075 -4.73,1.201 -2.208,0.149 -4.061,-0.18 -5.559,-0.988 -1.47,-0.783 -2.605,-1.962 -3.406,-3.538 -0.773,-1.552 -1.231,-3.392 -1.375,-5.52 z"
     fill="#ffffff"
     id="path7" />
  <path
     d="m 272.87456,214.55202 c 1.566,-3.796 3.831,-6.208 6.794,-7.235 2.962,-1.028 6.477,-0.703 10.545,0.976 2.884,1.19 5.099,2.638 6.645,4.344 1.561,1.74 2.476,3.647 2.746,5.72 0.259,2.097 -0.089,4.304 -1.045,6.622 -0.499,1.207 -1.092,2.261 -1.78,3.159 -0.699,0.924 -1.494,1.663 -2.387,2.218 -0.878,0.59 -1.867,0.96 -2.968,1.111 -1.087,0.187 -2.255,0.152 -3.505,-0.105 l 0.862,-6.178 c 0.938,0.243 1.738,0.227 2.4,-0.048 0.676,-0.24 1.217,-0.608 1.624,-1.104 0.431,-0.486 0.753,-0.987 0.967,-1.505 0.356,-0.863 0.457,-1.701 0.302,-2.515 -0.155,-0.814 -0.515,-1.583 -1.082,-2.307 -0.576,-0.699 -1.305,-1.346 -2.185,-1.94 -0.88,-0.594 -1.862,-1.115 -2.947,-1.562 -0.468,-0.194 -1.033,-0.398 -1.694,-0.613 -0.637,-0.205 -1.271,-0.38 -1.903,-0.526 l -0.153,0.37 c 1.292,0.504 2.266,1.151 2.921,1.941 0.679,0.799 1.118,1.658 1.316,2.577 0.212,0.953 0.244,1.889 0.096,2.809 -0.124,0.929 -0.344,1.776 -0.659,2.54 -0.56,1.356 -1.357,2.484 -2.392,3.384 -1.02,0.935 -2.228,1.518 -3.622,1.751 -1.404,0.257 -2.92,0.05 -4.546,-0.622 -0.986,-0.407 -1.906,-0.974 -2.76,-1.701 -0.854,-0.728 -1.542,-1.646 -2.065,-2.756 -0.508,-1.076 -0.749,-2.343 -0.724,-3.804 0.026,-1.461 0.426,-3.128 1.199,-5.001 z m 4.824,1.731 c -0.244,0.592 -0.389,1.152 -0.434,1.682 -0.031,0.564 0.025,1.092 0.168,1.584 0.168,0.502 0.421,0.938 0.759,1.308 0.362,0.38 0.814,0.682 1.357,0.906 0.69,0.285 1.365,0.362 2.025,0.23 0.675,-0.096 1.277,-0.367 1.806,-0.812 0.53,-0.445 0.948,-1.037 1.253,-1.777 0.305,-0.739 0.43,-1.495 0.374,-2.269 -0.066,-0.748 -0.302,-1.437 -0.706,-2.065 -0.414,-0.604 -1.003,-1.063 -1.767,-1.379 -0.592,-0.244 -1.143,-0.341 -1.654,-0.292 -0.486,0.059 -0.941,0.217 -1.364,0.475 -0.41,0.293 -0.773,0.648 -1.089,1.065 -0.292,0.428 -0.535,0.876 -0.728,1.344 z"
     fill="#ffffff"
     id="path8" />
  <path
     d="m 251.79056,249.14802 c 1.339,1.101 2.591,2.371 3.755,3.81 1.147,1.46 2.176,3.065 3.086,4.814 0.914,1.786 1.651,3.703 2.211,5.751 0.544,2.069 0.88,4.243 1.009,6.523 l 0.278,0.229 8.428,-10.574 4.049,3.327 -12.214,14.866 -4.049,-3.327 c -0.109,-1.505 -0.44,-3.14 -0.992,-4.904 -0.568,-1.745 -1.328,-3.508 -2.28,-5.291 -0.951,-1.782 -2.087,-3.509 -3.406,-5.179 -1.299,-1.654 -2.772,-3.158 -4.42,-4.513 z"
     fill="#ffffff"
     id="path9" />
  <path
     d="m 207.94556,278.72402 c 2.063,-1.062 3.987,-1.753 5.772,-2.072 1.761,-0.308 3.319,-0.195 4.673,0.337 1.343,0.569 2.393,1.588 3.15,3.058 0.573,1.114 0.837,2.178 0.789,3.193 -0.035,1.038 -0.334,2.001 -0.896,2.891 -0.573,0.925 -1.363,1.721 -2.369,2.389 l 0.165,0.32 -4.324,3.397 -5.348,1.585 -0.165,-0.32 c -1.128,0.43 -2.217,0.616 -3.267,0.557 -1.051,-0.059 -1.997,-0.381 -2.839,-0.968 -0.865,-0.574 -1.585,-1.418 -2.159,-2.532 -0.757,-1.47 -0.965,-2.923 -0.624,-4.358 0.329,-1.399 1.142,-2.733 2.439,-4 1.273,-1.256 2.941,-2.415 5.003,-3.477 z m 2.382,4.712 c -0.498,0.257 -0.971,0.561 -1.42,0.912 -0.461,0.387 -0.849,0.797 -1.166,1.23 -0.305,0.457 -0.496,0.93 -0.574,1.42 -0.089,0.526 0.007,1.062 0.288,1.607 0.33,0.64 0.782,1.052 1.356,1.236 0.587,0.208 1.255,0.224 2.005,0.048 0.749,-0.176 1.55,-0.484 2.404,-0.923 0.853,-0.44 1.569,-0.914 2.147,-1.421 0.555,-0.496 0.913,-1.025 1.073,-1.587 0.16,-0.563 0.075,-1.164 -0.254,-1.804 -0.269,-0.522 -0.619,-0.911 -1.052,-1.168 -0.456,-0.246 -0.958,-0.377 -1.507,-0.394 -0.549,-0.017 -1.115,0.049 -1.697,0.199 -0.571,0.174 -1.105,0.389 -1.603,0.645 z m 5.035,9.69 c -0.64,0.33 -1.178,0.712 -1.614,1.147 -0.436,0.434 -0.71,0.92 -0.823,1.459 -0.101,0.561 0.02,1.174 0.362,1.838 0.28,0.545 0.619,0.941 1.015,1.186 0.409,0.27 0.846,0.42 1.312,0.45 0.454,0.066 0.907,0.043 1.359,-0.07 0.451,-0.113 0.867,-0.267 1.246,-0.462 0.546,-0.281 1.03,-0.65 1.454,-1.109 0.436,-0.434 0.722,-0.956 0.858,-1.566 0.124,-0.574 0.003,-1.217 -0.363,-1.928 -0.342,-0.664 -0.759,-1.124 -1.251,-1.381 -0.515,-0.244 -1.077,-0.315 -1.684,-0.212 -0.607,0.103 -1.23,0.319 -1.871,0.648 z m -1.758,-3.414 5.424,-1.263 0.238,0.462 c 1.141,-0.347 2.171,-0.473 3.09,-0.376 0.896,0.108 1.693,0.433 2.391,0.973 0.687,0.576 1.268,1.327 1.745,2.251 0.793,1.541 1.055,3.011 0.786,4.41 -0.282,1.434 -0.999,2.749 -2.154,3.943 -1.142,1.218 -2.638,2.304 -4.487,3.256 -1.897,0.977 -3.679,1.564 -5.346,1.763 -1.655,0.223 -3.119,0.031 -4.39,-0.574 -1.295,-0.592 -2.333,-1.647 -3.115,-3.165 -0.696,-1.351 -0.932,-2.654 -0.708,-3.909 0.223,-1.255 1.062,-2.452 2.515,-3.59 l -0.22,-0.427 z"
     fill="#ffffff"
     id="path10" />
  <path
     d="m 167.59156,289.40302 c 1.386,0.034 2.662,0.212 3.828,0.535 1.165,0.322 2.181,0.787 3.046,1.395 0.839,0.608 1.54,1.359 2.105,2.253 0.538,0.92 0.885,1.969 1.043,3.147 l -6.037,1.411 c -0.17,-0.671 -0.397,-1.224 -0.679,-1.657 -0.31,-0.435 -0.661,-0.777 -1.055,-1.027 -0.394,-0.249 -0.803,-0.433 -1.227,-0.55 -0.425,-0.091 -0.85,-0.141 -1.277,-0.152 -1.013,-0.025 -1.898,0.167 -2.655,0.575 -0.784,0.434 -1.412,1.032 -1.885,1.794 -0.498,0.761 -0.867,1.659 -1.106,2.693 -0.267,1.061 -0.415,2.191 -0.444,3.391 -0.009,0.346 -0.005,0.72 0.012,1.12 0.016,0.427 0.045,0.868 0.088,1.323 0.014,0.48 0.056,0.935 0.126,1.363 l 0.4,0.01 c 0.034,-1.386 0.303,-2.54 0.805,-3.461 0.503,-0.895 1.147,-1.612 1.934,-2.153 0.786,-0.514 1.636,-0.88 2.548,-1.097 0.885,-0.192 1.727,-0.278 2.527,-0.258 1.386,0.034 2.685,0.373 3.896,1.016 1.211,0.644 2.189,1.575 2.932,2.794 0.717,1.218 1.054,2.706 1.01,4.466 -0.025,1.04 -0.225,2.088 -0.598,3.146 -0.372,1.058 -0.956,2.017 -1.751,2.878 -0.822,0.886 -1.893,1.58 -3.212,2.081 -1.347,0.5 -2.993,0.726 -4.939,0.678 -2.719,-0.067 -4.984,-0.683 -6.796,-1.848 -1.839,-1.139 -3.213,-2.773 -4.12,-4.903 -0.909,-2.103 -1.327,-4.621 -1.254,-7.553 0.076,-3.093 0.646,-5.653 1.71,-7.681 1.063,-2.001 2.54,-3.471 4.43,-4.412 1.864,-0.94 4.062,-1.38 6.595,-1.317 z m -0.331,14.996 c -0.773,-0.019 -1.484,0.137 -2.132,0.468 -0.675,0.33 -1.22,0.797 -1.635,1.4 -0.415,0.603 -0.633,1.318 -0.653,2.144 -0.021,0.853 0.175,1.539 0.589,2.056 0.414,0.517 0.925,0.889 1.533,1.118 0.607,0.255 1.231,0.39 1.871,0.406 0.586,0.015 1.135,-0.065 1.646,-0.239 0.511,-0.148 0.957,-0.39 1.339,-0.728 0.354,-0.311 0.644,-0.704 0.869,-1.178 0.224,-0.448 0.344,-0.966 0.358,-1.552 0.019,-0.747 -0.138,-1.417 -0.47,-2.012 -0.333,-0.569 -0.775,-1.02 -1.327,-1.353 -0.579,-0.335 -1.241,-0.511 -1.988,-0.53 z"
     fill="#ffffff"
     id="path11" />
  <path
     d="m 129.49856,284.29102 -6.351,16.157 3.648,1.434 -2.063,5.249 c -1.216,-0.478 -2.279,-0.652 -3.189,-0.523 -0.921,0.154 -1.736,0.808 -2.447,1.961 l -5.324,-2.093 9.658,-24.57 z m -18.609,-7.916 c 1.614,0.635 2.983,1.488 4.109,2.561 1.091,1.088 1.898,2.35 2.422,3.788 0.523,1.438 0.721,3.049 0.593,4.832 -0.128,1.784 -0.592,3.693 -1.392,5.728 -1.131,2.879 -2.539,5.076 -4.224,6.592 -1.694,1.54 -3.545,2.46 -5.554,2.759 -2.043,0.315 -4.107,0.062 -6.192,-0.757 -2.134998,-0.839 -3.817998,-2.06 -5.050998,-3.662 -1.233,-1.602 -1.925,-3.521 -2.077,-5.759 -0.152,-2.237 0.318,-4.746 1.411,-7.525 0.829,-2.11 1.833,-3.864 3.013,-5.263 1.156,-1.408 2.438998,-2.451 3.851998,-3.128 1.387,-0.686 2.858,-1.039 4.413,-1.059 1.53,-0.029 3.089,0.269 4.677,0.893 z m -1.992,4.633 c -0.546,-0.215 -1.141,-0.306 -1.784,-0.272 -0.679,0.049 -1.37,0.278 -2.076,0.688 -0.706,0.411 -1.39,1.059 -2.053,1.944 -0.673,0.91 -1.307,2.122 -1.902,3.636 -0.713,1.812 -1.113998,3.416 -1.204998,4.813 -0.09,1.397 0.097,2.56 0.563998,3.488 0.466,0.928 1.183,1.583 2.151,1.963 0.694,0.273 1.507,0.32 2.437,0.141 0.93,-0.178 1.872,-0.754 2.827,-1.725 0.955,-0.971 1.852,-2.524 2.691,-4.659 0.585,-1.489 0.958,-2.803 1.12,-3.943 0.127,-1.125 0.094,-2.098 -0.099,-2.919 -0.228,-0.805 -0.569,-1.469 -1.023,-1.992 -0.478,-0.532 -1.028,-0.92 -1.648,-1.163 z"
     fill="#ffffff"
     id="path12" />
  <path
     d="m 82.560562,258.15002 -12.1334,12.416 2.8035,2.74 -3.9419,4.034 c -0.9345,-0.914 -1.8463,-1.488 -2.7353,-1.723 -0.9076,-0.215 -1.9132,0.07 -3.0168,0.855 l -4.0909,-3.997 18.4516,-18.882 z m -8.5925,-8.397 -12.1333,12.416 2.8035,2.74 -3.9419,4.034 c -0.9345,-0.914 -1.8463,-1.488 -2.7353,-1.723 -0.9076,-0.215 -1.9132,0.07 -3.0168,0.855 l -4.0909,-3.997 18.4516,-18.882 z"
     fill="#ffffff"
     id="path13" />
  <path
     d="m 57.618062,223.55302 -15.5865,7.644 1.726,3.519 -5.0638,2.484 c -0.5754,-1.174 -1.2427,-2.02 -2.002,-2.538 -0.7832,-0.507 -1.8262,-0.575 -3.129,-0.203 l -2.5186,-5.136 23.703,-11.624 z m -3.7577,-7.663 -5.7462,2.818 -10.558,-6.539 c -0.4272,-0.265 -0.8963,-0.525 -1.4072,-0.78 -0.5109,-0.254 -1.052,-0.449 -1.6234,-0.585 -0.5831,-0.159 -1.167,-0.229 -1.7515,-0.21 -0.6085,0.031 -1.212,0.193 -1.8105,0.487 -0.6226,0.305 -1.0788,0.707 -1.3689,1.206 -0.3018,0.475 -0.4313,1.028 -0.3884,1.661 0.0071,0.62 0.1927,1.301 0.5567,2.043 0.411,0.838 0.8773,1.456 1.399,1.854 0.5099,0.373 1.0748,0.586 1.6945,0.639 0.5841,0.04 1.1989,-0.039 1.8444,-0.236 0.6455,-0.198 1.2915,-0.456 1.938,-0.773 l 1.5448,6.148 c -1.7722,0.929 -3.4806,1.321 -5.1253,1.177 -1.6687,-0.132 -3.2024,-0.746 -4.6012,-1.842 -1.4106,-1.12 -2.6091,-2.686 -3.5954,-4.697 -0.8689,-1.771 -1.3626,-3.475 -1.4813,-5.11 -0.1303,-1.658 0.1673,-3.141 0.8929,-4.447 0.69,-1.318 1.849,-2.377 3.4771,-3.175 1.1971,-0.588 2.3863,-0.918 3.5675,-0.993 1.1573,-0.062 2.2656,0.048 3.3248,0.33 1.0593,0.282 2.07,0.678 3.0321,1.186 0.9264,0.496 1.7692,1.004 2.5285,1.522 l 5.534,3.835 0.3232,-0.158 -6.1686,-12.033 4.6688,-2.29 z"
     fill="#ffffff"
     id="path14" />
  <path
     d="m 46.267762,178.91502 -17.3466,0.682 0.1539,3.917 -5.6356,0.221 c -0.0513,-1.305 -0.3192,-2.349 -0.8036,-3.13 -0.511,-0.781 -1.4374,-1.265 -2.7791,-1.452 l -0.2246,-5.716 26.3796,-1.037 z m -0.1728,-18.661 c 0.0701,1.785 -0.0418,3.351 -0.3359,4.697 -0.2951,1.319 -0.7451,2.431 -1.3501,3.335 -0.6316,0.906 -1.417,1.63 -2.3564,2.174 -0.9404,0.518 -2.0075,0.867 -3.2014,1.047 l -2.0663,-5.723 c 0.7173,-0.082 1.3644,-0.254 1.9412,-0.517 0.5491,-0.288 1.0146,-0.667 1.3965,-1.136 0.3819,-0.468 0.6669,-1.027 0.8549,-1.675 0.1614,-0.646 0.2264,-1.37 0.195,-2.169 -0.0367,-0.933 -0.2018,-1.74 -0.4955,-2.422 -0.3214,-0.708 -0.7692,-1.238 -1.3434,-1.589 -0.602,-0.376 -1.3293,-0.548 -2.1819,-0.515 -1.0659,0.042 -1.93,0.463 -2.5924,1.263 -0.6902,0.775 -1.1376,1.953 -1.3423,3.536 -0.2047,1.582 -0.1261,3.581 0.2356,5.995 l -3.5572,0.14 -5.5,-8.551 -0.3597,0.014 0.6115,12.506 -5.1561,0.203 -0.7476,-19.026 5.8755,-0.231 5.4796,8.031 0.3997,-0.015 c -0.286,-2.524 -0.1375,-4.518 0.4454,-5.982 0.5819,-1.491 1.4338,-2.565 2.5555,-3.223 1.1206,-0.685 2.3338,-1.053 3.6394,-1.104 1.7587,-0.069 3.2937,0.284 4.6052,1.06 1.2838,0.75 2.305,1.951 3.0638,3.602 0.7577,1.625 1.1868,3.717 1.2874,6.275 z"
     fill="#ffffff"
     id="path15" />
  <path
     d="m 47.885362,133.04002 -16.3042,-5.962 -1.3462,3.682 -5.297,-1.937 c 0.4488,-1.227 0.5976,-2.294 0.4466,-3.201 -0.1761,-0.917 -0.849,-1.716 -2.0189,-2.4 l 1.9644,-5.372 24.7944,9.066 z m -2.0124,-9.056 -5.6727,-2.074 c -1.0698,-1.811 -2.0911,-3.405 -3.0637,-4.783 -0.9635,-1.403 -1.9022,-2.641 -2.8162,-3.713 -0.914,-1.073 -1.8316,-2.019 -2.7528,-2.838 -0.9121,-0.845 -1.8346,-1.622 -2.7674,-2.332 l 3.8326,-10.482004 24.832,9.080004 -2.1979,6.011 -20.925,-7.651 -0.1374,0.375 c 1.2511,1.083 2.4043,2.2 3.4593,3.352 1.0301,1.144 1.9746,2.326 2.8336,3.549 0.8431,1.189 1.6429,2.418 2.3993,3.688 l 0.4132,0.152 6.0167,-16.455004 4.7335,1.731004 z"
     fill="#ffffff"
     id="path16" />
  <path
     d="m 72.531162,88.815016 -12.3642,-12.186 -2.7517,2.792 -4.0169,-3.959 c 0.9172,-0.93 1.4952,-1.84 1.7339,-2.728 0.2197,-0.906 -0.061,-1.9131 -0.8422,-3.02 l 4.0152,-4.0739 18.8026,18.5319 z m 13.7744,-13.177 c -1.442,1.462 -2.924,2.548 -4.446,3.257 -1.522,0.708 -2.972,1.002 -4.3494,0.88 -1.3964,-0.141 -2.636,-0.764 -3.7189,-1.868 l 3.4698,-5.173 c 0.9105,0.71 1.8545,0.967 2.8345,0.771 0.979,-0.196 1.843,-0.673 2.591,-1.433 0.918,-0.931 1.354,-1.905 1.309,-2.923 -0.027,-1.0369 -0.562,-2.0701 -1.607,-3.0996 -0.513,-0.5055 -1.025,-0.8977 -1.536,-1.1769 -0.53,-0.2978 -1.05,-0.4732 -1.559,-0.5261 -0.51,-0.0528 -1.009,0.0356 -1.4975,0.2655 -0.4888,0.1921 -0.9673,0.5256 -1.4352,1.0004 -0.2621,0.2659 -0.4768,0.5597 -0.6442,0.8815 -0.1864,0.303 -0.3254,0.634 -0.4171,0.993 -0.0916,0.3589 -0.1265,0.7552 -0.1045,1.1887 0.0408,0.4146 0.1196,0.8854 0.2366,1.4125 l -4.4364,4.501 -10.1812,-11.4944 13.0283,-13.2188 3.789,3.7344 -9.2939,9.4298 4.5355,5.2564 0.3089,-0.3134 c -0.5186,-1.2973 -0.5941,-2.6073 -0.2265,-3.93 0.3485,-1.3413 1.0375,-2.5343 2.0671,-3.5789 1.2167,-1.2345 2.4934,-1.998 3.8301,-2.2906 1.336,-0.3303 2.695,-0.227 4.075,0.3098 1.362,0.5181 2.707,1.4324 4.037,2.7427 1.576,1.5536 2.559,3.1588 2.948,4.8153 0.389,1.6189 0.259,3.2509 -0.389,4.8961 -0.648,1.6076 -1.721,3.1706 -3.218,4.6906 z"
     fill="#ffffff"
     id="path17" />
  <path
     d="m 107.52556,60.965416 -7.143,-15.8224 -3.572998,1.6129 -2.321,-5.1404 c 1.191,-0.5377 2.058,-1.1777 2.601,-1.92 0.531,-0.7667 0.632,-1.807 0.302,-3.121 l 5.213998,-2.3535 10.862,24.0617 z m 19.489,-8.0959 c -3.743,1.6897 -7.045,1.893 -9.907,0.6101 -2.861,-1.283 -5.197,-3.9297 -7.007,-7.94 -1.284,-2.8436 -1.904,-5.4163 -1.861,-7.7181 0.057,-2.337 0.698,-4.3525 1.923,-6.0465 1.249,-1.705 3.016,-3.0731 5.3,-4.1045 1.191,-0.5377 2.345,-0.8977 3.462,-1.0802 1.142,-0.1935 2.228,-0.1863 3.258,0.0216 1.043,0.1726 2.018,0.5812 2.923,1.2258 0.919,0.6092 1.745,1.4357 2.48,2.4793 l -4.863,3.907 c -0.517,-0.8201 -1.11,-1.3569 -1.78,-1.6102 -0.657,-0.2886 -1.304,-0.3918 -1.94,-0.3095 -0.646,0.0579 -1.225,0.2021 -1.735,0.4325 -0.851,0.384 -1.499,0.9252 -1.944,1.6237 -0.446,0.6985 -0.711,1.5055 -0.795,2.4212 -0.059,0.9047 0.028,1.8749 0.261,2.9105 0.234,1.0357 0.592,2.0882 1.074,3.1577 0.209,0.4617 0.48,0.9976 0.814,1.6076 0.323,0.5857 0.665,1.1482 1.025,1.6877 l 0.365,-0.1646 c -0.595,-1.2529 -0.86,-2.3913 -0.796,-3.4151 0.054,-1.0482 0.323,-1.9744 0.808,-2.7787 0.499,-0.8396 1.118,-1.5431 1.856,-2.1106 0.728,-0.5918 1.468,-1.0578 2.222,-1.3979 1.337,-0.6035 2.69,-0.8781 4.061,-0.8238 1.383,0.019 2.662,0.4218 3.837,1.2083 1.198,0.7755 2.16,1.9653 2.884,3.5695 0.439,0.9721 0.72,2.0157 0.842,3.1305 0.123,1.1148 -0.005,2.2555 -0.386,3.422 -0.367,1.1312 -1.06,2.2197 -2.08,3.2653 -1.021,1.0457 -2.454,1.9855 -4.301,2.8194 z m -2.326,-4.5678 c 0.584,-0.2633 1.073,-0.5721 1.469,-0.9264 0.409,-0.3896 0.731,-0.8125 0.963,-1.2688 0.222,-0.4805 0.337,-0.9713 0.345,-1.4722 -0.003,-0.5253 -0.125,-1.0553 -0.366,-1.59 -0.308,-0.6805 -0.747,-1.1992 -1.317,-1.556 -0.558,-0.392 -1.182,-0.6077 -1.872,-0.647 -0.691,-0.0393 -1.401,0.1056 -2.13,0.4348 -0.729,0.3292 -1.338,0.7944 -1.828,1.3956 -0.465,0.5903 -0.765,1.2527 -0.902,1.9872 -0.112,0.7236 0.002,1.4622 0.342,2.2156 0.263,0.5833 0.598,1.0322 1.003,1.3466 0.394,0.2901 0.834,0.4866 1.319,0.5894 0.499,0.0675 1.006,0.0577 1.523,-0.0292 0.506,-0.1113 0.989,-0.2711 1.451,-0.4796 z"
     fill="#ffffff"
     id="path18" />
  <path
     d="m 164.35156,72.051016 v -0.968 l 1.936,-1.3997 c 0.107,-0.0853 0.216,-0.176 0.328,-0.272 0.117,-0.1013 0.224,-0.2133 0.32,-0.336 0.101,-0.1226 0.181,-0.2533 0.24,-0.392 0.064,-0.1386 0.096,-0.2906 0.096,-0.456 0,-0.1653 -0.037,-0.3093 -0.112,-0.432 -0.075,-0.1226 -0.187,-0.2186 -0.336,-0.288 -0.144,-0.0693 -0.325,-0.104 -0.544,-0.104 -0.165,0 -0.315,0.0267 -0.448,0.08 -0.133,0.048 -0.245,0.1254 -0.336,0.232 -0.091,0.1014 -0.157,0.2347 -0.2,0.4 -0.043,0.1654 -0.064,0.3654 -0.064,0.6 l -0.84,-0.16 c -0.011,-0.3893 0.056,-0.7253 0.2,-1.008 0.144,-0.2826 0.357,-0.5013 0.64,-0.656 0.288,-0.16 0.643,-0.24 1.064,-0.24 0.368,0 0.691,0.0614 0.968,0.184 0.277,0.1174 0.491,0.288 0.64,0.512 0.155,0.224 0.232,0.496 0.232,0.816 0,0.256 -0.043,0.4907 -0.128,0.704 -0.085,0.2134 -0.197,0.4054 -0.336,0.576 -0.133,0.1707 -0.28,0.3227 -0.44,0.456 -0.16,0.1334 -0.317,0.2507 -0.472,0.352 l -1.424,1.0317 v 0.064 l 2.92,-0.032 v 0.736 z m -6.69,7.104 c -0.346,0 -0.656,-0.034 -0.928,-0.104 -0.266,-0.074 -0.493,-0.181 -0.68,-0.32 -0.181,-0.144 -0.32,-0.32 -0.416,-0.528 -0.09,-0.213 -0.133,-0.458 -0.128,-0.736 l 0.776,-0.208 c -0.01,0.267 0.04,0.488 0.152,0.664 0.112,0.176 0.278,0.31 0.496,0.4 0.224,0.086 0.48,0.128 0.768,0.128 0.283,0 0.52,-0.034 0.712,-0.104 0.192,-0.069 0.336,-0.162 0.432,-0.28 0.102,-0.122 0.152,-0.261 0.152,-0.416 0,-0.176 -0.061,-0.314 -0.184,-0.416 -0.117,-0.106 -0.274,-0.189 -0.472,-0.248 -0.197,-0.064 -0.418,-0.122 -0.664,-0.176 -0.25,-0.053 -0.498,-0.114 -0.744,-0.184 -0.245,-0.069 -0.469,-0.16 -0.672,-0.272 -0.197,-0.117 -0.357,-0.266 -0.48,-0.448 -0.117,-0.181 -0.176,-0.41 -0.176,-0.688 0,-0.32 0.08,-0.594 0.24,-0.824 0.16,-0.229 0.387,-0.408 0.68,-0.536 0.299,-0.128 0.651,-0.192 1.056,-0.192 0.406,0 0.76,0.064 1.064,0.192 0.31,0.123 0.552,0.304 0.728,0.544 0.182,0.235 0.275,0.52 0.28,0.856 l -0.8,0.208 c 0,-0.181 -0.032,-0.341 -0.096,-0.48 -0.058,-0.138 -0.144,-0.253 -0.256,-0.344 -0.112,-0.09 -0.245,-0.157 -0.4,-0.2 -0.154,-0.048 -0.33,-0.072 -0.528,-0.072 -0.229,0 -0.429,0.035 -0.6,0.104 -0.17,0.064 -0.304,0.155 -0.4,0.272 -0.09,0.112 -0.136,0.246 -0.136,0.4 0,0.192 0.067,0.344 0.2,0.456 0.139,0.107 0.32,0.195 0.544,0.264 0.224,0.064 0.464,0.126 0.72,0.184 0.23,0.048 0.456,0.107 0.68,0.176 0.23,0.064 0.438,0.152 0.624,0.264 0.192,0.112 0.344,0.259 0.456,0.44 0.118,0.182 0.176,0.414 0.176,0.696 0,0.31 -0.082,0.579 -0.248,0.808 -0.16,0.23 -0.4,0.408 -0.72,0.536 -0.32,0.123 -0.722,0.184 -1.208,0.184 z m 6.229,-0.104 v -5.28 h 0.872 v 5.28 z m -3.488,0 v -5.28 h 0.872 v 5.28 z m 0.464,-2.32 v -0.736 h 3.368 v 0.736 z m 6.92,2.424 c -0.384,0 -0.725,-0.061 -1.024,-0.184 -0.293,-0.128 -0.544,-0.309 -0.752,-0.544 -0.202,-0.234 -0.357,-0.52 -0.464,-0.856 -0.101,-0.336 -0.152,-0.714 -0.152,-1.136 0,-0.618 0.104,-1.13 0.312,-1.536 0.208,-0.41 0.494,-0.717 0.856,-0.92 0.363,-0.208 0.776,-0.312 1.24,-0.312 0.363,0 0.691,0.062 0.984,0.184 0.294,0.118 0.544,0.296 0.752,0.536 0.214,0.235 0.376,0.526 0.488,0.872 0.112,0.342 0.168,0.731 0.168,1.168 0,0.427 -0.053,0.811 -0.16,1.152 -0.106,0.336 -0.264,0.622 -0.472,0.856 -0.208,0.235 -0.461,0.414 -0.76,0.536 -0.293,0.123 -0.632,0.184 -1.016,0.184 z m 0.016,-0.728 c 0.32,0 0.592,-0.077 0.816,-0.232 0.224,-0.154 0.395,-0.376 0.512,-0.664 0.118,-0.293 0.176,-0.65 0.176,-1.072 0,-0.432 -0.061,-0.8 -0.184,-1.104 -0.117,-0.304 -0.29,-0.536 -0.52,-0.696 -0.224,-0.165 -0.496,-0.248 -0.816,-0.248 -0.309,0 -0.578,0.08 -0.808,0.24 -0.224,0.155 -0.397,0.382 -0.52,0.68 -0.117,0.299 -0.176,0.667 -0.176,1.104 0,0.32 0.035,0.606 0.104,0.856 0.07,0.246 0.168,0.454 0.296,0.624 0.128,0.166 0.286,0.294 0.472,0.384 0.192,0.086 0.408,0.128 0.648,0.128 z m 3.955,0.624 v -5.28 h 0.88 v 5.28 z m -1.584,-4.528 v -0.752 h 4.056 v 0.752 z m 6.264,4.632 c -0.347,0 -0.656,-0.034 -0.928,-0.104 -0.267,-0.074 -0.494,-0.181 -0.68,-0.32 -0.182,-0.144 -0.32,-0.32 -0.416,-0.528 -0.091,-0.213 -0.134,-0.458 -0.128,-0.736 l 0.776,-0.208 c -0.011,0.267 0.04,0.488 0.152,0.664 0.112,0.176 0.277,0.31 0.496,0.4 0.224,0.086 0.48,0.128 0.768,0.128 0.282,0 0.52,-0.034 0.712,-0.104 0.192,-0.069 0.336,-0.162 0.432,-0.28 0.101,-0.122 0.152,-0.261 0.152,-0.416 0,-0.176 -0.062,-0.314 -0.184,-0.416 -0.118,-0.106 -0.275,-0.189 -0.472,-0.248 -0.198,-0.064 -0.419,-0.122 -0.664,-0.176 -0.251,-0.053 -0.499,-0.114 -0.744,-0.184 -0.246,-0.069 -0.47,-0.16 -0.672,-0.272 -0.198,-0.117 -0.358,-0.266 -0.48,-0.448 -0.118,-0.181 -0.176,-0.41 -0.176,-0.688 0,-0.32 0.08,-0.594 0.24,-0.824 0.16,-0.229 0.386,-0.408 0.68,-0.536 0.298,-0.128 0.65,-0.192 1.056,-0.192 0.405,0 0.76,0.064 1.064,0.192 0.309,0.123 0.552,0.304 0.728,0.544 0.181,0.235 0.274,0.52 0.28,0.856 l -0.8,0.208 c 0,-0.181 -0.032,-0.341 -0.096,-0.48 -0.059,-0.138 -0.144,-0.253 -0.256,-0.344 -0.112,-0.09 -0.246,-0.157 -0.4,-0.2 -0.155,-0.048 -0.331,-0.072 -0.528,-0.072 -0.23,0 -0.43,0.035 -0.6,0.104 -0.171,0.064 -0.304,0.155 -0.4,0.272 -0.091,0.112 -0.136,0.246 -0.136,0.4 0,0.192 0.066,0.344 0.2,0.456 0.138,0.107 0.32,0.195 0.544,0.264 0.224,0.064 0.464,0.126 0.72,0.184 0.229,0.048 0.456,0.107 0.68,0.176 0.229,0.064 0.437,0.152 0.624,0.264 0.192,0.112 0.344,0.259 0.456,0.44 0.117,0.182 0.176,0.414 0.176,0.696 0,0.31 -0.083,0.579 -0.248,0.808 -0.16,0.23 -0.4,0.408 -0.72,0.536 -0.32,0.123 -0.723,0.184 -1.208,0.184 z"
     fill="#030404"
     id="path19" />
  <path
     d="m 201.89256,78.753016 1.543,-3.586 -0.705,-0.303 0.304,-0.706 c 0.225,0.097 0.427,0.141 0.605,0.131 0.184,-0.009 0.346,-0.116 0.487,-0.322 l 0.662,0.284 -2.088,4.85 z m -9.089,3.822 c -0.319,-0.137 -0.589,-0.291 -0.812,-0.462 -0.215,-0.174 -0.381,-0.362 -0.498,-0.563 -0.109,-0.204 -0.167,-0.42 -0.173,-0.649 0.001,-0.232 0.059,-0.474 0.173,-0.727 l 0.795,0.116 c -0.115,0.241 -0.156,0.464 -0.122,0.67 0.033,0.206 0.132,0.394 0.297,0.563 0.172,0.167 0.39,0.308 0.655,0.422 0.259,0.111 0.491,0.173 0.695,0.186 0.204,0.012 0.373,-0.017 0.507,-0.087 0.142,-0.072 0.243,-0.18 0.305,-0.322 0.069,-0.162 0.068,-0.313 -0.005,-0.455 -0.066,-0.144 -0.177,-0.282 -0.336,-0.414 -0.155,-0.137 -0.336,-0.278 -0.54,-0.424 -0.209,-0.148 -0.413,-0.303 -0.611,-0.463 -0.197,-0.161 -0.367,-0.333 -0.509,-0.516 -0.135,-0.186 -0.223,-0.386 -0.264,-0.601 -0.036,-0.213 0.001,-0.447 0.11,-0.702 0.127,-0.294 0.309,-0.514 0.547,-0.662 0.237,-0.147 0.516,-0.222 0.836,-0.223 0.325,0 0.674,0.081 1.046,0.241 0.372,0.16 0.673,0.359 0.901,0.597 0.236,0.235 0.387,0.497 0.454,0.787 0.074,0.288 0.047,0.587 -0.081,0.897 l -0.817,-0.125 c 0.071,-0.166 0.105,-0.326 0.101,-0.479 0.001,-0.15 -0.032,-0.289 -0.099,-0.417 -0.067,-0.127 -0.163,-0.241 -0.288,-0.342 -0.123,-0.105 -0.276,-0.197 -0.457,-0.275 -0.21,-0.09 -0.408,-0.138 -0.592,-0.141 -0.182,-0.009 -0.34,0.022 -0.475,0.091 -0.128,0.067 -0.222,0.172 -0.283,0.314 -0.076,0.176 -0.075,0.342 0.003,0.498 0.086,0.153 0.217,0.305 0.396,0.458 0.18,0.147 0.376,0.298 0.588,0.453 0.192,0.135 0.377,0.278 0.555,0.431 0.186,0.149 0.342,0.312 0.469,0.489 0.132,0.179 0.214,0.373 0.245,0.584 0.036,0.213 -0.002,0.45 -0.113,0.709 -0.123,0.284 -0.305,0.499 -0.548,0.644 -0.237,0.148 -0.528,0.217 -0.873,0.208 -0.342,-0.014 -0.736,-0.117 -1.182,-0.309 z m 5.762,2.367 2.088,-4.849 0.801,0.344 -2.088,4.85 z m -3.203,-1.378 2.087,-4.85 0.801,0.344 -2.087,4.85 z m 1.343,-1.948 0.291,-0.676 3.094,1.331 -0.291,0.676 z m 5.398,4.962 c -0.353,-0.152 -0.642,-0.343 -0.868,-0.574 -0.219,-0.233 -0.377,-0.499 -0.476,-0.797 -0.093,-0.295 -0.122,-0.618 -0.087,-0.969 0.039,-0.349 0.143,-0.717 0.309,-1.104 0.245,-0.568 0.543,-0.997 0.894,-1.287 0.353,-0.295 0.737,-0.464 1.15,-0.507 0.415,-0.048 0.836,0.02 1.262,0.204 0.333,0.143 0.61,0.329 0.831,0.558 0.223,0.223 0.383,0.487 0.479,0.789 0.103,0.3 0.138,0.632 0.104,0.994 -0.032,0.358 -0.135,0.738 -0.308,1.139 -0.168,0.392 -0.369,0.724 -0.602,0.995 -0.231,0.267 -0.488,0.467 -0.772,0.6 -0.284,0.133 -0.587,0.197 -0.91,0.192 -0.318,-0.003 -0.653,-0.081 -1.006,-0.233 z m 0.302,-0.662 c 0.294,0.126 0.575,0.163 0.842,0.109 0.267,-0.053 0.511,-0.189 0.733,-0.407 0.223,-0.223 0.418,-0.528 0.585,-0.915 0.171,-0.397 0.26,-0.759 0.267,-1.087 0.013,-0.326 -0.055,-0.607 -0.202,-0.845 -0.14,-0.24 -0.358,-0.424 -0.652,-0.55 -0.284,-0.123 -0.563,-0.156 -0.837,-0.099 -0.266,0.053 -0.515,0.193 -0.746,0.419 -0.226,0.228 -0.425,0.543 -0.598,0.944 -0.127,0.294 -0.208,0.57 -0.243,0.828 -0.033,0.252 -0.025,0.482 0.025,0.69 0.052,0.202 0.146,0.382 0.282,0.539 0.142,0.154 0.324,0.279 0.544,0.374 z m 3.387,2.137 2.087,-4.85 0.808,0.348 -2.087,4.85 z m 0.335,-4.786 0.297,-0.69 3.726,1.603 -0.298,0.691 z"
     fill="#030404"
     id="path20" />
  <path
     d="m 231.55356,98.789016 0.697,-0.673 2.352,0.42 c 0.135,0.018 0.276,0.033 0.423,0.047 0.154,0.014 0.309,0.013 0.464,-0.003 0.159,-0.012 0.308,-0.046 0.449,-0.1 0.144,-0.05 0.276,-0.133 0.394,-0.247 0.119,-0.115 0.197,-0.242 0.233,-0.381 0.037,-0.139 0.028,-0.286 -0.026,-0.442 -0.05,-0.152 -0.151,-0.306 -0.303,-0.463 -0.115,-0.119 -0.238,-0.208 -0.369,-0.267 -0.127,-0.063 -0.26,-0.09 -0.4,-0.081 -0.136,0.006 -0.278,0.05 -0.427,0.134 -0.148,0.085 -0.307,0.208 -0.476,0.371 l -0.468,-0.715 c 0.272,-0.278 0.56,-0.464 0.864,-0.557 0.303,-0.092 0.609,-0.091 0.916,0.005 0.315,0.096 0.619,0.296 0.912,0.599 0.256,0.264 0.436,0.539 0.54,0.824 0.108,0.281 0.134,0.553 0.076,0.816 -0.053,0.267 -0.195,0.511 -0.425,0.734 -0.184,0.177 -0.383,0.31 -0.596,0.397 -0.212,0.086 -0.428,0.139 -0.647,0.158 -0.216,0.023 -0.427,0.023 -0.634,0 -0.207,-0.022 -0.401,-0.054 -0.581,-0.095 l -1.732,-0.307 -0.046,0.044 2.052,2.079004 -0.53,0.511 z m -10.274,-0.413 c -0.241,-0.249 -0.431,-0.496 -0.57,-0.74 -0.131,-0.243 -0.212,-0.48 -0.242,-0.711 -0.023,-0.231 0.008,-0.453 0.091,-0.666 0.09,-0.214 0.237,-0.415 0.44,-0.603 l 0.689,0.413 c -0.199,0.178 -0.323,0.368 -0.372,0.571 -0.049,0.203 -0.03,0.414 0.057,0.634 0.094,0.221 0.241,0.435 0.441,0.642 0.196,0.203 0.386,0.35 0.57,0.44 0.183,0.09 0.35,0.128 0.501,0.116 0.159,-0.012 0.294,-0.072 0.405,-0.18 0.126,-0.122 0.184,-0.262 0.171,-0.421 -0.004,-0.159 -0.054,-0.329 -0.149,-0.512 -0.091,-0.186 -0.203,-0.386 -0.335,-0.6 -0.136,-0.217 -0.264,-0.438 -0.384,-0.663 -0.121,-0.224 -0.211,-0.448 -0.272,-0.672 -0.052,-0.223 -0.056,-0.442 -0.011,-0.657 0.049,-0.21 0.173,-0.411 0.373,-0.604 0.23,-0.222 0.483,-0.356 0.759,-0.4 0.276,-0.044 0.562,-0.005 0.858,0.117 0.3,0.126 0.59,0.335 0.872,0.626 0.282,0.292 0.482,0.591 0.601,0.899 0.127,0.308 0.165,0.608 0.114,0.901 -0.042,0.294 -0.183,0.559 -0.421,0.797 l -0.705,-0.431 c 0.13,-0.126 0.223,-0.261 0.278,-0.403 0.059,-0.138 0.083,-0.28 0.07,-0.423 -0.013,-0.144 -0.057,-0.286 -0.134,-0.427 -0.073,-0.144 -0.178,-0.288 -0.315,-0.43 -0.159,-0.164 -0.323,-0.284 -0.492,-0.359 -0.164,-0.078 -0.322,-0.111 -0.473,-0.099 -0.144,0.013 -0.271,0.073 -0.382,0.18 -0.138,0.134 -0.201,0.287 -0.189,0.461 0.019,0.174 0.082,0.365 0.188,0.575 0.109,0.205 0.232,0.421 0.367,0.645 0.125,0.199 0.24,0.403 0.346,0.612 0.113,0.209 0.195,0.42 0.244,0.632 0.053,0.216 0.053,0.427 0,0.634 -0.049,0.21 -0.175,0.414 -0.378,0.61 -0.223,0.215 -0.474,0.342 -0.754,0.383 -0.276,0.044 -0.571,-0.005 -0.886,-0.146 -0.31,-0.145 -0.634,-0.392 -0.971,-0.741 z m 4.402,4.409004 3.798,-3.668004 0.606,0.627 -3.798,3.668004 z m -2.423,-2.509 3.798,-3.668004 0.606,0.627 -3.798,3.668004 z m 1.991,-1.278004 0.529,-0.512 2.34,2.423004 -0.529,0.511 z m 3.064,6.661004 c -0.267,-0.276 -0.46,-0.564 -0.579,-0.864 -0.112,-0.3 -0.156,-0.606 -0.131,-0.919 0.028,-0.309 0.125,-0.618 0.293,-0.928 0.171,-0.307 0.408,-0.606 0.712,-0.899 0.445,-0.43 0.885,-0.711 1.321,-0.842 0.44,-0.136 0.859,-0.144 1.257,-0.024 0.401,0.117 0.763,0.342 1.085,0.675 0.252,0.261 0.436,0.54 0.552,0.836 0.119,0.292 0.165,0.597 0.136,0.913 -0.02,0.317 -0.116,0.636 -0.288,0.957 -0.168,0.318 -0.409,0.628 -0.723,0.932 -0.307,0.297 -0.62,0.525 -0.94,0.685 -0.316,0.157 -0.63,0.242 -0.944,0.256 -0.313,0.013 -0.617,-0.045 -0.913,-0.175 -0.292,-0.126 -0.572,-0.327 -0.838,-0.603 z m 0.534,-0.494 c 0.223,0.23 0.467,0.372 0.734,0.426 0.267,0.054 0.545,0.023 0.833,-0.093 0.293,-0.12 0.591,-0.326 0.894,-0.618 0.311,-0.3 0.533,-0.6 0.666,-0.9 0.137,-0.295 0.184,-0.581 0.14,-0.857 -0.037,-0.276 -0.167,-0.529 -0.389,-0.759 -0.215,-0.223 -0.459,-0.361 -0.734,-0.415 -0.267,-0.053 -0.55,-0.021 -0.85,0.099 -0.297,0.123 -0.602,0.336 -0.917,0.64 -0.23,0.222 -0.411,0.445 -0.543,0.669 -0.128,0.221 -0.209,0.436 -0.243,0.647 -0.03,0.207 -0.013,0.409 0.051,0.606 0.072,0.197 0.192,0.382 0.358,0.555 z m 2.299,3.278 3.798,-3.667 0.611,0.633 -3.798,3.667 z m 2.157,-4.284 0.541,-0.523 2.817,2.918 -0.541,0.522 z m 1.019,7.723 c -0.241,-0.25 -0.431,-0.496 -0.57,-0.74 -0.132,-0.244 -0.212,-0.481 -0.242,-0.712 -0.023,-0.23 0.008,-0.452 0.091,-0.666 0.09,-0.213 0.237,-0.414 0.44,-0.603 l 0.689,0.414 c -0.199,0.177 -0.323,0.367 -0.372,0.57 -0.049,0.203 -0.03,0.415 0.057,0.635 0.094,0.22 0.241,0.434 0.441,0.641 0.196,0.204 0.386,0.35 0.569,0.44 0.184,0.09 0.351,0.129 0.502,0.116 0.159,-0.012 0.294,-0.072 0.405,-0.179 0.126,-0.123 0.183,-0.263 0.171,-0.422 -0.005,-0.158 -0.054,-0.329 -0.149,-0.511 -0.091,-0.187 -0.203,-0.387 -0.335,-0.6 -0.136,-0.218 -0.264,-0.439 -0.384,-0.663 -0.121,-0.225 -0.211,-0.449 -0.272,-0.673 -0.052,-0.223 -0.056,-0.442 -0.011,-0.656 0.049,-0.21 0.173,-0.412 0.373,-0.605 0.23,-0.222 0.483,-0.355 0.759,-0.399 0.276,-0.045 0.562,-0.006 0.858,0.116 0.3,0.126 0.59,0.335 0.872,0.627 0.281,0.291 0.482,0.591 0.601,0.898 0.127,0.308 0.165,0.609 0.114,0.902 -0.043,0.293 -0.183,0.559 -0.421,0.796 l -0.705,-0.431 c 0.13,-0.126 0.223,-0.26 0.278,-0.403 0.059,-0.138 0.082,-0.279 0.07,-0.423 -0.013,-0.143 -0.057,-0.285 -0.134,-0.426 -0.073,-0.145 -0.178,-0.288 -0.315,-0.43 -0.159,-0.165 -0.323,-0.285 -0.492,-0.359 -0.164,-0.079 -0.322,-0.112 -0.473,-0.099 -0.144,0.012 -0.271,0.072 -0.382,0.18 -0.139,0.133 -0.202,0.287 -0.19,0.46 0.02,0.174 0.083,0.366 0.188,0.575 0.11,0.206 0.233,0.421 0.368,0.646 0.125,0.198 0.24,0.402 0.346,0.611 0.113,0.21 0.195,0.42 0.244,0.633 0.052,0.215 0.053,0.427 0,0.633 -0.049,0.211 -0.175,0.414 -0.378,0.61 -0.223,0.215 -0.474,0.343 -0.754,0.383 -0.276,0.044 -0.571,-0.004 -0.886,-0.145 -0.31,-0.145 -0.634,-0.392 -0.971,-0.741 z"
     fill="#030404"
     id="path21" />
  <path
     d="m 234.26056,231.81702 0.688,0.681 -0.368,2.361 c -0.014,0.136 -0.027,0.277 -0.038,0.425 -0.01,0.154 -0.006,0.309 0.014,0.463 0.016,0.159 0.052,0.307 0.11,0.447 0.053,0.143 0.139,0.272 0.256,0.389 0.118,0.116 0.246,0.191 0.386,0.224 0.14,0.033 0.287,0.021 0.441,-0.036 0.151,-0.053 0.303,-0.158 0.457,-0.313 0.116,-0.118 0.202,-0.243 0.258,-0.375 0.06,-0.128 0.084,-0.262 0.072,-0.402 -0.009,-0.136 -0.056,-0.277 -0.144,-0.423 -0.087,-0.147 -0.214,-0.303 -0.381,-0.468 l 0.705,-0.484 c 0.284,0.266 0.476,0.55 0.575,0.851 0.1,0.301 0.105,0.607 0.016,0.916 -0.089,0.318 -0.282,0.626 -0.578,0.925 -0.259,0.262 -0.53,0.448 -0.812,0.559 -0.279,0.114 -0.55,0.146 -0.814,0.094 -0.268,-0.048 -0.516,-0.184 -0.743,-0.409 -0.182,-0.18 -0.319,-0.376 -0.411,-0.587 -0.091,-0.21 -0.149,-0.425 -0.172,-0.644 -0.028,-0.215 -0.033,-0.426 -0.015,-0.633 0.018,-0.208 0.045,-0.402 0.082,-0.583 l 0.269,-1.738 -0.045,-0.045 -2.032,2.097 -0.523,-0.518 z m 0.184,-10.281 c 0.244,-0.246 0.486,-0.442 0.727,-0.586 0.24,-0.137 0.476,-0.223 0.705,-0.258 0.23,-0.027 0.453,-0.002 0.668,0.076 0.216,0.086 0.42,0.228 0.613,0.427 l -0.398,0.698 c -0.182,-0.196 -0.375,-0.315 -0.579,-0.36 -0.204,-0.044 -0.415,-0.02 -0.633,0.071 -0.218,0.1 -0.429,0.251 -0.631,0.456 -0.199,0.201 -0.342,0.394 -0.427,0.579 -0.086,0.185 -0.121,0.353 -0.105,0.504 0.015,0.158 0.078,0.292 0.188,0.401 0.125,0.124 0.267,0.178 0.425,0.162 0.159,-0.009 0.328,-0.062 0.509,-0.161 0.184,-0.095 0.381,-0.211 0.592,-0.348 0.214,-0.141 0.432,-0.274 0.654,-0.399 0.222,-0.126 0.444,-0.221 0.666,-0.286 0.222,-0.058 0.441,-0.066 0.656,-0.026 0.212,0.044 0.416,0.164 0.613,0.359 0.227,0.225 0.366,0.475 0.417,0.75 0.05,0.275 0.017,0.562 -0.098,0.861 -0.119,0.302 -0.322,0.597 -0.607,0.885 -0.285,0.288 -0.58,0.495 -0.885,0.621 -0.305,0.134 -0.604,0.178 -0.899,0.134 -0.294,-0.036 -0.562,-0.17 -0.805,-0.403 l 0.415,-0.715 c 0.129,0.128 0.265,0.218 0.409,0.27 0.14,0.056 0.281,0.076 0.424,0.06 0.144,-0.016 0.285,-0.064 0.424,-0.143 0.143,-0.077 0.284,-0.185 0.423,-0.325 0.161,-0.163 0.277,-0.329 0.348,-0.499 0.075,-0.167 0.104,-0.325 0.088,-0.476 -0.016,-0.143 -0.078,-0.269 -0.188,-0.378 -0.137,-0.135 -0.292,-0.195 -0.465,-0.179 -0.173,0.024 -0.364,0.09 -0.57,0.201 -0.204,0.114 -0.416,0.241 -0.638,0.382 -0.195,0.129 -0.396,0.249 -0.603,0.359 -0.207,0.118 -0.416,0.204 -0.627,0.258 -0.215,0.057 -0.426,0.062 -0.634,0.014 -0.211,-0.044 -0.417,-0.166 -0.618,-0.364 -0.22,-0.218 -0.353,-0.466 -0.4,-0.745 -0.05,-0.275 -0.008,-0.572 0.126,-0.889 0.138,-0.314 0.378,-0.643 0.72,-0.988 z m -4.31,4.499 3.752,3.716 -0.614,0.619 -3.751,-3.715 z m 2.455,-2.478 3.751,3.715 -0.613,0.62 -3.752,-3.716 z m 1.322,1.962 0.523,0.518 -2.37,2.393 -0.523,-0.518 z m -6.592,3.211 c 0.27,-0.273 0.554,-0.472 0.851,-0.598 0.297,-0.118 0.603,-0.169 0.916,-0.151 0.309,0.021 0.621,0.112 0.935,0.272 0.31,0.165 0.614,0.395 0.914,0.692 0.439,0.435 0.73,0.869 0.871,1.302 0.146,0.437 0.163,0.856 0.052,1.256 -0.108,0.404 -0.325,0.771 -0.651,1.1 -0.255,0.258 -0.53,0.448 -0.823,0.57 -0.29,0.126 -0.593,0.178 -0.91,0.157 -0.317,-0.013 -0.638,-0.102 -0.963,-0.267 -0.322,-0.16 -0.638,-0.394 -0.948,-0.702 -0.304,-0.3 -0.539,-0.609 -0.706,-0.925 -0.164,-0.312 -0.256,-0.624 -0.276,-0.937 -0.021,-0.313 0.031,-0.619 0.154,-0.917 0.119,-0.295 0.314,-0.579 0.584,-0.852 z m 0.506,0.524 c -0.225,0.227 -0.362,0.475 -0.41,0.743 -0.047,0.268 -0.01,0.545 0.112,0.831 0.126,0.29 0.338,0.583 0.638,0.879 0.307,0.304 0.611,0.52 0.914,0.646 0.298,0.131 0.585,0.171 0.86,0.121 0.275,-0.043 0.525,-0.178 0.75,-0.406 0.218,-0.219 0.351,-0.467 0.399,-0.743 0.047,-0.267 0.008,-0.55 -0.118,-0.847 -0.129,-0.294 -0.35,-0.595 -0.66,-0.902 -0.228,-0.226 -0.455,-0.402 -0.682,-0.529 -0.223,-0.123 -0.44,-0.199 -0.651,-0.229 -0.208,-0.025 -0.409,-0.003 -0.605,0.066 -0.196,0.076 -0.378,0.199 -0.547,0.37 z m -3.227,2.371 3.752,3.715 -0.619,0.626 -3.752,-3.716 z m 4.332,2.061 0.534,0.529 -2.854,2.882 -0.534,-0.529 z m -7.698,1.19 c 0.244,-0.246 0.486,-0.441 0.727,-0.586 0.24,-0.137 0.476,-0.223 0.706,-0.258 0.229,-0.027 0.452,-0.002 0.667,0.076 0.216,0.086 0.42,0.228 0.613,0.427 l -0.398,0.698 c -0.182,-0.195 -0.375,-0.315 -0.579,-0.359 -0.203,-0.045 -0.415,-0.021 -0.633,0.071 -0.218,0.099 -0.429,0.251 -0.631,0.455 -0.199,0.201 -0.341,0.394 -0.427,0.579 -0.086,0.185 -0.121,0.353 -0.105,0.504 0.016,0.159 0.078,0.292 0.188,0.401 0.125,0.124 0.267,0.178 0.425,0.162 0.159,-0.008 0.328,-0.062 0.509,-0.161 0.184,-0.095 0.381,-0.211 0.592,-0.348 0.214,-0.14 0.432,-0.273 0.654,-0.399 0.222,-0.126 0.444,-0.221 0.666,-0.286 0.223,-0.058 0.441,-0.066 0.656,-0.026 0.212,0.044 0.416,0.164 0.613,0.359 0.227,0.225 0.366,0.476 0.417,0.751 0.05,0.275 0.018,0.561 -0.098,0.86 -0.119,0.302 -0.321,0.597 -0.607,0.885 -0.285,0.288 -0.58,0.495 -0.885,0.621 -0.305,0.134 -0.604,0.178 -0.899,0.135 -0.294,-0.037 -0.562,-0.171 -0.805,-0.404 l 0.415,-0.715 c 0.129,0.128 0.265,0.218 0.409,0.27 0.14,0.056 0.281,0.076 0.425,0.06 0.143,-0.016 0.284,-0.063 0.423,-0.143 0.143,-0.076 0.284,-0.185 0.423,-0.325 0.161,-0.163 0.277,-0.329 0.348,-0.499 0.075,-0.167 0.104,-0.325 0.088,-0.476 -0.015,-0.143 -0.078,-0.269 -0.188,-0.378 -0.137,-0.135 -0.292,-0.195 -0.465,-0.179 -0.173,0.024 -0.363,0.091 -0.57,0.201 -0.203,0.114 -0.416,0.241 -0.638,0.382 -0.195,0.129 -0.396,0.249 -0.603,0.359 -0.207,0.118 -0.416,0.204 -0.627,0.258 -0.215,0.058 -0.426,0.062 -0.633,0.014 -0.212,-0.044 -0.418,-0.165 -0.619,-0.364 -0.22,-0.218 -0.353,-0.466 -0.399,-0.745 -0.051,-0.275 -0.009,-0.571 0.125,-0.889 0.138,-0.314 0.378,-0.643 0.72,-0.988 z"
     fill="#030404"
     id="path22" />
  <path
     d="m 99.718562,235.39402 -0.7,0.668 -2.35,-0.434 c -0.135,-0.018 -0.276,-0.034 -0.423,-0.049 -0.154,-0.015 -0.309,-0.015 -0.464,0 -0.159,0.012 -0.309,0.044 -0.449,0.098 -0.145,0.049 -0.277,0.131 -0.396,0.245 -0.12,0.114 -0.198,0.24 -0.236,0.379 -0.037,0.139 -0.029,0.286 0.024,0.442 0.049,0.152 0.149,0.307 0.3,0.465 0.114,0.12 0.237,0.21 0.368,0.269 0.126,0.064 0.26,0.091 0.399,0.083 0.136,-0.004 0.279,-0.048 0.428,-0.131 0.149,-0.084 0.308,-0.206 0.478,-0.368 l 0.464,0.718 c -0.274,0.276 -0.563,0.46 -0.867,0.551 -0.304,0.091 -0.609,0.088 -0.916,-0.01 -0.315,-0.098 -0.618,-0.299 -0.909,-0.604 -0.254,-0.266 -0.432,-0.542 -0.535,-0.827 -0.107,-0.282 -0.13,-0.554 -0.071,-0.817 0.055,-0.266 0.198,-0.51 0.43,-0.731 0.185,-0.177 0.384,-0.308 0.597,-0.393 0.214,-0.086 0.43,-0.138 0.649,-0.155 0.216,-0.021 0.427,-0.02 0.634,0.003 0.207,0.024 0.4,0.057 0.58,0.099 l 1.73,0.317 0.046,-0.044 -2.039,-2.09 0.532,-0.508 z m 10.271998,0.473 c 0.239,0.251 0.427,0.499 0.565,0.743 0.13,0.245 0.21,0.482 0.238,0.713 0.021,0.231 -0.01,0.453 -0.095,0.666 -0.091,0.212 -0.239,0.413 -0.444,0.6 l -0.686,-0.417 c 0.2,-0.177 0.325,-0.366 0.375,-0.569 0.05,-0.202 0.033,-0.414 -0.053,-0.635 -0.093,-0.221 -0.238,-0.435 -0.437,-0.644 -0.195,-0.204 -0.384,-0.352 -0.567,-0.443 -0.183,-0.091 -0.35,-0.131 -0.501,-0.119 -0.159,0.011 -0.294,0.07 -0.406,0.177 -0.127,0.122 -0.185,0.262 -0.174,0.42 0.004,0.159 0.053,0.33 0.147,0.513 0.09,0.187 0.2,0.388 0.331,0.602 0.134,0.218 0.261,0.44 0.38,0.665 0.12,0.226 0.209,0.45 0.268,0.674 0.051,0.224 0.053,0.443 0.007,0.657 -0.05,0.21 -0.176,0.411 -0.376,0.602 -0.232,0.221 -0.486,0.353 -0.762,0.395 -0.276,0.043 -0.562,0.002 -0.857,-0.122 -0.299,-0.127 -0.588,-0.338 -0.868,-0.631 -0.28,-0.293 -0.479,-0.594 -0.596,-0.902 -0.125,-0.309 -0.161,-0.609 -0.109,-0.902 0.045,-0.294 0.187,-0.558 0.426,-0.794 l 0.703,0.435 c -0.131,0.125 -0.225,0.259 -0.281,0.401 -0.06,0.138 -0.084,0.279 -0.072,0.423 0.011,0.143 0.055,0.286 0.131,0.427 0.072,0.145 0.176,0.289 0.313,0.432 0.158,0.166 0.321,0.286 0.489,0.362 0.164,0.079 0.322,0.113 0.473,0.102 0.144,-0.012 0.271,-0.071 0.383,-0.178 0.139,-0.133 0.203,-0.286 0.192,-0.46 -0.018,-0.174 -0.08,-0.366 -0.185,-0.576 -0.108,-0.206 -0.229,-0.422 -0.364,-0.647 -0.123,-0.199 -0.237,-0.404 -0.342,-0.614 -0.112,-0.21 -0.192,-0.421 -0.24,-0.633 -0.051,-0.217 -0.05,-0.428 0.004,-0.634 0.05,-0.21 0.177,-0.413 0.382,-0.608 0.224,-0.214 0.476,-0.34 0.756,-0.378 0.276,-0.043 0.571,0.007 0.884,0.15 0.31,0.147 0.633,0.396 0.968,0.747 z m -4.376,-4.434 -3.82,3.645 -0.602,-0.631 3.82,-3.645 z m 2.408,2.523 -3.82,3.646 -0.602,-0.631 3.82,-3.646 z m -1.999,1.266 -0.532,0.508 -2.326,-2.436 0.533,-0.508 z m -3.024,-6.679 c 0.265,0.277 0.456,0.567 0.574,0.867 0.11,0.301 0.152,0.608 0.126,0.92 -0.03,0.309 -0.13,0.618 -0.299,0.927 -0.173,0.305 -0.412,0.603 -0.717,0.894 -0.448,0.427 -0.89,0.705 -1.327,0.835 -0.44,0.133 -0.859,0.138 -1.256,0.016 -0.400998,-0.119 -0.761998,-0.346 -1.081998,-0.682 -0.25,-0.262 -0.433,-0.542 -0.546,-0.839 -0.118,-0.293 -0.162,-0.598 -0.132,-0.914 0.023,-0.316 0.121,-0.635 0.294,-0.955 0.17,-0.317 0.413,-0.626 0.729,-0.928 0.309,-0.294 0.623,-0.521 0.943998,-0.679 0.317,-0.155 0.632,-0.238 0.945,-0.25 0.313,-0.012 0.618,0.048 0.912,0.18 0.292,0.127 0.57,0.33 0.835,0.608 z m -0.538,0.491 c -0.221,-0.232 -0.464,-0.375 -0.731,-0.43 -0.266,-0.056 -0.544,-0.026 -0.834,0.088 -0.293,0.117 -0.592,0.322 -0.896998,0.612 -0.312,0.299 -0.536,0.597 -0.671,0.896 -0.139,0.295 -0.187,0.58 -0.145,0.856 0.035,0.277 0.163,0.531 0.384,0.762 0.214,0.224 0.457998,0.363 0.731998,0.419 0.266,0.055 0.55,0.024 0.851,-0.094 0.297,-0.121 0.603,-0.332 0.92,-0.634 0.231,-0.221 0.414,-0.443 0.547,-0.667 0.13,-0.219 0.212,-0.434 0.247,-0.645 0.031,-0.206 0.015,-0.409 -0.048,-0.606 -0.071,-0.198 -0.189,-0.384 -0.355,-0.557 z m -2.279,-3.292 -3.819998,3.645 -0.607,-0.636 3.819,-3.646 z m -2.181998,4.272 -0.544,0.519 -2.8,-2.934 0.544,-0.519 z m -0.973,-7.729 c 0.239,0.251 0.428,0.498 0.565,0.743 0.13,0.245 0.21,0.482 0.238,0.713 0.021,0.231 -0.01,0.452 -0.095,0.665 -0.091,0.213 -0.239,0.414 -0.444,0.601 l -0.686,-0.418 c 0.2,-0.176 0.326,-0.365 0.376,-0.568 0.05,-0.202 0.032,-0.414 -0.054,-0.635 -0.092,-0.221 -0.238,-0.436 -0.437,-0.644 -0.195,-0.204 -0.384,-0.352 -0.567,-0.443 -0.183,-0.091 -0.35,-0.131 -0.501,-0.119 -0.159,0.011 -0.294,0.07 -0.406,0.177 -0.127,0.121 -0.185,0.262 -0.174,0.42 0.004,0.159 0.053,0.33 0.147,0.513 0.09,0.187 0.2,0.387 0.331,0.602 0.134,0.218 0.261,0.44 0.381,0.665 0.119,0.225 0.208,0.45 0.267,0.674 0.051,0.224 0.054,0.443 0.007,0.657 -0.05,0.21 -0.176,0.41 -0.376,0.602 -0.232,0.221 -0.486,0.353 -0.762,0.395 -0.276,0.043 -0.562,0.002 -0.857,-0.122 -0.299,-0.127 -0.588,-0.338 -0.868,-0.631 -0.28,-0.293 -0.479,-0.594 -0.596,-0.902 -0.125,-0.309 -0.161,-0.61 -0.109,-0.903 0.045,-0.293 0.187,-0.557 0.426,-0.793 l 0.703,0.435 c -0.131,0.125 -0.225,0.259 -0.281,0.401 -0.06,0.138 -0.084,0.279 -0.072,0.423 0.011,0.143 0.055,0.286 0.131,0.427 0.072,0.145 0.176,0.289 0.313,0.432 0.158,0.166 0.321,0.286 0.489,0.362 0.164,0.079 0.322,0.113 0.473,0.101 0.144,-0.011 0.271,-0.071 0.383,-0.177 0.139,-0.133 0.203,-0.286 0.192,-0.46 -0.018,-0.174 -0.08,-0.366 -0.184,-0.576 -0.109,-0.206 -0.23,-0.422 -0.364,-0.648 -0.124,-0.199 -0.238,-0.403 -0.343,-0.613 -0.112,-0.21 -0.192,-0.421 -0.239,-0.634 -0.052,-0.216 -0.051,-0.427 0.003,-0.633 0.05,-0.21 0.177,-0.413 0.382,-0.608 0.224,-0.214 0.476,-0.34 0.756,-0.379 0.276,-0.042 0.571,0.008 0.885,0.151 0.309,0.147 0.632,0.396 0.967,0.747 z"
     fill="#030404"
     id="path23" />
  <path
     d="m 97.391562,100.88202 -0.686,-0.684 0.374,-2.359004 c 0.015,-0.136 0.028,-0.277 0.039,-0.425 0.011,-0.154 0.007,-0.309 -0.012,-0.463 -0.015,-0.159 -0.051,-0.308 -0.108,-0.447 -0.053,-0.143 -0.138,-0.273 -0.256,-0.39 -0.117,-0.117 -0.245,-0.192 -0.385,-0.225 -0.139,-0.034 -0.286,-0.023 -0.441,0.034 -0.151,0.053 -0.303,0.157 -0.457,0.312 -0.117,0.117 -0.204,0.242 -0.26,0.374 -0.06,0.129 -0.084,0.262 -0.073,0.402 0.008,0.136 0.055,0.277 0.142,0.424 0.087,0.147 0.214,0.303 0.38,0.469 l -0.706,0.482 c -0.283,-0.267 -0.474,-0.552 -0.573,-0.853 -0.098,-0.302 -0.103,-0.607 -0.013,-0.917 0.09,-0.316 0.284,-0.624 0.581,-0.923 0.26,-0.26 0.531,-0.446 0.814,-0.556 0.278,-0.113 0.55,-0.144 0.814,-0.092 0.268,0.049 0.515,0.186 0.742,0.412 0.181,0.18 0.317,0.376 0.408,0.587 0.091,0.211 0.148,0.426 0.171,0.645 0.027,0.215 0.031,0.426 0.013,0.633 -0.019,0.208 -0.047,0.402 -0.084,0.583 l -0.274,1.737 0.045,0.046 2.039,-2.092 0.520998,0.52 z m -0.214,10.28 c -0.245,0.246 -0.488,0.44 -0.729,0.584 -0.241,0.136 -0.476,0.222 -0.706,0.256 -0.23,0.027 -0.453,0.001 -0.668,-0.078 -0.215,-0.086 -0.419,-0.229 -0.612,-0.429 l 0.401,-0.696 c 0.181,0.196 0.374,0.316 0.577,0.361 0.204,0.045 0.415,0.022 0.634,-0.069 0.218,-0.099 0.429,-0.25 0.632,-0.454 0.2,-0.2 0.343,-0.393 0.429,-0.578 0.087,-0.185 0.122,-0.353 0.107,-0.504 -0.016,-0.158 -0.078,-0.292 -0.188,-0.401 -0.124,-0.124 -0.266,-0.179 -0.424,-0.163 -0.159,0.008 -0.328,0.061 -0.509,0.159 -0.185,0.095 -0.382,0.21 -0.593,0.346 -0.215,0.14 -0.434,0.273 -0.656,0.398 -0.222,0.125 -0.444,0.219 -0.667,0.284 -0.222,0.057 -0.441,0.065 -0.656,0.024 -0.211,-0.045 -0.415,-0.166 -0.612,-0.361 -0.226,-0.226 -0.364,-0.477 -0.414,-0.752 -0.05,-0.275 -0.016,-0.562 0.1,-0.86 0.12,-0.302 0.323,-0.596 0.609,-0.883 0.287,-0.288 0.582,-0.494 0.887,-0.619 0.306,-0.132 0.605,-0.176 0.9,-0.132 0.294,0.038 0.562,0.173 0.804,0.406 l -0.418,0.714 c -0.128,-0.128 -0.264,-0.219 -0.407,-0.271 -0.14,-0.056 -0.282,-0.077 -0.425,-0.061 -0.143,0.015 -0.284,0.062 -0.424,0.142 -0.143,0.075 -0.284,0.183 -0.423,0.323 -0.162,0.163 -0.279,0.329 -0.35,0.499 -0.075,0.166 -0.105,0.324 -0.09,0.475 0.016,0.143 0.078,0.269 0.188,0.379 0.136,0.135 0.29,0.195 0.464,0.18 0.173,-0.023 0.364,-0.09 0.571,-0.199 0.203,-0.114 0.416,-0.241 0.638,-0.381 0.196,-0.128 0.398,-0.247 0.605,-0.357 0.207,-0.118 0.416,-0.203 0.627,-0.256 0.215,-0.057 0.426,-0.061 0.634,-0.012 0.211,0.044 0.417,0.167 0.617,0.366 0.219,0.218 0.352,0.467 0.398,0.746 0.049,0.275 0.006,0.571 -0.129,0.888 -0.139,0.314 -0.38,0.642 -0.722,0.986 z m 4.321998,-4.486 -3.739998,-3.727 0.615,-0.617 3.740998,3.726 z m -2.460998,2.471 -3.741,-3.727 0.615,-0.617 3.741,3.726 z m -1.316,-1.966 -0.522,-0.52 2.377,-2.386 0.521998,0.52 z m 6.600998,-3.192 c -0.271,0.272 -0.556,0.47 -0.853,0.595 -0.298,0.118 -0.603,0.168 -0.916,0.149 -0.31,-0.022 -0.621,-0.114 -0.934,-0.275 -0.31,-0.165 -0.614,-0.397 -0.912,-0.694 -0.439,-0.437 -0.727998,-0.872 -0.867998,-1.305 -0.145,-0.437 -0.16,-0.856 -0.048,-1.256 0.109,-0.404 0.326998,-0.77 0.653998,-1.099 0.256,-0.257004 0.531,-0.446004 0.825,-0.567004 0.29,-0.125 0.593,-0.176 0.91,-0.154 0.317,0.014 0.638,0.104 0.962,0.269 0.321,0.162 0.637,0.397004 0.947,0.706004 0.302,0.301 0.536,0.61 0.703,0.926 0.163,0.313 0.254,0.626 0.273,0.939 0.02,0.312 -0.033,0.618 -0.157,0.916 -0.12,0.295 -0.315,0.578 -0.586,0.85 z m -0.505,-0.525 c 0.226,-0.227 0.363,-0.474 0.412,-0.742 0.048,-0.268 0.012,-0.545 -0.109,-0.831 -0.125,-0.291 -0.337,-0.584 -0.636,-0.882 -0.306,-0.305 -0.61,-0.521 -0.912,-0.648 -0.298,-0.132 -0.584,-0.173 -0.86,-0.123 -0.275,0.042 -0.525,0.176 -0.751,0.403 -0.218,0.219 -0.352,0.466 -0.4,0.742 -0.049,0.267 -0.011,0.55 0.114,0.848 0.129,0.294 0.348,0.595 0.658,0.904 0.227,0.226 0.454,0.402 0.68,0.53 0.223,0.124 0.44,0.201 0.651,0.231 0.208,0.026 0.409,0.005 0.605,-0.064 0.196,-0.075 0.379,-0.198 0.548,-0.368 z m 3.234,-2.362 -3.741,-3.726004 0.621,-0.624 3.741,3.727004 z m -4.326,-2.073004 -0.533,-0.531 2.863,-2.874 0.532,0.531 z m 7.702,-1.168 c -0.245,0.245 -0.488,0.44 -0.729,0.584 -0.241,0.136 -0.477,0.221 -0.707,0.256 -0.23,0.026 -0.452,0 -0.667,-0.078 -0.215,-0.087 -0.419,-0.23 -0.612,-0.429 l 0.4,-0.697 c 0.182,0.196 0.374,0.316 0.578,0.361 0.204,0.045 0.415,0.022 0.633,-0.069 0.219,-0.098 0.43,-0.25 0.633,-0.454 0.2,-0.2 0.343,-0.392 0.429,-0.577 0.086,-0.185 0.122,-0.353 0.107,-0.504 -0.016,-0.158 -0.078,-0.292 -0.188,-0.401 -0.125,-0.125 -0.266,-0.179 -0.425,-0.164 -0.158,0.008 -0.327,0.061 -0.508,0.16 -0.185,0.094 -0.383,0.21 -0.594,0.346 -0.214,0.14 -0.433,0.272 -0.655,0.397 -0.222,0.125 -0.445,0.22 -0.667,0.284 -0.222,0.057 -0.441,0.065 -0.656,0.024 -0.211,-0.045 -0.415,-0.165 -0.612,-0.361 -0.227,-0.226 -0.365,-0.476 -0.414,-0.751 -0.05,-0.275 -0.016,-0.562 0.1,-0.86 0.12,-0.302 0.323,-0.597 0.609,-0.884 0.286,-0.287 0.582,-0.493 0.887,-0.618 0.305,-0.133 0.605,-0.177 0.899,-0.132 0.295,0.037 0.563,0.172 0.804,0.406 l -0.417,0.713 c -0.128,-0.128 -0.264,-0.218 -0.408,-0.271 -0.139,-0.056 -0.281,-0.076 -0.424,-0.061 -0.143,0.015 -0.285,0.063 -0.424,0.142 -0.143,0.076 -0.284,0.184 -0.424,0.324 -0.162,0.162 -0.278,0.328 -0.349,0.498 -0.076,0.166 -0.105,0.325 -0.09,0.475 0.015,0.144 0.078,0.27 0.187,0.379 0.136,0.136 0.291,0.196 0.465,0.18 0.173,-0.023 0.363,-0.089 0.571,-0.199 0.203,-0.113 0.416,-0.24 0.638,-0.38 0.196,-0.129 0.397,-0.248 0.605,-0.358 0.207,-0.117 0.416,-0.202 0.627,-0.255 0.215,-0.057 0.426,-0.062 0.634,-0.013 0.211,0.045 0.417,0.167 0.617,0.367 0.219,0.218 0.352,0.467 0.397,0.746 0.05,0.275 0.007,0.571 -0.128,0.888 -0.139,0.313 -0.38,0.642 -0.722,0.986 z"
     fill="#030404"
     id="path24" />
  <path
     d="m 253.28056,130.54902 c -0.136,-0.302 -0.219,-0.58 -0.251,-0.834 -0.037,-0.253 -0.028,-0.482 0.026,-0.687 0.056,-0.2 0.154,-0.379 0.295,-0.535 0.14,-0.156 0.312,-0.289 0.515,-0.397 l 0.545,0.632 c -0.18,0.093 -0.32,0.199 -0.418,0.319 -0.093,0.118 -0.156,0.245 -0.188,0.382 -0.025,0.14 -0.027,0.281 -0.004,0.422 0.03,0.145 0.075,0.285 0.136,0.422 0.094,0.209 0.208,0.386 0.343,0.53 0.134,0.144 0.288,0.239 0.46,0.285 0.172,0.045 0.358,0.023 0.558,-0.066 0.258,-0.115 0.424,-0.286 0.498,-0.512 0.081,-0.223 0.085,-0.497 0.01,-0.82 -0.067,-0.32 -0.205,-0.679 -0.412,-1.077 l 0.489,-0.219 1.99,1.116 0.058,-0.026 -1.119,-2.461 0.672,-0.301 1.461,3.264 -0.811,0.363 -1.868,-1.022 -0.059,0.026 c 0.211,0.443 0.315,0.826 0.313,1.149 0,0.327 -0.081,0.596 -0.243,0.809 -0.154,0.216 -0.363,0.382 -0.626,0.5 -0.307,0.137 -0.604,0.185 -0.891,0.144 -0.287,-0.041 -0.558,-0.177 -0.813,-0.407 -0.25,-0.233 -0.473,-0.566 -0.666,-0.999 z m -10.162,-5.588 c -0.141,-0.316 -0.236,-0.613 -0.284,-0.889 -0.041,-0.274 -0.036,-0.525 0.014,-0.752 0.058,-0.224 0.162,-0.423 0.312,-0.595 0.158,-0.17 0.365,-0.309 0.62,-0.418 l 0.507,0.624 c -0.248,0.099 -0.429,0.235 -0.544,0.41 -0.115,0.174 -0.169,0.379 -0.163,0.616 0.014,0.239 0.08,0.49 0.197,0.753 0.116,0.258 0.244,0.46 0.386,0.607 0.142,0.147 0.286,0.241 0.432,0.28 0.153,0.043 0.301,0.032 0.442,-0.031 0.161,-0.072 0.262,-0.184 0.304,-0.338 0.05,-0.15 0.061,-0.328 0.034,-0.532 -0.022,-0.206 -0.059,-0.432 -0.111,-0.678 -0.053,-0.25 -0.099,-0.502 -0.136,-0.754 -0.037,-0.252 -0.045,-0.494 -0.026,-0.725 0.027,-0.228 0.098,-0.435 0.213,-0.621 0.118,-0.181 0.303,-0.328 0.556,-0.441 0.292,-0.131 0.576,-0.17 0.85,-0.118 0.275,0.052 0.531,0.186 0.767,0.402 0.239,0.22 0.441,0.515 0.607,0.885 0.165,0.37 0.252,0.72 0.259,1.05 0.015,0.332 -0.052,0.628 -0.199,0.886 -0.14,0.262 -0.362,0.464 -0.667,0.606 l -0.516,-0.645 c 0.165,-0.075 0.298,-0.169 0.398,-0.284 0.103,-0.11 0.173,-0.235 0.21,-0.374 0.037,-0.14 0.043,-0.289 0.019,-0.447 -0.019,-0.161 -0.069,-0.331 -0.15,-0.512 -0.094,-0.209 -0.207,-0.377 -0.34,-0.505 -0.128,-0.129 -0.265,-0.214 -0.412,-0.254 -0.139,-0.037 -0.279,-0.024 -0.42,0.04 -0.176,0.078 -0.287,0.201 -0.335,0.368 -0.041,0.171 -0.047,0.372 -0.019,0.605 0.034,0.23 0.076,0.475 0.127,0.732 0.049,0.229 0.089,0.46 0.117,0.693 0.035,0.235 0.04,0.461 0.014,0.677 -0.024,0.221 -0.096,0.42 -0.216,0.596 -0.117,0.181 -0.305,0.33 -0.563,0.445 -0.282,0.126 -0.562,0.161 -0.839,0.104 -0.275,-0.053 -0.536,-0.199 -0.783,-0.438 -0.243,-0.242 -0.463,-0.585 -0.662,-1.028 z m 2.64,5.643 4.819,-2.157 0.356,0.796 -4.819,2.157 z m -1.425,-3.184 4.819,-2.156 0.357,0.795 -4.82,2.157 z m 2.307,-0.524 0.672,-0.3 1.376,3.074 -0.672,0.3 z m 0.615,7.307 c -0.157,-0.351 -0.241,-0.687 -0.251,-1.01 -0.003,-0.32 0.06,-0.623 0.19,-0.909 0.131,-0.281 0.328,-0.538 0.591,-0.773 0.266,-0.23 0.591,-0.431 0.975,-0.603 0.565,-0.252 1.075,-0.367 1.53,-0.342 0.459,0.022 0.856,0.157 1.189,0.405 0.338,0.246 0.602,0.581 0.791,1.004 0.148,0.332 0.226,0.656 0.234,0.974 0.013,0.315 -0.048,0.617 -0.182,0.905 -0.127,0.291 -0.326,0.558 -0.596,0.802 -0.266,0.241 -0.599,0.452 -0.998,0.63 -0.389,0.175 -0.761,0.283 -1.117,0.325 -0.35,0.04 -0.675,0.013 -0.974,-0.081 -0.299,-0.094 -0.565,-0.253 -0.799,-0.475 -0.232,-0.218 -0.427,-0.502 -0.583,-0.852 z m 0.671,-0.283 c 0.13,0.292 0.312,0.509 0.545,0.65 0.232,0.141 0.504,0.207 0.815,0.196 0.316,-0.013 0.666,-0.105 1.05,-0.277 0.395,-0.177 0.705,-0.383 0.933,-0.619 0.229,-0.231 0.37,-0.484 0.423,-0.759 0.059,-0.272 0.023,-0.554 -0.107,-0.846 -0.127,-0.283 -0.31,-0.496 -0.549,-0.64 -0.233,-0.141 -0.511,-0.207 -0.834,-0.196 -0.32,0.014 -0.68,0.111 -1.079,0.29 -0.292,0.131 -0.539,0.279 -0.739,0.444 -0.196,0.164 -0.345,0.339 -0.449,0.526 -0.098,0.184 -0.151,0.38 -0.157,0.587 0,0.21 0.05,0.425 0.148,0.644 z m 1.046,3.865 4.819,-2.157 0.36,0.803 -4.82,2.157 z m 3.486,-3.296 0.686,-0.307 1.657,3.702 -0.687,0.308 z m -1.67,7.609 c -0.141,-0.316 -0.236,-0.613 -0.284,-0.889 -0.041,-0.274 -0.036,-0.525 0.014,-0.752 0.058,-0.224 0.162,-0.422 0.312,-0.595 0.158,-0.17 0.365,-0.309 0.62,-0.417 l 0.507,0.623 c -0.248,0.099 -0.429,0.236 -0.544,0.41 -0.115,0.174 -0.169,0.379 -0.163,0.616 0.014,0.239 0.08,0.49 0.197,0.753 0.116,0.258 0.244,0.461 0.386,0.608 0.142,0.147 0.286,0.24 0.432,0.28 0.153,0.042 0.301,0.032 0.442,-0.032 0.16,-0.072 0.262,-0.184 0.304,-0.338 0.05,-0.15 0.061,-0.328 0.034,-0.532 -0.022,-0.206 -0.059,-0.432 -0.111,-0.678 -0.053,-0.25 -0.099,-0.502 -0.136,-0.754 -0.037,-0.252 -0.045,-0.494 -0.026,-0.724 0.027,-0.228 0.097,-0.435 0.213,-0.621 0.117,-0.182 0.303,-0.329 0.556,-0.442 0.292,-0.131 0.575,-0.17 0.85,-0.118 0.275,0.053 0.53,0.187 0.767,0.402 0.239,0.22 0.441,0.515 0.607,0.885 0.165,0.37 0.252,0.72 0.259,1.05 0.015,0.332 -0.052,0.628 -0.199,0.887 -0.14,0.261 -0.362,0.463 -0.667,0.605 l -0.517,-0.645 c 0.166,-0.074 0.299,-0.169 0.399,-0.284 0.103,-0.11 0.173,-0.235 0.21,-0.374 0.037,-0.139 0.043,-0.288 0.019,-0.447 -0.019,-0.161 -0.069,-0.331 -0.15,-0.511 -0.094,-0.21 -0.207,-0.378 -0.34,-0.505 -0.128,-0.13 -0.265,-0.215 -0.412,-0.254 -0.139,-0.037 -0.279,-0.024 -0.42,0.039 -0.176,0.078 -0.287,0.201 -0.335,0.369 -0.041,0.17 -0.047,0.371 -0.019,0.604 0.033,0.231 0.075,0.475 0.126,0.732 0.05,0.229 0.089,0.46 0.118,0.693 0.035,0.235 0.04,0.461 0.014,0.677 -0.024,0.221 -0.096,0.42 -0.216,0.596 -0.117,0.181 -0.305,0.33 -0.563,0.445 -0.282,0.127 -0.562,0.161 -0.839,0.104 -0.275,-0.052 -0.536,-0.198 -0.783,-0.438 -0.243,-0.242 -0.463,-0.585 -0.662,-1.028 z"
     fill="#030404"
     id="path25" />
  <path
     d="m 129.21456,79.078016 c -0.308,0.12 -0.59,0.19 -0.846,0.21 -0.253,0.024 -0.482,0.004 -0.684,-0.06 -0.197,-0.067 -0.371,-0.174 -0.52,-0.322 -0.149,-0.148 -0.273,-0.325 -0.371,-0.533 l 0.659,-0.514 c 0.083,0.185 0.182,0.329 0.297,0.433 0.113,0.099 0.237,0.168 0.373,0.207 0.138,0.032 0.279,0.041 0.421,0.025 0.146,-0.022 0.289,-0.061 0.428,-0.115 0.213,-0.083 0.396,-0.188 0.546,-0.316 0.151,-0.127 0.254,-0.276 0.308,-0.446 0.054,-0.169 0.041,-0.356 -0.038,-0.56 -0.103,-0.263 -0.265,-0.438 -0.487,-0.523 -0.219,-0.092 -0.492,-0.109 -0.818,-0.051 -0.324,0.052 -0.689,0.171 -1.097,0.359 l -0.194,-0.5 1.213,-1.932 -0.023,-0.059 -2.514,0.995 -0.267,-0.685 3.333,-1.298 0.322,0.828 -1.114,1.815 0.024,0.06 c 0.453,-0.188 0.841,-0.273 1.162,-0.255 0.327,0.016 0.593,0.11 0.797,0.282 0.207,0.165 0.363,0.382 0.468,0.651 0.122,0.313 0.155,0.612 0.1,0.896 -0.055,0.285 -0.204,0.549 -0.447,0.793 -0.245,0.238 -0.589,0.443 -1.031,0.615 z m -6.084,9.872 c -0.323,0.126 -0.624,0.206 -0.903,0.24 -0.275,0.027 -0.525,0.01 -0.75,-0.052 -0.221,-0.068 -0.414,-0.182 -0.579,-0.341 -0.162,-0.166 -0.291,-0.379 -0.386,-0.639 l 0.648,-0.475 c 0.086,0.252 0.214,0.44 0.382,0.563 0.168,0.124 0.371,0.188 0.607,0.193 0.24,-0.002 0.494,-0.055 0.762,-0.159 0.264,-0.103 0.472,-0.221 0.626,-0.356 0.154,-0.134 0.254,-0.273 0.301,-0.417 0.05,-0.151 0.047,-0.299 -0.009,-0.443 -0.064,-0.164 -0.171,-0.271 -0.322,-0.321 -0.148,-0.057 -0.325,-0.077 -0.53,-0.06 -0.207,0.012 -0.435,0.038 -0.683,0.077 -0.253,0.041 -0.506,0.074 -0.76,0.099 -0.254,0.024 -0.495,0.021 -0.725,-0.01 -0.226,-0.038 -0.43,-0.119 -0.61,-0.244 -0.175,-0.126 -0.313,-0.318 -0.413,-0.577 -0.116,-0.298 -0.141,-0.583 -0.075,-0.855 0.065,-0.271 0.212,-0.52 0.439,-0.746 0.232,-0.228 0.536,-0.415 0.914,-0.562 0.378,-0.147 0.732,-0.216 1.061,-0.207 0.333,0.002 0.625,0.083 0.876,0.243 0.254,0.153 0.445,0.385 0.572,0.696 l -0.67,0.484 c -0.066,-0.169 -0.154,-0.306 -0.264,-0.412 -0.105,-0.108 -0.226,-0.184 -0.363,-0.228 -0.138,-0.044 -0.286,-0.058 -0.446,-0.041 -0.161,0.011 -0.334,0.052 -0.518,0.124 -0.214,0.083 -0.387,0.188 -0.521,0.315 -0.136,0.121 -0.227,0.254 -0.274,0.398 -0.044,0.137 -0.038,0.278 0.018,0.422 0.07,0.179 0.187,0.297 0.352,0.353 0.168,0.049 0.369,0.065 0.603,0.048 0.231,-0.021 0.477,-0.051 0.737,-0.089 0.231,-0.039 0.464,-0.066 0.698,-0.083 0.237,-0.024 0.462,-0.017 0.677,0.02 0.22,0.034 0.414,0.116 0.585,0.244 0.175,0.127 0.314,0.322 0.416,0.585 0.112,0.288 0.133,0.569 0.062,0.843 -0.066,0.272 -0.225,0.525 -0.476,0.761 -0.254,0.23 -0.607,0.433 -1.059,0.609 z m 5.767,-2.356 -1.916,-4.921 0.813,-0.316 1.915,4.92 z m -3.251,1.265 -1.915,-4.92 0.812,-0.317 1.916,4.921 z m -0.409,-2.33 -0.267,-0.686 3.138,-1.222 0.267,0.686 z m 7.328,-0.252 c -0.358,0.139 -0.698,0.206 -1.021,0.2 -0.32,-0.013 -0.619,-0.091 -0.898,-0.234 -0.274,-0.145 -0.522,-0.355 -0.743,-0.629 -0.216,-0.277 -0.401,-0.611 -0.554,-1.004 -0.224,-0.576 -0.313,-1.091 -0.266,-1.544 0.045,-0.459 0.199,-0.848 0.464,-1.168 0.262,-0.326 0.61,-0.572 1.042,-0.741 0.338,-0.131 0.666,-0.193 0.984,-0.185 0.316,0.003 0.614,0.078 0.895,0.226 0.284,0.142 0.541,0.354 0.771,0.636 0.228,0.277 0.422,0.62 0.58,1.027 0.155,0.398 0.245,0.775 0.269,1.132 0.023,0.352 -0.021,0.675 -0.129,0.969 -0.109,0.294 -0.28,0.552 -0.514,0.775 -0.229,0.221 -0.522,0.401 -0.88,0.54 z m -0.249,-0.684 c 0.298,-0.116 0.523,-0.287 0.676,-0.512 0.153,-0.226 0.231,-0.494 0.236,-0.805 0.003,-0.316 -0.072,-0.67 -0.225,-1.063 -0.156,-0.402 -0.347,-0.723 -0.572,-0.962 -0.219,-0.24 -0.465,-0.394 -0.737,-0.46 -0.268,-0.072 -0.552,-0.051 -0.85,0.065 -0.288,0.113 -0.51,0.285 -0.666,0.517 -0.153,0.225 -0.232,0.5 -0.238,0.822 -0.001,0.321 0.078,0.685 0.237,1.093 0.116,0.298 0.252,0.552 0.407,0.76 0.154,0.203 0.321,0.362 0.502,0.474 0.18,0.108 0.373,0.17 0.579,0.187 0.21,0.01 0.427,-0.029 0.651,-0.116 z m 3.912,-0.853 -1.916,-4.921 0.82,-0.319 1.916,4.92 z m -3.119,-3.645 -0.273,-0.701 3.78,-1.471 0.273,0.7 z m 7.517,2.044 c -0.323,0.126 -0.624,0.206 -0.903,0.24 -0.275,0.027 -0.525,0.01 -0.749,-0.052 -0.222,-0.068 -0.415,-0.182 -0.58,-0.341 -0.161,-0.166 -0.29,-0.379 -0.386,-0.639 l 0.648,-0.476 c 0.087,0.253 0.214,0.441 0.382,0.564 0.169,0.123 0.371,0.188 0.608,0.193 0.239,-0.002 0.493,-0.055 0.762,-0.159 0.263,-0.103 0.472,-0.221 0.626,-0.356 0.153,-0.134 0.254,-0.273 0.301,-0.417 0.049,-0.151 0.046,-0.299 -0.01,-0.443 -0.064,-0.164 -0.171,-0.271 -0.322,-0.321 -0.148,-0.057 -0.325,-0.077 -0.53,-0.06 -0.207,0.012 -0.435,0.038 -0.683,0.077 -0.252,0.041 -0.506,0.074 -0.76,0.098 -0.253,0.025 -0.495,0.022 -0.724,-0.009 -0.227,-0.038 -0.43,-0.119 -0.61,-0.244 -0.175,-0.126 -0.313,-0.318 -0.414,-0.577 -0.116,-0.298 -0.141,-0.583 -0.075,-0.855 0.066,-0.272 0.212,-0.52 0.439,-0.746 0.232,-0.228 0.537,-0.415 0.914,-0.562 0.378,-0.147 0.732,-0.216 1.062,-0.207 0.332,0.002 0.624,0.083 0.875,0.243 0.255,0.153 0.445,0.385 0.572,0.696 l -0.67,0.484 c -0.066,-0.169 -0.154,-0.307 -0.264,-0.413 -0.105,-0.108 -0.226,-0.183 -0.363,-0.227 -0.137,-0.044 -0.286,-0.058 -0.445,-0.042 -0.162,0.012 -0.335,0.053 -0.519,0.125 -0.213,0.083 -0.387,0.188 -0.521,0.314 -0.136,0.122 -0.227,0.255 -0.274,0.399 -0.044,0.137 -0.038,0.278 0.018,0.422 0.07,0.179 0.187,0.297 0.352,0.353 0.168,0.049 0.369,0.065 0.603,0.048 0.232,-0.021 0.478,-0.051 0.738,-0.09 0.231,-0.038 0.463,-0.066 0.697,-0.082 0.237,-0.024 0.463,-0.017 0.677,0.019 0.22,0.035 0.415,0.117 0.585,0.245 0.175,0.126 0.314,0.321 0.416,0.585 0.113,0.288 0.133,0.569 0.062,0.843 -0.066,0.271 -0.224,0.525 -0.476,0.76 -0.254,0.231 -0.607,0.434 -1.059,0.61 z"
     fill="#030404"
     id="path26" />
  <path
     d="m 203.12456,253.60502 c 0.31,-0.116 0.593,-0.183 0.849,-0.199 0.254,-0.021 0.482,10e-4 0.683,0.068 0.197,0.069 0.369,0.178 0.516,0.328 0.148,0.149 0.269,0.329 0.365,0.538 l -0.665,0.506 c -0.081,-0.186 -0.179,-0.332 -0.292,-0.437 -0.112,-0.101 -0.235,-0.171 -0.37,-0.212 -0.138,-0.034 -0.279,-0.043 -0.421,-0.03 -0.147,0.021 -0.289,0.058 -0.429,0.11 -0.215,0.081 -0.398,0.184 -0.551,0.309 -0.152,0.126 -0.256,0.273 -0.312,0.442 -0.056,0.169 -0.046,0.356 0.031,0.561 0.099,0.265 0.259,0.441 0.48,0.529 0.218,0.095 0.491,0.115 0.818,0.061 0.324,-0.048 0.691,-0.163 1.101,-0.345 l 0.188,0.501 -1.237,1.917 0.022,0.06 2.526,-0.965 0.259,0.689 -3.348,1.257 -0.312,-0.831 1.135,-1.802 -0.022,-0.06 c -0.456,0.182 -0.844,0.263 -1.166,0.241 -0.326,-0.02 -0.591,-0.117 -0.793,-0.292 -0.206,-0.168 -0.359,-0.387 -0.46,-0.656 -0.118,-0.315 -0.148,-0.614 -0.089,-0.898 0.058,-0.284 0.21,-0.546 0.456,-0.787 0.248,-0.235 0.594,-0.436 1.038,-0.603 z m 6.204,-9.798 c 0.325,-0.121 0.626,-0.198 0.905,-0.228 0.276,-0.024 0.526,-0.004 0.75,0.06 0.22,0.071 0.412,0.187 0.575,0.348 0.159,0.168 0.286,0.383 0.378,0.644 l -0.653,0.468 c -0.084,-0.254 -0.209,-0.443 -0.376,-0.568 -0.167,-0.126 -0.368,-0.192 -0.605,-0.201 -0.24,-10e-4 -0.494,0.049 -0.764,0.151 -0.265,0.099 -0.475,0.215 -0.63,0.347 -0.155,0.133 -0.257,0.271 -0.306,0.414 -0.052,0.151 -0.05,0.298 0.004,0.443 0.062,0.165 0.168,0.273 0.318,0.325 0.148,0.058 0.324,0.081 0.529,0.066 0.208,-0.009 0.436,-0.032 0.684,-0.068 0.253,-0.039 0.507,-0.068 0.761,-0.09 0.254,-0.021 0.496,-0.015 0.725,0.019 0.226,0.04 0.428,0.124 0.607,0.25 0.173,0.129 0.309,0.323 0.406,0.583 0.113,0.299 0.134,0.585 0.065,0.856 -0.069,0.27 -0.218,0.517 -0.448,0.74 -0.235,0.225 -0.542,0.409 -0.921,0.551 -0.38,0.143 -0.734,0.207 -1.064,0.194 -0.333,-0.006 -0.623,-0.09 -0.873,-0.253 -0.252,-0.156 -0.439,-0.39 -0.563,-0.703 l 0.676,-0.476 c 0.064,0.17 0.15,0.308 0.259,0.416 0.104,0.109 0.224,0.186 0.36,0.232 0.137,0.045 0.285,0.061 0.445,0.046 0.162,-0.009 0.335,-0.048 0.52,-0.118 0.215,-0.08 0.39,-0.183 0.525,-0.308 0.137,-0.12 0.23,-0.252 0.279,-0.395 0.045,-0.137 0.041,-0.278 -0.013,-0.422 -0.068,-0.18 -0.184,-0.299 -0.348,-0.357 -0.167,-0.051 -0.368,-0.07 -0.602,-0.056 -0.232,0.019 -0.478,0.046 -0.739,0.081 -0.231,0.035 -0.464,0.06 -0.698,0.074 -0.237,0.021 -0.463,0.011 -0.677,-0.028 -0.219,-0.037 -0.413,-0.121 -0.582,-0.252 -0.173,-0.128 -0.31,-0.325 -0.409,-0.589 -0.109,-0.29 -0.126,-0.571 -0.052,-0.844 0.069,-0.271 0.231,-0.522 0.486,-0.755 0.256,-0.227 0.612,-0.426 1.066,-0.597 z m -5.795,2.287 1.856,4.943 -0.817,0.307 -1.855,-4.943 z m 3.266,-1.226 1.855,4.943 -0.816,0.307 -1.856,-4.943 z m 0.381,2.335 0.258,0.689 -3.153,1.184 -0.259,-0.689 z m -7.331,0.163 c 0.359,-0.135 0.701,-0.198 1.023,-0.188 0.32,0.017 0.618,0.099 0.896,0.245 0.272,0.149 0.517,0.362 0.735,0.639 0.213,0.279 0.393,0.615 0.541,1.01 0.218,0.579 0.3,1.095 0.248,1.547 -0.05,0.458 -0.21,0.845 -0.478,1.163 -0.266,0.322 -0.617,0.564 -1.051,0.728 -0.34,0.127 -0.668,0.185 -0.986,0.173 -0.316,-0.007 -0.613,-0.086 -0.892,-0.237 -0.283,-0.145 -0.537,-0.36 -0.764,-0.645 -0.225,-0.28 -0.414,-0.625 -0.568,-1.035 -0.15,-0.399 -0.235,-0.777 -0.255,-1.134 -0.018,-0.353 0.029,-0.675 0.141,-0.968 0.113,-0.293 0.287,-0.549 0.523,-0.769 0.232,-0.218 0.527,-0.394 0.887,-0.529 z m 0.241,0.687 c -0.3,0.113 -0.527,0.281 -0.683,0.504 -0.155,0.224 -0.237,0.491 -0.246,0.802 -0.006,0.316 0.064,0.671 0.212,1.065 0.152,0.405 0.339,0.728 0.561,0.969 0.216,0.243 0.46,0.4 0.731,0.469 0.268,0.076 0.552,0.058 0.851,-0.055 0.29,-0.108 0.514,-0.278 0.672,-0.508 0.156,-0.224 0.238,-0.497 0.248,-0.82 0.005,-0.321 -0.069,-0.686 -0.223,-1.095 -0.112,-0.3 -0.245,-0.555 -0.398,-0.765 -0.151,-0.205 -0.317,-0.365 -0.497,-0.48 -0.178,-0.11 -0.37,-0.174 -0.576,-0.194 -0.21,-0.012 -0.427,0.024 -0.652,0.108 z m -3.922,0.806 1.856,4.943 -0.824,0.309 -1.856,-4.943 z m 3.074,3.682 0.264,0.704 -3.797,1.426 -0.264,-0.704 z m -7.491,-2.135 c 0.324,-0.122 0.626,-0.198 0.905,-0.229 0.276,-0.023 0.526,-0.003 0.749,0.061 0.22,0.071 0.412,0.187 0.575,0.348 0.16,0.168 0.286,0.383 0.379,0.644 l -0.654,0.468 c -0.084,-0.254 -0.209,-0.443 -0.375,-0.569 -0.167,-0.125 -0.369,-0.192 -0.605,-0.2 -0.24,-0.001 -0.495,0.049 -0.764,0.15 -0.265,0.1 -0.475,0.216 -0.63,0.348 -0.156,0.132 -0.258,0.27 -0.306,0.414 -0.052,0.15 -0.051,0.298 0.003,0.443 0.062,0.165 0.168,0.273 0.319,0.325 0.147,0.058 0.324,0.08 0.529,0.066 0.207,-0.01 0.435,-0.032 0.683,-0.069 0.254,-0.038 0.508,-0.068 0.762,-0.089 0.254,-0.021 0.495,-0.015 0.724,0.019 0.226,0.04 0.429,0.124 0.607,0.25 0.174,0.129 0.309,0.323 0.407,0.583 0.112,0.299 0.134,0.584 0.065,0.855 -0.07,0.271 -0.219,0.518 -0.449,0.741 -0.234,0.225 -0.541,0.409 -0.921,0.551 -0.379,0.142 -0.734,0.207 -1.063,0.194 -0.333,-0.006 -0.624,-0.09 -0.873,-0.253 -0.252,-0.156 -0.44,-0.391 -0.563,-0.703 l 0.676,-0.476 c 0.064,0.17 0.15,0.308 0.258,0.416 0.104,0.109 0.224,0.186 0.361,0.232 0.137,0.045 0.285,0.061 0.445,0.046 0.161,-0.009 0.335,-0.049 0.519,-0.118 0.215,-0.081 0.39,-0.183 0.526,-0.308 0.137,-0.12 0.23,-0.252 0.278,-0.395 0.046,-0.137 0.042,-0.278 -0.013,-0.423 -0.067,-0.179 -0.183,-0.298 -0.347,-0.356 -0.168,-0.051 -0.368,-0.07 -0.602,-0.056 -0.233,0.019 -0.479,0.045 -0.739,0.081 -0.232,0.035 -0.465,0.06 -0.699,0.074 -0.237,0.02 -0.462,0.011 -0.677,-0.028 -0.219,-0.037 -0.413,-0.121 -0.581,-0.252 -0.174,-0.128 -0.31,-0.325 -0.41,-0.589 -0.108,-0.29 -0.126,-0.571 -0.051,-0.844 0.069,-0.271 0.231,-0.523 0.485,-0.755 0.257,-0.227 0.612,-0.426 1.067,-0.597 z"
     fill="#030404"
     id="path27" />
  <path
     d="m 78.762562,202.21702 c 0.128,0.305 0.204,0.585 0.23,0.84 0.031,0.253 0.017,0.482 -0.042,0.686 -0.062,0.199 -0.164,0.375 -0.309,0.528 -0.144,0.152 -0.319,0.281 -0.524,0.384 l -0.5302,-0.646 c 0.1829,-0.088 0.3249,-0.19 0.4262,-0.308 0.096,-0.115 0.162,-0.241 0.197,-0.377 0.029,-0.14 0.034,-0.28 0.015,-0.423 -0.027,-0.145 -0.068,-0.286 -0.126,-0.424 -0.089,-0.212 -0.1984,-0.391 -0.3295,-0.539 -0.1311,-0.147 -0.2823,-0.246 -0.4534,-0.295 -0.1712,-0.05 -0.3576,-0.033 -0.5593,0.051 -0.2608,0.11 -0.431,0.276 -0.5106,0.5 -0.0867,0.222 -0.0967,0.495 -0.0301,0.819 0.0595,0.322 0.1881,0.685 0.3857,1.088 l -0.4945,0.207 -1.9618,-1.165 -0.059,0.025 1.0586,2.488 -0.6789,0.284 -1.3806,-3.299 0.8192,-0.343 1.8429,1.068 0.059,-0.025 c -0.1992,-0.449 -0.294,-0.834 -0.2842,-1.156 0.0077,-0.327 0.095,-0.595 0.2621,-0.803 0.1601,-0.212 0.373,-0.373 0.6386,-0.485 0.31,-0.129 0.608,-0.17 0.894,-0.122 0.286,0.048 0.5537,0.19 0.8028,0.427 0.245,0.239 0.459,0.577 0.642,1.015 z m 10.021,5.835 c 0.134,0.319 0.222,0.618 0.263,0.896 0.034,0.275 0.023,0.525 -0.033,0.751 -0.063,0.223 -0.172,0.418 -0.327,0.587 -0.161,0.166 -0.371,0.3 -0.629,0.403 l -0.491,-0.636 c 0.25,-0.093 0.434,-0.225 0.553,-0.397 0.119,-0.171 0.179,-0.375 0.178,-0.612 -0.008,-0.239 -0.067,-0.492 -0.179,-0.757 -0.109,-0.261 -0.232,-0.467 -0.37,-0.617 -0.138,-0.15 -0.28,-0.247 -0.425,-0.291 -0.153,-0.046 -0.3,-0.039 -0.443,0.021 -0.162,0.068 -0.266,0.178 -0.313,0.33 -0.053,0.15 -0.068,0.327 -0.046,0.531 0.017,0.207 0.048,0.434 0.094,0.681 0.047,0.252 0.087,0.504 0.117,0.757 0.031,0.253 0.034,0.495 0.009,0.725 -0.032,0.227 -0.108,0.433 -0.228,0.616 -0.122,0.178 -0.311,0.321 -0.567,0.428 -0.295,0.123 -0.579,0.156 -0.853,0.097 -0.273,-0.06 -0.525,-0.2 -0.757,-0.421 -0.233,-0.226 -0.428,-0.526 -0.584,-0.9 -0.157,-0.374 -0.235,-0.726 -0.234,-1.056 -0.006,-0.332 0.067,-0.626 0.221,-0.881 0.146,-0.258 0.373,-0.454 0.681,-0.589 l 0.501,0.658 c -0.167,0.07 -0.302,0.161 -0.406,0.274 -0.105,0.107 -0.178,0.23 -0.218,0.369 -0.041,0.138 -0.051,0.287 -0.03,0.446 0.015,0.161 0.061,0.333 0.137,0.515 0.089,0.211 0.198,0.382 0.328,0.513 0.125,0.133 0.26,0.221 0.405,0.264 0.138,0.04 0.279,0.031 0.422,-0.029 0.177,-0.074 0.291,-0.194 0.343,-0.36 0.045,-0.17 0.056,-0.371 0.034,-0.604 -0.028,-0.232 -0.064,-0.477 -0.109,-0.735 -0.044,-0.23 -0.077,-0.462 -0.1,-0.696 -0.029,-0.236 -0.028,-0.462 0.003,-0.677 0.029,-0.221 0.106,-0.417 0.23,-0.591 0.122,-0.178 0.313,-0.322 0.574,-0.431 0.285,-0.119 0.565,-0.147 0.841,-0.083 0.273,0.059 0.531,0.212 0.772,0.457 0.237,0.248 0.449,0.596 0.636,1.044 z m -2.5,-5.706 -4.871,2.038 -0.337,-0.804 4.871,-2.039 z m 1.346,3.217 -4.87,2.039 -0.337,-0.805 4.871,-2.038 z m -2.319,0.468 -0.679,0.284 -1.3,-3.107 0.679,-0.284 z m -0.435,-7.319 c 0.148,0.354 0.223,0.692 0.225,1.015 -0.005,0.32 -0.075,0.621 -0.211,0.904 -0.139,0.277 -0.342,0.53 -0.611,0.758 -0.271,0.224 -0.601,0.417 -0.989,0.579 -0.571,0.239 -1.083,0.341 -1.538,0.305 -0.459,-0.033 -0.852,-0.178 -1.179,-0.434 -0.332,-0.254 -0.587,-0.596 -0.766,-1.024 -0.14,-0.334 -0.21,-0.66 -0.21,-0.978 -0.005,-0.316 0.063,-0.616 0.204,-0.901 0.134,-0.287 0.339,-0.55 0.616,-0.787 0.271,-0.235 0.609,-0.437 1.012,-0.606 0.394,-0.164 0.769,-0.263 1.125,-0.297 0.351,-0.031 0.675,0.004 0.972,0.105 0.296,0.101 0.559,0.266 0.788,0.494 0.226,0.224 0.413,0.512 0.562,0.867 z m -0.678,0.266 c -0.124,-0.295 -0.3,-0.516 -0.529,-0.663 -0.229,-0.147 -0.499,-0.219 -0.81,-0.216 -0.316,0.005 -0.669,0.089 -1.057,0.251 -0.399,0.167 -0.715,0.366 -0.948,0.596 -0.235,0.226 -0.382,0.475 -0.441,0.748 -0.066,0.271 -0.037,0.554 0.086,0.849 0.12,0.285 0.297,0.503 0.534,0.653 0.229,0.147 0.505,0.219 0.828,0.217 0.32,-0.007 0.683,-0.095 1.086,-0.264 0.295,-0.124 0.545,-0.266 0.75,-0.426 0.199,-0.159 0.353,-0.33 0.461,-0.514 0.103,-0.182 0.16,-0.377 0.172,-0.584 0.004,-0.21 -0.04,-0.426 -0.132,-0.647 z m -0.951,-3.89 -4.871,2.039 -0.34,-0.812 4.871,-2.038 z m -3.566,3.21 -0.694,0.29 -1.5654,-3.742 0.6934,-0.29 z m 1.855,-7.566 c 0.134,0.32 0.221,0.618 0.262,0.896 0.034,0.275 0.024,0.525 -0.032,0.751 -0.063,0.223 -0.172,0.419 -0.327,0.587 -0.162,0.166 -0.371,0.301 -0.629,0.403 l -0.492,-0.636 c 0.25,-0.093 0.435,-0.225 0.554,-0.396 0.119,-0.172 0.178,-0.376 0.178,-0.612 -0.008,-0.24 -0.068,-0.493 -0.179,-0.758 -0.109,-0.261 -0.233,-0.467 -0.371,-0.617 -0.138,-0.15 -0.279,-0.247 -0.425,-0.29 -0.152,-0.046 -0.299,-0.04 -0.442,0.02 -0.162,0.068 -0.267,0.178 -0.313,0.33 -0.053,0.15 -0.068,0.327 -0.046,0.532 0.017,0.206 0.048,0.433 0.094,0.68 0.047,0.252 0.086,0.504 0.117,0.757 0.031,0.253 0.034,0.495 0.009,0.725 -0.032,0.228 -0.108,0.433 -0.228,0.616 -0.122,0.178 -0.311,0.321 -0.567,0.428 -0.295,0.124 -0.58,0.156 -0.8528,0.097 -0.2734,-0.059 -0.5257,-0.199 -0.757,-0.421 -0.2334,-0.226 -0.4283,-0.526 -0.5848,-0.9 -0.1565,-0.374 -0.2343,-0.725 -0.2336,-1.055 -0.0063,-0.333 0.0673,-0.627 0.2208,-0.882 0.1464,-0.258 0.3736,-0.454 0.6815,-0.589 l 0.5007,0.658 c -0.1673,0.07 -0.3025,0.161 -0.4057,0.274 -0.1053,0.108 -0.1781,0.231 -0.2185,0.369 -0.0404,0.138 -0.0504,0.287 -0.0301,0.446 0.0154,0.161 0.0612,0.333 0.1374,0.515 0.0886,0.211 0.1978,0.383 0.3276,0.513 0.1249,0.133 0.26,0.221 0.4053,0.264 0.1382,0.041 0.2792,0.031 0.4212,-0.029 0.177,-0.074 0.292,-0.194 0.344,-0.36 0.045,-0.169 0.056,-0.371 0.033,-0.604 -0.027,-0.231 -0.063,-0.476 -0.108,-0.735 -0.044,-0.23 -0.078,-0.462 -0.1,-0.695 -0.03,-0.237 -0.029,-0.463 0.003,-0.678 0.029,-0.22 0.105,-0.417 0.229,-0.59 0.122,-0.179 0.314,-0.322 0.574,-0.432 0.286,-0.119 0.566,-0.147 0.842,-0.083 0.273,0.059 0.53,0.212 0.772,0.458 0.237,0.247 0.449,0.595 0.636,1.043 z"
     fill="#030404"
     id="path28" />
  <path
     d="m 260.28756,167.97702 3.902,0.09 0.018,-0.768 0.768,0.018 c -0.006,0.245 0.03,0.449 0.106,0.61 0.076,0.168 0.236,0.278 0.48,0.332 l -0.016,0.719 -5.279,-0.122 z m -6.944,-7.001 c 0.008,-0.346 0.049,-0.655 0.125,-0.925 0.081,-0.265 0.193,-0.489 0.336,-0.672 0.148,-0.178 0.327,-0.313 0.537,-0.404 0.216,-0.086 0.462,-0.123 0.739,-0.111 l 0.19,0.781 c -0.266,-0.017 -0.489,0.028 -0.667,0.136 -0.179,0.108 -0.316,0.27 -0.412,0.487 -0.09,0.222 -0.139,0.477 -0.146,0.765 -0.006,0.282 0.023,0.52 0.088,0.714 0.065,0.193 0.155,0.339 0.27,0.438 0.12,0.104 0.258,0.158 0.412,0.162 0.176,0.004 0.316,-0.054 0.42,-0.175 0.11,-0.114 0.196,-0.27 0.259,-0.466 0.069,-0.196 0.133,-0.415 0.192,-0.659 0.059,-0.25 0.126,-0.496 0.201,-0.74 0.075,-0.244 0.171,-0.466 0.287,-0.666 0.122,-0.194 0.275,-0.351 0.459,-0.469 0.184,-0.113 0.415,-0.167 0.692,-0.16 0.32,0.007 0.593,0.094 0.818,0.259 0.226,0.165 0.399,0.396 0.52,0.692 0.121,0.302 0.177,0.655 0.168,1.06 -0.009,0.405 -0.082,0.759 -0.217,1.06 -0.129,0.306 -0.316,0.544 -0.56,0.715 -0.239,0.176 -0.527,0.262 -0.863,0.26 l -0.189,-0.805 c 0.181,0.004 0.342,-0.024 0.482,-0.085 0.14,-0.055 0.257,-0.138 0.35,-0.248 0.093,-0.109 0.163,-0.241 0.209,-0.395 0.052,-0.153 0.08,-0.329 0.084,-0.526 0.006,-0.229 -0.024,-0.43 -0.09,-0.602 -0.06,-0.172 -0.147,-0.308 -0.262,-0.406 -0.11,-0.094 -0.243,-0.142 -0.397,-0.146 -0.192,-0.004 -0.346,0.059 -0.461,0.19 -0.11,0.136 -0.202,0.315 -0.276,0.537 -0.069,0.223 -0.136,0.461 -0.201,0.716 -0.053,0.228 -0.117,0.453 -0.191,0.676 -0.07,0.228 -0.163,0.433 -0.279,0.618 -0.116,0.189 -0.266,0.337 -0.45,0.445 -0.184,0.113 -0.418,0.167 -0.7,0.16 -0.309,-0.007 -0.577,-0.096 -0.802,-0.267 -0.226,-0.165 -0.399,-0.409 -0.519,-0.732 -0.116,-0.323 -0.168,-0.726 -0.156,-1.212 z m -0.041,6.23 5.279,0.122 -0.02,0.872 -5.279,-0.122 z m 0.081,-3.487 5.279,0.122 -0.02,0.872 -5.279,-0.122 z m 2.309,0.518 0.736,0.017 -0.078,3.367 -0.736,-0.017 z m -2.584,6.862 c 0.009,-0.384 0.078,-0.724 0.208,-1.02 0.135,-0.29 0.322,-0.537 0.561,-0.739 0.24,-0.197 0.528,-0.345 0.867,-0.444 0.338,-0.094 0.718,-0.136 1.139,-0.126 0.618,0.015 1.128,0.13 1.528,0.348 0.406,0.217 0.706,0.509 0.9,0.877 0.2,0.367 0.294,0.783 0.284,1.247 -0.009,0.362 -0.078,0.689 -0.207,0.979 -0.124,0.291 -0.309,0.537 -0.553,0.739 -0.24,0.208 -0.534,0.364 -0.883,0.468 -0.344,0.104 -0.735,0.151 -1.172,0.141 -0.427,-0.01 -0.809,-0.072 -1.148,-0.186 -0.334,-0.115 -0.615,-0.279 -0.845,-0.492 -0.23,-0.214 -0.402,-0.471 -0.518,-0.772 -0.116,-0.296 -0.17,-0.636 -0.161,-1.02 z m 0.728,0.032 c -0.008,0.32 0.063,0.594 0.213,0.822 0.149,0.227 0.367,0.403 0.652,0.527 0.29,0.124 0.646,0.191 1.067,0.201 0.432,0.01 0.802,-0.043 1.108,-0.159 0.307,-0.11 0.543,-0.278 0.708,-0.504 0.171,-0.22 0.26,-0.49 0.267,-0.81 0.007,-0.309 -0.066,-0.58 -0.221,-0.813 -0.15,-0.227 -0.372,-0.406 -0.668,-0.536 -0.296,-0.124 -0.662,-0.191 -1.1,-0.201 -0.319,-0.007 -0.606,0.021 -0.858,0.084 -0.247,0.064 -0.457,0.158 -0.63,0.282 -0.169,0.124 -0.3,0.278 -0.395,0.463 -0.09,0.19 -0.138,0.405 -0.143,0.644 z m -0.716,3.94 5.279,0.122 -0.02,0.88 -5.279,-0.122 z m 4.564,-1.479 0.752,0.018 -0.094,4.055 -0.752,-0.018 z"
     fill="#030404"
     id="path29" />
  <path
     d="m 253.20656,203.02002 3.643,1.405 0.276,-0.717 0.717,0.277 c -0.088,0.229 -0.124,0.432 -0.107,0.61 0.015,0.183 0.129,0.341 0.34,0.474 l -0.259,0.672 -4.926,-1.9 z m -4.167,-8.936 c 0.124,-0.323 0.268,-0.599 0.431,-0.828 0.165,-0.222 0.346,-0.395 0.543,-0.52 0.199,-0.117 0.414,-0.183 0.642,-0.198 0.232,-0.008 0.476,0.041 0.733,0.146 l -0.085,0.799 c -0.245,-0.106 -0.47,-0.139 -0.674,-0.098 -0.205,0.042 -0.389,0.148 -0.552,0.319 -0.16,0.179 -0.292,0.402 -0.396,0.671 -0.102,0.264 -0.155,0.497 -0.159,0.702 -0.004,0.204 0.031,0.372 0.106,0.503 0.078,0.139 0.189,0.236 0.333,0.292 0.164,0.063 0.316,0.056 0.454,-0.022 0.142,-0.071 0.276,-0.188 0.402,-0.351 0.13,-0.161 0.265,-0.347 0.403,-0.556 0.14,-0.215 0.286,-0.424 0.439,-0.628 0.153,-0.204 0.318,-0.381 0.496,-0.53 0.18,-0.141 0.377,-0.237 0.591,-0.286 0.211,-0.044 0.446,-0.017 0.705,0.083 0.298,0.115 0.526,0.289 0.682,0.521 0.157,0.231 0.242,0.507 0.256,0.827 0.012,0.325 -0.055,0.676 -0.201,1.054 -0.146,0.378 -0.333,0.686 -0.562,0.924 -0.226,0.244 -0.482,0.406 -0.77,0.483 -0.284,0.085 -0.584,0.07 -0.899,-0.046 l 0.094,-0.822 c 0.169,0.066 0.33,0.093 0.482,0.084 0.151,-0.005 0.288,-0.044 0.413,-0.116 0.125,-0.071 0.235,-0.172 0.331,-0.301 0.1,-0.127 0.186,-0.282 0.257,-0.467 0.082,-0.213 0.122,-0.413 0.119,-0.597 0.001,-0.182 -0.035,-0.339 -0.11,-0.471 -0.072,-0.125 -0.18,-0.215 -0.324,-0.271 -0.18,-0.069 -0.345,-0.061 -0.498,0.023 -0.149,0.091 -0.297,0.228 -0.442,0.412 -0.14,0.186 -0.284,0.388 -0.431,0.606 -0.127,0.197 -0.263,0.387 -0.409,0.571 -0.142,0.191 -0.299,0.353 -0.47,0.487 -0.174,0.139 -0.366,0.228 -0.575,0.267 -0.211,0.045 -0.449,0.016 -0.713,-0.086 -0.288,-0.111 -0.51,-0.285 -0.664,-0.522 -0.157,-0.232 -0.237,-0.52 -0.241,-0.865 0,-0.342 0.088,-0.74 0.263,-1.193 z m -2.145,5.849 4.927,1.9 -0.314,0.814 -4.926,-1.9 z m 1.255,-3.254 4.927,1.9 -0.314,0.813 -4.926,-1.899 z m 1.998,1.268 0.687,0.265 -1.212,3.142 -0.687,-0.265 z m -4.752,5.584 c 0.139,-0.358 0.319,-0.655 0.54,-0.889 0.225,-0.228 0.485,-0.396 0.779,-0.506 0.292,-0.105 0.613,-0.146 0.965,-0.125 0.35,0.026 0.722,0.115 1.115,0.267 0.577,0.223 1.017,0.504 1.321,0.844 0.308,0.342 0.491,0.718 0.55,1.13 0.064,0.413 0.012,0.836 -0.155,1.269 -0.131,0.338 -0.306,0.622 -0.526,0.852 -0.215,0.231 -0.472,0.401 -0.77,0.508 -0.296,0.115 -0.626,0.162 -0.99,0.142 -0.358,-0.018 -0.742,-0.106 -1.15,-0.264 -0.398,-0.153 -0.737,-0.341 -1.017,-0.563 -0.275,-0.221 -0.485,-0.47 -0.629,-0.749 -0.144,-0.278 -0.22,-0.579 -0.227,-0.902 -0.008,-0.318 0.056,-0.656 0.194,-1.014 z m 0.674,0.277 c -0.115,0.298 -0.141,0.58 -0.077,0.845 0.063,0.264 0.208,0.503 0.435,0.716 0.231,0.215 0.544,0.399 0.937,0.55 0.403,0.156 0.768,0.231 1.096,0.226 0.326,0 0.605,-0.078 0.837,-0.235 0.234,-0.149 0.409,-0.373 0.525,-0.672 0.111,-0.289 0.133,-0.569 0.066,-0.84 -0.063,-0.265 -0.212,-0.508 -0.447,-0.73 -0.236,-0.217 -0.559,-0.404 -0.967,-0.561 -0.298,-0.116 -0.577,-0.186 -0.836,-0.211 -0.254,-0.024 -0.483,-0.007 -0.688,0.051 -0.201,0.06 -0.377,0.161 -0.529,0.302 -0.148,0.149 -0.266,0.335 -0.352,0.559 z m -2.006,3.466 4.927,1.899 -0.317,0.821 -4.926,-1.899 z m 4.795,0.151 0.702,0.271 -1.46,3.784 -0.701,-0.271 z"
     fill="#030404"
     id="path30" />
  <path
     d="m 165.51356,261.40702 -0.137,3.902 0.768,0.027 -0.027,0.767 c -0.246,-0.008 -0.45,0.024 -0.612,0.099 -0.168,0.074 -0.281,0.233 -0.337,0.476 l -0.72,-0.025 0.186,-5.277 z m 7.084,-6.859 c 0.346,0.012 0.654,0.058 0.923,0.136 0.264,0.084 0.487,0.199 0.669,0.344 0.176,0.15 0.308,0.331 0.397,0.542 0.083,0.217 0.117,0.464 0.102,0.74 l -0.783,0.181 c 0.02,-0.266 -0.023,-0.489 -0.128,-0.669 -0.106,-0.18 -0.267,-0.319 -0.482,-0.417 -0.221,-0.093 -0.475,-0.145 -0.763,-0.155 -0.283,-0.01 -0.521,0.016 -0.715,0.079 -0.195,0.062 -0.342,0.151 -0.442,0.265 -0.106,0.119 -0.161,0.255 -0.166,0.41 -0.007,0.176 0.05,0.317 0.169,0.422 0.113,0.111 0.268,0.199 0.463,0.265 0.195,0.071 0.414,0.137 0.657,0.199 0.249,0.062 0.495,0.132 0.737,0.21 0.243,0.078 0.464,0.176 0.662,0.295 0.193,0.125 0.348,0.279 0.464,0.465 0.111,0.185 0.162,0.417 0.152,0.694 -0.011,0.32 -0.101,0.591 -0.269,0.815 -0.168,0.223 -0.401,0.394 -0.698,0.512 -0.303,0.117 -0.657,0.169 -1.062,0.154 -0.405,-0.014 -0.758,-0.09 -1.057,-0.229 -0.305,-0.133 -0.541,-0.323 -0.708,-0.569 -0.173,-0.241 -0.257,-0.53 -0.25,-0.866 l 0.807,-0.179 c -0.007,0.181 0.02,0.342 0.079,0.483 0.053,0.14 0.135,0.258 0.243,0.353 0.109,0.094 0.24,0.165 0.393,0.213 0.153,0.054 0.328,0.084 0.525,0.091 0.23,0.008 0.431,-0.02 0.604,-0.083 0.172,-0.058 0.309,-0.144 0.409,-0.258 0.094,-0.108 0.144,-0.24 0.15,-0.395 0.007,-0.191 -0.055,-0.346 -0.184,-0.462 -0.135,-0.112 -0.313,-0.206 -0.534,-0.283 -0.222,-0.072 -0.46,-0.142 -0.713,-0.209 -0.228,-0.057 -0.452,-0.123 -0.674,-0.2 -0.227,-0.072 -0.432,-0.168 -0.614,-0.286 -0.188,-0.119 -0.335,-0.271 -0.44,-0.456 -0.111,-0.185 -0.162,-0.419 -0.152,-0.702 0.011,-0.309 0.103,-0.575 0.276,-0.798 0.168,-0.224 0.415,-0.394 0.739,-0.511 0.324,-0.111 0.729,-0.158 1.214,-0.141 z m -6.229,-0.115 -0.186,5.277 -0.871,-0.031 0.185,-5.277 z m 3.486,0.122 -0.186,5.277 -0.871,-0.03 0.185,-5.277 z m -0.546,2.303 -0.026,0.735 -3.365,-0.118 0.025,-0.736 z m -6.83,-2.666 c 0.384,0.013 0.723,0.087 1.017,0.22 0.288,0.138 0.532,0.328 0.732,0.57 0.194,0.242 0.339,0.532 0.434,0.872 0.089,0.339 0.126,0.719 0.112,1.14 -0.022,0.619 -0.144,1.127 -0.366,1.524 -0.222,0.403 -0.518,0.7 -0.888,0.89 -0.37,0.195 -0.786,0.284 -1.25,0.268 -0.363,-0.013 -0.688,-0.086 -0.977,-0.219 -0.289,-0.127 -0.533,-0.315 -0.733,-0.562 -0.205,-0.242 -0.357,-0.538 -0.457,-0.888 -0.1,-0.345 -0.142,-0.736 -0.127,-1.173 0.015,-0.427 0.082,-0.809 0.201,-1.146 0.118,-0.332 0.285,-0.612 0.502,-0.839 0.216,-0.227 0.475,-0.397 0.778,-0.509 0.297,-0.112 0.638,-0.162 1.022,-0.148 z m -0.042,0.727 c -0.32,-0.011 -0.594,0.056 -0.823,0.203 -0.23,0.147 -0.408,0.362 -0.535,0.646 -0.128,0.289 -0.199,0.644 -0.214,1.065 -0.015,0.432 0.033,0.801 0.145,1.11 0.107,0.307 0.272,0.545 0.495,0.713 0.218,0.174 0.487,0.266 0.807,0.277 0.309,0.011 0.581,-0.06 0.816,-0.211 0.229,-0.147 0.41,-0.368 0.544,-0.662 0.127,-0.294 0.199,-0.66 0.214,-1.097 0.011,-0.32 -0.013,-0.606 -0.074,-0.859 -0.06,-0.248 -0.152,-0.459 -0.273,-0.634 -0.123,-0.17 -0.275,-0.303 -0.459,-0.4 -0.189,-0.092 -0.403,-0.143 -0.643,-0.151 z m -3.93,-0.763 -0.186,5.277 -0.88,-0.031 0.186,-5.277 z m 1.423,4.581 -0.026,0.752 -4.054,-0.143 0.027,-0.752 z"
     fill="#030404"
     id="path31" />
  <path
     d="m 71.157762,166.39102 -3.9038,0.04 0.0079,0.768 -0.7679,0.008 c -0.0026,-0.245 -0.0447,-0.447 -0.1263,-0.607 -0.0817,-0.164 -0.2455,-0.269 -0.4913,-0.315 l -0.0075,-0.72 5.2798,-0.054 z m 7.1748,6.764 c 0.003,0.346 -0.028,0.656 -0.095,0.929 -0.072,0.267 -0.176,0.495 -0.3128,0.683 -0.1422,0.183 -0.3167,0.323 -0.5237,0.421 -0.2124,0.093 -0.4573,0.139 -0.7346,0.136 l -0.2161,-0.774 c 0.2668,0.008 0.4876,-0.045 0.6624,-0.159 0.1749,-0.113 0.3065,-0.28 0.3949,-0.5 0.083,-0.225 0.123,-0.481 0.12,-0.769 -0.0029,-0.283 -0.04,-0.52 -0.1113,-0.711 -0.0713,-0.191 -0.1662,-0.334 -0.2845,-0.429 -0.1237,-0.1 -0.2629,-0.149 -0.4175,-0.148 -0.176,0.002 -0.314,0.065 -0.4141,0.189 -0.1055,0.118 -0.1865,0.276 -0.2431,0.474 -0.062,0.198 -0.1183,0.42 -0.1691,0.666 -0.0508,0.251 -0.1095,0.5 -0.1763,0.746 -0.0668,0.246 -0.1552,0.471 -0.2651,0.675 -0.1153,0.198 -0.2629,0.36 -0.443,0.484 -0.1801,0.119 -0.4088,0.18 -0.6861,0.183 -0.32,0.004 -0.5955,-0.074 -0.8265,-0.231 -0.2309,-0.158 -0.4119,-0.383 -0.543,-0.675 -0.131,-0.297 -0.1987,-0.648 -0.2029,-1.054 -0.0042,-0.405 0.0562,-0.76 0.181,-1.065 0.1195,-0.311 0.2983,-0.556 0.5365,-0.734 0.2327,-0.184 0.5171,-0.28 0.853,-0.289 l 0.2163,0.798 c -0.1814,0.002 -0.341,0.035 -0.479,0.101 -0.1381,0.06 -0.2518,0.146 -0.3413,0.259 -0.0895,0.113 -0.1548,0.247 -0.1959,0.402 -0.0464,0.156 -0.0686,0.332 -0.0665,0.529 0.0023,0.229 0.0391,0.429 0.1102,0.599 0.0657,0.17 0.1578,0.302 0.2761,0.397 0.1129,0.09 0.2467,0.134 0.4014,0.132 0.192,-0.002 0.3433,-0.07 0.4539,-0.205 0.1052,-0.139 0.1913,-0.322 0.2583,-0.546 0.0617,-0.225 0.1206,-0.466 0.1766,-0.722 0.0456,-0.23 0.1019,-0.457 0.1689,-0.682 0.0617,-0.23 0.1475,-0.439 0.2576,-0.627 0.11,-0.193 0.2551,-0.346 0.4352,-0.46 0.1801,-0.119 0.4115,-0.18 0.6942,-0.183 0.3093,-0.004 0.5795,0.076 0.8105,0.239 0.231,0.158 0.4124,0.396 0.5434,0.715 0.126,0.318 0.191,0.72 0.197,1.206 z m -0.169,-6.228 -5.2796,0.055 -0.0091,-0.872 5.2797,-0.055 z m 0.036,3.488 -5.2796,0.055 -0.009,-0.872 5.2796,-0.055 z m -2.3245,-0.44 -0.736,0.008 -0.0348,-3.368 0.7359,-0.008 z m 2.3525,-6.945 c 0.004,0.384 -0.054,0.726 -0.174,1.026 -0.1246,0.295 -0.3033,0.547 -0.5358,0.758 -0.2326,0.205 -0.5163,0.362 -0.8512,0.472 -0.3349,0.105 -0.713,0.16 -1.1343,0.164 -0.6187,0.007 -1.1317,-0.092 -1.5392,-0.296 -0.4128,-0.204 -0.7224,-0.486 -0.9288,-0.846 -0.2117,-0.361 -0.32,-0.773 -0.3248,-1.237 -0.0037,-0.363 0.0542,-0.691 0.1738,-0.986 0.1143,-0.294 0.2904,-0.547 0.5282,-0.757 0.2325,-0.216 0.5214,-0.382 0.8669,-0.497 0.3402,-0.116 0.7289,-0.176 1.1662,-0.18 0.4267,-0.005 0.8112,0.044 1.1536,0.148 0.3371,0.103 0.624,0.257 0.8608,0.463 0.2368,0.205 0.4181,0.457 0.5436,0.754 0.126,0.292 0.191,0.63 0.195,1.014 z m -0.7284,-0.008 c -0.0033,-0.32 -0.0834,-0.591 -0.2404,-0.814 -0.157,-0.222 -0.38,-0.391 -0.6692,-0.505 -0.2946,-0.114 -0.6525,-0.169 -1.0738,-0.165 -0.432,0.005 -0.7993,0.07 -1.102,0.196 -0.3028,0.12 -0.533,0.296 -0.6906,0.527 -0.163,0.225 -0.2429,0.498 -0.2396,0.818 0.0032,0.31 0.086,0.578 0.2484,0.806 0.1569,0.222 0.3854,0.393 0.6853,0.513 0.2999,0.114 0.6685,0.169 1.1058,0.164 0.32,-0.003 0.6049,-0.041 0.8549,-0.113 0.2446,-0.071 0.4515,-0.172 0.6209,-0.302 0.164,-0.13 0.2903,-0.288 0.3791,-0.476 0.0833,-0.193 0.1237,-0.409 0.1212,-0.649 z m 0.5834,-3.962 -5.28,0.055 -0.0091,-0.88 5.2801,-0.055 z m -4.5117,1.631 -0.7519,0.008 -0.042,-4.056 0.752,-0.008 z"
     fill="#030404"
     id="path32" />
  <path
     d="m 77.669762,131.62602 -3.7286,-1.157 -0.2276,0.734 -0.7335,-0.228 c 0.0727,-0.234 0.0946,-0.44 0.0656,-0.616 -0.0274,-0.182 -0.1512,-0.332 -0.3712,-0.451 l 0.2133,-0.687 5.0428,1.565 z m 4.7588,8.636 c -0.103,0.331 -0.228,0.616 -0.375,0.855 -0.15,0.233 -0.319,0.418 -0.507,0.555 -0.191,0.131 -0.4,0.211 -0.627,0.241 -0.231,0.023 -0.478,-0.009 -0.741,-0.096 l 0.031,-0.803 c 0.252,0.089 0.478,0.107 0.679,0.052 0.202,-0.055 0.378,-0.173 0.529,-0.355 0.148,-0.189 0.265,-0.421 0.35,-0.696 0.084,-0.27 0.121,-0.507 0.112,-0.711 -0.01,-0.204 -0.056,-0.369 -0.14,-0.495 -0.087,-0.133 -0.204,-0.223 -0.352,-0.269 -0.168,-0.052 -0.319,-0.034 -0.452,0.053 -0.136,0.08 -0.262,0.206 -0.376,0.377 -0.12,0.169 -0.242,0.363 -0.365,0.582 -0.126,0.224 -0.258,0.442 -0.397,0.656 -0.138,0.214 -0.291,0.401 -0.458,0.561 -0.171,0.154 -0.361,0.262 -0.571,0.326 -0.208,0.058 -0.444,0.046 -0.709,-0.036 -0.3055,-0.095 -0.5441,-0.253 -0.7157,-0.473 -0.1716,-0.221 -0.2751,-0.491 -0.3104,-0.809 -0.0337,-0.323 0.0095,-0.678 0.1296,-1.065 0.1201,-0.387 0.2863,-0.707 0.4987,-0.959 0.2088,-0.259 0.4538,-0.438 0.7348,-0.534 0.278,-0.104 0.579,-0.109 0.901,-0.014 l -0.038,0.825 c -0.174,-0.053 -0.336,-0.07 -0.487,-0.05 -0.15,0.015 -0.285,0.062 -0.405,0.142 -0.119,0.081 -0.223,0.188 -0.309,0.323 -0.0919,0.134 -0.167,0.295 -0.2255,0.483 -0.068,0.219 -0.0941,0.421 -0.0785,0.604 0.0105,0.182 0.0576,0.336 0.1412,0.463 0.0801,0.119 0.1938,0.202 0.3418,0.248 0.183,0.057 0.348,0.038 0.495,-0.056 0.143,-0.101 0.281,-0.248 0.413,-0.441 0.128,-0.195 0.257,-0.406 0.389,-0.633 0.114,-0.205 0.237,-0.404 0.37,-0.597 0.129,-0.201 0.275,-0.373 0.437,-0.518 0.164,-0.15 0.349,-0.252 0.555,-0.305 0.208,-0.059 0.447,-0.046 0.717,0.038 0.296,0.092 0.528,0.25 0.698,0.476 0.172,0.221 0.272,0.503 0.299,0.847 0.022,0.342 -0.039,0.744 -0.182,1.208 z m 1.746,-5.98 -5.042,-1.565 0.258,-0.833 5.043,1.565 z m -1.033,3.331 -5.043,-1.565 0.258,-0.832 5.043,1.564 z m -2.079,-1.13 -0.703,-0.219 0.999,-3.216 0.703,0.218 z m 4.366,-5.891 c -0.113,0.366 -0.273,0.674 -0.479,0.923 -0.209,0.242 -0.457,0.428 -0.742,0.557 -0.284,0.124 -0.603,0.187 -0.955,0.19 -0.351,-0.003 -0.728,-0.067 -1.13,-0.192 -0.591,-0.183 -1.049,-0.434 -1.375,-0.753 -0.33,-0.32 -0.539,-0.684 -0.625,-1.09 -0.091,-0.408 -0.068,-0.834 0.07,-1.277 0.107,-0.346 0.263,-0.641 0.467,-0.885 0.199,-0.246 0.444,-0.432 0.735,-0.56 0.287,-0.134 0.613,-0.203 0.977,-0.207 0.359,-0.006 0.748,0.056 1.166,0.185 0.407,0.127 0.758,0.292 1.052,0.495 0.29,0.201 0.516,0.436 0.678,0.704 0.162,0.268 0.258,0.563 0.287,0.885 0.03,0.316 -0.012,0.658 -0.126,1.025 z m -0.69,-0.231 c 0.095,-0.306 0.101,-0.589 0.02,-0.848 -0.081,-0.26 -0.242,-0.489 -0.482,-0.686 -0.246,-0.199 -0.57,-0.361 -0.972,-0.486 -0.413,-0.128 -0.782,-0.178 -1.109,-0.151 -0.325,0.022 -0.598,0.118 -0.819,0.29 -0.224,0.165 -0.384,0.4 -0.479,0.706 -0.091,0.295 -0.095,0.576 -0.01,0.843 0.082,0.259 0.247,0.492 0.496,0.698 0.25,0.2 0.584,0.365 1.002,0.495 0.305,0.095 0.588,0.146 0.848,0.154 0.255,0.007 0.483,-0.026 0.684,-0.097 0.196,-0.074 0.365,-0.186 0.506,-0.337 0.139,-0.158 0.244,-0.352 0.315,-0.581 z m 1.768,-3.593 -5.043,-1.565 0.261,-0.84 5.043,1.565 z m -4.794,0.171 -0.718,-0.223 1.202,-3.873 0.718,0.222 z"
     fill="#030404"
     id="path33" />
  <path
     d="m 130.13256,254.41902 -1.546,3.585 0.706,0.304 -0.304,0.705 c -0.226,-0.097 -0.428,-0.14 -0.606,-0.13 -0.184,0.008 -0.346,0.115 -0.487,0.321 l -0.661,-0.285 2.09,-4.849 z m 9.091,-3.817 c 0.318,0.137 0.589,0.291 0.811,0.463 0.215,0.174 0.381,0.361 0.498,0.563 0.109,0.204 0.167,0.42 0.173,0.649 -0.001,0.232 -0.059,0.474 -0.174,0.727 l -0.795,-0.116 c 0.116,-0.241 0.157,-0.464 0.123,-0.67 -0.033,-0.206 -0.132,-0.394 -0.297,-0.564 -0.172,-0.167 -0.39,-0.308 -0.654,-0.422 -0.26,-0.111 -0.492,-0.174 -0.695,-0.186 -0.204,-0.012 -0.373,0.016 -0.508,0.086 -0.141,0.073 -0.243,0.18 -0.304,0.322 -0.07,0.162 -0.068,0.313 0.004,0.455 0.066,0.144 0.177,0.283 0.335,0.415 0.156,0.136 0.336,0.278 0.541,0.424 0.209,0.148 0.412,0.303 0.61,0.463 0.198,0.161 0.368,0.333 0.509,0.516 0.135,0.186 0.223,0.387 0.264,0.602 0.036,0.213 -0.001,0.446 -0.111,0.701 -0.127,0.294 -0.309,0.515 -0.546,0.662 -0.238,0.147 -0.517,0.221 -0.837,0.223 -0.325,-0.001 -0.674,-0.081 -1.046,-0.242 -0.372,-0.16 -0.672,-0.359 -0.901,-0.597 -0.235,-0.235 -0.386,-0.498 -0.453,-0.788 -0.074,-0.287 -0.047,-0.586 0.082,-0.897 l 0.817,0.126 c -0.072,0.166 -0.106,0.326 -0.102,0.478 -10e-4,0.151 0.032,0.29 0.099,0.418 0.067,0.127 0.163,0.241 0.288,0.342 0.123,0.105 0.275,0.197 0.456,0.275 0.211,0.091 0.408,0.138 0.592,0.142 0.182,0.009 0.341,-0.022 0.475,-0.092 0.128,-0.067 0.222,-0.171 0.284,-0.313 0.076,-0.176 0.075,-0.342 -0.004,-0.498 -0.085,-0.153 -0.216,-0.305 -0.395,-0.458 -0.18,-0.147 -0.376,-0.299 -0.588,-0.454 -0.192,-0.135 -0.377,-0.278 -0.555,-0.431 -0.185,-0.149 -0.341,-0.312 -0.468,-0.489 -0.132,-0.179 -0.214,-0.374 -0.245,-0.585 -0.036,-0.213 0.002,-0.449 0.114,-0.708 0.122,-0.284 0.305,-0.499 0.548,-0.644 0.237,-0.148 0.528,-0.217 0.873,-0.207 0.342,0.014 0.736,0.117 1.182,0.309 z m -5.761,-2.37 -2.09,4.848 -0.801,-0.345 2.09,-4.849 z m 3.203,1.38 -2.09,4.849 -0.801,-0.345 2.09,-4.849 z m -1.345,1.947 -0.291,0.676 -3.093,-1.333 0.291,-0.676 z m -5.395,-4.965 c 0.353,0.152 0.642,0.343 0.868,0.574 0.218,0.234 0.377,0.5 0.475,0.797 0.093,0.296 0.122,0.619 0.087,0.97 -0.04,0.349 -0.143,0.717 -0.31,1.103 -0.245,0.569 -0.543,0.998 -0.895,1.288 -0.353,0.294 -0.737,0.463 -1.15,0.506 -0.415,0.047 -0.836,-0.021 -1.262,-0.205 -0.333,-0.143 -0.61,-0.33 -0.831,-0.558 -0.223,-0.224 -0.382,-0.487 -0.478,-0.79 -0.103,-0.3 -0.138,-0.631 -0.103,-0.994 0.032,-0.358 0.135,-0.738 0.308,-1.139 0.169,-0.392 0.37,-0.724 0.603,-0.995 0.231,-0.266 0.488,-0.466 0.772,-0.599 0.284,-0.133 0.587,-0.197 0.91,-0.191 0.318,0.003 0.653,0.081 1.006,0.233 z m -0.303,0.662 c -0.294,-0.127 -0.574,-0.163 -0.841,-0.11 -0.267,0.053 -0.511,0.189 -0.733,0.407 -0.224,0.223 -0.419,0.528 -0.586,0.915 -0.171,0.397 -0.26,0.759 -0.268,1.087 -0.013,0.325 0.055,0.607 0.202,0.845 0.14,0.24 0.357,0.424 0.651,0.55 0.284,0.123 0.563,0.156 0.837,0.1 0.267,-0.054 0.516,-0.193 0.747,-0.419 0.226,-0.228 0.425,-0.542 0.599,-0.944 0.126,-0.294 0.207,-0.57 0.243,-0.827 0.033,-0.253 0.025,-0.483 -0.025,-0.69 -0.052,-0.203 -0.146,-0.383 -0.281,-0.54 -0.143,-0.154 -0.324,-0.279 -0.545,-0.374 z m -3.385,-2.139 -2.09,4.849 -0.808,-0.348 2.09,-4.849 z m -0.338,4.786 -0.297,0.69 -3.725,-1.605 0.298,-0.691 z"
     fill="#030404"
     id="path34" />
</svg>
