<svg width="322" height="331" viewBox="0 0 322 331" fill="none" xmlns="http://www.w3.org/2000/svg">
<path d="M220.48 155.854C221.45 156.104 222.48 156.174 223.48 156.314C224.67 156.484 225.86 156.844 227.02 157.154C229.23 157.734 231.44 158.374 233.59 159.114C235 159.594 236.44 160.074 237.77 160.744C237.97 160.844 238.43 160.984 238.56 161.164C238.74 161.404 238.59 161.484 238.35 161.684C237.9 162.044 237.3 162.194 236.73 162.314C235.71 162.534 234.63 162.644 233.6 162.824C232.89 162.944 231.95 163.044 231.47 163.644C232.82 164.644 233.97 165.914 235.24 167.004C236.34 167.954 237.4 168.994 238.41 170.054C238.61 170.264 239.48 171.034 239.29 171.394C239.05 171.844 237.97 171.244 237.73 171.114C236.03 170.164 234.21 169.574 232.4 168.874C230.62 168.184 228.88 167.394 227.12 166.644C225.7 166.044 224.2 165.454 222.87 164.654C222.39 164.364 221.91 164.144 221.45 163.834C221.17 163.644 220.57 163.404 220.38 163.124C219.65 162.114 222.72 162.314 222.7 161.464C222.69 160.884 221.84 160.224 221.51 159.794C221.07 159.224 220.65 158.594 220.26 157.984C220.04 157.644 219.84 157.364 219.57 157.064C219.45 156.934 219.01 156.544 219 156.364C218.98 155.794 219.78 155.554 220.24 155.694" fill="#DD4C97"/>
<path d="M223.03 156.544C227.08 157.674 231.22 158.524 235.24 159.734C235.73 159.884 236.58 160.074 236.89 160.524C237.23 161.024 236.48 161.184 236.1 161.304C234.92 161.664 233.37 161.654 232.34 162.394C232.07 162.584 231.93 163.024 232.23 163.284C234.48 165.204 237.11 166.964 238.74 169.494C238.9 169.214 239.07 168.924 239.23 168.644C235.15 169.064 231.53 166.374 227.85 165.084C226.67 164.674 224.35 164.414 223.82 163.104C223.54 162.414 224.24 162.354 224.78 162.224C225.45 162.064 226.11 161.924 226.71 161.594C227 161.434 227.11 160.934 226.82 160.704C225.22 159.424 222.92 157.634 222.58 155.484L222.18 156.184C222.35 156.164 222.52 156.154 222.69 156.134C223.41 156.054 223.41 154.924 222.69 155.004C222.42 155.034 222.15 155.044 221.88 155.094C221.56 155.154 221.44 155.514 221.48 155.794C221.85 158.154 224.27 160.114 226.01 161.514L226.12 160.624C225.07 161.194 222.83 161.004 222.6 162.534C222.31 164.454 224.69 165.284 226.09 165.734C228.21 166.414 230.19 167.354 232.25 168.224C234.43 169.154 236.81 170.034 239.22 169.784C239.62 169.744 239.96 169.324 239.71 168.934C238.02 166.314 235.37 164.494 233.03 162.494C232.99 162.794 232.95 163.084 232.92 163.384C233.52 162.954 234.4 162.884 235.1 162.734C235.83 162.574 236.63 162.434 237.3 162.064C238.65 161.314 238.16 159.854 236.99 159.224C235.51 158.414 233.59 158.134 231.98 157.704C229.11 156.934 226.2 156.274 223.34 155.464C222.64 155.264 222.34 156.364 223.04 156.554L223.03 156.544Z" fill="#030404"/>
<path d="M163.1 218.818C162.44 219.068 160.69 219.288 160.82 218.548C160.85 218.368 161.03 218.258 161.17 218.138C161.31 218.018 161.42 217.798 161.29 217.658C161.21 217.578 161.08 217.578 160.96 217.598C160.48 217.668 160.01 217.868 159.53 217.768C159.49 217.768 159.45 217.748 159.43 217.718C159.4 217.678 159.41 217.628 159.43 217.578C159.55 217.198 160 216.958 160.08 216.598C160.05 216.568 160.02 216.548 160 216.518C159.49 216.808 158.93 217.018 158.35 217.138C158.29 216.578 158.6 216.058 158.98 215.638C159 215.618 159.02 215.598 159.04 215.578C158.62 215.128 158.26 214.668 158 214.228C154.95 216.868 151.26 218.758 147.33 219.668C147.53 220.008 147.73 220.348 147.94 220.688C148.69 220.688 149.55 220.868 149.36 221.378C149.3 221.548 149.1 221.628 148.95 221.718C148.83 221.788 148.75 221.928 148.76 222.058C148.8 222.118 148.83 222.178 148.87 222.238C148.93 222.268 149.01 222.278 149.08 222.288C149.56 222.288 150.06 222.178 150.52 222.348C150.56 222.358 150.59 222.378 150.61 222.408C150.63 222.448 150.61 222.508 150.59 222.548C150.38 222.948 149.78 223.098 149.73 223.538C150.32 223.308 150.95 223.178 151.58 223.158C151.55 223.718 151.15 224.188 150.72 224.538C150.61 224.628 150.49 224.708 150.38 224.798C150.44 224.908 150.51 225.018 150.57 225.128C155.38 224.268 159.9 222.208 163.7 219.138C163.51 219.038 163.31 218.928 163.1 218.808V218.818Z" fill="#DD4C97"/>
<path d="M163.16 219.728L163.59 219.308C163.72 219.178 163.75 218.938 163.57 218.828C162.93 218.428 161.52 218.518 161.51 217.668C161.51 217.498 161.41 217.368 161.23 217.348C160.47 217.258 159.86 217.878 160.53 216.838C160.67 216.628 160.5 216.318 160.23 216.368C158.12 216.808 159.33 216.698 159.33 215.548C159.33 215.028 158.53 214.418 158.25 214.108C158.15 213.988 157.95 213.958 157.83 214.068C154.84 216.938 151.13 218.218 147.25 219.418C147.11 219.458 146.96 219.598 147.01 219.768C147.1 220.088 147.19 220.408 147.27 220.738C147.31 220.868 147.4 220.968 147.54 220.978C149.3 221.128 147.94 221.478 148.44 222.168C148.57 222.338 148.71 222.508 148.88 222.648C149.43 223.078 150.54 222.518 149.57 223.058C149.33 223.188 149.35 223.628 149.68 223.628C150.87 223.618 150.95 223.438 150.03 224.188C149.92 224.278 149.91 224.418 149.95 224.548C150.04 224.788 150.13 225.038 150.22 225.278C150.27 225.398 150.42 225.468 150.55 225.448C155.14 224.648 159.98 222.328 163.69 219.508C164 219.278 163.61 218.818 163.3 219.048C161.26 220.598 159.07 221.878 156.67 222.788C155.71 223.148 154.72 223.438 153.75 223.788C153.22 223.978 149.91 225.108 151.74 223.548C151.93 223.388 151.84 223.018 151.57 223.018C150.34 223.028 150.49 223.518 150.81 222.688C150.88 222.498 150.74 222.308 150.55 222.288C149.94 222.218 148.78 222.158 149.51 221.528C149.62 221.438 149.64 221.298 149.59 221.168C149.38 220.658 149.16 220.918 148.89 220.558C148.49 220.038 147.78 220.378 148.81 219.558C149.28 219.178 150.24 219.088 150.8 218.888C152.55 218.258 154.26 217.518 155.81 216.498C156.86 215.808 159.76 213.818 157.95 216.918C157.82 217.128 157.98 217.438 158.25 217.388C159.22 217.188 159.91 216.678 159.31 217.628C159.16 217.858 159.35 218.128 159.61 218.098C160.31 217.758 160.61 217.978 160.48 218.738C160.41 218.868 160.52 219.088 160.66 219.118C160.98 219.198 162.59 219.438 162.78 219.258C162.5 219.528 162.89 219.988 163.17 219.718L163.16 219.728Z" fill="#030404"/>
<path d="M311.247 74.366C310.786 74.5406 309.564 74.6943 309.654 74.1774C309.675 74.0516 309.801 73.9748 309.899 73.8909C309.997 73.8071 310.074 73.6534 309.983 73.5556C309.927 73.4997 309.836 73.4997 309.752 73.5137C309.417 73.5626 309.089 73.7023 308.753 73.6325C308.725 73.6325 308.697 73.6185 308.683 73.5975C308.662 73.5696 308.669 73.5347 308.683 73.4997C308.767 73.2343 309.082 73.0666 309.137 72.8151C309.116 72.7942 309.096 72.7802 309.082 72.7592C308.725 72.9618 308.334 73.1085 307.929 73.1924C307.887 72.8011 308.104 72.4379 308.369 72.1445C308.383 72.1305 308.397 72.1165 308.411 72.1026C308.118 71.7882 307.866 71.4668 307.684 71.1595C305.554 73.0037 302.976 74.3241 300.23 74.9598C300.37 75.1973 300.51 75.4348 300.657 75.6723C301.181 75.6723 301.781 75.7981 301.649 76.1544C301.607 76.2731 301.467 76.329 301.362 76.3919C301.278 76.4408 301.222 76.5386 301.229 76.6294C301.257 76.6713 301.278 76.7133 301.306 76.7552C301.348 76.7761 301.404 76.7831 301.453 76.7901C301.788 76.7901 302.138 76.7133 302.459 76.832C302.487 76.839 302.508 76.853 302.522 76.8739C302.536 76.9019 302.522 76.9438 302.508 76.9717C302.361 77.2512 301.942 77.356 301.907 77.6633C302.319 77.5027 302.759 77.4118 303.199 77.3979C303.178 77.7891 302.899 78.1174 302.599 78.3619C302.522 78.4248 302.438 78.4807 302.361 78.5436C302.403 78.6204 302.452 78.6972 302.494 78.7741C305.854 78.1733 309.012 76.7342 311.666 74.5895C311.534 74.5197 311.394 74.4428 311.247 74.359V74.366Z" fill="#DD4C97"/>
<path d="M311.289 75.0017L311.59 74.7083C311.68 74.6175 311.701 74.4498 311.576 74.373C311.128 74.0935 310.143 74.1564 310.136 73.5626C310.136 73.4438 310.067 73.353 309.941 73.339C309.41 73.2762 308.984 73.7093 309.452 72.9827C309.55 72.836 309.431 72.6195 309.242 72.6544C307.768 72.9618 308.613 72.885 308.613 72.0816C308.613 71.7183 308.055 71.2922 307.859 71.0756C307.789 70.9918 307.649 70.9708 307.566 71.0477C305.477 73.0526 302.885 73.9468 300.175 74.7851C300.077 74.8131 299.972 74.9109 300.007 75.0296C300.07 75.2532 300.133 75.4767 300.188 75.7073C300.216 75.7981 300.279 75.8679 300.377 75.8749C301.607 75.9797 300.657 76.2242 301.006 76.7063C301.097 76.825 301.194 76.9438 301.313 77.0416C301.697 77.342 302.473 76.9507 301.795 77.328C301.628 77.4188 301.642 77.7262 301.872 77.7262C302.703 77.7192 302.759 77.5935 302.117 78.1174C302.04 78.1803 302.033 78.2781 302.061 78.3689C302.124 78.5366 302.186 78.7112 302.249 78.8789C302.284 78.9627 302.389 79.0116 302.48 78.9976C305.686 78.4388 309.068 76.818 311.659 74.848C311.876 74.6873 311.603 74.366 311.387 74.5267C309.962 75.6095 308.432 76.5037 306.755 77.1394C306.085 77.3909 305.393 77.5935 304.715 77.838C304.345 77.9707 302.033 78.7601 303.311 77.6703C303.444 77.5585 303.381 77.3001 303.192 77.3001C302.333 77.307 302.438 77.6493 302.662 77.0695C302.71 76.9368 302.613 76.8041 302.48 76.7901C302.054 76.7412 301.243 76.6993 301.753 76.2591C301.83 76.1963 301.844 76.0985 301.809 76.0077C301.663 75.6514 301.509 75.833 301.32 75.5815C301.041 75.2182 300.545 75.4558 301.264 74.8829C301.593 74.6175 302.263 74.5546 302.655 74.4149C303.877 73.9748 305.072 73.4578 306.154 72.7452C306.888 72.2632 308.914 70.873 307.649 73.0386C307.559 73.1854 307.67 73.4019 307.859 73.367C308.537 73.2273 309.019 72.871 308.6 73.5346C308.495 73.6953 308.627 73.8839 308.809 73.863C309.298 73.6255 309.508 73.7792 309.417 74.3101C309.368 74.4009 309.445 74.5546 309.543 74.5755C309.766 74.6314 310.891 74.7991 311.024 74.6734C310.828 74.862 311.1 75.1833 311.296 74.9947L311.289 75.0017Z" fill="#030404"/>
<path d="M31.6826 54.8905C30.8757 55.1961 28.7363 55.4651 28.8952 54.5604C28.9319 54.3403 29.1519 54.2058 29.3231 54.0591C29.4942 53.9124 29.6287 53.6435 29.4698 53.4723C29.372 53.3745 29.2131 53.3745 29.0664 53.399C28.4795 53.4845 27.905 53.7291 27.3181 53.6068C27.2692 53.6068 27.2203 53.5823 27.1959 53.5457C27.1592 53.4968 27.1714 53.4356 27.1959 53.3745C27.3426 52.91 27.8927 52.6165 27.9905 52.1764C27.9538 52.1397 27.9172 52.1153 27.8927 52.0786C27.2692 52.4332 26.5846 52.6899 25.8756 52.8366C25.8022 52.152 26.1812 51.5163 26.6458 51.0028C26.6702 50.9784 26.6947 50.9539 26.7191 50.9295C26.2056 50.3793 25.7655 49.8169 25.4477 49.279C21.7189 52.5065 17.2078 54.8171 12.4032 55.9296C12.6477 56.3453 12.8922 56.7609 13.149 57.1766C14.0659 57.1766 15.1172 57.3966 14.8849 58.0201C14.8116 58.228 14.5671 58.3258 14.3837 58.4358C14.237 58.5214 14.1392 58.6925 14.1515 58.8515C14.2004 58.9248 14.237 58.9982 14.2859 59.0715C14.3593 59.1082 14.4571 59.1204 14.5426 59.1326C15.1295 59.1326 15.7407 58.9982 16.3031 59.206C16.352 59.2182 16.3887 59.2427 16.4131 59.2793C16.4376 59.3282 16.4131 59.4016 16.3887 59.4505C16.1319 59.9395 15.3984 60.1229 15.3373 60.6608C16.0586 60.3796 16.8288 60.2207 17.599 60.1962C17.5623 60.8809 17.0733 61.4555 16.5476 61.8834C16.4131 61.9934 16.2664 62.0912 16.132 62.2012C16.2053 62.3357 16.2909 62.4702 16.3642 62.6046C22.2446 61.5533 27.7705 59.0349 32.4161 55.2817C32.1838 55.1594 31.9393 55.0249 31.6826 54.8782V54.8905Z" fill="#DD4C97"/>
<path d="M31.7559 56.003L32.2816 55.4895C32.4406 55.3305 32.4772 55.0372 32.2572 54.9027C31.4748 54.4137 29.751 54.5237 29.7388 53.4845C29.7388 53.2767 29.6165 53.1178 29.3965 53.0933C28.4673 52.9833 27.7216 53.7412 28.5407 52.4698C28.7118 52.2131 28.504 51.8341 28.1739 51.8952C25.5944 52.4331 27.0736 52.2987 27.0736 50.8928C27.0736 50.2571 26.0956 49.5113 25.7533 49.1323C25.631 48.9856 25.3865 48.9489 25.2398 49.0834C21.5844 52.5921 17.0489 54.1569 12.3054 55.624C12.1343 55.6729 11.9509 55.844 12.012 56.0519C12.122 56.4431 12.2321 56.8343 12.3299 57.2377C12.3788 57.3967 12.4888 57.5189 12.66 57.5311C14.8116 57.7145 13.149 58.1424 13.7602 58.9859C13.9192 59.1938 14.0903 59.4016 14.2982 59.5728C14.9705 60.0985 16.3276 59.4138 15.1417 60.074C14.8483 60.2329 14.8727 60.7708 15.2762 60.7708C16.731 60.7586 16.8288 60.5385 15.7041 61.4555C15.5696 61.5655 15.5573 61.7367 15.6062 61.8956C15.7163 62.189 15.8263 62.4946 15.9363 62.788C15.9975 62.9347 16.1808 63.0203 16.3398 62.9959C21.9512 62.0178 27.8683 59.1815 32.4039 55.734C32.7829 55.4528 32.3061 54.8905 31.9271 55.1716C29.4331 57.0666 26.7558 58.6314 23.8217 59.7439C22.648 60.184 21.4378 60.5386 20.2519 60.9664C19.6039 61.1987 15.5573 62.5802 17.7946 60.673C18.0269 60.4774 17.9169 60.0251 17.5868 60.0251C16.0831 60.0373 16.2664 60.6364 16.6576 59.6216C16.7432 59.3894 16.572 59.1571 16.3398 59.1326C15.594 59.0471 14.1759 58.9737 15.0684 58.2035C15.2028 58.0935 15.2273 57.9223 15.1661 57.7634C14.9094 57.1399 14.6404 57.4578 14.3104 57.0176C13.8213 56.3819 12.9534 56.7976 14.2126 55.7951C14.7872 55.3305 15.9608 55.2205 16.6454 54.976C18.7848 54.2058 20.8754 53.3011 22.7703 52.0542C24.054 51.2106 27.5993 48.7778 25.3865 52.5676C25.2276 52.8244 25.4232 53.2034 25.7533 53.1422C26.9392 52.8977 27.7827 52.2742 27.0492 53.4356C26.8658 53.7168 27.0981 54.0469 27.4159 54.0102C28.2717 53.5946 28.6385 53.8635 28.4796 54.7927C28.394 54.9516 28.5285 55.2205 28.6996 55.2572C29.0908 55.355 31.0591 55.6484 31.2914 55.4284C30.9491 55.7584 31.4258 56.3208 31.7682 55.9907L31.7559 56.003Z" fill="#030404"/>
<path d="M301.354 18.53C301.574 17.85 301.754 17.16 301.964 16.49C302.744 14.05 303.844 11.75 304.874 9.41C305.234 8.59 305.684 7.91002 306.264 7.24002C306.594 6.86002 306.874 6.47001 307.154 6.04001C307.404 5.65001 307.654 5.35 307.934 5C308.094 5.12 308.124 5.39001 308.194 5.57001C308.374 6.05001 308.394 6.54001 308.464 7.04001C308.554 7.66001 308.694 8.27001 308.814 8.89001C308.884 9.26001 308.994 9.63001 309.144 9.98001C309.214 10.13 309.324 10.57 309.444 10.67C309.674 10.87 310.324 10.46 310.554 10.3C311.094 9.94002 311.624 9.52999 312.144 9.14999C312.654 8.76999 313.204 8.45002 313.704 8.05002C314.174 7.68002 314.594 7.42999 315.154 7.20999C315.484 7.07999 316.044 6.76001 316.024 7.29001C315.984 8.14001 315.394 9.16001 314.904 9.85001C314.164 10.88 313.374 11.89 312.514 12.82C311.714 13.69 310.974 14.58 310.114 15.4C309.794 15.71 309.574 16.03 309.334 16.4C308.984 16.92 308.474 17.32 308.044 17.77C307.674 18.15 307.304 18.47 306.874 18.79C306.664 18.94 306.544 19.12 306.294 19.17C306.014 19.23 306.034 19.17 306.004 18.9C305.884 17.9 305.934 16.91 306.094 15.92C305.824 16.16 305.554 16.44 305.294 16.69C304.904 17.06 304.484 17.37 304.074 17.73C303.484 18.24 302.874 18.74 302.234 19.19C301.834 19.47 301.214 18.89 301.334 18.53H301.354Z" fill="#DD4C97"/>
<path d="M301.384 18.71C302.624 15.25 303.744 11.72 305.274 8.36999C305.604 7.63999 305.984 6.92999 306.444 6.27999C306.734 5.85999 307.024 5.19999 307.574 5.74999C307.854 6.02999 307.924 6.55001 308.014 6.92001C308.194 7.68001 308.384 8.44001 308.554 9.20001C308.624 9.49001 308.644 9.96001 308.934 10.14C309.224 10.32 309.654 10.11 309.934 9.99001C310.594 9.69001 311.174 9.24 311.744 8.79C312.314 8.34 312.874 7.88001 313.424 7.42001C313.684 7.21001 314.974 6.16999 314.714 7.17999C314.584 7.69999 314.224 8.21001 313.964 8.67001C313.514 9.47001 312.994 10.23 312.464 10.98C311.534 12.31 310.654 13.7 309.634 14.97C309.094 15.64 308.504 16.27 307.804 16.77C307.644 16.88 307.184 17.26 306.944 17.18C306.734 17.12 306.724 16.85 306.714 16.66C306.654 15.77 307.004 14.85 306.774 13.97C306.744 13.85 306.634 13.81 306.524 13.83C305.574 13.98 304.754 15.08 304.164 15.74C303.304 16.69 302.424 18.07 301.144 18.45C300.894 18.53 300.994 18.92 301.254 18.85C302.474 18.48 303.254 17.36 304.074 16.46C304.464 16.03 304.854 15.58 305.274 15.17C305.644 14.8 306.104 14.3 306.644 14.22L306.394 14.08C306.634 15 306.184 15.98 306.344 16.91C306.534 17.97 307.514 17.5 308.114 17.06C309.474 16.09 310.424 14.68 311.354 13.32C312.454 11.7 313.634 10.14 314.594 8.42999C314.854 7.96999 315.774 6.33999 314.634 6.27999C314.114 6.24999 313.614 6.75001 313.244 7.05001C312.594 7.58001 311.954 8.12001 311.284 8.64001C310.884 8.95001 310.474 9.25001 310.024 9.49001C309.844 9.58001 309.584 9.77001 309.374 9.77001C309.084 9.77001 309.094 9.62999 309.034 9.39999C308.824 8.53999 308.624 7.67001 308.424 6.80001C308.284 6.21001 308.104 5.40999 307.524 5.08999C307.044 4.81999 306.724 5.21001 306.454 5.58001C305.144 7.35001 304.364 9.41999 303.574 11.47C302.664 13.82 301.854 16.21 301.014 18.59C300.924 18.84 301.324 18.95 301.414 18.7L301.384 18.71Z" fill="#030404"/>
<path d="M315.669 252.72C315.06 251.717 314.302 249.781 313.243 249.291C313.069 250.366 313.686 252.523 313.038 253.463C312.461 254.3 310.28 254.482 309.293 254.869C310.193 255.146 312.026 255.43 312.413 256.292C312.706 256.939 312.074 258.962 312.003 259.721C312.548 259.286 313.757 257.524 314.381 257.564C315.179 257.611 315.993 259.681 316.72 260.013C316.72 259.033 316.451 257.982 316.554 256.987C318.11 256.876 319.485 256.687 321.002 256.339C320.449 255.612 319.216 254.925 318.505 254.316C319.185 253.866 319.469 253.02 319.888 252.333C319.343 252.483 317.929 253.194 317.47 252.91C316.925 252.562 317.099 251.243 316.743 250.777C316.167 251.432 315.511 252.254 315.163 253.028" fill="#030404"/>
<path d="M315.93 252.57C315.226 251.393 314.697 249.702 313.401 249.038C313.18 248.928 312.982 249.07 312.951 249.299C312.856 249.978 312.974 250.674 313.022 251.353C313.061 251.954 313.18 252.831 312.769 253.337C312.398 253.803 311.639 253.953 311.094 254.087C310.47 254.253 309.822 254.356 309.213 254.585C308.945 254.688 308.913 255.075 309.213 255.162C310.004 255.399 311.995 255.58 312.176 256.584C312.271 257.113 312.082 257.73 311.979 258.243C311.876 258.757 311.758 259.215 311.702 259.713C311.671 259.997 312.042 260.076 312.216 259.926C312.611 259.594 312.935 259.16 313.283 258.773C313.535 258.488 314.049 257.761 314.484 257.888C314.95 258.022 315.345 258.859 315.606 259.231C315.874 259.61 316.151 260.037 316.577 260.258C316.775 260.361 317.036 260.234 317.028 259.997C317.004 258.986 316.783 257.99 316.862 256.971L316.562 257.271C318.087 257.161 319.596 256.955 321.089 256.616C321.326 256.56 321.358 256.276 321.223 256.11C320.544 255.272 319.548 254.767 318.727 254.087L318.663 254.561C319.39 254.024 319.706 253.226 320.157 252.475C320.291 252.254 320.07 251.962 319.817 252.033C319.485 252.128 319.169 252.27 318.845 252.388C318.561 252.491 317.968 252.776 317.668 252.641C317.36 252.507 317.344 251.875 317.304 251.59C317.249 251.251 317.202 250.903 317.012 250.611C316.917 250.46 316.672 250.397 316.538 250.547C315.922 251.258 315.313 252.001 314.91 252.862C314.744 253.21 315.266 253.518 315.432 253.163C315.819 252.349 316.38 251.646 316.965 250.974L316.491 250.911C316.909 251.575 316.546 252.839 317.431 253.202C318.197 253.518 319.256 252.823 319.975 252.61C319.864 252.459 319.746 252.317 319.635 252.167C319.256 252.807 318.979 253.581 318.363 254.04C318.221 254.142 318.142 254.379 318.3 254.514C319.122 255.193 320.117 255.699 320.797 256.536L320.931 256.031C319.493 256.355 318.039 256.56 316.562 256.671C316.388 256.687 316.277 256.797 316.261 256.971C316.19 257.982 316.404 258.986 316.427 259.997C316.577 259.91 316.728 259.823 316.878 259.736C316.285 259.428 315.945 258.63 315.558 258.117C315.282 257.753 314.894 257.256 314.389 257.248C313.899 257.232 313.456 257.714 313.148 258.03C312.69 258.504 312.303 259.065 311.797 259.492L312.311 259.705C312.39 259.041 312.587 258.393 312.698 257.737C312.777 257.24 312.903 256.639 312.698 256.157C312.216 255.027 310.399 254.869 309.387 254.561V255.138C310.573 254.703 312.437 254.743 313.267 253.653C314.168 252.467 313.377 250.618 313.559 249.267L313.109 249.528C314.294 250.137 314.784 251.764 315.424 252.847C315.621 253.178 316.143 252.878 315.945 252.546L315.93 252.57Z" fill="#030404"/>
<path d="M8.44018 320.708C7.67018 319.438 6.71018 316.988 5.37018 316.368C5.15018 317.728 5.93018 320.458 5.11018 321.648C4.38018 322.708 1.62018 322.938 0.370178 323.428C1.51018 323.778 3.83018 324.138 4.32018 325.228C4.69018 326.048 3.89018 328.608 3.80018 329.568C4.49018 329.018 6.02018 326.788 6.81018 326.838C7.82018 326.898 8.85018 329.518 9.77018 329.938C9.77018 328.698 9.43018 327.368 9.56018 326.108C11.5302 325.968 13.2702 325.728 15.1902 325.288C14.4902 324.368 12.9302 323.498 12.0302 322.728C12.8902 322.158 13.2502 321.088 13.7802 320.218C13.0902 320.408 11.3002 321.308 10.7202 320.948C10.0302 320.508 10.2502 318.838 9.80018 318.248C9.07018 319.078 8.24018 320.118 7.80018 321.098" fill="#030404"/>
<path d="M8.77021 320.518C7.88021 319.028 7.21021 316.888 5.57021 316.048C5.29021 315.908 5.04021 316.088 5.00021 316.378C4.88021 317.238 5.03021 318.118 5.09021 318.978C5.14021 319.738 5.29021 320.848 4.77021 321.488C4.30021 322.078 3.34021 322.268 2.65021 322.438C1.86021 322.648 1.04021 322.778 0.270208 323.068C-0.069792 323.198 -0.109792 323.688 0.270208 323.798C1.27021 324.098 3.79021 324.328 4.02021 325.598C4.14021 326.268 3.90021 327.048 3.77021 327.698C3.64021 328.348 3.49021 328.928 3.42021 329.558C3.38021 329.918 3.85021 330.018 4.07021 329.828C4.57021 329.408 4.98021 328.858 5.42021 328.368C5.74021 328.008 6.39021 327.088 6.94021 327.248C7.53021 327.418 8.03021 328.478 8.36021 328.948C8.70021 329.428 9.05021 329.968 9.59021 330.248C9.84021 330.378 10.1702 330.218 10.1602 329.918C10.1302 328.638 9.85021 327.378 9.95021 326.088L9.57021 326.468C11.5002 326.328 13.4102 326.068 15.3002 325.638C15.6002 325.568 15.6402 325.208 15.4702 324.998C14.6102 323.938 13.3502 323.298 12.3102 322.438L12.2302 323.038C13.1502 322.358 13.5502 321.348 14.1202 320.398C14.2902 320.118 14.0102 319.748 13.6902 319.838C13.2702 319.958 12.8702 320.138 12.4602 320.288C12.1002 320.418 11.3502 320.778 10.9702 320.608C10.5802 320.438 10.5602 319.638 10.5102 319.278C10.4402 318.848 10.3802 318.408 10.1402 318.038C10.0202 317.848 9.71021 317.768 9.54021 317.958C8.76021 318.858 7.99021 319.798 7.48021 320.888C7.27021 321.328 7.93021 321.718 8.14021 321.268C8.63021 320.238 9.34021 319.348 10.0802 318.498L9.48021 318.418C10.0102 319.258 9.55021 320.858 10.6702 321.318C11.6402 321.718 12.9802 320.838 13.8902 320.568C13.7502 320.378 13.6002 320.198 13.4602 320.008C12.9802 320.818 12.6302 321.798 11.8502 322.378C11.6702 322.508 11.5702 322.808 11.7702 322.978C12.8102 323.838 14.0702 324.478 14.9302 325.538L15.1002 324.898C13.2802 325.308 11.4402 325.568 9.57021 325.708C9.35021 325.728 9.21021 325.868 9.19021 326.088C9.10021 327.368 9.37021 328.638 9.40021 329.918C9.59021 329.808 9.78021 329.698 9.97021 329.588C9.22021 329.198 8.79021 328.188 8.30021 327.538C7.95021 327.078 7.46021 326.448 6.82021 326.438C6.20021 326.418 5.64021 327.028 5.25021 327.428C4.67021 328.028 4.18021 328.738 3.54021 329.278L4.19021 329.548C4.29021 328.708 4.54021 327.888 4.68021 327.058C4.78021 326.428 4.94021 325.668 4.68021 325.058C4.07021 323.628 1.77021 323.428 0.490208 323.038V323.768C1.99021 323.218 4.35021 323.268 5.40021 321.888C6.54021 320.388 5.54021 318.048 5.77021 316.338L5.20021 316.668C6.70021 317.438 7.32021 319.498 8.13021 320.868C8.38021 321.288 9.04021 320.908 8.79021 320.488L8.77021 320.518Z" fill="#030404"/>
<path d="M84.9555 16.7284C85.1355 14.7684 84.9655 12.7284 85.8655 10.9084C86.6955 9.22845 88.3755 8.09844 90.1055 7.47844C90.6055 7.29844 90.4155 6.55845 89.8855 6.67845C85.6855 7.66845 83.0355 4.01845 82.3555 0.298447C82.2555 -0.231553 81.4855 0.00844806 81.5555 0.518448C81.8755 2.83845 82.0755 5.35844 80.4755 7.27844C79.8755 7.99844 79.1055 8.53845 78.2555 8.90845C77.6255 9.18845 76.4455 9.24845 76.0555 9.81845C75.9155 10.0185 76.0555 10.3885 76.3055 10.4285C78.0355 10.7085 79.9155 10.9885 81.3355 12.0984C82.0655 12.6684 82.7355 13.3784 83.1855 14.1984C83.6455 15.0284 83.8355 15.9685 84.2655 16.8185C84.5055 17.2885 85.2255 16.8785 84.9855 16.3985C84.4855 15.4385 84.2955 14.3584 83.7055 13.4484C83.2055 12.6784 82.5555 12.0084 81.8355 11.4484C80.3155 10.2584 78.3755 9.92844 76.5255 9.63844L76.7755 10.2484C76.8155 10.1884 77.8055 9.97844 78.0655 9.88844C78.5455 9.70844 79.0255 9.49844 79.4655 9.22844C80.3155 8.71844 81.0255 8.02845 81.5755 7.20845C82.9355 5.14845 82.6955 2.62844 82.3755 0.308441C82.1055 0.378441 81.8455 0.458443 81.5755 0.528443C81.9355 2.47844 82.7655 4.43844 84.1755 5.86844C85.7755 7.49844 87.9255 8.00845 90.1255 7.48845L89.9055 6.68845C88.0555 7.34845 86.2555 8.51844 85.2855 10.2784C84.1855 12.2784 84.3555 14.5284 84.1555 16.7284C84.1055 17.2584 84.9355 17.2584 84.9855 16.7284H84.9555Z" fill="#030404"/>
<path d="M148.956 179.728C149.136 177.768 148.966 175.728 149.866 173.908C150.696 172.228 152.376 171.098 154.106 170.478C154.606 170.298 154.416 169.558 153.886 169.678C149.686 170.668 147.036 167.018 146.356 163.298C146.256 162.768 145.486 163.008 145.556 163.518C145.876 165.838 146.076 168.358 144.476 170.278C143.876 170.998 143.106 171.538 142.256 171.908C141.626 172.188 140.446 172.248 140.056 172.818C139.916 173.018 140.056 173.388 140.306 173.428C142.036 173.708 143.916 173.988 145.336 175.098C146.066 175.668 146.736 176.378 147.186 177.198C147.646 178.028 147.836 178.968 148.266 179.818C148.506 180.288 149.226 179.878 148.986 179.398C148.486 178.438 148.296 177.358 147.706 176.448C147.206 175.678 146.556 175.008 145.836 174.448C144.316 173.258 142.376 172.928 140.526 172.638L140.776 173.248C140.816 173.188 141.806 172.978 142.066 172.888C142.546 172.708 143.026 172.498 143.466 172.228C144.316 171.718 145.026 171.028 145.576 170.208C146.936 168.148 146.696 165.628 146.376 163.308C146.106 163.378 145.846 163.458 145.576 163.528C145.936 165.478 146.766 167.438 148.176 168.868C149.776 170.498 151.926 171.008 154.126 170.488L153.906 169.688C152.056 170.348 150.256 171.518 149.286 173.278C148.186 175.278 148.356 177.528 148.156 179.728C148.106 180.258 148.936 180.258 148.986 179.728H148.956Z" fill="#030404"/>
<path d="M241.654 205.559C242.024 205.809 242.774 206.639 242.344 206.839C242.234 206.889 242.114 206.839 242.004 206.799C241.894 206.769 241.734 206.799 241.714 206.909C241.704 206.979 241.754 207.049 241.804 207.099C242.014 207.319 242.294 207.499 242.414 207.779C242.414 207.799 242.434 207.829 242.424 207.849C242.424 207.879 242.384 207.899 242.354 207.899C242.114 207.969 241.824 207.829 241.604 207.919C241.604 207.939 241.604 207.969 241.604 207.989C241.944 208.149 242.254 208.369 242.524 208.619C242.254 208.849 241.864 208.879 241.514 208.839C241.494 208.839 241.474 208.839 241.464 208.839C241.374 209.219 241.274 209.579 241.144 209.869C243.624 210.489 245.954 211.729 247.854 213.439C247.954 213.209 248.064 212.979 248.164 212.749C247.894 212.349 247.674 211.849 248.004 211.759C248.114 211.729 248.224 211.799 248.334 211.849C248.414 211.889 248.514 211.879 248.584 211.829C248.604 211.789 248.624 211.749 248.634 211.709C248.634 211.669 248.604 211.619 248.584 211.579C248.414 211.329 248.164 211.109 248.094 210.809C248.094 210.789 248.084 210.759 248.094 210.739C248.104 210.709 248.144 210.699 248.174 210.699C248.454 210.659 248.754 210.919 249.004 210.789C248.674 210.569 248.374 210.289 248.134 209.969C248.434 209.779 248.824 209.819 249.164 209.919C249.254 209.939 249.334 209.979 249.424 210.009C249.454 209.939 249.494 209.859 249.524 209.789C247.324 207.599 244.614 205.999 241.634 205.139C241.654 205.269 241.664 205.419 241.684 205.569L241.654 205.559Z" fill="#DD4C97"/>
<path d="M242.114 205.199L241.744 205.129C241.634 205.109 241.494 205.179 241.504 205.309C241.534 205.789 242.084 206.489 241.654 206.809C241.564 206.869 241.534 206.969 241.584 207.069C241.814 207.499 242.354 207.589 241.584 207.619C241.424 207.619 241.324 207.829 241.454 207.949C242.494 208.939 241.994 208.229 241.384 208.709C241.094 208.929 241.084 209.479 241.004 209.799C240.984 209.889 241.034 210.009 241.134 210.029C243.704 210.529 245.734 212.019 247.764 213.589C247.864 213.669 247.984 213.659 248.064 213.549C248.194 213.399 248.314 213.249 248.444 213.099C248.504 213.039 248.514 212.939 248.474 212.869C247.954 211.959 248.554 212.449 248.784 211.949C248.844 211.819 248.854 211.679 248.854 211.539C248.854 211.059 248.124 210.719 248.814 211.059C248.964 211.129 249.194 210.969 249.074 210.799C248.634 210.189 248.504 210.209 249.234 210.409C249.324 210.429 249.404 210.389 249.454 210.319C249.544 210.189 249.644 210.049 249.734 209.919C249.784 209.849 249.764 209.749 249.704 209.689C247.624 207.599 244.634 205.899 241.834 205.009C241.604 204.939 241.504 205.299 241.734 205.379C243.284 205.879 244.744 206.549 246.084 207.469C246.664 207.859 247.204 208.299 247.774 208.699C248.114 208.939 249.684 210.129 248.274 209.759C248.124 209.719 247.954 209.899 248.054 210.039C248.284 210.359 248.504 210.669 248.734 210.989L248.994 210.729C248.684 210.579 248.414 210.359 248.114 210.569C248.044 210.619 248.014 210.699 248.024 210.789C248.084 211.119 248.694 211.829 248.024 211.649C247.944 211.629 247.854 211.669 247.804 211.739C247.514 212.199 247.954 212.239 247.914 212.709C247.854 213.619 246.884 212.449 246.444 212.129C245.484 211.429 244.474 210.769 243.374 210.309C243.024 210.159 242.644 210.069 242.294 209.919C241.944 209.919 241.664 209.769 241.454 209.509C241.724 209.079 242.094 208.889 242.564 208.939C242.724 208.929 242.824 208.739 242.694 208.609C242.314 208.249 241.604 207.999 242.434 207.969C242.604 207.969 242.684 207.769 242.564 207.639C242.134 207.399 242.134 207.169 242.574 206.949C242.664 206.939 242.744 206.799 242.704 206.719C242.624 206.519 242.164 205.599 242.004 205.569C242.244 205.619 242.344 205.249 242.104 205.199H242.114Z" fill="#030404"/>
<path d="M309.389 179.567C307.837 183.612 314.123 186.039 315.686 181.987C317.238 177.942 310.952 175.515 309.389 179.567Z" fill="white"/>
<path d="M303.718 188.388C303.251 189.606 305.137 190.339 305.604 189.121C306.072 187.903 304.186 187.171 303.718 188.388Z" fill="white"/>
<path d="M303.195 177.189C302.728 178.406 304.614 179.139 305.081 177.921C305.549 176.704 303.663 175.971 303.195 177.189Z" fill="white"/>
</svg>
