<svg width="276" height="69" viewBox="0 0 276 69" fill="none" xmlns="http://www.w3.org/2000/svg">
<path d="M83.9555 16.7284C84.1355 14.7684 83.9655 12.7284 84.8655 10.9084C85.6955 9.22845 87.3755 8.09844 89.1055 7.47844C89.6055 7.29844 89.4155 6.55845 88.8855 6.67845C84.6855 7.66845 82.0355 4.01845 81.3555 0.298447C81.2555 -0.231553 80.4855 0.00844806 80.5555 0.518448C80.8755 2.83845 81.0755 5.35844 79.4755 7.27844C78.8755 7.99844 78.1055 8.53845 77.2555 8.90845C76.6255 9.18845 75.4455 9.24845 75.0555 9.81845C74.9155 10.0185 75.0555 10.3885 75.3055 10.4285C77.0355 10.7085 78.9155 10.9885 80.3355 12.0984C81.0655 12.6684 81.7355 13.3784 82.1855 14.1984C82.6455 15.0284 82.8355 15.9685 83.2655 16.8185C83.5055 17.2885 84.2255 16.8785 83.9855 16.3985C83.4855 15.4385 83.2955 14.3584 82.7055 13.4484C82.2055 12.6784 81.5555 12.0084 80.8355 11.4484C79.3155 10.2584 77.3755 9.92844 75.5255 9.63844L75.7755 10.2484C75.8155 10.1884 76.8055 9.97844 77.0655 9.88844C77.5455 9.70844 78.0255 9.49844 78.4655 9.22844C79.3155 8.71844 80.0255 8.02845 80.5755 7.20845C81.9355 5.14845 81.6955 2.62844 81.3755 0.308441C81.1055 0.378441 80.8455 0.458443 80.5755 0.528443C80.9355 2.47844 81.7655 4.43844 83.1755 5.86844C84.7755 7.49844 86.9255 8.00845 89.1255 7.48845L88.9055 6.68845C87.0555 7.34845 85.2555 8.51844 84.2855 10.2784C83.1855 12.2784 83.3555 14.5284 83.1555 16.7284C83.1055 17.2584 83.9355 17.2584 83.9855 16.7284H83.9555Z" fill="#030404"/>
<path d="M275.121 59.1239C274.419 59.3897 272.558 59.6237 272.697 58.8368C272.728 58.6453 272.92 58.5284 273.069 58.4008C273.218 58.2731 273.335 58.0392 273.196 57.8903C273.111 57.8052 272.973 57.8052 272.845 57.8265C272.335 57.9009 271.835 58.1136 271.325 58.0073C271.282 58.0073 271.24 57.986 271.218 57.9541C271.186 57.9116 271.197 57.8584 271.218 57.8052C271.346 57.4011 271.824 57.1459 271.91 56.763C271.878 56.7311 271.846 56.7099 271.824 56.678C271.282 56.9864 270.687 57.2097 270.07 57.3373C270.006 56.7418 270.336 56.1888 270.74 55.7422C270.761 55.7209 270.782 55.6996 270.804 55.6784C270.357 55.1998 269.974 54.7106 269.698 54.2427C266.454 57.0502 262.53 59.0601 258.351 60.0278C258.563 60.3894 258.776 60.7509 258.999 61.1125C259.797 61.1125 260.712 61.3039 260.509 61.8463C260.446 62.0271 260.233 62.1121 260.073 62.2078C259.946 62.2823 259.861 62.4312 259.871 62.5694C259.914 62.6332 259.946 62.697 259.988 62.7609C260.052 62.7928 260.137 62.8034 260.212 62.814C260.722 62.814 261.254 62.697 261.743 62.8778C261.786 62.8885 261.818 62.9097 261.839 62.9416C261.86 62.9842 261.839 63.048 261.818 63.0905C261.594 63.5159 260.956 63.6754 260.903 64.1433C261.53 63.8987 262.2 63.7605 262.87 63.7392C262.838 64.3347 262.413 64.8345 261.956 65.2067C261.839 65.3025 261.711 65.3875 261.594 65.4833C261.658 65.6002 261.732 65.7172 261.796 65.8342C266.911 64.9196 271.718 62.7289 275.759 59.4642C275.557 59.3578 275.344 59.2409 275.121 59.1132V59.1239Z" fill="#DD4C97"/>
<path d="M275.185 60.0916L275.642 59.645C275.78 59.5067 275.812 59.2515 275.621 59.1345C274.94 58.7092 273.441 58.8049 273.43 57.9009C273.43 57.7201 273.324 57.5819 273.133 57.5606C272.324 57.4649 271.676 58.1242 272.388 57.0183C272.537 56.7949 272.356 56.4653 272.069 56.5184C269.825 56.9864 271.112 56.8694 271.112 55.6465C271.112 55.0935 270.261 54.4448 269.963 54.1151C269.857 53.9875 269.644 53.9556 269.517 54.0726C266.337 57.1246 262.392 58.4858 258.266 59.762C258.117 59.8045 257.957 59.9534 258.01 60.1342C258.106 60.4745 258.202 60.8148 258.287 61.1657C258.329 61.3039 258.425 61.4103 258.574 61.4209C260.446 61.5804 258.999 61.9526 259.531 62.6864C259.669 62.8672 259.818 63.048 259.999 63.1969C260.584 63.6541 261.764 63.0586 260.733 63.6328C260.478 63.7711 260.499 64.239 260.85 64.239C262.115 64.2284 262.2 64.037 261.222 64.8345C261.105 64.9302 261.094 65.0791 261.137 65.2174C261.233 65.4726 261.328 65.7385 261.424 65.9937C261.477 66.1213 261.637 66.1957 261.775 66.1745C266.656 65.3237 271.803 62.8566 275.749 59.8577C276.078 59.6131 275.664 59.1239 275.334 59.3685C273.164 61.0168 270.835 62.378 268.283 63.3457C267.262 63.7286 266.21 64.037 265.178 64.4092C264.614 64.6112 261.094 65.8129 263.04 64.154C263.243 63.9838 263.147 63.5903 262.86 63.5903C261.552 63.601 261.711 64.122 262.052 63.2394C262.126 63.0373 261.977 62.8353 261.775 62.814C261.126 62.7396 259.893 62.6758 260.669 62.0058C260.786 61.9101 260.807 61.7612 260.754 61.623C260.531 61.0806 260.297 61.3571 260.01 60.9743C259.584 60.4213 258.829 60.7828 259.925 59.9108C260.424 59.5067 261.445 59.411 262.041 59.1983C263.902 58.5284 265.72 57.7414 267.369 56.6567C268.485 55.9229 271.569 53.8067 269.644 57.1034C269.506 57.3267 269.676 57.6563 269.963 57.6032C270.995 57.3905 271.729 56.8481 271.091 57.8584C270.931 58.103 271.133 58.3901 271.41 58.3582C272.154 57.9966 272.473 58.2306 272.335 59.0388C272.261 59.1771 272.377 59.411 272.526 59.4429C272.867 59.528 274.579 59.7832 274.781 59.5918C274.483 59.8789 274.898 60.3681 275.196 60.081L275.185 60.0916Z" fill="#030404"/>
<path d="M10.8731 48.5219C7.68082 51.499 12.281 56.3524 15.4863 53.3736C18.6785 50.3966 14.0783 45.5431 10.8731 48.5219Z" fill="white"/>
<path d="M1.93213 53.9855C0.97085 54.8817 2.3488 56.3419 3.31008 55.4457C4.27136 54.5495 2.89342 53.0892 1.93213 53.9855Z" fill="white"/>
<path d="M6.3227 43.6689C5.36141 44.5651 6.73936 46.0254 7.70064 45.1292C8.66193 44.2329 7.28398 42.7727 6.3227 43.6689Z" fill="white"/>
<path d="M150.922 58.5802C151.517 58.1916 152.087 57.7701 152.668 57.383C154.795 55.9827 157.087 54.8927 159.349 53.7276C160.141 53.3187 160.916 53.0751 161.787 52.9212C162.282 52.8346 162.744 52.7087 163.231 52.5518C163.669 52.4069 164.052 52.3319 164.489 52.237C164.54 52.4309 164.395 52.6592 164.338 52.8429C164.182 53.3285 163.893 53.721 163.637 54.1528C163.323 54.6902 163.053 55.2514 162.762 55.8078C162.587 56.1388 162.444 56.495 162.344 56.8609C162.306 57.0213 162.119 57.4318 162.151 57.585C162.207 57.885 162.972 57.9768 163.251 57.9978C163.899 58.059 164.569 58.0751 165.213 58.1083C165.849 58.1351 166.479 58.2336 167.12 58.2386C167.719 58.248 168.203 58.3189 168.779 58.5013C169.119 58.6085 169.757 58.7133 169.412 59.1117C168.853 59.7455 167.756 60.1645 166.943 60.3906C165.723 60.7228 164.476 61.008 163.223 61.187C162.055 61.3573 160.922 61.581 159.738 61.6747C159.294 61.7134 158.923 61.8228 158.505 61.9584C157.907 62.141 157.259 62.1297 156.642 62.2076C156.116 62.269 155.627 62.2839 155.091 62.261C154.833 62.2449 154.627 62.3089 154.399 62.19C154.143 62.0601 154.196 62.0262 154.34 61.7979C154.867 60.9469 155.521 60.2109 156.262 59.5441C155.901 59.56 155.515 59.6069 155.156 59.6369C154.62 59.6779 154.098 59.6536 153.553 59.6743C152.773 59.6979 151.984 59.701 151.202 59.6466C150.715 59.6115 150.589 58.7711 150.906 58.5676L150.922 58.5802Z" fill="#DD4C97"/>
<path d="M150.837 58.7403C153.959 56.8391 157.031 54.808 160.312 53.1749C161.024 52.8169 161.764 52.5059 162.528 52.2919C163.017 52.149 163.654 51.8201 163.744 52.5932C163.79 52.9868 163.521 53.4341 163.362 53.7777C163.031 54.4804 162.708 55.1895 162.369 55.8859C162.244 56.1549 161.968 56.5319 162.084 56.8543C162.199 57.1766 162.667 57.2848 162.961 57.3683C163.665 57.5517 164.4 57.5683 165.126 57.5787C165.853 57.5891 166.578 57.5854 167.295 57.5754C167.63 57.5764 169.288 57.5831 168.456 58.2024C168.031 58.5236 167.432 58.6921 166.942 58.8849C166.092 59.2216 165.212 59.4831 164.331 59.7306C162.775 60.1756 161.221 60.6987 159.632 61.0405C158.792 61.2196 157.938 61.3362 157.078 61.2827C156.884 61.2672 156.288 61.2718 156.149 61.0585C156.022 60.8796 156.181 60.664 156.292 60.5104C156.797 59.7825 157.644 59.2897 158.01 58.4625C158.061 58.3505 157.999 58.2502 157.901 58.1963C157.062 57.7139 155.736 58.0499 154.863 58.1898C153.598 58.3843 152.05 58.8996 150.81 58.3875C150.564 58.2919 150.401 58.6573 150.648 58.7669C151.835 59.249 153.143 58.8723 154.345 58.6913C154.918 58.6037 155.503 58.5006 156.088 58.4474C156.608 58.3938 157.279 58.296 157.752 58.5744L157.643 58.3082C157.26 59.1728 156.298 59.6491 155.846 60.471C155.337 61.4126 156.397 61.6659 157.141 61.7029C158.811 61.8081 160.432 61.3136 162.006 60.8453C163.876 60.2825 165.77 59.8167 167.586 59.0959C168.075 58.9031 169.81 58.2192 168.953 57.4541C168.564 57.1031 167.861 57.1756 167.384 57.175C166.545 57.1763 165.707 57.1916 164.859 57.1724C164.352 57.1607 163.844 57.1349 163.342 57.0373C163.145 56.9937 162.823 56.9771 162.658 56.8447C162.431 56.6619 162.526 56.5597 162.622 56.3435C162.991 55.5443 163.375 54.7437 163.758 53.9431C164.015 53.3974 164.371 52.6636 164.115 52.0499C163.906 51.538 163.413 51.6387 162.971 51.7554C160.844 52.3021 158.946 53.4155 157.053 54.5071C154.879 55.7556 152.759 57.0982 150.621 58.4141C150.395 58.5512 150.641 58.8886 150.867 58.7515L150.837 58.7403Z" fill="#030404"/>
<path d="M211.654 0.55896C212.024 0.80896 212.774 1.63896 212.344 1.83896C212.234 1.88896 212.114 1.83895 212.004 1.79895C211.894 1.76895 211.734 1.79897 211.714 1.90897C211.704 1.97897 211.754 2.04897 211.804 2.09897C212.014 2.31897 212.294 2.49896 212.414 2.77896C212.414 2.79896 212.434 2.82897 212.424 2.84897C212.424 2.87897 212.384 2.89896 212.354 2.89896C212.114 2.96896 211.824 2.82898 211.604 2.91898C211.604 2.93898 211.604 2.96895 211.604 2.98895C211.944 3.14895 212.254 3.36896 212.524 3.61896C212.254 3.84896 211.864 3.87896 211.514 3.83896C211.494 3.83896 211.474 3.83896 211.464 3.83896C211.374 4.21896 211.274 4.57896 211.144 4.86896C213.624 5.48896 215.954 6.72896 217.854 8.43896C217.954 8.20897 218.064 7.97896 218.164 7.74896C217.894 7.34896 217.674 6.84897 218.004 6.75897C218.114 6.72897 218.224 6.79897 218.334 6.84897C218.414 6.88897 218.514 6.87895 218.584 6.82895C218.604 6.78895 218.624 6.74895 218.634 6.70895C218.634 6.66895 218.604 6.61895 218.584 6.57895C218.414 6.32895 218.164 6.10896 218.094 5.80896C218.094 5.78896 218.084 5.75895 218.094 5.73895C218.104 5.70895 218.144 5.69897 218.174 5.69897C218.454 5.65897 218.754 5.91897 219.004 5.78897C218.674 5.56897 218.374 5.28896 218.134 4.96896C218.434 4.77896 218.824 4.81898 219.164 4.91898C219.254 4.93898 219.334 4.97897 219.424 5.00897C219.454 4.93897 219.494 4.85897 219.524 4.78897C217.324 2.59897 214.614 0.998977 211.634 0.138977C211.654 0.268977 211.664 0.41897 211.684 0.56897L211.654 0.55896Z" fill="#DD4C97"/>
<path d="M212.114 0.198977L211.744 0.128969C211.634 0.108969 211.494 0.178962 211.504 0.308962C211.534 0.788962 212.084 1.48896 211.654 1.80896C211.564 1.86896 211.534 1.96897 211.584 2.06897C211.814 2.49897 212.354 2.58896 211.584 2.61896C211.424 2.61896 211.324 2.82898 211.454 2.94898C212.494 3.93898 211.994 3.22896 211.384 3.70896C211.094 3.92896 211.084 4.47895 211.004 4.79895C210.984 4.88895 211.034 5.00896 211.134 5.02896C213.704 5.52896 215.734 7.01896 217.764 8.58896C217.864 8.66896 217.984 8.65895 218.064 8.54895C218.194 8.39895 218.314 8.24897 218.444 8.09897C218.504 8.03897 218.514 7.93896 218.474 7.86896C217.954 6.95896 218.554 7.44898 218.784 6.94898C218.844 6.81898 218.854 6.67897 218.854 6.53897C218.854 6.05897 218.124 5.71896 218.814 6.05896C218.964 6.12896 219.194 5.96895 219.074 5.79895C218.634 5.18895 218.504 5.20897 219.234 5.40897C219.324 5.42897 219.404 5.38897 219.454 5.31897C219.544 5.18897 219.644 5.04898 219.734 4.91898C219.784 4.84898 219.764 4.74897 219.704 4.68897C217.624 2.59897 214.634 0.898974 211.834 0.00897426C211.604 -0.0610257 211.504 0.298969 211.734 0.378969C213.284 0.878969 214.744 1.54897 216.084 2.46897C216.664 2.85897 217.204 3.29898 217.774 3.69898C218.114 3.93898 219.684 5.12897 218.274 4.75897C218.124 4.71897 217.954 4.89897 218.054 5.03897C218.284 5.35897 218.504 5.66895 218.734 5.98895L218.994 5.72898C218.684 5.57898 218.414 5.35897 218.114 5.56897C218.044 5.61897 218.014 5.69897 218.024 5.78897C218.084 6.11897 218.694 6.82896 218.024 6.64896C217.944 6.62896 217.854 6.66895 217.804 6.73895C217.514 7.19895 217.954 7.23896 217.914 7.70896C217.854 8.61896 216.884 7.44897 216.444 7.12897C215.484 6.42897 214.474 5.76896 213.374 5.30896C213.024 5.15896 212.644 5.06898 212.294 4.91898C211.944 4.91898 211.664 4.76897 211.454 4.50897C211.724 4.07897 212.094 3.88897 212.564 3.93897C212.724 3.92897 212.824 3.73898 212.694 3.60898C212.314 3.24898 211.604 2.99897 212.434 2.96897C212.604 2.96897 212.684 2.76898 212.564 2.63898C212.134 2.39898 212.134 2.16898 212.574 1.94898C212.664 1.93898 212.744 1.79897 212.704 1.71897C212.624 1.51897 212.164 0.598972 212.004 0.568972C212.244 0.618972 212.344 0.248977 212.104 0.198977H212.114Z" fill="#030404"/>
</svg>
