<?xml version="1.0" encoding="utf-8"?>
<!-- Generator: Adobe Illustrator 25.4.0, SVG Export Plug-In . SVG Version: 6.00 Build 0)  -->
<svg version="1.1" id="Capa_1" xmlns="http://www.w3.org/2000/svg" xmlns:xlink="http://www.w3.org/1999/xlink" x="0px" y="0px"
	 viewBox="0 0 266.19 368.96" style="enable-background:new 0 0 266.19 368.96;" xml:space="preserve">
<style type="text/css">
	.st0{fill:#C8D12A;}
	.st1{fill:url(#);}
	.st2{fill:#050504;}
	.st3{fill:#FFFFFF;}
	.st4{fill:none;stroke:#FFFFFF;stroke-width:22.4065;}
	.st5{fill:none;stroke:#FFFFFF;stroke-width:11.3663;}
	.st6{fill:#C9D22A;}
	.st7{fill:#C8D12A;stroke:#000000;stroke-width:5.1402;stroke-miterlimit:10;}
	.st8{fill:#C4224F;stroke:#000000;stroke-width:5.1402;stroke-miterlimit:10;}
	.st9{fill:#030405;}
	.st10{fill:#C6CF31;}
	.st11{fill:#C4224F;}
	.st12{stroke:#000000;stroke-width:5.1402;stroke-miterlimit:10;}
	.st13{stroke:#FFFFFF;stroke-width:4;stroke-linecap:round;stroke-linejoin:round;stroke-miterlimit:10;}
	.st14{fill:none;stroke:#FFFFFF;stroke-width:4;stroke-linejoin:round;stroke-miterlimit:10;}
	.st15{fill:#C4224F;stroke:#000000;stroke-width:5.5;stroke-miterlimit:10;}
	.st16{stroke:#FFFFFF;stroke-width:2.9639;stroke-miterlimit:10;}
	.st17{clip-path:url(#SVGID_00000132789631314940645660000012952365747730925986_);}
	.st18{fill:#C8D12A;stroke:#000000;stroke-width:5.6822;stroke-miterlimit:10;}
	.st19{fill:#00993D;}
	.st20{clip-path:url(#SVGID_00000073707512786517742960000003645581843066469814_);}
	.st21{stroke:#FFFFFF;stroke-width:4;stroke-miterlimit:10;}
	.st22{stroke:#000000;stroke-width:2.5698;stroke-miterlimit:10;}
	.st23{fill:#C8D12A;stroke:#000000;stroke-width:2.569;stroke-miterlimit:10;}
	.st24{stroke:#000000;stroke-width:2.569;stroke-miterlimit:10;}
	.st25{stroke:#FFFFFF;stroke-width:1.9992;stroke-linecap:round;stroke-linejoin:round;stroke-miterlimit:10;}
	.st26{clip-path:url(#SVGID_00000104669541677974303770000013724557447179141807_);}
	.st27{fill:#C8D12A;stroke:#000000;stroke-width:2.8287;stroke-miterlimit:10;}
	.st28{stroke:#FFFFFF;stroke-width:1.4755;stroke-miterlimit:10;}
	.st29{clip-path:url(#SVGID_00000150097584788078849310000006544715721964243605_);}
	.st30{clip-path:url(#SVGID_00000016793441225146689470000009334311293263293350_);}
	.st31{clip-path:url(#SVGID_00000109012847871376407930000014278611539854168217_);}
	.st32{clip-path:url(#SVGID_00000021832869406627592700000002474165115278861211_);}
	.st33{fill:#C8D12A;stroke:#000000;stroke-width:2.4552;stroke-miterlimit:10;}
	.st34{stroke:#FFFFFF;stroke-width:1.2719;stroke-miterlimit:10;}
	.st35{fill:#C8D12A;stroke:#000000;stroke-width:2.1112;stroke-miterlimit:10;}
	.st36{stroke:#000000;stroke-width:2.1112;stroke-miterlimit:10;}
	.st37{stroke:#FFFFFF;stroke-width:1.6429;stroke-linecap:round;stroke-linejoin:round;stroke-miterlimit:10;}
	.st38{clip-path:url(#SVGID_00000068662959059159674110000016837455379650043060_);}
	.st39{stroke:#000000;stroke-width:2.1118;stroke-miterlimit:10;}
	.st40{clip-path:url(#SVGID_00000173851363173443203710000006526835476373488778_);}
	.st41{clip-path:url(#SVGID_00000134941594024665590120000017919134625211117754_);}
	.st42{clip-path:url(#SVGID_00000131365568370965526310000017447905362195883396_);}
	.st43{stroke:#FFFFFF;stroke-width:2.0202;stroke-miterlimit:10;}
	.st44{opacity:0.9;fill:#00993D;}
	.st45{opacity:0.9;}
	.st46{opacity:0.9;fill:#FFFFFF;}
	.st47{clip-path:url(#SVGID_00000049223455948136505330000008165696895170912388_);}
	.st48{opacity:0.16;}
	.st49{fill:none;}
	.st50{fill:#222221;}
	.st51{fill:#FFFFFF;stroke:#FFFFFF;stroke-width:8.5919;stroke-linejoin:round;stroke-miterlimit:10;}
	.st52{stroke:#000000;stroke-width:8.5919;stroke-linejoin:round;stroke-miterlimit:10;}
	.st53{fill:#FFFFFF;stroke:#FFFFFF;stroke-width:8.5634;stroke-linejoin:round;stroke-miterlimit:10;}
	.st54{stroke:#000000;stroke-width:8.5634;stroke-linejoin:round;stroke-miterlimit:10;}
	.st55{fill:#FFFFFF;stroke:#FFFFFF;stroke-width:8.5806;stroke-linejoin:round;stroke-miterlimit:10;}
	.st56{stroke:#000000;stroke-width:8.5806;stroke-linejoin:round;stroke-miterlimit:10;}
	.st57{fill:#FFFFFF;stroke:#FFFFFF;stroke-width:7.4042;stroke-linejoin:round;stroke-miterlimit:10;}
	.st58{stroke:#000000;stroke-width:7.4042;stroke-linejoin:round;stroke-miterlimit:10;}
	.st59{fill:#FFFFFF;stroke:#FFFFFF;stroke-width:8.5749;stroke-linejoin:round;stroke-miterlimit:10;}
	.st60{stroke:#000000;stroke-width:8.5749;stroke-linejoin:round;stroke-miterlimit:10;}
	.st61{fill:#FFFFFF;stroke:#FFFFFF;stroke-width:7.4433;stroke-linejoin:round;stroke-miterlimit:10;}
	.st62{stroke:#000000;stroke-width:7.4433;stroke-linejoin:round;stroke-miterlimit:10;}
	.st63{fill:#FFFFFF;stroke:#FFFFFF;stroke-width:7.3602;stroke-linejoin:round;stroke-miterlimit:10;}
	.st64{stroke:#000000;stroke-width:7.3602;stroke-linejoin:round;stroke-miterlimit:10;}
	.st65{fill:#FFFFFF;stroke:#FFFFFF;stroke-width:8.0592;stroke-linejoin:round;stroke-miterlimit:10;}
	.st66{stroke:#000000;stroke-width:8.0592;stroke-linejoin:round;stroke-miterlimit:10;}
	.st67{fill:#FFFFFF;stroke:#FFFFFF;stroke-width:8.5637;stroke-linejoin:round;stroke-miterlimit:10;}
	.st68{stroke:#000000;stroke-width:8.5637;stroke-linejoin:round;stroke-miterlimit:10;}
	.st69{fill:#FFFFFF;stroke:#FFFFFF;stroke-width:7.8456;stroke-linejoin:round;stroke-miterlimit:10;}
	.st70{stroke:#000000;stroke-width:7.8456;stroke-linejoin:round;stroke-miterlimit:10;}
	.st71{fill:#FFFFFF;stroke:#FFFFFF;stroke-width:7.9249;stroke-linejoin:round;stroke-miterlimit:10;}
	.st72{stroke:#000000;stroke-width:7.9249;stroke-linejoin:round;stroke-miterlimit:10;}
	.st73{fill:#FFFFFF;stroke:#FFFFFF;stroke-width:7.8723;stroke-linejoin:round;stroke-miterlimit:10;}
	.st74{stroke:#000000;stroke-width:7.8723;stroke-linejoin:round;stroke-miterlimit:10;}
	.st75{fill:#FFFFFF;stroke:#FFFFFF;stroke-width:8.5875;stroke-linejoin:round;stroke-miterlimit:10;}
	.st76{fill:#FFFFFF;stroke:#FFFFFF;stroke-width:10.3776;stroke-linejoin:round;stroke-miterlimit:10;}
	.st77{stroke:#000000;stroke-width:8.5875;stroke-linejoin:round;stroke-miterlimit:10;}
	.st78{stroke:#000000;stroke-width:10.3776;stroke-linejoin:round;stroke-miterlimit:10;}
	.st79{fill:#FFFFFF;stroke:#FFFFFF;stroke-width:8.4886;stroke-linejoin:round;stroke-miterlimit:10;}
	.st80{stroke:#000000;stroke-width:8.4886;stroke-linejoin:round;stroke-miterlimit:10;}
</style>
<g>
	<path class="st60" d="M54.45,71.58c1.36,27.37,1.44,66.16,0.23,116.37c-1.11,54.52-1.35,93.32-0.73,116.41
		c0.43,16.05,1.14,31.1,2.16,45.16c0.89,9.75-1.84,14.78-8.21,15.06c-19.44,0.86-30.25-3.94-32.44-14.43
		c-4.75-22.51-7.5-48.06-8.26-76.63c-0.53-19.96,0.1-50.26,1.89-90.89c1.79-40.64,2.43-70.73,1.9-90.31
		c-0.67-25.04-2.87-47.67-6.59-67.89c-0.39-2.72,0.4-5.9,2.38-9.51c1.97-3.62,4.22-6.07,6.74-7.35c12.92-6.06,22.63-3.74,29.14,6.93
		C49.15,25.19,53.08,44.22,54.45,71.58z"/>
	<path class="st62" d="M261.48,223.67c-1.77,4.2-5.98,6.7-12.65,7.51c-5.1,0.17-10.35,0.5-15.76,0.97c-7,0.53-10.91,2.88-11.72,7.04
		c-2.37,14.25-3.45,33.48-3.23,57.68c0.51,32.76,0.71,51.94,0.6,57.55c-0.12,5.61-3.98,9.14-11.59,10.57
		c-12.11,0.41-19.39-2.3-21.82-8.13c-3.14-7.58-4.87-15.93-5.19-25.07c-0.24-6.79,0.51-17.14,2.25-31.08
		c1.74-13.94,2.48-24.59,2.22-31.96c-0.25-7.08-1.29-13.83-3.11-20.27c-2.88-0.19-5.92-0.24-9.1-0.14
		c-6.69,0.22-16.85,1.89-30.45,5.01c-13.61,3.11-23.6,4.78-29.97,4.99c-6.06,0.2-11.82-0.49-17.3-2.08
		c-7.43-2.41-11.22-5.97-11.38-10.69c-0.08-2.36,3.17-9.55,9.77-21.58c10.78-19.85,25.32-50.67,43.63-92.47
		c18.3-41.8,33.15-73.08,44.54-93.83c2.93-7.18,6.26-14.53,9.99-22.03c3.72-7.5,10.04-11.41,18.97-11.71
		c10.83-0.36,16.68,2.84,17.57,9.6c0.87,6.77,1.43,13.39,1.66,19.87c0.6,17.11-1,41.74-4.81,73.9c-3.81,32.17-5.42,56.65-4.83,73.46
		c0.26,7.37,0.82,14.44,1.71,21.2c20.07-0.67,32.79,2.6,38.15,9.79C262.64,215.81,263.26,219.78,261.48,223.67z M179.8,132.96
		c-7.49,13.83-14.81,27.81-21.97,41.92c-8.04,16.21-13.6,30.57-16.66,43.07c5.41-0.47,12.21-2.03,20.41-4.67
		c10.09-3.29,16.25-5.12,18.47-5.49c-0.29-8.25-0.35-21.02-0.16-38.3C180.07,152.22,180.05,140.04,179.8,132.96z"/>
</g>
</svg>
