<?xml version="1.0" encoding="utf-8"?>
<!-- Generator: Adobe Illustrator 25.4.0, SVG Export Plug-In . SVG Version: 6.00 Build 0)  -->
<svg version="1.1" id="Capa_1" xmlns="http://www.w3.org/2000/svg" xmlns:xlink="http://www.w3.org/1999/xlink" x="0px" y="0px"
	 viewBox="0 0 254.06 369.21" style="enable-background:new 0 0 254.06 369.21;" xml:space="preserve">
<style type="text/css">
	.st0{fill:#C8D12A;}
	.st1{fill:url(#);}
	.st2{fill:#050504;}
	.st3{fill:#FFFFFF;}
	.st4{fill:none;stroke:#FFFFFF;stroke-width:22.4065;}
	.st5{fill:none;stroke:#FFFFFF;stroke-width:11.3663;}
	.st6{fill:#C9D22A;}
	.st7{fill:#C8D12A;stroke:#000000;stroke-width:5.1402;stroke-miterlimit:10;}
	.st8{fill:#C4224F;stroke:#000000;stroke-width:5.1402;stroke-miterlimit:10;}
	.st9{fill:#030405;}
	.st10{fill:#C6CF31;}
	.st11{fill:#C4224F;}
	.st12{stroke:#000000;stroke-width:5.1402;stroke-miterlimit:10;}
	.st13{stroke:#FFFFFF;stroke-width:4;stroke-linecap:round;stroke-linejoin:round;stroke-miterlimit:10;}
	.st14{fill:none;stroke:#FFFFFF;stroke-width:4;stroke-linejoin:round;stroke-miterlimit:10;}
	.st15{fill:#C4224F;stroke:#000000;stroke-width:5.5;stroke-miterlimit:10;}
	.st16{stroke:#FFFFFF;stroke-width:2.9639;stroke-miterlimit:10;}
	.st17{clip-path:url(#SVGID_00000114036637814371743900000015354658315338215350_);}
	.st18{fill:#C8D12A;stroke:#000000;stroke-width:5.6822;stroke-miterlimit:10;}
	.st19{fill:#00993D;}
	.st20{clip-path:url(#SVGID_00000025423118345153897760000008421840661306302898_);}
	.st21{stroke:#FFFFFF;stroke-width:4;stroke-miterlimit:10;}
	.st22{stroke:#000000;stroke-width:2.5698;stroke-miterlimit:10;}
	.st23{fill:#C8D12A;stroke:#000000;stroke-width:2.569;stroke-miterlimit:10;}
	.st24{stroke:#000000;stroke-width:2.569;stroke-miterlimit:10;}
	.st25{stroke:#FFFFFF;stroke-width:1.9992;stroke-linecap:round;stroke-linejoin:round;stroke-miterlimit:10;}
	.st26{clip-path:url(#SVGID_00000150104210026013621040000004115599380262665882_);}
	.st27{fill:#C8D12A;stroke:#000000;stroke-width:2.8287;stroke-miterlimit:10;}
	.st28{stroke:#FFFFFF;stroke-width:1.4755;stroke-miterlimit:10;}
	.st29{clip-path:url(#SVGID_00000132786060890934289170000000829548693956781244_);}
	.st30{clip-path:url(#SVGID_00000002361572055435232000000005505804268526142394_);}
	.st31{clip-path:url(#SVGID_00000115484412074398107340000009283657035831571085_);}
	.st32{clip-path:url(#SVGID_00000154406333847688812210000010439624546598390692_);}
	.st33{fill:#C8D12A;stroke:#000000;stroke-width:2.4552;stroke-miterlimit:10;}
	.st34{stroke:#FFFFFF;stroke-width:1.2719;stroke-miterlimit:10;}
	.st35{fill:#C8D12A;stroke:#000000;stroke-width:2.1112;stroke-miterlimit:10;}
	.st36{stroke:#000000;stroke-width:2.1112;stroke-miterlimit:10;}
	.st37{stroke:#FFFFFF;stroke-width:1.6429;stroke-linecap:round;stroke-linejoin:round;stroke-miterlimit:10;}
	.st38{clip-path:url(#SVGID_00000170956774628341281660000010520440902303882385_);}
	.st39{stroke:#000000;stroke-width:2.1118;stroke-miterlimit:10;}
	.st40{clip-path:url(#SVGID_00000036244340665595285640000002805409592560765348_);}
	.st41{clip-path:url(#SVGID_00000164473228811780237490000012099072126085284258_);}
	.st42{clip-path:url(#SVGID_00000061469568523057263680000011052279231393906621_);}
	.st43{stroke:#FFFFFF;stroke-width:2.0202;stroke-miterlimit:10;}
	.st44{opacity:0.9;fill:#00993D;}
	.st45{opacity:0.9;}
	.st46{opacity:0.9;fill:#FFFFFF;}
	.st47{clip-path:url(#SVGID_00000115509525571681613820000002089074731260964785_);}
	.st48{opacity:0.16;}
	.st49{fill:none;}
	.st50{fill:#222221;}
	.st51{fill:#FFFFFF;stroke:#FFFFFF;stroke-width:8.5919;stroke-linejoin:round;stroke-miterlimit:10;}
	.st52{stroke:#000000;stroke-width:8.5919;stroke-linejoin:round;stroke-miterlimit:10;}
	.st53{fill:#FFFFFF;stroke:#FFFFFF;stroke-width:8.5634;stroke-linejoin:round;stroke-miterlimit:10;}
	.st54{stroke:#000000;stroke-width:8.5634;stroke-linejoin:round;stroke-miterlimit:10;}
	.st55{fill:#FFFFFF;stroke:#FFFFFF;stroke-width:8.5806;stroke-linejoin:round;stroke-miterlimit:10;}
	.st56{stroke:#000000;stroke-width:8.5806;stroke-linejoin:round;stroke-miterlimit:10;}
	.st57{fill:#FFFFFF;stroke:#FFFFFF;stroke-width:7.4042;stroke-linejoin:round;stroke-miterlimit:10;}
	.st58{stroke:#000000;stroke-width:7.4042;stroke-linejoin:round;stroke-miterlimit:10;}
	.st59{fill:#FFFFFF;stroke:#FFFFFF;stroke-width:8.5749;stroke-linejoin:round;stroke-miterlimit:10;}
	.st60{stroke:#000000;stroke-width:8.5749;stroke-linejoin:round;stroke-miterlimit:10;}
	.st61{fill:#FFFFFF;stroke:#FFFFFF;stroke-width:7.4433;stroke-linejoin:round;stroke-miterlimit:10;}
	.st62{stroke:#000000;stroke-width:7.4433;stroke-linejoin:round;stroke-miterlimit:10;}
	.st63{fill:#FFFFFF;stroke:#FFFFFF;stroke-width:7.3602;stroke-linejoin:round;stroke-miterlimit:10;}
	.st64{stroke:#000000;stroke-width:7.3602;stroke-linejoin:round;stroke-miterlimit:10;}
	.st65{fill:#FFFFFF;stroke:#FFFFFF;stroke-width:8.0592;stroke-linejoin:round;stroke-miterlimit:10;}
	.st66{stroke:#000000;stroke-width:8.0592;stroke-linejoin:round;stroke-miterlimit:10;}
	.st67{fill:#FFFFFF;stroke:#FFFFFF;stroke-width:8.5637;stroke-linejoin:round;stroke-miterlimit:10;}
	.st68{stroke:#000000;stroke-width:8.5637;stroke-linejoin:round;stroke-miterlimit:10;}
	.st69{fill:#FFFFFF;stroke:#FFFFFF;stroke-width:7.8456;stroke-linejoin:round;stroke-miterlimit:10;}
	.st70{stroke:#000000;stroke-width:7.8456;stroke-linejoin:round;stroke-miterlimit:10;}
	.st71{fill:#FFFFFF;stroke:#FFFFFF;stroke-width:7.9249;stroke-linejoin:round;stroke-miterlimit:10;}
	.st72{stroke:#000000;stroke-width:7.9249;stroke-linejoin:round;stroke-miterlimit:10;}
	.st73{fill:#FFFFFF;stroke:#FFFFFF;stroke-width:7.8723;stroke-linejoin:round;stroke-miterlimit:10;}
	.st74{stroke:#000000;stroke-width:7.8723;stroke-linejoin:round;stroke-miterlimit:10;}
	.st75{fill:#FFFFFF;stroke:#FFFFFF;stroke-width:8.5875;stroke-linejoin:round;stroke-miterlimit:10;}
	.st76{fill:#FFFFFF;stroke:#FFFFFF;stroke-width:10.3776;stroke-linejoin:round;stroke-miterlimit:10;}
	.st77{stroke:#000000;stroke-width:8.5875;stroke-linejoin:round;stroke-miterlimit:10;}
	.st78{stroke:#000000;stroke-width:10.3776;stroke-linejoin:round;stroke-miterlimit:10;}
	.st79{fill:#FFFFFF;stroke:#FFFFFF;stroke-width:8.4886;stroke-linejoin:round;stroke-miterlimit:10;}
	.st80{stroke:#000000;stroke-width:8.4886;stroke-linejoin:round;stroke-miterlimit:10;}
</style>
<g>
	<path class="st56" d="M54.49,71.63c1.36,27.39,1.44,66.2,0.23,116.44c-1.11,54.55-1.35,93.38-0.73,116.49
		c0.43,16.06,1.14,31.12,2.16,45.19c0.9,9.76-1.84,14.79-8.22,15.07c-19.45,0.86-30.27-3.95-32.47-14.44
		c-4.75-22.53-7.5-48.09-8.27-76.68c-0.53-19.97,0.1-50.29,1.89-90.95c1.79-40.66,2.43-70.78,1.91-90.37
		c-0.67-25.06-2.87-47.71-6.59-67.93c-0.39-2.72,0.4-5.9,2.38-9.52c1.98-3.62,4.22-6.07,6.75-7.36c12.92-6.06,22.65-3.75,29.16,6.94
		C49.18,25.21,53.11,44.25,54.49,71.63z"/>
	<path class="st64" d="M250.02,25.77c-10.23,8.42-26.43,15.31-48.58,20.65c-25.94,6.63-43.3,12.26-52.06,16.87
		c-10.8,28.09-17.14,51.26-19.04,69.51c47.97,11.14,74.81,29.47,80.52,54.99c2.69,12.62,4.27,25.28,4.73,37.97
		c1.88,51.93-13.48,95.33-46.05,130.19c-5.53,5.96-11.01,9.03-16.43,9.21c-2.56,0.08-4.97-0.56-7.25-1.93
		c-4.54-1.87-8.91-3.6-13.12-5.2c-5.21-2.72-8.22-6.51-9.03-11.39c-1.23-7.46,1.45-12.75,8.05-15.84
		c10.03-4.95,16.86-10.36,20.48-16.25c17.84-27.41,26.2-56.83,25.06-88.23c-0.65-17.86-5.05-33.59-13.2-47.17
		c-4.08-6.79-12.03-10.42-23.86-10.9c-17.26-0.58-26.86-1.14-28.79-1.65c-13.88-4.16-20.78-9.56-20.7-16.2
		c-0.21-32.3,11.55-77.84,35.28-136.6c1.76-4.39,6.3-6.7,13.64-6.94c10.2-0.33,16.38,2.78,18.53,9.35c3.24,1.34,6.93,1.94,11.08,1.8
		c5.74-0.19,14.75-2.5,27.04-6.94c12.29-4.44,21.62-6.77,28-6.97c8.29-0.27,15.55,1.95,21.79,6.65
		C249.79,15.23,251.09,20.25,250.02,25.77z"/>
</g>
</svg>
