<?xml version="1.0" encoding="utf-8"?>
<!-- Generator: Adobe Illustrator 25.4.0, SVG Export Plug-In . SVG Version: 6.00 Build 0)  -->
<svg version="1.1" id="Capa_1" xmlns="http://www.w3.org/2000/svg" xmlns:xlink="http://www.w3.org/1999/xlink" x="0px" y="0px"
	 viewBox="0 0 243.52 369.16" style="enable-background:new 0 0 243.52 369.16;" xml:space="preserve">
<style type="text/css">
	.st0{fill:#C8D12A;}
	.st1{fill:url(#);}
	.st2{fill:#050504;}
	.st3{fill:#FFFFFF;}
	.st4{fill:none;stroke:#FFFFFF;stroke-width:22.4065;}
	.st5{fill:none;stroke:#FFFFFF;stroke-width:11.3663;}
	.st6{fill:#C9D22A;}
	.st7{fill:#C8D12A;stroke:#000000;stroke-width:5.1402;stroke-miterlimit:10;}
	.st8{fill:#C4224F;stroke:#000000;stroke-width:5.1402;stroke-miterlimit:10;}
	.st9{fill:#030405;}
	.st10{fill:#C6CF31;}
	.st11{fill:#C4224F;}
	.st12{stroke:#000000;stroke-width:5.1402;stroke-miterlimit:10;}
	.st13{stroke:#FFFFFF;stroke-width:4;stroke-linecap:round;stroke-linejoin:round;stroke-miterlimit:10;}
	.st14{fill:none;stroke:#FFFFFF;stroke-width:4;stroke-linejoin:round;stroke-miterlimit:10;}
	.st15{fill:#C4224F;stroke:#000000;stroke-width:5.5;stroke-miterlimit:10;}
	.st16{stroke:#FFFFFF;stroke-width:2.9639;stroke-miterlimit:10;}
	.st17{clip-path:url(#SVGID_00000046340633308127462370000001178148750151005856_);}
	.st18{fill:#C8D12A;stroke:#000000;stroke-width:5.6822;stroke-miterlimit:10;}
	.st19{fill:#00993D;}
	.st20{clip-path:url(#SVGID_00000167373248108257732350000003976419158530156712_);}
	.st21{stroke:#FFFFFF;stroke-width:4;stroke-miterlimit:10;}
	.st22{stroke:#000000;stroke-width:2.5698;stroke-miterlimit:10;}
	.st23{fill:#C8D12A;stroke:#000000;stroke-width:2.569;stroke-miterlimit:10;}
	.st24{stroke:#000000;stroke-width:2.569;stroke-miterlimit:10;}
	.st25{stroke:#FFFFFF;stroke-width:1.9992;stroke-linecap:round;stroke-linejoin:round;stroke-miterlimit:10;}
	.st26{clip-path:url(#SVGID_00000006701992743499523320000015419083816458002347_);}
	.st27{fill:#C8D12A;stroke:#000000;stroke-width:2.8287;stroke-miterlimit:10;}
	.st28{stroke:#FFFFFF;stroke-width:1.4755;stroke-miterlimit:10;}
	.st29{clip-path:url(#SVGID_00000141422279274104918370000004734714194611602341_);}
	.st30{clip-path:url(#SVGID_00000036966894887494878920000013718919043481783226_);}
	.st31{clip-path:url(#SVGID_00000106856627319780864020000015650930653446281641_);}
	.st32{clip-path:url(#SVGID_00000075859157600654550220000000392123069736220578_);}
	.st33{fill:#C8D12A;stroke:#000000;stroke-width:2.4552;stroke-miterlimit:10;}
	.st34{stroke:#FFFFFF;stroke-width:1.2719;stroke-miterlimit:10;}
	.st35{fill:#C8D12A;stroke:#000000;stroke-width:2.1112;stroke-miterlimit:10;}
	.st36{stroke:#000000;stroke-width:2.1112;stroke-miterlimit:10;}
	.st37{stroke:#FFFFFF;stroke-width:1.6429;stroke-linecap:round;stroke-linejoin:round;stroke-miterlimit:10;}
	.st38{clip-path:url(#SVGID_00000137101379347358051390000012087253381585707453_);}
	.st39{stroke:#000000;stroke-width:2.1118;stroke-miterlimit:10;}
	.st40{clip-path:url(#SVGID_00000174582091611720375510000012722377202933094785_);}
	.st41{clip-path:url(#SVGID_00000119807307119269409550000005185518803047713189_);}
	.st42{clip-path:url(#SVGID_00000010286019859514073280000003497903232238448280_);}
	.st43{stroke:#FFFFFF;stroke-width:2.0202;stroke-miterlimit:10;}
	.st44{opacity:0.9;fill:#00993D;}
	.st45{opacity:0.9;}
	.st46{opacity:0.9;fill:#FFFFFF;}
	.st47{clip-path:url(#SVGID_00000052786228167378282830000005637108443369249950_);}
	.st48{opacity:0.16;}
	.st49{fill:none;}
	.st50{fill:#222221;}
	.st51{fill:#FFFFFF;stroke:#FFFFFF;stroke-width:8.5919;stroke-linejoin:round;stroke-miterlimit:10;}
	.st52{stroke:#000000;stroke-width:8.5919;stroke-linejoin:round;stroke-miterlimit:10;}
	.st53{fill:#FFFFFF;stroke:#FFFFFF;stroke-width:8.5634;stroke-linejoin:round;stroke-miterlimit:10;}
	.st54{stroke:#000000;stroke-width:8.5634;stroke-linejoin:round;stroke-miterlimit:10;}
	.st55{fill:#FFFFFF;stroke:#FFFFFF;stroke-width:8.5806;stroke-linejoin:round;stroke-miterlimit:10;}
	.st56{stroke:#000000;stroke-width:8.5806;stroke-linejoin:round;stroke-miterlimit:10;}
	.st57{fill:#FFFFFF;stroke:#FFFFFF;stroke-width:7.4042;stroke-linejoin:round;stroke-miterlimit:10;}
	.st58{stroke:#000000;stroke-width:7.4042;stroke-linejoin:round;stroke-miterlimit:10;}
	.st59{fill:#FFFFFF;stroke:#FFFFFF;stroke-width:8.5749;stroke-linejoin:round;stroke-miterlimit:10;}
	.st60{stroke:#000000;stroke-width:8.5749;stroke-linejoin:round;stroke-miterlimit:10;}
	.st61{fill:#FFFFFF;stroke:#FFFFFF;stroke-width:7.4433;stroke-linejoin:round;stroke-miterlimit:10;}
	.st62{stroke:#000000;stroke-width:7.4433;stroke-linejoin:round;stroke-miterlimit:10;}
	.st63{fill:#FFFFFF;stroke:#FFFFFF;stroke-width:7.3602;stroke-linejoin:round;stroke-miterlimit:10;}
	.st64{stroke:#000000;stroke-width:7.3602;stroke-linejoin:round;stroke-miterlimit:10;}
	.st65{fill:#FFFFFF;stroke:#FFFFFF;stroke-width:8.0592;stroke-linejoin:round;stroke-miterlimit:10;}
	.st66{stroke:#000000;stroke-width:8.0592;stroke-linejoin:round;stroke-miterlimit:10;}
	.st67{fill:#FFFFFF;stroke:#FFFFFF;stroke-width:8.5637;stroke-linejoin:round;stroke-miterlimit:10;}
	.st68{stroke:#000000;stroke-width:8.5637;stroke-linejoin:round;stroke-miterlimit:10;}
	.st69{fill:#FFFFFF;stroke:#FFFFFF;stroke-width:7.8456;stroke-linejoin:round;stroke-miterlimit:10;}
	.st70{stroke:#000000;stroke-width:7.8456;stroke-linejoin:round;stroke-miterlimit:10;}
	.st71{fill:#FFFFFF;stroke:#FFFFFF;stroke-width:7.9249;stroke-linejoin:round;stroke-miterlimit:10;}
	.st72{stroke:#000000;stroke-width:7.9249;stroke-linejoin:round;stroke-miterlimit:10;}
	.st73{fill:#FFFFFF;stroke:#FFFFFF;stroke-width:7.8723;stroke-linejoin:round;stroke-miterlimit:10;}
	.st74{stroke:#000000;stroke-width:7.8723;stroke-linejoin:round;stroke-miterlimit:10;}
	.st75{fill:#FFFFFF;stroke:#FFFFFF;stroke-width:8.5875;stroke-linejoin:round;stroke-miterlimit:10;}
	.st76{fill:#FFFFFF;stroke:#FFFFFF;stroke-width:10.3776;stroke-linejoin:round;stroke-miterlimit:10;}
	.st77{stroke:#000000;stroke-width:8.5875;stroke-linejoin:round;stroke-miterlimit:10;}
	.st78{stroke:#000000;stroke-width:10.3776;stroke-linejoin:round;stroke-miterlimit:10;}
	.st79{fill:#FFFFFF;stroke:#FFFFFF;stroke-width:8.4886;stroke-linejoin:round;stroke-miterlimit:10;}
	.st80{stroke:#000000;stroke-width:8.4886;stroke-linejoin:round;stroke-miterlimit:10;}
</style>
<g>
	<path class="st68" d="M54.38,71.83c1.36,27.34,1.44,66.07,0.22,116.21c-1.11,54.45-1.35,93.2-0.73,116.26
		c0.43,16.03,1.14,31.06,2.16,45.1c0.89,9.74-1.84,14.76-8.2,15.04c-19.41,0.86-30.21-3.94-32.4-14.41
		c-4.74-22.48-7.49-47.99-8.25-76.53c-0.53-19.93,0.1-50.19,1.89-90.77c1.79-40.58,2.42-70.64,1.9-90.19
		C10.3,67.53,8.1,44.93,4.38,24.75c-0.39-2.72,0.4-5.89,2.38-9.5c1.97-3.61,4.21-6.06,6.73-7.34c12.9-6.05,22.6-3.74,29.1,6.92
		C49.08,25.5,53.01,44.5,54.38,71.83z"/>
	<path class="st66" d="M236.38,16.71c1.96,1.66,2.99,4.22,3.1,7.68c0.21,6.93-1.89,11.34-6.29,13.24
		c-10.71,4.24-20.37,11.38-28.99,21.42c-26.78,31.21-49.05,80.26-66.79,147.15c4.13-0.16,9.88-2.47,17.24-6.92
		c7.35-4.45,13.25-6.76,17.71-6.94c2.86-0.11,5.75,0.47,8.66,1.74c23.86,9.46,38.22,26.05,43.07,49.77
		c1.11,5.16,1.75,10.51,1.91,16.04c0.58,19.39-5.06,38.5-16.92,57.33c-10.02,16.34-23.3,30.55-39.82,42.64
		c-4.68,3.3-9.57,5.06-14.66,5.26c-6.37,0.25-16.52-3.51-30.45-11.28c-21.72-12.31-33.1-35.95-34.15-70.92
		c-0.36-12.11,0.52-24.97,2.66-38.57c8.1-48.49,19.94-89.33,35.51-122.53c18.87-39.9,29.37-61.8,31.48-65.7
		c13.94-23.76,29.85-40.34,47.73-49.71c2.82-1.49,5.35-2.29,7.58-2.38C219.42,3.86,226.56,8.09,236.38,16.71z M186.69,255.72
		c-0.16-5.19-1.68-10.76-4.56-16.72c-2.89-5.95-6.4-8.85-10.54-8.68c-2.55,0.1-6.79,2.27-12.71,6.48
		c-5.93,4.22-10.49,6.39-13.66,6.52c-3.82,0.15-7.22-1.79-10.21-5.84c-5.5,7.84-8.04,18.69-7.63,32.53
		c0.22,7.27,1.47,17.1,3.75,29.49c3.06,17.21,7.14,25.71,12.24,25.51c1.59-0.06,3.16-0.64,4.73-1.75
		c10.96-6.32,20.23-15.87,27.81-28.65C183.48,281.84,187.08,268.88,186.69,255.72z"/>
</g>
</svg>
