<?xml version="1.0" encoding="utf-8"?>
<!-- Generator: Adobe Illustrator 25.4.0, SVG Export Plug-In . SVG Version: 6.00 Build 0)  -->
<svg version="1.1" id="Capa_1" xmlns="http://www.w3.org/2000/svg" xmlns:xlink="http://www.w3.org/1999/xlink" x="0px" y="0px"
	 viewBox="0 0 579.31 265.09" style="enable-background:new 0 0 579.31 265.09;" xml:space="preserve">
<style type="text/css">
	.st0{fill:#C8D12A;}
	.st1{fill:url(#);}
	.st2{fill:#050504;}
	.st3{fill:#FFFFFF;}
	.st4{fill:none;stroke:#FFFFFF;stroke-width:22.4065;}
	.st5{fill:none;stroke:#FFFFFF;stroke-width:11.3663;}
	.st6{fill:#C9D22A;}
	.st7{fill:#C8D12A;stroke:#000000;stroke-width:5.1402;stroke-miterlimit:10;}
	.st8{fill:#F4D334;stroke:#000000;stroke-width:5.1402;stroke-miterlimit:10;}
	.st9{fill:#030405;}
	.st10{fill:#C6CF31;}
	.st11{stroke:#000000;stroke-width:5.1402;stroke-miterlimit:10;}
	.st12{stroke:#FFFFFF;stroke-width:4;stroke-linecap:round;stroke-linejoin:round;stroke-miterlimit:10;}
	.st13{fill:none;stroke:#FFFFFF;stroke-width:4;stroke-linejoin:round;stroke-miterlimit:10;}
	.st14{clip-path:url(#SVGID_00000023991945171505227050000013132418742345679010_);}
	.st15{fill:#C8D12A;stroke:#000000;stroke-width:5.6822;stroke-miterlimit:10;}
	.st16{stroke:#FFFFFF;stroke-width:2.9639;stroke-miterlimit:10;}
	.st17{fill:#00993D;}
	.st18{clip-path:url(#SVGID_00000165928045697646137830000002328323823865150349_);}
	.st19{fill:#F4D334;stroke:#000000;stroke-width:5.5;stroke-miterlimit:10;}
	.st20{clip-path:url(#SVGID_00000160170554600333296740000012702439310489820306_);}
	.st21{stroke:#FFFFFF;stroke-width:4;stroke-miterlimit:10;}
	.st22{stroke:#000000;stroke-width:2.5698;stroke-miterlimit:10;}
	.st23{fill:#C8D12A;stroke:#000000;stroke-width:2.569;stroke-miterlimit:10;}
	.st24{stroke:#000000;stroke-width:2.569;stroke-miterlimit:10;}
	.st25{stroke:#FFFFFF;stroke-width:1.9992;stroke-linecap:round;stroke-linejoin:round;stroke-miterlimit:10;}
	.st26{clip-path:url(#SVGID_00000142871435492341008320000011893515682128077480_);}
	.st27{fill:#C8D12A;stroke:#000000;stroke-width:2.8287;stroke-miterlimit:10;}
	.st28{stroke:#FFFFFF;stroke-width:1.4755;stroke-miterlimit:10;}
	.st29{clip-path:url(#SVGID_00000136379370287799195930000014236718182949040768_);}
	.st30{clip-path:url(#SVGID_00000055675108976786191850000007009600846138046848_);}
	.st31{clip-path:url(#SVGID_00000104686615730847853080000000614066053331557805_);}
	.st32{clip-path:url(#SVGID_00000067945523810821233770000012322540864123065754_);}
	.st33{fill:#C8D12A;stroke:#000000;stroke-width:2.4552;stroke-miterlimit:10;}
	.st34{stroke:#FFFFFF;stroke-width:1.2719;stroke-miterlimit:10;}
	.st35{fill:#C8D12A;stroke:#000000;stroke-width:2.1112;stroke-miterlimit:10;}
	.st36{stroke:#000000;stroke-width:2.1112;stroke-miterlimit:10;}
	.st37{stroke:#FFFFFF;stroke-width:1.6429;stroke-linecap:round;stroke-linejoin:round;stroke-miterlimit:10;}
	.st38{clip-path:url(#SVGID_00000060752624321104440360000013440342500343371440_);}
	.st39{stroke:#000000;stroke-width:2.1118;stroke-miterlimit:10;}
	.st40{clip-path:url(#SVGID_00000137815418849504660150000015083459216610001554_);}
	.st41{clip-path:url(#SVGID_00000165223313425317573030000012867649471471338687_);}
	.st42{clip-path:url(#SVGID_00000037656096575589202130000005602006402832090240_);}
	.st43{opacity:0.9;fill:#00993D;}
	.st44{opacity:0.9;fill:#FFFFFF;}
	.st45{opacity:0.16;}
	.st46{fill:none;}
	.st47{fill:#222221;}
</style>
<g>
	<g>
		<path d="M58.47,96.04c5.23-3.4,10.99-5.99,17.26-7.78c2.8-0.79,4.88-1.11,6.24-0.96c1.36,0.15,2.4,0.79,3.13,1.91
			c0.57,0.89,1.35,3.44,2.32,7.67c0.97,4.23,1.56,7.65,1.77,10.26c0.2,1.01-0.1,1.78-0.91,2.3c-0.48,0.31-1.7,0.65-3.64,0.99
			c-4.03,0.67-7.57,2-10.63,3.98l-0.72,0.47l-0.53,0.51c-2.13,1.84-3.79,4.35-4.98,7.53c-1.2,3.18-1.61,6.2-1.25,9.05
			c0.37,2.51,1.31,4.93,2.83,7.26c2.67,4.1,5.93,6.62,9.79,7.55c3.86,0.93,8.41-0.31,13.64-3.71c3.14-2.04,5.64-4.52,7.52-7.46
			c0.68-1.24,1.62-2.26,2.83-3.04c0.88-0.57,1.73-0.78,2.52-0.61c1.11,0.31,3.26,1.46,6.45,3.45c3.18,2,5.17,3.42,5.96,4.29
			c0.19,0.11,0.46,0.45,0.83,1.01c0.89,1.37,0.95,2.88,0.19,4.51c-0.66,1.8-2.49,4.54-5.49,8.2c-4.19,5.35-8.26,9.31-12.2,11.87
			l-2.17,1.41c-4.99,2.89-9.35,4.67-13.1,5.33c-3.75,0.66-8.17,0.41-13.27-0.74c-11.1-2.29-20.1-8.75-27-19.37
			c-1.73-2.66-2.82-4.69-3.28-6.11c-1.86-4.63-2.66-9.74-2.41-15.34c0.25-5.6,1.45-11.04,3.57-16.31c2.13-5.27,5.04-9.73,8.73-13.39
			C54.46,98.94,56.46,97.35,58.47,96.04z"/>
		<path d="M151.23,63.46c4.98-2.02,8.97-3.28,11.98-3.78c2.14-0.35,3.87-0.23,5.2,0.37c1.33,0.6,2.63,1.83,3.91,3.69
			c0.74,1.05,2.48,4.95,5.23,11.71c6.18,15.2,10.08,25.69,11.7,31.45c0.93,3.04,1.34,5.21,1.24,6.49s-0.86,2.42-2.27,3.41
			c-1.41,0.99-4.26,2.46-8.54,4.41c-1.12,0.56-3.01,1.38-5.68,2.46c-1.96,0.8-3.33,1.12-4.11,0.97c-0.79-0.15-1.78-0.8-2.98-1.97
			c-1.2-1.17-1.98-1.68-2.33-1.54c-0.36,0.15-1.5,1.28-3.43,3.41c-3.01,3.3-6.21,5.63-9.58,7c-3.56,1.45-7.83,1.63-12.83,0.55
			c-5-1.08-9.68-3.21-14.03-6.42c-4.36-3.2-7.44-7.02-9.25-11.47c-0.79-1.95-1.25-3.58-1.37-4.88l-0.41-2.16l-0.33-1.58
			c-0.56-2.15-0.31-5.99,0.76-11.5c1.61-8.53,5.46-14.97,11.57-19.31c1.22-0.81,2.55-1.5,3.97-2.08c4.98-2.02,9.62-2.46,13.92-1.31
			c1.14,0.26,1.93,0.3,2.38,0.12c0.45-0.18,0.54-0.58,0.29-1.2c-0.18-0.44-0.08-1.29,0.29-2.53c0.38-1.24,0.82-2.12,1.34-2.64
			C148.15,64.81,149.27,64.25,151.23,63.46z M145.23,89.21c-2.13,0.87-3.79,2.27-4.97,4.2c-1.18,1.93-1.65,4.09-1.41,6.48
			c0.06,0.91,0.27,1.81,0.63,2.7c0.94,2.31,2.62,3.78,5.05,4.4c2.43,0.62,5.24,0.28,8.44-1.02c1.69-0.69,2.79-1.23,3.29-1.65
			c0.51-0.41,0.72-0.97,0.65-1.66c-0.08-0.69-0.39-2.12-0.96-4.27c-0.62-2.54-1.4-4.97-2.34-7.28c-0.54-1.33-0.96-2.12-1.27-2.36
			c-0.31-0.24-1.08-0.36-2.33-0.37C148.51,88.24,146.92,88.52,145.23,89.21z"/>
		<path d="M214.36,41.18l2.54-0.51c2.73-0.54,5.88-0.81,9.46-0.79c3.58,0.02,6.86,0.17,9.85,0.46c2.99,0.28,4.75,0.52,5.28,0.71
			c1.07,0.47,1.75,1.41,2.03,2.82c0.3,1.51,0.32,3.8,0.05,6.89c-0.27,3.09-0.55,5.35-0.85,6.78c-0.27,1.13-0.87,1.79-1.81,1.98
			c-0.94,0.19-2.49,0.01-4.66-0.54c-4.48-0.87-7.99-1.05-10.53-0.54c-0.75,0.15-1.48,0.44-2.17,0.87c-0.7,0.43-1,0.88-0.9,1.35
			c0.1,0.47,0.53,0.92,1.3,1.36c1.09,0.57,4.35,0.7,9.77,0.4c4.44-0.3,8.06,0.03,10.84,0.99c2.78,0.96,5.29,2.83,7.51,5.62
			c1.92,2.26,3.23,5.13,3.92,8.61c0.81,4.05,0.52,8.14-0.85,12.28c-1.38,4.14-3.67,7.71-6.89,10.7c-3.58,3.16-8.42,5.35-14.54,6.57
			c-6.03,1.2-12.17,1.28-18.45,0.23c-6.28-1.05-11.46-3.02-15.57-5.92c-1.73-1.32-2.67-2.35-2.82-3.11
			c-0.15-0.75,0.42-2.31,1.71-4.67c1.29-2.36,2.71-4.67,4.27-6.94c1.55-2.27,2.52-3.44,2.89-3.51c0.28-0.06,1.62,0.51,4.01,1.7
			c4.76,2.28,9.38,3.12,13.86,2.52l1.83-0.37c1.51-0.3,2.57-0.83,3.21-1.59c0.63-0.76,0.85-1.61,0.66-2.55
			c-0.24-1.22-1.26-2.12-3.03-2.7c-1.78-0.57-4.65-0.76-8.62-0.55c-10.2,0.37-17.36-2.16-21.48-7.6c-1.3-1.6-2.17-3.53-2.62-5.79
			c-0.53-2.63-0.31-5.49,0.64-8.57c0.95-3.08,2.51-5.91,4.69-8.5c2.17-2.59,4.74-4.57,7.7-5.94
			C208.66,42.52,211.26,41.8,214.36,41.18z"/>
		<path d="M297.11,16.9c5.38,0.03,8.73,0.14,10.08,0.34c1.63,0.39,2.61,0.76,2.95,1.09c0.33,0.34,0.5,1.08,0.49,2.23l-0.32,7.63
			l-0.31,4.61l-0.15,1.73l6.91,0.18c1.34,0.01,2.3,0.06,2.88,0.16c2.4,0.01,3.98,0.21,4.75,0.6c0.77,0.39,1.24,1.4,1.43,3.03
			c0.18,1.63,0.26,4.99,0.24,10.08l-0.01,2.45c-0.01,2.69-0.14,4.51-0.38,5.47c-0.25,0.96-0.78,1.58-1.59,1.86
			c-0.82,0.28-2.38,0.42-4.68,0.41l-9.21-0.04l-0.45,3.02c-0.21,2.3-0.31,3.74-0.31,4.32c-0.05,9.98,2.47,14.98,7.56,15.01
			c1.05,0.01,2.45-0.49,4.18-1.49s2.79-1.74,3.18-2.22c0.29-0.38,0.62-0.57,1.01-0.57c0.86,0,1.96,0.68,3.3,2.03
			c1.53,1.54,2.98,3.4,4.37,5.56c1.38,2.17,2.07,3.63,2.07,4.4c-0.01,1.15-1.33,2.78-3.98,4.88c-2.65,2.1-5.76,3.96-9.31,5.57
			c-4.62,2.09-9.61,3.12-14.99,3.1c-3.36-0.02-6.26-0.61-8.7-1.77s-5.05-3.19-7.82-6.08c-3.25-3.28-5.58-6.79-7-10.54
			c-1.42-3.75-2.12-9.41-2.08-17l0.02-3.31l0.01-2.02c-0.1-0.29-0.14-0.77-0.14-1.44c0-0.48-0.09-0.81-0.28-1.01l-0.57-0.58
			c-0.1-0.29-0.77-0.44-2.01-0.44l-1.73-0.15l-2.3-0.01c-2.01-0.2-3.31-0.35-3.88-0.45c-0.57-0.1-1.1-0.53-1.58-1.3
			c-0.38-0.67-0.57-1.92-0.56-3.75c0.01-2.59,0.07-4.37,0.17-5.33c0.21-2.88,0.31-4.7,0.31-5.47c0.1-1.25,0.18-2.3,0.23-3.17
			c0.05-0.86,0.13-1.44,0.22-1.73l0.59-2.01l5.9-0.26c2.88-0.08,4.61-0.22,5.19-0.41c0.48-0.19,0.77-0.48,0.87-0.86
			c0.11-2.11,0.34-5.04,0.69-8.78c0.35-3.74,0.67-5.76,0.96-6.04c0.48-0.57,1.59-1,3.32-1.28C288.33,16.95,291.83,16.87,297.11,16.9
			z"/>
		<path d="M366.66,50.06l3.83,0.66l1.56,0.27c1.32,0.23,2.39,0.56,3.19,0.98c0.71,0.41,1.15,0.83,1.32,1.25
			c0.17,0.42,0.21,1.2,0.11,2.36c-0.23,2.49-1.64,11.26-4.21,26.3c-2.71,15.8-4.28,23.85-4.72,24.17c-0.89,0.63-3.93,0.49-9.13-0.4
			l-5.11-0.88l-3.81-0.8c-2.27-0.39-3.59-0.66-3.95-0.82c-0.93-0.25-1.63-0.72-2.1-1.38l-0.94-1.33l3.14-19.18l1.02-5.96
			c2.84-16.55,4.93-25.35,6.27-26.38c0.57-0.49,3.65-0.3,9.25,0.56C364.17,49.78,365.6,49.98,366.66,50.06z M369.17,23.47
			c3.12,0.53,5.63,2.09,7.53,4.65c1.9,2.57,2.62,5.17,2.17,7.82l-0.32,1.84c-0.66,2.71-2.12,4.68-4.37,5.9
			c-2.25,1.22-5.04,1.55-8.35,0.98l-0.85-0.15c-3.28-0.76-5.79-2.18-7.52-4.28c-1.74-2.1-2.37-4.52-1.9-7.26
			c0.24-1.42,0.7-2.68,1.38-3.78c0.67-1.1,1.79-2.25,3.36-3.44C363.09,23.69,366.04,22.93,369.17,23.47z"/>
		<path d="M425.3,58.95c4.87,1.77,7.82,3.2,8.86,4.29c1.09,1.21,2.15,2.52,3.18,3.91l1.59,1.95c0.24,0.19,0.57,0.11,1.01-0.25
			c1.05-0.94,1.91-1.55,2.58-1.82c0.66-0.27,1.42-0.33,2.28-0.17s2.39,0.59,4.59,1.28l2.44,0.88c5.96,2.16,9.76,4.2,11.41,6.13
			c1,1.18,1.16,3.13,0.48,5.84c-0.64,2.62-3.18,10.03-7.59,22.21c-5.11,14.07-8.75,23.42-10.94,28.04
			c-2.11,4.13-5.27,8.2-9.47,12.18c-7.88,7.65-16.74,10.82-26.57,9.5c-3.12-0.42-7.2-1.54-12.25-3.37
			c-4.51-1.64-7.95-3.21-10.3-4.73c-2.36-1.52-4.72-3.53-7.08-6.01c-2.01-2.06-3.36-3.82-4.05-5.3c-0.58-1.23-0.7-2.3-0.37-3.2
			c0.23-0.63,0.42-1.02,0.58-1.17c0.93-1.71,3.02-4.04,6.29-6.98c3.27-2.95,5.26-4.3,5.98-4.03c0.63,0.23,2.18,1.45,4.64,3.67
			c3.35,3.15,6.65,5.32,9.89,6.5s6.29,1.03,9.12-0.44c2.83-1.47,5.34-4.11,7.54-7.91l0.96-1.8l-2.88,0.33
			c-4.96,0.45-9.97-0.25-15.02-2.08c-10.65-3.86-16.38-11.71-17.19-23.54c-0.49-5.69,0.3-11.38,2.36-17.06
			c3.53-9.74,9.55-15.78,18.05-18.11c3.85-1.05,8.03-1.32,12.54-0.81C419.41,57.02,421.87,57.7,425.3,58.95z M428.36,84.71
			c-3.52-1.28-6.55-1.43-9.1-0.47c-2.55,0.97-4.29,2.76-5.24,5.37c-0.43,1.17-0.55,2.35-0.37,3.54c0.45,3.84,2.61,6.46,6.49,7.87
			c1.53,0.56,3.12,0.83,4.76,0.81l1.5,0.08l1.91-5.28c2.19-6.04,2.92-9.61,2.19-10.69C430.07,85.49,429.35,85.07,428.36,84.71z"/>
		<path d="M519.1,100.03c2.73,1.79,5.25,3.72,7.55,5.81c5.29,5.07,8.87,10.8,10.77,17.2c1.89,6.4,1.74,12.32-0.45,17.77
			c-0.44,1.2-1.21,2.65-2.32,4.33c-3.21,4.9-6.78,8.73-10.71,11.49c-3.93,2.76-8.66,4.69-14.19,5.77c-5.13,1-9.72,1.01-13.78,0.02
			c-4.06-0.99-7.85-2.64-11.38-4.96c-6.19-4.05-10.83-9.21-13.95-15.5c-3.12-6.28-4.65-12.57-4.61-18.85
			c0.04-6.28,1.38-11.43,4-15.45c0.84-1.28,2.3-3.08,4.39-5.39c11.11-11.19,23.21-13.54,36.28-7.05
			C513.82,96.8,516.61,98.4,519.1,100.03z M507.53,119.81c-1.12-0.74-2.27-1.09-3.44-1.05c-4.05-0.13-7.15,1.46-9.3,4.75
			c-0.79,1.2-1.36,2.78-1.72,4.73c-0.5,3.92,0.82,6.9,3.95,8.95c1.69,1.1,3.49,1.51,5.4,1.21c1.92-0.3,3.54-1.21,4.89-2.74
			c0.24-0.19,0.59-0.64,1.07-1.37c1.26-1.93,2.03-4.06,2.3-6.41c0.27-2.34-0.02-4.26-0.89-5.74
			C509.08,121.12,508.33,120.33,507.53,119.81z"/>
	</g>
</g>
</svg>
