<svg id="Capa_1" data-name="Capa 1" xmlns="http://www.w3.org/2000/svg" viewBox="0 0 1034.44 1039.09"><defs><style>.cls-1{opacity:0.9;}.cls-2{fill:#ffce00;}</style></defs><g class="cls-1"><path class="cls-2" d="M386.42,1023.61a4.87,4.87,0,0,0,1.23.35C387.81,1024,387.52,1023.82,386.42,1023.61Z"/><path class="cls-2" d="M139.87,155.1c.3-.3.42-.48.71-.79a19.33,19.33,0,0,1-.2-3.24C140.19,152.4,140,153.75,139.87,155.1Z"/><path class="cls-2" d="M282.65,54.08c-.13,0-.31.2-.6.81l1.06-.27C282.92,54.37,282.81,54.08,282.65,54.08Z"/><path class="cls-2" d="M4.19,525.34a15.85,15.85,0,0,1-.5-2.92A5.62,5.62,0,0,0,4.19,525.34Z"/><path class="cls-2" d="M698.62,1007.71l-1.25-.25-.68.33c.55,0,1.1-.08,1.67-.08Z"/><path class="cls-2" d="M685.61,1011.48a26,26,0,0,0,4.33-.69c1.17-.25,2.34-.49,3.27-.61-.65-.32,2.3-1.82,3.48-2.39a25.46,25.46,0,0,0-6.28,1,33.06,33.06,0,0,0-5.91,2.24C684.6,1011.36,685,1011.48,685.61,1011.48Z"/><path class="cls-2" d="M694.64,1010.14a2,2,0,0,0-.45,0,7.55,7.55,0,0,0-1,.08,1,1,0,0,0,.41.06A6.83,6.83,0,0,0,694.64,1010.14Z"/><path class="cls-2" d="M1034.09,585l.35,1.77A7.29,7.29,0,0,0,1034.09,585Z"/><path class="cls-2" d="M1013.7,671.83l1.92,1.62C1015,672.33,1014.33,671.93,1013.7,671.83Z"/><path class="cls-2" d="M140.38,151.07l.24-1.54A5.53,5.53,0,0,0,140.38,151.07Z"/><path class="cls-2" d="M433.71,4.85a3.12,3.12,0,0,0,1.14,1.6,4,4,0,0,1,.45-.06Z"/><path class="cls-2" d="M636.31,19.88c4.26.68,8.47,1.58,12.71,2.39.25-.21.8-.33.91-.61a65.4,65.4,0,0,0-9.2-3c-2.16-.54-4.6-1.11-7.26-1.7s-5.53-1.24-8.6-1.78l-1.3,2.66C627.84,18.39,632.06,19.17,636.31,19.88Z"/><path class="cls-2" d="M1012.6,521.89v-2.6a488.25,488.25,0,0,0-22-145.19l0-.13c-.75-4-1.42-8.28-2.13-12.58-2.87-17.16-6.49-35-9.24-41.25a39.79,39.79,0,0,0-1.2-5.23,55.14,55.14,0,0,0-2-5.2c-.75-1.74-1.58-3.48-2.46-5.24s-1.88-3.48-2.87-5.24l-6.18-10.76q-1.55-2.75-3-5.59c-1-1.89-1.91-3.81-2.75-5.78-3.07-6.07-5-9.88-6-12.51a11.79,11.79,0,0,1-1.09-5.08c.14-2.1,1.36-2.85-1.26-9.38-2.27-4.47-3.3-6-3.72-6s-.2,1.51,0,3,.4,3,0,3c-.2,0-.53-.3-1-1l-4-9.7c-1.36-3.23-2.81-6.41-4.22-9.64,2.88,3.92,4.23,5.22,4.78,5.22.82,0-.08-2.84-.29-4.31-4.85-7.59-10.68-17.73-16.35-26.13A89.39,89.39,0,0,0,917.34,194c-2.65-2.67-5-4.35-7-4.48l-4.53-6.73c-1.32-2-2.44-3.71-3.41-5.26-2-3.07-3.38-5.35-4.52-7.28a48.33,48.33,0,0,0-7.26-10.08c.86,1.63,2.34,3.85,3.51,5.78s1.94,3.59,1.55,4c-1.87-3.46-2.89-4.64-3.24-4.64-.1,0-.15.09-.14.26a12.48,12.48,0,0,0,2.06,4.7,50.57,50.57,0,0,1-5.46-5.28c-2.13-2.31-4.45-5.16-7.07-8.2s-5.32-6.47-8.25-9.85l-4.39-5.19c-1.47-1.74-3-3.42-4.5-5.12C853.42,124,842,113,838,113a1.52,1.52,0,0,0-.69.14l.7-.91c-4.33,1.24-4.34,5.67-8.64,5.67a13.27,13.27,0,0,1-5.06-1.31L820,110.88c-1.59-.74-3.17-1.5-4.77-2.21l-4.82-2.13c-4.82-5.19-1.34-4.28-1-4.75-1.88-1-3.83-2.05-5.83-3.2s-4-2.4-6.1-3.73-4.2-2.64-6.34-4-4.29-2.91-6.52-4.32c-4.43-2.88-8.9-5.94-13.46-8.76-2.27-1.43-4.51-2.9-6.8-4.24s-4.53-2.66-6.77-3.92c2.22,3.58,4.43,7.09,6.55,10.68s4.17,7.19,6.2,10.75c-6.61-5.41-16-13.14-24.6-18.83a91.63,91.63,0,0,0-11.65-6.86,15.36,15.36,0,0,0-5.88-1.87,2.44,2.44,0,0,0-1.11.22c-2.55-2.66-5.11-5.38-7.73-8-3.6-2.58-6.69-4.6-9.34-6.19a56,56,0,0,0-6.84-3.39,24.17,24.17,0,0,0-4.79-1.47,13.91,13.91,0,0,0-2.2-.18c-.41,0-.8,0-1.16.05-2.07.21-3.46.85-5.28.85-1.53,0-3.35-.45-6.13-2l-7.52-4.89c-2.52-1.65-5.09-3.16-7.65-4.75,2.77.86,5.55,1.64,8.29,2.56L685,39l-10.29-5c-3-1.45-5.7-2.77-8.28-4.08s-5.06-2.54-7.69-3.89-5.41-2.84-8.64-4.37l-.18.08c.89.42,1.44.78,1.5,1.08L649,22.27c-1,.65-2.84,1-5.39,1-.92,0-1.92,0-3-.13-2.06-.15-4.42-.37-7-.78s-5.4-1-8.41-1.58c-4.25-1-8.31-1.71-12.44-2.25L600,16.88c-2.25-.28-4.57-.6-7-1-1.21-.19-2.45-.41-3.73-.64s-2.58-.43-3.93-.68c-2.69-.5-5.53-1.1-8.54-1.82s-6.23-1.43-9.66-2.35l-3.65,2.07-3.63,2.15c-3.42-.68-6.86-1.41-10.3-2l-10.37-1.82.1-3.78c10.3.41,25.16.9,40.73,2.22a427.3,427.3,0,0,1,44.9,6l.79-1.61c-3.89-.72-7.91-1.45-12-2s-8.08-1-12-1.4-7.58-.7-11-1.07-6.45-.61-9-1a40.54,40.54,0,0,1-4.69-1.63,28.66,28.66,0,0,1-4.77-2.29c-2-1.27-2.92-2.58-.94-3.5-2.56.71-5.12,1.42-7.66,2.16-6.62-.35-12.41-.75-17.6-.85l-7.35-.23c-2.31-.06-4.5-.05-6.58-.08-8.35-.17-15.08-.06-21.9-.18l-22.4-.06h-3.34L481,1.49l-7.71.12c-2.72,0-5.61.19-8.69.29s-6.36.2-9.84.45c1.68.42,3.36.79,5,1.26-5.39,1.26-10.75,2.58-15.19,3.26a33,33,0,0,1-5.44.56,7.58,7.58,0,0,1-4.32-1C418.34,9,401.56,12,386.17,14.93s-29.46,5.6-40.63,7.11c-1,1.93-2,3.86-3,5.84-3.35,1.15-8.14,1.06-12.22,1.67s-7.4,1.88-7.8,5.42c-4.44,2.53-8.78,5.23-13.14,7.84a109.24,109.24,0,0,0-11.33,6,46,46,0,0,1-12.82,5.27h0l-.06,0c-.67.17-1.38.36-2.08.5a.73.73,0,0,0,.28.27C273.21,59.12,273.76,60,273.9,61c.08.48.05,1-1.43,2A30.41,30.41,0,0,1,269,65c-1.64.83-3.84,1.8-6.69,3.14-4.26.67-5.47,3-6.94,5.87s-3.17,6.26-8.57,9c-4.56.38-9.11.86-13.73,1.33a70.11,70.11,0,0,0-12.12,7A88,88,0,0,0,212.36,99c-2.76,2.76-5.63,5.89-9.43,9.48-1.88,1.82-4,3.82-6.34,6l-3.82,3.35q-2,1.8-4.29,3.73a73.07,73.07,0,0,1-9,4.75,18.09,18.09,0,0,1-6.57,1.7c-3.4,0-4.63-2.35-2.35-7.62-3.41,6.92-3.89,8.75-5.12,10.67a40.9,40.9,0,0,1-2.75,3.62c-.68.84-1.52,1.84-2.53,3.12l-3.62,4.73-.73,0c-2.87,0-1.86-1.81-.48-6a45.9,45.9,0,0,0-7,5.63,10.56,10.56,0,0,0-2.31,3.58c-.82,2.11-1,4.05-5.49,8.55.78,5.83,3.26,13.79.76,16.91l4.3-2.53c-7.08,11.23-15.41,22.59-26.54,33.06l-1.45-1.87-4.46,6.77L111,210l-2.15,3.43-3-.92c-2.15,3.22-4.34,6.4-6.38,9.68l-3.11,4.88-1.55,2.44L93.32,232l2.41-2.21c-1.33,2.38-4.28,7.39-7.62,12.84-1.65,2.74-3.42,5.57-5.2,8.21A86,86,0,0,1,77.83,258l-1.21-1.14c-9.47,11.17-15.42,23.08-20.44,36S47,319.6,41.28,335.39l-1.52-5.33c-3.59,4.79-2.69,6-1.67,7.51s2.07,3.32-1,9.48l-4.07-.71c.48,6.58-.94,10.18-3.16,13.08a53.68,53.68,0,0,1-3.68,4.09,25.6,25.6,0,0,0-3.62,4.74l6.22-2.19-2.78,7.35-1.38,3.67-1.3,3.71a32.33,32.33,0,0,1-4.11,8.14c-1,1.36-2,1.89-2.78,1.89l-.29,0c-1.8-.27-3.15-3-4.16-4.61.37,4.22.81,8.43,1.23,12.6L8.13,400c1.74,4.88,1.06,6.94-.1,9.77S5.3,416.19,5.3,424a1.32,1.32,0,0,1-.6.15,1.78,1.78,0,0,1-1-.4,1.56,1.56,0,0,0-.79-.4c-.44,0-.89.55-1.58,2.58l1.21,13,1.55,12.91c-.25-5.11-.61-10.27-.75-15.42l6.51,2.88a42.2,42.2,0,0,1,.68,10.25,36.28,36.28,0,0,1-.51,4c-.21,1.26-.47,2.45-.75,3.6-1.12,4.61-2.67,8.66-2.16,14.3-.44-2.61-.94-5.23-1.3-7.85-.12,18.29-2.89,19-5.08,29.26.88-1.91,2.05-4.41,2.93-4.41.56,0,1,1,1.18,3.93.16,5.42-2.54,2.81-3.49,7.92a5.37,5.37,0,0,1,2.88,3A24.91,24.91,0,0,1,6,509.53a44.65,44.65,0,0,1,.59,8.09,56.92,56.92,0,0,1-.73,8.86,2.29,2.29,0,0,1-1.71-1.14c.81,3,1.92,4.53,1,9.8l-5.2-3c1.71,3.36,3.48,6.68,5.22,10-.61,3.39.26,7.5.77,10.66.49,3,.71,5.09-.7,5.09l-.31,0-1.26-3.76q1.06,25.6,4.65,51.09l-3.91,1.38c1.6,1,2.53,3.29,3.19,6.07a82,82,0,0,1,1.51,9.11,34,34,0,0,0,1.64,7.79c.58,1.43,1.32,2.29,2.35,2.29a2.55,2.55,0,0,0,1.09-.28c-.42,2.57,0,6.17.94,10s2.05,8,3.17,11.63,1.9,6.88,1.89,9c0,1.59-.46,2.54-1.7,2.54a4.31,4.31,0,0,1-1.42-.29c1.14,4.1,2.34,7.93,3.57,11.57s2.67,7,4,10.35,2.9,6.46,4.35,9.61c.75,1.57,1.47,3.15,2.24,4.7s1.55,3.11,2.33,4.68a464.36,464.36,0,0,1,20,45.15c.18,8.06,5.52,20.91,12.86,34.35,1.87,3.33,3.79,6.75,5.83,10.13l6.21,10c2.14,3.25,4.23,6.45,6.25,9.53s4.06,6,5.88,8.79c8.09,10.23,15.74,19.31,23.39,27.62,3.75,4.21,7.61,8.14,11.35,12.08,1.87,2,3.81,3.85,5.7,5.76s3.77,3.82,5.73,5.66a609.77,609.77,0,0,0,52.36,45.26c9.1,13.76,25.46,25.4,42.87,35.47s35.81,18.76,49.68,29l5,.52,5,.41c8.72,7.75,21.94,13.48,36.36,19s30.1,10.65,44.51,18c4,.33,7,.68,9.2,1s3.7.47,4.59.65a4.72,4.72,0,0,1-3.28-4.26,58.55,58.55,0,0,0,7.57,2.79c1.41.43,2.86.88,4.29,1.29s2.84.78,4.17,1.18c5.3,1.59,9.28,3.22,8.13,5.35-.79,0-1.57,0-2.36,0-1.2,2.18,5.7,3.13,14,4.27,4.16.48,8.67,1,12.72,1.78s7.67,1.61,10,3L437,1033.1l8.37,1.81,8.43,1.61-4.69.33,9.52,0c14.8,0,27.8.24,39.89.68,14.61.47,27.85,1.13,41,1.48,3.22.07,6.43.11,9.65.11a279,279,0,0,0,30.65-1.56A201.78,201.78,0,0,0,625.38,1027c-1.87,1.67-2.16,2.26-1.48,2.26a29.28,29.28,0,0,0,5.19-1.58c2.77-1,6-2.12,8.34-2.12,1.4,0,2.47.41,2.89,1.48a32.7,32.7,0,0,0,6,.56,36.05,36.05,0,0,0,7.07-.72,45.4,45.4,0,0,0,11.32-4.18c.88-.45,1.75-.92,2.61-1.39s1.71-1,2.54-1.52l4.94-3.09c3.27-2,6.42-4.05,9.67-5.64-.09-.28,0-.66.6-1.36,2-.59,4-1.14,6-1.78L697,1006c2-.65,4-1.26,6-1.93l5.91-2.05c-2.39,2.62-3.11,3.59-2.88,3.59s2.47-1.83,4.64-3.72c1.87-1.62,3.74-3.31,4.49-3.93a1.09,1.09,0,0,1,.33-.23c.13,0-.53.82-2.51,2.91a304.72,304.72,0,0,0,48.66-19.31,422.75,422.75,0,0,0,49.27-28.9c8.1-5.44,16-11.27,23.9-17.21,3.88-3,7.8-6,11.63-9.15s7.67-6.2,11.38-9.43c15-12.72,29.33-26,42.89-39.28l-3.73,1c1.72-1.66,3.41-3.47,5.1-5.33s3.4-3.76,5.11-5.69l5-5.93c1.67-2,3.35-3.93,4.94-5.91,3.22-3.94,6.45-7.67,9.46-11.12,1.52-1.71,3-3.32,4.51-4.8s2.9-2.87,4.33-4.07c5.72-4.8,9.44-12,12-18.56,1.26-3.29,2.27-6.4,3.14-9a37.08,37.08,0,0,1,2.24-5.9A49.9,49.9,0,0,1,964,785.28c2-2,3.67-3.15,4.3-3.15.22,0,.31.14.25.42a84.62,84.62,0,0,0,4.35-10.46c1.43-4.07,2.82-8.22,4.23-12.58.72-2.16,1.49-4.35,2.35-6.57s1.7-4.52,2.72-6.82,2.17-4.63,3.38-7,2.62-4.85,4.19-7.35c2.35-1.11,4.69-5.56,7.1-11.48a203.14,203.14,0,0,0,6.48-20.75c.49-1.83,1-3.62,1.45-5.4s.9-3.51,1.33-5.19c.87-3.33,1.76-6.39,2.54-9,1.53-4.92,3.09-8.11,4.78-8.11a1.24,1.24,0,0,1,.27,0l-.5-.43c6.88-13.58,9.74-28.06,12-42.77s3.81-29.73,8.12-45.45a6.78,6.78,0,0,1,.81,1.82,498.84,498.84,0,0,0-17.91-65.71Z"/><path class="cls-2" d="M968.53,782.55c-.21.44-.43.87-.65,1.3A4.1,4.1,0,0,0,968.53,782.55Z"/><path class="cls-2" d="M571.37.68,573.83,0A10.51,10.51,0,0,0,571.37.68Z"/><path class="cls-2" d="M756.51,68.93l1.1.64c-1-1.58-2-3.17-3-4.7C755.26,66.21,755.89,67.55,756.51,68.93Z"/><path class="cls-2" d="M948.49,239.09a67.4,67.4,0,0,0-5.6-8.63c-.38-.44-.62-.63-.76-.63s-.19.36-.11.88c1.15,1.76,2.28,3.38,3.38,4.79A28,28,0,0,0,948.49,239.09Z"/></g></svg>