<svg id="Capa_1" data-name="Capa 1" xmlns="http://www.w3.org/2000/svg" viewBox="0 0 190.44 252"><defs><style>.cls-1{fill:#d5d5d5;}</style></defs><path d="M179.22,72.66l0,0s0,0,0,0Z"/><path d="M172.36,77c-1.72,5.42-3.51,10.71-5.3,15.87,1.16,1.23,2.26,2.5,3.3,3.79A72.47,72.47,0,0,1,179.15,111a96,96,0,0,1,7,20.75,101.05,101.05,0,0,1,2.23,21.32,115.65,115.65,0,0,1-1.29,17v0l0,.21-.62,3.9a16.79,16.79,0,0,1-1.26,4.17,115.64,115.64,0,0,1-3.93,13.32,103.14,103.14,0,0,1-20.09,33.71,79.42,79.42,0,0,1-19.67,16.09,77.27,77.27,0,0,1-23.72,8.79A91.65,91.65,0,0,1,100.2,252a100.85,100.85,0,0,1-28.9-4.38l-1.6-.47a16.67,16.67,0,0,1-4.76-2.31l-.61-.22c-1.19-.38-2.36-.77-3.51-1.16a16.6,16.6,0,0,1-4.63-1.23l-1.54-.66a111,111,0,0,1-10.19-5.06,92.83,92.83,0,0,1-19-12.9A76.42,76.42,0,0,1,14.3,211.42a72,72,0,0,1-7.61-13.07A74.76,74.76,0,0,1,1.46,181.6,82.79,82.79,0,0,1,0,166.16V166c0-.84,0-1.67,0-2.5A103.42,103.42,0,0,1,6.32,128a114,114,0,0,1,5.58-12.79,16.79,16.79,0,0,1,1.68-3.91l2-3.32,0,0,.14-.24,0-.06,0-.07v0A110.3,110.3,0,0,1,34.55,84.52,96.1,96.1,0,0,1,59.82,67.59,74.3,74.3,0,0,1,73,62.9a64.66,64.66,0,0,1,7.75-1.42c2-5.11,4-10.32,6.13-15.59a26.35,26.35,0,0,1-2.43-7.71,25.31,25.31,0,0,1-.3-4,28.89,28.89,0,0,1,1.77-9.88l.34-.86a.09.09,0,0,1,0,0s0,0,0,0h0c0-.09.07-.23.12-.44h0c.08-.31.19-.61.28-.91h0l.07-.18c.16-.52.31-1.05.5-1.56a29.54,29.54,0,0,1,4.15-7.72,27.92,27.92,0,0,1,6.2-6.08,30.62,30.62,0,0,1,7-3.72A36.09,36.09,0,0,1,111.23.86h0c1.08-.19,2.06-.33,2.93-.43l.93-.11h0A58.35,58.35,0,0,1,121.38,0a65.1,65.1,0,0,1,9,.63,78.86,78.86,0,0,1,8.28,1.59h.06l.11,0a96,96,0,0,1,10.7,3.21l.42.16.42.14h0a94.89,94.89,0,0,1,10.26,4.41l.07,0,.09,0a78.25,78.25,0,0,1,9.72,5.66,61.52,61.52,0,0,1,9.47,8l0,.05c.24.24.44.46.63.66h0c.6.64,1.27,1.37,2,2.23a36.46,36.46,0,0,1,4,5.7,31,31,0,0,1,2.93,7.31v0h0a28.5,28.5,0,0,1,.89,7,29.78,29.78,0,0,1-1.83,10.16c-.32.88-.67,1.74-1.06,2.57v0c-.08.17-.14.3-.17.38l0,.1c-.1.29-.2.59-.31.89A29.42,29.42,0,0,1,184,67.18a27.12,27.12,0,0,1-4.74,5.48h0A26.34,26.34,0,0,1,172.36,77Z"/><path class="cls-1" d="M169.24,174.26,168,174h0l1.28.31c.24-1,.45-2.07.66-3.11l.28.46.63-3.9h0c2.56-17.29.82-34-6.58-49.65-3.75-8-8.88-14.93-16.29-19.9l-.1-.07a2.84,2.84,0,0,1,.12-.46c3.36-9.77,6.9-19.53,9.91-29.47.13-.44.26-.85.4-1.23A7.15,7.15,0,0,1,160,64a4.2,4.2,0,0,1,1.23-.79l.32-.13a15.06,15.06,0,0,0,1.93-.45,10.09,10.09,0,0,0,4.83-2.34,11.76,11.76,0,0,0,3.22-4.88c.07-.18.13-.36.19-.53h0c0-.13.09-.26.13-.4.21-.56.47-1.14.75-1.74.2-.43.37-.86.53-1.29a12.52,12.52,0,0,0,.45-7.49A16.48,16.48,0,0,0,170,37.48c-.46-.55-.94-1.08-1.43-1.6l-.45-.47A52.16,52.16,0,0,0,153.33,25a80,80,0,0,0-8.62-3.72l-.43-.14-.42-.17a80.24,80.24,0,0,0-9-2.69,52.31,52.31,0,0,0-18-1.54l-.64.07c-.71.09-1.42.19-2.13.31a16.52,16.52,0,0,0-6.88,2.69,12.56,12.56,0,0,0-4.47,6c-.15.43-.29.87-.41,1.33h0c-.18.63-.35,1.24-.56,1.81l-.15.4h0c-.07.17-.14.35-.2.52a11.89,11.89,0,0,0-.67,5.82,10.1,10.1,0,0,0,2.2,4.89,15,15,0,0,0,1.19,1.59c.06.1.11.2.16.3a4.16,4.16,0,0,1,.46,2.12,8.38,8.38,0,0,1-.59,2.61c-.13.37-.29.77-.47,1.2h0C99.58,58,96,67.73,92.31,77.37a3.49,3.49,0,0,1-.19.43H92c-8.87-1-17.28,1.09-25.26,4.77C51,89.83,38.93,101.49,29.78,116.39h0l0,.06-2,3.32.5-.16c-.51.92-1,1.86-1.5,2.8a98.82,98.82,0,0,0-4.93,11.26A86.64,86.64,0,0,0,16.54,166a61.78,61.78,0,0,0,5.21,25.56,57.87,57.87,0,0,0,14.62,19.68A76.5,76.5,0,0,0,52.31,222a93.33,93.33,0,0,0,8.9,4.43l1.54.66.13-.43,1.34.51c1.7.61,3.46,1.21,5.27,1.78l.08,0c1.58.57,3.29,1.14,5.11,1.69l-.27.67,1.6.48c12.48,3.71,25.35,4.89,38.63,2.29a60.59,60.59,0,0,0,34.25-19.68,86.89,86.89,0,0,0,16.9-28.36A98.33,98.33,0,0,0,169.24,174.26Zm-8.71,13.13a22.29,22.29,0,0,1-2.57-.76,19.72,19.72,0,0,1-6.29-3.65c-2.87-2.54-6.59-4.53-11.62-6.36a148,148,0,0,0-15.31-4.39,28.15,28.15,0,0,0-8.65-1,13.27,13.27,0,0,0-4.72,1.22,26.48,26.48,0,0,0-5.83,4.1,89.28,89.28,0,0,1-7.32,5.81,14.39,14.39,0,0,1-7.47,2.6,23.14,23.14,0,0,1-9.44-1.59,61.18,61.18,0,0,1-15.58-9.06A164.06,164.06,0,0,1,46.67,156.9c-6.45-6.74-11.12-11.17-14.52-14.06a48.3,48.3,0,0,0-4.25-3.28A13.38,13.38,0,0,0,25,138h0c.33-1,.66-2,1-2.92C33.55,114.43,46.46,98.51,65.71,88A57.43,57.43,0,0,1,72,85c1.26-.48,2.55-.93,3.86-1.33.63-.2,1.26-.37,1.88-.54l.55-.13c.28-.08.57-.14.85-.21A39.69,39.69,0,0,1,93,82.18a3.34,3.34,0,0,0,1.37-.07,2.56,2.56,0,0,0,.91-.48,2.73,2.73,0,0,0,.71-.95c.14-.3.23-.56.31-.78Q101.6,66,106.89,52.21c.58-1.5,1.27-3,2-4.59a78.6,78.6,0,0,0,21.3,11.87l.12,0,.13,0a78.49,78.49,0,0,0,23.94,4.59c-.46,1.69-.89,3.28-1.42,4.81q-4.8,14-9.7,28c-.07.21-.15.43-.23.7a3.24,3.24,0,0,0-.13.7,2.41,2.41,0,0,0,.33,1.39,3.19,3.19,0,0,0,1.1,1.09,39.44,39.44,0,0,1,10.2,9.38c.19.24.36.48.54.72s.22.29.32.44c.37.53.74,1.07,1.1,1.62.74,1.15,1.44,2.33,2.1,3.51a56.41,56.41,0,0,1,2.93,6.34c8,20.42,7.66,40.92.15,61.57C161.32,185.42,160.92,186.4,160.53,187.39ZM111.36,43.88l-.55-.52-.7-.65a26.26,26.26,0,0,1-4.32-6,9.9,9.9,0,0,1-.34-1h0a7.63,7.63,0,0,1-.22-1c.32.5.64,1,1,1.49,4.14,5.49,9.64,9.11,15.31,12.2l.12.06a77.14,77.14,0,0,0,10.77,4.88l.1,0,.1,0A78.49,78.49,0,0,0,144,56.62l.14,0c6.33,1.28,12.87,2,19.57.49.59-.14,1.16-.31,1.72-.49a6.68,6.68,0,0,1-.81.63c-.29.19-.58.36-.87.52a26.6,26.6,0,0,1-7.18,1.82c-.31,0-.63,0-.94.06l-.77,0c-1.27,0-2.54,0-3.79,0a59.5,59.5,0,0,1-13.66-2.39q-2.87-.83-5.66-1.82t-5.5-2.25a59.7,59.7,0,0,1-12-6.93C113.28,45.54,112.31,44.73,111.36,43.88Zm50.34-8.55a23.14,23.14,0,0,1,6.84,7.79,6.69,6.69,0,0,1,.66,5.35A4.79,4.79,0,0,1,168,50.33a6.87,6.87,0,0,1-2.31,1.4,29.82,29.82,0,0,1-9,1.79c-7.73.38-15.16-1.61-22.61-4.16-7.34-2.82-14.31-6.08-20-11.34a29.92,29.92,0,0,1-5.76-7.17,6.77,6.77,0,0,1-.87-2.56,4.83,4.83,0,0,1,.25-2.22,6.65,6.65,0,0,1,3.94-3.67,23.09,23.09,0,0,1,10.25-1.58A70.43,70.43,0,0,1,161.7,35.33Z"/><path class="cls-1" d="M91,139.05h0v0h0a8.89,8.89,0,0,0-.45-7,9.56,9.56,0,0,0-5-4.68h0l-.13-.05a7.62,7.62,0,0,0-3.39-.41,8.62,8.62,0,0,0-4.53,2,10.05,10.05,0,0,0-3,4.26v0h0v0l0,.06h0a9.47,9.47,0,0,0,0,6.68,8.19,8.19,0,0,0,1.82,2.76,8,8,0,0,0,2.78,1.78h0l.07,0,.07,0h0A9.29,9.29,0,0,0,91,139.05Zm-10.45,1.84h0a3.69,3.69,0,0,1-1.38-.89A4.55,4.55,0,0,1,78,137.61a6.15,6.15,0,0,1,.3-3.16h0v0a5.78,5.78,0,0,1,2.58-3.07,4,4,0,0,1,3.28-.31h0A5.14,5.14,0,0,1,87,133.72a5.3,5.3,0,0,1,.21,4v0h0a5.29,5.29,0,0,1-2.77,2.92A5.19,5.19,0,0,1,80.57,140.89Z"/><path class="cls-1" d="M113.76,132.78v0a6.18,6.18,0,0,0,.29-3.39,5.37,5.37,0,0,0-1.74-2.94,6.46,6.46,0,0,0-2-1.23,5,5,0,0,0-2.53-.24,8.23,8.23,0,0,0-2.33.79,10.53,10.53,0,0,0-1,.51,3.85,3.85,0,0,0-1.07.95,7.09,7.09,0,0,0-.87,1.68,8.16,8.16,0,0,0-.27.89,5.65,5.65,0,0,0,.55,4.2,6.11,6.11,0,0,0,3.21,2.8,5.15,5.15,0,0,0,.7.2,5.21,5.21,0,0,0,2.19,0,6.69,6.69,0,0,0,2.86-1.44,7.12,7.12,0,0,0,2-2.68v-.07Zm-3.4-1.34a3.39,3.39,0,0,1-1.49,1.77,2.36,2.36,0,0,1-.88.3,1.53,1.53,0,0,1-.72-.07h0a2.36,2.36,0,0,1-1.31-1.21,2.41,2.41,0,0,1-.09-1.85v0h0a3,3,0,0,1,1.5-1.57,3.14,3.14,0,0,1,1-.29,2.35,2.35,0,0,1,.9.11h0a1.8,1.8,0,0,1,1,1,2.44,2.44,0,0,1,0,1.79Z"/><path class="cls-1" d="M97.62,159.19a8,8,0,0,0,.38-4.43A6.84,6.84,0,0,0,95.76,151a8.29,8.29,0,0,0-2.61-1.6,6.37,6.37,0,0,0-3.22-.3,10.47,10.47,0,0,0-3.09,1,12.76,12.76,0,0,0-1.29.68A4.62,4.62,0,0,0,84.21,152a8.55,8.55,0,0,0-1.14,2.2,11.57,11.57,0,0,0-.37,1.19,7.39,7.39,0,0,0,.72,5.45,7.86,7.86,0,0,0,4.14,3.63,6.5,6.5,0,0,0,3.69.24A8.83,8.83,0,0,0,95,162.83a9.4,9.4,0,0,0,2.59-3.53v0l0,0ZM94,157.76a5.35,5.35,0,0,1-2.32,2.75,4,4,0,0,1-1.44.49,2.8,2.8,0,0,1-1.3-.13h0a3.89,3.89,0,0,1-2.31-5v0h0A4.62,4.62,0,0,1,89,153.34a4.7,4.7,0,0,1,1.64-.46,3.62,3.62,0,0,1,1.52.19l0,0h0A3.11,3.11,0,0,1,94,154.83a4,4,0,0,1,0,2.89Z"/><path class="cls-1" d="M87.68,118.51a12.78,12.78,0,0,0,4.66,3l.48-1.33-.48,1.33a12.9,12.9,0,0,0,10.4-.67,14.73,14.73,0,0,0,7-8.09h0l0,0a13.79,13.79,0,0,0-.19-10.26,12.73,12.73,0,0,0-7.35-6.89h0l-.07,0a15,15,0,0,0-10.86.36A13.11,13.11,0,0,0,84,103.18h0l0,.07A14.35,14.35,0,0,0,84.54,114,15.06,15.06,0,0,0,87.68,118.51Zm.72-13.37a8.85,8.85,0,0,1,5-4.93,10.22,10.22,0,0,1,7.4-.25h0a7.75,7.75,0,0,1,4.43,4.27,9.1,9.1,0,0,1,.17,6.65l0,0a10.28,10.28,0,0,1-4.73,5.58,7.87,7.87,0,0,1-6.43.6l0,0a8.64,8.64,0,0,1-3-1.91,10.63,10.63,0,0,1-2.85-4.75A8.63,8.63,0,0,1,88.4,105.14Z"/><path class="cls-1" d="M113.44,24.69a6.85,6.85,0,0,0-2,2.78,6.61,6.61,0,0,0-.27,3.4,9,9,0,0,0,1.49,3.5,26.57,26.57,0,0,0,5.45,5.74A64.35,64.35,0,0,0,133.93,49l.11,0,.13,0c4,.93,8,2.06,12.1,2.81a38.8,38.8,0,0,0,6.85.69,21.66,21.66,0,0,0,7.07-1.12,7.82,7.82,0,0,0,5-4.59,6.35,6.35,0,0,0,.32-3.13,7.4,7.4,0,0,0-1.3-3.17A30.72,30.72,0,0,0,156.88,33a60.18,60.18,0,0,0-14.1-7.35,70.43,70.43,0,0,0-13.34-3.35,38,38,0,0,0-6.25-.51,21.14,21.14,0,0,0-6.45,1A9.67,9.67,0,0,0,113.44,24.69Zm4.64,2.38a22.28,22.28,0,0,1,7.39-.79,58.38,58.38,0,0,1,15.62,3.35,60,60,0,0,1,14.15,7.44,22.05,22.05,0,0,1,3.16,2.63A11.86,11.86,0,0,1,160.69,43a3.26,3.26,0,0,1,.28,2.52,2.4,2.4,0,0,1-.61.91,3.77,3.77,0,0,1-1.19.77,15,15,0,0,1-5.1,1.13,24,24,0,0,1-5.31-.38c-4.41-.74-8.82-1.89-13.31-2.9-5-2.21-9.72-4.45-13.83-7.63A26.23,26.23,0,0,1,116.35,32a4.36,4.36,0,0,1-.79-1.71,2.55,2.55,0,0,1,.08-1.36,2.39,2.39,0,0,1,.79-1.07A4.3,4.3,0,0,1,118.08,27.07Z"/></svg>