<?xml version="1.0" encoding="utf-8"?>
<!-- Generator: Adobe Illustrator 25.4.0, SVG Export Plug-In . SVG Version: 6.00 Build 0)  -->
<svg version="1.1" id="Capa_1" xmlns="http://www.w3.org/2000/svg" xmlns:xlink="http://www.w3.org/1999/xlink" x="0px" y="0px"
	 viewBox="0 0 807.1 558.9" style="enable-background:new 0 0 807.1 558.9;" xml:space="preserve">
<style type="text/css">
	.st0{fill:#4F4E4E;}
	.st1{fill:#FFCE00;}
	.st2{fill:#FFFFFF;}
</style>
<g>
	<path class="st0" d="M65.1,307c26.2-5.7,50.5-9,72.8-10.1s40.2,0.1,53.7,3.4c7.4,2.1,14.4,5.4,20.7,9.9c6.5,4.6,11.2,9.5,14.2,14.9
		c2.1,4.1,3.8,8.4,5,12.8c2.8,13.1-0.3,26.2-9.4,39.2l-7.7,10.2l5.2,1.1c15.5,2.6,27.5,13.5,36.1,32.5c3,6.8,4.8,12.1,5.6,15.8
		c3.2,14.8,0.3,28.1-8.6,39.9s-24.5,23-46.6,33.8c-23,10.9-48.5,19.4-76.4,25.4l-3,0.6c-27.1,5.8-43.9,5.9-50.5,0.2
		c-1.9-1.7-3.9-6.3-6.1-13.9c-1-3.3-3.8-15.6-8.4-36.7l-8.3-36.3L46,415.4c-5.8-26.8-9.6-47.8-11.3-62.9c-1.6-12.8-1.4-22,0.5-27.6
		c1.9-5.6,6.1-10,12.6-13.2C49.9,310.5,55.7,309,65.1,307z M136.3,358.8c-5.7,1.2-9.1,2.8-10.2,4.7c-1.1,1.9-0.9,5.9,0.4,12.2
		l1.8,8.5l9.4-2c14-3,20.1-8.5,18.4-16.5C154.6,358.6,148,356.2,136.3,358.8L136.3,358.8z M151.3,430.2l-8.4,2.7
		c-3.2,1.6-3.8,7.4-1.6,17.4l1.1,5.1l2.4,7.1l7.4-1.1l3.4-0.7c9.1-2,16-6,20.7-12.1c2.7-3,3.6-6.1,2.9-9.6
		c-1.1-4.8-5.3-7.9-12.8-9.3C161.3,428.9,156.2,429.1,151.3,430.2L151.3,430.2z"/>
	<path class="st0" d="M4,160.5l16-3.5c20.5-4.4,36.8-7.2,48.7-8.4s22-0.4,30.2,2.2c8.3,2.7,15.6,7.9,20.9,14.9
		c2,2.5,3.7,5.1,5.1,7.9c0.7,1.6,1.7,5.3,2.9,10.9c1.7,8,2.4,14,1.9,18.1c-2.3,20.9-12.9,36.5-31.8,46.8c-4.7,2.7-11,4.9-18.8,6.6
		l-11.4,2.5l0.2,3.4c0,0.2,0.3,2.1,0.7,5.8l1,8.4c0.7,6.7,0.6,11.2-0.2,13.7c-0.7,1.9-2.5,3.1-5.2,3.7l-9.4,1.5
		c-17.8,2.9-28.2,3.5-31,1.8c-1.3-0.9-2.3-2.8-3-5.9c-1.3-6-2.7-14.3-4.2-24.8c-2.5-17.5-5.9-36.5-10.3-56.8
		c-3.6-16.7-5.6-27.7-6-33c-0.7-5.6-0.1-9.7,1.6-12.3L4,160.5z M57.7,190.3c-2.2,0.5-3.6,1.1-4.1,2c-0.7,1.1-0.1,6,1.8,14.7
		c0.8,4.1,1.8,8,3.1,12c0.6,1.5,2.3,2.3,3.8,1.8l3.7-1.4c4-1.5,7.4-4.3,9.7-7.9c2.2-3.4,3-7.5,2.1-11.4c-0.7-3.1-1.5-5.2-2.4-6.3
		c-1.3-1.4-2.9-2.4-4.8-3C67.1,189.3,62.8,189.2,57.7,190.3z"/>
	<path class="st0" d="M171.9,123.1c6.9-1.5,14.1-2.8,21.7-4c7.6-1.2,12.4-1.5,14.6-1c2,0.3,4.5,2.6,7.4,6.7
		c3.3,4.4,9.2,13.5,17.9,27.2c11.3,17,20.6,30.6,27.9,40.8c17.9,25.4,27.3,40.3,28.2,44.7c0.4,1.8-0.3,3.7-2.2,5.6
		c-3.4,3.6-11.5,6.8-24.2,9.5c-0.7,0.2-1.5,0.3-2.2,0.2l-1.9,0.4c-3.9,0.5-6.9,0-9-1.3s-4.4-4.3-6.9-8.9l-3.7-6.6l-6.4,0.8
		c-9.4,1.2-18.8,2.8-28.1,4.9c-6,1.3-9.6,2.2-10.9,2.6l-8.5,2.7l-1.1,8.2c-0.7,4.9-1.4,8.1-2.2,9.6s-2.7,2.9-5.7,4.1
		c-4.9,1.7-10,3.1-15.1,4.1c-6.9,1.5-11.8,2.2-14.6,2c-2.8-0.1-4.5-1.7-5.1-4.6c-0.8-3.6-0.1-13.4,2-29.2
		c2.5-20.1,4.7-39.1,6.5-57.1c3.6-34.6,7.8-54,12.9-58.1C165.9,124.8,168.9,123.7,171.9,123.1z M196.2,168.1
		c-0.5,0.1-1.6,5.4-3.3,15.8s-2.3,16.5-1.9,18.1c0.4,1.6,5.4,1.4,15-0.7c2.5-0.5,4.9-1.2,7.2-2.1c1.6-0.7,2.2-1.8,1.9-3.3
		c-0.6-2.9-4.6-9.4-11.9-19.4C198.7,170.9,196.4,168.1,196.2,168.1L196.2,168.1z"/>
	<path class="st0" d="M319.3,94.8c18.9-4.1,32.7-6.6,41.4-7.7c8.7-1,15.8-0.6,21.4,1.2c5.5,1.8,11.7,5.7,18.4,11.4
		c9.1,7.7,14.6,16.2,16.6,25.5c0.6,2.8,0.9,5.7,1,8.6c0.5,12.1-2.9,22.4-10.4,31.1l-2.9,3.8l11.2,16.1c8.4,12.5,12.8,19.8,13.3,22
		c0,0.7,0,1.3-0.1,2c-0.2,0.8-5,2.9-14.3,6.4c-6.9,2.7-13.9,4.9-21.1,6.7c-4,0.9-7,0.7-9-0.5c-2-1.2-4.6-4.4-8-9.5
		c-7.4-11.5-12.1-17.2-13.9-17l-4.5,0.4c-1.1,0.1-2.2,0.8-2.8,1.7c-0.4,0.7,0,5.8,1.3,15.4c0.6,5.4,1,9.5,1.2,12.3
		c-0.2,1.8-0.9,3.6-2.1,5c-1.5,1.9-5.1,3.4-10.7,4.6l-11.7,2.5l-8.8,1.6c-3,0.7-6,1.3-9.1,1.7c-2.3,0.1-3.9-0.3-4.8-1.2
		c-1.5-1-2.9-4.4-4.2-10.2c-1.3-5.8-2.2-11.7-2.7-17.7c-1.5-13-5.8-39.8-13.1-80.5c-3-15.7-4-24.3-3-25.9c0.9-1.3,4-2.9,9.6-4.6
		C301.6,98.8,308.8,97,319.3,94.8z M346.6,131.4c-3,0.3-4.6,0.5-5,0.8c-0.8,0.6-1.3,1.5-1.2,2.5c-0.2,1.8,0.3,5.4,1.5,11.1
		c1.6,7.3,2.8,11.1,3.6,11.5c0.9,0.4,2.6,0.3,5.4-0.3c2.7-0.5,5.3-1.4,7.7-2.8c2.2-1.5,4-3.5,5.3-5.7c1.9-2.9,2.7-5,2.6-6.3
		c0.1-0.6,0.1-1.1-0.1-1.7c-1-4.7-4.2-7.7-9.6-8.8C353.6,130.9,350.1,130.8,346.6,131.4L346.6,131.4z"/>
	<path class="st0" d="M450.5,65.3c27.8-6,55.6-11.4,83.5-16.3c11.5-2.3,18.4-2.7,20.8-1.4c2.1,0.9,3.5,3,4.3,6.5l1.2,5.7
		c2.6,13.9,3,22.3,1.2,25.2l-2.1,3.3l-18.4,3.1l-18.7,3.5l8.9,40l4.2,19.4c3.1,14.2,4.4,23.2,4.1,27.1c-0.4,3.6-1.5,7.1-3.2,10.4
		l-2.3,3.6l-14.4,2.2c-14,2.1-22,2.6-23.9,1.5c-0.7-0.6-4.5-16-11.4-46.1c-6.7-29.9-10.3-45.1-11-45.6c-0.5-0.5-5.9,0-16.2,1.5
		c-11.4,1.7-19,2.1-22.9,1.2c-3.4-0.8-5.7-4-6.9-9.6l-0.3-2.8l-0.6-2.7c-1.3-7.9-1.7-13.5-1.2-16.7c0.6-3.4,2.6-6.3,5.5-8.2
		C432.1,69.5,438.7,67.9,450.5,65.3z"/>
	<path class="st0" d="M603.8,28.5c2-0.4,4.2,0.1,6.7,1.7c2,1.5,8.1,7,18.2,16.5s15.6,14.9,16.2,16.1c0.5,0.5,0.8,0.7,1,0.6
		c1.1-0.2,2.8-4.7,5.1-13.4c4.1-13.8,7.2-23,9.4-27.7c2-4.6,4.4-7.2,7.2-7.8c1.8-0.4,7.1-0.7,15.9-0.9c8.8-0.2,14.6-0.1,17.3,0.3
		c4.5,0.6,7.1,2.7,7.9,6.3c0.9,4.2-0.4,13.1-3.7,26.8c-3.5,13.9-8.7,30.5-15.8,49.9c-3.1,8.5-2.6,22.8,1.6,43c2,10,3,16.1,3.1,18.2
		c0.3,1.6,0.1,3.3-0.7,4.7c-1.8,2.1-8.1,4.3-18.8,6.6c-13.6,3-23,3.9-28.2,2.7c-2.1-0.3-4-1.3-5.5-2.8c-1.6-1.9-4.1-11-7.6-27.2
		l-5.5-25.4l-9.8-11c-9.1-10.1-18.7-19.8-28.8-28.9c-7.7-6.5-12-11.9-12.9-16.3c-0.5-2.3-0.1-4.8,1.1-6.8
		c2.4-4.7,8.7-11.5,18.9-20.6C599.2,30.5,601.8,29,603.8,28.5z"/>
	<path class="st0" d="M361.8,229.6c34-7.3,66.4-7,97,1.1s54.3,22.7,70.8,43.9c11.8,16,20.6,37.4,26.4,64.1
		c3.6,16.7,4.2,32.3,1.7,46.8c-2.5,14.5-9.5,30.7-20.9,48.5c-11.4,17.6-26.2,32.7-43.5,44.6c-16.2,11.1-34.4,19.1-53.6,23.3
		c-1.9,0.4-3.9,0.7-5.8,0.7l-6.3,1.4c-27,4.4-52.6,2.6-76.7-5.3c-23.5-7.5-44.6-20.9-61.5-38.8c-16.9-17.9-29.1-39.7-35.5-63.5
		L252,388c-11.2-51.8,5.1-95.1,48.9-130c10.3-8,20-14.1,29.3-18.3C340.3,235.2,351,231.9,361.8,229.6z"/>
	<path class="st0" d="M580.9,205.1c3.9-0.9,8-1,12-0.4c6.5,1.3,18.5,11.8,35.9,31.6c5.2,6,8.1,9,8.6,8.9l10.9-24.2
		c7.1-16.7,11.6-25.8,13.4-27.1c0.2-0.3,1.9-0.9,5-1.5c10.1-2,20.2-3.3,30.4-4.1c12.9-1.1,20.8-1.3,23.6-0.4c7,2.1,11.1,6,12.3,11.6
		c0.5,2.3-2.9,13.2-10.1,32.8c-7.3,19.6-13.6,35.4-19,47.3c-2.9,6-3.8,9.3-2.8,10c12.5,12.2,19.8,19.3,22,21.2
		c25.9,24.8,39.9,41.8,41.9,50.9c1,4.6-0.3,8.9-3.9,12.9c-3.7,3.8-12.1,9.7-25.2,17.8s-21.5,12.5-24.9,13.2c-2.4,0.5-5,0.2-7.3-0.7
		c-2.6-0.9-9.5-8.1-20.7-21.5c-10.1-12.1-17.4-19.9-22.1-23.4l-5.4-4.2l-10.2,27.3c-9.3,24.7-17.1,38.4-23.3,41.3l-2.1,0.5
		c-6.3,1.3-16.7,1-31.3-1.1c-14.6-2.1-24.5-4.8-29.7-8.1c-3.1-2-4.9-4-5.3-6c-0.7-3.1,0.7-8.5,4.1-16.1c3.6-8.2,10.8-22,21.5-41.3
		c11.1-20.3,16.9-31.8,17.2-34.6c0.2-0.7,0.2-1.5,0-2.2c-0.5-2.3-4.8-8.5-13-18.7c-7.7-9.4-17.5-20-29.3-31.7
		c-11-10.7-17-18.8-18.2-24.3c-1.3-6,3.9-12.9,15.6-20.8C565.7,211.2,575.5,206.3,580.9,205.1z"/>
	<path class="st1" d="M70,294c26.5-6,51-9.6,73.6-10.9s40.7-0.3,54.5,2.9c7.5,2,14.6,5.3,21,9.8c6.6,4.6,11.5,9.5,14.5,14.9
		c2.2,4.1,3.9,8.4,5.2,12.9c3,13.3-0.1,26.5-9.2,39.8l-7.6,10.4l5.2,1.1c15.7,2.5,28,13.4,36.9,32.5c3.1,6.9,5,12.2,5.9,15.9
		c3.4,15,0.6,28.5-8.4,40.5c-9,12-24.6,23.6-46.9,34.6c-23.2,11.3-48.9,20.1-77.1,26.5l-3,0.7c-27.4,6.2-44.4,6.4-51.1,0.7
		c-1.9-1.7-4-6.4-6.3-14c-1.1-3.4-4-15.7-8.8-37.1l-8.7-36.6l-7.8-34.6c-6.1-27.1-10.1-48.3-12.1-63.6c-1.7-12.9-1.6-22.3,0.3-28
		c1.9-5.7,6.1-10.3,12.6-13.5C54.7,297.8,60.5,296.1,70,294z M158.4,418l-8.4,2.8c-3.3,1.6-3.8,7.5-1.5,17.6l1.2,5.2l2.5,7.1
		l7.4-1.2l3.5-0.8c9.2-2.1,16.1-6.2,20.8-12.4c2.6-3,3.6-6.3,2.8-9.7c-1.1-4.9-5.4-8-13-9.3C168.6,416.5,163.4,416.8,158.4,418
		L158.4,418z M142.5,345.8c-5.8,1.3-9.2,2.9-10.3,4.8c-1.1,1.9-0.9,6,0.5,12.4l1.9,8.6l9.5-2.1c14.1-3.2,20.3-8.8,18.4-16.9
		C161.1,345.3,154.3,343.1,142.5,345.8L142.5,345.8z"/>
	<path class="st1" d="M566.3,371.1c-2.3,14.5-9.1,30.7-20.4,48.5c-6.9,10.7-14.9,20.5-24,29.3c-53.1,13-106.3,25.4-159.7,37.2
		c-0.3-0.1-0.7-0.2-1-0.3c-23.5-7.3-44.7-20.4-61.7-38.1c-17.1-17.7-29.4-39.3-36-63l-1.9-8.3c-11.6-51.5,4.2-94.8,47.5-130
		c10.2-8.1,19.9-14.3,29-18.5c10.1-4.5,20.6-8,31.4-10.4c33.9-7.6,66.1-7.6,96.8,0.2s54.3,22.2,71,43.1
		c11.9,15.8,20.9,37.1,26.9,63.7C568,341,568.7,356.6,566.3,371.1z"/>
	<path class="st1" d="M510.5,441.3c-5.4,5.2-11.1,9.9-17.3,14.1c-14.6,10.3-31.1,17.6-48.5,21.6c-1.7,0.4-3.5,0.7-5.3,0.7l-5.7,1.3
		c-24.2,4.2-47.2,2.9-68.9-3.9C413.5,464.4,462.1,453.1,510.5,441.3z"/>
	<path class="st1" d="M588.5,192c4-0.9,8.1-1.1,12.1-0.4c6.6,1.3,18.7,11.9,36.2,31.8c5.2,6.1,8.1,9.1,8.7,8.9l10.9-24.5
		c7.2-16.9,11.6-26,13.5-27.3c0.2-0.3,1.9-0.9,5.1-1.6c10.1-2,20.4-3.4,30.7-4.2c13-1.2,20.9-1.3,23.8-0.4c7.1,2.1,11.2,6,12.5,11.7
		c0.5,2.3-2.9,13.3-10.2,33.1c-7.3,19.8-13.7,35.7-19.2,47.7c-2.9,6-3.8,9.3-2.8,10c12.6,12.3,20,19.4,22.2,21.4
		c26.2,25,40.3,42.1,42.3,51.3c1,4.6-0.3,8.9-3.9,13c-3.7,3.8-12.2,9.8-25.4,17.9s-21.6,12.6-25.1,13.4c-2.5,0.5-5,0.3-7.4-0.7
		c-2.6-0.9-9.6-8.1-20.9-21.6c-10.2-12.2-17.6-20.1-22.3-23.6l-5.4-4.2l-10.3,27.5c-9.3,24.9-17.2,38.8-23.5,41.6l-2.2,0.5
		c-6.3,1.4-16.8,1-31.6-1s-24.7-4.8-30-8.2c-3.2-2-4.9-4-5.4-6c-0.7-3.1,0.7-8.6,4.1-16.2c3.6-8.3,10.8-22.2,21.6-41.7
		c11.2-20.5,16.9-32.1,17.2-34.9c0.2-0.7,0.2-1.5,0-2.2c-0.5-2.3-4.9-8.6-13.1-18.8c-7.8-9.4-17.6-20.1-29.5-31.9
		c-11.1-10.9-17.2-19-18.4-24.5c-1.3-6,3.9-13,15.7-21C573.2,198.1,583,193.1,588.5,192z"/>
	<path class="st1" d="M10.5,147.6l16.1-3.5c20.6-4.4,36.9-7.2,48.9-8.4c12-1.2,22.1-0.4,30.3,2.2c8.4,2.7,15.7,8,21,15
		c2,2.5,3.7,5.1,5.1,7.9c0.7,1.7,1.7,5.3,2.9,11c1.7,8,2.4,14.1,1.9,18.2c-2.3,20.9-13,36.6-31.9,47c-4.8,2.7-11.1,5-18.9,6.6
		l-11.5,2.5l0.2,3.4c0,0.2,0.3,2.1,0.7,5.9l1,8.4c0.7,6.7,0.6,11.3-0.2,13.8c-0.7,1.9-2.5,3.1-5.2,3.7l-9.4,1.5
		c-17.9,2.9-28.3,3.5-31.1,1.8c-1.3-0.9-2.3-2.8-3-5.9c-1.3-6-2.7-14.3-4.2-24.9c-2.5-17.6-5.9-36.6-10.3-57.1
		c-3.6-16.8-5.6-27.8-6-33.1c-0.6-5.6-0.1-9.7,1.6-12.4L10.5,147.6z M64.5,177.5c-2.2,0.5-3.6,1.1-4.1,2c-0.7,1.1-0.1,6,1.8,14.8
		c0.8,4,1.8,8,3.1,11.9c0.6,1.5,2.3,2.3,3.8,1.8l3.7-1.4c4-1.5,7.5-4.3,9.7-8c2.2-3.4,3-7.5,2.1-11.5c-0.7-3.1-1.5-5.2-2.4-6.4
		c-1.3-1.4-3-2.4-4.8-3C73.9,176.5,69.6,176.4,64.5,177.5L64.5,177.5z"/>
	<path class="st1" d="M178.9,110.1c6.9-1.5,14.2-2.8,21.8-4c7.6-1.2,12.5-1.5,14.7-1c2,0.3,4.5,2.6,7.5,6.7
		c3.3,4.5,9.2,13.6,17.9,27.4c11.3,17.1,20.7,30.7,28,41c17.9,25.6,27.4,40.5,28.3,44.9c0.4,1.8-0.4,3.7-2.2,5.6
		c-3.4,3.6-11.5,6.8-24.3,9.6c-0.7,0.2-1.5,0.2-2.2,0.2l-1.9,0.4c-3.9,0.5-6.9,0-9-1.4c-2.1-1.4-4.4-4.4-7-9l-3.7-6.6l-6.4,0.8
		c-9.5,1.2-18.9,2.8-28.2,4.9c-6,1.3-9.7,2.2-10.9,2.6l-8.6,2.7l-1.1,8.3c-0.7,4.9-1.4,8.1-2.2,9.6c-0.8,1.5-2.7,2.9-5.7,4.1
		c-4.9,1.7-10,3.1-15.2,4.1c-6.9,1.5-11.8,2.2-14.6,2s-4.5-1.7-5.1-4.6c-0.8-3.6-0.1-13.4,2-29.4c2.5-20.2,4.7-39.3,6.6-57.3
		c3.6-34.8,7.9-54.3,12.9-58.4C172.8,111.7,175.8,110.6,178.9,110.1z M203.3,155.3c-0.6,0.1-1.7,5.4-3.3,15.9
		c-1.7,10.5-2.3,16.6-2,18.2c0.4,1.6,5.4,1.4,15.1-0.7c2.5-0.5,4.9-1.2,7.3-2.1c1.6-0.7,2.2-1.8,1.9-3.3c-0.6-2.9-4.6-9.4-11.9-19.5
		C205.8,158.1,203.4,155.2,203.3,155.3z"/>
	<path class="st1" d="M326.6,81.6c19-4.1,32.9-6.7,41.7-7.7c8.8-1,16-0.6,21.5,1.2c5.6,1.9,11.7,5.7,18.5,11.5
		c9.1,7.8,14.7,16.3,16.7,25.7c0.6,2.9,0.9,5.8,1,8.7c0.5,12.1-3,22.6-10.5,31.2l-2.9,3.8l11.3,16.2c8.4,12.5,12.9,19.9,13.4,22.1
		c0,0.7,0,1.3-0.1,2c-0.2,0.8-5,2.9-14.4,6.4c-6.9,2.7-14,4.9-21.2,6.7c-4,0.9-7,0.7-9-0.5s-4.7-4.4-8.1-9.6
		c-7.5-11.6-12.1-17.3-14-17.1l-4.5,0.4c-1.2,0.1-2.2,0.8-2.8,1.7c-0.4,0.7,0,5.8,1.3,15.5c0.6,5.4,1,9.5,1.2,12.4
		c-0.2,1.8-0.9,3.6-2.1,5c-1.5,1.9-5.1,3.4-10.8,4.6l-11.8,2.6l-8.8,1.6c-3,0.7-6.1,1.3-9.1,1.7c-2.3,0.1-3.9-0.3-4.9-1.2
		c-1.5-1-3-4.4-4.2-10.3c-1.3-5.9-2.2-11.8-2.7-17.8c-1.5-13.1-5.9-40.1-13.2-81c-3-15.8-4-24.5-3-26c0.9-1.3,4.1-2.9,9.6-4.7
		C308.8,85.6,316,83.9,326.6,81.6z M354.1,118.4c-3,0.3-4.7,0.5-5,0.8c-0.8,0.6-1.3,1.5-1.2,2.5c-0.2,1.8,0.3,5.5,1.5,11.1
		c1.6,7.3,2.8,11.2,3.6,11.6c0.8,0.4,2.6,0.3,5.4-0.3c2.7-0.5,5.3-1.4,7.7-2.8c2.2-1.5,4-3.5,5.4-5.8c1.9-2.9,2.8-5,2.7-6.3
		c0.1-0.6,0.1-1.2-0.1-1.7c-1-4.7-4.3-7.7-9.7-8.8C361.1,117.9,357.6,117.8,354.1,118.4L354.1,118.4z"/>
	<path class="st1" d="M458,52.2c27.9-6,55.9-11.5,83.9-16.4c11.5-2.3,18.5-2.7,20.9-1.4c2.1,0.9,3.5,3.1,4.3,6.6l1.2,5.8
		c2.6,14,3,22.4,1.2,25.3l-2.2,3.3l-18.5,3.1L530.1,82l9,40.2l4.2,19.5c3.1,14.3,4.5,23.3,4.2,27.2c-0.4,3.6-1.5,7.2-3.2,10.4
		l-2.4,3.7l-14.4,2.2c-14.1,2.1-22.1,2.6-24.1,1.5c-0.7-0.6-4.5-16-11.4-46.3c-6.7-30.1-10.3-45.4-11-45.8c-0.5-0.5-5.9,0-16.3,1.5
		c-11.5,1.7-19.2,2.1-23,1.2c-3.4-0.8-5.8-4-7-9.7l-0.3-2.8l-0.6-2.7c-1.3-7.9-1.7-13.5-1.2-16.8c0.6-3.4,2.6-6.4,5.5-8.3
		C439.5,56.3,446.1,54.7,458,52.2z"/>
	<path class="st1" d="M611.9,15.1c2-0.4,4.2,0.1,6.7,1.7c2,1.4,8.2,7,18.4,16.6s15.7,15,16.2,16.2c0.5,0.5,0.8,0.7,1,0.6
		c1.1-0.2,2.8-4.7,5.1-13.5c4.1-13.9,7.3-23.2,9.5-27.9c2.1-4.6,4.5-7.3,7.2-7.8c1.8-0.4,7.2-0.7,16-0.9c8.8-0.2,14.7-0.1,17.5,0.2
		c4.5,0.6,7.2,2.7,8,6.3c0.9,4.2-0.3,13.2-3.7,27c-4.5,17-9.8,33.8-15.9,50.2c-3.1,8.5-2.6,23,1.6,43.3c2,10.1,3,16.2,3.1,18.3
		c0.3,1.6,0.1,3.3-0.7,4.8c-1.8,2.1-8.2,4.3-19,6.7c-13.7,3-23.2,3.9-28.5,2.7c-2.1-0.3-4-1.3-5.5-2.8c-1.6-2-4.1-11.1-7.6-27.4
		l-5.5-25.6L626,92.8c-9.2-10.2-18.8-19.9-29-29.1c-7.7-6.6-12.1-12-13-16.4c-0.5-2.3-0.1-4.8,1.1-6.8c2.4-4.7,8.8-11.7,19.1-20.8
		C607.3,17.1,609.9,15.5,611.9,15.1z"/>
	<path class="st1" d="M804.9,423.1c1.4-2.5,0.5-5.7-2-7.1c-1-0.6-2.2-0.8-3.3-0.6c-53,6.2-105.8,13.2-158.6,20.9l5-1.3l15-4l11-2.2
		c1-0.2,1.9-0.7,2.7-1.4l46.1-12.2c6.3-1.7,4.6-11.5-1.9-10.1c-30.8,6.7-61.6,13.5-92.4,20.3c0.1-3-2-6-5.8-5.1l-48.3,12
		c0.1-3-2.1-5.9-5.8-5c-18.6,4.7-37.3,9.4-56,13.9c-48.4,11.8-97,23.2-145.7,33.9c-37.1,8.2-74.2,16.1-111.4,23.7l-15.3,3.1
		l-5.6,1.1c-18.8,3.7-37.6,7.3-56.4,11l-11,2.2c-0.5,0.1-1,0.3-1.4,0.5l-24.4,4.7c-2,0.3-3.6,1.9-3.9,3.9c-0.6,3.2,1.7,7,5.9,6.2
		l43.8-8.3h0.5c41.7-7.5,83.5-15,125.3-22.4c0.2,0.9,0.6,1.7,1.2,2.5c-21.4,5.8-42.7,11.8-64,17.9c-0.5,0.2-1,0.4-1.5,0.7l-8.4,2
		c-33.9,8-67.8,16.3-101.5,24.9c-6.4,1.6-4.6,11.3,2,10.1l72.6-13.8c-1.9,3.4,0.1,8.3,5.2,7.6c36.1-5.6,72.2-11.7,108.1-18.3
		c-6.9,2.9-13.5,6.3-19.9,10.2c-4.2,2.6-3.1,9.4,1.6,9.8c1,2,3.1,3.1,5.3,2.6L584.5,494l77-17.7c6.4-1.5,4.5-11.5-2-10.1
		l-241.8,53.1c9.5-3.1,18.9-6.2,28.4-9.3c5.9-1.4,11.7-2.8,17.5-4.1l15.5-3.5c0.3-0.1,0.7-0.2,1-0.3c20.9-4.7,41.8-9.3,62.7-13.7
		c22.7-4.8,45.4-9.5,68.1-14.1c2.5-0.4,4.3-2.8,4-5.3c12.6-2.7,25.2-5.4,37.7-8.1l3.6-0.7l130.7-24.9c0.7,3.3,5,6,8.5,3.2
		c3.2-2.5,6.4-4.9,9.6-7.4C808.2,428.8,807.3,424.9,804.9,423.1z M650.4,450.8c-17.2,3.3-34.4,6.6-51.6,9.8c-0.1-1-0.4-2-1-2.8
		l1-0.2c2.4-0.5,4.2-2.7,4-5.2c20.9-3.2,41.9-6.2,62.9-9.2c15.6-2.2,31.3-4.4,47-6.4C692,441.6,671.2,446.3,650.4,450.8L650.4,450.8
		z"/>
	<path d="M377.4,506.5c-0.3,1.3-0.5,2.6-0.8,3.9c-0.4,1.5-0.8,2.8-1.4,3.8c-1.2,2.4-2.4,4.7-3.7,7c-1.5,2.8-2.9,4.8-4.3,6
		c-0.4,0.7-0.8,1.5-1.3,2.3c-0.5,0.8-1.1,1.3-1.7,1.4c-0.3,0.1-0.7,0.1-1.1,0c-0.4-0.1-0.9-0.2-1.5-0.3c-0.5-0.1-1-0.4-1.3-0.8
		c-0.6-2.2-1.1-4.5-1.6-7c-0.5-2.6-1.1-6.4-1.9-11.5c-0.8-5.1-1.4-8.9-1.9-11.5c-0.7-3.4-1.4-6.5-2.2-9.2c-0.1,0-0.8-0.5-2.1-1.5
		c-0.8-0.5-1.3-1.1-1.4-1.7c-0.1-0.3-0.1-0.5,0-0.8c0.1-0.7,0.6-1.2,1.5-1.4c0.7-0.2,1.3-0.4,2-0.6c4.6,0.1,9.6,1.6,15.2,4.7
		c1.5,0.8,2.7,1.7,3.7,2.7c3.2,3.2,5.2,6.4,5.8,9.7C377.8,503.2,377.8,504.9,377.4,506.5z M370.1,499.3c-1.1-3.2-4.5-5.5-10.1-7.1
		c1.3,8.8,3.1,18.1,5.1,27.8c4.7-7.1,6.6-13.2,5.6-18.6C370.6,500.7,370.4,500,370.1,499.3z"/>
	<path d="M413,513.6c0.5,0.8,0.8,1.5,0.9,2.1c0.2,1-0.1,2-0.8,3s-1.3,1.4-1.6,1.5c-2.7,0-4.7-1.7-6.1-5.2c-1.5-3.8-3-7-4.5-9.4
		c-1.7,0.5-3.5,1-5.2,1.5c-2,0.7-3.5,1.6-4.4,2.8c-0.3,1.7-0.5,4.8-0.6,9.1c-0.1,4-0.4,7.1-0.9,9.2c-0.2,1-1.1,1.5-2.5,1.3
		c-1.8-0.2-2.9-0.8-3.2-1.8c-0.5-2-0.5-4.7,0.2-8.3c0.8-4.1,1.1-7,1-8.7c0-0.5-0.5-0.9-1.3-1.4c-0.8-0.4-1.3-0.8-1.4-1.1
		c-0.1-0.3,0-0.6,0.2-0.9c0.2-0.3,0.7-0.7,1.5-1c0.8-0.4,1.3-0.7,1.3-1.1c0.4-2.8,1-7.9,1.6-15.4c0.5-6.5,1.1-11.5,1.8-15.1
		c0.2-0.8,0.8-1.3,1.7-1.5c0.7-0.1,1.4,0,2.1,0.3c1.7,1,3,2.7,3.9,5.1c0.7,2.1,1.4,4.2,2.1,6.3C403.9,496.6,408.6,506.2,413,513.6z
		 M398.7,500.9c-0.5-1.9-1.3-4-2.3-6.3c-0.9-2-1.8-4-2.7-6c-0.7,4.6-1.2,9.2-1.5,13.8C392.9,502.1,395.1,501.6,398.7,500.9z"/>
	<path d="M440.4,462.9c0.6,7.1,1.3,14.3,2,21.5c0.7,8.5,1.7,15.6,2.8,21.2c0.4,1.8,0.8,3.6,1.2,5.4c0.2,0.8,0.1,1.6-0.5,2.4
		c-0.5,0.8-1.2,1.2-2,1.4c-1.6,0.3-3.2-0.5-4.7-2.5c-4.6-5.9-10.8-15.3-18.5-28.3c-0.2-0.3-0.3-0.4-0.5-0.4
		c-0.4,0.1-0.5,0.5-0.5,1.2c0.6,7.6,1.7,15.6,3.3,23.8c0.8,4,1.7,8,2.7,12.1c0.3,1.5,0.1,2.6-0.7,3.4c-0.3,0.4-0.6,0.7-1.1,0.8
		c-0.4,0.1-0.9,0-1.5-0.2c-0.9-0.2-1.4-0.3-1.6-0.4c-0.7-0.1-1.3-0.6-1.6-1.6c-0.2-0.8-0.4-1.7-0.7-2.6c-0.7-2.9-1.4-5.9-2-9.1
		c-1.1-5.5-2.1-12.5-3.1-20.9c-1.5-12.8-2.3-19.9-2.5-21.3c-0.2-1.2,0.7-1.9,2.6-2.3c0.9-0.3,2.3,0.1,4.3,1.2
		c2.3,2.9,5.4,7.6,9.2,14.3c3.7,6.4,6.8,11.2,9.5,14.3c-0.6-7.1-1.4-17.8-2.5-32.2c0-1.1,0.6-1.7,2-2c0.5-0.1,1-0.1,1.7-0.1
		c0.9,0,1.4,0.1,1.6,0.1C439.7,462.1,440.2,462.4,440.4,462.9z"/>
	<path d="M478.2,484.4c-0.7,3.8-0.8,8.3-0.2,13.5c0.6,4.5,1.2,9,1.9,13.5c0.1,1.3-0.6,2.1-2.2,2.5c-0.5,0.1-0.9,0.1-1.4,0
		c-2.4-0.5-3.9-2-4.4-4.6c-0.1-0.7-0.3-1.9-0.3-3.4c-0.1-1.5-0.2-2.6-0.3-3.3c-0.1-1.6-0.3-3.9-0.6-7c-2.9,4.1-6.5,7.4-10.7,10
		c-0.6,0.3-1.2,0.6-1.8,0.7c-2.4,0.5-4.9-0.5-7.5-2.8c-1.4-1.3-2.4-3.1-2.8-5.3c-0.4-2-0.4-4.4,0-7.2c1.1-9,3.9-18.1,8.4-27.4
		c2.2-4.6,4.5-7.2,6.9-7.6c2.1-0.4,3.4,0.1,4,1.7c0.5,1.3,0.2,2.3-0.8,3.1c-1.6,1.4-2.5,2.1-2.6,2.2c-3.4,5.7-6.2,12.8-8.4,21.2
		c-1.3,5.2-1.6,9.7-0.9,13.4c0.1,0.7,0.3,1.4,0.5,2c0.1,0,0.3,0.3,0.6,0.7c0.3,0.4,0.6,0.5,0.9,0.3c3.2-2,7.7-6.6,13.5-13.8
		c0.4-0.5,0.8-1.8,1.1-4c0.2-1.6,1-2.5,2.4-2.7c-0.4,0.1,0-0.1,1.2-0.4c0.6-0.2,1-0.2,1.3,0.1c1.3,1.3,2,2.4,2.2,3.3
		C478.3,483.3,478.3,483.8,478.2,484.4z"/>
	<path d="M506.5,458.5c-1.8,1.2-4.4,2.6-8,4.4c-3.6,1.8-6.2,3.3-8,4.4c-0.2,1.5,0,4.5,0.8,9.3c0.9,0.1,1.9,0.1,3-0.1
		c0.8-0.2,2-0.5,3.6-1.1s2.8-1,3.6-1.1c1.5-0.3,2.8-0.2,3.9,0.2c0.9,0.9,1.4,1.5,1.5,1.8c0.1,0.4-0.1,0.7-0.4,1
		c-0.1,0.1-0.4,0.5-0.9,1.3c-0.3,0.6-0.8,0.9-1.4,0.9c-1,0.5-3,1-5.9,1.7c-2.4,0.5-4.3,1.2-5.7,2.1c-0.2,4.1-0.1,7.2,0.3,9.5
		c0.3,1.5,0.7,2.7,1.3,3.5c2.8,1.2,7.2,1.1,13.2-0.3c0.4-0.1,0.8-0.4,1.2-0.8c0.4-0.5,0.7-0.8,1.1-0.8c1.4-0.6,2.6,0.3,3.5,2.7
		c0.3,0.8,0.3,1.6,0,2.4c-0.3,0.8-0.9,1.3-1.7,1.5c-6.3,1.4-11.9,2-16.7,1.7c-1.5-0.1-3-0.6-4.5-1.6s-2.4-2.3-2.9-3.8
		c-1.4-4.5-2.2-8.5-2.4-12.2c-1.7-0.7-2.5-1.5-2.5-2.5c0-0.5,0.3-1,1-1.5c0.7-0.5,1-1,1.1-1.5c0-0.4-0.3-3-0.8-7.6
		c-3,0-4.7-0.8-5-2.4c-0.2-1.5,0.4-2.9,2-4.1c1.5-1,3.1-2,4.6-3c1.7-1.4,4-2.7,6.8-4.1c2.4-1.2,4.9-2.3,7.3-3.5
		c0.2-0.1,0.6-0.2,0.9-0.3c1.4-0.3,3.2-0.1,5.3,0.7c0.1,0.2,0.3,0.6,0.6,1.1c0.3,0.5,0.5,0.9,0.6,1.2
		C506.9,457.8,506.8,458.2,506.5,458.5z"/>
	<path d="M548,491.6c0.2,0.2,0.3,0.4,0.4,0.7c0.2,1.2-0.8,2.4-3.2,3.5c-3.2-1.6-7.3-4.2-12.3-7.8c-5.6-4.1-9.7-6.8-12.3-8.3
		c0.1,1.4,0.5,5,1.2,10.8c0.6,4.4,0.8,7.9,0.6,10.6c-0.1,0-0.4,0.2-0.9,0.6c-0.5,0.4-0.9,0.5-1.3,0.5c-2.4-0.1-3.9-1.4-4.4-4.1
		c-0.2-0.8-0.3-1.8-0.3-3.2c-0.1-1.6-0.1-2.5-0.2-2.9c-0.4-3.1-1-6.7-1.7-10.9l-1.7-8.5c-1.4-7.1-2.2-13.2-2.3-18.2
		c-0.1-3.3,2.7-5.4,8.3-6.3c2.8-0.4,5.6,0.5,8.2,2.8c2.4,2.1,3.9,4.7,4.5,7.6c0.5,2.5,0,5.1-1.3,7.9c-1.1,2.5-2.7,4.6-4.8,6.3
		c-0.8,0.7-1.2,1.4-1.1,2c0.1,0.7,0.8,1.4,2.1,2.1c1,0.5,1.9,1,2.9,1.5c0.1,0,3.4,2.1,10.2,6.1C542.8,487,546,489.4,548,491.6z
		 M524.5,459.7c0-1-0.1-1.8-0.3-2.5c-0.4-1.1-1-2-2-2.7c-0.9-0.7-2.2-0.9-3.9-0.6c-1.3,0.2-2,0.8-2.1,1.6c0,1.4,0.2,2.9,0.5,4.5
		c0.1,0.7,0.6,2.4,1.3,5.2c0.5,2.1,0.9,3.9,1,5.2C522.7,466.4,524.6,462.8,524.5,459.7z"/>
	<path d="M377.4,506.5l-4.7-1c-0.3,1.4-0.6,2.7-0.8,4.1l4.7,0.9l-4.7-1.1c-0.3,1.2-0.6,2-0.8,2.4L371,512c-1.2,2.3-2.4,4.6-3.6,6.9
		l0,0c-0.7,1.2-1.3,2.3-1.8,3.1c-0.6,0.8-1,1.3-1.4,1.6c-0.4,0.4-0.7,0.8-1,1.3c-0.4,0.7-0.8,1.3-1.2,2.1l0,0l0,0l0,0l1.3,0.9
		l-0.9-1.2c-0.3,0.2-0.3,0.3-0.4,0.3l1.3,0.9l-0.9-1.2l1.7,2.3l-0.6-2.8c-0.5,0.1-0.9,0.3-1.2,0.5l1.7,2.3l-0.6-2.8l0,0l0.5,2.4
		v-2.4c-0.1,0-0.2,0-0.5,0l0.5,2.4v-2.4v1.3l0.1-1.3l-0.1,0v1.3l0.1-1.3l0,0.4l0.1-0.4l0,0l0,0.4l0.1-0.4l0,0l0,0
		c-0.4-0.1-0.8-0.1-1.3-0.2l0,0l-0.6,2.7l1.5-2.3c-0.3-0.2-0.7-0.3-0.9-0.4l-0.6,2.7l1.5-2.3l-1.6,2.4l2.4-1.6
		c-0.2-0.3-0.5-0.6-0.8-0.8l-1.6,2.4l2.4-1.6l-4,2.8l4.7-1.3c-0.6-2-1.1-4.3-1.5-6.7l0,0c-0.5-2.4-1.1-6.2-1.9-11.3l0,0
		c-0.8-5.1-1.4-9-2-11.7l0,0c-0.7-3.5-1.5-6.7-2.3-9.7c-0.3-1.1-1-2.1-2-2.7l-2,3.1l2.1-3.1l-0.1,0l-2,3.1l2.1-3.1l0,0
		c-0.1,0-0.3-0.2-0.6-0.4c-0.3-0.2-0.8-0.6-1.4-1l-0.1-0.1l-0.1,0l0,0l-0.2,0.2l0.2-0.2l0,0l-0.2,0.2l0.2-0.2l-1.2,1.3l1.5-1
		c-0.2-0.2-0.3-0.3-0.3-0.4l-1.2,1.3l1.5-1l-2.6,1.7l3-0.6c-0.1-0.5-0.3-0.8-0.4-1.1l-2.6,1.7l3-0.6l0,0l-2.8,0.5h2.8
		c0-0.2,0-0.4-0.1-0.5l-2.8,0.5h2.8h-2.6l2.5,0.5c0-0.1,0-0.3,0-0.5h-2.6l2.5,0.5l-4.7-0.9l4.7,1l-3.1-0.6l2.8,1.5
		c0.2-0.3,0.3-0.6,0.3-0.9l-3.1-0.6l2.8,1.5L351,487l1.8,2.5c0.3-0.2,0.6-0.6,0.9-1L351,487l1.8,2.5l-1.1-1.5l0.6,1.8
		c0.1,0,0.2-0.1,0.5-0.3l-1.1-1.5l0.6,1.8l0.2-0.1c0.5-0.2,1.1-0.4,1.7-0.5l-1.3-4.6l-0.1,4.8c1.8,0,3.7,0.3,5.9,1
		c2.2,0.7,4.5,1.7,7.1,3.1l0,0c1.1,0.6,2,1.3,2.6,1.9l0,0c1.4,1.4,2.4,2.7,3.1,3.9c0.7,1.2,1.1,2.3,1.3,3.3l0,0
		c0.1,0.5,0.1,0.9,0.1,1.4c0,0.5-0.1,1-0.2,1.6l0,0.1L377.4,506.5l4.7,1.1c0.3-1.2,0.4-2.5,0.4-3.8c0-1.1-0.1-2.2-0.3-3.2l0,0
		c-0.4-2.2-1.3-4.4-2.5-6.4c-1.2-2-2.8-3.9-4.6-5.8l0,0c-1.4-1.4-3-2.5-4.8-3.5l0,0c-3-1.6-6-2.9-8.9-3.8c-2.9-0.9-5.8-1.4-8.6-1.4
		c-0.5,0-0.9,0.1-1.4,0.2c-0.8,0.2-1.6,0.5-2.3,0.7l1.6,4.5l-1.5-4.6c-0.9,0.3-1.9,0.8-2.9,1.7c-0.5,0.4-0.9,1-1.2,1.6
		c-0.3,0.6-0.6,1.2-0.7,1.8l0,0.1c-0.1,0.4-0.1,0.9-0.1,1.3c0,0.4,0,0.9,0.1,1.3l0,0c0.2,1.2,0.8,2.2,1.4,3c0.6,0.8,1.3,1.3,2,1.8
		l2.7-4l-2.8,3.9c0.7,0.5,1.2,0.8,1.5,1.1c0.2,0.1,0.3,0.2,0.4,0.3l0.1,0.1l0.1,0l0.1,0.1l2.6-4l-4.6,1.4c0.8,2.6,1.5,5.5,2.1,8.8
		l0,0c0.5,2.4,1.1,6.2,1.9,11.3l0,0c0.8,5.1,1.4,9,2,11.7l0,0c0.5,2.6,1.1,5.1,1.7,7.3c0.2,0.6,0.4,1,0.7,1.5
		c0.5,0.7,1.1,1.3,1.9,1.8c0.7,0.5,1.6,0.8,2.4,1l0,0c0.6,0.1,1.1,0.2,1.7,0.3l0,0c0.5,0.1,0.9,0.1,1.5,0.1c0.4,0,0.9,0,1.4-0.1l0,0
		c1.2-0.2,2.2-0.8,3-1.5c0.8-0.7,1.4-1.4,1.8-2.1l0,0c0.5-0.9,1-1.7,1.5-2.5l-4.2-2.3l3.2,3.6c1-0.9,1.9-2,2.8-3.2
		c0.9-1.2,1.7-2.6,2.5-4.1l0,0c1.2-2.3,2.5-4.7,3.7-7l-4.3-2.2l4.2,2.4c0.9-1.6,1.5-3.3,1.9-5.1l0-0.2c0.2-1.2,0.5-2.5,0.7-3.7
		L377.4,506.5l4.7,1.1L377.4,506.5z M370.1,499.3l4.6-1.6c-0.5-1.3-1.2-2.6-2.1-3.7c-1.3-1.6-3-2.9-4.9-4c-1.9-1-4-1.8-6.4-2.5
		c-1.6-0.4-3.3,0-4.5,1.1c-1.2,1.1-1.8,2.7-1.6,4.3c1.4,8.9,3.1,18.2,5.2,28.1c0.4,1.9,1.9,3.4,3.8,3.7s3.8-0.4,4.9-2
		c2.1-3.1,3.8-6.2,4.9-9.2c1.1-3,1.8-6.1,1.8-9.1c0-1.3-0.1-2.6-0.4-3.9l0,0c-0.2-1-0.4-1.9-0.8-2.8l0,0L370.1,499.3l-4.6,1.6
		c0.2,0.5,0.3,1,0.4,1.5l0,0c0.1,0.6,0.2,1.3,0.2,2c0,1.6-0.3,3.5-1.2,5.7c-0.8,2.2-2.1,4.6-3.9,7.2l4,2.7l4.7-1
		c-2.1-9.7-3.7-18.8-5.1-27.5l-4.8,0.7l-1.2,4.7c2.4,0.6,4.2,1.5,5.2,2.2c0.5,0.4,0.9,0.7,1.1,1c0.2,0.3,0.4,0.5,0.5,0.8l0,0
		L370.1,499.3z"/>
	<path d="M413,513.6l-4.1,2.5c0.1,0.2,0.2,0.4,0.3,0.5l0,0.1l0.2-0.1l-0.2,0l0,0l0.2-0.1l-0.2,0l0.7-0.2l-0.7,0.1l0,0l0.7-0.2
		l-0.7,0.1l0,0l1.3-0.3h-1.3c0,0.1,0,0.2,0,0.3l1.3-0.3h-1.3h1.4l-1.3-0.5c0,0.1-0.1,0.3-0.1,0.5h1.4l-1.3-0.5l0.8,0.3l-0.7-0.4
		l-0.1,0.1l0.8,0.3l-0.7-0.4l0.2,0.1l-0.2-0.1l0,0l0.2,0.1l-0.2-0.1l0,0l0,0c-0.1,0.2-0.2,0.3-0.3,0.4l-0.1,0.1l0,0l1.5,1.5
		l-1.2-1.8c-0.3,0.2-0.4,0.3-0.4,0.3l1.5,1.5l-1.2-1.8l2.1,3.2l-1.4-3.6c-0.3,0.1-0.5,0.3-0.7,0.3l2.1,3.2l-1.4-3.6l1.6,4.1
		l-0.1-4.4c-0.6,0-1.1,0.2-1.4,0.3l1.6,4.1l-0.1-4.4l0.1,4.8l-0.1-4.8l0,0c-0.1,0-0.1,0-0.1,0c0,0-0.1,0-0.4-0.3
		c-0.3-0.3-0.6-0.9-1-1.9l0,0c-1.6-4-3.2-7.4-4.9-10.2c-1.1-1.9-3.4-2.7-5.5-2.1c-1.7,0.5-3.5,1-5.2,1.5l-0.2,0.1
		c-1.3,0.4-2.5,1-3.7,1.7c-1.1,0.7-2.2,1.6-3,2.7c-0.5,0.7-0.9,1.4-1,2.3c-0.2,1.1-0.3,2.4-0.4,4c-0.1,1.6-0.2,3.5-0.3,5.7l0,0
		c-0.1,3.8-0.4,6.7-0.8,8.4l4.7,1l-4.7-1.1l2.9,0.7l-2.5-1.6c-0.2,0.4-0.4,0.7-0.4,1l2.9,0.7l-2.5-1.6l2.8,1.8l-2.1-2.6
		c-0.3,0.2-0.5,0.5-0.7,0.8l2.8,1.8l-2.1-2.6l2,2.4l-0.9-3c-0.3,0.1-0.7,0.3-1.1,0.6l2,2.4l-0.9-3l0.5,1.7l0-1.8c0,0-0.2,0-0.5,0.1
		l0.5,1.7l0-1.8v0.2l0-0.2l0,0v0.2l0-0.2l0,0l-0.5,4.8l0.6-4.8c-0.3,0-0.4-0.1-0.5-0.1l0,0l-0.6,1.6l1.1-1.2
		c-0.3-0.3-0.5-0.3-0.5-0.3l-0.6,1.6l1.1-1.2l-2,2.2l2.8-0.9c-0.2-0.5-0.5-1-0.8-1.3l-2,2.2l2.8-0.9l-4.6,1.4l4.6-1.3
		c-0.1-0.3-0.2-1-0.2-1.9c0-1.1,0.1-2.5,0.5-4.3l-4.7-0.9l4.7,0.9c0.4-1.8,0.6-3.4,0.8-4.8c0.2-1.4,0.3-2.7,0.3-3.9
		c0-0.5,0-0.9-0.1-1.4l-4.8,0.5l4.8-0.4c-0.1-0.8-0.3-1.5-0.6-2.2c-0.5-0.9-1.1-1.5-1.6-2c-0.6-0.5-1.1-0.8-1.7-1.1l0,0
		c-0.1-0.1-0.2-0.1-0.2-0.1l0,0l0,0l0,0l0,0l0,0l-1.4,2l1.8-1.6c-0.3-0.3-0.4-0.4-0.4-0.4l-1.4,2l1.8-1.6l-2.9,2.6l3.3-1.9
		c-0.2-0.3-0.4-0.5-0.5-0.7l-2.9,2.6l3.3-1.9l-3.7,2.1l4.2-0.8c-0.1-0.6-0.3-1-0.5-1.3l-3.7,2.1l4.2-0.8l0,0l-3.8,0.8h3.9
		c0-0.2,0-0.5-0.1-0.8l-3.8,0.8h3.9h-3.6l3.5,1c0.1-0.3,0.1-0.6,0.1-1h-3.6l3.5,1l-2.7-0.8l2.5,1.4c0.1-0.1,0.1-0.3,0.2-0.5
		l-2.7-0.8l2.5,1.4l0,0l-3.3-1.8l2.6,2.7c0.2-0.2,0.4-0.4,0.7-0.9l-3.3-1.8l2.6,2.7l-1.5-1.6l1.1,1.9c0,0,0.2-0.1,0.4-0.3l-1.5-1.6
		l1.1,1.9l-0.1-0.1l0.1,0.1l0,0l-0.1-0.1l0.1,0.1c0,0,0.1,0,0.2-0.1l0,0c0.7-0.3,1.4-0.6,2.2-1.3c0.4-0.3,0.8-0.8,1.2-1.4
		c0.4-0.6,0.7-1.5,0.8-2.4l-4.8-0.4l4.8,0.7c0.2-1.5,0.5-3.6,0.8-6.2c0.3-2.6,0.6-5.8,0.9-9.6l0,0c0.5-6.4,1.1-11.3,1.8-14.5
		l-4.7-0.9l4.7,1l-2.9-0.6l2.6,1.5c0.2-0.3,0.3-0.6,0.3-0.9l-2.9-0.6l2.6,1.5l-2.7-1.6l1.6,2.6c0.3-0.2,0.8-0.6,1.1-1.1l-2.7-1.6
		l1.6,2.6l-1-1.7l0.4,2c0.1,0,0.3-0.1,0.6-0.3l-1-1.7l0.4,2l0,0l-0.3-1.6v1.6c0.1,0,0.2,0,0.3,0l-0.3-1.6v1.6v-1.7l-0.8,1.5
		c0.1,0.1,0.5,0.2,0.8,0.2v-1.7l-0.8,1.5l2.3-4.3l-2.4,4.2c0.3,0.1,0.5,0.4,0.8,0.7c0.3,0.4,0.6,1,1,1.8l4.5-1.7l-4.6,1.6
		c0.7,2,1.4,4.1,2.1,6.1l0.1,0.4c5.1,11.9,9.9,21.7,14.4,29.4l0,0.1L413,513.6l4.2-2.5c-4.2-7.2-8.9-16.6-13.8-28.3l-4.4,1.9
		l4.6-1.5c-0.7-2.1-1.4-4.2-2.2-6.4l0-0.1c-0.6-1.6-1.4-3-2.4-4.3c-1-1.3-2.3-2.4-3.7-3.2l-0.1-0.1c-1.1-0.6-2.4-1-3.7-0.9
		c-0.5,0-1,0.1-1.5,0.2l0,0c-0.5,0.1-1.1,0.3-1.7,0.5c-0.9,0.4-1.8,1-2.5,1.8c-0.7,0.8-1.2,1.9-1.4,2.9l0,0.1
		c-0.8,3.9-1.4,9-1.9,15.7l0,0c-0.3,3.7-0.6,6.9-0.9,9.4c-0.3,2.5-0.5,4.5-0.7,5.7l0,0.3l4.1,0.4l-3.6-2.2c-0.3,0.4-0.5,1.1-0.6,1.8
		l4.1,0.4l-3.6-2.2l2.9,1.8l-1.9-2.8c-0.2,0.1-0.5,0.4-0.9,1l2.9,1.8l-1.9-2.8l0.8,1.2l-0.7-1.3l-0.1,0.1l0.8,1.2l-0.7-1.3l0.1,0.2
		l-0.1-0.2l0,0l0.1,0.2l-0.1-0.2l-0.1,0l0,0c-0.6,0.3-1.2,0.5-1.8,1c-0.3,0.2-0.6,0.5-1,0.8c-0.3,0.3-0.7,0.8-1,1.4l0,0
		c-0.2,0.4-0.4,0.8-0.5,1.3c-0.1,0.5-0.2,1.1-0.2,1.7c0,0.4,0,0.7,0.1,1.1l0,0c0.2,1,0.6,1.7,1,2.2c0.6,0.7,1.1,1.1,1.5,1.5
		c0.5,0.3,0.9,0.6,1.4,0.8l0,0l0,0l0.2-0.4l-0.3,0.4l0,0l0.2-0.4l-0.3,0.4l1.4-2.1l-2,1.5c0.3,0.4,0.5,0.5,0.6,0.6l1.4-2.1l-2,1.5
		l2.9-2.2l-3.3,1.4c0.1,0.3,0.3,0.6,0.5,0.8l2.9-2.2l-3.3,1.4l3.6-1.5l-3.9,0.3c0,0.4,0.1,0.8,0.3,1.2l3.6-1.5l-3.9,0.3l0,0.1
		c0,0.1,0,0.2,0,0.4c0,0.5-0.1,1.4-0.2,2.6c-0.2,1.2-0.4,2.6-0.7,4.2l0,0.1c-0.4,2.2-0.6,4.1-0.6,6c0,1.6,0.1,3,0.6,4.5l0,0.1
		c0.3,0.9,0.7,1.7,1.3,2.4c0.9,1,1.9,1.6,2.9,2c1,0.4,2,0.6,2.9,0.7l0.1,0c0.3,0,0.7,0.1,1,0.1c0.6,0,1.2-0.1,1.9-0.2
		c0.5-0.1,1.1-0.3,1.6-0.6c0.8-0.4,1.6-1.1,2.1-1.9c0.6-0.8,0.9-1.6,1.1-2.4l0-0.1c0.5-2.6,0.8-5.9,1-10l0,0
		c0.1-2.1,0.1-3.9,0.2-5.3c0.1-1.4,0.2-2.5,0.3-3.2l-4.8-0.7l3.8,3c0.1-0.1,0.3-0.3,0.6-0.5c0.3-0.2,0.8-0.5,1.5-0.7l-1.5-4.6
		l1.3,4.6c1.7-0.5,3.5-1,5.2-1.5l-1.3-4.6l-4.1,2.5c1.3,2.1,2.7,5,4.2,8.7l0,0c0.9,2.2,2.1,4.2,3.9,5.8c0.9,0.8,1.9,1.4,3.1,1.9
		c1.1,0.4,2.4,0.6,3.6,0.6l0.1,0l0.1,0c0.6,0,1.1-0.1,1.5-0.3c0.7-0.3,1.2-0.5,1.5-0.8c0.5-0.4,0.9-0.8,1.2-1.1
		c0.3-0.4,0.6-0.7,0.9-1.1l0,0c0.5-0.7,1-1.5,1.3-2.4c0.3-0.9,0.5-1.9,0.5-2.9c0-0.5-0.1-1.1-0.2-1.6l0,0c-0.3-1.4-0.8-2.6-1.5-3.7
		L413,513.6l4.2-2.5L413,513.6z M398.7,500.9l4.6-1.3c-0.6-2.2-1.4-4.5-2.5-6.9l-0.1-0.1c-0.9-1.9-1.8-3.9-2.7-5.9
		c-0.9-2-2.9-3.1-5-2.8c-2.1,0.3-3.8,1.9-4.1,4c-0.7,4.8-1.3,9.5-1.6,14.2c-0.1,1.7,0.6,3.2,2,4.2c1.3,1,3.1,1.2,4.6,0.6l-0.3-0.9
		l0.3,0.9l0,0l-0.3-0.9l0.3,0.9l0,0c0.1,0,0.3-0.1,0.6-0.2c1-0.3,2.7-0.6,5.1-1.1c1.3-0.3,2.5-1.1,3.2-2.2c0.7-1.1,0.9-2.5,0.5-3.8
		L398.7,500.9l-0.9-4.7c-1.8,0.4-3.3,0.7-4.5,0.9c-0.6,0.1-1.1,0.3-1.6,0.4c-0.5,0.1-0.9,0.3-1.4,0.4l1.8,4.5l4.8,0.3
		c0.3-4.4,0.8-8.9,1.5-13.4l-4.8-0.7l-4.4,1.9c0.9,2,1.8,4.1,2.8,6.1l4.4-2l-4.4,1.9c0.9,2.1,1.6,4.1,2.1,5.7L398.7,500.9l-0.9-4.7
		L398.7,500.9z"/>
	<path d="M440.4,462.9l-4.8,0.4c0.6,7.2,1.3,14.3,2,21.5l4.8-0.5l-4.8,0.4c0.8,8.6,1.7,15.8,2.8,21.7c0.4,1.9,0.8,3.8,1.3,5.7l0,0
		l2-0.5h-2c0,0.2,0,0.4,0.1,0.5l2-0.5h-2h2.2l-2.1-0.7c-0.1,0.2-0.1,0.5-0.1,0.7h2.2l-2.1-0.7l1.5,0.5l-1.3-0.9
		c0,0.1-0.1,0.2-0.2,0.4l1.5,0.5l-1.3-0.9l0,0l1.1,0.7l-0.7-1.1c-0.2,0.1-0.3,0.3-0.3,0.3l1.1,0.7l-0.7-1.1l1,1.4l-0.3-1.7
		c-0.2,0-0.4,0.1-0.6,0.3l1,1.4l-0.3-1.7l0,0l0.3,1.3l0-1.3c-0.1,0-0.2,0-0.3,0l0.3,1.3l0-1.3v1.4l0.4-1.3c-0.1,0-0.3-0.1-0.4-0.1
		v1.4l0.4-1.3l-0.2,0.6l0.3-0.6l-0.1-0.1l-0.2,0.6l0.3-0.6l0,0c-0.1,0-0.4-0.3-0.8-0.8l0,0c-2.2-2.8-4.8-6.5-7.8-11.1
		c-3-4.6-6.5-10.2-10.3-16.6l-4.1,2.5l4.2-2.4c-0.2-0.4-0.5-0.9-1.2-1.5c-0.3-0.3-0.7-0.6-1.3-0.9c-0.6-0.3-1.3-0.5-2.1-0.5
		c-0.3,0-0.7,0-1,0.1l0,0c-0.8,0.1-1.7,0.5-2.4,1.1c-0.5,0.4-0.9,0.9-1.2,1.4c-0.4,0.7-0.6,1.3-0.7,1.9c-0.1,0.5-0.1,1-0.1,1.4
		c0,0.2,0,0.3,0,0.5l0,0.1c0.6,7.9,1.7,16,3.4,24.4l0,0c0.8,4.1,1.7,8.2,2.7,12.3l4.7-1.2l-4.7,1.1l0,0.2l0,0l0.3,0H421l0,0l0.3,0
		H421h1.6l-1.5-0.6c-0.1,0.3-0.1,0.5-0.1,0.6h1.6l-1.5-0.6l2.1,0.8l-1.5-1.6c-0.2,0.2-0.4,0.5-0.6,0.8l2.1,0.8l-1.5-1.6
		c-0.3,0.3-0.5,0.5-0.7,0.9l2.3,1.5l-1.6-2.2c-0.4,0.3-0.6,0.5-0.7,0.7l2.3,1.5l-1.6-2.2l2,2.7l-0.6-3.3c-0.5,0.1-1,0.3-1.3,0.6
		l2,2.7l-0.6-3.3l0,0l0.6,3.1V520c-0.1,0-0.3,0-0.6,0.1l0.6,3.1V520v1.9l0.3-1.9c0,0-0.1,0-0.3,0v1.9l0.3-1.9l-0.1,0.4l0.1-0.4l0,0
		l-0.1,0.4l0.1-0.4l-0.1,0l-0.3-0.1c-0.4-0.1-0.8-0.2-1-0.3c-0.3-0.1-0.4-0.1-0.5-0.1c-0.3-0.1-0.5-0.1-0.8-0.1l-0.3,3.3l1.5-3
		c-0.4-0.2-0.8-0.3-1.1-0.3l-0.3,3.3l1.5-3l-1.3,2.7l2.4-1.8c-0.2-0.2-0.6-0.6-1.1-0.9l-1.3,2.7l2.4-1.8l-1.5,1.1l1.7-0.9
		c0-0.1-0.1-0.1-0.2-0.3l-1.5,1.1l1.7-0.9l-0.8,0.4l0.8-0.3l0-0.1l-0.8,0.4l0.8-0.3l0,0l0,0l0,0l0,0l0,0l-4.5,1.6l4.7-1.2
		c-0.2-0.8-0.4-1.7-0.7-2.5l0,0c-0.7-2.8-1.4-5.8-2-8.9l0,0c-1.1-5.4-2.1-12.2-3.1-20.6l0,0c-1.5-12.8-2.3-19.9-2.5-21.3l0-0.2
		l-2.9,0.4h2.9c0-0.2,0-0.3,0-0.4l-2.9,0.4h2.9h-3.3l3,1.5c0.3-0.5,0.4-1.1,0.4-1.5h-3.3l3,1.5l-2.8-1.5l2.2,2.3
		c0.2-0.2,0.5-0.5,0.6-0.9l-2.8-1.5l2.2,2.3l-1.4-1.5l0.8,1.9c0,0,0.3-0.1,0.6-0.4l-1.4-1.5l0.8,1.9l-0.1-0.3l0.1,0.3l0,0l-0.1-0.3
		l0.1,0.3l0.1,0c0.1,0,0.1,0,0.2-0.1c0.2,0,0.4-0.1,0.5-0.1l-0.9-2.7l0,2.8c0.2,0,0.5,0,0.9-0.1l-0.9-2.7l0,2.8v-1.7l-0.2,1.7l0.2,0
		v-1.7l-0.2,1.7l0.1-0.6l-0.1,0.6l0,0l0.1-0.6l-0.1,0.6c0,0,0.2,0,0.5,0.2c0.3,0.1,0.7,0.3,1.2,0.6l2.3-4.3l-3.8,3
		c1,1.2,2.3,3,3.7,5.3c1.5,2.3,3.2,5.1,5.1,8.4l0,0c3.8,6.5,7,11.5,9.9,15c1.3,1.6,3.6,2.2,5.5,1.4c2-0.8,3.2-2.8,3-4.9
		c-0.6-7.1-1.4-17.8-2.5-32.2L434,464l4.8-0.2l-2.4,0.1h2.4l0-0.1l-2.4,0.1h2.4h-3l2.8,1.1c0.2-0.4,0.2-0.8,0.2-1.1h-3l2.8,1.1
		l-3-1.2l2.5,2.1c0.2-0.3,0.4-0.6,0.5-0.9l-3-1.2l2.5,2.1l-2.2-1.8l1.3,2.6c0.2-0.1,0.6-0.3,0.9-0.7l-2.2-1.8l1.3,2.6l-0.8-1.5
		l0.5,1.6c0,0,0.1,0,0.2-0.1l-0.8-1.5l0.5,1.6l-0.2-0.7l0.2,0.7l0,0l-0.2-0.7l0.2,0.7l0-0.1l0,0.1l0,0l0-0.1l0,0.1l0,0l0,0l-0.1-0.3
		l0.1,0.3l0,0l-0.1-0.3l0.1,0.3l0.1,0l0.2,0c0.1,0,0.2,0,0.3,0l0,0c0.4,0,0.8,0,1,0.1c0.1,0,0.2,0,0.3,0l0,0l0.2-2.1l-0.3,2.1l0.1,0
		l0.2-2.1l-0.3,2.1l0.6-4.8l-0.9,4.7l0.6-3l-1.8,2.4c0.4,0.3,0.9,0.5,1.2,0.5l0.6-3l-1.8,2.4l1.8-2.5l-2.8,1.5
		c0.2,0.3,0.5,0.8,0.9,1.1l1.8-2.5l-2.8,1.5L440.4,462.9l-4.8,0.4L440.4,462.9l4.3-2.2c-0.4-0.8-1.1-1.6-1.9-2.2
		c-0.8-0.6-1.8-1-2.7-1.1l-0.3,0c-0.2,0-0.3,0-0.4,0c-0.4,0-0.8-0.1-1.5-0.1l0,0c-0.3,0-0.5,0-0.8,0c-0.7,0-1.4,0-2.1,0.2l0,0
		c-0.6,0.1-1.3,0.3-1.9,0.6c-0.5,0.2-1,0.5-1.5,0.9c-0.7,0.6-1.4,1.4-1.8,2.3c-0.4,0.9-0.6,1.9-0.6,2.8c0,0.1,0,0.2,0,0.3l0,0.1
		c1.1,14.4,1.9,25.1,2.5,32.2l4.8-0.4l3.7-3.1c-2.3-2.8-5.4-7.4-9-13.7l0,0c-2-3.4-3.7-6.3-5.3-8.8c-1.6-2.5-3-4.5-4.3-6.1
		c-0.4-0.5-0.9-0.9-1.5-1.2c-1-0.5-1.9-0.9-2.8-1.3c-1-0.3-1.9-0.6-3.2-0.6c-0.6,0-1.3,0.1-2.1,0.3l1.5,4.6l-0.9-4.7
		c-0.7,0.1-1.3,0.3-2,0.6c-0.5,0.2-1,0.4-1.5,0.8c-0.8,0.5-1.6,1.2-2.1,2.2c-0.6,1-0.9,2.2-0.9,3.2c0,0.3,0,0.7,0.1,1l4.8-0.7
		l-4.8,0.6c0.2,1.4,1,8.5,2.5,21.3l0,0c1,8.5,2.1,15.6,3.2,21.3l0,0c0.6,3.3,1.3,6.4,2.1,9.4l0,0c0.2,0.9,0.5,1.7,0.7,2.6l0.1,0.4
		c0.3,1,0.8,2,1.8,2.9c0.5,0.5,1.1,0.9,1.7,1.3c0.7,0.3,1.4,0.5,2.1,0.6l0.5-4.8l-1.3,4.6c0.2,0.1,0.4,0.1,0.7,0.2
		c0.3,0.1,0.6,0.2,1.1,0.3l1.2-4.7l-1.5,4.6c0.8,0.2,1.6,0.4,2.6,0.4c0.4,0,0.8,0,1.2-0.1l0,0c0.9-0.2,1.8-0.6,2.5-1.1
		c0.7-0.5,1.2-1.1,1.6-1.7l-4-2.7l3.3,3.6c0.8-0.7,1.5-1.7,1.9-2.7c0.4-1,0.6-2.1,0.6-3c0-0.8-0.1-1.6-0.3-2.3l0-0.1
		c-1-4-1.9-8-2.6-11.8l0,0c-1.6-8.1-2.7-15.8-3.2-23.3l-4.8,0.4l4.8-0.3l-0.9,0h0.9l0,0l-0.9,0h0.9h-2.4l2.4,0.4c0-0.2,0-0.3,0-0.4
		h-2.4l2.4,0.4l-3.8-0.7l3.1,2.3c0.6-0.8,0.7-1.4,0.7-1.7l-3.8-0.7l3.1,2.3l-3.4-2.6l2.3,3.7c0.5-0.3,0.9-0.7,1.1-1l-3.4-2.6
		l2.3,3.7l-2.3-3.7l0.8,4.3c0.5-0.1,1-0.3,1.5-0.6l-2.3-3.7l0.8,4.3l0,0l-0.9-4.5v4.6c0.3,0,0.6,0,0.9-0.1l-0.9-4.5v4.6v-4.6
		l-1.9,4.2c0.5,0.2,1.2,0.4,1.9,0.4v-4.6l-1.9,4.2l1.8-3.9l-3.2,2.9c0.2,0.3,0.7,0.7,1.4,1l1.8-3.9l-3.2,2.9l2.5-2.3l-3,1.7
		c0.1,0.1,0.2,0.3,0.4,0.6l2.5-2.3l-3,1.7l0,0.1c3.9,6.5,7.4,12.2,10.5,17c3.1,4.8,5.9,8.7,8.3,11.8l0,0c0.9,1.2,1.9,2.2,3.2,3.1
		c0.7,0.4,1.4,0.8,2.2,1c0.8,0.2,1.6,0.4,2.5,0.4c0.5,0,1.1-0.1,1.6-0.2l0,0c1-0.2,2-0.6,2.9-1.2c0.9-0.6,1.6-1.3,2.2-2.1l0,0
		c0.4-0.6,0.8-1.3,1-2c0.3-0.8,0.4-1.6,0.4-2.4c0-0.7-0.1-1.3-0.3-1.9l0,0c-0.4-1.7-0.8-3.4-1.2-5.1c-1-5.3-2-12.3-2.7-20.7l0,0
		c-0.7-7.2-1.4-14.3-2-21.4c-0.1-0.6-0.2-1.2-0.5-1.8L440.4,462.9z"/>
	<path d="M478.2,484.4l-4.7-0.9c-0.5,2.4-0.7,5-0.7,7.8c0,2.2,0.1,4.6,0.4,7.1l0,0.1c0.6,4.5,1.2,9,1.9,13.5l4.8-0.7l-4.8,0.5
		l1.9-0.2h-1.9l0,0.2l1.9-0.2h-1.9h2.8l-2.5-1c-0.2,0.4-0.2,0.8-0.2,1h2.8l-2.5-1l2.9,1.1l-2.4-2c-0.2,0.2-0.4,0.5-0.5,0.8l2.9,1.1
		l-2.4-2l2,1.7l-1.2-2.3c-0.2,0.1-0.5,0.3-0.8,0.7l2,1.7l-1.2-2.3l0.6,1.1l-0.4-1.2c0,0-0.1,0-0.2,0.1l0.6,1.1l-0.4-1.2l0.1,0.4
		l-0.1-0.4l0,0l0.1,0.4l-0.1-0.4l0,0l0,0l0,0l0.2,0.8V509l-0.2,0l0.2,0.8V509v1.1l0.2-1.1l-0.2,0v1.1l0.2-1.1l-0.8,4.8l1-4.7
		c-0.2,0-0.3-0.1-0.4-0.1l0,0l0,0l0,0l0,0l0,0l0,0l0,0l0,0c0,0-0.1-0.2-0.2-0.6l0,0c0-0.1-0.1-0.5-0.1-0.9c0-0.5-0.1-1.1-0.1-1.8
		l0,0c0-0.8-0.1-1.5-0.2-2.2c-0.1-0.6-0.1-1.2-0.2-1.8l-4.7,0.9l4.8-0.3c-0.1-1.7-0.3-4-0.6-7.1c-0.2-2-1.6-3.7-3.5-4.2
		c-1.9-0.5-4,0.2-5.2,1.8c-2.6,3.6-5.7,6.4-9.3,8.7l2.5,4.1l-2.4-4.2c-0.2,0.1-0.3,0.1-0.4,0.1l0,0c-0.1,0-0.2,0-0.3,0
		c-0.2,0-0.5,0-1-0.3c-0.5-0.2-1.2-0.7-2-1.4l0,0c-0.3-0.3-0.5-0.6-0.7-1c-0.2-0.4-0.4-0.9-0.6-1.7l0,0c-0.1-0.7-0.2-1.5-0.2-2.5
		c0-0.9,0.1-2,0.2-3.2l0,0c1-8.4,3.7-17,7.9-25.9l0,0c1-2,1.9-3.5,2.6-4.2c0.3-0.4,0.6-0.6,0.8-0.7l0.1-0.1l0-0.1l0,0.1l0,0l0-0.1
		l0,0.1l-0.1-0.5l0.1,0.5l0,0l-0.1-0.5l0.1,0.5c0.2,0,0.3,0,0.3,0v-1l-0.3,1c0.2,0,0.3,0,0.3,0v-1l-0.3,1l0.6-2.2l-1.6,1.7
		c0.3,0.3,0.7,0.5,1,0.6l0.6-2.2l-1.6,1.7l1.3-1.4l-1.9,0.7c0,0.1,0.2,0.5,0.5,0.7l1.3-1.4l-1.9,0.7l0,0l1.4-0.5h-1.5
		c0,0.3,0.1,0.5,0.1,0.5l1.4-0.5h-1.5h2.5l-2.3-1.2c-0.2,0.4-0.3,0.8-0.3,1.2h2.5l-2.3-1.2l1.8,0.9l-1.3-1.6
		c-0.1,0.1-0.3,0.3-0.5,0.7l1.8,0.9l-1.3-1.6l-0.1,0c-0.8,0.7-1.5,1.2-1.9,1.6c-0.2,0.2-0.4,0.4-0.6,0.5c-0.1,0.1-0.2,0.2-0.3,0.3
		c-0.1,0.1-0.1,0.1-0.2,0.2c-0.1,0.1-0.2,0.2-0.4,0.6l-0.1,0.2c-3.7,6.2-6.7,13.7-8.9,22.5l0,0c-0.9,3.6-1.4,7-1.4,10.3
		c0,1.8,0.2,3.6,0.5,5.3l0,0c0.2,0.8,0.3,1.6,0.6,2.4c0.5,1.6,1.7,2.9,3.3,3.4l1.3-4.4l-2.3,4c0.2,0.1,0.6,0.3,1,0.4l1.3-4.4l-2.3,4
		l2.1-3.7l-2.8,3.1c0.1,0.1,0.3,0.3,0.7,0.5l2.1-3.7l-2.8,3.1l1.8-1.9l-2,1.7c0,0,0.1,0.1,0.2,0.3l1.8-1.9l-2,1.7l0,0l0,0l0,0l0,0
		l0,0l0.1,0.1l0,0c0.3,0.5,0.8,1,1.5,1.5c0.4,0.2,0.8,0.5,1.3,0.6c0.5,0.2,1.1,0.3,1.6,0.3c0.6,0,1.2-0.1,1.8-0.3
		c0.5-0.2,1-0.4,1.3-0.7l-2.7-4l2.6,4.1c2.1-1.4,4.2-3.2,6.6-5.7c2.4-2.4,5.1-5.5,8-9.1l-3.7-3l3.7,3.1c0.5-0.7,0.8-1.2,1.1-1.7
		c0.3-0.8,0.5-1.5,0.7-2.2c0.2-0.8,0.3-1.6,0.4-2.5l-4.8-0.7l4.8,0.7l0,0l0,0l-1-0.2l0.9,0.5c0.1-0.1,0.1-0.2,0.1-0.2l-1-0.2
		l0.9,0.5l-1.9-1l1.3,1.7c0.3-0.2,0.6-0.5,0.7-0.7l-1.9-1l1.3,1.7l-1.1-1.5l0.4,1.8c0.1,0,0.4-0.1,0.7-0.3l-1.1-1.5l0.4,1.8
		c1.3-0.2,2.4-1,3.1-2s1-2.4,0.7-3.6s-1-2.4-2-3.1c-1.1-0.7-2.4-1-3.6-0.7l0.4,2.2l-0.3-2.2l-0.1,0l0.4,2.2l-0.3-2.2l0.6,4l-0.5-4.1
		c-0.1,0-0.1,0-0.2,0l0.6,4l-0.5-4.1l0.5,4.6l0-4.6c-0.3,0-0.4,0-0.5,0l0.5,4.6l0-4.6v4.8l0.4-4.8c-0.2,0-0.3,0-0.4,0v4.8l0.4-4.8
		l-0.4,4.8l1-4.7c-0.2,0-0.4-0.1-0.5-0.1l-0.4,4.8l1-4.7l-1,4.7l1.6-4.5c-0.3-0.1-0.5-0.1-0.7-0.2l-1,4.7l1.6-4.5l-1.6,4.5l2.4-4.2
		c-0.3-0.2-0.5-0.3-0.7-0.3l-1.6,4.5l2.4-4.2l-2.4,4.2l3.9-2.8c-0.5-0.7-1.1-1.1-1.5-1.4l-2.4,4.2l3.9-2.8l-3.9,2.8l4.6-1.5
		c-0.2-0.5-0.4-0.9-0.7-1.3l-3.9,2.8l4.6-1.5l-4.6,1.5h4.8c0-0.5-0.1-1-0.2-1.5l-4.6,1.5h4.8h-4.8l4.6,1.5c0.1-0.4,0.2-0.9,0.2-1.5
		h-4.8l4.6,1.5l-4.6-1.5l3.7,3.1c0.3-0.3,0.6-0.8,0.9-1.6l-4.6-1.5l3.7,3.1l-3.7-3.1l3.1,3.7c0.2-0.1,0.4-0.3,0.6-0.6l-3.7-3.1
		l3.1,3.7l-3.1-3.7l2.4,4.1c0.1-0.1,0.3-0.2,0.7-0.5l-3.1-3.7l2.4,4.1l-2.4-4l1.9,4.3c0.1,0,0.2-0.1,0.5-0.2l-2.4-4l1.9,4.3
		l-1.6-3.7l1.3,3.8c0,0,0.1,0,0.3-0.1l-1.6-3.7l1.3,3.8l-0.5-1.5l0.5,1.5l0,0l-0.5-1.5l0.5,1.5c0,0,0.1,0,0.3-0.1
		c0.2-0.1,0.4-0.1,0.7-0.2l0.4-0.1l-1-2.6l0,2.7c0.6,0,0.9-0.1,1-0.2l-1-2.6l0,2.7v-3.9l-1.4,3.6c0.5,0.2,1,0.3,1.4,0.3v-3.9
		l-1.4,3.6l1.4-3.8l-2.9,2.9c0.4,0.4,0.9,0.8,1.5,0.9l1.4-3.8l-2.9,2.9l0,0c0.5,0.5,0.8,0.8,0.9,1l0.1,0.1l0,0l1.2-0.6l-1.3,0.3
		c0,0.2,0.1,0.3,0.1,0.3l1.2-0.6l-1.3,0.3l0,0l1.2-0.2h-1.3c0,0,0,0.1,0,0.2l1.2-0.2h-1.3h0.5l-0.5-0.1l0,0.1h0.5l-0.5-0.1l0,0l0,0
		L478.2,484.4l4.7,0.9c0.1-0.6,0.2-1.2,0.2-1.8c0-0.5,0-1.1-0.2-1.6l0,0c-0.3-1.3-0.8-2.3-1.4-3.3c-0.6-0.9-1.3-1.7-2.1-2.5l0,0
		c-0.5-0.6-1.3-1-2-1.3c-0.7-0.3-1.4-0.4-2-0.4c-1,0-1.8,0.2-2.4,0.5l1.7,4.5l-1.3-4.6c-0.5,0.1-0.8,0.2-1.1,0.3
		c-0.1,0-0.3,0.1-0.4,0.1c-0.1,0-0.2,0.1-0.4,0.2c-0.1,0.1-0.3,0.1-0.6,0.3c-0.2,0.1-0.4,0.3-0.8,0.6c-0.2,0.2-0.5,0.5-0.8,1
		c-0.2,0.3-0.3,0.6-0.4,1c-0.1,0.4-0.2,0.9-0.2,1.5c0,0.8,0.2,1.7,0.6,2.3c0.3,0.6,0.7,1,1.1,1.3c0.7,0.5,1.2,0.7,1.5,0.9
		c0.6,0.2,0.9,0.2,1.1,0.2c0.2,0,0.4,0,0.5,0c0.3,0,0.4,0,0.6,0c0.3,0,0.4-0.1,0.5-0.1c2.6-0.5,4.3-3,3.8-5.7
		c-0.5-2.6-3-4.3-5.7-3.8c-0.8,0.1-1.6,0.4-2.3,0.8c-1.1,0.6-2.1,1.6-2.8,2.7c-0.7,1.1-1,2.2-1.2,3.3l0,0.1
		c-0.1,0.9-0.3,1.6-0.4,1.9l-0.1,0.2l0,0l0,0l2.3,0.9l-1.9-1.6c-0.4,0.4-0.4,0.6-0.4,0.7l2.3,0.9l-1.9-1.6l-0.1,0.1
		c-2.8,3.5-5.3,6.3-7.4,8.5c-2.1,2.1-3.8,3.6-4.9,4.3l-0.1,0.1l2.3,3.4l-1.3-3.8c-0.4,0.1-0.7,0.3-0.9,0.5l2.3,3.4l-1.3-3.8l1.4,4.1
		v-4.3c-0.5,0-1,0.1-1.4,0.2l1.4,4.1v-4.3v4.3l1.3-4.1c-0.4-0.1-0.9-0.2-1.3-0.2v4.3l1.3-4.1l-1.3,4l2.6-3.2
		c-0.3-0.3-0.8-0.6-1.4-0.8l-1.3,4l2.6-3.2l-2.3,2.7l2.9-2.1c-0.1-0.2-0.3-0.4-0.6-0.6l-2.3,2.7l2.9-2.1l0,0
		c-0.2-0.3-0.4-0.6-0.7-0.9c-0.2-0.2-0.4-0.4-0.7-0.6c-0.2-0.1-0.4-0.3-0.6-0.4c-0.3-0.2-0.6-0.3-1.1-0.5l-1.3,4.6l4.6-1.3
		c-0.2-0.5-0.3-1.1-0.4-1.7l0,0c-0.2-1-0.3-2.1-0.3-3.4c0-2.2,0.3-4.9,1.1-7.9l0,0c2.1-8.1,4.7-14.7,7.8-19.9l-4.1-2.5l4,2.7
		L464,463l3.4,3c0.1-0.1,0.2-0.2,0.4-0.5L464,463l3.4,3l-2.3-2.1l2.1,2.2c0,0,0,0,0.2-0.2l-2.3-2.1l2.1,2.2l0,0
		c0.1-0.1,0.3-0.3,0.7-0.6c0.4-0.3,0.9-0.7,1.5-1.2l-3.1-3.7l3,3.8c0.8-0.6,1.5-1.4,2-2.4c0.5-1,0.8-2.2,0.8-3.3c0-1-0.2-2-0.5-2.8
		l0,0c-0.3-0.7-0.6-1.4-1.1-2c-0.7-1-1.8-1.8-2.9-2.3c-1.1-0.5-2.2-0.6-3.3-0.6c-0.7,0-1.5,0.1-2.2,0.2c-1.3,0.2-2.4,0.8-3.4,1.4
		c-1.5,1-2.7,2.3-3.8,3.7c-1.1,1.5-2.1,3.2-3,5.1l0,0c-4.7,9.7-7.6,19.3-8.8,28.9l0,0c-0.2,1.5-0.3,3-0.3,4.4c0,1.5,0.1,2.9,0.4,4.3
		l0,0c0.3,1.5,0.8,3,1.5,4.4c0.7,1.4,1.7,2.6,2.8,3.6l0,0c1.3,1.2,2.8,2.2,4.4,3c1.6,0.7,3.3,1.2,5.1,1.2c0.7,0,1.4-0.1,2.2-0.2l0,0
		c1.2-0.2,2.3-0.6,3.3-1.2l0.1-0.1c4.8-2.9,8.9-6.7,12.1-11.3l-3.9-2.8l-4.8,0.4c0.3,3.1,0.5,5.4,0.5,6.8c0,0.2,0,0.5,0.1,0.7
		c0,0.1,0.1,0.4,0.1,0.9c0,0.5,0.1,1.1,0.1,1.8l0,0c0,0.8,0.1,1.6,0.2,2.2c0.1,0.7,0.1,1.3,0.3,1.8l0,0c0.2,1,0.5,2,0.9,2.9
		c0.7,1.4,1.7,2.7,3,3.6c1.3,1,2.8,1.6,4.2,1.9l0.2,0c0.5,0.1,0.9,0.1,1.4,0.1c0.6,0,1.1-0.1,1.7-0.2l0,0c0.7-0.1,1.3-0.3,2-0.6
		c0.5-0.2,1-0.5,1.6-0.9c0.8-0.6,1.5-1.4,1.9-2.4c0.4-1,0.6-2,0.6-2.9c0-0.3,0-0.6,0-0.9l0-0.2c-0.7-4.5-1.3-8.9-1.9-13.4l-4.8,0.6
		l4.8-0.5c-0.2-2.2-0.4-4.2-0.4-6c0-2.3,0.2-4.3,0.5-6l0,0L478.2,484.4z"/>
	<path d="M506.5,458.5l-2.6-4c-1.5,1-4.1,2.4-7.5,4.1l0,0c-3.6,1.8-6.4,3.3-8.5,4.7c-1.2,0.8-1.9,2-2.1,3.4
		c-0.1,0.7-0.1,1.3-0.1,1.9c0,1.1,0.1,2.3,0.2,3.8c0.1,1.4,0.4,3.1,0.7,5c0.3,2.1,1.9,3.7,4,4c0.6,0.1,1.3,0.2,1.9,0.2
		c0.9,0,1.9-0.1,2.8-0.3c0.7-0.1,1.3-0.3,2-0.5c0.7-0.2,1.5-0.5,2.3-0.8c0.8-0.3,1.4-0.5,1.9-0.6c0.5-0.2,0.9-0.2,1-0.3l0,0
		c0.3-0.1,0.6-0.1,0.8-0.1c0.3,0,0.5,0,0.6,0.1l1.6-4.5l-3.3,3.5c0.4,0.4,0.6,0.7,0.7,0.7l0,0l1.6-1.2l-1.7,1
		c0.1,0.2,0.2,0.2,0.2,0.2l1.6-1.2l-1.7,1l3.5-2l-3.9,0.8c0.2,0.7,0.3,1,0.4,1.2l3.5-2l-3.9,0.8l0,0l3.7-0.7h-3.8
		c0,0.3,0,0.5,0.1,0.7l3.7-0.7h-3.8h3.9l-3.5-1.8c-0.3,0.5-0.4,1.2-0.4,1.8h3.9l-3.5-1.8l3.2,1.6l-2.3-2.7c-0.2,0.2-0.6,0.6-0.8,1.1
		l3.2,1.6l-2.3-2.7l3.2,3.7l-2.9-3.8c-0.4,0.4-0.6,0.5-0.7,0.7c-0.2,0.3-0.3,0.4-0.4,0.5c-0.2,0.2-0.3,0.4-0.4,0.6
		c-0.1,0.2-0.3,0.5-0.5,0.8l0,0.1l2.5,1.5l-1.6-2.4c-0.4,0.3-0.8,0.7-0.9,0.9l2.5,1.5l-1.6-2.4l1.6,2.4l-0.3-2.9
		c-0.3,0-0.8,0.2-1.3,0.5l1.6,2.4l-0.3-2.9c-0.5,0.1-1,0.2-1.5,0.4c-0.1,0.1-0.7,0.3-1.6,0.5c-0.9,0.2-2,0.5-3.4,0.8l0,0
		c-2.8,0.6-5.2,1.4-7.3,2.7c-1.3,0.8-2.1,2.2-2.2,3.8c-0.1,1.5-0.1,2.9-0.1,4.2c0,2.4,0.1,4.6,0.5,6.5l0,0c0.2,1,0.4,1.9,0.8,2.8
		c0.3,0.9,0.8,1.8,1.4,2.6c0.5,0.7,1.2,1.2,1.9,1.5c2.1,0.9,4.4,1.3,6.9,1.3c2.8,0,5.9-0.5,9.4-1.3l-1.1-4.7l0.9,4.7
		c1-0.2,1.8-0.6,2.4-1c0.7-0.5,1.2-1,1.6-1.5l0,0l0,0l-0.3-0.2l0.2,0.2l0,0l-0.3-0.2l0.2,0.2l-1.6-1.5l1.2,1.8
		c0.3-0.2,0.4-0.3,0.4-0.3l-1.6-1.5l1.2,1.8l-2.1-3.1l0.7,3.6c0.7-0.1,1.1-0.4,1.4-0.6l-2.1-3.1l0.7,3.6c0.3-0.1,0.7-0.2,1-0.3
		l-1.1-2.5v2.8c0.5,0,0.9-0.1,1.1-0.2l-1.1-2.5v2.8v-3.1l-1.4,2.8c0.4,0.2,0.9,0.3,1.4,0.3v-3.1l-1.4,2.8l1.1-2.2l-1.7,1.8
		c0.1,0.1,0.3,0.3,0.6,0.4l1.1-2.2l-1.7,1.8l0.9-1l-1,0.8l0.1,0.1l0.9-1l-1,0.8l0.2-0.1l-0.2,0.1l0,0l0.2-0.1l-0.2,0.1
		c0,0,0.2,0.3,0.3,0.7l0,0l1.4-0.6h-1.5c0,0.2,0.1,0.5,0.1,0.6l1.4-0.6h-1.5h1.6l-1.5-0.6c0,0.1-0.1,0.3-0.1,0.6h1.6l-1.5-0.6l0,0
		l2.2,0.8l-1.5-1.7c-0.3,0.3-0.6,0.7-0.6,0.9l2.2,0.8l-1.5-1.7l1.5,1.7l-0.6-2.2c-0.2,0-0.6,0.2-0.9,0.5l1.5,1.7l-0.6-2.2l1.2,4.7
		l-1.1-4.7c-5,1.1-9.3,1.7-13.2,1.7c-0.8,0-1.5,0-2.2-0.1l0,0c-0.3,0-0.5-0.1-0.8-0.2c-0.3-0.1-0.7-0.3-1.1-0.6
		c-0.4-0.3-0.6-0.5-0.7-0.7c-0.1-0.2-0.2-0.4-0.3-0.6l0,0c-1.3-4.2-2-7.9-2.2-11.1c-0.1-1.8-1.2-3.4-2.9-4.1
		c-0.2-0.1-0.4-0.2-0.4-0.2l0,0l-1,1.4l1.4-0.9c-0.2-0.4-0.4-0.5-0.4-0.5l-1,1.4l1.4-0.9l-2.6,1.6l3-0.1c0-0.6-0.2-1.2-0.5-1.5
		l-2.6,1.6l3-0.1l0-0.3l-3.9,0.3l3.9,0c0-0.1,0-0.2,0-0.3l-3.9,0.3l3.9,0h-3.8l3.6,1.2c0.1-0.3,0.2-0.8,0.2-1.2h-3.8l3.6,1.2l-2.9-1
		l2.4,1.9c0.1-0.2,0.3-0.5,0.5-1l-2.9-1l2.4,1.9l-1.3-1.1l1.1,1.2l0.1-0.1l-1.3-1.1l1.1,1.2l-0.4-0.4l0.4,0.4l0,0l-0.4-0.4l0.4,0.4
		l0,0l0,0c0.6-0.5,1.1-1,1.7-1.7c0.3-0.4,0.5-0.8,0.8-1.4c0.2-0.5,0.4-1.2,0.4-1.9l0,0c0-0.1,0-0.2,0-0.3c0-0.3,0-0.4,0-0.6
		c0-0.6-0.1-1.5-0.3-2.7c-0.1-1.2-0.3-2.8-0.6-4.8c-0.3-2.4-2.4-4.2-4.8-4.2c-0.5,0-1,0-1.2-0.1l-0.2,0l0,0l-0.6,1.6l1.2-1.1
		c-0.3-0.4-0.6-0.5-0.6-0.5l-0.6,1.6l1.2-1.1l-1.9,1.7l2.3-1.1c-0.1-0.2-0.3-0.5-0.4-0.6l-1.9,1.7l2.3-1.1l-2.2,1l2.4-0.4
		c0-0.2-0.1-0.4-0.2-0.6l-2.2,1l2.4-0.4l0,0l-1,0.2l1.1,0l0-0.2l-1,0.2l1.1,0h-1.2l1,0.6c0-0.1,0.2-0.4,0.1-0.6h-1.2l1,0.6l-0.3-0.2
		l0.3,0.2l0,0l-0.3-0.2l0.3,0.2l0,0l0,0l0,0l0,0l0,0c0,0,0.1-0.1,0.4-0.3l-2.9-3.8l2.6,4c1.5-1,3.1-2,4.6-3c0.2-0.1,0.2-0.1,0.3-0.2
		c1.4-1.1,3.3-2.3,5.9-3.5l0,0c2.4-1.2,4.8-2.3,7.2-3.4l-2-4.4l1.8,4.5l-0.5-1.2l0.4,1.2l0.1,0l-0.5-1.2l0.4,1.2l-0.2-0.5l0.1,0.5
		l0,0l-0.2-0.5l0.1,0.5l0.1,0l0,0c0,0,0.2,0,0.3,0c0.4,0,1.3,0.1,2.4,0.5l1.6-4.6l-4.4,2c0.1,0.3,0.3,0.5,0.4,0.8
		c0.1,0.2,0.3,0.5,0.5,0.8l0,0l0.1,0.2l0,0.1l0,0l2.4-1.1l-2.6,0.5c0.1,0.5,0.2,0.6,0.2,0.6l2.4-1.1l-2.6,0.5l0,0l3.4-0.7h-3.5
		c0,0.2,0,0.5,0.1,0.7l3.4-0.7h-3.5h3.7l-3.4-1.4c-0.2,0.4-0.3,1-0.3,1.4h3.7l-3.4-1.4l3.1,1.3l-2.5-2.3c-0.2,0.2-0.5,0.6-0.6,1
		l3.1,1.3l-2.5-2.3L506.5,458.5l-2.6-4L506.5,458.5l3.5,3.3c0.5-0.5,0.9-1.1,1.2-1.8c0.3-0.7,0.5-1.6,0.5-2.4c0-0.4,0-0.8-0.1-1.2
		l0,0c-0.2-0.8-0.4-1.2-0.5-1.6c-0.2-0.4-0.4-0.8-0.6-1.1l0,0c-0.1-0.2-0.3-0.4-0.3-0.6L510,453l0,0l-1.2,0.6l1.3-0.6l0-0.1
		l-1.2,0.6l1.3-0.6c-0.6-1.2-1.6-2.1-2.8-2.5c-1.9-0.6-3.7-1.1-5.6-1.1c-0.7,0-1.4,0.1-2.2,0.2l0,0c-0.6,0.1-1.2,0.3-1.8,0.5
		l-0.2,0.1c-2.5,1.1-4.9,2.3-7.4,3.5l0,0c-3,1.5-5.5,3-7.6,4.6l3,3.8l-2.6-4c-1.5,1-3.1,2-4.6,3l-0.3,0.2c-1.1,0.8-2,1.8-2.8,3.1
		c-0.7,1.2-1.2,2.8-1.2,4.3c0,0.5,0,0.9,0.1,1.4l0,0c0.2,1.1,0.7,2.3,1.4,3.3c0.6,0.7,1.2,1.3,1.9,1.7c1,0.6,2.1,1,3.2,1.2
		c1,0.2,2.1,0.3,3.2,0.3l0-4.8l-4.8,0.6c0.3,2.2,0.5,3.9,0.6,5.1c0.1,0.6,0.1,1.1,0.1,1.4c0,0.2,0,0.3,0,0.4l0,0.1l1.8-0.1h-1.8
		l0,0.1l1.8-0.1h-1.8h3.7l-3.7-0.2c0,0.1,0,0.1,0,0.2h3.7l-3.7-0.2l0,0l3.8,0.2l-3.5-1.4c-0.1,0.3-0.2,0.7-0.3,1.2l3.8,0.2l-3.5-1.4
		l2.6,1.1l-2.2-1.9c-0.1,0.1-0.3,0.3-0.5,0.8l2.6,1.1l-2.2-1.9l0.8,0.7l-0.7-0.8l-0.1,0.1l0.8,0.7l-0.7-0.8l0,0l0,0l0,0
		c-0.6,0.5-1.2,1-1.7,1.9c-0.3,0.4-0.5,0.9-0.7,1.5c-0.2,0.6-0.3,1.2-0.3,1.9c0,0.2,0,0.3,0,0.5l4.8-0.4l-4.8,0.1
		c0,0.9,0.3,1.9,0.6,2.7c0.6,1.2,1.4,2.1,2.2,2.7c0.8,0.6,1.7,1.1,2.6,1.5l1.9-4.4l-4.8,0.3c0.3,4.2,1.1,8.6,2.6,13.3l0,0
		c0.4,1.3,1,2.5,1.8,3.6c0.8,1.1,1.8,2,2.9,2.8c1,0.7,2.1,1.3,3.3,1.8c1.2,0.4,2.4,0.7,3.7,0.8l0,0c0.9,0.1,1.8,0.1,2.8,0.1
		c4.7,0,9.8-0.7,15.3-1.9l0.1,0c1-0.3,2.1-0.8,3-1.6c0.9-0.8,1.6-1.8,1.9-2.8l0,0c0.3-0.9,0.5-1.9,0.5-2.9c0-1.1-0.2-2.1-0.6-3l0,0
		c-0.3-0.7-0.6-1.3-0.9-1.9c-0.5-0.9-1.2-1.8-2.2-2.6c-0.5-0.4-1.1-0.8-1.8-1c-0.7-0.3-1.5-0.4-2.2-0.4c-1,0-1.9,0.2-2.7,0.6
		l1.9,4.4l-0.9-4.7c-0.6,0.1-1.1,0.3-1.5,0.5c-0.6,0.3-1.1,0.7-1.5,1c-0.4,0.3-0.7,0.7-1,1l0,0l1.4,1.2l-1.1-1.5
		c-0.3,0.2-0.4,0.3-0.4,0.3l1.4,1.2l-1.1-1.5l1.8,2.6l-0.6-3.1c-0.5,0.1-1,0.3-1.2,0.5l1.8,2.6l-0.6-3.1l-0.2,0c-3,0.7-5.4,1-7.2,1
		c-1.5,0-2.5-0.2-2.9-0.4l-2,4.4l3.9-2.9l-0.1,0.1l0.1-0.1l0,0l-0.1,0.1l0.1-0.1c0,0-0.3-0.5-0.5-1.6l0,0c-0.2-1-0.3-2.6-0.3-4.6
		c0-1.1,0-2.3,0.1-3.6l-4.8-0.3l2.6,4.1c0.6-0.4,2-1,4.1-1.4l0,0c1.5-0.3,2.8-0.6,4-1c1.1-0.3,2.1-0.6,3-1l-2-4.4l0.5,4.8
		c1-0.1,2-0.4,2.9-1c0.9-0.6,1.7-1.4,2.1-2.2l-4.2-2.5l4.1,2.5c0.2-0.4,0.4-0.6,0.5-0.8l0-0.1l0,0l-2.1-1.5l2,1.6
		c0.1-0.1,0.1-0.1,0.1-0.1l-2.1-1.5l2,1.6l-3.1-2.6l2.9,2.8c0.1-0.1,0.2-0.2,0.2-0.2l-3.1-2.6l2.9,2.8l-3.3-3.2l2.8,3.6
		c0.3-0.2,0.4-0.4,0.5-0.5l-3.3-3.2l2.8,3.6l0.2-0.2c0.5-0.4,1-1,1.4-1.8c0.4-0.8,0.6-1.7,0.6-2.6c0-0.4,0-0.8-0.1-1.1l0,0
		c-0.1-0.5-0.2-0.9-0.4-1.2c-0.2-0.5-0.4-0.8-0.6-1.1c-0.3-0.4-0.6-0.8-0.9-1.1c-0.3-0.3-0.6-0.7-1-1c-0.5-0.5-1.1-0.8-1.7-1.1
		c-1.3-0.5-2.6-0.7-3.9-0.7c-0.9,0-1.8,0.1-2.6,0.3c-0.7,0.1-1.3,0.3-2,0.5c-0.7,0.2-1.5,0.5-2.3,0.8c-0.8,0.3-1.4,0.5-1.9,0.6
		c-0.5,0.2-0.9,0.2-1,0.3c-0.4,0.1-0.7,0.1-0.9,0.1c-0.2,0-0.3,0-0.4,0l-0.8,4.8l4.8-0.7c-0.3-1.8-0.5-3.3-0.6-4.6
		c-0.1-1.2-0.2-2.2-0.2-2.8c0-0.2,0-0.3,0-0.4c0-0.1,0-0.1,0-0.1l-4.8-0.7l2.6,4c1.5-1,4.1-2.4,7.5-4.1l0,0c3.6-1.8,6.4-3.3,8.5-4.7
		c0.3-0.2,0.6-0.5,0.9-0.7L506.5,458.5z"/>
	<path d="M548,491.6l-3.2,3.6l2.4-2.7l-3.2,1.8c0.2,0.4,0.5,0.7,0.7,0.9l2.4-2.7l-3.2,1.8l3.2-1.8l-3.6,0.7c0.1,0.3,0.2,0.7,0.4,1.1
		l3.2-1.8l-3.6,0.7l0,0l3.1-0.6h-3.1c0,0.2,0,0.4,0.1,0.6l3.1-0.6h-3.1h3l-2.7-1.4c-0.2,0.3-0.3,0.8-0.3,1.4h3l-2.7-1.4l1.8,0.9
		l-1.5-1.4c-0.1,0.1-0.2,0.2-0.3,0.4l1.8,0.9l-1.5-1.4l0.6,0.5l-0.5-0.6l0,0l0.6,0.5l-0.5-0.6l0.1,0.1l-0.1-0.1l0,0l0.1,0.1
		l-0.1-0.1c0,0-0.4,0.3-1.1,0.7l2,4.4l2.2-4.3c-2.8-1.4-6.7-3.9-11.6-7.4l0,0c-2.8-2.1-5.3-3.8-7.4-5.2c-2.1-1.4-3.9-2.6-5.4-3.4
		c-1.6-0.9-3.5-0.8-5,0.1c-1.5,1-2.4,2.7-2.2,4.5c0.1,0.8,0.2,2.1,0.4,3.9c0.2,1.8,0.5,4.2,0.8,7.1l0,0.1c0.4,3.2,0.6,5.9,0.6,8
		c0,0.6,0,1.2-0.1,1.7l4.8,0.3l-0.9-4.7c-0.5,0.1-0.8,0.2-1,0.3c-0.4,0.2-0.5,0.3-0.7,0.4c-0.2,0.1-0.4,0.3-0.6,0.4
		c-0.2,0.1-0.4,0.3-0.6,0.4l0,0l1,1.4l-0.7-1.6c-0.3,0.1-0.4,0.2-0.4,0.2l1,1.4l-0.7-1.6l1.3,3.1v-3.3c-0.6,0-1,0.1-1.3,0.2l1.3,3.1
		v-3.3v3.7l0.3-3.7c-0.1,0-0.2,0-0.3,0v3.7l0.3-3.7l-0.3,0l-0.1,0l0,0L520,498l0.4-0.6c-0.1-0.1-0.2-0.1-0.2-0.1L520,498l0.4-0.6
		l-0.4,0.7l0.8-0.5c0,0-0.1-0.2-0.3-0.3l-0.4,0.7l0.8-0.5l0,0c0-0.1-0.1-0.2-0.2-0.5l0,0c-0.1-0.4-0.2-1.2-0.2-2.4l0-0.1
		c-0.1-1.5-0.1-2.5-0.2-2.9l0-0.4c-0.4-3.2-1-6.9-1.8-11.2l0-0.1l-1.7-8.5l0,0c-1.4-6.9-2.1-12.8-2.3-17.4v0l0,0l0-0.1l0,0l-0.3-0.1
		l0.3,0.2l0.1-0.1l-0.3-0.1l0.3,0.2l-0.1-0.1l0.1,0.1l0,0l-0.1-0.1l0.1,0.1l0,0c0.1-0.1,0.4-0.3,1.1-0.6c0.7-0.3,1.7-0.5,3.1-0.7
		l0,0c0.2,0,0.4-0.1,0.6-0.1c0.5,0,1,0.1,1.6,0.3c0.6,0.2,1.3,0.7,2.1,1.4l0,0c0.9,0.8,1.5,1.5,2,2.3c0.5,0.8,0.8,1.6,1,2.6
		c0.1,0.3,0.1,0.7,0.1,1c0,1-0.3,2.3-1,3.8l0,0.1c-0.9,1.9-2,3.3-3.5,4.6l0,0c-0.6,0.5-1.3,1.2-1.8,2c-0.3,0.4-0.5,0.9-0.7,1.5
		c-0.2,0.6-0.3,1.2-0.3,1.9c0,0.4,0,0.8,0.1,1.2l0,0c0.2,0.8,0.5,1.5,0.8,2.1c0.5,0.9,1.1,1.5,1.8,2c0.6,0.5,1.2,0.9,1.9,1.3
		l0.1,0.1c1,0.5,1.9,1,2.9,1.5l2.3-4.3l-2.7,4c0.1,0.1,0.1,0.1,0.1,0.1l0.1,0.1c0.3,0.2,1.3,0.8,2.9,1.8c1.7,1,4.1,2.5,7.2,4.3l0,0
		c4,2.4,6.8,4.6,8.3,6.3c0.1,0.2,0.2,0.2,0.4,0.4L548,491.6l3.6-3.2c-2.5-2.8-6-5.4-10.5-8.1l0,0c-3.4-2-5.9-3.6-7.6-4.6
		c-0.8-0.5-1.5-0.9-1.9-1.2c-0.2-0.1-0.4-0.2-0.5-0.3l-0.1-0.1l0,0l-1.6,2.6l1.7-2.6l0,0l-1.6,2.6l1.7-2.6l-2.5,3.9l2.6-3.8
		c-0.1-0.1-0.1-0.1-0.1-0.1l-2.5,3.9l2.6-3.8c-0.2-0.1-0.2-0.2-0.4-0.3c-1-0.5-1.9-1-2.9-1.5l-2.3,4.3l2.4-4.2
		c-0.2-0.1-0.3-0.2-0.4-0.3l-0.1,0l0,0l-1.1,1.2l1.4-0.9c-0.2-0.2-0.3-0.3-0.3-0.3l-1.1,1.2l1.4-0.9l-2.7,1.8l3.1-0.6
		c-0.1-0.5-0.3-0.9-0.5-1.2l-2.7,1.8l3.1-0.6l0,0l-3.5,0.7h3.6c0-0.2,0-0.5-0.1-0.7l-3.5,0.7h3.6h-3.4l3.3,1.1
		c0.1-0.3,0.2-0.7,0.2-1.1h-3.4l3.3,1.1l-2.5-0.8l2.1,1.6c0.1-0.1,0.3-0.4,0.4-0.8l-2.5-0.8l2.1,1.6l-0.9-0.7l0.8,0.8l0.1-0.1
		l-0.9-0.7l0.8,0.8l-0.1-0.1l0.1,0.1l0,0l-0.1-0.1l0.1,0.1l0,0l0,0c2.6-2.2,4.7-4.9,6.1-8l-4.4-2l4.4,2.1c1.2-2.6,2-5.3,2-8
		c0-1-0.1-1.9-0.3-2.9c-0.4-2-1.1-3.9-2.1-5.6c-1-1.7-2.4-3.3-3.9-4.7l0,0c-1.4-1.2-3-2.3-4.7-3c-1.7-0.7-3.5-1.1-5.4-1.1
		c-0.7,0-1.4,0.1-2.1,0.2l0,0c-1.6,0.2-3.1,0.6-4.5,1c-1,0.4-2,0.8-3,1.4c-1.4,0.8-2.7,2-3.6,3.5c-0.9,1.5-1.4,3.3-1.4,4.9
		c0,0.1,0,0.2,0,0.4l0,0c0.2,5.4,1,11.7,2.4,18.9l0,0l1.7,8.5l4.7-0.9l-4.7,0.9c0.8,4.1,1.3,7.7,1.7,10.6l4.8-0.6l-4.8,0.2
		c0,0.4,0.1,1.4,0.2,2.9l4.8-0.3l-4.8,0.2c0.1,1.5,0.2,2.8,0.4,4l0,0c0.2,1,0.5,2,1,3c0.7,1.4,1.8,2.8,3.3,3.7
		c0.7,0.4,1.5,0.8,2.3,1c0.8,0.2,1.6,0.3,2.4,0.3l0.1-4.8l-0.4,4.8c0.2,0,0.3,0,0.5,0c0.9,0,1.8-0.2,2.4-0.5c0.7-0.3,1.2-0.6,1.7-1
		l0,0c0.2-0.1,0.3-0.2,0.3-0.2l-1.3-2l1.1,2.1c0.1-0.1,0.2-0.1,0.2-0.1l-1.3-2l1.1,2.1l-1.9-3.6l1.5,3.7c0.2-0.1,0.3-0.1,0.3-0.2
		l-1.9-3.6l1.5,3.7l-1.7-4.2l0.9,4.5c0.5-0.1,0.7-0.2,0.9-0.3l-1.7-4.2l0.9,4.5c2.1-0.4,3.8-2.2,3.9-4.4c0-0.7,0.1-1.5,0.1-2.3
		c0-2.7-0.2-5.7-0.7-9.3l-4.8,0.6l4.8-0.6c-0.4-2.9-0.6-5.3-0.8-7c-0.2-1.8-0.3-3-0.4-3.6l-4.8,0.4l-2.4,4.2c1.1,0.6,2.7,1.7,4.7,3
		c2,1.3,4.4,3,7.1,5l0,0c5.1,3.7,9.4,6.5,12.9,8.3c1.3,0.7,2.9,0.7,4.2,0.1c1.4-0.7,2.6-1.4,3.8-2.5c0.6-0.6,1.1-1.2,1.6-2.1
		c0.4-0.8,0.7-1.9,0.7-3c0-0.4,0-0.8-0.1-1.2l0,0c-0.1-0.6-0.3-1.2-0.7-1.8c-0.3-0.6-0.8-1.1-1.2-1.5L548,491.6l3.6-3.2L548,491.6z
		 M524.5,459.7l4.8-0.1c0-1.3-0.2-2.5-0.5-3.7l-0.1-0.3c-0.3-1-0.8-1.9-1.4-2.7c-0.6-0.8-1.3-1.6-2.1-2.2l0,0
		c-0.8-0.6-1.7-1.1-2.7-1.4c-0.9-0.3-1.9-0.4-2.8-0.4c-0.8,0-1.6,0.1-2.4,0.2l0,0c-1.1,0.2-2.3,0.6-3.5,1.5c-0.6,0.4-1.1,1-1.6,1.7
		c-0.4,0.7-0.7,1.5-0.9,2.2c-0.1,0.3-0.1,0.6-0.1,0.9l0,0.1c0,1.7,0.2,3.5,0.6,5.4l0,0c0.1,0.5,0.2,1.1,0.5,2c0.2,0.9,0.5,2,0.9,3.4
		l0,0c0.5,2,0.8,3.6,0.9,4.7c0.2,1.9,1.5,3.5,3.3,4c1.8,0.6,3.8,0,5-1.4c2-2.3,3.7-4.5,4.9-6.8c1.2-2.3,1.9-4.7,1.9-7.2l0,0l-3.9,0
		l3.9,0v0l-3.9,0l3.9,0l-4.6,0l4.6,0.1l0-0.1l-4.6,0l4.6,0.1l0-0.3L524.5,459.7l-4.8-0.1l0,0.2l0.9,0l-0.9,0l0,0l0.9,0l-0.9,0
		c0,0.6-0.2,1.5-0.8,2.8c-0.7,1.3-1.8,2.9-3.4,4.7l3.6,3.2l4.8-0.6c-0.2-1.7-0.6-3.6-1.1-5.8l0,0c-0.4-1.4-0.6-2.5-0.8-3.3
		c-0.2-0.8-0.3-1.4-0.4-1.6l0,0c-0.3-1.4-0.4-2.6-0.4-3.5l0-0.1l-4.8,0l4.7,0.9l-3.1-0.6l2.7,1.7c0.2-0.3,0.4-0.7,0.4-1.1l-3.1-0.6
		l2.7,1.7l-2.4-1.5l1.4,2.5c0.3-0.1,0.7-0.5,1-1l-2.4-1.5l1.4,2.5l-0.8-1.4l0.5,1.5c0,0,0.1,0,0.3-0.1l-0.8-1.4l0.5,1.5l-0.1-0.4
		l0.1,0.4l0,0l-0.1-0.4l0.1,0.4l0,0l0,0c0.3-0.1,0.4-0.1,0.5-0.1l0,0l0,0l0.2-1.2l-0.7,0.9c0.2,0.2,0.6,0.3,0.6,0.3l0.2-1.2
		l-0.7,0.9l0,0c0.2,0.1,0.2,0.2,0.3,0.3c0.1,0.1,0.1,0.1,0.1,0.2l4.6-1.6l-4.7,1.3c0.1,0.3,0.2,0.7,0.2,1.4L524.5,459.7l-4.8-0.1
		L524.5,459.7z"/>
	<path class="st2" d="M378.9,501.9c-0.3,1.3-0.5,2.6-0.8,3.9c-0.4,1.5-0.8,2.8-1.4,3.8c-1.2,2.4-2.4,4.7-3.7,7
		c-1.5,2.8-2.9,4.8-4.3,6c-0.4,0.7-0.8,1.5-1.3,2.3c-0.5,0.8-1.1,1.3-1.7,1.4c-0.3,0.1-0.7,0.1-1.1,0c-0.4-0.1-0.9-0.2-1.5-0.3
		c-0.5-0.1-1-0.4-1.3-0.8c-0.6-2.2-1.1-4.5-1.6-7c-0.5-2.6-1.1-6.4-1.9-11.5c-0.8-5.1-1.4-8.9-1.9-11.5c-0.7-3.4-1.4-6.5-2.2-9.2
		c-0.1,0-0.8-0.5-2.1-1.5c-0.8-0.5-1.3-1.1-1.4-1.7c-0.1-0.3-0.1-0.5,0-0.8c0.1-0.7,0.6-1.2,1.5-1.4c0.7-0.2,1.3-0.4,2-0.6
		c4.6,0.1,9.6,1.6,15.2,4.7c1.5,0.8,2.7,1.7,3.7,2.7c3.2,3.2,5.2,6.4,5.8,9.7C379.3,498.6,379.3,500.3,378.9,501.9z M371.6,494.6
		c-1.1-3.2-4.5-5.5-10.1-7.1c1.3,8.8,3.1,18.1,5.1,27.8c4.7-7.1,6.6-13.2,5.6-18.6C372.1,496.1,371.9,495.3,371.6,494.6z"/>
	<path class="st2" d="M414.5,509c0.5,0.8,0.8,1.5,0.9,2.1c0.2,1-0.1,2-0.8,3s-1.3,1.4-1.6,1.5c-2.7,0-4.7-1.7-6.1-5.2
		c-1.5-3.8-3-7-4.5-9.4c-1.7,0.5-3.5,1-5.2,1.5c-2,0.7-3.5,1.6-4.4,2.8c-0.3,1.7-0.5,4.8-0.6,9.1c-0.1,4-0.4,7.1-0.9,9.2
		c-0.2,1-1.1,1.5-2.5,1.3c-1.8-0.2-2.9-0.8-3.2-1.8c-0.5-2-0.5-4.7,0.2-8.3c0.8-4.1,1.1-7,1-8.7c0-0.5-0.5-0.9-1.3-1.4
		c-0.8-0.4-1.3-0.8-1.4-1.1c-0.1-0.3,0-0.6,0.2-0.9c0.2-0.3,0.7-0.7,1.5-1c0.8-0.4,1.3-0.7,1.3-1.1c0.4-2.8,1-7.9,1.6-15.4
		c0.5-6.5,1.1-11.5,1.8-15.1c0.2-0.8,0.8-1.3,1.7-1.5c0.7-0.1,1.4,0,2.1,0.3c1.7,1,3,2.7,3.9,5.1c0.7,2.1,1.4,4.2,2.1,6.3
		C405.4,491.9,410.1,501.6,414.5,509z M400.2,496.3c-0.5-1.9-1.3-4-2.3-6.3c-0.9-2-1.8-4-2.7-6c-0.7,4.6-1.2,9.2-1.5,13.8
		C394.4,497.5,396.6,497,400.2,496.3z"/>
	<path class="st2" d="M441.9,458.2c0.6,7.1,1.3,14.3,2,21.5c0.7,8.5,1.7,15.6,2.8,21.2c0.4,1.8,0.8,3.6,1.2,5.4
		c0.2,0.8,0.1,1.6-0.5,2.4c-0.5,0.8-1.2,1.2-2,1.4c-1.6,0.3-3.2-0.5-4.7-2.5c-4.6-5.9-10.8-15.3-18.5-28.3c-0.2-0.3-0.3-0.4-0.5-0.4
		c-0.4,0.1-0.5,0.5-0.5,1.2c0.6,7.6,1.7,15.6,3.3,23.8c0.8,4,1.7,8,2.7,12.1c0.3,1.5,0.1,2.6-0.7,3.4c-0.3,0.4-0.6,0.7-1.1,0.8
		c-0.4,0.1-0.9,0-1.5-0.2c-0.9-0.2-1.4-0.3-1.6-0.4c-0.7-0.1-1.3-0.6-1.6-1.6c-0.2-0.8-0.4-1.7-0.7-2.6c-0.7-2.9-1.4-5.9-2-9.1
		c-1.1-5.5-2.1-12.5-3.1-20.9c-1.5-12.8-2.3-19.9-2.5-21.3c-0.2-1.2,0.7-1.9,2.6-2.3c0.9-0.3,2.3,0.1,4.3,1.2
		c2.3,2.9,5.4,7.6,9.2,14.3c3.7,6.4,6.8,11.2,9.5,14.3c-0.6-7.1-1.4-17.8-2.5-32.2c0-1.1,0.6-1.7,2-2c0.5-0.1,1-0.1,1.7-0.1
		c0.9,0,1.4,0.1,1.6,0.1C441.2,457.4,441.7,457.7,441.9,458.2z"/>
	<path class="st2" d="M479.7,479.8c-0.7,3.8-0.8,8.3-0.2,13.5c0.6,4.5,1.2,9,1.9,13.5c0.1,1.3-0.6,2.1-2.2,2.5
		c-0.5,0.1-0.9,0.1-1.4,0c-2.4-0.5-3.9-2-4.4-4.6c-0.1-0.7-0.3-1.9-0.3-3.4c-0.1-1.5-0.2-2.6-0.3-3.3c-0.1-1.6-0.3-3.9-0.6-7
		c-2.9,4.1-6.5,7.4-10.7,10c-0.6,0.3-1.2,0.6-1.8,0.7c-2.4,0.5-4.9-0.5-7.5-2.8c-1.4-1.3-2.4-3.1-2.8-5.3c-0.4-2-0.4-4.4,0-7.2
		c1.1-9,3.9-18.1,8.4-27.4c2.2-4.6,4.5-7.2,6.9-7.6c2.1-0.4,3.4,0.1,4,1.7c0.5,1.3,0.2,2.3-0.8,3.1c-1.6,1.4-2.5,2.1-2.6,2.2
		c-3.4,5.7-6.2,12.8-8.4,21.2c-1.3,5.2-1.6,9.7-0.9,13.4c0.1,0.7,0.3,1.4,0.5,2c0.1,0,0.3,0.3,0.6,0.7c0.3,0.4,0.6,0.5,0.9,0.3
		c3.2-2,7.7-6.6,13.5-13.8c0.4-0.5,0.8-1.8,1.1-4c0.2-1.6,1-2.5,2.4-2.7c-0.4,0.1,0-0.1,1.2-0.4c0.6-0.2,1-0.2,1.3,0.1
		c1.3,1.3,2,2.4,2.2,3.3C479.8,478.7,479.8,479.2,479.7,479.8z"/>
	<path class="st2" d="M508,453.9c-1.8,1.2-4.4,2.6-8,4.4c-3.6,1.8-6.2,3.3-8,4.4c-0.2,1.5,0,4.5,0.8,9.3c0.9,0.1,1.9,0.1,3-0.1
		c0.8-0.2,2-0.5,3.6-1.1s2.8-1,3.6-1.1c1.5-0.3,2.8-0.2,3.9,0.2c0.9,0.9,1.4,1.5,1.5,1.8c0.1,0.4-0.1,0.7-0.4,1
		c-0.1,0.1-0.4,0.5-0.9,1.3c-0.3,0.6-0.8,0.9-1.4,0.9c-1,0.5-3,1-5.9,1.7c-2.4,0.5-4.3,1.2-5.7,2.1c-0.2,4.1-0.1,7.2,0.3,9.5
		c0.3,1.5,0.7,2.7,1.3,3.5c2.8,1.2,7.2,1.1,13.2-0.3c0.4-0.1,0.8-0.4,1.2-0.8c0.4-0.5,0.7-0.8,1.1-0.8c1.4-0.6,2.6,0.3,3.5,2.7
		c0.3,0.8,0.3,1.6,0,2.4c-0.3,0.8-0.9,1.3-1.7,1.5c-6.3,1.4-11.9,2-16.7,1.7c-1.5-0.1-3-0.6-4.5-1.6s-2.4-2.3-2.9-3.8
		c-1.4-4.5-2.2-8.5-2.4-12.2c-1.7-0.7-2.5-1.5-2.5-2.5c0-0.5,0.3-1,1-1.5c0.7-0.5,1-1,1.1-1.5c0-0.4-0.3-3-0.8-7.6
		c-3,0-4.7-0.8-5-2.4c-0.2-1.5,0.4-2.9,2-4.1c1.5-1,3.1-2,4.6-3c1.7-1.4,4-2.7,6.8-4.1c2.4-1.2,4.9-2.3,7.3-3.5
		c0.2-0.1,0.6-0.2,0.9-0.3c1.4-0.3,3.2-0.1,5.3,0.7c0.1,0.2,0.3,0.6,0.6,1.1c0.3,0.5,0.5,0.9,0.6,1.2
		C508.4,453.2,508.3,453.6,508,453.9z"/>
	<path class="st2" d="M549.5,487c0.2,0.2,0.3,0.4,0.4,0.7c0.2,1.2-0.8,2.4-3.2,3.5c-3.2-1.6-7.3-4.2-12.3-7.8
		c-5.6-4.1-9.7-6.8-12.3-8.3c0.1,1.4,0.5,5,1.2,10.8c0.6,4.4,0.8,7.9,0.6,10.6c-0.1,0-0.4,0.2-0.9,0.6c-0.5,0.4-0.9,0.5-1.3,0.5
		c-2.4-0.1-3.9-1.4-4.4-4.1c-0.2-0.8-0.3-1.8-0.3-3.2c-0.1-1.6-0.1-2.5-0.2-2.9c-0.4-3.1-1-6.7-1.7-10.9l-1.7-8.5
		c-1.4-7.1-2.2-13.2-2.3-18.2c-0.1-3.3,2.7-5.4,8.3-6.3c2.8-0.4,5.6,0.5,8.2,2.8c2.4,2.1,3.9,4.7,4.5,7.6c0.5,2.5,0,5.1-1.3,7.9
		c-1.1,2.5-2.7,4.6-4.8,6.3c-0.8,0.7-1.2,1.4-1.1,2c0.1,0.7,0.8,1.4,2.1,2.1c1,0.5,1.9,1,2.9,1.5c0.1,0,3.4,2.1,10.2,6.1
		C544.3,482.4,547.5,484.8,549.5,487z M526,455.1c0-1-0.1-1.8-0.3-2.5c-0.4-1.1-1-2-2-2.7c-0.9-0.7-2.2-0.9-3.9-0.6
		c-1.3,0.2-2,0.8-2.1,1.6c0,1.4,0.2,2.9,0.5,4.5c0.1,0.7,0.6,2.4,1.3,5.2c0.5,2.1,0.9,3.9,1,5.2C524.2,461.8,526.1,458.2,526,455.1z
		"/>
	<path d="M509.1,341.4c-2.1,6.5-5.6,10.7-10.6,12.4c-0.6,0.2-1.2,0.3-1.8,0.4c-2.7,0.3-5.5-0.9-8.6-3.5c-2-1.8-3.2-4.2-3.6-7.4
		c-0.4-3.5,0.3-7.3,1.9-11.5c0.7-1.8,1.6-3.4,2.8-4.7c1.3-1.6,2.6-2.5,3.9-2.6c0.7-0.1,1.5,0.1,2.2,0.6c0.7,0.5,2.6,1.1,5.5,1.7
		c2.3,0.5,4.1,1.6,5.2,3.3c2,3,3.1,5.6,3.3,7.8C509.6,339.2,509.5,340.3,509.1,341.4z M503,337.6c-0.7-3.4-1.8-5.3-3.4-5.8
		c-0.2-0.1-0.5-0.1-0.6-0.1c-0.6,0.1-1.2,0.6-2,1.6c-0.8,1.2-1.5,1.9-2,2.1c-0.3,0.2-0.8,0.1-1.5-0.3c-0.7-0.4-1.1-0.5-1.3-0.5
		c-0.1,0-0.3,0.1-0.3,0.2c-1.5,1.6-2.1,3.8-1.8,6.8c0.2,2,0.9,3.7,2,5c1.5,1.8,2.7,2.6,3.6,2.5c2.1-0.2,3.9-1.7,5.6-4.5
		C502.9,342.1,503.5,339.7,503,337.6z"/>
	<path d="M458.1,306.2c-2.1,6.5-5.6,10.7-10.6,12.4c-0.6,0.2-1.2,0.3-1.8,0.4c-2.7,0.3-5.5-0.9-8.6-3.5c-2-1.8-3.2-4.2-3.6-7.4
		c-0.4-3.5,0.3-7.3,1.9-11.5c0.7-1.8,1.6-3.4,2.8-4.7c1.3-1.6,2.6-2.5,3.9-2.6c0.7-0.1,1.5,0.1,2.2,0.6c0.7,0.5,2.6,1.1,5.5,1.7
		c2.3,0.5,4.1,1.6,5.2,3.3c2,3,3.1,5.6,3.3,7.8C458.6,304,458.5,305.1,458.1,306.2z M452.1,302.5c-0.7-3.4-1.8-5.3-3.4-5.8
		c-0.2-0.1-0.5-0.1-0.6-0.1c-0.6,0.1-1.2,0.6-2,1.6c-0.8,1.2-1.5,1.9-2,2.1c-0.3,0.2-0.8,0.1-1.5-0.3c-0.7-0.4-1.1-0.5-1.3-0.5
		c-0.1,0-0.3,0.1-0.3,0.2c-1.5,1.6-2.1,3.8-1.8,6.8c0.2,2,0.9,3.7,2,5c1.5,1.8,2.7,2.6,3.6,2.5c2.1-0.2,3.9-1.7,5.6-4.5
		C452,306.9,452.5,304.6,452.1,302.5z"/>
	<path d="M493.9,287.6c0.2,1.1,0.1,2-0.3,2.7c-9.3,15.1-17,28.1-23,39.2c-1.8,3.7-4.4,9-8.1,16c-1.1,2.7-2.9,6.7-5.4,12.2
		c-0.3,0.6-0.7,0.9-1.3,0.9c-0.3,0-0.9,0-1.5-0.2c-0.7-0.2-1.1-0.3-1.4-0.3c-0.6,0-1.3-0.2-1.9-0.7c-0.6-0.5-0.9-0.9-0.9-1.4
		c0-1.9,0.5-4.1,1.6-6.5c1.1-2,2.1-4.1,3.1-6.2c3.4-8.1,8.6-17.9,15.5-29.5c5.6-9.5,11.2-19,16.9-28.4c0.3-0.6,0.9-1,1.8-1.1
		C491.7,284.2,493.4,285.2,493.9,287.6z"/>
	<path d="M456.9,385.2c0.2,0.3,0.3,0.6,0.3,0.9c0,0.4-0.1,0.8-0.4,1.2c-0.3,0.4-0.6,0.6-0.7,0.5c-1.1-0.1-1.9-0.9-2.3-2.4
		c-0.5-1.6-1-3-1.5-4.1c-0.7,0.1-1.5,0.3-2.2,0.4c-0.8,0.2-1.5,0.5-1.9,1c-0.2,0.7-0.4,2-0.6,3.7c-0.2,1.6-0.4,2.9-0.7,3.8
		c-0.1,0.4-0.5,0.6-1.1,0.4c-0.8-0.2-1.2-0.5-1.3-0.9c-0.2-0.8,0-2,0.4-3.4c0.5-1.7,0.7-2.9,0.7-3.5c0-0.2-0.2-0.4-0.5-0.6
		c-0.3-0.2-0.5-0.4-0.5-0.5c0-0.1,0-0.2,0.1-0.4c0.1-0.1,0.3-0.3,0.7-0.4c0.4-0.1,0.5-0.3,0.6-0.4c0.3-1.1,0.7-3.3,1.2-6.3
		c0.4-2.7,0.9-4.7,1.3-6.2c0.1-0.3,0.4-0.5,0.8-0.5c0.3,0,0.6,0,0.9,0.2c0.7,0.5,1.2,1.2,1.4,2.2c0.2,0.9,0.4,1.8,0.7,2.7
		C453.8,377.8,455.4,381.9,456.9,385.2z M451.4,379.4c-0.2-0.8-0.4-1.7-0.7-2.7c-0.3-0.9-0.6-1.7-0.9-2.6c-0.5,1.9-0.8,3.8-1.1,5.7
		C449,379.7,449.9,379.5,451.4,379.4z"/>
	<path d="M467.4,381.8c0,0-1.2,1.1-3.6,3.2c-1.4,1.2-2.6,2.1-3.7,2.8c-0.1,0.1-0.3,0.1-0.4,0.1c-0.3,0-0.6-0.1-0.9-0.5
		c-0.5-0.5-0.7-0.7-0.7-0.8c-0.2-1.9-0.4-4.6-0.5-8.1c-0.1-3.7-0.2-6.4-0.4-8c-0.1-1.1-0.3-2.2-0.5-3.2c0.3-0.3,0.6-0.5,1-0.5
		c0.8-0.1,1.4,0.2,1.5,0.8c0.3,1.8,0.5,4.5,0.6,8.1c0.2,3.6,0.4,6.3,0.6,8.1c0.6-0.3,1.3-0.9,2.3-1.6c1-0.9,1.7-1.4,2.2-1.7
		c0.1,0,0.3-0.1,0.6-0.1c0.3-0.1,0.5-0.1,0.6-0.1c0.4,0,0.8,0.1,1,0.4C467.5,381,467.6,381.4,467.4,381.8z"/>
	<path d="M475.6,364.7c0.1,0.6-0.3,1-1.1,1.2c-1,0.3-1.6,0.6-1.8,0.9c-2.2,2.9-3.1,6.3-2.6,10.4c0.2,1.9,0.7,3.7,1.5,5.4
		c0.7,1.4,1.1,2.2,1.4,2.7c0.7,1,1.4,1.7,2.3,2.1c0.3,0.1,0.7,0.2,1,0.3c0.4,0.2,0.6,0.4,0.6,0.8c0,0.4,0,0.7-0.2,1
		c-0.2,0.3-0.4,0.4-0.7,0.4c-0.3,0-0.7-0.1-1.4-0.3c-1.1-0.5-2.4-1.7-3.8-3.6c-0.4-0.5-0.7-1-1.1-1.5c-0.4-0.5-0.7-1-0.9-1.5
		c-0.1-0.3-0.5-1.7-1-4.2c-0.2-0.8-0.3-1.5-0.4-2.2c-0.4-3.9,0.4-7.3,2.3-10.3c1.1-1.7,2.4-2.7,3.9-2.8c0.6-0.1,1.2,0.1,1.7,0.4
		C475.5,364.1,475.6,364.3,475.6,364.7z"/>
	<path d="M487.7,376.3c-1,3.1-2.6,5-4.9,5.8c-0.3,0.1-0.6,0.2-0.8,0.2c-1.3,0.1-2.6-0.4-4-1.6c-1-0.8-1.5-2-1.7-3.5
		c-0.2-1.6,0.1-3.4,0.9-5.4c0.3-0.8,0.8-1.6,1.3-2.2c0.6-0.8,1.2-1.2,1.8-1.2c0.4,0,0.7,0.1,1,0.3c0.3,0.2,1.2,0.5,2.6,0.8
		c1.1,0.2,1.9,0.8,2.4,1.5c0.9,1.4,1.4,2.6,1.6,3.7C487.9,375.2,487.8,375.8,487.7,376.3z M484.8,374.5c-0.3-1.6-0.9-2.5-1.6-2.7
		c-0.1,0-0.2,0-0.3,0c-0.3,0-0.6,0.3-0.9,0.8c-0.4,0.6-0.7,0.9-0.9,1c-0.1,0.1-0.4,0-0.7-0.1c-0.3-0.2-0.5-0.2-0.6-0.2l-0.2,0.1
		c-0.7,0.7-1,1.8-0.8,3.2c0.1,0.9,0.4,1.7,0.9,2.3c0.7,0.8,1.3,1.2,1.7,1.2c1-0.1,1.8-0.8,2.6-2.1
		C484.8,376.6,485,375.5,484.8,374.5z"/>
	<path d="M499.2,363.6c0.2,2,0.2,5.1,0,9.4c-0.1,4.1-0.1,7.2,0.2,9.4c0.1,0.7,0.2,1.3,0.3,1.9c0,0.2,0,0.3-0.2,0.5
		c-0.1,0.2-0.3,0.2-0.4,0.3c-0.6,0.1-1,0.1-1.2,0c-0.9-0.4-1.4-1.3-1.5-2.6c0-0.3-0.1-0.7-0.1-1.2c0-0.6-0.1-1-0.1-1.2
		c0-0.4-0.1-1.1,0-2c0-0.9,0-1.6-0.1-2.1c-0.3,0.1-0.7,0.1-1.3,0c-0.5-0.1-0.9-0.1-1.2,0c-0.3,0-0.6,0.1-0.8,0.2
		c-0.3,1.8-0.4,4.4-0.1,7.8c-0.7,0.4-1.4,0.4-2.2,0.1c-0.5-0.2-0.8-0.7-0.9-1.5c0-0.2,0-0.4,0-0.7c0-0.3,0-0.5,0-0.5
		c-0.1-1.2-0.1-3.6,0-7.1c0.1-3,0-5.3-0.2-7.1c0-0.2,0.1-0.4,0.5-0.5c0.3-0.1,0.5-0.2,0.6-0.3c0.1,0.1,0.5,0.2,1,0.3
		c0.4,0,0.7,0.2,0.8,0.5c0.2,0.5,0.4,1.1,0.5,1.8c0.1,0.5,0.1,1.3,0,2.3c0,1.1,0,1.9,0,2.4c0.3,0.2,0.6,0.3,1,0.3
		c0.3,0,0.6,0,1.1-0.1c0.6-0.1,1-0.2,1.1-0.2c0.3-2.4,0.5-5.4,0.5-9.1c0-0.8,0.2-1.2,0.7-1.2C498.3,362.9,499,363,499.2,363.6z"/>
	<path d="M513.7,373.5c-1,3.1-2.6,5-4.9,5.8c-0.3,0.1-0.6,0.2-0.8,0.2c-1.3,0.1-2.6-0.4-4-1.6c-1-0.8-1.5-2-1.7-3.5
		c-0.2-1.6,0.1-3.4,0.9-5.4c0.3-0.8,0.8-1.6,1.3-2.2c0.6-0.8,1.2-1.2,1.8-1.2c0.4,0,0.7,0.1,1,0.3c0.3,0.2,1.2,0.5,2.6,0.8
		c1.1,0.2,1.9,0.8,2.4,1.5c0.9,1.4,1.4,2.6,1.6,3.7C513.9,372.4,513.9,373,513.7,373.5z M510.9,371.7c-0.3-1.6-0.9-2.5-1.6-2.7
		c-0.1,0-0.2,0-0.3,0c-0.3,0-0.6,0.3-0.9,0.8c-0.4,0.6-0.7,0.9-0.9,1c-0.1,0.1-0.4,0-0.7-0.1c-0.3-0.2-0.5-0.2-0.6-0.2l-0.2,0.1
		c-0.7,0.7-1,1.8-0.8,3.2c0.1,0.9,0.4,1.7,0.9,2.3c0.7,0.8,1.3,1.2,1.7,1.2c1-0.1,1.8-0.8,2.6-2.1
		C510.8,373.8,511.1,372.7,510.9,371.7z"/>
	<path d="M525,375.6c0,0-1.2,1.1-3.6,3.2c-1.4,1.2-2.6,2.1-3.7,2.8c-0.1,0.1-0.3,0.1-0.4,0.1c-0.3,0-0.6-0.1-0.9-0.5
		c-0.5-0.5-0.7-0.7-0.7-0.8c-0.3-1.9-0.4-4.6-0.5-8.1c-0.1-3.7-0.2-6.4-0.4-8c-0.1-1.1-0.3-2.2-0.5-3.2c0.3-0.3,0.6-0.5,1-0.5
		c0.8-0.1,1.4,0.2,1.5,0.8c0.3,1.8,0.5,4.5,0.6,8.1c0.2,3.6,0.4,6.3,0.6,8.1c0.6-0.3,1.3-0.9,2.3-1.6c1-0.9,1.7-1.4,2.2-1.7
		c0.1,0,0.3-0.1,0.6-0.1c0.3-0.1,0.5-0.1,0.6-0.1c0.4,0,0.8,0.1,1,0.4C525.2,374.9,525.3,375.3,525,375.6z"/>
	<path d="M531.8,375.8c0.3,0.8,0.3,1.3,0.1,1.6c-0.2,0.3-0.6,0.5-1.2,0.5c-0.4,0-0.9-0.1-1.3-0.5s-0.7-0.7-0.7-1.1
		c0-0.3,0.1-0.5,0.3-0.8c0.2-0.3,0.4-0.4,0.7-0.4c0.4,0,0.8,0,1.3,0C531.3,375.2,531.6,375.4,531.8,375.8z"/>
	<path d="M346,307.9c1.5,11.2,2.7,27.1,3.6,47.7c1.1,22.4,2.1,38.3,3.2,47.7c0.7,6.6,1.5,12.7,2.5,18.4c0.7,4-0.5,6.1-3.7,6.5
		c-9.8,1-15.4-0.5-16.8-4.8c-3.1-9.1-5.2-19.4-6.5-31.1c-0.9-8.2-1.5-20.6-1.8-37.3s-0.9-29.1-1.8-37.1c-1.1-10.2-2.9-19.4-5.4-27.6
		c-0.3-1.1,0-2.4,0.9-4c0.9-1.6,1.9-2.6,3.2-3.3c6.3-2.9,11.3-2.3,14.9,1.8C342,289.1,344.5,296.8,346,307.9z"/>
	<path d="M445.6,408c-1,3-4.5,5.3-10.7,6.7c-5.2,1.2-11.6,2.2-19.1,3c-9.8,0.9-15.9,1.5-18.5,2c-4.8,0.5-7.8,0.8-8.9,0.9
		c-9.6,1-16.1-1.7-19.6-8.3c2.9-9.7,8-23.4,15.5-41.1c7.6-18.4,12.8-32,15.6-40.8c1.7-5.2,3.5-10.5,5.4-15.8
		c1.9-6.5,2.6-11.7,2.2-15.7c-0.7-6.7-2.8-9.9-6.1-9.5c-1.9,0.2-4,2.7-6.1,7.3c-2.2,4.7-4.2,9.1-6,13.4c-0.3,0.7-0.3,1.4-0.2,2.2
		c0.1,0.8,0.7,2.3,1.8,4.4c1.1,2.1,1.7,3.9,1.9,5.1c0.2,1.6-0.3,3.2-1.4,4.6c-1.1,1.5-2.6,2.3-4.3,2.5c-2.2,0.2-6.9-2.3-13.9-7.7
		c-2.3-1.7-3.6-4.1-3.9-7.3c-0.4-3.8,0.5-8.6,2.9-14.1c5.7-13.7,15.3-23.2,29-28.4c1.7-0.7,3.4-1.1,5-1.3c7.4-0.8,12.5,2.1,15.5,8.5
		c1.9,4.5,3.2,9.3,3.7,14.4c0.8,7.8-0.1,17.2-2.8,28c-2.9,9.1-5.8,18.1-8.5,27.1c-1.6,5-4.8,13.3-9.7,24.8c-4.4,10-7.4,18.4-9,25.2
		c2.6-0.1,9.8-0.8,21.6-2.1c8.8-0.9,16-1,21.6-0.1c4.6,0.8,7.2,3.7,7.7,8.6C446.1,406,446,407,445.6,408z"/>
</g>
</svg>
