<svg id="Capa_1" data-name="Capa 1" xmlns="http://www.w3.org/2000/svg" viewBox="0 0 272.5 305.51"><defs><style>.cls-1{fill:#ffce00;}</style></defs><path d="M270.46,74A18.59,18.59,0,0,0,265,67.59c.05-.3.13-.58.17-.89v-.09a28.79,28.79,0,0,0,.29-4.12c0-1,0-1.78-.09-2.47v-.08a32.47,32.47,0,0,0-1-6V53.9a31.76,31.76,0,0,0-1-3.09c-.47-1.21-.88-2.08-1.27-2.86-1.16-2.34-2.34-4.37-3.4-6.14s-2-3.28-2.71-4.56l-.33-.59a17,17,0,0,0,3-9.71,17.09,17.09,0,0,0-12.29-16.4h0a30.16,30.16,0,0,0-8.48-1.24,27,27,0,0,0-9.63,1.75l-.07,0a25.07,25.07,0,0,0-9.13,6l0,0a25.4,25.4,0,0,0-5.51,8.9A24.9,24.9,0,0,0,212,34.64c0,.69,0,1.41.1,2.15v0a23.06,23.06,0,0,0,.72,3.92,26.76,26.76,0,0,0-3.54,1.54h0c-.62.33-1.23.69-1.82,1.08l-.54-.19a17.13,17.13,0,0,0-5.18-.81,16.9,16.9,0,0,0-5.86,1.06,15.49,15.49,0,0,0-3.38-10.61c-.56-.69-1.33-1.65-2.38-2.77L190,30c-.85-.9-1.5-1.52-1.9-1.92l0-.05-3.23-3.2,0,0-6.45-6.35h0l-6.44-6.32a44,44,0,0,0-11.79-8.29h0A38.74,38.74,0,0,0,144.77,0c-.43,0-.87,0-1.35,0A38.29,38.29,0,0,0,129,2.87a43.46,43.46,0,0,0-12.43,7.81l-.45.41-1.7,1.63-.4.41-1.55,1.6h0l-3.08,3.19,0,0L85.08,43.23l0,0L73.16,55.72h0l-5.89,6.18-.16.17-.53.55c-.27.29-.66.69-1.11,1.19l-.27.31c-.39.46-.94,1.09-1.63,1.91l-.72.94-1.38,1.94-.56.84c-.66,1.07-1.12,1.9-1.43,2.44l-.34.61a40.55,40.55,0,0,0-4.42,15c-.11,1.2-.16,2.39-.16,3.58a40.49,40.49,0,0,0,1.9,12.24,42.42,42.42,0,0,0,7,13.24,25.88,25.88,0,0,0,1.67,2l.5.55.11.12,0,0,0,0c.5.56,1,1.06,1.36,1.46l.88.89L69.93,124q-23,23.7-44.95,46.9l-.05.05L14,182.49l-2.72,2.87-.06.06c-.11.12-.36.37-.72.77s-.82.89-1.31,1.49l0,0-.73.86a25.77,25.77,0,0,0-1.68,2.29A38.17,38.17,0,0,0,.9,204.47a38.61,38.61,0,0,0-.9,8.39,41.45,41.45,0,0,0,5.73,21h0A34.64,34.64,0,0,0,8,237.33l.26.36.05.06a20.43,20.43,0,0,0,1.28,1.66l.79.92.24.27.27.31c.15.18.36.42.67.75l.26.28.72.74,1.4,1.45,5.88,6.15,0,0,23.82,24.8,0,0,12.09,12.52,0,0,3,3.1,1.5,1.57.21.21c.8.8,1.5,1.45,2,2l.33.31a42.78,42.78,0,0,0,12.94,8,39.91,39.91,0,0,0,14.46,2.72,37.61,37.61,0,0,0,14.88-3,24.36,24.36,0,0,0,2.69-1.25l1.11-.62.22-.13.55-.3c.36-.21.89-.52,1.57-1l.18-.13.82-.59.89-.64a13.74,13.74,0,0,0,1.4-1.12l.82-.74c.27-.24.59-.52,1-.87s.73-.68,1.16-1.12l5.75-5.73L146.74,265l0,0c15.61-15.59,31.75-31.23,48.21-47.12a32.84,32.84,0,0,0,4.87-1.93h0l.1,0,.07,0h0a33.4,33.4,0,0,0,8.54-6.15l.08-.08a33.83,33.83,0,0,0,6.24-8.56l0,0a32.31,32.31,0,0,0,3.22-10.63,33.51,33.51,0,0,0,.26-4.24,35.23,35.23,0,0,0-.57-6.33h0a35,35,0,0,0-3.58-10.2l-.08-.15a35.75,35.75,0,0,0-3.75-5.47,40,40,0,0,0,5.58-.67,37.43,37.43,0,0,0,7.65-2.33h0l.07,0,.07,0a38.84,38.84,0,0,0,7.22-4,43,43,0,0,0,5.9-5,58.77,58.77,0,0,0,7.83-10.13c2-3.13,3.48-6,4.82-8.28.66-1.15,1.24-2.11,1.71-2.83a13.68,13.68,0,0,1,1.08-1.46l.06-.06a2.73,2.73,0,0,1,.39-.37l.24-.14.05,0a18.75,18.75,0,0,0,9.36-8.71,18.48,18.48,0,0,0,2-8.35v-.06a18.66,18.66,0,0,0-3-10.13,20.25,20.25,0,0,0-1.22-1.66c.53-.19,1.06-.39,1.58-.63a18.52,18.52,0,0,0,6.74-5.29v0a18.05,18.05,0,0,0,2.95-5.39,18.29,18.29,0,0,0-1-14.36Zm-87.77,107.6v0h0Z"/><path class="cls-1" d="M197.68,198.61a18.29,18.29,0,0,0,3.39-4.63,16.92,16.92,0,0,0,1.67-5.55,19.25,19.25,0,0,0-.18-5.86,19.48,19.48,0,0,0-2-5.67,20.76,20.76,0,0,0-3.71-4.85,21.68,21.68,0,0,0-5-3.63,21.14,21.14,0,0,0-5.79-2,19.48,19.48,0,0,0-6.09-.31,18.1,18.1,0,0,0-2.46.46l.48-.46c.78-.75,1.53-1.44,2.36-2.27a10.36,10.36,0,0,0,1.37-1.63,6.8,6.8,0,0,0,.38-.71,4.69,4.69,0,0,0,.3-1,3.78,3.78,0,0,0,0-1.21,5.13,5.13,0,0,0-.12-.59c-.05-.16-.11-.32-.17-.48a5.73,5.73,0,0,0-.4-.79,4.74,4.74,0,0,0-.4-.58c-.26-.37-.48-.59-.71-.87-.44-.48-.86-.91-1.26-1.31L177,152.26l-2.59-2.57c1-1,2-2,3-3,.42-.39.84-.77,1.27-1.14a7.14,7.14,0,0,0,1-1.07,4.35,4.35,0,0,0,.92-2.38,4.09,4.09,0,0,0-.21-1.59,4.29,4.29,0,0,0-.26-.63,3.69,3.69,0,0,0-.29-.5,7.47,7.47,0,0,0-1-1.26l-1.4-1.37-10.65-10.32a3.14,3.14,0,0,0-4.42,0h0l-4.33,4.36-1.35,1.36-8-7.76,0,0h0a3.06,3.06,0,0,0-4.31,0l-10.87,11.2-5.39,5.56-2.47,2.54-10.77-10.48-5.69-5.54-2.83-2.76-1-1c5.79-6.14,11.55-12.35,17.36-18.56,6.41-6.86,12.76-13.79,19.15-20.72l19.23-21,19.25-21.12c-.5-.62-1-1.28-1.63-1.91s-1.08-1.09-1.62-1.63l-3.23-3.2-6.45-6.36L161,23.16a28.29,28.29,0,0,0-7.62-5.37,23.25,23.25,0,0,0-9.16-2.27,22.57,22.57,0,0,0-9.36,1.7,28.09,28.09,0,0,0-8,5.06l-1.7,1.63-1.55,1.6-3.08,3.19L96.26,54,84.38,66.42,78.49,72.6c-.49.53-1,1-1.48,1.57S76,75.36,75.48,76L74.1,77.9c-.42.68-.81,1.38-1.21,2.07a24.77,24.77,0,0,0-1.65,19,27,27,0,0,0,4.62,8.63,23.19,23.19,0,0,0,1.58,1.84c.56.64,1.06,1.13,1.57,1.64l3.06,3.08,6.13,6.19,3.09,3.09.34.35-1.33,1.39-2.94,3-5.85,6.05C66.09,150.2,51,166,36.2,181.57L25.27,193.15,22.55,196c-.45.48-.89.92-1.4,1.54a16.58,16.58,0,0,0-1.41,1.79,22.73,22.73,0,0,0-3.7,8.42,25.66,25.66,0,0,0,3.23,18.54,21.67,21.67,0,0,0,1.35,2c.25.32.47.67.73,1l.79.92c.27.3.54.63.79.9l.74.76,1.47,1.53L31,239.57l23.82,24.8,12.09,12.52L70,280l1.52,1.58c.53.53,1.16,1.12,1.74,1.67a27,27,0,0,0,8.23,5.06,23.35,23.35,0,0,0,18-.27,16.09,16.09,0,0,0,2-1c.32-.19.66-.35,1-.56l.9-.65.9-.64.82-.74c.55-.49,1.11-1,1.56-1.46l5.77-5.75L135.82,254c15.87-15.85,32.23-31.7,48.87-47.76a1,1,0,0,0,0-1.4l-.76-.93A19.45,19.45,0,0,0,193,202,18,18,0,0,0,197.68,198.61Zm-35.76-18.18h0S161.88,180.36,161.92,180.43ZM64.31,258l0,0h0l.14.13C64.47,258.11,64.43,258.07,64.31,258Zm36.14,19.14a16.37,16.37,0,0,1-9.81,4.11,13.5,13.5,0,0,1-5.16-.86c-.42-.17-.84-.29-1.25-.5L83,279.22l-1.18-.74c-.39-.24-.76-.56-1.14-.83a10.4,10.4,0,0,1-1.11-.9c-.35-.32-.73-.61-1.07-1l-1-1-1.12-1.21-4.52-4.85-6.2-6.61a2.41,2.41,0,0,0,.27-2.74l-.26-.49c-.6-1.15-1.2-2.29-1.82-3.4s-1.12-2.3-1.69-3.43c-.3-.56-.51-1.16-.75-1.74l-.72-1.75a18.43,18.43,0,0,1-.63-1.76L59.47,245a71.25,71.25,0,0,1-2.82-14.46,81.46,81.46,0,0,1,.09-14.81.15.15,0,0,0,0-.07l.44-3.75c.19-1.25.35-2.51.52-3.78l.29-1.9.13-1,.07-.48a4.46,4.46,0,0,1,.08-.52,19.08,19.08,0,0,0,.26-2.4c0-.5,0-.94.06-1.33a4.35,4.35,0,0,1,.06-.52c-.16.08-.37.12-.63.23a3,3,0,0,0-.77.45c-.33.21-.66.43-1,.66-.63.45-1.27.89-1.88,1.35,5.27-5.71,10.48-11.54,15.76-17.36,6-5.71,12-11.4,18-17.23s12-11.82,18-17.81l4.54-4.52,1.47-1.46,8.15,8.26q9.45,9.63,19.17,19.14t19.72,19.1l5,4.75,5.1,4.72c1.71,1.57,3.41,3.15,5.15,4.71l.14.12-.25.27-1.12,1.2c-5.93,6.4-11.76,12.83-17.71,19.07s-11.88,12.31-18,18.21l-.12.12C125.5,255.63,112.88,266.45,100.45,277.09ZM113.58,143h0Zm59.79,46.09a13.18,13.18,0,0,1-.44-4.15,11.2,11.2,0,0,1,3.16-6.9,12.47,12.47,0,0,1,3.08-2.36,18.16,18.16,0,0,1,4-1.73,10.57,10.57,0,0,1,5-.3,9.51,9.51,0,0,1,4.72,2.44,9.27,9.27,0,0,1,2.52,4.61,9.91,9.91,0,0,1-.3,4.87,17.37,17.37,0,0,1-1.79,3.88,12,12,0,0,1-2.47,3,11.91,11.91,0,0,1-7.11,3.1,14.14,14.14,0,0,1-4.25-.46,13.34,13.34,0,0,1-4.24-1.83A13.47,13.47,0,0,1,173.37,189.08ZM94.49,95.3c.3-.43.57-.91.91-1.33s.64-.84,1.06-1.32l2.36-2.77c1.57-1.86,3.16-3.7,4.71-5.59s3.13-3.76,4.66-5.68l2.37-2.94c.88-1.12,1.62-2.27,2.31-3.2-1.79-.47-3.6-1-5.48-1.53l-5.74-1.69c-2-.57-4-1.16-6-1.71-.84-.23-1.69-.44-2.54-.66a21.29,21.29,0,0,1,1.81-1.78,4.8,4.8,0,0,1,1.86-1l.49-.09.52-.05.55,0,.76,0h.32c4.11.22,8.21.18,12.27.15l6.24-.08H121c.22,0,.6,0,1,0a9.89,9.89,0,0,0,1.16-.14,8.49,8.49,0,0,0,2.4-.84,9.22,9.22,0,0,0,2-1.46l1.26-1.29L131,58.08l4.38-4.51a3.5,3.5,0,0,0,.94-1.77,3.56,3.56,0,0,0-2.77-4.2l-.09,0-5.94-1.21-5.92-1.18-5.34-1,.38-.4h.25l.95-.06,3.72-.22,15-.93,3.77-.24,1.89-.12.47,0a6.67,6.67,0,0,0,.74-.08,8.93,8.93,0,0,0,1.42-.35,8.26,8.26,0,0,0,1.35-.57,5.69,5.69,0,0,0,.66-.39l.34-.23.26-.19c.44-.32.86-.67,1.31-1a16.78,16.78,0,0,1,2.87-1.52A16.32,16.32,0,0,1,158,36.53a17.27,17.27,0,0,1,6.48,1.3c.52.2,1,.48,1.53.72s1,.57,1.47.88.92.64,1.42,1,1,.79,1.45,1.17a9.11,9.11,0,0,1,1,.94,8.3,8.3,0,0,1-.86,1c-.4.41-.87.85-1.33,1.29-3.69,3.56-7.43,7.08-11.07,10.65-7.27,7.08-14.33,14.28-21.4,21.38S122.73,91,116,98.07c-3.38,3.53-6.7,7.09-10,10.65L101,114.06l-2.29,2.52-1-1A31.44,31.44,0,0,1,95.45,113a14.85,14.85,0,0,1-2.76-5.48,15.78,15.78,0,0,1-.35-6.24.3.3,0,0,1,0-.1A16.57,16.57,0,0,1,94.49,95.3Zm21.75-51.5h0C116.17,43.82,116.19,43.79,116.24,43.8Zm47.44,138.32c-.41-.41-.83-.82-1.28-1.23l.63-.59,1.15-1.09.15-.14A21.22,21.22,0,0,0,163.68,182.12ZM92.73,124.94s0,.07,0,0Z"/><path class="cls-1" d="M168.86,78.46a2.66,2.66,0,0,1,0,.4,1,1,0,0,1,0,.17l0,.36-.14,1.35a23,23,0,0,1-.34,2.38,10,10,0,0,1-.27,1c-.06.14-.11.29-.17.42l-.27.58a40.88,40.88,0,0,0-3.39,10.8,44.43,44.43,0,0,0-.51,5.64,42.3,42.3,0,0,0,.28,5.63,49.17,49.17,0,0,0,1,5.53c.2.91.47,1.81.7,2.71l.65,2.53v0a2.4,2.4,0,0,0,1.63,1.67,2.25,2.25,0,0,0,2.86-1.47c.5-1.73.89-3.43,1.41-4.88,0,0,0,0,0,0,.09.16.18.33.28.48l.53.75a14.44,14.44,0,0,0,1.18,1.41,16.51,16.51,0,0,0,1.39,1.25,12,12,0,0,0,3.32,1.85,10.18,10.18,0,0,0,1.87.52,8,8,0,0,0,1,.12c.32,0,.64,0,1,0a11.45,11.45,0,0,0,3.71-.68,9.53,9.53,0,0,0,1.66-.74,10.84,10.84,0,0,0,1.5-.94,19.29,19.29,0,0,0,2.57-2.19,9.66,9.66,0,0,0,1.18-1.45l.13-.21.09-.17.19-.34.37-.67,1.48-2.71,3-5.42,3-5.37.78-1.37a3,3,0,0,0,0,.53c.09.67.28,1.19.36,1.62v.14a.87.87,0,0,0,1,.62,16.22,16.22,0,0,0,2-.29,2.92,2.92,0,0,0,.64-.27l.41-.27c.28-.17.55-.36.82-.54a19.6,19.6,0,0,0,3-2.54A16.12,16.12,0,0,0,213,93.31a13.93,13.93,0,0,0,.84-1.74c.13-.29.22-.6.33-.9a3.63,3.63,0,0,0,.17-.78h0l-.34,7.41a.59.59,0,0,0,.2.47.64.64,0,0,0,.88,0l0,0A10.14,10.14,0,0,1,219,95.36a15.39,15.39,0,0,1,1.71-.5c-.17.16-.35.32-.51.49a24.85,24.85,0,0,0-2.38,2.92,21.41,21.41,0,0,0-3.13,6.81,13.33,13.33,0,0,0,0,7.79,9.82,9.82,0,0,0,2.21,3.63,2.72,2.72,0,0,0,.24.24,8.68,8.68,0,0,0-2.89,1.4,7.88,7.88,0,0,0-2.24,2.78,14.19,14.19,0,0,0-1,3c-.22,1-.36,1.89-.53,2.8s-.32,1.78-.51,2.62A19.45,19.45,0,0,1,208.3,134a8.72,8.72,0,0,1-2.85,3.32,7.1,7.1,0,0,1-1.94.87,10.08,10.08,0,0,1-1.09.24c-.4.07-.81.11-1.23.15a35,35,0,0,1-5.39-.08l-5.61-.37a2.4,2.4,0,0,0-1.29,4.54l.07,0c5.5,3.09,11.73,5.5,18.54,5.76a23.83,23.83,0,0,0,10.1-1.83,25.52,25.52,0,0,0,8.21-5.69,44,44,0,0,0,5.75-7.49c1.63-2.61,3.06-5.24,4.52-7.78a41.07,41.07,0,0,1,4.68-6.9,17.17,17.17,0,0,1,6.18-4.5l0,0a3.22,3.22,0,0,0,1.62-1.49,3.16,3.16,0,0,0-1.6-4.29,11.35,11.35,0,0,0-3.29-1,10.16,10.16,0,0,0-3.63.17,14.2,14.2,0,0,0-2.9,1c-.77.37-1.49.74-2.18,1.11s-1.35.71-2,1l-.93.45-.38.15a1.31,1.31,0,0,1-.33.12,6.11,6.11,0,0,1-3,.18,6.34,6.34,0,0,1-2.73-1.17,4.9,4.9,0,0,1-1-1,2.94,2.94,0,0,1-.49-.94,1.48,1.48,0,0,1,0-.72,1.66,1.66,0,0,1,.38-.73,4,4,0,0,1,1-.8,8,8,0,0,1,1.15-.69l1.23-.35c.44-.13.87-.3,1.3-.45s.84-.35,1.27-.53l1.23-.62a19.21,19.21,0,0,0,4.36-3.29,23.62,23.62,0,0,0,3.23-4.08c.23-.36.45-.72.65-1.08s.41-.72.6-1.09.38-.72.56-1.09l.49-1a13.37,13.37,0,0,1,4.76-5.69,10.51,10.51,0,0,1,7.08-1.24h.08a3.12,3.12,0,0,0,2.85-1.12,2.8,2.8,0,0,0-.61-4.06,23.69,23.69,0,0,0-2.83-1.8A13.61,13.61,0,0,0,249.37,77a22.62,22.62,0,0,0-6.78-.17l-1.5.16-1.49.17-2.86.36c-.9.1-1.77.17-2.59.18a2.27,2.27,0,0,1-.62-.06c-.13,0-.18-.07-.19-.06v0a.5.5,0,0,1,0-.24,2.54,2.54,0,0,1,.15-.59,4.91,4.91,0,0,1,.43-.79,3.45,3.45,0,0,1,1.16-1.09,3.36,3.36,0,0,1,.77-.32c.31-.1.75-.2,1.16-.29L238.3,74l1.46-.22a13.34,13.34,0,0,0,3.49-1,11.57,11.57,0,0,0,5.42-4.88,10.1,10.1,0,0,0,1.18-3.45,14.66,14.66,0,0,0,.09-3.35,17.33,17.33,0,0,0-.54-3.18,15.21,15.21,0,0,0-.5-1.58c-.2-.51-.45-1.06-.66-1.48-1.77-3.56-3.91-6.76-5.74-10A49.48,49.48,0,0,1,238,35l-.05-.16,0-.1-.05-.22a3.8,3.8,0,0,1-.06-.5,7.2,7.2,0,0,1,0-1.12,11.56,11.56,0,0,1,.22-1.24l.15-.64.08-.32c0-.1.07-.25.09-.29a1.68,1.68,0,0,1,1-1.09,8.72,8.72,0,0,1,2.31-.67h.07a1.72,1.72,0,0,0,1.34-1.13,1.59,1.59,0,0,0-1.09-2,12.89,12.89,0,0,0-8.23.11,9.75,9.75,0,0,0-5.73,5.86,9.18,9.18,0,0,0-.56,4,8.26,8.26,0,0,0,1.37,3.81c.72,1.08,1.51,1.95,2.12,2.83a12,12,0,0,1,.84,1.4l.84,1.52a21.89,21.89,0,0,1,1.39,3,8,8,0,0,1,.5,3,4,4,0,0,1-.32,1.35,3.08,3.08,0,0,1-.75,1.1,4.63,4.63,0,0,1-2.61,1.2,8.33,8.33,0,0,1-1.59.11c-.58,0-1.18,0-1.78-.07-1.2-.06-2.41-.11-3.63-.11A15.84,15.84,0,0,0,216.49,56a8.14,8.14,0,0,0-2.94,2.62,8.84,8.84,0,0,0-1.31,3.57,15.38,15.38,0,0,0,0,3.65c.14,1.2.41,2.34.65,3.45a20.74,20.74,0,0,1,.51,3.24,22.32,22.32,0,0,1,0,3.27,13.82,13.82,0,0,1-.21,1.59c0,.24-.11.55-.17.73a1.86,1.86,0,0,1-.25.56,4,4,0,0,1-2.19,1.58,5.41,5.41,0,0,1-1.43.28,4,4,0,0,1-1.34-.13,2.73,2.73,0,0,1-1.68-1.73,12.7,12.7,0,0,1-.62-3c-.12-1.08-.16-2.19-.21-3.32-.07-2.21,0-4.47,0-6.79,0-.58,0-1.16,0-1.75l0-.45c0-.17,0-.34-.05-.51a9.07,9.07,0,0,0-.21-1,6.68,6.68,0,0,0-2.35-3.63h0a1.5,1.5,0,0,0-2.06.28l0,.06-3.16,4.09-1.57,2c-.52.66-1.06,1.42-1.53,1.93s-1.16,1.17-1.79,1.9-1.17,1.4-1.7,2.16a13.86,13.86,0,0,0-2.38,5.3,11.44,11.44,0,0,0,.52,6c.17.46.35.91.55,1.36s.41.87.65,1.28l.35.61.18.31.13.23.22.43.19.46A12.3,12.3,0,0,1,191,95a10.48,10.48,0,0,1-.89,1.88,6.82,6.82,0,0,1-.56.81,4.25,4.25,0,0,1-.57.65,2.12,2.12,0,0,1-1,.59,1.06,1.06,0,0,1-.75-.14,4.17,4.17,0,0,1-1.11-1,13.7,13.7,0,0,1-1.2-1.77,21.58,21.58,0,0,1-1-2A9.35,9.35,0,0,1,183.3,92c-.17-.76-.34-1.63-.61-2.6-.16-.52-.28-.88-.41-1.29l-.39-1.21c-.53-1.62-1.06-3.25-1.65-4.9q-.44-1.23-.93-2.46l-.25-.62-.06-.16-.09-.2c-.06-.14-.12-.27-.19-.41a9.37,9.37,0,0,0-1-1.54A9.2,9.2,0,0,0,175,74.27a11.43,11.43,0,0,0-3.16-1.16h0a2.88,2.88,0,0,0-.78,0,2.6,2.6,0,0,0-2.42,2.82C168.66,76.94,168.83,77.84,168.86,78.46Z"/></svg>