<?xml version="1.0" encoding="utf-8"?>
<!-- Generator: Adobe Illustrator 25.4.0, SVG Export Plug-In . SVG Version: 6.00 Build 0)  -->
<svg version="1.1" id="Capa_1" xmlns="http://www.w3.org/2000/svg" xmlns:xlink="http://www.w3.org/1999/xlink" x="0px" y="0px"
	 viewBox="0 0 566.19 186.95" style="enable-background:new 0 0 566.19 186.95;" xml:space="preserve">
<style type="text/css">
	.st0{fill:#C8D12A;}
	.st1{fill:url(#);}
	.st2{fill:#050504;}
	.st3{fill:#FFFFFF;}
	.st4{fill:none;stroke:#FFFFFF;stroke-width:22.4065;}
	.st5{fill:none;stroke:#FFFFFF;stroke-width:11.3663;}
	.st6{fill:#C9D22A;}
	.st7{fill:#C8D12A;stroke:#000000;stroke-width:5.1402;stroke-miterlimit:10;}
	.st8{fill:#C4224F;stroke:#000000;stroke-width:5.1402;stroke-miterlimit:10;}
	.st9{fill:#030405;}
	.st10{fill:#C6CF31;}
	.st11{fill:#C4224F;}
	.st12{stroke:#000000;stroke-width:5.1402;stroke-miterlimit:10;}
	.st13{stroke:#FFFFFF;stroke-width:4;stroke-linecap:round;stroke-linejoin:round;stroke-miterlimit:10;}
	.st14{fill:none;stroke:#FFFFFF;stroke-width:4;stroke-linejoin:round;stroke-miterlimit:10;}
	.st15{fill:#C4224F;stroke:#000000;stroke-width:5.5;stroke-miterlimit:10;}
	.st16{stroke:#FFFFFF;stroke-width:2.9639;stroke-miterlimit:10;}
	.st17{clip-path:url(#SVGID_00000163784019797052665400000009072921139849756307_);}
	.st18{fill:#C8D12A;stroke:#000000;stroke-width:5.6822;stroke-miterlimit:10;}
	.st19{fill:#00993D;}
	.st20{clip-path:url(#SVGID_00000095322659994292654080000016133882117842397106_);}
	.st21{stroke:#FFFFFF;stroke-width:4;stroke-miterlimit:10;}
	.st22{stroke:#000000;stroke-width:2.5698;stroke-miterlimit:10;}
	.st23{fill:#C8D12A;stroke:#000000;stroke-width:2.569;stroke-miterlimit:10;}
	.st24{stroke:#000000;stroke-width:2.569;stroke-miterlimit:10;}
	.st25{stroke:#FFFFFF;stroke-width:1.9992;stroke-linecap:round;stroke-linejoin:round;stroke-miterlimit:10;}
	.st26{clip-path:url(#SVGID_00000078034331555365209480000001947387631618699136_);}
	.st27{fill:#C8D12A;stroke:#000000;stroke-width:2.8287;stroke-miterlimit:10;}
	.st28{stroke:#FFFFFF;stroke-width:1.4755;stroke-miterlimit:10;}
	.st29{clip-path:url(#SVGID_00000126304903343073268500000016208608581168889997_);}
	.st30{clip-path:url(#SVGID_00000066490366465979330240000001301636649650155193_);}
	.st31{clip-path:url(#SVGID_00000083067978631286709680000000463039458259339180_);}
	.st32{clip-path:url(#SVGID_00000127002332353154631330000002135293968257755814_);}
	.st33{fill:#C8D12A;stroke:#000000;stroke-width:2.4552;stroke-miterlimit:10;}
	.st34{stroke:#FFFFFF;stroke-width:1.2719;stroke-miterlimit:10;}
	.st35{fill:#C8D12A;stroke:#000000;stroke-width:2.1112;stroke-miterlimit:10;}
	.st36{stroke:#000000;stroke-width:2.1112;stroke-miterlimit:10;}
	.st37{stroke:#FFFFFF;stroke-width:1.6429;stroke-linecap:round;stroke-linejoin:round;stroke-miterlimit:10;}
	.st38{clip-path:url(#SVGID_00000178920485753014830090000016856175595756029106_);}
	.st39{stroke:#000000;stroke-width:2.1118;stroke-miterlimit:10;}
	.st40{clip-path:url(#SVGID_00000085215737253796502410000014251413692136555966_);}
	.st41{clip-path:url(#SVGID_00000121961364703698561600000009933656938626719133_);}
	.st42{clip-path:url(#SVGID_00000061464205242615716700000009460642940127851708_);}
	.st43{stroke:#FFFFFF;stroke-width:2.0202;stroke-miterlimit:10;}
	.st44{opacity:0.9;fill:#00993D;}
	.st45{opacity:0.9;}
	.st46{opacity:0.9;fill:#FFFFFF;}
	.st47{clip-path:url(#SVGID_00000127022025803334781630000007751291850516224953_);}
	.st48{opacity:0.16;}
	.st49{fill:none;}
	.st50{fill:#222221;}
	.st51{fill:#FFFFFF;stroke:#FFFFFF;stroke-width:8.5919;stroke-linejoin:round;stroke-miterlimit:10;}
	.st52{stroke:#000000;stroke-width:8.5919;stroke-linejoin:round;stroke-miterlimit:10;}
	.st53{fill:#FFFFFF;stroke:#FFFFFF;stroke-width:8.5634;stroke-linejoin:round;stroke-miterlimit:10;}
	.st54{stroke:#000000;stroke-width:8.5634;stroke-linejoin:round;stroke-miterlimit:10;}
	.st55{fill:#FFFFFF;stroke:#FFFFFF;stroke-width:8.5806;stroke-linejoin:round;stroke-miterlimit:10;}
	.st56{stroke:#000000;stroke-width:8.5806;stroke-linejoin:round;stroke-miterlimit:10;}
	.st57{fill:#FFFFFF;stroke:#FFFFFF;stroke-width:7.4042;stroke-linejoin:round;stroke-miterlimit:10;}
	.st58{stroke:#000000;stroke-width:7.4042;stroke-linejoin:round;stroke-miterlimit:10;}
	.st59{fill:#FFFFFF;stroke:#FFFFFF;stroke-width:8.5749;stroke-linejoin:round;stroke-miterlimit:10;}
	.st60{stroke:#000000;stroke-width:8.5749;stroke-linejoin:round;stroke-miterlimit:10;}
	.st61{fill:#FFFFFF;stroke:#FFFFFF;stroke-width:7.4433;stroke-linejoin:round;stroke-miterlimit:10;}
	.st62{stroke:#000000;stroke-width:7.4433;stroke-linejoin:round;stroke-miterlimit:10;}
	.st63{fill:#FFFFFF;stroke:#FFFFFF;stroke-width:7.3602;stroke-linejoin:round;stroke-miterlimit:10;}
	.st64{stroke:#000000;stroke-width:7.3602;stroke-linejoin:round;stroke-miterlimit:10;}
	.st65{fill:#FFFFFF;stroke:#FFFFFF;stroke-width:8.0592;stroke-linejoin:round;stroke-miterlimit:10;}
	.st66{stroke:#000000;stroke-width:8.0592;stroke-linejoin:round;stroke-miterlimit:10;}
	.st67{fill:#FFFFFF;stroke:#FFFFFF;stroke-width:8.5637;stroke-linejoin:round;stroke-miterlimit:10;}
	.st68{stroke:#000000;stroke-width:8.5637;stroke-linejoin:round;stroke-miterlimit:10;}
	.st69{fill:#FFFFFF;stroke:#FFFFFF;stroke-width:7.8456;stroke-linejoin:round;stroke-miterlimit:10;}
	.st70{stroke:#000000;stroke-width:7.8456;stroke-linejoin:round;stroke-miterlimit:10;}
	.st71{fill:#FFFFFF;stroke:#FFFFFF;stroke-width:7.9249;stroke-linejoin:round;stroke-miterlimit:10;}
	.st72{stroke:#000000;stroke-width:7.9249;stroke-linejoin:round;stroke-miterlimit:10;}
	.st73{fill:#FFFFFF;stroke:#FFFFFF;stroke-width:7.8723;stroke-linejoin:round;stroke-miterlimit:10;}
	.st74{stroke:#000000;stroke-width:7.8723;stroke-linejoin:round;stroke-miterlimit:10;}
	.st75{fill:#FFFFFF;stroke:#FFFFFF;stroke-width:8.5875;stroke-linejoin:round;stroke-miterlimit:10;}
	.st76{fill:#FFFFFF;stroke:#FFFFFF;stroke-width:10.3776;stroke-linejoin:round;stroke-miterlimit:10;}
	.st77{stroke:#000000;stroke-width:8.5875;stroke-linejoin:round;stroke-miterlimit:10;}
	.st78{stroke:#000000;stroke-width:10.3776;stroke-linejoin:round;stroke-miterlimit:10;}
	.st79{fill:#FFFFFF;stroke:#FFFFFF;stroke-width:8.4886;stroke-linejoin:round;stroke-miterlimit:10;}
	.st80{stroke:#000000;stroke-width:8.4886;stroke-linejoin:round;stroke-miterlimit:10;}
</style>
<g>
	<path class="st2" d="M75.94,17.6c3.01,4.05,4.73,6.57,5.17,7.56c0.48,1.06,0.61,2.18,0.38,3.37l-0.32,1.61l-25.8,18.88
		C39.78,60.5,30.93,66.73,28.81,67.69c-0.91,0.27-1.8,0.17-2.66-0.3l-0.49-0.25c-0.96-0.61-2.48-2.31-4.57-5.12l-1.6-2.15
		c-2.68-3.88-4.2-6.26-4.53-7.12c-0.5-1.35-0.46-2.6,0.11-3.73c0.06-0.05,0.2-0.41,0.42-1.07c0-0.41-0.06-0.62-0.17-0.64l-3.29-1.97
		c-1.93-1.1-3.99-3.12-6.17-6.05c-1.99-2.68-3.3-4.64-3.93-5.9c-0.63-1.26-1.13-2.96-1.52-5.11c-1.27-6.76,0.3-12.48,4.71-17.18
		c1.91-1.93,3.55-3.4,4.92-4.42c4.57-3.4,9.4-5.49,14.48-6.28c5.08-0.79,9.77-0.42,14.05,1.11c4.28,1.53,7.61,3.89,9.99,7.09
		c2.28,3.07,3.55,6.68,3.81,10.85c0.03,0.99,0.15,1.5,0.38,1.54c0.11,0.02,2.48-1.44,7.09-4.36c4.61-2.92,7.32-4.53,8.12-4.82
		c1.35-0.5,2.75-0.12,4.19,1.14C73.09,13.9,74.34,15.45,75.94,17.6z M38.98,28.21c-0.04-1.29-0.48-2.48-1.3-3.59
		c-0.78-1.04-2.01-1.95-3.7-2.72c-3.09-1.15-5.87-0.81-8.35,1.04c-1.63,1.21-2.76,2.94-3.38,5.17c-0.62,2.23-0.15,4.39,1.4,6.48
		c0.68,0.91,1.63,1.78,2.84,2.6l1.58,1.1l10.97-8.15L38.98,28.21z"/>
	<path class="st2" d="M98.71,57.92l1.17,1.07c2.35,2.37,3.92,4.57,4.7,6.61s1.26,5.07,1.45,9.09c0.28,6.21-0.83,11.58-3.33,16.13
		c-1.07,1.78-2.07,3.17-3.01,4.19c-3.35,3.66-5.84,5.19-7.48,4.57L77.26,85.92c-4.75-4.33-7.14-6.47-7.2-6.41
		c-0.66,0.72-0.67,2.12-0.03,4.19c0.64,2.07,1.7,4.17,3.18,6.29c0.86,1.11,1.7,2.05,2.54,2.82c1.38,1.26,3.54,2.57,6.48,3.94
		c2.18,1.11,3.51,1.88,3.99,2.32c0.6,0.55,0.92,1.17,0.95,1.86c-0.13,0.98-0.51,2.67-1.15,5.06c-0.64,2.39-1.26,3.91-1.87,4.57
		c-1.21,1.32-3.5,1.6-6.87,0.83c-3.37-0.65-6.49-1.79-9.35-3.42c-2.87-1.63-5.92-3.92-9.16-6.88c-3.96-3.62-6.7-6.78-8.2-9.47
		c-1.5-2.7-2.39-6.37-2.66-11.02c-0.27-4.65,0.19-8.53,1.37-11.63c1.18-3.1,3.17-6.19,5.97-9.25c3.07-3.36,6.36-5.97,9.88-7.83
		c3.51-1.86,7.72-2.7,12.62-2.51c5.19,0.11,10.47,1.69,15.84,4.72C95.39,55.16,97.09,56.44,98.71,57.92z M87.25,69.93
		c-1.32-1.21-2.83-1.87-4.54-2c-1.7-0.12-3.14,0.39-4.29,1.53l-1.08,1l4.17,4.3l3.53,3.55l0.45,0.41c0.24,0.22,0.42,0.33,0.53,0.32
		l0.18,0.16l0.18,0.16c0.29,0.16,0.74-0.09,1.35-0.75c0.71-0.78,1.22-1.7,1.52-2.75C89.83,73.67,89.17,71.68,87.25,69.93z"/>
	<path class="st2" d="M155.1,88.62l2.59,1.37c5.5,2.99,8.12,5.34,7.87,7.05c-0.47,1.41-5.09,10.51-13.86,27.31l-7.4,14.03
		c-3.23,6.12-5.44,10.14-6.65,12.08c-0.91,1.54-1.78,2.23-2.61,2.07c-1.05-0.28-3.5-1.39-7.35-3.33c-0.76-0.31-2.11-0.97-4.05-2
		c-2.01-1.06-3.31-1.96-3.9-2.68c-0.58-0.72-0.77-1.42-0.55-2.09c0.21-0.67,0.81-1.94,1.8-3.81l1.36-2.32l1.48-2.81
		c0.53-1.01,1.04-1.89,1.53-2.64l1.48-2.81c1.9-3.6,3.38-6.67,4.46-9.23c2.68-6.31,5.54-12.34,8.58-18.1
		c2.09-3.96,4.12-7.34,6.12-10.15c1.99-2.81,3.58-4.13,4.78-3.96C151.57,86.85,153.01,87.52,155.1,88.62z"/>
	<path class="st2" d="M206.04,122.81c4.33,1.42,7.6,2.8,9.81,4.13c1.57,0.95,2.62,1.98,3.16,3.09c0.53,1.12,0.7,2.63,0.5,4.53
		c-0.1,1.08-1.12,4.56-3.05,10.43c-4.35,13.21-7.59,22.12-9.71,26.73c-1.07,2.47-1.99,4.1-2.76,4.87c-0.77,0.77-1.88,1.09-3.33,0.96
		c-1.46-0.14-4.1-0.75-7.93-1.84c-1.03-0.25-2.7-0.76-5.02-1.53c-1.7-0.56-2.76-1.1-3.19-1.63c-0.43-0.53-0.71-1.5-0.84-2.91
		c-0.13-1.41-0.36-2.17-0.66-2.27c-0.31-0.1-1.67,0.01-4.09,0.32c-3.75,0.48-7.1,0.23-10.03-0.74c-3.09-1.02-5.95-3.25-8.59-6.68
		c-2.64-3.44-4.48-7.39-5.54-11.84c-1.06-4.46-0.95-8.62,0.32-12.48c0.56-1.7,1.16-3,1.8-3.9l0.92-1.62l0.65-1.2
		c0.82-1.7,3.08-4.04,6.8-7.01c5.72-4.62,11.74-6.66,18.07-6.12c1.24,0.15,2.47,0.43,3.71,0.84c4.33,1.43,7.56,3.69,9.71,6.79
		c0.59,0.8,1.08,1.26,1.47,1.38c0.39,0.13,0.67-0.08,0.85-0.62c0.13-0.39,0.65-0.88,1.58-1.47c0.92-0.6,1.69-0.92,2.31-0.97
		C203.31,122,204.34,122.25,206.04,122.81z M188.03,136.14c-1.85-0.61-3.69-0.62-5.52-0.02c-1.83,0.6-3.31,1.73-4.46,3.41
		c-0.46,0.62-0.82,1.32-1.07,2.09c-0.66,2.01-0.38,3.88,0.85,5.61c1.23,1.73,3.23,3.06,6.01,3.97c1.47,0.48,2.48,0.73,3.03,0.74
		c0.55,0.01,0.99-0.23,1.33-0.72c0.33-0.49,0.91-1.58,1.72-3.29c1-1.98,1.83-3.98,2.49-5.99c0.38-1.16,0.54-1.9,0.47-2.22
		c-0.07-0.32-0.5-0.83-1.3-1.52C190.68,137.32,189.49,136.63,188.03,136.14z"/>
	<path class="st2" d="M257.84,131.48c0.74-0.47,2.5-0.67,5.26-0.6c2.84,0.07,5.54,0.34,8.09,0.81c2.55,0.47,4.06,1.04,4.54,1.7
		c0.55,0.67,0.82,1.24,0.81,1.73c0,0.08,0.08,0.12,0.24,0.13c0.49,0.01,1.64-0.41,3.45-1.26c3.46-1.62,6.57-2.4,9.33-2.33
		c2.84,0.07,5.75,0.96,8.72,2.66c2.97,1.7,4.43,3.45,4.39,5.23c-0.02,0.98-0.77,2.93-2.22,5.86c-1.46,2.93-2.73,5.16-3.83,6.68
		c-0.84,1.2-1.71,1.79-2.61,1.77c-0.33-0.01-1.21-0.23-2.67-0.68c-1.45-0.52-2.83-0.8-4.13-0.83c-2.76-0.07-5.03,0.97-6.79,3.13
		c-3.02,3.67-4.69,11.76-5,24.28l-0.04,1.71c-0.04,1.79-0.18,3.05-0.4,3.77c-0.22,0.73-0.72,1.2-1.5,1.43
		c-0.78,0.22-2.06,0.31-3.85,0.27l-2.07-0.17l-2.68-0.07c-5.69-0.3-8.93-0.75-9.73-1.34c-0.96-0.67-1.47-1.38-1.53-2.11
		c-0.22-0.9-0.27-3.95-0.14-9.16c0.2-7.89,0.59-16.42,1.18-25.6c0.59-9.18,1.11-14.25,1.54-15.22
		C256.64,132.47,257.18,131.87,257.84,131.48z"/>
	<path class="st2" d="M315.85,130.92c7.38-1.22,11.54-1.49,12.48-0.83c0.19,0.14,0.41,1,0.68,2.61c0.32,1.93,0.62,4.27,0.91,7.02
		c0.29,2.76,0.68,5.62,1.17,8.59c1.03,6.26,2.23,10.66,3.6,13.19c1.37,2.54,3.37,3.58,6.02,3.15c2.25-0.37,3.78-1.82,4.6-4.35
		c1.06-3.06,0.82-9.49-0.72-19.3c-1.1-8.14-1.51-12.4-1.25-12.78c0.33-0.47,1.91-1.14,4.74-2.02c2.82-0.88,5.6-1.54,8.33-1.99
		c2.09-0.34,3.79-0.52,5.11-0.53c1.32-0.01,2.23,0.27,2.74,0.85c1.09,1.14,2.56,7.29,4.41,18.44c3.4,20.54,4.9,31.63,4.51,33.26
		c-0.28,1.28-2.07,2.2-5.36,2.74c-1.37,0.23-4.04,0.5-8.02,0.83c-1.37,0.23-2.46,0.34-3.28,0.36c-0.82,0.01-1.62-0.04-2.38-0.16
		c-0.84-0.11-1.47-0.31-1.89-0.61s-0.86-0.83-1.31-1.58c-0.89-1.42-1.63-1.63-2.21-0.62c-0.39,0.64-1.78,1.7-4.18,3.16
		c-2.4,1.47-4.37,2.5-5.92,3.08c-1.1,0.35-2.29,0.63-3.57,0.84c-3.37,0.56-6.62,0.37-9.74-0.55c-3.12-0.93-5.6-2.47-7.44-4.64
		c-0.72-0.87-1.75-2.6-3.08-5.18c-1.09-2.62-1.99-6.06-2.69-10.31l-1.01-6.14c-2.41-15.59-2.76-23.94-1.05-25.05
		C310.86,131.91,312.8,131.42,315.85,130.92z"/>
	<path class="st2" d="M372.42,107.39l2.77-0.96c5.94-1.98,9.45-2.29,10.52-0.94c0.71,1.3,4.22,10.89,10.51,28.77l5.21,14.98
		c2.27,6.53,3.7,10.9,4.29,13.1c0.51,1.72,0.42,2.82-0.27,3.32c-0.92,0.58-3.4,1.61-7.45,3.1c-0.74,0.34-2.15,0.88-4.22,1.6
		c-2.15,0.75-3.69,1.09-4.62,1.02s-1.56-0.4-1.9-1.02c-0.34-0.61-0.86-1.92-1.55-3.92l-0.77-2.58l-1.04-3
		c-0.37-1.08-0.67-2.05-0.89-2.92l-1.04-3c-1.33-3.84-2.57-7.03-3.71-9.56c-2.78-6.27-5.24-12.47-7.37-18.62
		c-1.47-4.22-2.55-8.02-3.25-11.4c-0.7-3.37-0.58-5.44,0.36-6.2C368.72,108.76,370.19,108.16,372.42,107.39z"/>
	<path class="st2" d="M418.57,95.24l1.39-0.77c3-1.47,5.58-2.26,7.76-2.35c2.18-0.09,5.2,0.42,9.07,1.53
		c5.97,1.71,10.71,4.48,14.22,8.3c1.34,1.58,2.35,2.98,3.02,4.19c2.4,4.34,3.05,7.19,1.94,8.55l-17.72,9.81
		c-5.62,3.11-8.41,4.71-8.37,4.78c0.47,0.85,1.79,1.31,3.96,1.36c2.17,0.05,4.49-0.28,6.97-1c1.33-0.46,2.49-0.96,3.49-1.51
		c1.64-0.91,3.57-2.53,5.8-4.89c1.75-1.71,2.91-2.73,3.48-3.04c0.71-0.39,1.4-0.5,2.06-0.31c0.89,0.44,2.37,1.34,4.43,2.71
		c2.06,1.37,3.31,2.45,3.74,3.23c0.87,1.57,0.4,3.82-1.41,6.78c-1.69,2.98-3.77,5.57-6.22,7.77c-2.46,2.2-5.6,4.36-9.45,6.49
		c-4.7,2.6-8.56,4.18-11.6,4.75s-6.8,0.23-11.29-1c-4.49-1.23-8.02-2.9-10.59-5.01c-2.56-2.11-4.85-4.98-6.86-8.61
		c-2.21-3.98-3.63-7.94-4.27-11.86c-0.64-3.92-0.09-8.18,1.65-12.77c1.76-4.88,4.94-9.38,9.53-13.51
		C414.89,97.51,416.65,96.3,418.57,95.24z M426.29,109.93c-1.57,0.87-2.68,2.09-3.34,3.66c-0.66,1.58-0.63,3.1,0.08,4.56l0.6,1.34
		l5.41-2.58l4.49-2.21l0.53-0.3c0.28-0.16,0.44-0.29,0.47-0.4l0.21-0.12l0.21-0.12c0.24-0.23,0.15-0.73-0.28-1.52
		c-0.51-0.92-1.22-1.7-2.12-2.31C430.66,108.67,428.56,108.67,426.29,109.93z"/>
	<path class="st2" d="M452.34,56.8c3.4-3.03,5.58-4.86,6.54-5.49c1.25-0.68,2.07-1,2.48-0.98c0.4,0.02,0.93,0.4,1.58,1.13l4.12,4.99
		l2.41,3.08l0.88,1.17l4.46-3.8c0.85-0.76,1.49-1.27,1.9-1.53c1.52-1.35,2.63-2.12,3.33-2.31c0.7-0.19,1.57,0.18,2.61,1.1
		c1.04,0.93,2.99,3,5.86,6.22l1.38,1.55c1.51,1.7,2.46,2.93,2.85,3.67c0.39,0.74,0.41,1.44,0.05,2.08
		c-0.35,0.64-1.26,1.61-2.72,2.91l-5.83,5.19l1.43,2.16c1.17,1.57,1.93,2.53,2.25,2.9c5.62,6.32,10.04,8.05,13.26,5.18
		c0.67-0.59,1.27-1.7,1.79-3.31c0.53-1.61,0.78-2.68,0.75-3.2c-0.03-0.4,0.07-0.72,0.31-0.93c0.55-0.49,1.62-0.68,3.23-0.59
		c1.84,0.11,3.8,0.45,5.9,1.04c2.1,0.58,3.36,1.12,3.79,1.6c0.65,0.73,0.73,2.51,0.25,5.33c-0.48,2.82-1.39,5.75-2.72,8.79
		c-1.73,3.93-4.29,7.41-7.7,10.44c-2.13,1.89-4.29,3.16-6.49,3.81s-4.99,0.85-8.37,0.59c-3.9-0.23-7.37-1.12-10.39-2.68
		c-3.02-1.56-6.67-4.74-10.94-9.54l-1.86-2.1l-1.14-1.28c-0.22-0.13-0.52-0.4-0.9-0.83c-0.27-0.3-0.52-0.46-0.75-0.48l-0.69-0.04
		c-0.22-0.13-0.73,0.16-1.52,0.86l-1.17,0.88l-1.46,1.3c-1.38,1.01-2.29,1.65-2.71,1.92c-0.42,0.26-1,0.29-1.73,0.07
		c-0.62-0.21-1.45-0.89-2.47-2.05c-1.46-1.64-2.43-2.79-2.91-3.45c-1.5-1.93-2.47-3.14-2.9-3.63c-0.64-0.84-1.19-1.55-1.65-2.13
		c-0.46-0.57-0.74-0.98-0.84-1.22l-0.77-1.6l3.58-3.51c1.77-1.68,2.78-2.75,3.04-3.19c0.2-0.39,0.22-0.74,0.06-1.03
		c-1.13-1.39-2.64-3.36-4.54-5.92c-1.9-2.56-2.83-4.01-2.81-4.36c-0.02-0.63,0.44-1.53,1.37-2.69
		C446.83,61.81,448.99,59.77,452.34,56.8z"/>
	<path class="st2" d="M515.63,11.16c2.75-3.63,5.11-6.28,7.09-7.95c1.4-1.18,2.72-1.84,3.95-1.98c1.23-0.14,2.71,0.19,4.45,0.99
		c0.99,0.44,3.95,2.53,8.88,6.26c11.09,8.39,18.47,14.34,22.15,17.83c1.99,1.81,3.23,3.21,3.72,4.19c0.48,0.98,0.43,2.13-0.17,3.46
		c-0.6,1.33-2.04,3.64-4.31,6.91c-0.57,0.89-1.6,2.31-3.07,4.26c-1.08,1.43-1.94,2.26-2.57,2.49c-0.64,0.23-1.64,0.19-3.03-0.15
		c-1.38-0.33-2.17-0.37-2.37-0.11c-0.2,0.26-0.53,1.58-1.02,3.97c-0.76,3.71-2.08,6.79-3.94,9.26c-1.96,2.6-5,4.58-9.1,5.96
		c-4.11,1.38-8.44,1.85-13,1.41c-4.56-0.44-8.46-1.89-11.71-4.34c-1.43-1.08-2.46-2.07-3.11-2.97l-1.24-1.4l-0.92-1
		c-1.34-1.32-2.82-4.22-4.43-8.71c-2.52-6.91-2.51-13.27,0.06-19.08c0.54-1.12,1.21-2.2,1.99-3.24c2.75-3.63,5.94-5.96,9.57-6.99
		c0.94-0.3,1.54-0.62,1.79-0.94c0.25-0.32,0.14-0.66-0.31-1c-0.32-0.24-0.62-0.9-0.88-1.97c-0.26-1.07-0.32-1.9-0.17-2.5
		C513.98,13.48,514.55,12.59,515.63,11.16z M522.43,32.52c-1.18,1.56-1.78,3.3-1.8,5.21c-0.02,1.92,0.57,3.7,1.78,5.33
		c0.44,0.64,0.98,1.2,1.63,1.69c1.69,1.28,3.55,1.61,5.58,1.01c2.04-0.6,3.94-2.07,5.7-4.4c0.93-1.23,1.49-2.11,1.68-2.63
		c0.19-0.52,0.11-1.01-0.25-1.49c-0.36-0.47-1.21-1.37-2.55-2.69c-1.56-1.58-3.17-3.01-4.86-4.29c-0.97-0.74-1.62-1.12-1.95-1.17
		c-0.33-0.04-0.94,0.2-1.86,0.74C524.39,30.39,523.36,31.29,522.43,32.52z"/>
</g>
</svg>
