<?xml version="1.0" encoding="utf-8"?>
<!-- Generator: Adobe Illustrator 25.4.0, SVG Export Plug-In . SVG Version: 6.00 Build 0)  -->
<svg version="1.1" id="Capa_1" xmlns="http://www.w3.org/2000/svg" xmlns:xlink="http://www.w3.org/1999/xlink" x="0px" y="0px"
	 viewBox="0 0 300.57 208.39" style="enable-background:new 0 0 300.57 208.39;" xml:space="preserve">
<style type="text/css">
	.st0{fill:#C8D12A;}
	.st1{fill:url(#);}
	.st2{fill:#050504;}
	.st3{fill:#FFFFFF;}
	.st4{fill:none;stroke:#FFFFFF;stroke-width:22.4065;}
	.st5{fill:none;stroke:#FFFFFF;stroke-width:11.3663;}
	.st6{fill:#C8D12A;stroke:#000000;stroke-width:5.1402;stroke-miterlimit:10;}
	.st7{fill:#030405;}
	.st8{fill:#C6CF31;}
	.st9{stroke:#000000;stroke-width:5.1402;stroke-miterlimit:10;}
	.st10{stroke:#FFFFFF;stroke-width:4;stroke-linecap:round;stroke-linejoin:round;stroke-miterlimit:10;}
	.st11{fill:none;stroke:#FFFFFF;stroke-width:4;stroke-linejoin:round;stroke-miterlimit:10;}
	.st12{clip-path:url(#SVGID_00000170981132491818431130000002163045701969024169_);}
	.st13{fill:#C8D12A;stroke:#000000;stroke-width:5.6822;stroke-miterlimit:10;}
	.st14{stroke:#FFFFFF;stroke-width:2.9639;stroke-miterlimit:10;}
	.st15{fill:#00993D;}
	.st16{clip-path:url(#SVGID_00000135676998574191454160000013686778141081359510_);}
	.st17{fill:#C8D12A;stroke:#000000;stroke-width:5.5;stroke-miterlimit:10;}
	.st18{clip-path:url(#SVGID_00000065049556398430688310000015953477154633449635_);}
	.st19{stroke:#FFFFFF;stroke-width:4;stroke-miterlimit:10;}
	.st20{stroke:#000000;stroke-width:2.5698;stroke-miterlimit:10;}
	.st21{fill:#C8D12A;stroke:#000000;stroke-width:2.569;stroke-miterlimit:10;}
	.st22{stroke:#000000;stroke-width:2.569;stroke-miterlimit:10;}
	.st23{stroke:#FFFFFF;stroke-width:1.9992;stroke-linecap:round;stroke-linejoin:round;stroke-miterlimit:10;}
	.st24{clip-path:url(#SVGID_00000053523899678152550410000002354458746015859104_);}
	.st25{fill:#C8D12A;stroke:#000000;stroke-width:2.8287;stroke-miterlimit:10;}
	.st26{stroke:#FFFFFF;stroke-width:1.4755;stroke-miterlimit:10;}
	.st27{clip-path:url(#SVGID_00000088121836093324544300000006240592328367328662_);}
	.st28{clip-path:url(#SVGID_00000048473410267733559100000007261807840887609741_);}
	.st29{clip-path:url(#SVGID_00000152247388251418307680000016238903259985959818_);}
	.st30{clip-path:url(#SVGID_00000026146962566379298700000011886643554400626876_);}
	.st31{fill:#C8D12A;stroke:#000000;stroke-width:2.4552;stroke-miterlimit:10;}
	.st32{stroke:#FFFFFF;stroke-width:1.2719;stroke-miterlimit:10;}
	.st33{fill:#C8D12A;stroke:#000000;stroke-width:2.1112;stroke-miterlimit:10;}
	.st34{stroke:#000000;stroke-width:2.1112;stroke-miterlimit:10;}
	.st35{stroke:#FFFFFF;stroke-width:1.6429;stroke-linecap:round;stroke-linejoin:round;stroke-miterlimit:10;}
	.st36{clip-path:url(#SVGID_00000039107822962235725340000004695445307101918859_);}
	.st37{stroke:#000000;stroke-width:2.1118;stroke-miterlimit:10;}
	.st38{clip-path:url(#SVGID_00000084526413097368422570000003078456947054185381_);}
	.st39{clip-path:url(#SVGID_00000122704107081511234910000001397085475791818942_);}
	.st40{clip-path:url(#SVGID_00000080922728914302779020000003477722006251248802_);}
	.st41{opacity:0.9;fill:#00993D;}
	.st42{opacity:0.9;fill:#FFFFFF;}
</style>
<g>
	<g>
		<g>
			<path class="st3" d="M1.48,59.07l6.01-1.3c7.67-1.66,13.74-2.7,18.2-3.13c4.46-0.43,8.21-0.15,11.27,0.82
				c3.05,0.98,5.66,2.83,7.81,5.57c1,1.35,1.64,2.33,1.91,2.94c0.27,0.62,0.64,1.98,1.09,4.08c0.64,2.99,0.88,5.25,0.72,6.78
				c-0.88,7.8-4.84,13.63-11.9,17.49c-1.77,1.02-4.12,1.85-7.03,2.48l-4.28,0.92l0.06,1.27c0.01,0.07,0.1,0.8,0.26,2.18l0.35,3.12
				c0.25,2.5,0.23,4.21-0.07,5.13c-0.28,0.7-0.92,1.16-1.94,1.38l-3.51,0.54c-6.66,1.08-10.52,1.31-11.58,0.69
				c-0.5-0.32-0.87-1.05-1.12-2.21c-0.48-2.24-1.01-5.33-1.57-9.26c-0.92-6.55-2.2-13.64-3.84-21.24
				C0.98,71.08,0.23,66.97,0.1,65.01c-0.24-2.08-0.03-3.62,0.6-4.61L1.48,59.07z M21.58,70.19c-0.82,0.18-1.33,0.43-1.54,0.76
				c-0.27,0.41-0.05,2.25,0.66,5.51c0.47,2.17,0.86,3.65,1.17,4.44c0.27,0.58,0.74,0.8,1.42,0.65l1.38-0.51
				c1.57-0.62,2.78-1.61,3.62-2.97c0.84-1.35,1.11-2.78,0.78-4.27c-0.25-1.15-0.54-1.94-0.88-2.37c-0.34-0.42-0.94-0.79-1.78-1.11
				C25.09,69.82,23.48,69.78,21.58,70.19z"/>
			<path class="st3" d="M64.25,45.09c2.58-0.56,5.28-1.05,8.1-1.48c2.82-0.43,4.64-0.56,5.46-0.38c0.74,0.13,1.66,0.96,2.78,2.49
				c1.21,1.66,3.44,5.05,6.67,10.18c4.21,6.34,7.69,11.42,10.43,15.23c6.67,9.51,10.18,15.08,10.54,16.71
				c0.15,0.68-0.13,1.38-0.83,2.1c-1.27,1.34-4.29,2.53-9.04,3.55c-0.34,0.07-0.62,0.1-0.84,0.07l-0.71,0.15
				c-1.46,0.17-2.58,0.01-3.36-0.5c-0.79-0.51-1.65-1.62-2.59-3.33l-1.39-2.47l-2.39,0.3c-2.5,0.26-6,0.87-10.48,1.84
				c-2.24,0.48-3.59,0.81-4.05,0.98l-3.19,1.01l-0.4,3.07c-0.24,1.83-0.52,3.03-0.82,3.59c-0.3,0.56-1.01,1.07-2.12,1.52
				c-1.18,0.47-3.06,0.98-5.64,1.54c-2.58,0.56-4.39,0.81-5.44,0.75c-1.04-0.06-1.68-0.63-1.92-1.72c-0.29-1.36-0.05-5,0.73-10.93
				c0.94-7.52,1.75-14.63,2.44-21.32c1.33-12.94,2.93-20.18,4.8-21.72C61.74,45.81,62.82,45.4,64.25,45.09z M73.31,61.9
				c-0.2,0.04-0.61,2.02-1.23,5.92c-0.62,3.9-0.86,6.16-0.73,6.77c0.13,0.61,2,0.53,5.6-0.25c1.22-0.26,2.12-0.53,2.71-0.8
				c0.58-0.27,0.81-0.67,0.7-1.22c-0.23-1.09-1.72-3.5-4.44-7.25C74.25,62.94,73.38,61.89,73.31,61.9z"/>
			<path class="st3" d="M119.32,34.49c7.06-1.52,12.22-2.48,15.48-2.86c3.26-0.38,5.92-0.23,7.99,0.46
				c2.07,0.69,4.36,2.11,6.89,4.27c3.4,2.89,5.47,6.07,6.22,9.53c0.21,0.95,0.33,2.03,0.38,3.22c0.19,4.51-1.11,8.38-3.89,11.61
				l-1.08,1.41l4.18,6.03c3.14,4.65,4.79,7.39,4.97,8.2c0.01,0.07,0,0.32-0.05,0.76c-0.08,0.3-1.86,1.09-5.35,2.38
				c-3.49,1.29-6.12,2.12-7.88,2.5c-1.49,0.32-2.61,0.26-3.34-0.18c-0.74-0.44-1.74-1.63-3.01-3.56c-2.78-4.31-4.51-6.42-5.21-6.34
				l-1.67,0.15c-0.54,0.12-0.89,0.33-1.03,0.65c-0.16,0.25,0,2.17,0.5,5.76c0.22,2.01,0.37,3.54,0.46,4.59
				c-0.07,0.66-0.33,1.28-0.77,1.87c-0.56,0.69-1.9,1.26-4,1.72l-4.38,0.95l-3.28,0.6c-1.9,0.41-3.03,0.62-3.38,0.62
				c-0.84,0.04-1.45-0.11-1.81-0.46c-0.58-0.37-1.1-1.64-1.57-3.82c-0.47-2.17-0.8-4.38-1-6.61c-0.55-4.85-2.18-14.88-4.89-30.08
				c-1.13-5.87-1.5-9.09-1.13-9.67c0.32-0.5,1.51-1.07,3.57-1.73C112.68,35.99,115.38,35.34,119.32,34.49z M129.52,48.17
				c-1.12,0.1-1.74,0.2-1.86,0.29c-0.31,0.21-0.46,0.53-0.44,0.95c-0.07,0.66,0.12,2.04,0.57,4.14c0.59,2.72,1.04,4.15,1.35,4.29
				c0.31,0.14,0.98,0.11,2-0.11c1.22-0.26,2.18-0.61,2.87-1.05c0.69-0.43,1.35-1.14,1.99-2.13c0.69-1.07,1.02-1.86,0.99-2.35
				c0.05-0.08,0.04-0.29-0.03-0.63c-0.38-1.76-1.58-2.86-3.59-3.28C132.11,48,130.82,47.96,129.52,48.17z"/>
			<path class="st3" d="M168.33,23.48c10.39-2.24,20.79-4.27,31.2-6.09c4.29-0.85,6.89-1.02,7.78-0.51
				c0.78,0.33,1.31,1.14,1.59,2.43l0.46,2.14c0.98,5.19,1.12,8.32,0.43,9.4l-0.8,1.24l-6.89,1.17l-6.97,1.29l3.33,14.95l1.56,7.23
				c1.14,5.3,1.66,8.67,1.54,10.12c-0.14,1.31-0.54,2.61-1.19,3.88l-0.88,1.36l-5.36,0.84c-5.24,0.78-8.22,0.96-8.95,0.54
				c-0.26-0.23-1.68-5.96-4.25-17.21c-2.49-11.19-3.85-16.87-4.1-17.03c-0.18-0.17-2.2,0.01-6.06,0.56
				c-4.27,0.64-7.12,0.79-8.54,0.46c-1.27-0.29-2.13-1.49-2.59-3.6l-0.12-1.04l-0.22-1.02c-0.49-2.95-0.64-5.03-0.44-6.25
				c0.2-1.22,0.89-2.23,2.06-3.06C161.45,25.04,163.92,24.44,168.33,23.48z"/>
			<path class="st3" d="M225.6,9.74c0.75-0.16,1.58,0.05,2.48,0.64c0.76,0.55,3.03,2.6,6.82,6.15c3.79,3.55,5.8,5.56,6.04,6
				c0.18,0.17,0.3,0.25,0.37,0.24c0.41-0.09,1.04-1.75,1.91-5c1.51-5.16,2.69-8.61,3.52-10.36c0.76-1.73,1.66-2.7,2.67-2.92
				c0.68-0.15,2.66-0.26,5.95-0.33c3.29-0.07,5.45-0.04,6.47,0.1c1.68,0.21,2.67,0.99,2.96,2.35c0.34,1.56-0.12,4.89-1.36,10
				c-1.3,5.18-3.26,11.4-5.89,18.65c-1.17,3.17-0.97,8.52,0.59,16.08c0.74,3.75,1.12,6.01,1.14,6.79c0.09,0.76,0.01,1.35-0.26,1.76
				c-0.68,0.79-3.03,1.61-7.03,2.48c-5.09,1.1-8.61,1.43-10.55,1c-0.89-0.16-1.57-0.51-2.04-1.05c-0.58-0.73-1.53-4.11-2.83-10.16
				l-2.04-9.48l-3.66-4.11c-3.37-3.75-6.95-7.35-10.75-10.79c-2.87-2.43-4.48-4.47-4.83-6.1c-0.19-0.88-0.05-1.73,0.41-2.54
				c0.9-1.76,3.26-4.33,7.08-7.71C223.91,10.46,224.86,9.9,225.6,9.74z"/>
		</g>
		<path class="st3" d="M24.34,113.79c9.8-2.11,18.86-3.37,27.19-3.78c8.33-0.4,15.02,0.02,20.08,1.27c2.72,0.75,5.3,1.98,7.73,3.68
			c2.43,1.71,4.19,3.55,5.29,5.54c0.99,2.02,1.61,3.61,1.87,4.78c1.06,4.9-0.12,9.78-3.53,14.64l-2.86,3.79l1.93,0.42
			c5.78,0.98,10.28,5.03,13.49,12.14c1.11,2.55,1.81,4.51,2.11,5.9c1.2,5.54,0.12,10.51-3.22,14.9c-3.34,4.4-9.15,8.61-17.42,12.62
			c-8.59,4.09-18.11,7.25-28.54,9.5l-1.12,0.24c-10.12,2.18-16.41,2.2-18.88,0.06c-0.69-0.63-1.46-2.36-2.29-5.19
			c-0.38-1.25-1.42-5.82-3.12-13.7l-3.09-13.54l-2.76-12.78c-2.16-10.01-3.57-17.84-4.23-23.49c-0.59-4.78-0.52-8.22,0.2-10.32
			c0.72-2.1,2.28-3.75,4.7-4.94C18.66,115.13,20.82,114.55,24.34,113.79z M50.91,133.13c-2.13,0.46-3.4,1.04-3.8,1.74
			c-0.41,0.7-0.36,2.22,0.15,4.56l0.69,3.19l3.51-0.76c5.22-1.13,7.51-3.18,6.86-6.16C57.75,133.05,55.28,132.19,50.91,133.13z
			 M56.51,159.84l-3.13,1.01c-1.21,0.6-1.41,2.76-0.61,6.48l0.41,1.92l0.91,2.65l2.75-0.43l1.28-0.28c3.41-0.74,5.98-2.24,7.72-4.51
			c0.99-1.1,1.34-2.3,1.07-3.57c-0.39-1.81-1.98-2.97-4.76-3.49C60.41,159.33,58.53,159.41,56.51,159.84z"/>
		<path class="st3" d="M135.2,84.87c12.72-2.74,24.81-2.6,36.26,0.43c11.45,3.03,20.28,8.5,26.46,16.4
			c4.41,5.98,7.7,13.96,9.86,23.96c1.34,6.23,1.55,12.06,0.62,17.5c-0.94,5.43-3.54,11.46-7.81,18.09
			c-4.51,6.82-9.93,12.37-16.27,16.66c-6.34,4.29-13.02,7.19-20.03,8.7c-0.78,0.17-1.51,0.26-2.18,0.27l-2.34,0.5
			c-10.11,1.64-19.66,0.98-28.65-1.97s-16.66-7.78-23-14.5c-6.34-6.71-10.77-14.62-13.27-23.73l-0.67-3.11
			c-4.17-19.34,1.91-35.53,18.25-48.57c3.84-3,7.49-5.28,10.95-6.85C126.97,87.05,130.91,85.79,135.2,84.87z"/>
		<path class="st3" d="M217.07,75.71c1.6-0.35,3.09-0.39,4.49-0.13c2.44,0.48,6.91,4.42,13.42,11.82c1.93,2.26,3.01,3.36,3.22,3.32
			l4.06-9.07c2.66-6.26,4.33-9.63,5.01-10.11c0.08-0.13,0.71-0.32,1.88-0.57c2.77-0.6,6.56-1.11,11.37-1.53
			c4.81-0.43,7.75-0.48,8.83-0.15c2.62,0.77,4.16,2.23,4.62,4.35c0.18,0.85-1.08,4.94-3.79,12.27c-2.71,7.33-5.09,13.22-7.14,17.67
			c-1.08,2.24-1.42,3.48-1.03,3.73c4.66,4.57,7.41,7.21,8.23,7.92c9.69,9.28,14.91,15.62,15.64,19.03c0.37,1.7-0.12,3.32-1.47,4.83
			c-1.37,1.41-4.51,3.62-9.43,6.63c-4.92,3.01-8.02,4.66-9.3,4.93c-0.85,0.18-1.76,0.1-2.73-0.25c-0.97-0.35-3.55-3.02-7.75-8.02
			c-3.76-4.54-6.51-7.45-8.24-8.75l-2.01-1.57l-3.82,10.19c-3.47,9.22-6.38,14.36-8.71,15.42l-0.8,0.17
			c-2.34,0.51-6.25,0.37-11.7-0.4c-5.46-0.77-9.16-1.78-11.1-3.04c-1.17-0.75-1.83-1.5-1.99-2.25c-0.25-1.17,0.26-3.17,1.54-6.02
			c1.34-3.07,4.02-8.22,8.04-15.44c4.16-7.58,6.29-11.89,6.41-12.92c0.08-0.13,0.08-0.41-0.01-0.83c-0.18-0.85-1.8-3.18-4.85-6.98
			c-2.87-3.5-6.51-7.45-10.92-11.85c-4.1-4.02-6.37-7.04-6.8-9.06c-0.48-2.24,1.47-4.83,5.84-7.78
			C211.38,78,215.04,76.15,217.07,75.71z"/>
	</g>
	<g>
		<path class="st2" d="M3.55,54.93l6.01-1.3c7.67-1.66,13.74-2.7,18.2-3.13c4.46-0.43,8.21-0.15,11.27,0.82
			c3.05,0.98,5.66,2.83,7.81,5.57c1,1.35,1.64,2.33,1.91,2.94c0.27,0.62,0.64,1.98,1.09,4.08c0.64,2.99,0.88,5.25,0.72,6.78
			c-0.88,7.8-4.84,13.63-11.9,17.49c-1.77,1.02-4.12,1.85-7.03,2.48l-4.28,0.92l0.06,1.27c0.01,0.07,0.1,0.8,0.26,2.18l0.35,3.12
			c0.25,2.5,0.23,4.21-0.07,5.13c-0.28,0.7-0.92,1.16-1.94,1.38l-3.51,0.54c-6.66,1.08-10.52,1.31-11.58,0.69
			c-0.5-0.32-0.87-1.05-1.12-2.21c-0.48-2.24-1.01-5.33-1.57-9.26C7.32,87.88,6.04,80.8,4.4,73.19c-1.35-6.25-2.09-10.35-2.23-12.31
			c-0.24-2.08-0.03-3.62,0.6-4.61L3.55,54.93z M23.65,66.06c-0.82,0.18-1.33,0.43-1.54,0.76c-0.27,0.41-0.05,2.25,0.66,5.51
			c0.47,2.17,0.86,3.65,1.17,4.44c0.27,0.58,0.74,0.8,1.42,0.65l1.38-0.51c1.57-0.62,2.78-1.61,3.62-2.97
			c0.84-1.35,1.11-2.78,0.78-4.27c-0.25-1.15-0.54-1.94-0.88-2.37c-0.34-0.42-0.94-0.79-1.78-1.11
			C27.16,65.69,25.55,65.64,23.65,66.06z"/>
		<path class="st2" d="M66.32,40.96c2.58-0.56,5.28-1.05,8.1-1.48c2.82-0.43,4.64-0.56,5.46-0.38c0.74,0.13,1.66,0.96,2.78,2.49
			c1.21,1.66,3.44,5.05,6.67,10.18c4.21,6.34,7.69,11.42,10.43,15.23c6.67,9.51,10.18,15.08,10.54,16.71
			c0.15,0.68-0.13,1.38-0.83,2.1c-1.27,1.34-4.29,2.53-9.04,3.55c-0.34,0.07-0.62,0.1-0.84,0.07l-0.71,0.15
			c-1.46,0.17-2.58,0.01-3.36-0.5c-0.79-0.51-1.65-1.62-2.59-3.33l-1.39-2.47l-2.39,0.3c-2.5,0.26-6,0.87-10.48,1.84
			c-2.24,0.48-3.59,0.81-4.05,0.98l-3.19,1.01l-0.4,3.07c-0.24,1.83-0.52,3.03-0.82,3.59c-0.3,0.56-1.01,1.07-2.12,1.52
			c-1.18,0.47-3.06,0.98-5.64,1.54c-2.58,0.56-4.39,0.81-5.44,0.75c-1.04-0.06-1.68-0.63-1.92-1.72c-0.29-1.36-0.05-5,0.73-10.93
			c0.94-7.52,1.75-14.63,2.44-21.32c1.33-12.94,2.93-20.18,4.8-21.72C63.81,41.68,64.9,41.27,66.32,40.96z M75.39,57.77
			c-0.2,0.04-0.61,2.02-1.23,5.92c-0.62,3.9-0.86,6.16-0.73,6.77c0.13,0.61,2,0.53,5.6-0.25c1.22-0.26,2.12-0.53,2.71-0.8
			c0.58-0.27,0.81-0.67,0.7-1.22c-0.23-1.09-1.72-3.5-4.44-7.25C76.32,58.81,75.45,57.76,75.39,57.77z"/>
		<path class="st2" d="M121.4,30.36c7.06-1.52,12.22-2.48,15.48-2.86c3.26-0.38,5.92-0.23,7.99,0.46c2.07,0.69,4.36,2.11,6.89,4.27
			c3.4,2.89,5.47,6.07,6.22,9.53c0.21,0.95,0.33,2.03,0.38,3.22c0.19,4.51-1.11,8.38-3.89,11.61L153.38,58l4.18,6.03
			c3.14,4.65,4.79,7.39,4.97,8.2c0.01,0.07,0,0.32-0.05,0.76c-0.08,0.3-1.86,1.09-5.35,2.38c-3.49,1.29-6.12,2.12-7.88,2.5
			c-1.49,0.32-2.61,0.26-3.34-0.18c-0.74-0.44-1.74-1.63-3.01-3.56c-2.78-4.31-4.51-6.42-5.21-6.34l-1.67,0.15
			c-0.54,0.12-0.89,0.33-1.03,0.65c-0.16,0.25,0,2.17,0.5,5.76c0.22,2.01,0.37,3.54,0.46,4.59c-0.07,0.66-0.33,1.28-0.77,1.87
			c-0.56,0.69-1.9,1.26-4,1.72l-4.38,0.95l-3.28,0.6c-1.9,0.41-3.03,0.62-3.38,0.62c-0.84,0.04-1.45-0.11-1.81-0.46
			c-0.58-0.37-1.1-1.64-1.57-3.82c-0.47-2.17-0.8-4.38-1-6.61c-0.55-4.85-2.18-14.88-4.89-30.08c-1.13-5.87-1.5-9.09-1.13-9.67
			c0.32-0.5,1.51-1.07,3.57-1.73C114.75,31.86,117.46,31.21,121.4,30.36z M131.6,44.04c-1.12,0.1-1.74,0.2-1.86,0.29
			c-0.31,0.21-0.46,0.53-0.44,0.95c-0.07,0.66,0.12,2.04,0.57,4.14c0.59,2.72,1.04,4.15,1.35,4.29c0.31,0.14,0.98,0.11,2-0.11
			c1.22-0.26,2.18-0.61,2.87-1.05c0.69-0.43,1.35-1.14,1.99-2.13c0.69-1.07,1.02-1.86,0.99-2.35c0.05-0.08,0.04-0.29-0.03-0.63
			c-0.38-1.76-1.58-2.86-3.59-3.28C134.19,43.87,132.9,43.83,131.6,44.04z"/>
		<path class="st2" d="M170.41,19.35c10.39-2.24,20.79-4.27,31.2-6.09c4.29-0.85,6.89-1.02,7.78-0.51c0.78,0.33,1.31,1.14,1.59,2.43
			l0.46,2.14c0.98,5.19,1.12,8.32,0.43,9.4l-0.8,1.24l-6.89,1.17l-6.97,1.29l3.33,14.95l1.56,7.23c1.14,5.3,1.66,8.67,1.54,10.12
			c-0.14,1.31-0.54,2.61-1.19,3.88l-0.88,1.36l-5.36,0.84c-5.24,0.78-8.22,0.96-8.95,0.54c-0.26-0.23-1.68-5.96-4.25-17.21
			c-2.49-11.19-3.85-16.87-4.1-17.03c-0.18-0.17-2.2,0.01-6.06,0.56c-4.27,0.64-7.12,0.79-8.54,0.46c-1.27-0.29-2.13-1.49-2.59-3.6
			l-0.12-1.04l-0.22-1.02c-0.49-2.95-0.64-5.03-0.44-6.25c0.2-1.22,0.89-2.23,2.06-3.06C163.53,20.91,165.99,20.31,170.41,19.35z"/>
		<path class="st2" d="M227.68,5.61c0.75-0.16,1.58,0.05,2.48,0.64c0.76,0.55,3.03,2.6,6.82,6.15c3.79,3.55,5.8,5.56,6.04,6
			c0.18,0.17,0.3,0.25,0.37,0.24c0.41-0.09,1.04-1.75,1.91-5c1.51-5.16,2.69-8.61,3.52-10.36c0.76-1.73,1.66-2.7,2.67-2.92
			c0.68-0.15,2.66-0.26,5.95-0.33c3.29-0.07,5.45-0.04,6.47,0.1c1.68,0.21,2.67,0.99,2.96,2.35c0.34,1.56-0.12,4.89-1.36,10
			c-1.3,5.18-3.26,11.4-5.89,18.65c-1.17,3.17-0.97,8.52,0.59,16.08c0.74,3.75,1.12,6.01,1.14,6.79c0.09,0.76,0.01,1.35-0.26,1.76
			c-0.68,0.79-3.03,1.61-7.03,2.48c-5.09,1.1-8.61,1.43-10.55,1c-0.89-0.16-1.57-0.51-2.04-1.05c-0.58-0.73-1.53-4.11-2.83-10.16
			l-2.04-9.48l-3.66-4.11c-3.37-3.75-6.95-7.35-10.75-10.79c-2.87-2.43-4.48-4.47-4.83-6.1c-0.19-0.88-0.05-1.73,0.41-2.54
			c0.9-1.76,3.26-4.33,7.08-7.71C225.99,6.33,226.93,5.77,227.68,5.61z"/>
	</g>
	<path class="st2" d="M26.42,109.66c9.8-2.11,18.86-3.37,27.19-3.78c8.33-0.4,15.02,0.02,20.08,1.27c2.72,0.75,5.3,1.98,7.73,3.68
		c2.43,1.71,4.19,3.55,5.29,5.54c0.99,2.02,1.61,3.61,1.87,4.78c1.06,4.9-0.12,9.78-3.53,14.64l-2.86,3.79l1.93,0.42
		c5.78,0.98,10.28,5.03,13.49,12.14c1.11,2.55,1.81,4.51,2.11,5.9c1.2,5.54,0.12,10.51-3.22,14.9c-3.34,4.4-9.15,8.61-17.42,12.62
		c-8.59,4.09-18.11,7.25-28.54,9.5l-1.12,0.24c-10.12,2.18-16.41,2.2-18.88,0.06c-0.69-0.63-1.46-2.36-2.29-5.19
		c-0.38-1.25-1.42-5.82-3.12-13.7l-3.09-13.54l-2.76-12.78c-2.16-10.01-3.57-17.84-4.23-23.49c-0.59-4.78-0.52-8.22,0.2-10.32
		c0.72-2.1,2.28-3.75,4.7-4.94C20.74,110.99,22.9,110.42,26.42,109.66z M52.99,129c-2.13,0.46-3.4,1.04-3.8,1.74
		c-0.41,0.7-0.36,2.22,0.15,4.56l0.69,3.19l3.51-0.76c5.22-1.13,7.51-3.18,6.86-6.16C59.83,128.92,57.36,128.06,52.99,129z
		 M58.59,155.71l-3.13,1.01c-1.21,0.6-1.41,2.76-0.61,6.48l0.41,1.92l0.91,2.65l2.75-0.43l1.28-0.28c3.41-0.74,5.98-2.24,7.72-4.51
		c0.99-1.1,1.34-2.3,1.07-3.57c-0.39-1.81-1.98-2.97-4.76-3.49C62.49,155.2,60.61,155.27,58.59,155.71z"/>
	<path class="st2" d="M137.28,80.73c12.72-2.74,24.81-2.6,36.26,0.43c11.45,3.03,20.28,8.5,26.46,16.4
		c4.41,5.98,7.7,13.96,9.86,23.96c1.34,6.23,1.55,12.06,0.62,17.5c-0.94,5.43-3.54,11.46-7.81,18.09
		c-4.51,6.82-9.93,12.37-16.27,16.66c-6.34,4.29-13.02,7.19-20.03,8.7c-0.78,0.17-1.51,0.26-2.18,0.27l-2.34,0.5
		c-10.11,1.64-19.66,0.98-28.65-1.97s-16.66-7.78-23-14.5c-6.34-6.71-10.77-14.62-13.27-23.73l-0.67-3.11
		c-4.17-19.34,1.91-35.53,18.25-48.57c3.84-3,7.49-5.28,10.95-6.85C129.05,82.92,132.99,81.66,137.28,80.73z"/>
	<path class="st2" d="M219.14,71.58c1.6-0.35,3.09-0.39,4.49-0.13c2.44,0.48,6.91,4.42,13.42,11.82c1.93,2.26,3.01,3.36,3.22,3.32
		l4.06-9.07c2.66-6.26,4.33-9.63,5.01-10.11c0.08-0.13,0.71-0.32,1.88-0.57c2.77-0.6,6.56-1.11,11.37-1.53
		c4.81-0.43,7.75-0.48,8.83-0.15c2.62,0.77,4.16,2.23,4.62,4.35c0.18,0.85-1.08,4.94-3.79,12.27c-2.71,7.33-5.09,13.22-7.14,17.67
		c-1.08,2.24-1.42,3.48-1.03,3.73c4.66,4.57,7.41,7.21,8.23,7.92c9.69,9.28,14.91,15.62,15.64,19.03c0.37,1.7-0.12,3.32-1.47,4.83
		c-1.37,1.41-4.51,3.62-9.43,6.63c-4.92,3.01-8.02,4.66-9.3,4.93c-0.85,0.18-1.76,0.1-2.73-0.25c-0.97-0.35-3.55-3.02-7.75-8.02
		c-3.76-4.54-6.51-7.45-8.24-8.75l-2.01-1.57l-3.82,10.19c-3.47,9.22-6.38,14.36-8.71,15.42l-0.8,0.17
		c-2.34,0.51-6.25,0.37-11.7-0.4c-5.46-0.77-9.16-1.78-11.1-3.04c-1.17-0.75-1.83-1.5-1.99-2.25c-0.25-1.17,0.26-3.17,1.54-6.02
		c1.34-3.07,4.02-8.22,8.04-15.44c4.16-7.58,6.29-11.89,6.41-12.92c0.08-0.13,0.08-0.41-0.01-0.83c-0.18-0.85-1.8-3.18-4.85-6.98
		c-2.87-3.5-6.51-7.45-10.92-11.85c-4.1-4.02-6.37-7.04-6.8-9.06c-0.48-2.24,1.47-4.83,5.84-7.78
		C213.45,73.87,217.12,72.02,219.14,71.58z"/>
	<path class="st2" d="M299.75,158.05c0.68-1.21-0.15-3.05-1.96-2.84c-19.63,2.31-39.22,4.92-58.78,7.75
		c0.62-0.17,1.24-0.33,1.86-0.5c1.85-0.49,3.7-0.98,5.55-1.47c1.36-0.28,2.73-0.56,4.09-0.83c0.42-0.08,0.74-0.27,0.98-0.51
		c5.7-1.51,11.39-3.01,17.09-4.51c2.35-0.62,1.7-4.27-0.72-3.74c-11.42,2.49-22.83,5.01-34.24,7.53c0.05-1.12-0.75-2.23-2.16-1.88
		c-5.97,1.48-11.94,2.96-17.91,4.44c0.02-1.11-0.78-2.2-2.17-1.85c-38.45,9.75-77.12,18.59-115.98,26.5
		c-1.88,0.38-3.77,0.76-5.65,1.14c-0.7,0.14-1.39,0.27-2.09,0.41c-8.33,1.63-16.65,3.26-24.98,4.88c-0.2,0.04-0.37,0.1-0.52,0.18
		c-3.01,0.58-6.02,1.17-9.03,1.75c-2.41,0.47-1.69,4.19,0.72,3.74c5.4-1.01,10.8-2.03,16.2-3.05c0.06-0.01,0.12-0.01,0.18-0.02
		c15.48-2.78,30.96-5.55,46.44-8.29c0.07,0.34,0.21,0.65,0.43,0.91c-7.92,2.16-15.82,4.36-23.71,6.62
		c-0.21,0.06-0.39,0.15-0.55,0.25c-1.04,0.24-2.09,0.48-3.13,0.73c-12.57,2.95-25.11,6.02-37.61,9.23c-2.36,0.6-1.71,4.2,0.72,3.74
		c8.97-1.71,17.95-3.42,26.92-5.13c-0.71,1.25,0.04,3.09,1.91,2.8c13.39-2.08,26.74-4.34,40.07-6.8c-2.53,1.08-5,2.31-7.36,3.77
		c-1.55,0.96-1.14,3.49,0.59,3.62c0.38,0.68,1.09,1.16,1.97,0.96c33.73-7.75,67.47-15.51,101.2-23.26
		c9.51-2.19,19.03-4.37,28.54-6.56c2.38-0.55,1.68-4.27-0.72-3.74c-29.86,6.57-59.73,13.13-89.59,19.7
		c3.5-1.16,7.01-2.31,10.53-3.44c2.16-0.52,4.33-1.04,6.5-1.54c1.92-0.43,3.84-0.86,5.76-1.3c0.13-0.03,0.25-0.07,0.37-0.12
		c7.73-1.76,15.48-3.44,23.24-5.09c8.4-1.78,16.81-3.5,25.22-5.23c1.1-0.23,1.55-1.12,1.48-1.98c4.67-0.97,9.33-1.97,13.98-2.98
		c0.45-0.09,0.9-0.17,1.35-0.26c16.15-3.08,32.29-6.15,48.44-9.23c0.27,1.21,1.85,2.21,3.17,1.2c1.18-0.91,2.37-1.83,3.55-2.74
		C300.97,160.16,300.64,158.74,299.75,158.05z M265.57,163.1c-7.67,1.8-15.36,3.53-23.06,5.21c-6.38,1.22-12.76,2.43-19.14,3.65
		c-0.03-0.38-0.15-0.75-0.37-1.05c0.12-0.03,0.24-0.06,0.36-0.08c1.05-0.24,1.5-1.09,1.47-1.93c7.77-1.17,15.54-2.31,23.31-3.41
		C253.96,164.67,259.76,163.88,265.57,163.1z"/>
	<g>
		<path class="st3" d="M137.9,115.68c0.07,0.07,0.11,0.15,0.13,0.24c0.08,0.43-0.32,0.85-1.19,1.23c-1.14-0.6-2.6-1.57-4.38-2.91
			c-1.98-1.5-3.44-2.53-4.38-3.09c0.03,0.5,0.15,1.81,0.37,3.91c0.18,1.59,0.23,2.86,0.15,3.83c-0.04,0.01-0.15,0.07-0.33,0.2
			c-0.18,0.13-0.34,0.19-0.48,0.17c-0.87-0.04-1.38-0.55-1.56-1.51c-0.05-0.28-0.08-0.67-0.09-1.15c-0.02-0.56-0.03-0.91-0.04-1.05
			c-0.12-1.11-0.3-2.42-0.55-3.94l-0.55-3.09c-0.46-2.57-0.7-4.76-0.73-6.57c-0.02-1.21,0.99-1.94,3.03-2.21
			c1.03-0.14,2.01,0.21,2.94,1.06c0.86,0.78,1.38,1.7,1.57,2.76c0.16,0.89-0.02,1.84-0.52,2.84c-0.43,0.89-1.02,1.64-1.77,2.24
			c-0.31,0.25-0.44,0.49-0.4,0.72c0.04,0.24,0.29,0.5,0.75,0.77c0.35,0.19,0.69,0.39,1.04,0.58c0.02,0.02,1.23,0.78,3.62,2.28
			C136.08,113.97,137.19,114.85,137.9,115.68z M129.66,104.01c0-0.35-0.04-0.66-0.1-0.92c-0.13-0.39-0.36-0.72-0.69-0.99
			c-0.33-0.27-0.8-0.36-1.41-0.25c-0.45,0.08-0.71,0.27-0.77,0.58c-0.01,0.49,0.04,1.04,0.14,1.64c0.04,0.25,0.18,0.88,0.42,1.89
			c0.17,0.77,0.29,1.4,0.34,1.9C128.95,106.4,129.64,105.12,129.66,104.01z"/>
		<path class="st3" d="M143.64,99.83c-0.65,0.41-1.62,0.92-2.92,1.54c-1.29,0.62-2.27,1.13-2.92,1.54
			c-0.08,0.52-0.01,1.64,0.21,3.36c0.32,0.06,0.68,0.05,1.08-0.02c0.28-0.05,0.72-0.18,1.31-0.38c0.59-0.2,1.02-0.33,1.31-0.38
			c0.53-0.09,1-0.06,1.42,0.1c0.33,0.33,0.51,0.55,0.53,0.67c0.02,0.13-0.02,0.25-0.14,0.35c-0.03,0.03-0.14,0.18-0.33,0.47
			c-0.12,0.2-0.3,0.31-0.53,0.33c-0.38,0.17-1.1,0.35-2.15,0.56c-0.89,0.18-1.57,0.41-2.07,0.72c-0.11,1.46-0.1,2.6,0.05,3.41
			c0.1,0.55,0.25,0.97,0.46,1.26c1,0.47,2.59,0.46,4.76-0.03c0.15-0.03,0.3-0.13,0.45-0.3c0.14-0.17,0.27-0.27,0.39-0.29
			c0.51-0.21,0.93,0.13,1.26,1c0.11,0.29,0.11,0.58-0.01,0.86c-0.12,0.28-0.32,0.46-0.62,0.53c-2.28,0.48-4.29,0.65-6.05,0.52
			c-0.55-0.04-1.09-0.25-1.6-0.62c-0.52-0.38-0.85-0.84-1.01-1.4c-0.46-1.61-0.72-3.09-0.78-4.43c-0.59-0.26-0.89-0.57-0.89-0.92
			c-0.01-0.17,0.11-0.36,0.36-0.55c0.25-0.19,0.38-0.36,0.39-0.52c0.01-0.16-0.07-1.07-0.25-2.73c-1.1-0.02-1.69-0.33-1.77-0.92
			c-0.08-0.55,0.18-1.04,0.76-1.48c0.56-0.35,1.12-0.71,1.69-1.06c0.65-0.49,1.49-0.97,2.49-1.44c0.86-0.41,1.74-0.81,2.63-1.2
			c0.09-0.03,0.2-0.06,0.34-0.09c0.51-0.09,1.14,0,1.89,0.28c0.03,0.07,0.1,0.21,0.22,0.4c0.11,0.19,0.18,0.34,0.19,0.43
			C143.8,99.58,143.75,99.72,143.64,99.83z"/>
		<path class="st3" d="M156.77,110.73c0.17,0.28,0.27,0.54,0.31,0.76c0.07,0.38-0.03,0.74-0.31,1.08c-0.27,0.34-0.47,0.51-0.58,0.51
			c-0.96-0.01-1.68-0.65-2.16-1.93c-0.52-1.39-1.05-2.53-1.57-3.43c-0.63,0.17-1.27,0.34-1.9,0.51c-0.72,0.23-1.26,0.56-1.61,0.99
			c-0.1,0.62-0.19,1.71-0.27,3.27c-0.08,1.44-0.2,2.54-0.38,3.31c-0.09,0.37-0.4,0.52-0.91,0.46c-0.66-0.1-1.04-0.32-1.14-0.68
			c-0.18-0.71-0.15-1.71,0.11-3c0.32-1.48,0.46-2.52,0.41-3.12c-0.01-0.17-0.17-0.34-0.47-0.5c-0.3-0.16-0.46-0.3-0.48-0.41
			c-0.02-0.09,0.01-0.2,0.07-0.32c0.07-0.12,0.25-0.24,0.55-0.36c0.3-0.12,0.46-0.25,0.47-0.39c0.17-1.01,0.4-2.86,0.68-5.56
			c0.23-2.34,0.48-4.15,0.76-5.43c0.07-0.29,0.28-0.46,0.64-0.52c0.26-0.05,0.52,0,0.75,0.13c0.61,0.36,1.07,0.98,1.38,1.86
			c0.25,0.75,0.49,1.51,0.72,2.27C153.6,104.51,155.24,108.02,156.77,110.73z M151.67,106.04c-0.18-0.69-0.44-1.45-0.78-2.29
			c-0.32-0.72-0.64-1.45-0.94-2.17c-0.29,1.67-0.5,3.33-0.64,4.97C149.59,106.44,150.38,106.27,151.67,106.04z"/>
		<path class="st3" d="M165.12,104.19c-0.11,0.47-0.21,0.94-0.31,1.4c-0.14,0.55-0.31,1-0.52,1.35c-0.46,0.84-0.91,1.67-1.37,2.5
			c-0.55,0.99-1.07,1.71-1.58,2.15c-0.15,0.26-0.32,0.53-0.5,0.82c-0.18,0.29-0.39,0.45-0.61,0.49c-0.11,0.02-0.25,0.01-0.41-0.01
			c-0.16-0.03-0.34-0.07-0.53-0.11c-0.19-0.04-0.34-0.14-0.45-0.3c-0.2-0.78-0.38-1.63-0.54-2.54c-0.16-0.93-0.37-2.31-0.62-4.16
			c-0.25-1.85-0.46-3.23-0.62-4.16c-0.22-1.23-0.47-2.35-0.74-3.35c-0.02-0.02-0.27-0.2-0.74-0.54c-0.29-0.2-0.45-0.41-0.49-0.61
			c-0.02-0.1-0.01-0.19,0.01-0.29c0.05-0.24,0.24-0.41,0.55-0.51c0.24-0.08,0.48-0.15,0.72-0.22c1.65,0.06,3.47,0.65,5.46,1.78
			c0.52,0.3,0.96,0.63,1.32,1c1.15,1.18,1.82,2.36,2.03,3.53C165.29,103,165.27,103.6,165.12,104.19z M162.54,101.52
			c-0.38-1.16-1.58-2.03-3.59-2.61c0.43,3.18,0.98,6.54,1.67,10.06c1.76-2.51,2.47-4.74,2.12-6.67
			C162.69,102.03,162.62,101.77,162.54,101.52z"/>
		<path class="st3" d="M174.2,91.73c-0.15,2.23-0.63,5.18-1.44,8.86c-0.96,4.29-1.54,7.23-1.74,8.82c-0.04,0.32-0.02,0.71,0.06,1.16
			c0.13,0.62,0.2,1.02,0.21,1.19c0.06,0.67-0.23,1.07-0.87,1.18c-0.32,0.1-0.68,0.05-1.09-0.14c-0.41-0.19-0.64-0.43-0.67-0.72
			c-0.19-1.39-0.12-3.03,0.21-4.92c0.32-1.62,0.64-3.23,0.95-4.85c-1.98-3.35-3.59-5.78-4.83-7.28c-0.07-0.08-0.12-0.17-0.14-0.27
			c-0.04-0.21,0.05-0.42,0.25-0.64c0.2-0.22,0.42-0.35,0.65-0.39c0.04-0.01,0.42,0.03,1.13,0.12c0.6,0.64,1.26,1.48,1.97,2.52
			c0.61,0.89,1.2,1.78,1.79,2.67c0.18-1.2,0.36-2.39,0.54-3.58c0.2-1.38,0.49-2.54,0.87-3.49c0.1-0.29,0.35-0.47,0.72-0.54
			C173.3,91.33,173.78,91.43,174.2,91.73z"/>
		<path class="st3" d="M145.18,125.22c-0.05,0.71-0.3,1.16-0.75,1.36c-1.18,0.52-3.24,1.3-6.2,2.33c0.46,4.77,0.96,8.73,1.52,11.87
			c0.21,1.19,0.44,2.36,0.68,3.51c0.08,0.36,0.11,0.63,0.09,0.83c-0.04,0.32-0.21,0.49-0.49,0.53c-0.55,0.08-1.05-0.07-1.48-0.45
			c-0.44-0.38-0.72-0.84-0.86-1.38c-0.16-0.69-0.31-1.43-0.45-2.2c-0.22-1.25-0.49-3.24-0.79-5.97c-0.29-2.62-0.56-4.61-0.82-5.97
			c-0.52,0.05-1.22,0.23-2.1,0.52c-1.01,0.34-1.72,0.54-2.12,0.61c-0.93,0.16-1.73,0.05-2.4-0.34c-0.31-0.46-0.47-0.69-0.48-0.71
			c-0.02-0.13,0.02-0.29,0.12-0.46c0.57-0.32,1.77-0.73,3.61-1.23c1.61-0.46,2.79-0.99,3.53-1.57c0.7,0.11,1.48,0.09,2.33-0.06
			c0.85-0.15,1.64-0.4,2.38-0.74c0.22-0.06,0.78-0.29,1.66-0.7c0.65-0.29,1.21-0.45,1.67-0.47c0.34-0.06,0.51,0.06,0.5,0.35
			C144.83,124.75,145.12,124.88,145.18,125.22z"/>
		<path class="st3" d="M153.07,135.73c-0.67,2.71-1.98,4.49-3.94,5.32c-0.24,0.1-0.48,0.17-0.72,0.22c-1.08,0.19-2.27-0.2-3.57-1.18
			c-0.88-0.66-1.43-1.63-1.65-2.9c-0.25-1.4-0.1-2.98,0.45-4.73c0.24-0.74,0.57-1.41,0.99-1.99c0.48-0.69,0.99-1.08,1.52-1.18
			c0.3-0.05,0.61,0.01,0.91,0.19c0.31,0.18,1.07,0.36,2.29,0.53c0.96,0.14,1.69,0.54,2.2,1.19c0.89,1.15,1.41,2.18,1.57,3.09
			C153.19,134.8,153.18,135.28,153.07,135.73z M150.49,134.37c-0.38-1.36-0.89-2.11-1.54-2.27c-0.1-0.02-0.19-0.02-0.27-0.01
			c-0.23,0.04-0.48,0.28-0.75,0.72c-0.3,0.5-0.55,0.81-0.74,0.92c-0.12,0.08-0.32,0.06-0.6-0.07c-0.28-0.13-0.45-0.18-0.53-0.17
			c-0.06,0.01-0.1,0.04-0.13,0.08c-0.56,0.68-0.74,1.62-0.53,2.81c0.14,0.81,0.46,1.47,0.93,1.97c0.67,0.68,1.18,0.99,1.54,0.93
			c0.83-0.15,1.54-0.81,2.13-1.99C150.57,136.18,150.73,135.2,150.49,134.37z"/>
		<path class="st3" d="M141.66,166.08c-0.11,0.47-0.21,0.94-0.31,1.4c-0.14,0.55-0.31,1-0.52,1.35c-0.46,0.84-0.91,1.67-1.37,2.49
			c-0.54,0.99-1.07,1.71-1.58,2.15c-0.15,0.26-0.32,0.53-0.5,0.82s-0.39,0.45-0.61,0.49c-0.11,0.02-0.25,0.01-0.41-0.01
			c-0.16-0.03-0.34-0.07-0.53-0.11s-0.34-0.14-0.45-0.3c-0.2-0.78-0.38-1.63-0.54-2.54c-0.17-0.93-0.37-2.31-0.62-4.16
			c-0.25-1.85-0.46-3.23-0.62-4.16c-0.22-1.23-0.47-2.35-0.74-3.35c-0.02-0.02-0.27-0.2-0.74-0.54c-0.29-0.2-0.45-0.41-0.49-0.61
			c-0.02-0.1-0.01-0.19,0.01-0.29c0.05-0.24,0.24-0.41,0.55-0.51c0.24-0.08,0.48-0.15,0.72-0.22c1.65,0.06,3.47,0.65,5.47,1.78
			c0.52,0.3,0.96,0.63,1.32,1c1.14,1.18,1.82,2.36,2.03,3.53C141.83,164.89,141.81,165.48,141.66,166.08z M139.08,163.4
			c-0.38-1.16-1.58-2.03-3.59-2.61c0.43,3.18,0.98,6.54,1.66,10.06c1.76-2.52,2.47-4.74,2.13-6.67
			C139.23,163.92,139.16,163.66,139.08,163.4z"/>
		<path class="st3" d="M156.08,170.19c0.07,0.07,0.11,0.15,0.13,0.24c0.08,0.43-0.32,0.85-1.19,1.23c-1.14-0.6-2.6-1.57-4.38-2.91
			c-1.98-1.5-3.44-2.53-4.38-3.09c0.03,0.5,0.15,1.81,0.37,3.91c0.18,1.59,0.23,2.86,0.15,3.83c-0.04,0.01-0.15,0.07-0.33,0.2
			c-0.18,0.13-0.34,0.19-0.48,0.17c-0.87-0.04-1.38-0.54-1.55-1.51c-0.05-0.28-0.08-0.67-0.09-1.15c-0.02-0.56-0.03-0.91-0.04-1.05
			c-0.12-1.11-0.3-2.42-0.55-3.94l-0.55-3.09c-0.46-2.57-0.7-4.76-0.73-6.57c-0.02-1.21,0.99-1.94,3.03-2.21
			c1.03-0.14,2.01,0.21,2.94,1.06c0.86,0.78,1.38,1.71,1.57,2.77c0.16,0.89-0.02,1.83-0.52,2.84c-0.43,0.89-1.02,1.64-1.77,2.24
			c-0.31,0.25-0.44,0.49-0.4,0.72c0.04,0.24,0.29,0.5,0.75,0.77c0.35,0.19,0.69,0.39,1.04,0.58c0.02,0.02,1.23,0.78,3.62,2.28
			C154.25,168.48,155.36,169.36,156.08,170.19z M147.84,158.52c0-0.35-0.04-0.66-0.1-0.92c-0.13-0.39-0.36-0.72-0.69-0.99
			c-0.33-0.27-0.8-0.36-1.4-0.25c-0.45,0.08-0.71,0.27-0.78,0.58c-0.01,0.49,0.04,1.04,0.14,1.64c0.04,0.25,0.18,0.88,0.42,1.89
			c0.17,0.77,0.29,1.4,0.34,1.9C147.13,160.91,147.82,159.63,147.84,158.52z"/>
		<path class="st3" d="M155.26,155.33c0.14,0.54,0.25,1.1,0.36,1.69c0.23,1.29,0.44,3.25,0.63,5.88c0.19,2.64,0.41,4.62,0.64,5.94
			c0.09,0.49,0.18,0.97,0.29,1.44c-0.08,0.56-0.4,0.88-0.97,0.96c-0.82,0.11-1.33-0.17-1.52-0.81c-0.19-0.65-0.35-1.34-0.48-2.08
			c-0.23-1.29-0.41-3.23-0.55-5.84c-0.14-2.61-0.32-4.55-0.55-5.81c-0.09-0.49-0.19-0.97-0.31-1.44c0.13-0.39,0.41-0.63,0.87-0.71
			c0.36-0.06,0.74-0.02,1.13,0.12c0.06-0.07,0.12-0.11,0.16-0.12c0.06-0.01,0.1,0.08,0.14,0.27c0.02,0.23,0.04,0.36,0.07,0.4
			C155.18,155.28,155.21,155.32,155.26,155.33z"/>
		<path class="st3" d="M168.37,150.08c0.18,2.58,0.38,5.17,0.59,7.77c0.21,3.08,0.5,5.63,0.86,7.66c0.12,0.66,0.25,1.31,0.4,1.95
			c0.07,0.3,0.01,0.58-0.19,0.85c-0.2,0.27-0.45,0.43-0.75,0.48c-0.59,0.1-1.15-0.21-1.69-0.93c-1.63-2.15-3.79-5.59-6.48-10.32
			c-0.06-0.11-0.12-0.15-0.17-0.14c-0.13,0.02-0.19,0.17-0.19,0.44c0.16,2.76,0.5,5.63,1.03,8.62c0.25,1.44,0.55,2.9,0.89,4.38
			c0.12,0.55,0.02,0.95-0.28,1.22c-0.11,0.16-0.24,0.25-0.39,0.28c-0.13,0.02-0.31,0-0.54-0.08c-0.31-0.08-0.5-0.14-0.58-0.16
			c-0.26-0.03-0.45-0.23-0.57-0.6c-0.07-0.3-0.15-0.61-0.22-0.93c-0.24-1.05-0.47-2.15-0.67-3.31c-0.36-2-0.69-4.53-0.99-7.58
			c-0.45-4.64-0.7-7.21-0.75-7.71c-0.05-0.42,0.26-0.69,0.94-0.81c0.32-0.1,0.83,0.06,1.54,0.46c0.81,1.05,1.89,2.79,3.24,5.22
			c1.29,2.33,2.4,4.07,3.33,5.23c-0.16-2.56-0.39-6.44-0.69-11.64c-0.01-0.39,0.23-0.63,0.72-0.71c0.17-0.03,0.37-0.04,0.61-0.02
			c0.32,0.02,0.5,0.04,0.56,0.05C168.13,149.79,168.28,149.9,168.37,150.08z"/>
		<path class="st3" d="M182.34,163.72c0.13,0.07,0.21,0.2,0.24,0.37c0.02,0.11-0.01,0.41-0.07,0.89c-0.08-0.01-0.15,0-0.2,0.01
			c-0.11,0.02-0.25,0.09-0.41,0.22c-0.16,0.13-0.29,0.2-0.39,0.21s-0.2,0-0.33-0.06c-1.41-0.57-3.59-1.41-6.53-2.53
			c0.18,0.69,0.4,1.68,0.68,2.98c0.03,0.15,0.08,0.38,0.18,0.67c0.09,0.3,0.15,0.51,0.17,0.64c0.08,0.45-0.06,0.8-0.43,1.04
			c-0.1,0.1-0.25,0.16-0.46,0.2c-0.23,0.04-0.38,0-0.46-0.12c-0.52-0.08-0.86-0.36-1.03-0.84c-0.47-1.32-0.86-2.9-1.19-4.73
			c-0.12-0.66-0.27-1.65-0.47-2.97c-0.2-1.32-0.35-2.31-0.47-2.97c-0.35-2-0.8-3.72-1.32-5.15c-0.08-0.22,0.03-0.39,0.32-0.52
			c0.22-0.08,0.45-0.16,0.69-0.24c0.26,0.03,0.53,0.08,0.81,0.13c0.28,0.06,0.45,0.2,0.51,0.42c0.74,2.52,1.22,4.54,1.45,6.06
			c0.65-0.84,1.38-1.92,2.17-3.25c0.68-1.12,1.35-2.24,2.01-3.37c0.21-0.14,0.45-0.23,0.71-0.27c0.74-0.13,1.17,0.06,1.3,0.56
			c-0.32,1.27-1.12,2.84-2.38,4.72c-1.48,2.19-2.41,3.73-2.78,4.62c1.3,0.49,2.6,0.98,3.92,1.47
			C180.04,162.5,181.3,163.11,182.34,163.72z"/>
	</g>
</g>
</svg>
