<?xml version="1.0" encoding="utf-8"?>
<!-- Generator: Adobe Illustrator 25.4.0, SVG Export Plug-In . SVG Version: 6.00 Build 0)  -->
<svg version="1.1" id="Capa_1" xmlns="http://www.w3.org/2000/svg" xmlns:xlink="http://www.w3.org/1999/xlink" x="0px" y="0px"
	 viewBox="0 0 704 411.95" style="enable-background:new 0 0 704 411.95;" xml:space="preserve">
<style type="text/css">
	.st0{fill:#C8D12A;}
	.st1{fill:url(#);}
	.st2{fill:#050504;}
	.st3{fill:#FFFFFF;}
	.st4{fill:none;stroke:#FFFFFF;stroke-width:22.4065;}
	.st5{fill:none;stroke:#FFFFFF;stroke-width:11.3663;}
	.st6{fill:#C8D12A;stroke:#000000;stroke-width:5.1402;stroke-miterlimit:10;}
	.st7{fill:#030405;}
	.st8{fill:#C6CF31;}
	.st9{stroke:#000000;stroke-width:5.1402;stroke-miterlimit:10;}
	.st10{stroke:#FFFFFF;stroke-width:4;stroke-linecap:round;stroke-linejoin:round;stroke-miterlimit:10;}
	.st11{fill:none;stroke:#FFFFFF;stroke-width:4;stroke-linejoin:round;stroke-miterlimit:10;}
	.st12{clip-path:url(#SVGID_00000158009291977459219560000003106950149705922207_);}
	.st13{fill:#C8D12A;stroke:#000000;stroke-width:5.6822;stroke-miterlimit:10;}
	.st14{stroke:#FFFFFF;stroke-width:2.9639;stroke-miterlimit:10;}
	.st15{fill:#00993D;}
	.st16{clip-path:url(#SVGID_00000053544308943897090440000013239139643685012107_);}
	.st17{fill:#C8D12A;stroke:#000000;stroke-width:5.5;stroke-miterlimit:10;}
	.st18{clip-path:url(#SVGID_00000019665973227571209230000008123452399809270658_);}
	.st19{stroke:#FFFFFF;stroke-width:4;stroke-miterlimit:10;}
	.st20{stroke:#000000;stroke-width:2.5698;stroke-miterlimit:10;}
	.st21{fill:#C8D12A;stroke:#000000;stroke-width:2.569;stroke-miterlimit:10;}
	.st22{stroke:#000000;stroke-width:2.569;stroke-miterlimit:10;}
	.st23{stroke:#FFFFFF;stroke-width:1.9992;stroke-linecap:round;stroke-linejoin:round;stroke-miterlimit:10;}
	.st24{clip-path:url(#SVGID_00000038387300246288926610000006274734140111679628_);}
	.st25{fill:#C8D12A;stroke:#000000;stroke-width:2.8287;stroke-miterlimit:10;}
	.st26{stroke:#FFFFFF;stroke-width:1.4755;stroke-miterlimit:10;}
	.st27{clip-path:url(#SVGID_00000018924831774479470260000016015288055780103041_);}
	.st28{clip-path:url(#SVGID_00000118359912976420476940000018436713761481140669_);}
	.st29{clip-path:url(#SVGID_00000106141404170127078430000006104136966617020806_);}
	.st30{clip-path:url(#SVGID_00000136404025426815450080000004467191339851040143_);}
	.st31{fill:#C8D12A;stroke:#000000;stroke-width:2.4552;stroke-miterlimit:10;}
	.st32{stroke:#FFFFFF;stroke-width:1.2719;stroke-miterlimit:10;}
	.st33{fill:#C8D12A;stroke:#000000;stroke-width:2.1112;stroke-miterlimit:10;}
	.st34{stroke:#000000;stroke-width:2.1112;stroke-miterlimit:10;}
	.st35{stroke:#FFFFFF;stroke-width:1.6429;stroke-linecap:round;stroke-linejoin:round;stroke-miterlimit:10;}
	.st36{clip-path:url(#SVGID_00000179605853044960688190000015980354883586228660_);}
	.st37{stroke:#000000;stroke-width:2.1118;stroke-miterlimit:10;}
	.st38{clip-path:url(#SVGID_00000014630230525863588830000016135789111429888914_);}
	.st39{clip-path:url(#SVGID_00000133526772831951682050000008401657495919350179_);}
	.st40{clip-path:url(#SVGID_00000165205330320947474460000015163993949967660928_);}
	.st41{opacity:0.9;fill:#00993D;}
	.st42{opacity:0.9;fill:#FFFFFF;}
</style>
<g>
	<path class="st9" d="M516.92,110.76h135.12c27.27,0,49.38,22.11,49.38,49.38v199.85c0,27.27-22.11,49.38-49.38,49.38H51.95
		c-27.27,0-49.38-22.11-49.38-49.38V160.14c0-27.27,22.11-49.38,49.38-49.38h131.76H516.92z"/>
	<g>
		<path class="st19" d="M83.86,215.85c20.4-0.13,40.73,0.14,61.01,0.81c8.4,0.08,13.34,0.78,14.81,2.11
			c1.34,0.93,2.02,2.66,2.03,5.19l0.03,4.2c-0.2,10.14-1.17,16.08-2.89,17.82l-1.99,2.01l-13.4-0.51l-13.6-0.31l0.39,29.4l0.09,14.2
			c0.07,10.4-0.29,16.94-1.08,19.61c-0.79,2.41-2.04,4.68-3.76,6.82l-2.19,2.21l-10.4-0.53c-10.14-0.6-15.81-1.43-17.02-2.49
			c-0.4-0.53-0.81-11.86-1.22-33.99c-0.28-22-0.61-33.2-1.01-33.59c-0.27-0.4-4.14-0.84-11.61-1.33c-8.27-0.48-13.68-1.31-16.22-2.5
			c-2.28-1.05-3.42-3.64-3.45-7.78l0.19-2l-0.01-2c0.23-5.73,0.77-9.71,1.62-11.91c0.85-2.21,2.54-3.85,5.07-4.93
			C70.33,216.07,75.2,215.9,83.86,215.85z"/>
		<path class="st19" d="M180.93,226.43c1.19-0.81,4.06-1.23,8.59-1.25c4.66-0.03,9.1,0.28,13.31,0.92c4.2,0.64,6.71,1.49,7.52,2.55
			c0.94,1.06,1.41,1.99,1.42,2.79c0,0.13,0.13,0.2,0.4,0.2c0.8-0.01,2.66-0.75,5.59-2.24c5.58-2.84,10.64-4.27,15.17-4.3
			c4.67-0.03,9.47,1.27,14.42,3.91c4.95,2.64,7.43,5.42,7.45,8.35c0.01,1.6-1.1,4.84-3.34,9.72c-2.24,4.88-4.21,8.6-5.93,11.14
			c-1.32,2.01-2.71,3.02-4.18,3.03c-0.53,0-2-0.32-4.41-0.97c-2.41-0.79-4.68-1.17-6.81-1.16c-4.54,0.03-8.19,1.85-10.97,5.47
			c-4.76,6.16-7.07,19.51-6.94,40.04l0.02,2.8c0.02,2.93-0.14,5-0.46,6.2c-0.33,1.2-1.12,2.01-2.38,2.42
			c-1.27,0.41-3.37,0.62-6.3,0.64l-3.4-0.18l-4.4,0.03c-9.33-0.21-14.67-0.77-16.01-1.7c-1.61-1.06-2.48-2.18-2.62-3.38
			c-0.41-1.46-0.64-6.46-0.7-15c-0.08-12.93,0.13-26.93,0.63-42.01c0.5-15.07,1.08-23.41,1.74-25.01
			C179.01,228.11,179.87,227.1,180.93,226.43z"/>
		<path class="st19" d="M337.14,226.83c7.46-0.05,13.27,0.38,17.41,1.29c2.94,0.65,5.11,1.7,6.52,3.16
			c1.41,1.46,2.46,3.72,3.14,6.78c0.41,1.73,0.65,7.67,0.71,17.8c0.14,22.8-0.22,38.34-1.1,46.61c-0.37,4.4-0.95,7.41-1.74,9.01
			c-0.79,1.6-2.35,2.68-4.68,3.23c-2.33,0.55-6.76,0.98-13.29,1.29c-1.73,0.15-4.6,0.23-8.6,0.25c-2.93,0.02-4.87-0.27-5.81-0.86
			c-0.94-0.59-1.88-1.95-2.83-4.08c-0.95-2.12-1.69-3.19-2.22-3.19c-0.53,0-2.59,0.89-6.18,2.64c-5.58,2.7-10.91,4.07-15.97,4.1
			c-5.33,0.03-10.95-1.93-16.84-5.89c-5.89-3.96-10.83-9.13-14.8-15.51c-3.97-6.38-5.98-12.89-6.02-19.56
			c-0.02-2.93,0.23-5.27,0.75-7l0.58-3l0.39-2.2c0.38-3.07,2.68-7.88,6.91-14.44c6.47-10.17,14.76-16.49,24.88-18.96
			c2-0.41,4.06-0.63,6.2-0.64c7.46-0.05,13.68,1.78,18.63,5.48c1.34,0.93,2.34,1.39,3.01,1.38c0.67,0,1-0.47,0.99-1.41
			c0-0.67,0.55-1.7,1.68-3.11c1.12-1.41,2.15-2.31,3.08-2.72C332.47,227,334.2,226.85,337.14,226.83z M316.13,256.97
			c-3.2,0.02-6.06,0.97-8.58,2.86c-2.52,1.88-4.24,4.43-5.15,7.63c-0.39,1.2-0.58,2.47-0.58,3.8c0.02,3.47,1.44,6.23,4.25,8.27
			c2.81,2.05,6.62,3.06,11.42,3.03c2.53-0.02,4.23-0.16,5.1-0.43c0.87-0.27,1.43-0.88,1.69-1.81c0.26-0.93,0.58-2.94,0.96-6.01
			c0.51-3.6,0.75-7.14,0.73-10.6c-0.01-2-0.15-3.23-0.42-3.7c-0.27-0.46-1.21-1.02-2.81-1.68
			C320.86,257.41,318.66,256.95,316.13,256.97z"/>
		<path class="st19" d="M440.71,222.57c9.2-0.06,16.42,2.43,21.65,7.46c5.23,5.04,9,11.41,11.32,19.13c1.09,3.59,1.76,14.26,2,31.99
			l0.08,12.6c0.06,9.2-0.31,14.2-1.1,15.01c-0.53,0.8-1.59,1.28-3.19,1.42c-1.6,0.28-6.4,0.51-14.4,0.69l-16.4,0.5l-0.81-1.79
			c-0.14-0.53-0.58-7-1.32-19.39c-0.2-10-0.71-17.66-1.55-22.99c-0.82-3.86-2.38-7.05-4.66-9.57c-1.21-1.19-2.81-1.78-4.81-1.77
			c-9.73,0.06-14.54,9.23-14.43,27.49c0.03,5.2,0.12,8.73,0.27,10.6c0.15,2.53,0.24,6.6,0.28,12.2c0.02,3.47-0.17,5.4-0.56,5.8
			s-4.16,0.76-11.29,1.07c-7.13,0.31-13.37,0.48-18.7,0.52c-2.13,0.01-3.57-0.11-4.3-0.37c-0.74-0.26-1.24-0.86-1.51-1.79
			c-0.27-0.93-0.48-2.6-0.63-5c-0.14-1.6-0.25-7.67-0.32-18.2l-0.31-18l-0.13-19.8l-0.29-14.4c-0.02-3.73,0.19-6.37,0.65-7.9
			c0.46-1.53,1.42-2.54,2.88-3.02c1.46-0.47,3.93-0.72,7.4-0.75l10-0.06c7.33-0.05,11.8,0.26,13.41,0.91
			c1.33,0.53,2.02,2.66,2.04,6.39c0.02,3.2,0.23,4.8,0.63,4.8s1.92-1.28,4.58-3.83c4.64-4.3,9.49-7.19,14.54-8.69
			C434.65,223.01,437.64,222.59,440.71,222.57z"/>
		<path class="st19" d="M509.63,209.33c4.67-0.03,8.13,0.22,10.4,0.73c2.27,0.52,3.81,1.58,4.62,3.17c0.67,1.46,1.2,5.53,1.58,12.19
			c0.37,6.67,0.58,13,0.62,19c0.04,5.87,0.12,8.8,0.26,8.8c0.4,0,3.18-3.49,8.33-10.45c3.83-5.23,8.76-11.32,14.78-18.3
			c6.02-6.97,9.7-10.79,11.03-11.47c0.93-0.54,1.79-0.81,2.59-0.82c1.6-0.01,4.61,1.4,9.03,4.24c4.42,2.84,8.04,5.78,10.86,8.83
			c2.82,3.18,4.24,5.71,4.25,7.57c0.01,0.93-0.58,2.34-1.77,4.21c-1.72,2.41-5.55,7.2-11.51,14.37c-5.96,7.17-10.59,12.5-13.9,15.99
			l-6.36,7.04l6.04,6.76c3.76,4.11,8.19,9.22,13.3,15.31c5.1,6.1,7.93,9.62,8.47,10.55l0.41,1.4c0.01,1.73-4.11,3.23-12.37,4.48
			c-7.33,1.12-11.52,1.87-12.59,2.28c-2.13,0.55-3.86,0.82-5.19,0.83c-2,0.01-3.74-0.51-5.21-1.57c-1.07-0.79-4.16-4.57-9.27-11.34
			c-4.84-6.37-7.53-9.55-8.06-9.55c-0.53,0-1.26,0.68-2.19,2.01c-1.19,1.61-1.83,5.21-1.93,10.81c-0.1,5.87-0.68,9.34-1.73,10.41
			c-0.93,0.94-2.86,1.42-5.79,1.44c-3.73,0.02-6.33-0.03-7.8-0.15c-6.67-0.09-11.74-0.52-15.21-1.3c-2.67-0.51-4.41-1.34-5.22-2.47
			c-0.81-1.13-1.36-3.29-1.64-6.49c-0.15-3.06-0.41-11.66-0.76-25.8l-0.05-8.2c-0.17-26.67,0.31-45.67,1.44-57.01
			c0.25-2.53,0.84-4.24,1.77-5.11c0.93-0.87,2.92-1.45,5.99-1.74C500.7,209.59,504.96,209.36,509.63,209.33z"/>
		<path class="st19" d="M623.2,235.61l5.4-0.03l2.2-0.01c1.87-0.01,3.4,0.18,4.6,0.57c1.07,0.39,1.77,0.86,2.11,1.39
			c0.33,0.53,0.58,1.6,0.72,3.2c0.29,3.47,0.5,15.8,0.64,37c0.14,22.27-0.05,33.67-0.58,34.2c-1.06,1.08-5.26,1.63-12.59,1.68
			l-7.2,0.05l-5.4-0.17c-3.2,0.02-5.07-0.03-5.6-0.16c-1.33-0.12-2.4-0.58-3.21-1.38l-1.61-1.59l-0.37-27l-0.05-8.4
			c-0.15-23.33,0.57-35.87,2.16-37.61c0.66-0.8,4.92-1.3,12.79-1.48C619.73,235.83,621.73,235.75,623.2,235.61z M620.16,198.63
			c4.4-0.03,8.21,1.48,11.43,4.53c3.22,3.05,4.84,6.44,4.87,10.17l0.02,2.6c-0.24,3.87-1.76,6.91-4.54,9.13
			c-2.79,2.22-6.51,3.34-11.18,3.37l-1.2,0.01c-4.67-0.24-8.44-1.58-11.33-4.03c-2.88-2.45-4.33-5.6-4.36-9.47
			c-0.01-2,0.31-3.83,0.96-5.51c0.66-1.67,1.91-3.51,3.76-5.52C611.9,200.41,615.76,198.65,620.16,198.63z"/>
	</g>
	<g>
		<ellipse class="st3" cx="355.04" cy="97.06" rx="88.65" ry="80.02"/>
		<g>
			<g>
				<path class="st3" d="M353.42,47.61c-2.17,0-4.44-0.05-6.92-0.15c-7.17-0.3-13.76-1.05-20.12-2.31c-1.47-0.28-2.95-0.6-4.4-0.95
					c-4.34-1.07-7.99-2.21-11.18-3.48c-1.63-0.65-3.1-1.31-4.5-2.01c-0.93-0.46-1.78-0.93-2.41-1.28c-1.9-1.1-3.55-2.25-5.07-3.52
					c-2.16-1.88-3.74-3.77-4.84-5.8c-0.43-0.79-0.8-1.66-1.1-2.57c-0.63-2-0.8-3.97-0.51-5.86c0.24-1.76,0.87-3.54,1.87-5.23
					c1.6-2.61,3.86-4.84,6.93-6.85c4.28-2.7,9.18-4.71,15.46-6.35c8.36-2.06,17.24-3.11,26.41-3.11c1.66,0,3.36,0.03,5.04,0.1
					c2,0.08,3.58,1.65,3.69,3.64c0.1,1.99-1.36,3.75-3.33,4c-11.58,1.56-20.42,3.57-27.8,6.31c-4.74,1.73-8.25,3.54-10.74,5.52
					c-0.66,0.54-1.23,1.09-1.68,1.62c-0.4,0.48-0.61,0.83-0.71,1.04c-0.16,0.37-0.11,0.56-0.03,0.73c0.3,0.73,1.45,1.94,3.84,3.31
					c0.84,0.48,1.73,0.91,2.62,1.3c0.78,0.34,1.6,0.67,2.46,0.99c12.1-5.76,25.07-8.73,38.58-8.81l0.62,0
					c12.89,0,25.35,2.65,37.05,7.87c0.4-0.17,0.8-0.33,1.19-0.51c0.99-0.45,1.91-0.92,2.69-1.38c2.34-1.39,3.48-2.6,3.76-3.27
					c0.11-0.25,0.17-0.38-0.05-0.9c-0.04-0.08-0.25-0.44-0.7-0.95l-0.1-0.12c-0.57-0.59-1.04-1.03-1.52-1.41
					c-2.48-1.94-5.99-3.71-10.74-5.39c-7.4-2.65-16.26-4.56-27.89-5.99c-1.96-0.23-3.45-1.97-3.36-3.96
					c0.08-1.98,1.64-3.57,3.61-3.69c2.2-0.12,4.4-0.17,6.54-0.17c8.65,0,17.04,0.94,24.92,2.78c6.52,1.65,11.3,3.56,15.56,6.2
					c3.09,1.96,5.37,4.19,6.99,6.81c0.58,0.97,1.02,1.93,1.32,2.89c0.07,0.23,0.15,0.48,0.22,0.72c0.11,0.39,0.21,0.83,0.3,1.36
					c0.19,1.1,0.24,2.2,0.13,3.27c-0.02,0.27-0.06,0.58-0.11,0.89l-0.06,0.37c-0.04,0.23-0.09,0.44-0.14,0.64l-0.04,0.16
					c-0.1,0.39-0.2,0.69-0.31,0.99c-0.06,0.19-0.15,0.45-0.26,0.73c-0.11,0.31-0.26,0.66-0.43,1.01l-0.24,0.5l-0.13,0.24
					c-0.08,0.14-0.15,0.27-0.23,0.4c-0.31,0.53-0.56,0.92-0.81,1.26c-0.12,0.17-0.25,0.36-0.4,0.55l-0.31,0.4
					c-0.53,0.66-1.07,1.26-1.68,1.87c-0.12,0.13-0.3,0.3-0.48,0.46l-0.14,0.13c-0.22,0.21-0.46,0.43-0.71,0.65
					c-0.56,0.47-1.1,0.89-1.67,1.32c-0.61,0.47-1.32,0.96-2.06,1.43c-0.2,0.13-0.44,0.28-0.68,0.42c-0.62,0.38-1.27,0.76-1.97,1.15
					l-0.4,0.22c-0.22,0.12-0.45,0.24-0.68,0.36c-0.54,0.28-1.1,0.56-1.69,0.82c-0.57,0.27-1.19,0.55-1.82,0.82
					c-1.99,0.85-4.04,1.61-6.23,2.31v0.52l-1.72,0.01c-0.49,0.15-0.99,0.3-1.49,0.43c-0.83,0.24-1.71,0.48-2.63,0.72
					c-9.82,2.45-20.28,3.68-31.99,3.78L353.42,47.61z M335.23,30.94c1.52,0.19,3.04,0.35,4.57,0.48c4.23,0.38,8.49,0.57,12.68,0.57
					c0.47,0,0.94,0,1.41-0.01c5-0.03,9.6-0.27,14.06-0.74c1.85-0.17,3.72-0.39,5.59-0.66c-6-1.4-12.17-2.11-18.41-2.11l-0.51,0
					C348.03,28.51,341.54,29.34,335.23,30.94z"/>
				<path class="st3" d="M366.08,0c8.51,0,16.71,0.91,24.46,2.73c6.31,1.6,10.91,3.44,14.96,5.95c2.83,1.8,4.9,3.83,6.34,6.16
					c0.47,0.78,0.85,1.59,1.11,2.43c0.07,0.22,0.14,0.44,0.2,0.66c0.11,0.39,0.19,0.78,0.26,1.18c0.16,0.91,0.2,1.83,0.11,2.73
					c-0.02,0.26-0.05,0.52-0.09,0.77c-0.02,0.12-0.04,0.25-0.06,0.37c-0.04,0.23-0.1,0.46-0.15,0.68c-0.07,0.26-0.15,0.51-0.24,0.76
					c-0.07,0.22-0.15,0.44-0.24,0.67c-0.11,0.3-0.24,0.6-0.38,0.9c-0.07,0.15-0.14,0.29-0.21,0.44c-0.05,0.09-0.1,0.17-0.15,0.26
					c-0.06,0.12-0.13,0.23-0.2,0.35c-0.2,0.34-0.42,0.69-0.66,1.02c-0.12,0.17-0.24,0.34-0.37,0.51c-0.1,0.13-0.2,0.26-0.3,0.39
					c-0.44,0.55-0.93,1.1-1.51,1.68c-0.18,0.19-0.38,0.37-0.58,0.56c-0.2,0.19-0.42,0.39-0.65,0.59c-0.5,0.42-1.01,0.82-1.55,1.22
					c-0.61,0.47-1.26,0.92-1.94,1.35c-0.2,0.13-0.41,0.26-0.63,0.39c-0.62,0.38-1.25,0.75-1.92,1.12c-0.34,0.18-0.68,0.37-1.03,0.55
					c-0.52,0.27-1.05,0.53-1.6,0.78c-0.58,0.28-1.17,0.54-1.78,0.8c-2.25,0.96-4.7,1.85-7.45,2.67c0,0.01,0,0.01,0,0.01
					c0,0,0,0-0.01-0.01c-0.56,0.18-1.14,0.35-1.73,0.51c-0.84,0.24-1.7,0.48-2.6,0.71c-9.64,2.4-19.94,3.62-31.51,3.72
					c-0.18,0-0.36,0-0.55,0c-2.33,0-4.61-0.06-6.85-0.15c-7.02-0.29-13.58-1.04-19.82-2.27c-1.46-0.28-2.9-0.59-4.32-0.93
					c-4.17-1.03-7.74-2.13-10.91-3.39c-1.53-0.61-2.97-1.25-4.34-1.94c-0.83-0.41-1.6-0.83-2.33-1.24
					c-1.82-1.05-3.36-2.13-4.76-3.31c-1.96-1.7-3.4-3.43-4.37-5.22c-0.4-0.73-0.71-1.48-0.95-2.23c-0.54-1.71-0.68-3.38-0.44-4.95
					c0.21-1.53,0.76-3.06,1.62-4.52c1.42-2.32,3.47-4.34,6.3-6.19c4.02-2.54,8.73-4.49,14.87-6.09c8.2-2.02,16.89-3.04,25.91-3.04
					c1.64,0,3.3,0.03,4.96,0.1c0.96,0.04,1.72,0.81,1.77,1.75c0.05,0.96-0.65,1.79-1.59,1.91c-11.71,1.58-20.68,3.61-28.24,6.42
					c-4.95,1.81-8.64,3.72-11.29,5.83c-0.78,0.64-1.44,1.28-1.96,1.89c-0.43,0.51-0.77,1.01-0.99,1.47c-0.38,0.85-0.4,1.63-0.06,2.4
					c0.55,1.34,2.23,2.84,4.68,4.24c0.85,0.48,1.8,0.96,2.82,1.4c1.05,0.46,2.17,0.9,3.36,1.32c11.63-5.67,24.68-8.89,38.48-8.98
					c0.2,0,0.4,0,0.61,0c13.2,0,25.73,2.88,37,8.04c0.7-0.28,1.38-0.56,2.04-0.85c1.05-0.48,2.03-0.98,2.9-1.49
					c2.39-1.42,4.04-2.91,4.59-4.22c0.37-0.81,0.34-1.55-0.06-2.47c-0.21-0.43-0.55-0.93-1.02-1.47c-0.02-0.03-0.04-0.06-0.07-0.09
					c-0.61-0.65-1.2-1.21-1.82-1.7c-2.65-2.08-6.35-3.95-11.31-5.71c-7.56-2.71-16.55-4.64-28.31-6.09
					c-0.94-0.11-1.65-0.93-1.61-1.89c0.04-0.95,0.78-1.72,1.74-1.78C361.82,0.06,363.96,0,366.08,0 M352.48,33.99
					c0.48,0,0.95,0,1.43-0.01c5.11-0.03,9.77-0.28,14.25-0.75c4.66-0.43,9.32-1.17,13.87-2.17c0.07-0.01,0.13-0.03,0.19-0.05
					c-8.49-2.95-17.61-4.54-27.09-4.54c-0.17,0-0.35,0-0.53,0c-9.87,0.06-19.32,1.85-28.08,5.08c4.36,0.87,8.77,1.49,13.11,1.86
					C343.76,33.78,348.07,33.99,352.48,33.99 M366.08-4c-2.18,0-4.41,0.06-6.63,0.18c-3.04,0.19-5.4,2.6-5.53,5.61
					c-0.13,3.03,2.13,5.68,5.14,6.03c11.45,1.41,20.17,3.28,27.42,5.88c4.55,1.62,7.88,3.28,10.19,5.09
					c0.38,0.3,0.78,0.67,1.23,1.14l0.11,0.13c0.04,0.05,0.08,0.09,0.11,0.13c-0.4,0.42-1.22,1.12-2.65,1.97
					c-0.7,0.41-1.55,0.85-2.49,1.28c-0.11,0.05-0.22,0.1-0.34,0.15c-11.72-5.1-24.18-7.69-37.07-7.69l-0.63,0
					c-13.51,0.09-26.51,2.99-38.65,8.64c-0.54-0.21-1.06-0.43-1.56-0.65c-0.85-0.37-1.67-0.77-2.46-1.22
					c-1.42-0.81-2.23-1.49-2.64-1.92c0.03-0.04,0.07-0.08,0.11-0.13c0.35-0.41,0.85-0.89,1.42-1.36c2.32-1.84,5.64-3.53,10.15-5.18
					c7.26-2.7,15.96-4.67,27.4-6.21c2.98-0.38,5.21-3.05,5.05-6.08c-0.16-3.03-2.57-5.41-5.6-5.54c-1.71-0.07-3.44-0.11-5.13-0.11
					c-9.33,0-18.37,1.06-26.87,3.16l-0.03,0.01l-0.03,0.01c-6.48,1.69-11.57,3.78-16,6.58l-0.03,0.02l-0.03,0.02
					c-3.32,2.17-5.78,4.61-7.52,7.45l-0.02,0.03l-0.02,0.03c-1.13,1.92-1.85,3.93-2.13,5.98c-0.33,2.19-0.13,4.45,0.58,6.73
					c0.34,1.05,0.76,2.04,1.26,2.95c1.21,2.23,2.93,4.3,5.26,6.32l0.02,0.02l0.02,0.02c1.61,1.36,3.36,2.57,5.34,3.72
					c0.7,0.39,1.57,0.87,2.56,1.36c1.42,0.72,2.95,1.4,4.63,2.07c3.28,1.3,7.02,2.47,11.43,3.56c1.5,0.36,3.01,0.69,4.53,0.98
					c6.45,1.27,13.13,2.04,20.41,2.34c2.52,0.1,4.81,0.15,7.02,0.15l0.56,0c11.89-0.1,22.5-1.36,32.46-3.84
					c1.02-0.26,1.94-0.52,2.71-0.74c0.43-0.12,0.84-0.24,1.24-0.36h3.42l0-1.08c1.74-0.59,3.4-1.22,5.02-1.92
					c0.77-0.33,1.36-0.59,1.91-0.86c0.58-0.26,1.15-0.54,1.75-0.85c0.23-0.12,0.46-0.24,0.7-0.37l0.36-0.2l0.03-0.02l0.03-0.02
					c0.67-0.37,1.34-0.76,2.05-1.2c0.25-0.15,0.49-0.3,0.73-0.45c0.78-0.49,1.52-1.01,2.19-1.53c0.61-0.45,1.17-0.9,1.71-1.35
					l0.03-0.02l0.03-0.02c0.28-0.24,0.54-0.48,0.78-0.71l0.13-0.12c0.19-0.18,0.38-0.36,0.55-0.54c0.65-0.65,1.23-1.3,1.77-1.98
					l0.02-0.03l0.02-0.03l0.21-0.27l0.09-0.12c0.16-0.21,0.31-0.42,0.45-0.62c0.28-0.39,0.56-0.82,0.85-1.32l0.04-0.07
					c0.08-0.13,0.15-0.26,0.22-0.39l0.01-0.02c0.04-0.07,0.08-0.14,0.12-0.21l0.07-0.12l0.06-0.13l0.08-0.17l0.13-0.27
					c0.2-0.42,0.36-0.81,0.5-1.17c0.11-0.27,0.2-0.54,0.29-0.8c0.12-0.34,0.22-0.67,0.31-1.01l0.02-0.08l0.02-0.08l0.03-0.15
					c0.06-0.24,0.11-0.49,0.16-0.73l0.04-0.23l0.03-0.17c0.06-0.36,0.1-0.72,0.13-1.08c0.12-1.24,0.07-2.51-0.16-3.78
					c-0.1-0.6-0.22-1.1-0.35-1.57c-0.06-0.24-0.15-0.51-0.24-0.79c-0.33-1.08-0.84-2.19-1.5-3.28c-1.81-2.92-4.29-5.35-7.62-7.47
					c-4.48-2.77-9.44-4.76-16.12-6.45l-0.04-0.01l-0.04-0.01C383.42-3.05,374.88-4,366.08-4L366.08-4z"/>
			</g>
			<g>
				<path class="st3" d="M355.53,200.19c-23,0-44.96-8.59-61.84-24.19c-16.48-15.22-26.69-35.77-28.86-57.98
					c-1.17-0.53-2.15-1.36-2.81-1.92c0,0-0.24-0.2-0.26-0.21c-0.71,0.14-3.65,1.21-9.33,9.59c-3.08,4.54-6.47,6.85-10.07,6.85
					l-0.11,0c-2.74-0.06-4.88-1.45-6.32-2.81c-3.94,3-7.28,4.47-10.17,4.47c-0.98,0-1.9-0.17-2.75-0.51
					c-1.56-0.63-2.63-1.68-3.35-2.75c-3.08,2.33-8.18,5.39-13.73,5.43c-2.21,0-4.29-0.45-6.22-1.35c-3.75-1.74-4.92-4.35-5.24-6.24
					c-1.03-5.98,5.04-12.38,6.26-13.61l0.13-0.13c6.67-6.28,29.13-26.83,38.05-27.58c0.25-0.02,0.5-0.03,0.75-0.03
					c8.3,0,19.21,11.64,23.73,16.93c0.39-0.2,0.78-0.37,1.16-0.51c1.45-24.68,13.04-47.94,31.94-64.03l1.53-1.31l1.29,1.54
					c0.59,0.7,1.3,1.41,2.18,2.18c0.69,0.58,1.42,1.14,2.16,1.64l2.21,1.5l-2.06,1.7c-18.87,15.54-29.6,38.46-29.45,62.88
					c0.05,7.89,1.21,15.59,3.43,22.94c-0.77-4.52-1.18-9.12-1.2-13.74c-0.18-27.71,13.24-53.81,35.89-69.81l0.85-0.6l0.98,0.36
					c2.53,0.92,5.37,1.76,8.68,2.57c7.45,1.77,15.22,2.8,23.75,3.14c0.69,0.03,1.39,0.06,2.08,0.08c0.48,0.02,0.94,0.03,1.39,0.04
					c0.48,0.01,0.95,0.02,1.43,0.02l1.21,0.01h1.21l2.12-0.03l2.1-0.06c0.69-0.02,1.38-0.05,2.07-0.08
					c0.88-0.04,1.77-0.09,2.64-0.15l0.4-0.03c0.26-0.02,0.52-0.03,0.78-0.06l0.1-0.01l0.14-0.01c0.83-0.06,1.66-0.13,2.48-0.21
					c0.96-0.08,1.9-0.18,2.83-0.29c0.97-0.11,1.92-0.22,2.86-0.36c0.41-0.05,0.78-0.11,1.15-0.17c0.42-0.05,0.73-0.1,1.03-0.16
					c0.91-0.13,1.72-0.27,2.53-0.41c0.36-0.06,0.67-0.11,0.97-0.18c0.51-0.09,0.95-0.17,1.38-0.27c0.91-0.18,1.75-0.35,2.59-0.54
					c0.97-0.21,1.91-0.43,2.85-0.67c6.05-1.57,10.74-3.26,14.74-5.32c0.59-0.31,1.19-0.63,1.74-0.94l0.99-0.56l0.98,0.57
					c0.53,0.3,1.05,0.61,1.56,0.92c-0.02-0.02-2.02-1.59-2.02-1.59l1.93-1.58c0.14-0.11,0.29-0.23,0.43-0.33
					c0.34-0.27,0.72-0.57,1.08-0.87c0,0,0.6-0.55,0.81-0.74c0.1-0.1,0.4-0.4,0.4-0.4c0.36-0.37,0.69-0.73,1-1.08
					c0.15-0.19,0.34-0.42,0.5-0.65c0.11-0.14,0.18-0.24,0.25-0.35l0.6-0.87h1.75l0.56,0.44c20.51,16.39,32.92,40.65,34.21,66.76
					c0.31,0.1,0.62,0.23,0.93,0.38c4.07-4.87,13.67-15.31,21.13-15.31c0.2,0,0.39,0.01,0.59,0.02c8.82,0.62,31.86,21.86,34.46,24.28
					c1.63,1.61,6.68,7.07,5.85,12.3c-0.27,1.73-1.31,4.14-4.71,5.78c-1.74,0.85-3.64,1.29-5.65,1.3c-4.89,0-9.29-2.43-12.25-4.59
					c-0.75,1.08-1.74,1.89-2.91,2.38c-0.82,0.33-1.7,0.5-2.64,0.5c-2.59,0-5.54-1.25-9-3.8c-1.3,1.22-3.19,2.43-5.62,2.5l-0.23,0
					c-3.23,0-6.29-2.04-9.12-6.08c-4.89-7.03-7.51-8.15-8.2-8.33c-0.01,0.01-0.12,0.11-0.12,0.11c-0.67,0.59-1.65,1.44-2.84,1.92
					c-2.13,22.09-12.23,42.56-28.54,57.79c-16.76,15.65-38.63,24.35-61.58,24.49C356.14,200.19,355.54,200.19,355.53,200.19z"/>
				<path class="st3" d="M411.13,39.34c19.74,15.77,32.65,39.76,33.52,66.84c0.86,0.03,1.96,0.38,3.34,1.32
					c2.18-2.72,13.12-15.88,20.66-15.89c0.15,0,0.3,0.01,0.44,0.02c8.12,0.57,32.22,22.8,33.24,23.75c0.25,0.25,5.99,5.8,5.24,10.52
					c-0.29,1.84-1.51,3.28-3.6,4.29c-1.6,0.78-3.21,1.09-4.79,1.1c-0.03,0-0.06,0-0.08,0c-5.69,0-10.91-4.02-12.88-5.72
					c-0.33,1.16-1.13,2.9-2.96,3.66c-0.57,0.23-1.19,0.35-1.87,0.35c-2.43,0-5.53-1.51-9.24-4.52c-0.8,1.05-2.71,3.14-5.44,3.22
					c-0.06,0-0.11,0-0.17,0c-2.55,0-5.05-1.76-7.48-5.22c-5.67-8.15-8.79-9.22-10.03-9.22c-0.34,0-0.54,0.08-0.61,0.12
					c-0.11,0.05-0.4,0.31-0.64,0.52c-0.85,0.74-2.09,1.81-3.35,1.81c-0.01,0-0.02,0-0.04,0v0.01c-3.67,45.6-41.68,81.6-88.27,81.89
					c-0.19,0-0.39,0-0.58,0c-46.66,0-85.03-35.88-88.84-81.66c0-0.01-0.01-0.01-0.01-0.02c-1.28-0.17-2.51-1.2-3.38-1.94
					c-0.29-0.23-0.61-0.51-0.75-0.58c-0.07-0.04-0.29-0.12-0.65-0.12c-1.36,0-4.84,1.19-11.14,10.48c-2.69,3.97-5.51,5.97-8.41,5.97
					c-0.03,0-0.06,0-0.09,0c-3.05-0.07-5.22-2.38-6.13-3.54c-4.17,3.45-7.65,5.2-10.39,5.2c-0.72,0-1.4-0.12-2.01-0.37
					c-2.07-0.83-2.99-2.77-3.37-4.06c-2.2,1.95-8.04,6.55-14.46,6.6c-1.76,0-3.57-0.33-5.36-1.16c-2.37-1.1-3.76-2.7-4.11-4.76
					c-0.91-5.29,5.45-11.6,5.71-11.86c1.15-1.08,27.85-26.36,36.93-27.12c0.19-0.02,0.38-0.02,0.58-0.02
					c8.45,0,20.83,14.52,23.3,17.52c1.42-0.99,2.57-1.42,3.51-1.52c1.08-25.63,12.99-48.5,31.31-64.09c0.68,0.81,1.48,1.6,2.4,2.4
					c0.73,0.62,1.51,1.22,2.35,1.79c-18.57,15.29-30.34,38.51-30.18,64.44c0.12,19,6.64,36.46,17.48,50.35
					c-7.07-12.1-11.16-26.16-11.25-41.18c-0.18-28.13,13.69-53.08,35.04-68.16c2.65,0.96,5.58,1.82,8.89,2.63
					c7.53,1.79,15.48,2.85,24.14,3.2c0.7,0.03,1.4,0.06,2.1,0.08c0.47,0.02,0.94,0.03,1.41,0.04c0.49,0.01,0.98,0.02,1.47,0.02
					c0.4,0,0.8,0.01,1.21,0.01h1.21c0.72-0.01,1.44-0.02,2.15-0.03c0.72-0.02,1.42-0.04,2.13-0.06c0.7-0.02,1.4-0.05,2.1-0.08
					c0.9-0.04,1.8-0.09,2.69-0.15c0.42-0.03,0.83-0.05,1.24-0.09c0.06,0,0.12,0,0.18-0.01c0.85-0.06,1.69-0.13,2.53-0.21
					c0.96-0.08,1.92-0.18,2.87-0.29c0.98-0.11,1.96-0.23,2.92-0.37c0.39-0.05,0.78-0.11,1.17-0.17c0.38-0.04,0.75-0.1,1.11-0.17
					c0.83-0.12,1.66-0.26,2.48-0.4c0.35-0.06,0.7-0.12,1.04-0.19c0.47-0.08,0.94-0.17,1.4-0.27c0.88-0.17,1.74-0.35,2.6-0.54
					c0.98-0.21,1.94-0.44,2.9-0.68c6.17-1.6,10.99-3.33,15.17-5.48c0.62-0.32,1.23-0.65,1.8-0.97c9.33,5.36,17.51,12.49,24.1,20.93
					c-5.27-9.02-12.2-16.94-20.36-23.36c0.11-0.09,0.23-0.18,0.34-0.26c0.41-0.32,0.81-0.64,1.19-0.96c0.33-0.3,0.64-0.58,0.93-0.85
					c0.14-0.15,0.28-0.28,0.41-0.41c0.4-0.41,0.76-0.8,1.09-1.18c0.21-0.26,0.42-0.52,0.61-0.78c0.1-0.13,0.19-0.26,0.28-0.39
					H411.13 M412.54,35.34h-1.4h-0.01h-2.1l-1.19,1.72c-0.05,0.08-0.1,0.15-0.16,0.23l-0.03,0.04l-0.03,0.04
					c-0.14,0.19-0.29,0.38-0.45,0.57c-0.27,0.31-0.56,0.62-0.89,0.96l-0.06,0.06c-0.1,0.09-0.2,0.19-0.29,0.29
					c-0.2,0.19-0.41,0.38-0.63,0.58l-0.12,0.11c-0.31,0.26-0.64,0.52-0.97,0.78c-0.15,0.11-0.31,0.23-0.46,0.36l-1.15,0.94
					L402.56,42l-1.98,1.11c-0.56,0.31-1.12,0.62-1.68,0.9c-3.86,1.99-8.42,3.63-14.34,5.16c-1.04,0.26-1.92,0.47-2.73,0.64
					c-0.9,0.2-1.72,0.37-2.52,0.52l-0.05,0.01l-0.05,0.01c-0.4,0.09-0.81,0.17-1.22,0.24l-0.07,0.01l-0.07,0.01
					c-0.3,0.06-0.6,0.11-0.91,0.17c-0.78,0.13-1.58,0.27-2.38,0.38l-0.1,0.01l-0.09,0.02c-0.29,0.06-0.54,0.09-0.77,0.12l-0.1,0.01
					l-0.09,0.01c-0.36,0.06-0.71,0.11-1.07,0.16l-0.03,0l-0.03,0.01c-0.81,0.12-1.7,0.23-2.79,0.35c-1.03,0.12-1.92,0.21-2.76,0.28
					c-0.85,0.08-1.66,0.15-2.48,0.21l-0.01,0l-0.07,0l-0.21,0.02c-0.24,0.02-0.47,0.04-0.71,0.05l-0.43,0.03
					c-0.84,0.06-1.71,0.11-2.58,0.14c-0.67,0.03-1.36,0.06-2.04,0.08l-0.7,0.02l-1.4,0.04l-1.54,0.02l-0.55,0.01h-1.18
					c-0.19,0-0.38,0-0.56,0c-0.22,0-0.43-0.01-0.65-0.01c-0.46,0-0.93-0.01-1.39-0.02c-0.44-0.01-0.88-0.02-1.32-0.04l-0.03,0
					l-0.03,0c-0.68-0.02-1.36-0.05-2.04-0.08c-8.41-0.34-16.05-1.35-23.39-3.1c-3.21-0.79-5.99-1.61-8.45-2.5l-1.96-0.71l-1.71,1.21
					c-16.97,11.99-28.88,29.51-33.97,49.17c3.01-18.8,12.74-35.93,27.73-48.27l4.13-3.4l-4.42-3c-0.68-0.46-1.36-0.98-2.01-1.53
					c-0.77-0.67-1.41-1.3-1.93-1.92l-2.59-3.08l-3.07,2.61c-18.52,15.76-30.17,38.27-32.4,62.34c-5.76-6.35-15.2-15.21-23.13-15.21
					c-0.3,0-0.61,0.01-0.91,0.04c-8.97,0.75-28.44,17.94-39.25,28.11l-0.08,0.08l-0.05,0.04l-0.04,0.04
					c-1.9,1.9-7.99,8.6-6.82,15.37c0.4,2.35,1.83,5.6,6.37,7.71c2.19,1.02,4.56,1.53,7.04,1.53c5.24-0.04,9.96-2.36,13.41-4.72
					c0.84,0.81,1.83,1.45,2.93,1.89c1.1,0.44,2.27,0.65,3.5,0.65c3.01,0,6.33-1.29,10.09-3.93c1.62,1.2,3.74,2.21,6.34,2.27l0.18,0
					c4.3,0,8.25-2.6,11.72-7.73c3.82-5.64,6.25-7.67,7.35-8.38c0.44,0.35,0.94,0.73,1.51,1.07c2.44,22.29,12.81,42.87,29.39,58.18
					c17.26,15.94,39.7,24.72,63.2,24.72l0.61,0c23.45-0.15,45.8-9.04,62.93-25.03c16.4-15.31,26.65-35.8,29.05-57.96
					c0.52-0.3,0.98-0.64,1.38-0.96c1.03,0.71,3.09,2.54,6.26,7.1c3.23,4.61,6.85,6.94,10.76,6.94c0.1,0,0.2,0,0.29,0
					c2.3-0.07,4.19-0.93,5.65-1.99c3.29,2.21,6.23,3.29,8.91,3.29c1.19,0,2.33-0.22,3.38-0.65c0.93-0.38,1.76-0.92,2.49-1.58
					c3.11,2.02,7.27,3.94,11.83,3.94l0.11,0c2.3-0.01,4.5-0.52,6.51-1.5c4.16-2.01,5.45-5.06,5.8-7.26
					c0.95-5.99-4.13-11.76-6.35-13.96l-0.04-0.04l-0.07-0.07c-0.06-0.06-6.57-6.1-14.18-12.21c-13.59-10.9-18.78-12.41-21.5-12.6
					c-0.23-0.02-0.48-0.03-0.72-0.03c-7,0-15.12,7.54-20.31,13.3c-2.21-25.34-14.68-48.69-34.71-64.7L412.54,35.34L412.54,35.34z"/>
			</g>
		</g>
		<g>
			<path class="st7" d="M444.67,107.41c0-0.21,0-0.42-0.01-0.62c0-0.21-0.01-0.41-0.01-0.61c-0.86-27.08-13.77-51.07-33.52-66.84
				h-0.01c-0.09,0.13-0.18,0.26-0.28,0.39c-0.19,0.26-0.4,0.52-0.61,0.78c-0.33,0.38-0.69,0.77-1.09,1.18
				c-0.13,0.13-0.27,0.26-0.41,0.41c-0.29,0.27-0.6,0.55-0.93,0.85c-0.38,0.32-0.78,0.64-1.19,0.96c-0.11,0.08-0.23,0.17-0.34,0.26
				c8.16,6.42,15.09,14.34,20.36,23.36c-6.59-8.44-14.77-15.57-24.1-20.93c-0.57,0.32-1.18,0.65-1.8,0.97
				c-4.18,2.15-9,3.88-15.17,5.48c-0.96,0.24-1.92,0.47-2.9,0.68c-0.86,0.19-1.72,0.37-2.6,0.54c-0.46,0.1-0.93,0.19-1.4,0.27
				c-0.34,0.07-0.69,0.13-1.04,0.19c-0.82,0.14-1.65,0.28-2.48,0.4c-0.36,0.07-0.73,0.13-1.11,0.17c-0.39,0.06-0.78,0.12-1.17,0.17
				c-0.96,0.14-1.94,0.26-2.92,0.37c-0.95,0.11-1.91,0.21-2.87,0.29c-0.84,0.08-1.68,0.15-2.53,0.21c-0.06,0.01-0.12,0.01-0.18,0.01
				c-0.41,0.04-0.82,0.06-1.24,0.09c-0.89,0.06-1.79,0.11-2.69,0.15c-0.7,0.03-1.4,0.06-2.1,0.08c-0.71,0.02-1.41,0.04-2.13,0.06
				c-0.71,0.01-1.43,0.02-2.15,0.03h-1.21c-0.41,0-0.81-0.01-1.21-0.01c-0.49,0-0.98-0.01-1.47-0.02c-0.47-0.01-0.94-0.02-1.41-0.04
				c-0.7-0.02-1.4-0.05-2.1-0.08c-8.66-0.35-16.61-1.41-24.14-3.2c-3.31-0.81-6.24-1.67-8.89-2.63
				c-21.35,15.08-35.22,40.03-35.04,68.16c0.09,15.02,4.18,29.08,11.25,41.18c-10.84-13.89-17.36-31.35-17.48-50.35
				c-0.16-25.93,11.61-49.15,30.18-64.44c-0.84-0.57-1.62-1.17-2.35-1.79c-0.92-0.8-1.72-1.59-2.4-2.4
				c-18.32,15.59-30.23,38.46-31.31,64.1c-0.01,0.23-0.02,0.45-0.02,0.68v0.01c-0.01,0.24-0.02,0.47-0.03,0.71
				c-0.03,0.98-0.04,1.98-0.03,2.97c0.01,1.84,0.08,3.67,0.2,5.48c0.02,0.24,0.03,0.49,0.06,0.73c0.01,0.24,0.03,0.47,0.05,0.71
				c3.82,45.97,42.5,81.96,89.42,81.66c46.59-0.29,84.6-36.29,88.27-81.89c0.03-0.21,0.04-0.42,0.05-0.63
				c0.02-0.2,0.04-0.4,0.04-0.61c0.16-2.17,0.22-4.36,0.21-6.58C444.69,108.12,444.68,107.76,444.67,107.41z M302.87,99.52
				c-1.06-0.72-1.46-2.04-0.97-3.22c2.55-6.13,8.5-10.13,15.15-10.18c6.79-0.04,12.83,4,15.4,10.29c0.47,1.17,0.09,2.5-0.97,3.2
				c-0.45,0.31-0.96,0.47-1.47,0.47c-0.68,0-1.34-0.25-1.86-0.75c-9.22-8.84-17.02-4.94-21.93-0.11
				C305.3,100.11,303.92,100.23,302.87,99.52z M396.97,126.29c-6.69,16.07-22.48,27.41-40.98,27.53
				c-18.81,0.12-34.98-11.4-41.66-27.82c-1.21-2.96,2.45-5.46,4.76-3.24c32.56,31.23,60.14,13.06,73.11,0.32
				C394.47,120.86,398.19,123.36,396.97,126.29z M408.08,99.12c-0.45,0.31-0.97,0.47-1.48,0.47c-0.67,0.01-1.33-0.25-1.86-0.75
				c-9.22-8.84-17.02-4.94-21.93-0.11c-0.91,0.89-2.29,1.01-3.35,0.3c-1.06-0.72-1.46-2.05-0.96-3.22
				c2.55-6.13,8.49-10.13,15.15-10.17c6.78-0.04,12.82,3.99,15.4,10.28C409.53,97.09,409.13,98.42,408.08,99.12z"/>
			<path class="st0" d="M411.13,39.34c-0.09,0.13-0.18,0.26-0.28,0.39c-0.19,0.26-0.4,0.52-0.62,0.78c0.21-0.26,0.42-0.52,0.61-0.78
				C410.94,39.6,411.03,39.47,411.13,39.34L411.13,39.34z"/>
			<path class="st7" d="M413.41,19.11c-0.07-0.4-0.15-0.79-0.26-1.18c-0.06-0.22-0.13-0.44-0.2-0.66c-0.26-0.84-0.64-1.65-1.11-2.43
				c-1.44-2.33-3.51-4.36-6.34-6.16c-4.05-2.51-8.65-4.35-14.96-5.95c-9.69-2.27-20.07-3.13-30.88-2.56
				c-0.96,0.06-1.7,0.83-1.74,1.78c-0.04,0.96,0.67,1.78,1.61,1.89c11.76,1.45,20.75,3.38,28.31,6.09
				c4.96,1.76,8.66,3.63,11.31,5.71c0.62,0.49,1.21,1.05,1.82,1.7c0.03,0.03,0.05,0.06,0.07,0.09c0.47,0.54,0.81,1.04,1.02,1.47
				c0.4,0.92,0.43,1.66,0.06,2.47c-0.55,1.31-2.2,2.8-4.59,4.22c-0.87,0.51-1.85,1.01-2.9,1.49c-0.66,0.29-1.34,0.57-2.04,0.85
				c-11.45-5.24-24.19-8.13-37.61-8.04c-13.8,0.09-26.85,3.31-38.48,8.98c-1.19-0.42-2.31-0.86-3.36-1.32
				c-1.02-0.44-1.97-0.92-2.82-1.4c-2.45-1.4-4.13-2.9-4.68-4.24c-0.34-0.77-0.32-1.55,0.06-2.4c0.22-0.46,0.56-0.96,0.99-1.47
				c0.52-0.61,1.18-1.25,1.96-1.89c2.65-2.11,6.34-4.02,11.29-5.83c7.56-2.81,16.53-4.84,28.24-6.42c0.94-0.12,1.64-0.95,1.59-1.91
				c-0.05-0.94-0.81-1.71-1.77-1.75c-10.8-0.44-21.18,0.55-30.87,2.94c-6.14,1.6-10.85,3.55-14.87,6.09
				c-2.83,1.85-4.88,3.87-6.3,6.19c-0.86,1.46-1.41,2.99-1.62,4.52c-0.24,1.57-0.1,3.24,0.44,4.95c0.24,0.75,0.55,1.5,0.95,2.23
				c0.97,1.79,2.41,3.52,4.37,5.22c1.4,1.18,2.94,2.26,4.76,3.31c0.73,0.41,1.5,0.83,2.33,1.24c1.37,0.69,2.81,1.33,4.34,1.94
				c3.17,1.26,6.74,2.36,10.91,3.39c1.42,0.34,2.86,0.65,4.32,0.93c6.24,1.23,12.8,1.98,19.82,2.27c2.42,0.1,4.88,0.16,7.4,0.15
				c11.57-0.1,21.87-1.32,31.51-3.72c0.9-0.23,1.76-0.47,2.6-0.71c0.59-0.16,1.17-0.33,1.73-0.51c0.01,0.01,0.01,0.01,0.01,0
				c2.75-0.82,5.2-1.71,7.45-2.67c0.61-0.26,1.2-0.52,1.78-0.8c0.55-0.25,1.08-0.51,1.6-0.78c0.35-0.18,0.69-0.37,1.03-0.55
				c0.67-0.37,1.3-0.74,1.92-1.12c0.22-0.13,0.43-0.26,0.63-0.39c0.68-0.43,1.33-0.88,1.94-1.35c0.54-0.4,1.05-0.8,1.55-1.22
				c0.23-0.2,0.45-0.4,0.65-0.59c0.2-0.19,0.4-0.37,0.58-0.56c0.58-0.58,1.07-1.13,1.51-1.68c0.1-0.13,0.2-0.26,0.3-0.39
				c0.13-0.17,0.25-0.34,0.37-0.51c0.24-0.33,0.46-0.68,0.66-1.02c0.07-0.12,0.14-0.23,0.2-0.35c0.05-0.09,0.1-0.17,0.15-0.26
				c0.07-0.15,0.14-0.29,0.21-0.44c0.14-0.3,0.27-0.6,0.38-0.9c0.09-0.23,0.17-0.45,0.24-0.67c0.09-0.25,0.17-0.5,0.24-0.76
				c0.05-0.22,0.11-0.45,0.15-0.68c0.02-0.12,0.04-0.25,0.06-0.37c0.04-0.25,0.07-0.51,0.09-0.77
				C413.61,20.94,413.57,20.02,413.41,19.11z M354.6,26.47c9.67-0.06,18.97,1.54,27.62,4.54c-0.06,0.02-0.12,0.04-0.19,0.05
				c-4.55,1-9.21,1.74-13.87,2.17c-4.48,0.47-9.14,0.72-14.25,0.75c-4.91,0.05-9.7-0.16-14.28-0.57c-4.34-0.37-8.75-0.99-13.11-1.86
				C335.28,28.32,344.73,26.53,354.6,26.47z"/>
			<path class="st7" d="M448.11,108.34c0,0,12.95-16.67,20.94-16.11c7.99,0.57,32.86,23.6,32.86,23.6s10.21,9.76,1.79,13.81
				c-8.43,4.04-17.86-5.26-17.86-5.26s-1,10.45-13.83-0.22c0,0-5.32,8.8-12.45-1.45c-7.13-10.25-10.51-9.76-11.43-9.3
				c-0.92,0.47-4.11,4.63-5.67,0.34C440.9,109.46,442.41,104.08,448.11,108.34L448.11,108.34z"/>
			<path class="st7" d="M499.19,131.29c-5.72,0.04-10.99-4.01-12.96-5.72c-0.33,1.16-1.13,2.9-2.96,3.66
				c-2.62,1.08-6.37-0.32-11.12-4.17c-0.8,1.05-2.7,3.13-5.44,3.22c-2.61,0.08-5.17-1.68-7.65-5.22
				c-7.25-10.43-10.32-9.26-10.64-9.1c-0.12,0.05-0.4,0.31-0.65,0.52c-0.97,0.84-2.43,2.11-3.89,1.74c-0.87-0.23-1.54-0.99-2-2.26
				c-0.94-2.58-0.93-5.89,0.89-7.24c0.91-0.68,2.53-1.05,5.22,0.77c2.22-2.77,13.56-16.4,21.1-15.87
				c8.11,0.57,32.22,22.81,33.24,23.75c0.25,0.25,5.99,5.8,5.24,10.52c-0.29,1.84-1.51,3.29-3.61,4.3
				C502.37,130.97,500.77,131.28,499.19,131.29L499.19,131.29z M485.37,123.04l0.91,0.91c0.09,0.09,9.23,8.95,17.15,5.14
				c1.75-0.84,2.71-1.95,2.94-3.39c0.65-4.09-4.81-9.37-4.87-9.43c-0.23-0.22-24.8-22.88-32.48-23.42
				c-7.58-0.54-20.29,15.7-20.42,15.86l-0.37,0.49l-0.49-0.37c-1.85-1.39-3.36-1.78-4.24-1.13c-1.14,0.86-1.35,3.41-0.46,5.84
				c0.31,0.87,0.7,1.37,1.15,1.48c0.84,0.22,2.04-0.84,2.78-1.48c0.38-0.33,0.65-0.57,0.89-0.69c1.25-0.63,4.93-0.97,12.21,9.49
				c2.22,3.19,4.44,4.77,6.59,4.7c2.89-0.1,4.81-3.18,4.83-3.21l0.36-0.62l0.55,0.46c5.75,4.8,8.82,5.04,10.37,4.4
				c2.12-0.87,2.44-3.73,2.44-3.77L485.37,123.04z"/>
			<g>
				<path class="st3" d="M490.05,126.92c0,0-4.42-3.02-11.41-14.15C478.65,112.76,485.61,127.64,490.05,126.92L490.05,126.92z"/>
			</g>
			<g>
				<path class="st3" d="M471.86,123.23c0,0-5.98-5.9-6.73-10.76c0,0,0.4,5.58,6.13,12.14L471.86,123.23z"/>
			</g>
			<g>
				<path class="st3" d="M459.53,99.23L459.53,99.23c-0.27-0.23-0.28-0.64-0.04-0.89c1.16-1.21,4.49-4.35,8.14-5
					c0.36-0.05,0.68,0.2,0.72,0.56c0.03,0.32-0.19,0.6-0.51,0.65c-3.26,0.59-6.38,3.54-7.46,4.65
					C460.15,99.43,459.78,99.44,459.53,99.23L459.53,99.23z"/>
			</g>
			<g>
				<path class="st3" d="M504.83,127.26L504.83,127.26c-0.31-0.09-0.49-0.41-0.43-0.72c1.28-6.14-6.67-11.25-8.79-12.51
					c-0.28-0.17-0.38-0.53-0.23-0.81l0.01-0.01c0.16-0.31,0.54-0.41,0.84-0.24c2.33,1.35,10.87,6.83,9.37,13.84
					C505.53,127.14,505.17,127.36,504.83,127.26L504.83,127.26z"/>
			</g>
			<g>
				<path class="st3" d="M480.97,127.94c-0.56,0-1.16-0.1-1.8-0.3c-0.34-0.1-0.52-0.47-0.39-0.81c0.12-0.3,0.45-0.46,0.76-0.36
					c1.12,0.35,2.06,0.31,2.79-0.11c0.91-0.54,1.35-1.56,1.53-2.18c0.09-0.29,0.38-0.47,0.68-0.43c0.37,0.05,0.61,0.41,0.51,0.77
					c-0.25,0.83-0.83,2.15-2.1,2.89C482.35,127.77,481.7,127.93,480.97,127.94L480.97,127.94z"/>
			</g>
			<g>
				<path class="st3" d="M469.15,124.53c-2.39-2.19-4.3-6.64-4.94-8.26c-0.12-0.32,0.04-0.68,0.36-0.8h0.01
					c0.31-0.12,0.66,0.04,0.78,0.36c0.6,1.53,2.43,5.8,4.6,7.78c0.24,0.21,0.28,0.57,0.09,0.82
					C469.83,124.72,469.41,124.77,469.15,124.53L469.15,124.53z"/>
			</g>
			<g>
				<path class="st3" d="M457.72,100c0,0.33,0.28,0.6,0.61,0.6c0.33-0.01,0.6-0.28,0.6-0.61c-0.01-0.33-0.28-0.6-0.61-0.6
					C457.99,99.39,457.72,99.67,457.72,100L457.72,100z"/>
			</g>
			<g>
				<path class="st3" d="M462.89,114.59c0.01,0.42,0.34,0.76,0.76,0.75c0.42,0,0.76-0.34,0.76-0.76c0-0.41-0.34-0.75-0.76-0.74
					C463.22,113.84,462.89,114.17,462.89,114.59L462.89,114.59z"/>
			</g>
			<g>
				<path class="st3" d="M477.08,125.94c0,0.33,0.27,0.6,0.61,0.6c0.33,0,0.6-0.28,0.6-0.6c0-0.34-0.28-0.6-0.61-0.6
					S477.07,125.6,477.08,125.94L477.08,125.94z"/>
			</g>
			<g>
				<path class="st3" d="M502.74,128.01c0.01,0.31,0.27,0.57,0.58,0.57c0.32,0,0.57-0.26,0.57-0.57c-0.01-0.32-0.26-0.57-0.58-0.57
					C503,127.43,502.74,127.69,502.74,128.01L502.74,128.01z"/>
			</g>
			<path class="st7" d="M262.84,107.69c0,0-14.75-18.5-23.7-17.75c-8.94,0.74-36.5,26.92-36.5,26.92s-11.3,11.09-1.79,15.51
				c9.49,4.41,19.92-6.16,19.92-6.16s1.29,11.7,15.5-0.44c0,0,6.09,9.78,13.93-1.81c7.84-11.58,11.64-11.09,12.67-10.59
				c1.04,0.52,4.68,5.13,6.38,0.31C270.94,108.84,269.18,102.83,262.84,107.69L262.84,107.69z"/>
			<path class="st7" d="M205.92,134.15c-1.77,0.01-3.58-0.33-5.36-1.16c-2.37-1.1-3.76-2.71-4.11-4.76
				c-0.91-5.29,5.45-11.6,5.71-11.86c1.14-1.08,27.85-26.36,36.93-27.12c8.45-0.71,21.35,14.43,23.88,17.5
				c2.98-2.09,4.81-1.69,5.84-0.95c2.06,1.5,2.11,5.21,1.09,8.11c-0.49,1.44-1.24,2.3-2.21,2.56c-1.63,0.44-3.29-0.97-4.38-1.9
				c-0.28-0.23-0.61-0.51-0.74-0.57c-0.36-0.18-3.81-1.42-11.79,10.35c-2.72,4.01-5.57,6.01-8.5,5.97
				c-3.05-0.07-5.23-2.38-6.13-3.53c-5.28,4.37-9.45,6-12.4,4.83c-2.07-0.83-2.99-2.77-3.37-4.06
				C218.18,129.5,212.33,134.1,205.92,134.15L205.92,134.15z M239.66,90.6c-0.15,0-0.31,0.01-0.46,0.02
				c-8.61,0.72-35.81,26.47-36.08,26.73c-0.05,0.06-6.1,6.06-5.32,10.64c0.28,1.6,1.37,2.83,3.34,3.74
				c8.94,4.16,19.05-5.91,19.14-6.01l1.03-1.03l0.16,1.44c0,0.03,0.39,3.25,2.78,4.19c1.77,0.7,5.2,0.38,11.58-5.07l0.61-0.52
				l0.42,0.68c0.01,0.03,2.21,3.47,5.45,3.52h0.12c2.38-0.01,4.8-1.82,7.2-5.36c8.02-11.84,12.15-11.5,13.55-10.82
				c0.28,0.14,0.59,0.41,1.02,0.77c0.82,0.7,2.21,1.86,3.13,1.62c0.5-0.14,0.93-0.71,1.27-1.69c0.95-2.73,0.68-5.6-0.61-6.54
				c-0.99-0.72-2.68-0.25-4.73,1.32l-0.54,0.41l-0.42-0.53C262.16,107.94,248.19,90.55,239.66,90.6L239.66,90.6z"/>
			<g>
				<path class="st3" d="M216.1,129.11c0,0,4.91-3.45,12.58-16.02C228.68,113.09,221.1,129.86,216.1,129.11L216.1,129.11z"/>
			</g>
			<g>
				<path class="st3" d="M236.45,124.71c0,0,6.61-6.7,7.39-12.16c0,0-0.36,6.25-6.69,13.7L236.45,124.71z"/>
			</g>
			<g>
				<path class="st3" d="M249.92,97.64L249.92,97.64c0.29-0.27,0.31-0.73,0.03-1c-1.33-1.34-5.1-4.82-9.2-5.5
					c-0.39-0.07-0.75,0.23-0.78,0.63c-0.03,0.36,0.22,0.68,0.57,0.73c3.66,0.6,7.2,3.87,8.43,5.1
					C249.23,97.87,249.64,97.89,249.92,97.64L249.92,97.64z"/>
			</g>
			<g>
				<path class="st3" d="M199.55,129.7L199.55,129.7c0.35-0.11,0.54-0.46,0.47-0.81c-1.52-6.86,7.31-12.72,9.68-14.16
					c0.31-0.19,0.41-0.6,0.25-0.92l-0.01-0.01c-0.19-0.33-0.62-0.46-0.95-0.26c-2.59,1.55-12.07,7.82-10.31,15.65
					C198.76,129.6,199.16,129.82,199.55,129.7L199.55,129.7z"/>
			</g>
			<g>
				<path class="st3" d="M226.79,129.76c0.63-0.01,1.31-0.12,2.01-0.36c0.38-0.12,0.57-0.54,0.43-0.92
					c-0.14-0.33-0.51-0.5-0.86-0.39c-1.25,0.41-2.31,0.37-3.13-0.08c-1.03-0.59-1.53-1.74-1.74-2.43c-0.11-0.32-0.43-0.52-0.77-0.47
					c-0.41,0.06-0.68,0.49-0.55,0.88c0.28,0.91,0.95,2.41,2.38,3.21C225.23,129.59,225.97,129.77,226.79,129.76L226.79,129.76z"/>
			</g>
			<g>
				<path class="st3" d="M239.5,126.14c2.65-2.49,4.72-7.51,5.41-9.32c0.15-0.37-0.05-0.77-0.41-0.89c-0.35-0.13-0.73,0.05-0.87,0.4
					c-0.65,1.72-2.65,6.54-5.05,8.78c-0.26,0.25-0.3,0.65-0.08,0.93C238.74,126.37,239.21,126.41,239.5,126.14L239.5,126.14z"/>
			</g>
			<g>
				<path class="st3" d="M251.96,98.49c0.01,0.37-0.3,0.68-0.68,0.68c-0.38,0-0.68-0.3-0.68-0.68c0-0.38,0.3-0.69,0.68-0.69
					S251.96,98.11,251.96,98.49L251.96,98.49z"/>
			</g>
			<g>
				<path class="st3" d="M246.37,114.91c0.01,0.47-0.37,0.85-0.84,0.85c-0.47,0-0.85-0.38-0.86-0.84c0-0.47,0.37-0.84,0.84-0.85
					C245.98,114.06,246.37,114.44,246.37,114.91L246.37,114.91z"/>
			</g>
			<g>
				<path class="st3" d="M231.3,127.39c0,0.38-0.3,0.69-0.68,0.69s-0.68-0.31-0.68-0.68c0-0.38,0.3-0.68,0.68-0.69
					C230.99,126.71,231.3,127.02,231.3,127.39L231.3,127.39z"/>
			</g>
			<g>
				<path class="st3" d="M201.89,130.51c0.01,0.36-0.28,0.65-0.64,0.65c-0.36,0-0.65-0.29-0.65-0.65c-0.01-0.35,0.28-0.65,0.64-0.65
					C201.6,129.87,201.89,130.16,201.89,130.51L201.89,130.51z"/>
			</g>
		</g>
	</g>
</g>
</svg>
