<?xml version="1.0" encoding="utf-8"?>
<!-- Generator: Adobe Illustrator 25.4.0, SVG Export Plug-In . SVG Version: 6.00 Build 0)  -->
<svg version="1.1" id="Capa_1" xmlns="http://www.w3.org/2000/svg" xmlns:xlink="http://www.w3.org/1999/xlink" x="0px" y="0px"
	 viewBox="0 0 659.97 441.86" style="enable-background:new 0 0 659.97 441.86;" xml:space="preserve">
<style type="text/css">
	.st1{fill:url(#);}
	.st2{fill:#050504;}
	.st3{fill:#FFFFFF;}
	.st4{fill:none;stroke:#FFFFFF;stroke-width:22.4065;}
	.st5{fill:none;stroke:#FFFFFF;stroke-width:11.3663;}
	.st6{fill: transparent;stroke:#000000;stroke-width:5.1402;stroke-miterlimit:10;}
	.st7{fill:#030405;}
	.st9{stroke:#000000;stroke-width:5.1402;stroke-miterlimit:10;}
	.st10{stroke:#FFFFFF;stroke-width:4;stroke-linecap:round;stroke-linejoin:round;stroke-miterlimit:10;}
	.st11{fill:none;stroke:#FFFFFF;stroke-width:4;stroke-linejoin:round;stroke-miterlimit:10;}
	.st12{clip-path:url(#SVGID_00000131331428944304792070000007084818310725634491_);}
	.st13{stroke:#000000;stroke-width:5.6822;stroke-miterlimit:10;}
	.st14{stroke:#FFFFFF;stroke-width:2.9639;stroke-miterlimit:10;}
	.st15{fill:#00993D;}
	.st16{clip-path:url(#SVGID_00000119092602027737886840000002570424024584407681_);}
	.st17{stroke:#000000;stroke-width:5.5;stroke-miterlimit:10;}
	.st18{clip-path:url(#SVGID_00000083770013227178389000000012338768746083507597_);}
	.st19{stroke:#FFFFFF;stroke-width:4;stroke-miterlimit:10;}
	.st20{stroke:#000000;stroke-width:2.5698;stroke-miterlimit:10;}
	.st21{stroke:#000000;stroke-width:2.569;stroke-miterlimit:10;}
	.st22{stroke:#000000;stroke-width:2.569;stroke-miterlimit:10;}
	.st23{stroke:#FFFFFF;stroke-width:1.9992;stroke-linecap:round;stroke-linejoin:round;stroke-miterlimit:10;}
	.st24{clip-path:url(#SVGID_00000104667979861368279290000005247288775513252275_);}
	.st25{stroke:#000000;stroke-width:2.8287;stroke-miterlimit:10;}
	.st26{stroke:#FFFFFF;stroke-width:1.4755;stroke-miterlimit:10;}
	.st27{clip-path:url(#SVGID_00000151542478926596747560000007723797065415996075_);}
	.st28{clip-path:url(#SVGID_00000180345052952522260370000014906711609673060278_);}
	.st29{clip-path:url(#SVGID_00000002346087198072933280000017018520018460867513_);}
	.st30{clip-path:url(#SVGID_00000054961875810553897730000017833986113314587534_);}
	.st31{stroke:#000000;stroke-width:2.4552;stroke-miterlimit:10;}
	.st32{stroke:#FFFFFF;stroke-width:1.2719;stroke-miterlimit:10;}
	.st33{stroke:#000000;stroke-width:2.1112;stroke-miterlimit:10;}
	.st34{stroke:#000000;stroke-width:2.1112;stroke-miterlimit:10;}
	.st35{stroke:#FFFFFF;stroke-width:1.6429;stroke-linecap:round;stroke-linejoin:round;stroke-miterlimit:10;}
	.st36{clip-path:url(#SVGID_00000160891339899732050810000014406725155050192319_);}
	.st37{stroke:#000000;stroke-width:2.1118;stroke-miterlimit:10;}
	.st38{clip-path:url(#SVGID_00000043456673025452459870000013339441481479848364_);}
	.st39{clip-path:url(#SVGID_00000158014653543275743110000009629243397982907795_);}
	.st40{clip-path:url(#SVGID_00000105400329117368275750000011364953871612161425_);}
	.st41{opacity:0.9;fill:#00993D;}
	.st42{opacity:0.9;fill:#FFFFFF;}
</style>
<g>
	<path class="st6" d="M432.07,159.48h179.06c25.56,0,46.27,20.72,46.27,46.27v187.26c0,25.56-20.72,46.27-46.27,46.27H48.84
		c-25.56,0-46.27-20.72-46.27-46.27V205.75c0-25.56,20.72-46.27,46.27-46.27h177.21"/>
	<path d="M292.86,36.47c26.82,29.23-34.04,59.9-5.63,96.49C261.09,98.59,339.54,42.9,325.18,0c63.12,33.6,13.69,85.13,49.32,114.38
		c-15.04-12.18,1.51-52.65,25.34-61.88c-33.82,32.36,77.85,123.05-33.39,168.29c56.6-62.61-38.37-85.9-37.21-109.69
		c-2.05,23.6,39.41,71.33-0.39,115.68c-0.04-26.88-43.64-39.46-44.66-69.9c0.58,20.43-6.82,45.43,8.04,63.13
		c-40.92-20.29-61.82-56.94-41.53-107.27C260.8,87.67,300.96,61.77,292.86,36.47"/>
	<g>
		<path d="M183.4,249.12l5.6-0.04c6.8,0.23,10.93,0.46,12.41,0.72c1.87,0.39,3.21,1.31,4.02,2.77c0.67,1.33,1.11,7.13,1.31,17.39
			c0.18,7.2,0.41,11.73,0.69,13.6c0.14,1.6,0.62,2.66,1.42,3.19c0.93,0.53,5.74,0.76,14.41,0.71c5.73-0.04,9.26-0.19,10.6-0.47
			l2.8-0.62l-0.09-14.4c-0.05-7.73,0.05-12.97,0.3-15.7c0.25-2.73,0.9-4.57,1.97-5.51c1.06-0.94,3.12-1.42,6.19-1.44l7.6,0.15
			c9.33-0.06,15.13,0.37,17.41,1.29c2.01,0.79,3.34,1.91,4.02,3.37c0.54,1.47,0.83,5.46,0.88,11.99c0.04,5.73-0.1,15.54-0.41,29.4
			c-0.57,36.8-1.44,56.14-2.63,58.02c-1.06,1.48-2.58,2.42-4.58,2.83c-2.13,0.41-6.53,0.64-13.2,0.68l-1,0.01
			c-5.47,0.03-9.3-0.14-11.5-0.53c-2.2-0.39-3.68-1.31-4.42-2.77c-0.74-1.46-1.12-3.99-1.15-7.59l0.33-11.4
			c0.12-2.13,0.16-5.8,0.13-11c-0.02-3.07-0.16-4.73-0.43-5c-0.54-0.53-5.94-0.76-16.2-0.7c-2.8,0.02-5.04-0.03-6.7-0.16
			c-1.67-0.12-2.97-0.18-3.9-0.18c-1.87,0.01-3,0.42-3.39,1.22c-0.4,0.8-0.65,2.94-0.76,6.4c0.02,2.93-0.03,5.47-0.15,7.6
			c-0.1,5.87-0.33,10.94-0.7,15.2c-0.39,2.4-1.04,3.94-1.97,4.61c-0.8,0.81-3.93,1.23-9.39,1.26l-7.4,0.05l-10.2,0.07
			c-3.47,0.02-5.67-0.4-6.61-1.26c-0.94-0.86-1.42-3.09-1.44-6.69l0.14-10c-0.08-12.4-0.07-21.27,0.03-26.6
			c0.17-35.47,0.98-54.67,2.43-57.62c0.13-0.4,0.43-0.77,0.89-1.11c0.46-0.33,0.96-0.57,1.5-0.71c-0.13,0,0.46-0.13,1.8-0.41
			c0.26-0.13,0.53-0.2,0.8-0.21c0.27,0,0.46-0.07,0.6-0.2C175.67,249.24,178.33,249.15,183.4,249.12z"/>
		<path d="M338.5,263.73c4.53-0.03,8.93,0.28,13.21,0.92c10.01,1.8,18.57,5.68,25.67,11.64c7.1,5.96,11.48,12.93,13.13,20.92
			c0.41,1.73,0.62,4,0.64,6.8c0.05,8.13-1.14,15.31-3.56,21.52c-2.43,6.22-6.42,12.08-11.99,17.58c-5.17,5.1-10.48,8.64-15.93,10.6
			c-5.46,1.97-11.12,2.97-16.98,3.01c-10.27,0.07-19.62-2.34-28.05-7.22c-8.43-4.88-15.04-10.97-19.82-18.27
			c-4.78-7.3-7.19-14.29-7.23-20.95c-0.01-2.13,0.3-5.33,0.94-9.61c4.26-21.49,16.45-33.51,36.57-36.03
			C329.9,264.05,334.36,263.76,338.5,263.73z M340.3,295.52c-1.87,0.01-3.47,0.49-4.79,1.43c-4.78,2.96-7.16,7.18-7.12,12.65
			c0.01,2,0.56,4.27,1.64,6.79c2.43,4.92,6.25,7.36,11.45,7.33c2.8-0.02,5.19-0.93,7.18-2.75s3.17-4.12,3.56-6.92
			c0.13-0.4,0.19-1.2,0.18-2.4c-0.02-3.2-0.77-6.26-2.26-9.19c-1.49-2.92-3.3-4.91-5.44-5.97
			C343.1,295.84,341.63,295.51,340.3,295.52z"/>
		<path d="M440.95,239.48c7.46-0.05,12.13,0.06,14,0.31c2.27,0.52,3.64,1.01,4.11,1.47c0.47,0.47,0.71,1.5,0.72,3.1l-0.33,10.6
			l-0.36,6.4l-0.18,2.4l9.6,0.14c1.87-0.01,3.2,0.05,4,0.17c3.33-0.02,5.53,0.23,6.61,0.76c1.07,0.53,1.74,1.92,2.03,4.19
			c0.28,2.27,0.44,6.93,0.49,14l0.02,3.4c0.02,3.73-0.13,6.27-0.45,7.6c-0.33,1.34-1.05,2.21-2.18,2.61
			c-1.13,0.41-3.3,0.62-6.5,0.64l-12.8,0.08l-0.57,4.2c-0.25,3.2-0.37,5.2-0.36,6c0.09,13.87,3.66,20.78,10.73,20.73
			c1.47-0.01,3.4-0.72,5.79-2.14c2.39-1.42,3.85-2.46,4.38-3.13c0.4-0.53,0.86-0.81,1.39-0.81c1.2-0.01,2.74,0.92,4.62,2.77
			c2.14,2.12,4.2,4.67,6.15,7.66c1.95,2.99,2.93,5.02,2.94,6.08c0.01,1.6-1.81,3.88-5.46,6.83c-3.65,2.96-7.93,5.59-12.85,7.88
			c-6.38,2.98-13.31,4.48-20.77,4.53c-4.67,0.03-8.71-0.74-12.12-2.32c-3.41-1.58-7.06-4.35-10.95-8.33
			c-4.56-4.5-7.86-9.35-9.89-14.54s-3.08-13.05-3.15-23.58l-0.03-4.6l-0.02-2.8c-0.14-0.4-0.21-1.06-0.21-2
			c0-0.67-0.14-1.13-0.41-1.4l-0.81-0.79c-0.14-0.4-1.07-0.59-2.8-0.58l-2.4-0.18l-3.2,0.02c-2.8-0.25-4.6-0.44-5.4-0.57
			c-0.8-0.13-1.54-0.72-2.21-1.79c-0.54-0.93-0.82-2.66-0.83-5.19c-0.02-3.6,0.03-6.07,0.15-7.4c0.24-4,0.36-6.53,0.35-7.6
			c0.12-1.73,0.21-3.2,0.27-4.4c0.06-1.2,0.15-2,0.28-2.4l0.78-2.81l8.2-0.45c4-0.16,6.4-0.37,7.2-0.65
			c0.66-0.27,1.06-0.67,1.19-1.21c0.11-2.93,0.39-7,0.82-12.21c0.43-5.2,0.85-8.01,1.25-8.41c0.66-0.8,2.19-1.41,4.59-1.83
			C428.75,239.69,433.61,239.52,440.95,239.48z"/>
	</g>
</g>
</svg>
