<?xml version="1.0" encoding="utf-8"?>
<!-- Generator: Adobe Illustrator 25.4.0, SVG Export Plug-In . SVG Version: 6.00 Build 0)  -->
<svg version="1.1" id="Capa_1" xmlns="http://www.w3.org/2000/svg" xmlns:xlink="http://www.w3.org/1999/xlink" x="0px" y="0px"
	 viewBox="0 0 704 412" style="enable-background:new 0 0 704 412;" xml:space="preserve">
<style type="text/css">
	.st0{fill:none;stroke:#000000;stroke-width:5.1402;stroke-miterlimit:10;}
	.st1{fill:#030405;}
	.st2{fill:#C8D12A;}
	.st3{fill:#F34459;}
	.st4{fill:#C4224F;}
</style>
<g>
	<path class="st0" d="M183.7,110.8H52c-27.3,0-49.4,22.1-49.4,49.4V360c0,27.3,22.1,49.4,49.4,49.4H652c27.3,0,49.4-22.1,49.4-49.4
		V160.1c0-27.3-22.1-49.4-49.4-49.4H516.9"/>
	<g>
		<path d="M83.9,215.9c20.4-0.1,40.7,0.1,61,0.8c8.4,0.1,13.3,0.8,14.8,2.1c1.3,0.9,2,2.7,2,5.2l0,4.2c-0.2,10.1-1.2,16.1-2.9,17.8
			l-2,2l-13.4-0.5l-13.6-0.3l0.4,29.4l0.1,14.2c0.1,10.4-0.3,16.9-1.1,19.6c-0.8,2.4-2,4.7-3.8,6.8l-2.2,2.2l-10.4-0.5
			c-10.1-0.6-15.8-1.4-17-2.5c-0.4-0.5-0.8-11.9-1.2-34c-0.3-22-0.6-33.2-1-33.6c-0.3-0.4-4.1-0.8-11.6-1.3
			c-8.3-0.5-13.7-1.3-16.2-2.5c-2.3-1.1-3.4-3.6-3.5-7.8l0.2-2l0-2c0.2-5.7,0.8-9.7,1.6-11.9c0.8-2.2,2.5-3.9,5.1-4.9
			C70.3,216.1,75.2,215.9,83.9,215.9z"/>
		<path d="M180.9,226.4c1.2-0.8,4.1-1.2,8.6-1.2c4.7,0,9.1,0.3,13.3,0.9c4.2,0.6,6.7,1.5,7.5,2.6c0.9,1.1,1.4,2,1.4,2.8
			c0,0.1,0.1,0.2,0.4,0.2c0.8,0,2.7-0.8,5.6-2.2c5.6-2.8,10.6-4.3,15.2-4.3c4.7,0,9.5,1.3,14.4,3.9c4.9,2.6,7.4,5.4,7.4,8.4
			c0,1.6-1.1,4.8-3.3,9.7c-2.2,4.9-4.2,8.6-5.9,11.1c-1.3,2-2.7,3-4.2,3c-0.5,0-2-0.3-4.4-1c-2.4-0.8-4.7-1.2-6.8-1.2
			c-4.5,0-8.2,1.9-11,5.5c-4.8,6.2-7.1,19.5-6.9,40l0,2.8c0,2.9-0.1,5-0.5,6.2c-0.3,1.2-1.1,2-2.4,2.4c-1.3,0.4-3.4,0.6-6.3,0.6
			l-3.4-0.2l-4.4,0c-9.3-0.2-14.7-0.8-16-1.7c-1.6-1.1-2.5-2.2-2.6-3.4c-0.4-1.5-0.6-6.5-0.7-15c-0.1-12.9,0.1-26.9,0.6-42
			c0.5-15.1,1.1-23.4,1.7-25C179,228.1,179.9,227.1,180.9,226.4z"/>
		<path d="M337.1,226.8c7.5-0.1,13.3,0.4,17.4,1.3c2.9,0.6,5.1,1.7,6.5,3.2s2.5,3.7,3.1,6.8c0.4,1.7,0.6,7.7,0.7,17.8
			c0.1,22.8-0.2,38.3-1.1,46.6c-0.4,4.4-1,7.4-1.7,9c-0.8,1.6-2.4,2.7-4.7,3.2c-2.3,0.5-6.8,1-13.3,1.3c-1.7,0.1-4.6,0.2-8.6,0.2
			c-2.9,0-4.9-0.3-5.8-0.9s-1.9-2-2.8-4.1c-1-2.1-1.7-3.2-2.2-3.2s-2.6,0.9-6.2,2.6c-5.6,2.7-10.9,4.1-16,4.1
			c-5.3,0-11-1.9-16.8-5.9c-5.9-4-10.8-9.1-14.8-15.5c-4-6.4-6-12.9-6-19.6c0-2.9,0.2-5.3,0.8-7l0.6-3l0.4-2.2
			c0.4-3.1,2.7-7.9,6.9-14.4c6.5-10.2,14.8-16.5,24.9-19c2-0.4,4.1-0.6,6.2-0.6c7.5-0.1,13.7,1.8,18.6,5.5c1.3,0.9,2.3,1.4,3,1.4
			c0.7,0,1-0.5,1-1.4c0-0.7,0.5-1.7,1.7-3.1c1.1-1.4,2.1-2.3,3.1-2.7C332.5,227,334.2,226.9,337.1,226.8z M316.1,257
			c-3.2,0-6.1,1-8.6,2.9c-2.5,1.9-4.2,4.4-5.1,7.6c-0.4,1.2-0.6,2.5-0.6,3.8c0,3.5,1.4,6.2,4.2,8.3c2.8,2,6.6,3.1,11.4,3
			c2.5,0,4.2-0.2,5.1-0.4c0.9-0.3,1.4-0.9,1.7-1.8s0.6-2.9,1-6c0.5-3.6,0.8-7.1,0.7-10.6c0-2-0.1-3.2-0.4-3.7
			c-0.3-0.5-1.2-1-2.8-1.7C320.9,257.4,318.7,257,316.1,257z"/>
		<path d="M440.7,222.6c9.2-0.1,16.4,2.4,21.6,7.5c5.2,5,9,11.4,11.3,19.1c1.1,3.6,1.8,14.3,2,32l0.1,12.6c0.1,9.2-0.3,14.2-1.1,15
			c-0.5,0.8-1.6,1.3-3.2,1.4c-1.6,0.3-6.4,0.5-14.4,0.7l-16.4,0.5l-0.8-1.8c-0.1-0.5-0.6-7-1.3-19.4c-0.2-10-0.7-17.7-1.5-23
			c-0.8-3.9-2.4-7-4.7-9.6c-1.2-1.2-2.8-1.8-4.8-1.8c-9.7,0.1-14.5,9.2-14.4,27.5c0,5.2,0.1,8.7,0.3,10.6c0.1,2.5,0.2,6.6,0.3,12.2
			c0,3.5-0.2,5.4-0.6,5.8s-4.2,0.8-11.3,1.1s-13.4,0.5-18.7,0.5c-2.1,0-3.6-0.1-4.3-0.4c-0.7-0.3-1.2-0.9-1.5-1.8
			c-0.3-0.9-0.5-2.6-0.6-5c-0.1-1.6-0.2-7.7-0.3-18.2l-0.3-18l-0.1-19.8l-0.3-14.4c0-3.7,0.2-6.4,0.6-7.9s1.4-2.5,2.9-3
			c1.5-0.5,3.9-0.7,7.4-0.8l10-0.1c7.3-0.1,11.8,0.3,13.4,0.9c1.3,0.5,2,2.7,2,6.4c0,3.2,0.2,4.8,0.6,4.8s1.9-1.3,4.6-3.8
			c4.6-4.3,9.5-7.2,14.5-8.7C434.6,223,437.6,222.6,440.7,222.6z"/>
		<path d="M509.6,209.3c4.7,0,8.1,0.2,10.4,0.7c2.3,0.5,3.8,1.6,4.6,3.2c0.7,1.5,1.2,5.5,1.6,12.2c0.4,6.7,0.6,13,0.6,19
			c0,5.9,0.1,8.8,0.3,8.8c0.4,0,3.2-3.5,8.3-10.4c3.8-5.2,8.8-11.3,14.8-18.3c6-7,9.7-10.8,11-11.5c0.9-0.5,1.8-0.8,2.6-0.8
			c1.6,0,4.6,1.4,9,4.2c4.4,2.8,8,5.8,10.9,8.8c2.8,3.2,4.2,5.7,4.2,7.6c0,0.9-0.6,2.3-1.8,4.2c-1.7,2.4-5.5,7.2-11.5,14.4
			s-10.6,12.5-13.9,16l-6.4,7l6,6.8c3.8,4.1,8.2,9.2,13.3,15.3c5.1,6.1,7.9,9.6,8.5,10.5l0.4,1.4c0,1.7-4.1,3.2-12.4,4.5
			c-7.3,1.1-11.5,1.9-12.6,2.3c-2.1,0.5-3.9,0.8-5.2,0.8c-2,0-3.7-0.5-5.2-1.6c-1.1-0.8-4.2-4.6-9.3-11.3c-4.8-6.4-7.5-9.5-8.1-9.5
			c-0.5,0-1.3,0.7-2.2,2c-1.2,1.6-1.8,5.2-1.9,10.8c-0.1,5.9-0.7,9.3-1.7,10.4c-0.9,0.9-2.9,1.4-5.8,1.4c-3.7,0-6.3,0-7.8-0.1
			c-6.7-0.1-11.7-0.5-15.2-1.3c-2.7-0.5-4.4-1.3-5.2-2.5s-1.4-3.3-1.6-6.5c-0.1-3.1-0.4-11.7-0.8-25.8l0-8.2
			c-0.2-26.7,0.3-45.7,1.4-57c0.2-2.5,0.8-4.2,1.8-5.1s2.9-1.4,6-1.7C500.7,209.6,505,209.4,509.6,209.3z"/>
		<path d="M623.2,235.6l5.4,0l2.2,0c1.9,0,3.4,0.2,4.6,0.6c1.1,0.4,1.8,0.9,2.1,1.4c0.3,0.5,0.6,1.6,0.7,3.2
			c0.3,3.5,0.5,15.8,0.6,37c0.1,22.3,0,33.7-0.6,34.2c-1.1,1.1-5.3,1.6-12.6,1.7l-7.2,0l-5.4-0.2c-3.2,0-5.1,0-5.6-0.2
			c-1.3-0.1-2.4-0.6-3.2-1.4l-1.6-1.6l-0.4-27l0-8.4c-0.2-23.3,0.6-35.9,2.2-37.6c0.7-0.8,4.9-1.3,12.8-1.5
			C619.7,235.8,621.7,235.8,623.2,235.6z M620.2,198.6c4.4,0,8.2,1.5,11.4,4.5s4.8,6.4,4.9,10.2l0,2.6c-0.2,3.9-1.8,6.9-4.5,9.1
			c-2.8,2.2-6.5,3.3-11.2,3.4l-1.2,0c-4.7-0.2-8.5-1.6-11.3-4s-4.3-5.6-4.4-9.5c0-2,0.3-3.8,1-5.5c0.7-1.7,1.9-3.5,3.8-5.5
			C611.9,200.4,615.8,198.6,620.2,198.6z"/>
	</g>
	<g>
		<path class="st1" d="M444.7,107.4c0-0.2,0-0.4,0-0.6c0-0.2,0-0.4,0-0.6c-0.9-27.1-13.8-51.1-33.5-66.8h0c-0.1,0.1-0.2,0.3-0.3,0.4
			c-0.2,0.3-0.4,0.5-0.6,0.8c-0.3,0.4-0.7,0.8-1.1,1.2c-0.1,0.1-0.3,0.3-0.4,0.4c-0.3,0.3-0.6,0.5-0.9,0.8c-0.4,0.3-0.8,0.6-1.2,1
			c-0.1,0.1-0.2,0.2-0.3,0.3c8.2,6.4,15.1,14.3,20.4,23.4c-6.6-8.4-14.8-15.6-24.1-20.9c-0.6,0.3-1.2,0.7-1.8,1
			c-4.2,2.2-9,3.9-15.2,5.5c-1,0.2-1.9,0.5-2.9,0.7c-0.9,0.2-1.7,0.4-2.6,0.5c-0.5,0.1-0.9,0.2-1.4,0.3c-0.3,0.1-0.7,0.1-1,0.2
			c-0.8,0.1-1.6,0.3-2.5,0.4c-0.4,0.1-0.7,0.1-1.1,0.2c-0.4,0.1-0.8,0.1-1.2,0.2c-1,0.1-1.9,0.3-2.9,0.4c-1,0.1-1.9,0.2-2.9,0.3
			c-0.8,0.1-1.7,0.2-2.5,0.2c-0.1,0-0.1,0-0.2,0c-0.4,0-0.8,0.1-1.2,0.1c-0.9,0.1-1.8,0.1-2.7,0.2c-0.7,0-1.4,0.1-2.1,0.1
			c-0.7,0-1.4,0-2.1,0.1c-0.7,0-1.4,0-2.1,0h-1.2c-0.4,0-0.8,0-1.2,0c-0.5,0-1,0-1.5,0c-0.5,0-0.9,0-1.4,0c-0.7,0-1.4,0-2.1-0.1
			c-8.7-0.3-16.6-1.4-24.1-3.2c-3.3-0.8-6.2-1.7-8.9-2.6c-21.4,15.1-35.2,40-35,68.2c0.1,15,4.2,29.1,11.2,41.2
			c-10.8-13.9-17.4-31.4-17.5-50.3c-0.2-25.9,11.6-49.2,30.2-64.4c-0.8-0.6-1.6-1.2-2.4-1.8c-0.9-0.8-1.7-1.6-2.4-2.4
			c-18.3,15.6-30.2,38.5-31.3,64.1c0,0.2,0,0.4,0,0.7v0c0,0.2,0,0.5,0,0.7c0,1,0,2,0,3c0,1.8,0.1,3.7,0.2,5.5c0,0.2,0,0.5,0.1,0.7
			c0,0.2,0,0.5,0,0.7c3.8,46,42.5,82,89.4,81.7c46.6-0.3,84.6-36.3,88.3-81.9c0-0.2,0-0.4,0-0.6c0-0.2,0-0.4,0-0.6
			c0.2-2.2,0.2-4.4,0.2-6.6C444.7,108.1,444.7,107.8,444.7,107.4z M302.9,99.5c-1.1-0.7-1.5-2-1-3.2c2.5-6.1,8.5-10.1,15.1-10.2
			c6.8,0,12.8,4,15.4,10.3c0.5,1.2,0.1,2.5-1,3.2c-0.5,0.3-1,0.5-1.5,0.5c-0.7,0-1.3-0.2-1.9-0.8c-9.2-8.8-17-4.9-21.9-0.1
			C305.3,100.1,303.9,100.2,302.9,99.5z M397,126.3c-6.7,16.1-22.5,27.4-41,27.5c-18.8,0.1-35-11.4-41.7-27.8
			c-1.2-3,2.5-5.5,4.8-3.2c32.6,31.2,60.1,13.1,73.1,0.3C394.5,120.9,398.2,123.4,397,126.3z M408.1,99.1c-0.5,0.3-1,0.5-1.5,0.5
			c-0.7,0-1.3-0.2-1.9-0.8c-9.2-8.8-17-4.9-21.9-0.1c-0.9,0.9-2.3,1-3.4,0.3c-1.1-0.7-1.5-2.1-1-3.2c2.5-6.1,8.5-10.1,15.1-10.2
			c6.8,0,12.8,4,15.4,10.3C409.5,97.1,409.1,98.4,408.1,99.1z"/>
		<path class="st2" d="M411.1,39.3c-0.1,0.1-0.2,0.3-0.3,0.4c-0.2,0.3-0.4,0.5-0.6,0.8c0.2-0.3,0.4-0.5,0.6-0.8
			C410.9,39.6,411,39.5,411.1,39.3L411.1,39.3z"/>
		<path class="st1" d="M413.4,19.1c-0.1-0.4-0.1-0.8-0.3-1.2c-0.1-0.2-0.1-0.4-0.2-0.7c-0.3-0.8-0.6-1.6-1.1-2.4
			c-1.4-2.3-3.5-4.4-6.3-6.2c-4-2.5-8.6-4.3-15-5.9c-9.7-2.3-20.1-3.1-30.9-2.6c-1,0.1-1.7,0.8-1.7,1.8c0,1,0.7,1.8,1.6,1.9
			c11.8,1.5,20.8,3.4,28.3,6.1c5,1.8,8.7,3.6,11.3,5.7c0.6,0.5,1.2,1.1,1.8,1.7c0,0,0,0.1,0.1,0.1c0.5,0.5,0.8,1,1,1.5
			c0.4,0.9,0.4,1.7,0.1,2.5c-0.5,1.3-2.2,2.8-4.6,4.2c-0.9,0.5-1.9,1-2.9,1.5c-0.7,0.3-1.3,0.6-2,0.9c-11.5-5.2-24.2-8.1-37.6-8
			c-13.8,0.1-26.9,3.3-38.5,9c-1.2-0.4-2.3-0.9-3.4-1.3c-1-0.4-2-0.9-2.8-1.4c-2.5-1.4-4.1-2.9-4.7-4.2c-0.3-0.8-0.3-1.5,0.1-2.4
			c0.2-0.5,0.6-1,1-1.5c0.5-0.6,1.2-1.2,2-1.9c2.6-2.1,6.3-4,11.3-5.8c7.6-2.8,16.5-4.8,28.2-6.4c0.9-0.1,1.6-1,1.6-1.9
			c0-0.9-0.8-1.7-1.8-1.8c-10.8-0.4-21.2,0.6-30.9,2.9c-6.1,1.6-10.9,3.5-14.9,6.1c-2.8,1.9-4.9,3.9-6.3,6.2c-0.9,1.5-1.4,3-1.6,4.5
			c-0.2,1.6-0.1,3.2,0.4,5c0.2,0.8,0.5,1.5,1,2.2c1,1.8,2.4,3.5,4.4,5.2c1.4,1.2,2.9,2.3,4.8,3.3c0.7,0.4,1.5,0.8,2.3,1.2
			c1.4,0.7,2.8,1.3,4.3,1.9c3.2,1.3,6.7,2.4,10.9,3.4c1.4,0.3,2.9,0.7,4.3,0.9c6.2,1.2,12.8,2,19.8,2.3c2.4,0.1,4.9,0.2,7.4,0.2
			c11.6-0.1,21.9-1.3,31.5-3.7c0.9-0.2,1.8-0.5,2.6-0.7c0.6-0.2,1.2-0.3,1.7-0.5c0,0,0,0,0,0c2.8-0.8,5.2-1.7,7.5-2.7
			c0.6-0.3,1.2-0.5,1.8-0.8c0.5-0.2,1.1-0.5,1.6-0.8c0.4-0.2,0.7-0.4,1-0.5c0.7-0.4,1.3-0.7,1.9-1.1c0.2-0.1,0.4-0.3,0.6-0.4
			c0.7-0.4,1.3-0.9,1.9-1.3c0.5-0.4,1-0.8,1.5-1.2c0.2-0.2,0.5-0.4,0.6-0.6c0.2-0.2,0.4-0.4,0.6-0.6c0.6-0.6,1.1-1.1,1.5-1.7
			c0.1-0.1,0.2-0.3,0.3-0.4c0.1-0.2,0.2-0.3,0.4-0.5c0.2-0.3,0.5-0.7,0.7-1c0.1-0.1,0.1-0.2,0.2-0.4c0-0.1,0.1-0.2,0.1-0.3
			c0.1-0.1,0.1-0.3,0.2-0.4c0.1-0.3,0.3-0.6,0.4-0.9c0.1-0.2,0.2-0.5,0.2-0.7c0.1-0.2,0.2-0.5,0.2-0.8c0-0.2,0.1-0.5,0.1-0.7
			c0-0.1,0-0.2,0.1-0.4c0-0.2,0.1-0.5,0.1-0.8C413.6,20.9,413.6,20,413.4,19.1z M354.6,26.5c9.7-0.1,19,1.5,27.6,4.5
			c-0.1,0-0.1,0-0.2,0c-4.5,1-9.2,1.7-13.9,2.2c-4.5,0.5-9.1,0.7-14.2,0.8c-4.9,0-9.7-0.2-14.3-0.6c-4.3-0.4-8.8-1-13.1-1.9
			C335.3,28.3,344.7,26.5,354.6,26.5z"/>
		<path class="st1" d="M448.1,108.3c0,0,13-16.7,20.9-16.1c8,0.6,32.9,23.6,32.9,23.6s10.2,9.8,1.8,13.8c-8.4,4-17.9-5.3-17.9-5.3
			s-1,10.5-13.8-0.2c0,0-5.3,8.8-12.5-1.4s-10.5-9.8-11.4-9.3c-0.9,0.5-4.1,4.6-5.7,0.3C440.9,109.5,442.4,104.1,448.1,108.3
			L448.1,108.3z"/>
		<path class="st1" d="M499.2,131.3c-5.7,0-11-4-13-5.7c-0.3,1.2-1.1,2.9-3,3.7c-2.6,1.1-6.4-0.3-11.1-4.2c-0.8,1.1-2.7,3.1-5.4,3.2
			c-2.6,0.1-5.2-1.7-7.6-5.2c-7.2-10.4-10.3-9.3-10.6-9.1c-0.1,0.1-0.4,0.3-0.6,0.5c-1,0.8-2.4,2.1-3.9,1.7c-0.9-0.2-1.5-1-2-2.3
			c-0.9-2.6-0.9-5.9,0.9-7.2c0.9-0.7,2.5-1.1,5.2,0.8c2.2-2.8,13.6-16.4,21.1-15.9c8.1,0.6,32.2,22.8,33.2,23.8
			c0.2,0.2,6,5.8,5.2,10.5c-0.3,1.8-1.5,3.3-3.6,4.3C502.4,131,500.8,131.3,499.2,131.3L499.2,131.3z M485.4,123l0.9,0.9
			c0.1,0.1,9.2,9,17.1,5.1c1.8-0.8,2.7-1.9,2.9-3.4c0.6-4.1-4.8-9.4-4.9-9.4c-0.2-0.2-24.8-22.9-32.5-23.4
			c-7.6-0.5-20.3,15.7-20.4,15.9l-0.4,0.5l-0.5-0.4c-1.9-1.4-3.4-1.8-4.2-1.1c-1.1,0.9-1.4,3.4-0.5,5.8c0.3,0.9,0.7,1.4,1.1,1.5
			c0.8,0.2,2-0.8,2.8-1.5c0.4-0.3,0.6-0.6,0.9-0.7c1.2-0.6,4.9-1,12.2,9.5c2.2,3.2,4.4,4.8,6.6,4.7c2.9-0.1,4.8-3.2,4.8-3.2l0.4-0.6
			l0.5,0.5c5.8,4.8,8.8,5,10.4,4.4c2.1-0.9,2.4-3.7,2.4-3.8L485.4,123z"/>
		<path class="st3" d="M490,126.9c0,0-4.4-3-11.4-14.2C478.6,112.8,485.6,127.6,490,126.9L490,126.9z"/>
		<path class="st3" d="M471.9,123.2c0,0-6-5.9-6.7-10.8c0,0,0.4,5.6,6.1,12.1L471.9,123.2z"/>
		<path class="st3" d="M459.5,99.2L459.5,99.2c-0.3-0.2-0.3-0.6,0-0.9c1.2-1.2,4.5-4.3,8.1-5c0.4-0.1,0.7,0.2,0.7,0.6
			c0,0.3-0.2,0.6-0.5,0.7c-3.3,0.6-6.4,3.5-7.5,4.7C460.1,99.4,459.8,99.4,459.5,99.2L459.5,99.2z"/>
		<path class="st3" d="M504.8,127.3L504.8,127.3c-0.3-0.1-0.5-0.4-0.4-0.7c1.3-6.1-6.7-11.2-8.8-12.5c-0.3-0.2-0.4-0.5-0.2-0.8l0,0
			c0.2-0.3,0.5-0.4,0.8-0.2c2.3,1.3,10.9,6.8,9.4,13.8C505.5,127.1,505.2,127.4,504.8,127.3L504.8,127.3z"/>
		<path class="st3" d="M481,127.9c-0.6,0-1.2-0.1-1.8-0.3c-0.3-0.1-0.5-0.5-0.4-0.8c0.1-0.3,0.5-0.5,0.8-0.4
			c1.1,0.3,2.1,0.3,2.8-0.1c0.9-0.5,1.4-1.6,1.5-2.2c0.1-0.3,0.4-0.5,0.7-0.4c0.4,0.1,0.6,0.4,0.5,0.8c-0.2,0.8-0.8,2.2-2.1,2.9
			C482.4,127.8,481.7,127.9,481,127.9L481,127.9z"/>
		<path class="st3" d="M469.1,124.5c-2.4-2.2-4.3-6.6-4.9-8.3c-0.1-0.3,0-0.7,0.4-0.8h0c0.3-0.1,0.7,0,0.8,0.4
			c0.6,1.5,2.4,5.8,4.6,7.8c0.2,0.2,0.3,0.6,0.1,0.8C469.8,124.7,469.4,124.8,469.1,124.5L469.1,124.5z"/>
		<path class="st3" d="M457.7,100c0,0.3,0.3,0.6,0.6,0.6c0.3,0,0.6-0.3,0.6-0.6c0-0.3-0.3-0.6-0.6-0.6
			C458,99.4,457.7,99.7,457.7,100L457.7,100z"/>
		<path class="st3" d="M462.9,114.6c0,0.4,0.3,0.8,0.8,0.8c0.4,0,0.8-0.3,0.8-0.8c0-0.4-0.3-0.8-0.8-0.7
			C463.2,113.8,462.9,114.2,462.9,114.6L462.9,114.6z"/>
		<path class="st3" d="M477.1,125.9c0,0.3,0.3,0.6,0.6,0.6c0.3,0,0.6-0.3,0.6-0.6c0-0.3-0.3-0.6-0.6-0.6S477.1,125.6,477.1,125.9
			L477.1,125.9z"/>
		<path class="st3" d="M502.7,128c0,0.3,0.3,0.6,0.6,0.6c0.3,0,0.6-0.3,0.6-0.6c0-0.3-0.3-0.6-0.6-0.6
			C503,127.4,502.7,127.7,502.7,128L502.7,128z"/>
		<path class="st1" d="M262.8,107.7c0,0-14.8-18.5-23.7-17.8c-8.9,0.7-36.5,26.9-36.5,26.9s-11.3,11.1-1.8,15.5
			c9.5,4.4,19.9-6.2,19.9-6.2s1.3,11.7,15.5-0.4c0,0,6.1,9.8,13.9-1.8c7.8-11.6,11.6-11.1,12.7-10.6c1,0.5,4.7,5.1,6.4,0.3
			C270.9,108.8,269.2,102.8,262.8,107.7L262.8,107.7z"/>
		<path class="st1" d="M205.9,134.1c-1.8,0-3.6-0.3-5.4-1.2c-2.4-1.1-3.8-2.7-4.1-4.8c-0.9-5.3,5.4-11.6,5.7-11.9
			c1.1-1.1,27.9-26.4,36.9-27.1c8.4-0.7,21.4,14.4,23.9,17.5c3-2.1,4.8-1.7,5.8-0.9c2.1,1.5,2.1,5.2,1.1,8.1
			c-0.5,1.4-1.2,2.3-2.2,2.6c-1.6,0.4-3.3-1-4.4-1.9c-0.3-0.2-0.6-0.5-0.7-0.6c-0.4-0.2-3.8-1.4-11.8,10.3c-2.7,4-5.6,6-8.5,6
			c-3.1-0.1-5.2-2.4-6.1-3.5c-5.3,4.4-9.4,6-12.4,4.8c-2.1-0.8-3-2.8-3.4-4.1C218.2,129.5,212.3,134.1,205.9,134.1L205.9,134.1z
			 M239.7,90.6c-0.1,0-0.3,0-0.5,0c-8.6,0.7-35.8,26.5-36.1,26.7c-0.1,0.1-6.1,6.1-5.3,10.6c0.3,1.6,1.4,2.8,3.3,3.7
			c8.9,4.2,19.1-5.9,19.1-6l1-1l0.2,1.4c0,0,0.4,3.3,2.8,4.2c1.8,0.7,5.2,0.4,11.6-5.1l0.6-0.5l0.4,0.7c0,0,2.2,3.5,5.4,3.5h0.1
			c2.4,0,4.8-1.8,7.2-5.4c8-11.8,12.1-11.5,13.5-10.8c0.3,0.1,0.6,0.4,1,0.8c0.8,0.7,2.2,1.9,3.1,1.6c0.5-0.1,0.9-0.7,1.3-1.7
			c1-2.7,0.7-5.6-0.6-6.5c-1-0.7-2.7-0.2-4.7,1.3l-0.5,0.4l-0.4-0.5C262.2,107.9,248.2,90.6,239.7,90.6L239.7,90.6z"/>
		<path class="st3" d="M216.1,129.1c0,0,4.9-3.4,12.6-16C228.7,113.1,221.1,129.9,216.1,129.1L216.1,129.1z"/>
		<path class="st3" d="M236.4,124.7c0,0,6.6-6.7,7.4-12.2c0,0-0.4,6.2-6.7,13.7L236.4,124.7z"/>
		<path class="st3" d="M249.9,97.6L249.9,97.6c0.3-0.3,0.3-0.7,0-1c-1.3-1.3-5.1-4.8-9.2-5.5c-0.4-0.1-0.8,0.2-0.8,0.6
			c0,0.4,0.2,0.7,0.6,0.7c3.7,0.6,7.2,3.9,8.4,5.1C249.2,97.9,249.6,97.9,249.9,97.6L249.9,97.6z"/>
		<path class="st3" d="M199.6,129.7L199.6,129.7c0.4-0.1,0.5-0.5,0.5-0.8c-1.5-6.9,7.3-12.7,9.7-14.2c0.3-0.2,0.4-0.6,0.2-0.9l0,0
			c-0.2-0.3-0.6-0.5-0.9-0.3c-2.6,1.6-12.1,7.8-10.3,15.6C198.8,129.6,199.2,129.8,199.6,129.7L199.6,129.7z"/>
		<path class="st3" d="M226.8,129.8c0.6,0,1.3-0.1,2-0.4c0.4-0.1,0.6-0.5,0.4-0.9c-0.1-0.3-0.5-0.5-0.9-0.4
			c-1.2,0.4-2.3,0.4-3.1-0.1c-1-0.6-1.5-1.7-1.7-2.4c-0.1-0.3-0.4-0.5-0.8-0.5c-0.4,0.1-0.7,0.5-0.6,0.9c0.3,0.9,0.9,2.4,2.4,3.2
			C225.2,129.6,226,129.8,226.8,129.8L226.8,129.8z"/>
		<path class="st3" d="M239.5,126.1c2.6-2.5,4.7-7.5,5.4-9.3c0.1-0.4-0.1-0.8-0.4-0.9c-0.4-0.1-0.7,0.1-0.9,0.4
			c-0.6,1.7-2.6,6.5-5.1,8.8c-0.3,0.2-0.3,0.7-0.1,0.9C238.7,126.4,239.2,126.4,239.5,126.1L239.5,126.1z"/>
		<path class="st3" d="M252,98.5c0,0.4-0.3,0.7-0.7,0.7c-0.4,0-0.7-0.3-0.7-0.7s0.3-0.7,0.7-0.7S252,98.1,252,98.5L252,98.5z"/>
		<path class="st4" d="M246.4,114.9c0,0.5-0.4,0.8-0.8,0.8s-0.9-0.4-0.9-0.8c0-0.5,0.4-0.8,0.8-0.8
			C246,114.1,246.4,114.4,246.4,114.9L246.4,114.9z"/>
		<path class="st3" d="M231.3,127.4c0,0.4-0.3,0.7-0.7,0.7s-0.7-0.3-0.7-0.7c0-0.4,0.3-0.7,0.7-0.7C231,126.7,231.3,127,231.3,127.4
			L231.3,127.4z"/>
		<path class="st3" d="M201.9,130.5c0,0.4-0.3,0.6-0.6,0.6s-0.6-0.3-0.6-0.6c0-0.4,0.3-0.6,0.6-0.6
			C201.6,129.9,201.9,130.2,201.9,130.5L201.9,130.5z"/>
	</g>
</g>
</svg>
