<?xml version="1.0" encoding="utf-8"?>
<!-- Generator: Adobe Illustrator 25.4.0, SVG Export Plug-In . SVG Version: 6.00 Build 0)  -->
<svg version="1.1" id="Capa_1" xmlns="http://www.w3.org/2000/svg" xmlns:xlink="http://www.w3.org/1999/xlink" x="0px" y="0px"
	 viewBox="0 0 255.06 369.67" style="enable-background:new 0 0 255.06 369.67;" xml:space="preserve">
<style type="text/css">
	.st0{fill:#C8D12A;}
	.st1{fill:url(#);}
	.st2{fill:#050504;}
	.st3{fill:#FFFFFF;}
	.st4{fill:none;stroke:#FFFFFF;stroke-width:22.4065;}
	.st5{fill:none;stroke:#FFFFFF;stroke-width:11.3663;}
	.st6{fill:#C9D22A;}
	.st7{fill:#C8D12A;stroke:#000000;stroke-width:5.1402;stroke-miterlimit:10;}
	.st8{fill:#C4224F;stroke:#000000;stroke-width:5.1402;stroke-miterlimit:10;}
	.st9{fill:#030405;}
	.st10{fill:#C6CF31;}
	.st11{fill:#C4224F;}
	.st12{stroke:#000000;stroke-width:5.1402;stroke-miterlimit:10;}
	.st13{stroke:#FFFFFF;stroke-width:4;stroke-linecap:round;stroke-linejoin:round;stroke-miterlimit:10;}
	.st14{fill:none;stroke:#FFFFFF;stroke-width:4;stroke-linejoin:round;stroke-miterlimit:10;}
	.st15{fill:#C4224F;stroke:#000000;stroke-width:5.5;stroke-miterlimit:10;}
	.st16{stroke:#FFFFFF;stroke-width:2.9639;stroke-miterlimit:10;}
	.st17{clip-path:url(#SVGID_00000047058260155711171080000002718515824872774044_);}
	.st18{fill:#C8D12A;stroke:#000000;stroke-width:5.6822;stroke-miterlimit:10;}
	.st19{fill:#00993D;}
	.st20{clip-path:url(#SVGID_00000109011600475951547010000016541525983071906447_);}
	.st21{stroke:#FFFFFF;stroke-width:4;stroke-miterlimit:10;}
	.st22{stroke:#000000;stroke-width:2.5698;stroke-miterlimit:10;}
	.st23{fill:#C8D12A;stroke:#000000;stroke-width:2.569;stroke-miterlimit:10;}
	.st24{stroke:#000000;stroke-width:2.569;stroke-miterlimit:10;}
	.st25{stroke:#FFFFFF;stroke-width:1.9992;stroke-linecap:round;stroke-linejoin:round;stroke-miterlimit:10;}
	.st26{clip-path:url(#SVGID_00000109026728976977765170000009054851394634931852_);}
	.st27{fill:#C8D12A;stroke:#000000;stroke-width:2.8287;stroke-miterlimit:10;}
	.st28{stroke:#FFFFFF;stroke-width:1.4755;stroke-miterlimit:10;}
	.st29{clip-path:url(#SVGID_00000088104410470973438430000002041868264790884272_);}
	.st30{clip-path:url(#SVGID_00000013897939391648824430000011372227443022301578_);}
	.st31{clip-path:url(#SVGID_00000038377450331740978400000007562166499935742654_);}
	.st32{clip-path:url(#SVGID_00000120557140405220295910000003886775649061843080_);}
	.st33{fill:#C8D12A;stroke:#000000;stroke-width:2.4552;stroke-miterlimit:10;}
	.st34{stroke:#FFFFFF;stroke-width:1.2719;stroke-miterlimit:10;}
	.st35{fill:#C8D12A;stroke:#000000;stroke-width:2.1112;stroke-miterlimit:10;}
	.st36{stroke:#000000;stroke-width:2.1112;stroke-miterlimit:10;}
	.st37{stroke:#FFFFFF;stroke-width:1.6429;stroke-linecap:round;stroke-linejoin:round;stroke-miterlimit:10;}
	.st38{clip-path:url(#SVGID_00000025438365240057219540000015599921688976073896_);}
	.st39{stroke:#000000;stroke-width:2.1118;stroke-miterlimit:10;}
	.st40{clip-path:url(#SVGID_00000112590402048891112230000007300621406542566325_);}
	.st41{clip-path:url(#SVGID_00000047056419530363258600000004220086658739895451_);}
	.st42{clip-path:url(#SVGID_00000088124969001663926970000011101429439249964944_);}
	.st43{stroke:#FFFFFF;stroke-width:2.0202;stroke-miterlimit:10;}
	.st44{opacity:0.9;fill:#00993D;}
	.st45{opacity:0.9;}
	.st46{opacity:0.9;fill:#FFFFFF;}
	.st47{clip-path:url(#SVGID_00000078737277297517119810000004823699480628390549_);}
	.st48{opacity:0.16;}
	.st49{fill:none;}
	.st50{fill:#222221;}
	.st51{fill:#FFFFFF;stroke:#FFFFFF;stroke-width:8.5919;stroke-linejoin:round;stroke-miterlimit:10;}
	.st52{stroke:#000000;stroke-width:8.5919;stroke-linejoin:round;stroke-miterlimit:10;}
	.st53{fill:#FFFFFF;stroke:#FFFFFF;stroke-width:8.5634;stroke-linejoin:round;stroke-miterlimit:10;}
	.st54{stroke:#000000;stroke-width:8.5634;stroke-linejoin:round;stroke-miterlimit:10;}
	.st55{fill:#FFFFFF;stroke:#FFFFFF;stroke-width:8.5806;stroke-linejoin:round;stroke-miterlimit:10;}
	.st56{stroke:#000000;stroke-width:8.5806;stroke-linejoin:round;stroke-miterlimit:10;}
	.st57{fill:#FFFFFF;stroke:#FFFFFF;stroke-width:7.4042;stroke-linejoin:round;stroke-miterlimit:10;}
	.st58{stroke:#000000;stroke-width:7.4042;stroke-linejoin:round;stroke-miterlimit:10;}
	.st59{fill:#FFFFFF;stroke:#FFFFFF;stroke-width:8.5749;stroke-linejoin:round;stroke-miterlimit:10;}
	.st60{stroke:#000000;stroke-width:8.5749;stroke-linejoin:round;stroke-miterlimit:10;}
	.st61{fill:#FFFFFF;stroke:#FFFFFF;stroke-width:7.4433;stroke-linejoin:round;stroke-miterlimit:10;}
	.st62{stroke:#000000;stroke-width:7.4433;stroke-linejoin:round;stroke-miterlimit:10;}
	.st63{fill:#FFFFFF;stroke:#FFFFFF;stroke-width:7.3602;stroke-linejoin:round;stroke-miterlimit:10;}
	.st64{stroke:#000000;stroke-width:7.3602;stroke-linejoin:round;stroke-miterlimit:10;}
	.st65{fill:#FFFFFF;stroke:#FFFFFF;stroke-width:8.0592;stroke-linejoin:round;stroke-miterlimit:10;}
	.st66{stroke:#000000;stroke-width:8.0592;stroke-linejoin:round;stroke-miterlimit:10;}
	.st67{fill:#FFFFFF;stroke:#FFFFFF;stroke-width:8.5637;stroke-linejoin:round;stroke-miterlimit:10;}
	.st68{stroke:#000000;stroke-width:8.5637;stroke-linejoin:round;stroke-miterlimit:10;}
	.st69{fill:#FFFFFF;stroke:#FFFFFF;stroke-width:7.8456;stroke-linejoin:round;stroke-miterlimit:10;}
	.st70{stroke:#000000;stroke-width:7.8456;stroke-linejoin:round;stroke-miterlimit:10;}
	.st71{fill:#FFFFFF;stroke:#FFFFFF;stroke-width:7.9249;stroke-linejoin:round;stroke-miterlimit:10;}
	.st72{stroke:#000000;stroke-width:7.9249;stroke-linejoin:round;stroke-miterlimit:10;}
	.st73{fill:#FFFFFF;stroke:#FFFFFF;stroke-width:7.8723;stroke-linejoin:round;stroke-miterlimit:10;}
	.st74{stroke:#000000;stroke-width:7.8723;stroke-linejoin:round;stroke-miterlimit:10;}
	.st75{fill:#FFFFFF;stroke:#FFFFFF;stroke-width:8.5875;stroke-linejoin:round;stroke-miterlimit:10;}
	.st76{fill:#FFFFFF;stroke:#FFFFFF;stroke-width:10.3776;stroke-linejoin:round;stroke-miterlimit:10;}
	.st77{stroke:#000000;stroke-width:8.5875;stroke-linejoin:round;stroke-miterlimit:10;}
	.st78{stroke:#000000;stroke-width:10.3776;stroke-linejoin:round;stroke-miterlimit:10;}
	.st79{fill:#FFFFFF;stroke:#FFFFFF;stroke-width:8.4886;stroke-linejoin:round;stroke-miterlimit:10;}
	.st80{stroke:#000000;stroke-width:8.4886;stroke-linejoin:round;stroke-miterlimit:10;}
</style>
<g>
	<path class="st55" d="M54.49,71.86c1.36,27.39,1.44,66.2,0.23,116.44c-1.11,54.55-1.35,93.38-0.73,116.49
		c0.43,16.06,1.14,31.12,2.16,45.19c0.9,9.76-1.84,14.79-8.22,15.07c-19.45,0.86-30.27-3.95-32.47-14.44
		c-4.75-22.53-7.5-48.09-8.27-76.68c-0.53-19.97,0.1-50.29,1.89-90.95c1.79-40.66,2.43-70.78,1.91-90.37
		c-0.67-25.06-2.87-47.71-6.59-67.93c-0.39-2.72,0.4-5.9,2.38-9.52c1.98-3.62,4.22-6.07,6.75-7.36c12.92-6.06,22.65-3.75,29.16,6.94
		C49.18,25.44,53.11,44.48,54.49,71.86z"/>
	<path class="st53" d="M249.54,344.42c-2.37,7.13-9.74,11.95-22.12,14.45c-10.48,2.02-23.22,3.37-38.2,4.04
		c-19.46,0.47-31.74,1.01-36.83,1.63c-9.57,0.42-15.47,0.68-17.7,0.78c-19.13,0.85-31.63-6.96-37.5-23.44
		c7.05-22.87,19.28-55.12,36.68-96.75c17.68-43.19,29.91-75.24,36.7-96.17c4.14-12.25,8.44-24.69,12.89-37.34
		c4.69-15.38,6.92-27.93,6.66-37.65c-0.44-16.32-4-24.33-10.7-24.04c-3.83,0.17-8.23,5.74-13.2,16.69
		c-4.97,10.97-9.57,21.42-13.77,31.36c-0.6,1.59-0.87,3.36-0.81,5.31c0.05,1.96,1.02,5.62,2.93,11c1.89,5.39,2.89,9.64,2.97,12.76
		c0.1,3.9-1.08,7.57-3.54,10.99c-2.47,3.43-5.45,5.22-8.96,5.38c-4.47,0.2-13.28-6.83-26.42-21.09c-4.27-4.5-6.51-10.64-6.72-18.45
		c-0.25-9.36,2.32-20.61,7.72-33.73c13.18-32.22,33.69-53.43,61.51-63.65c3.47-1.33,6.81-2.06,10-2.2
		c14.66-0.65,24.45,7.12,29.35,23.3c3.17,11.19,4.92,23.02,5.26,35.5c0.51,19.12-2.72,41.52-9.7,67.21
		c-7.09,21.4-14.02,42.8-20.79,64.19c-3.84,11.89-11.46,31.36-22.86,58.42c-10.23,23.5-17.36,43.34-21.4,59.53
		c5.11,0.17,19.46-0.28,43.06-1.32c17.53-0.78,31.77,0.35,42.71,3.38c9.01,2.73,13.68,10.14,14,22.23
		C250.84,339.47,250.43,342.04,249.54,344.42z"/>
</g>
</svg>
