<?xml version="1.0" encoding="utf-8"?>
<!-- Generator: Adobe Illustrator 25.4.0, SVG Export Plug-In . SVG Version: 6.00 Build 0)  -->
<svg version="1.1" id="Capa_1" xmlns="http://www.w3.org/2000/svg" xmlns:xlink="http://www.w3.org/1999/xlink" x="0px" y="0px"
	 viewBox="0 0 239.53 368.96" style="enable-background:new 0 0 239.53 368.96;" xml:space="preserve">
<style type="text/css">
	.st0{fill:#C8D12A;}
	.st1{fill:url(#);}
	.st2{fill:#050504;}
	.st3{fill:#FFFFFF;}
	.st4{fill:none;stroke:#FFFFFF;stroke-width:22.4065;}
	.st5{fill:none;stroke:#FFFFFF;stroke-width:11.3663;}
	.st6{fill:#C9D22A;}
	.st7{fill:#C8D12A;stroke:#000000;stroke-width:5.1402;stroke-miterlimit:10;}
	.st8{fill:#C4224F;stroke:#000000;stroke-width:5.1402;stroke-miterlimit:10;}
	.st9{fill:#030405;}
	.st10{fill:#C6CF31;}
	.st11{fill:#C4224F;}
	.st12{stroke:#000000;stroke-width:5.1402;stroke-miterlimit:10;}
	.st13{stroke:#FFFFFF;stroke-width:4;stroke-linecap:round;stroke-linejoin:round;stroke-miterlimit:10;}
	.st14{fill:none;stroke:#FFFFFF;stroke-width:4;stroke-linejoin:round;stroke-miterlimit:10;}
	.st15{fill:#C4224F;stroke:#000000;stroke-width:5.5;stroke-miterlimit:10;}
	.st16{stroke:#FFFFFF;stroke-width:2.9639;stroke-miterlimit:10;}
	.st17{clip-path:url(#SVGID_00000093138314781358799320000003975332120094507191_);}
	.st18{fill:#C8D12A;stroke:#000000;stroke-width:5.6822;stroke-miterlimit:10;}
	.st19{fill:#00993D;}
	.st20{clip-path:url(#SVGID_00000114782198656715458900000015086949964015091345_);}
	.st21{stroke:#FFFFFF;stroke-width:4;stroke-miterlimit:10;}
	.st22{stroke:#000000;stroke-width:2.5698;stroke-miterlimit:10;}
	.st23{fill:#C8D12A;stroke:#000000;stroke-width:2.569;stroke-miterlimit:10;}
	.st24{stroke:#000000;stroke-width:2.569;stroke-miterlimit:10;}
	.st25{stroke:#FFFFFF;stroke-width:1.9992;stroke-linecap:round;stroke-linejoin:round;stroke-miterlimit:10;}
	.st26{clip-path:url(#SVGID_00000098919050616540837140000015372471144790742181_);}
	.st27{fill:#C8D12A;stroke:#000000;stroke-width:2.8287;stroke-miterlimit:10;}
	.st28{stroke:#FFFFFF;stroke-width:1.4755;stroke-miterlimit:10;}
	.st29{clip-path:url(#SVGID_00000078760998295567384910000015619655967155140795_);}
	.st30{clip-path:url(#SVGID_00000099633732135052647460000002733905164844996259_);}
	.st31{clip-path:url(#SVGID_00000116954961382531475420000002769257816358500234_);}
	.st32{clip-path:url(#SVGID_00000128485779368121095900000001890125543798137500_);}
	.st33{fill:#C8D12A;stroke:#000000;stroke-width:2.4552;stroke-miterlimit:10;}
	.st34{stroke:#FFFFFF;stroke-width:1.2719;stroke-miterlimit:10;}
	.st35{fill:#C8D12A;stroke:#000000;stroke-width:2.1112;stroke-miterlimit:10;}
	.st36{stroke:#000000;stroke-width:2.1112;stroke-miterlimit:10;}
	.st37{stroke:#FFFFFF;stroke-width:1.6429;stroke-linecap:round;stroke-linejoin:round;stroke-miterlimit:10;}
	.st38{clip-path:url(#SVGID_00000123405422028127688900000004272169877262559880_);}
	.st39{stroke:#000000;stroke-width:2.1118;stroke-miterlimit:10;}
	.st40{clip-path:url(#SVGID_00000120549087043234989360000016724408197654282135_);}
	.st41{clip-path:url(#SVGID_00000009568045850009954330000014893046048464953263_);}
	.st42{clip-path:url(#SVGID_00000090277935360441469690000016001154244632715910_);}
	.st43{stroke:#FFFFFF;stroke-width:2.0202;stroke-miterlimit:10;}
	.st44{opacity:0.9;fill:#00993D;}
	.st45{opacity:0.9;}
	.st46{opacity:0.9;fill:#FFFFFF;}
	.st47{clip-path:url(#SVGID_00000038376407070045820060000018035679031940793773_);}
	.st48{opacity:0.16;}
	.st49{fill:none;}
	.st50{fill:#222221;}
	.st51{fill:#FFFFFF;stroke:#FFFFFF;stroke-width:8.5919;stroke-linejoin:round;stroke-miterlimit:10;}
	.st52{stroke:#000000;stroke-width:8.5919;stroke-linejoin:round;stroke-miterlimit:10;}
	.st53{fill:#FFFFFF;stroke:#FFFFFF;stroke-width:8.5634;stroke-linejoin:round;stroke-miterlimit:10;}
	.st54{stroke:#000000;stroke-width:8.5634;stroke-linejoin:round;stroke-miterlimit:10;}
	.st55{fill:#FFFFFF;stroke:#FFFFFF;stroke-width:8.5806;stroke-linejoin:round;stroke-miterlimit:10;}
	.st56{stroke:#000000;stroke-width:8.5806;stroke-linejoin:round;stroke-miterlimit:10;}
	.st57{fill:#FFFFFF;stroke:#FFFFFF;stroke-width:7.4042;stroke-linejoin:round;stroke-miterlimit:10;}
	.st58{stroke:#000000;stroke-width:7.4042;stroke-linejoin:round;stroke-miterlimit:10;}
	.st59{fill:#FFFFFF;stroke:#FFFFFF;stroke-width:8.5749;stroke-linejoin:round;stroke-miterlimit:10;}
	.st60{stroke:#000000;stroke-width:8.5749;stroke-linejoin:round;stroke-miterlimit:10;}
	.st61{fill:#FFFFFF;stroke:#FFFFFF;stroke-width:7.4433;stroke-linejoin:round;stroke-miterlimit:10;}
	.st62{stroke:#000000;stroke-width:7.4433;stroke-linejoin:round;stroke-miterlimit:10;}
	.st63{fill:#FFFFFF;stroke:#FFFFFF;stroke-width:7.3602;stroke-linejoin:round;stroke-miterlimit:10;}
	.st64{stroke:#000000;stroke-width:7.3602;stroke-linejoin:round;stroke-miterlimit:10;}
	.st65{fill:#FFFFFF;stroke:#FFFFFF;stroke-width:8.0592;stroke-linejoin:round;stroke-miterlimit:10;}
	.st66{stroke:#000000;stroke-width:8.0592;stroke-linejoin:round;stroke-miterlimit:10;}
	.st67{fill:#FFFFFF;stroke:#FFFFFF;stroke-width:8.5637;stroke-linejoin:round;stroke-miterlimit:10;}
	.st68{stroke:#000000;stroke-width:8.5637;stroke-linejoin:round;stroke-miterlimit:10;}
	.st69{fill:#FFFFFF;stroke:#FFFFFF;stroke-width:7.8456;stroke-linejoin:round;stroke-miterlimit:10;}
	.st70{stroke:#000000;stroke-width:7.8456;stroke-linejoin:round;stroke-miterlimit:10;}
	.st71{fill:#FFFFFF;stroke:#FFFFFF;stroke-width:7.9249;stroke-linejoin:round;stroke-miterlimit:10;}
	.st72{stroke:#000000;stroke-width:7.9249;stroke-linejoin:round;stroke-miterlimit:10;}
	.st73{fill:#FFFFFF;stroke:#FFFFFF;stroke-width:7.8723;stroke-linejoin:round;stroke-miterlimit:10;}
	.st74{stroke:#000000;stroke-width:7.8723;stroke-linejoin:round;stroke-miterlimit:10;}
	.st75{fill:#FFFFFF;stroke:#FFFFFF;stroke-width:8.5875;stroke-linejoin:round;stroke-miterlimit:10;}
	.st76{fill:#FFFFFF;stroke:#FFFFFF;stroke-width:10.3776;stroke-linejoin:round;stroke-miterlimit:10;}
	.st77{stroke:#000000;stroke-width:8.5875;stroke-linejoin:round;stroke-miterlimit:10;}
	.st78{stroke:#000000;stroke-width:10.3776;stroke-linejoin:round;stroke-miterlimit:10;}
	.st79{fill:#FFFFFF;stroke:#FFFFFF;stroke-width:8.4886;stroke-linejoin:round;stroke-miterlimit:10;}
	.st80{stroke:#000000;stroke-width:8.4886;stroke-linejoin:round;stroke-miterlimit:10;}
</style>
<g>
	<path class="st60" d="M54.45,71.58c1.36,27.37,1.44,66.16,0.23,116.37c-1.11,54.52-1.35,93.32-0.73,116.41
		c0.43,16.05,1.14,31.1,2.16,45.16c0.89,9.75-1.84,14.78-8.21,15.06c-19.44,0.86-30.25-3.94-32.44-14.43
		c-4.75-22.51-7.5-48.06-8.26-76.63c-0.53-19.96,0.1-50.26,1.89-90.89c1.79-40.64,2.43-70.73,1.9-90.31
		c-0.67-25.04-2.87-47.67-6.59-67.89c-0.39-2.72,0.4-5.9,2.38-9.51c1.97-3.62,4.22-6.07,6.74-7.35c12.92-6.06,22.63-3.74,29.14,6.93
		C49.15,25.19,53.08,44.22,54.45,71.58z"/>
	<path class="st58" d="M216.91,19.54c0.4,2.33,0.64,4.51,0.71,6.55c0.49,13.72-7.09,29.31-22.74,46.77
		c-22.99,26.18-35.55,40.91-37.66,44.2c9.93,1.14,20.01,2.26,30.27,3.38c12.21,2.52,21.33,7.62,27.34,15.31
		c13.37,17.09,20.35,33.94,20.95,50.58c0.45,12.55-2.71,26.82-9.48,42.82c-1.48,3.27-8.92,18.26-22.32,45
		c-10.13,20.2-28.55,44.77-55.27,73.7c-10.13,11.14-19.82,16.87-29.05,17.18c-2.87,0.1-5.76-0.54-8.68-1.9
		c-3.89-1.62-7.78-3.47-11.68-5.53c-3.9-2.06-6.07-4.69-6.5-7.89c-0.95-8.73,4.2-16.5,15.44-23.3
		c16.23-9.89,25.57-16.34,28.02-19.33c22.02-26.44,36.33-45.76,42.91-57.96c10.76-20.22,15.73-41.86,14.91-64.91
		c-0.21-5.83-0.75-11.95-1.61-18.35c-1.31-9.89-6.6-15.12-15.87-15.69c-9.28-0.57-28.13,2.98-56.57,10.64
		c-1.68-2.28-6.6-5.92-14.74-10.91c-6.2-3.88-9.36-7.58-9.49-11.08c-0.1-2.91,1.22-6.18,3.96-9.77
		c15.61-18.63,37.87-47.27,66.8-85.92c-5.44-0.4-13.22,0.73-23.33,3.4c-11.7,3.02-19.78,4.6-24.24,4.75
		c-9.56,0.32-17.49-2.78-23.78-9.29c-1.99-1.97-3.21-4.86-3.66-8.64c-0.11-3.21-0.23-6.42-0.34-9.63
		c2.85-0.68,23.24-5.74,61.19-15.18c11.39-2.71,21.86-4.23,31.42-4.55C203.57,3.33,214.6,8.52,216.91,19.54z"/>
</g>
</svg>
