<?xml version="1.0" encoding="utf-8"?>
<!-- Generator: Adobe Illustrator 25.4.0, SVG Export Plug-In . SVG Version: 6.00 Build 0)  -->
<svg version="1.1" id="Capa_1" xmlns="http://www.w3.org/2000/svg" xmlns:xlink="http://www.w3.org/1999/xlink" x="0px" y="0px"
	 viewBox="0 0 159.9 369.03" style="enable-background:new 0 0 159.9 369.03;" xml:space="preserve">
<style type="text/css">
	.st0{fill:#C8D12A;}
	.st1{fill:url(#);}
	.st2{fill:#050504;}
	.st3{fill:#FFFFFF;}
	.st4{fill:none;stroke:#FFFFFF;stroke-width:22.4065;}
	.st5{fill:none;stroke:#FFFFFF;stroke-width:11.3663;}
	.st6{fill:#C9D22A;}
	.st7{fill:#C8D12A;stroke:#000000;stroke-width:5.1402;stroke-miterlimit:10;}
	.st8{fill:#C4224F;stroke:#000000;stroke-width:5.1402;stroke-miterlimit:10;}
	.st9{fill:#030405;}
	.st10{fill:#C6CF31;}
	.st11{fill:#C4224F;}
	.st12{stroke:#000000;stroke-width:5.1402;stroke-miterlimit:10;}
	.st13{stroke:#FFFFFF;stroke-width:4;stroke-linecap:round;stroke-linejoin:round;stroke-miterlimit:10;}
	.st14{fill:none;stroke:#FFFFFF;stroke-width:4;stroke-linejoin:round;stroke-miterlimit:10;}
	.st15{fill:#C4224F;stroke:#000000;stroke-width:5.5;stroke-miterlimit:10;}
	.st16{stroke:#FFFFFF;stroke-width:2.9639;stroke-miterlimit:10;}
	.st17{clip-path:url(#SVGID_00000070079362989328345280000000710420339973632953_);}
	.st18{fill:#C8D12A;stroke:#000000;stroke-width:5.6822;stroke-miterlimit:10;}
	.st19{fill:#00993D;}
	.st20{clip-path:url(#SVGID_00000170257710134240893250000011223360711285473973_);}
	.st21{stroke:#FFFFFF;stroke-width:4;stroke-miterlimit:10;}
	.st22{stroke:#000000;stroke-width:2.5698;stroke-miterlimit:10;}
	.st23{fill:#C8D12A;stroke:#000000;stroke-width:2.569;stroke-miterlimit:10;}
	.st24{stroke:#000000;stroke-width:2.569;stroke-miterlimit:10;}
	.st25{stroke:#FFFFFF;stroke-width:1.9992;stroke-linecap:round;stroke-linejoin:round;stroke-miterlimit:10;}
	.st26{clip-path:url(#SVGID_00000173133803443096717090000016405857877028314258_);}
	.st27{fill:#C8D12A;stroke:#000000;stroke-width:2.8287;stroke-miterlimit:10;}
	.st28{stroke:#FFFFFF;stroke-width:1.4755;stroke-miterlimit:10;}
	.st29{clip-path:url(#SVGID_00000044169947299049581550000012077276369614859669_);}
	.st30{clip-path:url(#SVGID_00000090294532352976693990000009535922917648676029_);}
	.st31{clip-path:url(#SVGID_00000073722437615017104870000006322377330576353214_);}
	.st32{clip-path:url(#SVGID_00000114057082059743169290000012266403812465066896_);}
	.st33{fill:#C8D12A;stroke:#000000;stroke-width:2.4552;stroke-miterlimit:10;}
	.st34{stroke:#FFFFFF;stroke-width:1.2719;stroke-miterlimit:10;}
	.st35{fill:#C8D12A;stroke:#000000;stroke-width:2.1112;stroke-miterlimit:10;}
	.st36{stroke:#000000;stroke-width:2.1112;stroke-miterlimit:10;}
	.st37{stroke:#FFFFFF;stroke-width:1.6429;stroke-linecap:round;stroke-linejoin:round;stroke-miterlimit:10;}
	.st38{clip-path:url(#SVGID_00000171701865525344677130000007242702960578498949_);}
	.st39{stroke:#000000;stroke-width:2.1118;stroke-miterlimit:10;}
	.st40{clip-path:url(#SVGID_00000032618793357585114270000012294484269716037543_);}
	.st41{clip-path:url(#SVGID_00000124148798330108426990000014405984750658316941_);}
	.st42{clip-path:url(#SVGID_00000122716451108431643550000018397084358391253138_);}
	.st43{stroke:#FFFFFF;stroke-width:2.0202;stroke-miterlimit:10;}
	.st44{opacity:0.9;fill:#00993D;}
	.st45{opacity:0.9;}
	.st46{opacity:0.9;fill:#FFFFFF;}
	.st47{clip-path:url(#SVGID_00000168090355948049024600000015284045349317982908_);}
	.st48{opacity:0.16;}
	.st49{fill:none;}
	.st50{fill:#222221;}
	.st51{fill:#FFFFFF;stroke:#FFFFFF;stroke-width:8.5919;stroke-linejoin:round;stroke-miterlimit:10;}
	.st52{stroke:#000000;stroke-width:8.5919;stroke-linejoin:round;stroke-miterlimit:10;}
	.st53{fill:#FFFFFF;stroke:#FFFFFF;stroke-width:8.5634;stroke-linejoin:round;stroke-miterlimit:10;}
	.st54{stroke:#000000;stroke-width:8.5634;stroke-linejoin:round;stroke-miterlimit:10;}
	.st55{fill:#FFFFFF;stroke:#FFFFFF;stroke-width:8.5806;stroke-linejoin:round;stroke-miterlimit:10;}
	.st56{stroke:#000000;stroke-width:8.5806;stroke-linejoin:round;stroke-miterlimit:10;}
	.st57{fill:#FFFFFF;stroke:#FFFFFF;stroke-width:7.4042;stroke-linejoin:round;stroke-miterlimit:10;}
	.st58{stroke:#000000;stroke-width:7.4042;stroke-linejoin:round;stroke-miterlimit:10;}
	.st59{fill:#FFFFFF;stroke:#FFFFFF;stroke-width:8.5749;stroke-linejoin:round;stroke-miterlimit:10;}
	.st60{stroke:#000000;stroke-width:8.5749;stroke-linejoin:round;stroke-miterlimit:10;}
	.st61{fill:#FFFFFF;stroke:#FFFFFF;stroke-width:7.4433;stroke-linejoin:round;stroke-miterlimit:10;}
	.st62{stroke:#000000;stroke-width:7.4433;stroke-linejoin:round;stroke-miterlimit:10;}
	.st63{fill:#FFFFFF;stroke:#FFFFFF;stroke-width:7.3602;stroke-linejoin:round;stroke-miterlimit:10;}
	.st64{stroke:#000000;stroke-width:7.3602;stroke-linejoin:round;stroke-miterlimit:10;}
	.st65{fill:#FFFFFF;stroke:#FFFFFF;stroke-width:8.0592;stroke-linejoin:round;stroke-miterlimit:10;}
	.st66{stroke:#000000;stroke-width:8.0592;stroke-linejoin:round;stroke-miterlimit:10;}
	.st67{fill:#FFFFFF;stroke:#FFFFFF;stroke-width:8.5637;stroke-linejoin:round;stroke-miterlimit:10;}
	.st68{stroke:#000000;stroke-width:8.5637;stroke-linejoin:round;stroke-miterlimit:10;}
	.st69{fill:#FFFFFF;stroke:#FFFFFF;stroke-width:7.8456;stroke-linejoin:round;stroke-miterlimit:10;}
	.st70{stroke:#000000;stroke-width:7.8456;stroke-linejoin:round;stroke-miterlimit:10;}
	.st71{fill:#FFFFFF;stroke:#FFFFFF;stroke-width:7.9249;stroke-linejoin:round;stroke-miterlimit:10;}
	.st72{stroke:#000000;stroke-width:7.9249;stroke-linejoin:round;stroke-miterlimit:10;}
	.st73{fill:#FFFFFF;stroke:#FFFFFF;stroke-width:7.8723;stroke-linejoin:round;stroke-miterlimit:10;}
	.st74{stroke:#000000;stroke-width:7.8723;stroke-linejoin:round;stroke-miterlimit:10;}
	.st75{fill:#FFFFFF;stroke:#FFFFFF;stroke-width:8.5875;stroke-linejoin:round;stroke-miterlimit:10;}
	.st76{fill:#FFFFFF;stroke:#FFFFFF;stroke-width:10.3776;stroke-linejoin:round;stroke-miterlimit:10;}
	.st77{stroke:#000000;stroke-width:8.5875;stroke-linejoin:round;stroke-miterlimit:10;}
	.st78{stroke:#000000;stroke-width:10.3776;stroke-linejoin:round;stroke-miterlimit:10;}
	.st79{fill:#FFFFFF;stroke:#FFFFFF;stroke-width:8.4886;stroke-linejoin:round;stroke-miterlimit:10;}
	.st80{stroke:#000000;stroke-width:8.4886;stroke-linejoin:round;stroke-miterlimit:10;}
</style>
<path class="st71" d="M146.23,15.37c6.15,7.97,9.38,16.79,9.68,26.47c0.28,9.02-2.09,19.98-7.11,32.88
	C143.7,85.28,138.77,96,134,106.88c-9.23,21.42-17.01,37.94-23.36,49.55c8.61,20.41,16.96,47.35,25.03,80.83
	c3.67,15.58,5.61,26.38,5.8,32.39c0.27,8.69-1.07,16.93-4.02,24.74c0.01,0.34-1.87,6.59-5.64,18.78
	c-2.03,6.77-4.58,11.89-7.66,15.34c-6.79,7.61-19.57,17.3-38.36,29.05c-7.52,4.63-15.9,7.13-25.15,7.48
	c-10.21,0.39-20.01-1.92-29.43-6.91C14.34,349.05,5.29,335.35,4.08,317c-0.79-15.02,2.36-31.7,9.45-50.03
	c6.87-14.97,13.74-30.12,20.61-45.43c1.78-4.41,8.9-16.39,21.39-35.93c9.14-14.06,13.86-26.28,14.18-36.66
	c0.29-11.05-1.95-26.52-6.71-46.4c-5.48-22.2-8.53-37.97-9.14-47.31c-0.76-14.02,2.39-25.68,9.44-34.97
	c3.98-5.17,8.53-7.85,13.64-8.04c1.59-0.06,4.39,0.33,8.42,1.19c4.02,0.85,7.14,1.23,9.37,1.15c5.1-0.19,9.99-2.14,14.66-5.86
	c3.42-2.95,7.68-4.52,12.78-4.72C132.06,3.61,140.07,7.41,146.23,15.37z M101.4,289.73c3.31-6.47,4.84-13.73,4.59-21.75
	c-0.18-5.68-1.52-12.81-4.02-21.42c-1.83-7.28-3.8-14.4-5.93-21.35c-1.1-4.64-4.04-11.89-8.82-21.74
	c-10.34,16.45-20.52,33.06-30.53,49.82c-12.45,20.54-18.47,37.32-18.06,50.35c0.28,9.02,3.42,17.43,9.41,25.23
	c2.66,3.58,6.07,5.29,10.22,5.13c6.7-0.25,14.51-5.57,23.45-15.94C89.41,309.75,95.98,300.31,101.4,289.73z M106.83,64.77
	c-3.41-6.89-7.35-10.26-11.81-10.09c-2.87,0.11-4.74,1.69-5.6,4.73c-1.12,5.06-0.9,12.07,0.66,21.05
	c1.57,9.64,4.16,15.73,7.75,18.27c0.89-2.04,3.44-7.15,7.66-15.34c2.41-4.43,3.57-8.16,3.48-11.17
	C108.91,69.88,108.19,67.4,106.83,64.77z"/>
</svg>
