<svg width="142" height="130" viewBox="0 0 142 130" fill="none" xmlns="http://www.w3.org/2000/svg">
<g clip-path="url(#clip0_32_1060)">
<path d="M99.9547 101.565C100.14 101.162 100.596 100.974 101.015 100.824C101.566 100.627 102.117 100.429 102.675 100.227C103.239 100.026 103.564 99.6149 104.079 99.2985C107.661 97.0932 111.27 94.9235 114.896 92.7945C115.505 92.4373 116.12 92.0811 116.782 91.8206C117.65 91.4814 118.582 91.3224 119.507 91.1685C120.245 91.0464 120.83 90.8358 121.559 90.6557C122.828 90.3455 124.051 89.7513 124.952 88.802C125.848 87.8456 126.383 86.5087 126.193 85.2084C126.092 84.5068 125.791 83.835 125.797 83.1262C125.797 83.0131 125.81 82.896 125.865 82.792C125.97 82.6086 126.188 82.538 126.391 82.4838C128.098 81.9826 129.696 81.0803 131.01 79.8668C131.209 79.6863 131.404 79.4864 131.496 79.2317C131.575 79.0248 131.57 78.7916 131.563 78.5706C131.507 77.2172 131.192 75.8834 130.866 74.5731C130.574 73.4002 130.265 72.2182 129.775 71.1127C129.015 69.4098 127.607 68.001 126.237 66.7429C125.239 65.8296 124.185 64.8878 122.876 64.5697C122.3 64.4298 121.637 64.4388 121.185 64.8284C121.207 64.2041 121.599 63.6536 121.72 63.0394C121.819 62.5158 121.716 61.971 121.57 61.463C120.971 59.3912 119.824 57.2783 118.393 55.671C117.435 54.5947 116.425 53.5724 115.361 52.6102C114.385 51.7254 113.287 50.8519 111.98 50.7161C111.077 50.6225 110.178 50.8874 109.316 51.1838C109.138 51.2421 108.947 51.3044 108.769 51.2435C108.634 51.1958 108.541 51.0799 108.447 50.97C108.077 50.5254 107.708 50.0808 107.339 49.6301C106.673 48.8284 105.992 48.0053 105.093 47.4788C104.194 46.9524 103.025 46.7705 102.122 47.286C101.776 47.486 101.491 47.7715 101.196 48.0428C98.6758 50.3935 95.3921 52.0016 91.9916 52.4723C89.1087 52.872 86.7312 54.9261 83.9877 55.9144C83.8348 55.9706 83.6767 56.0196 83.5147 56.0178C83.0417 56.0082 82.7006 55.5432 82.249 55.4053C81.8145 55.2765 81.3525 55.4634 80.9402 55.6523C79.8328 56.1527 78.7193 56.6521 77.612 57.1526C76.8693 57.4875 76.1267 57.8225 75.3921 58.1839C72.8672 59.4347 70.1593 60.2844 67.8489 61.8974C65.573 63.491 62.8287 64.2593 60.401 65.6016C59.7069 65.9823 59.0422 66.4119 58.33 66.7519C57.2651 67.2594 56.095 67.5735 55.1111 68.2327C54.6551 68.5337 54.2498 68.9059 53.8393 69.271C53.5383 69.5413 53.2353 69.8238 53.0973 70.2028C53.0141 70.4402 53.0018 70.702 52.8953 70.9292C52.7279 71.2971 52.348 71.5165 51.9964 71.7156C51.6519 71.9095 51.2414 72.2746 50.8706 72.4013C49.4199 72.9012 48.0561 73.629 46.6994 74.3518C45.3498 75.0694 43.915 75.999 42.4531 76.453C39.7543 77.2854 37.2668 78.6868 34.8057 80.08C34.365 80.327 33.909 80.5903 33.6039 80.9981C33.1538 81.6016 33.1117 82.4174 33.1295 83.1741C33.1537 84.8677 33.342 86.551 33.6843 88.2096C33.8287 88.9183 34.0096 89.633 34.3464 90.2732C35.3621 92.2008 37.5665 93.1015 39.392 94.2908C39.6461 94.4524 39.8972 94.6323 40.0834 94.8643C40.3374 95.1767 40.4638 95.5808 40.5871 95.9656C41.7142 99.5135 43.1888 102.887 44.9541 106.164C44.1637 106.711 44.323 107.893 44.1533 108.838C44.0811 109.272 43.9137 109.678 43.8354 110.111C43.6129 111.299 44.0314 112.537 44.7438 113.509C45.4563 114.482 46.4332 115.216 47.4426 115.868C48.204 116.359 49.0018 116.818 49.8595 117.105C51.6661 117.695 53.6444 117.477 55.4659 116.926C57.2873 116.375 58.9865 115.508 60.7433 114.783C62.2984 114.143 63.8991 113.606 65.524 113.185C66.072 113.044 66.6616 112.916 67.1912 113.111" fill="#FAD230"/>
<path d="M29.1355 35.9731C27.1412 34.3726 25.0425 32.9117 22.8576 31.5935C21.5353 30.7957 20.0742 29.9308 19.588 28.4618C20.3793 28.0972 21.2999 28.2692 22.1516 28.4423C26.5793 29.3422 31.0241 30.2512 35.2752 31.8001C36.0174 32.068 37.0393 32.2694 37.4398 31.5886C37.7176 31.1198 37.4982 30.5243 37.2747 30.0286C36.5637 28.4468 35.8476 26.8579 35.0615 25.3139C34.5487 24.3052 33.9953 23.315 33.5513 22.2676C33.0931 21.1926 32.7495 20.0677 32.4048 18.9488C31.6609 16.5137 30.9109 14.0774 30.166 11.6484C31.9092 11.4924 33.4216 12.7616 34.7103 13.9495C37.4717 16.4942 40.2271 19.0379 42.9886 21.5826C45.1113 23.5374 47.2725 25.5238 49.8778 26.7549C50.8742 27.2221 52.1107 27.5597 53.0146 26.9313C49.7529 25.704 47.5979 22.0291 48.1055 18.5647C50.0793 20.6644 51.7044 23.0954 52.8968 25.7246C53.9911 25.1529 54.5905 23.9524 55.0905 22.8233C56.1262 20.502 57.0686 18.1401 57.9281 15.7518C58.7763 13.3931 59.3841 10.1903 61.3197 8.61543L62.1578 10.9721L62.5414 13.0207L62.5026 15.0556L62.5642 18.5895L62.5988 21.4595L62.6798 23.0369L62.4397 26.3574L62.2619 30.354L62.7506 32.709L73.0579 25.8563L74.3041 25.2346L75.1347 25.1969L75.6712 25.5751L75.4681 26.5337L66.7736 42.3477L72.8844 45.3302L77.6446 47.2716L82.5108 49.8524L80.469 49.6258L70.4158 48.8327L66.0968 49.0814L71.6987 52.6451L75.4818 55.6927L74.9701 56.0284L63.7006 53.425L66.7427 59.0125L67.3538 59.9935L56.9646 55.6648L56.6672 56.702L50.9476 59.7766L50.6747 63.5187L48.9561 67.9185L47.2768 64.8001L46.4983 56.1911L46.3449 55.349L45.951 55.1642L42.763 57.5482L38.5264 61.9186L37.7408 62.8871L37.219 63.2462L36.729 62.8883L36.5643 62.2265L36.9035 60.8257L40.675 51.9311L40.2528 51.8043L32.8358 49.8795L22.9188 46.6531L22.9645 46.4912L25.3514 45.5441L27.0675 45.101L31 44.2477L33.6084 43.884L37.6936 43.276L38.7504 42.6666L38.7812 42.0688L33.9297 38.6488L29.1254 35.9966L29.1355 35.9731Z" fill="#FAD230"/>
<path d="M86.1458 88.1373C81.6821 89.6685 77.5547 92.8572 73.1132 94.5554C70.8529 95.4168 68.532 96.1927 66.3102 97.0855C64.8584 97.6668 61.7596 99.8522 60.2516 99.683C58.228 99.4594 56.8076 95.31 56.9779 93.5733C58.5359 93.1793 59.3688 95.868 60.3966 94.6445C61.2835 93.5924 59.9632 91.3565 62.5939 92.5102C63.0805 91.7998 63.2766 90.8839 63.9706 90.5409C64.7335 90.159 65.1108 91.0446 66.2154 90.148C67.1102 89.4238 67.2887 89.0264 68.1489 88.623C68.7041 88.3637 69.7921 88.1301 70.5053 87.8217C71.328 87.456 72.2446 87.4641 73.0471 87.1076C74.0116 86.6777 74.4862 85.7768 75.5428 85.5066C76.6642 85.2221 76.7853 85.9206 77.9679 84.9679C78.732 84.3538 78.9919 83.5051 79.7033 82.8321C80.7393 86.2894 82.0519 80.0885 83.6935 82.0449C83.8171 81.9776 83.9388 81.8094 84.1019 81.7674C85.1284 82.5789 86.0606 83.6196 86.8033 84.7481C88.2483 86.9482 87.2974 86.545 85.9523 88.1365" fill="#211E1F"/>
<path d="M84.465 106.123C86.9996 105.565 89.7975 103.424 92.2251 102.232C93.8502 101.435 97.4273 100.353 98.4017 98.8127C97.4429 98.1946 96.0736 98.0171 95.0359 97.3106C94.0316 96.6284 92.5888 94.1147 91.3893 94.5307C91.4679 95.2221 91.6103 95.9053 91.6108 96.5775C90.3671 96.5464 88.6499 95.5321 89.24 97.8036C88.5208 97.8472 87.4789 97.2782 86.7657 97.5867C85.9643 97.937 85.833 98.8761 84.7308 99.2329C84.3357 99.3556 83.8944 98.7798 83.5277 98.9574C83.0454 99.1912 83.3244 99.9914 82.9789 100.267C82.1438 100.932 81.6304 100.79 80.8725 101.254C80.5878 101.427 80.4658 102.122 80.099 102.262C79.5732 102.458 79.0852 102.201 78.6901 102.323C77.9141 102.558 77.1458 103.31 76.4722 103.493C75.9758 103.624 75.1699 103.063 74.8072 103.179C74.4375 103.299 74.0958 103.776 73.8405 103.847C73.0281 104.076 72.8049 104.629 71.6505 104.173C70.8423 105.691 69.0985 105.099 67.6997 105.099C67.6823 105.354 67.5798 105.707 67.606 105.963C65.4222 106.102 69.0675 109.189 69.4399 109.804C69.2739 109.525 69.257 109.026 69.1661 108.71C71.1449 107.663 71.7843 108.775 73.5353 109.097C75.9112 109.53 74.9155 108.083 74.6551 106.57C76.3588 106.577 77.719 108.311 79.4387 108.446C81.1028 108.579 82.9938 107.047 84.467 106.299" fill="#211E1F"/>
<path d="M80.0413 73.8561C71.75 76.8861 63.8891 81.7212 55.5777 84.6474C54.7386 82.2215 54.6972 78.7914 55.1029 76.3151C55.1741 75.8872 55.0889 74.5226 55.555 74.2735C56.5824 73.7284 56.2959 75.0752 57.098 75.0955C58.8837 75.1351 58.7966 71.98 60.6023 73.9261C60.8214 73.3596 61.1217 72.6432 61.6345 72.226C63.242 73.712 63.7586 72.0706 64.8055 71.0326C66.6543 72.1567 66.8668 70.8793 68.3298 70.2684C68.6043 70.1571 69.8187 70.1769 69.8603 70.1525C70.4145 69.8238 70.6125 69.1596 71.0868 68.7485C72.3404 67.6695 72.3108 67.9974 73.6803 67.7605C74.1625 67.6774 74.8809 67.2253 75.3895 67.0964C76.2303 66.8845 76.3099 67.5321 77.1287 66.8895C77.6668 66.4702 77.7999 64.2438 79.0312 64.6873C79.4728 64.8487 79.8844 67.3668 80.0289 67.887C80.3644 69.1362 81.9279 72.763 80.6128 73.4989" fill="#211E1F"/>
<path d="M68.4583 111.575C62.4861 108.886 58.0604 103.433 55.297 97.5585C54.0933 94.9966 53.5675 91.9633 53.0001 89.1806C52.4144 86.3195 51.9554 83.4481 51.8904 80.5354C51.854 78.9905 51.8581 77.3518 51.9755 75.8199C52.0613 74.6659 52.8346 72.4203 52.2103 71.368C50.1273 72.2149 47.9946 73.1352 46.119 74.4248C44.3487 75.644 42.4711 76.8705 40.5522 77.7824C38.7011 78.6616 36.6184 79.0939 35.1356 80.6122C34.3602 81.4066 33.5222 82.0523 33.7169 83.2467C33.8813 84.2476 34.1896 85.3227 34.4016 86.3002C34.9803 89.0156 35.6281 91.2401 37.8796 92.984C34.9332 93.0151 35.6756 97.7113 36.0573 99.5083C36.334 100.811 36.4374 102.291 37.1072 103.445C37.8883 104.794 39.5993 105.845 40.9876 106.396C42.6037 107.042 44.0601 107.184 45.7212 107.184C45.0652 108.236 44.526 108.888 44.5747 110.246C44.6175 111.453 45.0868 112.461 45.5551 113.55C46.4532 115.621 47.8187 116.948 50.1716 116.994C51.1237 117.014 52.2348 117.017 53.194 116.919C54.1219 116.822 54.9374 116.499 55.8775 116.291C58.1396 115.794 60.0163 114.386 62.1772 113.671C63.3463 113.288 64.5892 113.023 65.7027 112.486C66.5244 112.089 67.8518 111.317 68.8018 111.425" fill="#DD4C97"/>
<path d="M83.6862 72.8922C82.8712 70.6587 82.7183 67.5242 82.735 65.0962C82.7519 62.5175 82.9401 59.5841 83.6395 57.1441C84.3176 54.7947 88.7619 53.568 90.9512 52.8331C94.1393 51.7618 96.8516 50.4731 99.7525 48.8767C101.56 47.8835 102.125 46.9662 103.893 48.3094C105.225 49.316 106.36 50.5601 107.373 51.8278C110.355 50.6845 112.979 51.1273 115.081 53.5058C117.226 55.9291 118.872 58.7216 119.946 61.7644C120.162 62.3783 120.141 63.2165 120.466 63.7793C120.845 64.4327 121.04 64.3082 121.728 64.6424C123.165 65.3464 124.764 66.4351 125.942 67.6487C127.27 69.0128 127.98 70.1923 128.628 71.8892C129.213 73.4375 130.576 75.2283 130.533 76.9923C130.489 78.7563 129.589 80.2647 128.005 80.7362C127.381 80.9213 126.359 80.946 125.864 81.523C125.206 82.2867 125.684 82.4164 125.832 83.3644C126.04 84.6301 125.921 86.771 125.403 87.9347C124.667 89.5774 121.973 90.4545 120.409 91.2244C118.498 92.1627 116.5 93.1745 114.585 94.0619C112.523 95.0126 110.503 96.2281 108.389 97.1137C106.771 97.793 105.014 98.5183 103.262 98.6162C101.573 98.7059 100.068 97.507 98.6645 96.5575C95.3772 94.321 91.8064 90.2221 89.9764 86.6578C88.1464 83.0935 86.1646 79.2778 84.5597 75.4494C84.1572 74.4906 83.7597 73.5388 83.5679 72.5145L83.674 72.8902L83.6862 72.8922Z" fill="#DD4C97"/>
<path d="M100.494 74.1871C100.295 74.2923 100.143 74.1163 99.9754 74.0381C99.7729 73.9416 99.547 73.9103 99.3374 73.8189C99.0813 73.7072 98.7067 73.3685 98.4108 73.5705C98.0886 73.7807 98.3334 74.2988 98.3089 74.5962C98.267 75.1483 97.7951 74.9441 97.4103 74.8173C97.0255 74.6905 96.5245 74.0984 96.2974 74.4877C96.1139 74.8026 96.238 75.5205 95.7093 75.5456C95.3061 75.5664 95.0178 75.0097 94.6448 75.4878C94.3518 75.8599 94.4365 76.4016 93.9462 76.6467C93.5855 76.8253 93.2625 76.6648 93.0394 77.1051C92.8619 77.4587 92.9821 77.9749 92.4291 77.9206C92.0108 77.8824 91.452 77.3749 91.0083 77.5649C90.679 77.7048 90.6168 78.3037 90.409 78.5769C89.9214 79.2182 89.0551 78.1947 88.7597 79.2196C88.5363 79.999 88.946 80.802 89.3305 81.4564C89.8495 82.353 90.4475 83.2628 90.8794 84.1951C91.0352 84.5351 91.1383 84.9291 91.3285 85.2497C91.4357 85.4308 92.0279 85.925 92.1113 85.4992L92.0789 85.4687C94.7265 83.8553 97.6169 82.7344 100.45 81.3968C103.147 80.1244 105.976 77.9068 108.95 77.4469C106.725 77.0453 105.736 74.3558 104.416 72.7605C103.329 71.4491 103.796 72.6197 103.201 73.4943C102.505 74.5217 102.138 73.3866 101.133 72.899C100.911 73.2201 100.814 73.8761 100.832 73.9922L100.481 74.1912L100.494 74.1871Z" fill="#211E1F"/>
<path d="M103.346 62.9349C101.947 62.1494 100.956 60.5211 100.226 59.1308C99.6321 58.0082 99.2199 56.4698 98.0697 55.7635C97.4706 56.5494 97.646 57.7846 97.2717 58.6456C96.6803 58.5598 96.4723 57.5202 95.8819 57.3906C95.171 57.2346 95.2076 58.4781 94.8448 58.8951C94.2569 59.5762 94.1036 58.508 93.5696 58.7897C93.0417 59.0725 93.2457 60.0612 92.6004 60.2993C91.2249 58.6949 91.6134 61.0144 90.4516 60.9782C90.1032 60.9705 89.8211 60.3017 89.4179 60.3979C88.9762 60.5003 88.8155 61.466 88.3495 61.6774C88.0478 61.4639 87.967 61.1615 87.6215 61.2862C87.349 61.3853 87.1257 62.0894 86.9959 62.3065C86.5214 63.0943 86.1408 62.6793 85.4989 62.2207C85.2881 62.5499 85.1814 63.0033 84.8622 63.2328C84.8319 63.1901 84.7934 63.1586 84.7478 63.1322C83.8384 64.4318 84.4122 66.8387 84.5419 68.3112C84.5912 68.8407 84.5791 70.3022 85.2131 70.4705C85.4399 70.5333 86.0519 70.1578 86.2647 70.0801C86.6892 69.9309 87.0701 69.8561 87.4683 69.6397C87.8249 69.4478 88.207 69.1031 88.5839 68.9773C89.0337 68.826 89.4844 68.8571 89.9484 68.6956C90.7436 68.4196 91.5763 68.2566 92.3301 67.9298C93.3058 67.508 94.2936 67.1258 95.2854 66.7193C95.795 66.5088 96.1305 66.2192 96.5541 65.8877C97.0344 65.5153 97.4588 65.5168 98.0079 65.3318C98.5367 65.156 98.9947 64.8051 99.5307 64.6241C99.9744 64.4718 100.444 64.4244 100.886 64.2843C101.406 64.1258 101.903 63.838 102.403 63.6133C102.794 63.4397 103.144 63.1022 103.582 63.0558L103.354 62.9237L103.346 62.9349Z" fill="#211E1F"/>
<path d="M120.692 90.0844C119.721 90.1049 118.517 88.8619 117.805 88.2976C116.871 87.5644 116.099 86.6508 115.038 86.0849C114.82 85.967 114.128 85.5503 113.917 85.6911C113.671 85.8574 113.709 86.7556 113.403 87.0564C112.471 87.963 111.219 86.0713 110.38 86.5724C110.082 86.7489 110.209 87.6745 109.778 87.9358C109.258 88.245 108.751 87.7273 108.256 87.7391C107.641 87.7561 107.79 88.1389 107.578 88.6626C107.305 89.327 107.102 89.2305 106.512 89.1009C105.885 88.9652 106.096 89.0505 105.763 89.6233C105.484 90.0982 105.228 90.2879 104.713 90.1898C103.969 90.0471 104.125 89.8218 103.743 90.5434C103.55 90.9133 103.335 91.38 102.862 91.3704C102.277 91.361 102.215 90.7164 101.736 91.2333C101.385 91.6147 101.481 92.0138 101.01 92.218C100.72 92.3457 100.142 92.4065 99.8086 92.4579C99.3862 92.5195 99.0367 92.6686 98.6193 92.7374C97.9721 92.837 96.6134 91.807 97.1251 93.0855C97.469 93.9467 98.141 94.7494 98.7837 95.3902C100.022 96.62 101.79 97.5924 103.492 97.2664C104.466 97.0829 105.263 96.9455 106.099 96.425C106.936 95.8985 107.742 95.4483 108.614 95.047C109.628 94.5813 110.582 94.1371 111.587 93.6195C112.501 93.1499 113.225 92.6673 114.242 92.3717C115.844 91.9032 117.313 90.992 118.93 90.5826C119.288 90.4915 119.612 90.3505 119.972 90.2849L120.686 90.0834L120.692 90.0844Z" fill="#211E1F"/>
<path d="M50.5866 85.7077C50.4722 84.0304 50.2447 81.7942 49.5174 80.2725C48.3315 80.0815 47.2806 82.6076 46.1815 81.1434C45.8289 81.3485 45.6037 81.8764 45.2622 82.165C44.6096 82.7097 44.6808 82.2442 44.1503 81.867C43.8948 82.1637 43.7042 82.5214 43.4508 82.8435C42.9723 83.4674 42.9309 83.3035 42.3223 83.0578C41.7137 82.8121 41.672 83.138 41.1976 83.6244C40.7456 84.0894 40.4173 84.2609 39.7996 83.9948C39.2741 83.7755 39.33 83.5147 38.8061 83.9237C38.5112 84.1573 38.2433 84.8665 37.8766 84.9311C37.3549 85.0265 37.5285 84.4335 36.8465 85.0424C36.4654 85.381 36.283 85.6144 36.2299 86.196C36.1514 87.0812 36.6915 88.2639 36.937 89.115C37.2443 90.1586 37.4688 90.7235 38.6287 90.5082C39.673 90.3114 40.5403 89.9406 41.5119 89.5055C42.5514 89.0378 43.4997 88.5926 44.5706 88.1991C45.1491 87.9876 45.5738 87.5369 46.1067 87.2613C46.6336 86.9846 47.2181 86.8118 47.7207 86.5311C48.2293 86.2514 48.5891 85.8527 49.1878 85.6697C49.589 85.548 50.0529 85.4996 50.4075 85.3952L50.5734 85.7118L50.5866 85.7077Z" fill="#211E1F"/>
<path d="M55.1908 100.411C54.3234 99.507 53.6548 98.083 53.1897 96.7871C52.9895 96.2262 52.7985 95.5726 52.4909 95.0567C52.1935 94.5549 51.7196 94.3254 51.3289 93.8961C51.0167 94.3089 50.9368 95.6147 50.2592 95.7092C49.6321 95.7996 49.5993 94.8708 48.972 95.338C48.5444 95.6563 48.416 96.8786 47.6868 96.8327C46.9018 96.7838 46.9169 95.3793 46.182 96.2683C45.6438 96.9136 45.7384 97.8087 44.6479 97.2693C43.6505 96.7705 43.9045 97.1959 43.2679 97.9442C42.75 98.5427 42.2172 98.6299 41.5357 98.3344C40.7894 98.0155 40.7863 98.0715 40.2076 98.6976C39.4991 99.4653 39.5148 98.7331 38.7419 98.7615C37.9873 98.793 37.8724 99.5214 37.9986 100.152C38.2339 101.29 38.7311 103.031 39.706 103.74C40.6931 104.45 42.104 104.528 43.2849 104.712C44.6551 104.921 45.8545 104.731 47.1412 104.166C48.6842 103.487 50.1312 102.559 51.6641 101.904C52.4706 101.56 52.9176 100.938 53.8091 100.759C54.4098 100.639 55.05 100.507 55.5768 100.306L55.203 100.413L55.1908 100.411Z" fill="#211E1F"/>
<path d="M64.3746 111.311C63.4822 111.382 62.5479 110.504 61.8787 110.022C61.3553 109.64 60.7893 109.288 60.2973 108.867C59.9693 108.587 59.7154 108.161 59.3478 107.93C58.3627 107.321 58.7611 108.417 58.2797 108.871C57.6574 109.458 56.9399 108.516 56.4423 108.955C56.2518 109.124 56.3061 109.623 56.1125 109.848C55.7497 110.265 55.6232 110.049 55.1655 109.91C54.6369 109.747 54.8547 109.639 54.3834 110.069C54.0237 110.393 54.2272 110.521 53.6266 110.452C53.265 110.411 52.9066 110.2 52.5338 110.302C51.9594 110.451 52.2042 110.856 51.8496 111.111C51.3875 111.449 50.3606 111.165 49.844 111.267C49.3142 111.374 48.7195 111.608 48.1553 111.659C47.6924 111.701 46.8174 111.593 46.5022 111.836C45.4969 112.623 48.4015 114.758 49.0941 115.1C49.7228 115.412 50.3284 115.638 51.0171 115.778C51.7665 115.928 52.2569 115.682 52.967 115.581C54.3243 115.379 55.925 114.842 57.236 114.281C57.928 113.988 58.6544 113.751 59.3281 113.417C60.009 113.078 60.7302 112.984 61.3453 112.59C61.6533 112.39 61.7699 112.215 62.1569 112.141C62.5053 112.074 62.7596 112.047 63.0939 111.914C63.4931 111.767 63.5275 111.747 63.9276 111.707C64.2325 111.676 64.5617 111.725 64.8474 111.584L64.3685 111.309L64.3746 111.311Z" fill="#211E1F"/>
<path d="M45.362 38.66C45.5888 38.7229 45.7802 38.8112 45.8784 38.9343C45.69 38.903 45.5199 38.7993 45.362 38.66Z" fill="#DD4C97"/>
<path d="M37.9959 41.0839C36.8507 40.46 35.6701 39.937 34.5432 39.2784C31.9431 37.753 29.205 36.6442 26.8382 34.7304C25.6487 33.7725 24.4247 32.834 23.1673 31.9842C22.2905 31.3987 21.4676 30.5269 20.4509 30.2195C20.5061 29.4373 23.6923 29.8794 24.225 29.9429C25.7057 30.1264 27.1528 30.5117 28.4894 31.1109C29.9941 31.7883 31.8353 32.1323 33.4455 32.4379C34.7408 32.6848 36.1484 33.233 37.4795 32.8891C37.3999 32.2038 36.6166 31.2067 36.2686 30.5961C35.5189 29.2842 34.8654 28.0323 34.2282 26.645C33.8064 25.7269 33.2539 24.8812 32.8392 23.958C32.3932 22.9605 32.2602 21.8455 31.9843 20.8009C31.5448 19.1261 31.238 17.442 30.7184 15.7978C30.302 14.4723 29.6879 13.2836 29.2887 11.9672C30.0861 11.566 32.3352 13.8496 33.0479 14.4078C34.4126 15.4765 35.9668 16.269 37.442 17.1613C38.5081 17.8098 39.4001 18.3413 40.2909 19.1804C41.1219 19.9656 42.1669 20.4033 43.0994 21.0295C44.1948 21.7645 44.9185 22.67 45.8051 23.6089C46.1979 24.026 46.9286 24.9264 47.4634 24.94C47.4414 22.895 47.4285 20.908 47.9858 18.9468C48.7266 19.8615 49.2637 20.9872 49.8982 21.9784C50.31 22.6185 51.0261 24.132 51.739 24.4641C52.3895 24.0448 52.7355 23.0534 53.1279 22.4215C53.7403 21.443 54.2099 20.4973 54.7716 19.4853C55.1732 18.7607 55.5474 18.1257 55.9003 17.3553C56.2827 16.5207 56.899 15.8193 57.2854 14.9979C57.6211 14.2938 57.81 13.4961 58.083 12.7564C58.7191 11.0344 59.3148 9.21779 60.4957 7.78744C60.7203 8.20167 60.573 8.89949 60.5909 9.39239C60.6398 10.6379 60.8213 11.9117 61.016 13.1438C61.3902 15.5112 61.647 17.9093 61.7427 20.2995C61.9053 24.202 61.3406 28.1593 62.1069 31.9989C62.4514 31.8804 62.9074 31.5417 63.2296 31.2938C64.5662 30.2788 65.9991 29.173 67.2629 28.0705C68.0676 27.3627 68.7638 26.706 69.6343 26.0531C70.3122 25.544 70.971 24.9627 71.6347 24.4262C72.3056 23.8846 73.1287 22.916 73.9503 22.6319C74.0742 23.6512 73.4434 24.9281 73.0437 25.8289C72.3834 27.3207 71.9904 28.8947 71.3027 30.4008C69.7032 33.8971 67.9801 37.3476 66.414 40.8306C66.0753 41.5908 65.7162 42.3602 65.3632 43.1306C66.9831 44.3171 68.8523 45.2059 70.61 46.1264C72.0579 46.8823 74.1979 47.1944 75.3579 48.3295C74.6803 48.2733 73.9965 48.4799 73.3391 48.6406C72.5915 48.8177 71.8299 48.6659 71.0742 48.7412C70.3054 48.8206 69.5842 48.9142 68.7982 48.8713C68.1541 48.8396 67.3773 48.7794 66.7724 48.9991C67.5607 50.1918 68.7864 51.4949 69.9244 52.35C71.1453 53.2691 72.1362 54.3699 73.3145 55.3196C72.5781 55.4672 71.609 55.1741 70.8717 55.064C69.7515 54.8902 68.6477 54.5809 67.5367 54.3898C66.1229 54.1421 64.6132 53.4952 63.2013 53.3859C63.2172 53.8157 63.7142 54.4323 63.9246 54.819C64.222 55.3584 64.5995 55.8672 64.9375 56.3882C65.495 57.2409 65.7718 58.3925 66.4459 59.1453C65.7714 59.0331 65.0638 58.4443 64.4289 58.1314C63.5054 57.6763 62.6368 57.1172 61.7316 56.6274C60.4821 55.9548 58.5124 55.558 57.6187 54.3981C57.8671 54.1065 56.7473 51.8663 56.3316 50.8361C56.192 50.6622 56.1303 50.5074 56.182 50.3841C56.174 50.2823 56.2044 50.2497 56.2601 50.2527C56.6108 49.796 57.6957 49.6561 58.1841 49.3856C58.9258 48.9814 59.7262 48.6372 60.4193 48.1118C60.9412 47.715 61.9677 46.9122 61.9196 46.1505C61.8745 45.4081 60.9286 45.2005 60.2543 44.8245C59.2266 44.2452 59.6055 44.0696 60.1318 43.1208C60.579 42.3095 60.9614 41.4373 61.3792 40.6149C61.7403 39.9086 62.0932 39.1383 62.3763 38.3751C62.771 37.3164 62.464 37.435 61.4409 37.5411C60.507 37.637 59.5539 37.6606 58.6169 37.7371C57.7874 37.8064 56.9292 38.1598 56.0917 38.0519C55.9899 37.1996 56.1971 36.2919 56.1177 35.4182C56.0533 34.6789 55.9768 33.9752 55.9833 33.2226C55.9879 32.4068 55.8841 31.6044 55.8583 30.8212C55.8415 30.2092 56.2572 29.4367 55.7096 28.8996C55.2484 29.3819 54.9188 30.1248 54.4576 30.6824C53.8007 31.4776 53.1236 32.2444 52.563 33.0995C51.836 34.2034 51.435 35.6756 50.6008 36.6736C49.4647 36.1455 49.2157 34.3014 48.4951 33.4152C48.061 34.3354 47.8414 35.5802 47.6179 36.6234C46.7586 35.6702 45.7636 34.7446 44.9975 33.719C44.2709 32.7564 43.7215 31.8548 42.7161 31.1788C42.5604 32.34 43.4889 34.3411 43.8498 35.4752C44.0873 36.2245 44.5582 37.9736 45.3367 38.6621C44.9731 38.5576 44.5255 38.5083 44.2581 38.4261C43.4966 38.1989 42.8009 37.9136 42.0638 37.6151C41.198 37.2638 39.2458 36.3486 38.4502 37.0768C39.0403 37.6209 39.5952 37.9644 40.1225 38.6237C40.5819 39.2027 41.0465 39.7134 41.6023 40.2015C42.4749 40.9622 43.4539 41.6464 44.3477 42.3918C44.94 42.8861 45.5019 43.1491 44.83 43.8099C44.457 44.175 43.833 44.2847 43.3467 44.43C42.5322 44.6713 40.7282 44.8172 40.2133 45.4727C41.559 46.0546 43.6018 46.3504 44.7062 47.2565C44.0162 47.6505 42.9756 48.3127 42.5457 48.9824C44.1683 48.9508 45.7927 47.7827 47.3283 47.5985C47.1027 48.7669 46.5926 49.731 46.1432 50.8182C45.8622 51.4938 45.1189 52.8462 45.315 53.5446C46.1357 53.1535 46.8392 52.2279 47.6154 51.6913C48.0744 51.3719 48.8365 50.7324 49.3602 50.7002C49.9619 52.113 50.1118 53.8024 50.8169 55.1571C51.3643 54.3437 51.7426 53.5336 52.1939 52.6602C52.5519 51.9723 52.618 51.5751 53.2884 51.7494C54.3234 52.0221 55.5512 53.2376 56.43 53.8486C56.6203 53.9807 57.1074 54.2062 57.2126 54.4373C57.3724 54.7905 57.182 54.7337 57.1787 55.0912C57.1803 55.7949 57.1049 56.5487 57.0862 57.2616C57.0498 58.7567 57.3283 60.3859 56.7703 61.7879C55.8721 61.5192 55.0954 59.6187 54.4435 58.9575C53.4665 59.913 53.0417 62.1287 52.58 63.4023C52.1407 64.6168 51.2658 65.8594 51.11 67.1713C50.0677 65.591 50.0277 63.3169 49.3796 61.5446C48.7598 59.8649 48.6151 57.9565 47.8008 56.3575C47.3344 55.4446 47.1955 55.679 46.5032 56.5374C45.8352 57.3621 45.3109 58.3364 44.569 59.0798C43.3021 60.3514 41.7534 62.0408 40.1738 62.9024C40.6105 60.9902 41.0675 59.0689 41.3878 57.1059C41.5424 56.1769 41.7092 55.1745 41.9133 54.2475C41.9946 53.8716 42.7542 52.3837 42.4607 51.9706C42.1369 51.5147 40.5203 51.6604 40.0169 51.5703C38.6457 51.3297 37.2714 51.0696 35.8981 50.8035C33.8048 50.3987 31.8646 49.5986 29.8616 48.8759C27.7756 48.1269 25.7259 47.5347 23.6399 46.861C24.5185 46.0462 26.8138 45.9507 27.9655 45.7466C29.2773 45.5188 30.5466 45.2464 31.8514 44.9861C33.1622 44.7268 34.5053 44.611 35.8152 44.2448C36.8039 43.9696 38.0853 43.7745 38.9193 43.1532C40.1151 42.2718 38.972 41.598 37.9929 41.0645L37.9959 41.0839Z" fill="#DD4C97"/>
<path d="M84.6328 73.4705C91.8295 69.8879 99.3218 66.5554 106.924 63.9509C107.434 63.7782 107.139 62.9943 106.63 63.1671C99.0286 65.7654 91.5353 69.104 84.3386 72.6867C83.8624 72.9215 84.1495 73.7105 84.6328 73.4705Z" fill="#211E1F"/>
<path d="M113.986 77.2043C106.559 80.9747 98.8434 84.3706 91.179 87.6116C90.6887 87.819 90.9768 88.6018 91.4733 88.3955C99.1377 85.1544 106.853 81.7585 114.281 77.9882C114.752 77.7462 114.464 76.9634 113.986 77.2043Z" fill="#211E1F"/>
<path d="M84.7888 108.269C91.9391 105.903 98.9675 102.544 105.665 99.1102C111.836 95.9474 118.772 93.7471 124.563 89.9431C125.109 89.588 124.522 88.7618 123.976 89.1169C117.623 93.2922 109.779 95.9255 102.976 99.3539C97.0462 102.343 90.7464 105.227 84.4349 107.318C83.82 107.523 84.1749 108.468 84.7959 108.263L84.7888 108.269Z" fill="#1D1D1D"/>
<path d="M102.877 99.2369C87.9773 90.9418 81.7603 72.0442 83.4945 55.8009C83.5648 55.1531 82.5683 54.9873 82.498 55.6351C80.7056 72.3775 87.1271 91.6232 102.449 100.158C103.015 100.472 103.437 99.5499 102.871 99.2359L102.877 99.2369Z" fill="#1D1D1D"/>
<path d="M69.9758 111.237C55.2642 106.051 50.171 83.1763 54.2341 69.6382C54.4189 69.0157 53.4274 68.857 53.2376 69.4724C49.0354 83.4711 54.3704 106.807 69.5488 112.152C70.1564 112.367 70.5844 111.445 69.9708 111.23L69.9758 111.237Z" fill="#1D1D1D"/>
<path d="M82.4963 55.0444C80.9792 54.8925 79.5464 55.8099 78.2029 56.4155C75.2648 57.7482 72.3388 59.083 69.4734 60.5785C65.9465 62.41 62.4924 64.329 58.8683 65.9559C56.9251 66.826 55.0093 67.5311 53.6489 69.2519C53.2455 69.7627 54.0179 70.4125 54.4213 69.9017C56.177 67.6814 59.3387 66.9197 61.8027 65.7343C64.7956 64.2976 67.6763 62.635 70.6267 61.1159C73.2975 59.7387 79.0977 55.729 82.3235 56.0458C82.9687 56.1091 83.1344 55.1129 82.4903 55.0434L82.4963 55.0444Z" fill="#1D1D1D"/>
<path d="M83.4007 56.8908C86.5144 54.9529 90.0583 53.5451 93.4048 52.0479C96.2984 50.758 100.205 47.8465 103.367 47.7947C104.012 47.7827 103.912 46.7735 103.266 46.7855C99.7963 46.8489 96.1734 49.7071 93.0499 51.1032C89.6224 52.6371 86.0167 54.0787 82.8198 56.0655C82.2686 56.4135 82.8565 57.2336 83.4067 56.8918L83.4007 56.8908Z" fill="#1D1D1D"/>
<path d="M106.356 62.6002C103.83 61.1184 102.245 58.4806 101.492 55.6859C101.088 54.174 100.906 52.5671 101.153 51.0065C101.47 49.0243 103.145 46.916 105.185 48.4677C107.387 50.1341 108.477 53.0415 109.144 55.6336C109.638 57.5497 110.455 63.4831 106.832 62.7421C106.198 62.6116 106.031 63.6139 106.665 63.7445C109.83 64.3903 110.757 60.845 110.629 58.3113C110.445 54.4995 108.544 48.7313 104.77 47.0169C101.241 45.4121 100.046 49.8174 100.03 52.5407C100.01 56.8274 102.201 61.3374 105.922 63.5204C106.478 63.8517 106.901 62.9233 106.344 62.5981L106.356 62.6002Z" fill="#1D1D1D"/>
<path d="M105.535 65.8052C105.491 63.1787 108.377 64.1487 109.417 64.843C110.564 65.6054 111.447 66.9833 112.178 68.1414C113.207 69.7635 115.391 72.7774 115.099 74.8707C114.714 77.5955 112.037 77.3575 110.339 75.9317C109.418 75.1629 108.634 74.1658 107.949 73.1788C106.409 70.9503 105.678 68.511 105.54 65.8123C105.505 65.1595 104.5 65.2687 104.536 65.9154C104.76 70.1671 106.701 74.5603 110.208 77.1286C112.663 78.9251 116.352 78.1129 116.118 74.5629C115.996 72.7461 114.999 71.0792 114.146 69.524C113.039 67.5058 111.733 65.0713 109.713 63.8181C107.509 62.4592 104.49 62.9304 104.543 65.9164C104.553 66.5652 105.557 66.4621 105.546 65.8133L105.535 65.8052Z" fill="#1D1D1D"/>
<path d="M124.082 88.7766C121.327 88.4062 119.112 86.6685 117.501 84.4533C116.257 82.7388 113.222 76.8824 117.165 76.6026C121.374 76.304 129.547 86.5577 124.038 88.7441C123.436 88.9831 123.79 89.9339 124.399 89.6897C127.595 88.4188 126.824 84.6098 125.618 82.0978C124.109 78.9323 120.748 75.2202 116.89 75.5895C113.255 75.9332 114.059 79.8481 115.115 82.2789C116.705 85.9351 119.854 89.2289 123.922 89.78C124.563 89.8678 124.729 88.8654 124.088 88.7776L124.082 88.7766Z" fill="#1D1D1D"/>
<path d="M120.103 74.8614C117.648 74.9368 115.207 71.2582 114.051 69.5333C113.271 68.3672 112.616 67.1214 112.083 65.8205C111.865 65.2942 111.665 64.771 111.493 64.2274C111.134 63.081 110.198 60.4505 113.927 61.9064C115.98 62.7063 117.729 66.006 118.785 67.8399C119.353 68.8199 119.861 69.8215 120.225 70.8995C120.304 71.1327 121.275 75.358 120.225 75.064C119.598 74.8906 119.437 75.894 120.058 76.0663L120.32 76.1414C120.494 76.189 120.673 76.0869 120.794 75.9625C122.962 73.704 121.092 69.8882 119.826 67.6298C118.544 65.3501 114.79 58.8591 111.272 60.2649C108.388 61.4183 111.294 66.7004 112.126 68.2647C113.515 70.8763 116.695 75.9778 120.215 75.8726C120.862 75.8545 120.761 74.8453 120.115 74.8635L120.103 74.8614Z" fill="#1D1D1D"/>
<path d="M116.15 63.8213C117.844 65.5037 121.436 66.5472 122.006 63.3069C122.368 61.2441 120.983 58.9848 119.99 57.2934C118.873 55.374 117.139 53.6723 115.49 52.2109C114.015 50.904 109.981 48.4678 109.573 51.93C109.14 55.5827 112.191 59.8838 114.599 62.3007C115.059 62.7604 115.702 61.9754 115.246 61.5228C113.598 59.8668 112.174 57.6199 111.257 55.47C110.926 54.6863 110.135 52.6829 110.589 51.7912C111.384 50.2402 113.955 52.2443 114.565 52.7416C116.28 54.1449 118.053 55.9851 119.173 57.8861C119.772 58.9028 121.513 61.8806 121.016 63.1421C120.068 65.5346 117.865 64.1003 116.798 63.0434C116.337 62.5837 115.695 63.3687 116.15 63.8213Z" fill="#1D1D1D"/>
<path d="M110.44 50.058C109.634 50.3636 108.778 50.5164 107.986 50.8494C107.388 51.1017 107.742 52.0524 108.347 51.7951C109.145 51.4631 109.995 51.3092 110.801 51.0037C111.408 50.7718 111.053 49.8271 110.44 50.058Z" fill="#1D1D1D"/>
<path d="M121.393 65.6419C122.43 63.6475 125.879 67.1294 126.76 67.9858C129.041 70.193 130.284 73.3079 130.75 76.438C130.807 76.8433 130.909 77.2811 130.879 77.6905C130.812 78.5023 130.448 79.8298 129.363 79.9696C127.513 80.2021 125.376 77.3969 124.509 76.1158C122.855 73.6675 120.285 68.6609 121.399 65.6429C121.625 65.0336 120.71 64.605 120.482 65.2204C118.97 69.3215 122.457 75.7996 125.258 78.6711C127.194 80.6578 131.507 82.5874 131.878 78.4032C132.244 74.3249 130.062 69.6845 127.17 66.9862C125.678 65.5948 122.049 62.2212 120.481 65.2265C120.179 65.8043 121.096 66.2269 121.398 65.649L121.393 65.6419Z" fill="#1D1D1D"/>
<path d="M57.6084 100.707C54.5254 101.896 51.4444 103.262 48.4121 104.597C45.4334 105.911 42.5912 107.68 39.3111 105.175C37.421 103.736 36.2418 100.952 36.1106 98.6253C35.8232 93.4835 39.644 93.0765 43.2904 91.3151C46.5032 89.758 49.796 88.2456 53.1999 87.1537C53.8199 86.9553 53.4589 86.0096 52.8389 86.208C49.9294 87.1435 46.9022 88.3734 44.1645 89.7395C41.9385 90.8453 38.2381 91.5801 36.3207 93.158C34.0497 95.0225 34.8343 98.7144 35.644 101.242C39.3154 112.694 50.8877 104.394 57.9612 101.664C58.5681 101.432 58.2081 100.48 57.6003 100.718L57.6084 100.707Z" fill="#1D1D1D"/>
<path d="M37.7331 92.3629C34.4781 91.8465 33.8024 87.3876 33.7119 84.7031C33.5807 80.8372 36.0073 79.6141 39.2301 78.1466C43.8036 76.0684 48.291 73.756 52.9201 71.7938C53.5178 71.5415 53.1639 70.5908 52.5591 70.8482C48.5744 72.5407 44.8274 74.7187 40.8498 76.4061C38.8813 77.2406 34.2496 78.6559 33.1717 80.5556C31.1578 84.1023 33.0879 92.6579 37.5654 93.3713C38.2034 93.4775 38.3702 92.4751 37.7321 92.369L37.7331 92.3629Z" fill="#1D1D1D"/>
<path d="M44.2488 106.838C41.7461 111.447 44.6381 115.759 49.2445 117.537C51.3284 118.336 53.3462 118.106 55.4585 117.459C60.077 116.048 64.2889 113.815 69.0552 112.717C69.6782 112.576 69.5846 111.562 68.9545 111.708C65.4151 112.526 61.9098 113.664 58.5634 115.086C56.6617 115.894 54.6728 116.964 52.5609 117.046C47.6322 117.243 42.3217 112.491 45.1591 107.26C45.4734 106.684 44.5571 106.261 44.2427 106.837L44.2488 106.838Z" fill="#1D1D1D"/>
<path d="M106.209 56.7972C112.225 59.9398 122.529 60.4984 127.871 55.5268C128.344 55.0903 127.764 54.259 127.285 54.7006C122.2 59.4386 112.308 58.8418 106.631 55.875C106.057 55.5722 105.635 56.4945 106.209 56.7972Z" fill="#1D1D1D"/>
<path d="M110.225 70.5738C114.569 69.3494 118.843 66.028 122.278 63.2138C124.749 61.1943 127.846 58.3052 128.684 55.1093C128.852 54.4776 127.854 54.3179 127.687 54.9435C126.768 58.446 122.638 61.7601 119.932 63.7596C116.935 65.9744 113.474 68.6083 109.865 69.622C109.242 69.801 109.603 70.7467 110.226 70.5677L110.225 70.5738Z" fill="#1D1D1D"/>
<path d="M117.923 70.8433C123.11 68.4211 128.582 60.9777 128.809 55.1111C128.834 54.4685 127.839 54.2966 127.812 54.9453C127.603 60.4065 122.41 67.6327 117.563 69.8915C116.981 70.1652 117.329 71.115 117.924 70.8372L117.923 70.8433Z" fill="#1D1D1D"/>
<path d="M120.726 83.3127C126.889 74.3825 128.755 64.3668 128.875 53.7718C128.884 53.12 127.879 53.2292 127.871 53.8749C127.754 64.1878 125.944 73.9804 119.954 82.6629C119.584 83.198 120.356 83.8479 120.726 83.3127Z" fill="#1D1D1D"/>
<path d="M128.292 55.1006C131.701 48.8716 138.847 37.9756 132.183 31.2265C125.101 24.0563 120.186 38.2126 115.374 40.3329C114.782 40.5923 115.136 41.5431 115.735 41.2786C117.542 40.4799 118.702 39.5109 119.916 37.9227C122.475 34.5862 127.281 25.4804 132.296 33.249C136.789 40.2085 130.633 48.7253 127.376 54.678C127.061 55.2539 127.979 55.6703 128.292 55.1006Z" fill="#1D1D1D"/>
<path d="M113.981 39.8875C109.432 38.3268 108.403 29.0104 107.403 25.1507C106.497 21.6585 105.85 17.7444 102.86 15.3691C97.9178 11.444 91.4475 13.2129 87.5634 17.4912C87.1266 17.9775 87.9 18.6212 88.3358 18.141C93.651 12.2794 102.351 13.2116 105.297 21.1763C106.554 24.5824 107.07 28.3113 108.083 31.7962C109.003 34.9767 110.079 39.6154 113.56 40.8036C114.169 41.0117 114.597 40.0905 113.982 39.8814L113.981 39.8875Z" fill="#1D1D1D"/>
<path d="M86.6715 18.4231C82.0972 23.5475 80.0581 30.174 78.089 36.6425C76.7106 41.1743 75.8018 46.2615 73.0757 50.2236C65.24 61.6267 52.5742 51.9509 51.8849 41.7174C51.8428 41.0697 50.839 41.1728 50.8811 41.8205C51.4891 50.8534 60.5936 60.5774 69.8912 55.1395C73.9512 52.7686 75.6976 47.7517 77.0737 43.5336C79.8057 35.1443 81.4029 25.8439 87.4459 19.0607C87.8828 18.5744 87.1033 17.9297 86.6735 18.4109L86.6715 18.4231Z" fill="#1D1D1D"/>
<path d="M56.1214 56.4541C55.7339 57.357 55.3393 58.2649 54.9518 59.1677C54.6362 58.5499 54.2993 57.9474 53.9421 57.3541C54.4475 57.3942 52.2943 55.6604 52.8359 56.1211C52.5949 55.9177 52.2089 56.0608 52.1571 56.3725C51.8967 58.0879 50.3048 67.0562 47.41 62.3852C46.469 60.8719 47.1267 57.219 46.665 55.3018C46.6297 55.1389 46.3968 54.9997 46.2347 55.0355C43.8642 55.5833 42.4614 57.2594 40.7576 58.9796C34.9644 64.7869 40.321 54.4348 41.071 52.1037C41.1471 51.8714 41.0592 51.5365 40.7634 51.5124C37.7179 51.2758 35.0386 50.0764 32.1555 49.201C29.8791 48.5083 26.9758 49.1056 28.1352 46.4909C29.4427 43.549 36.1443 44.2556 39.0692 43.1154C39.2698 43.0357 39.3996 42.7809 39.3086 42.5773C37.0502 37.4217 27.8131 35.4768 23.924 31.7144C22.9401 30.7593 20.2718 29.9448 22.8604 28.7989C23.1836 28.6579 28.0757 30.2569 29.0803 30.4869C32.1114 31.1858 34.5553 32.9365 37.6428 32.4327C37.8677 32.3947 38.036 32.2091 38.0128 31.9729C37.4582 26.5605 32.0831 21.5962 32.1878 16.237C32.2139 15.0291 31.1292 13.3286 33.8415 13.5412C34.7662 13.6134 36.7113 16.1479 37.4179 16.7805C40.6106 19.6231 43.7648 22.5848 47.1938 25.1338C47.4044 25.2945 47.7245 25.2472 47.836 24.9894C48.2042 24.165 47.9505 21.8616 48.1522 21.5874C49.7529 19.3978 51.3118 23.9534 52.4541 25.9461C52.5988 26.2026 53.0789 26.1694 53.1712 25.877C54.036 23.119 55.6925 20.744 56.9582 18.1657C58.1468 15.7505 60.0967 7.67083 61.9537 13.325C63.9412 19.3588 60.9223 26.5446 62.3384 32.7472C62.3929 32.9824 62.6328 33.2296 62.8993 33.0918C65.3015 31.9023 73.1518 24.6535 74.3165 27.9375C75.09 30.1201 68.5242 38.619 66.9739 41.2567C66.7031 41.7204 67.4575 42.0657 67.7272 41.6081C70.4345 37.0085 75.8209 30.6814 75.7859 25.2989C75.7819 25.135 75.6078 24.9427 75.4417 24.9276C73.5802 24.8189 72.9913 25.4307 71.3346 26.5307C69.8116 27.5398 67.7774 29.6699 66.0966 30.3136C60.6481 32.3969 62.9871 27.2336 63.0589 24.1364C63.1528 19.8558 64.2294 12.0705 61.4434 8.35966C61.244 8.09409 60.8783 8.1526 60.7262 8.42879C58.6718 12.1069 56.9399 19.8523 53.6312 22.5868C51.199 24.5942 54.0168 24.6609 51.3545 22.2332C50.0102 21.0046 49.3906 18.9858 47.9258 17.6932C47.6919 17.4847 47.2918 17.638 47.247 17.9446C47.1086 18.8888 47.7315 22.089 47.4315 22.5039C45.9179 24.6201 42.4042 19.9905 41.5873 19.2705C38.107 16.2042 34.8237 12.4421 30.4197 10.8364C30.1251 10.7308 29.7998 10.9217 29.831 11.2597C30.1509 14.7047 38.3616 29.9142 35.3373 31.3142C34.5926 31.6614 29.0413 29.6701 28.0884 29.4299C25.2184 28.7012 22.6951 27.5403 19.6866 27.9066C19.4384 27.9344 19.2225 28.2188 19.3429 28.4712C21.3547 32.7442 27.7432 35.484 31.6574 37.8562C32.9564 38.6439 36.6496 39.7921 37.0144 41.0902C37.6773 43.4491 33.712 43.4113 31.7894 43.707C28.5155 44.205 25.3853 44.8902 22.4733 46.4785C22.2119 46.6235 22.2571 47.1021 22.5407 47.1995C27.0591 48.7175 39.8224 50.0745 38.9925 55.3256C38.5369 58.2145 34.9914 60.6082 36.8643 63.5013C36.9787 63.6773 37.2744 63.7391 37.4477 63.5983C40.1048 61.3646 43.3103 55.4598 46.4342 59.88C47.7133 61.6882 46.9826 65.5551 48.5662 67.8599C48.7575 68.1367 49.1333 68.0548 49.2834 67.7908C50.2589 66.0562 52.1346 58.3473 52.7028 58.3476C54.1765 58.3478 54.5863 60.539 56.1021 61.2246C56.2236 61.2825 56.411 61.2822 56.5205 61.1874C57.9951 59.831 57.3764 57.9568 56.9015 56.1568C56.7631 55.6376 55.989 55.9359 56.1214 56.4541Z" fill="#211E1F"/>
<path d="M51.2697 51.9098C50.0599 54.1518 50.0417 50.8827 49.1824 49.8541C49.0468 49.6933 48.7876 49.6 48.5991 49.757C46.1507 51.8245 48.1301 48.1841 47.2335 46.9672C46.5302 46.0148 45.3973 46.7057 44.873 46.1411C43.21 44.3507 45.5058 44.9273 45.8215 43.9686C46.2213 42.7663 46.3801 43.088 45.5646 41.7966C45.515 41.7192 41.9223 38.6531 42.1098 38.4644C42.2973 38.2758 45.5712 39.3543 46.2327 39.2445C46.4768 39.2035 46.5944 39.0221 46.6027 38.7848C46.6708 36.7233 43.7867 34.3906 44.0422 32.3667C44.2631 30.6259 46.7311 35.8729 47.541 36.598C48.4702 37.431 48.2454 37.3559 49.3252 37.2089C49.6443 37.1678 49.4443 36.3054 49.5811 36.2339C50.3886 35.8093 48.6966 35.0567 49.9347 36.0604C49.5439 35.7441 51.4462 38.8368 50.8017 37.756C50.9281 37.9718 51.317 37.9988 51.46 37.7776C52.1129 36.7807 52.2969 35.7122 52.8891 34.7052C54.2113 32.463 53.793 34.0014 53.6906 35.8561C53.6045 37.4246 53.2175 39.0373 53.7118 40.5704C53.7745 40.7567 53.9669 40.839 54.1421 40.8367C55.3951 40.8128 56.8651 40.2345 58.1117 40.5487C59.6507 39.8939 59.7404 40.5558 58.387 42.5353C57.9438 43.4728 57.4611 44.3849 56.9429 45.2849C56.7746 45.5458 56.8584 45.9052 57.1916 45.9669C58.4839 46.1945 59.7441 45.8639 58.6919 47.1963C58.1303 47.9069 56.6858 48.257 55.9006 48.5472C55.3951 48.7332 55.6893 49.517 56.1948 49.331C57.753 48.7486 59.1411 48.1002 60.5131 47.1727C60.7451 47.0166 60.7311 46.6876 60.5358 46.5107C60.0802 46.0957 58.2576 45.3026 58.1353 44.9493C57.9422 44.3833 60.2134 40.6784 60.4732 39.7921C60.5463 39.5404 60.268 39.2617 60.0167 39.3079C58.3676 39.6114 55.381 40.5969 54.3012 39.2427C53.4328 38.156 54.7496 33.3565 54.5552 31.5969C54.5089 31.1621 53.96 31.121 53.7653 31.4655C52.9439 32.874 51.2717 37.5578 50.1102 34.0294C49.993 33.6832 49.4926 33.6879 49.3465 34.0028C48.097 36.6717 47.6007 35.113 46.3581 33.1602C45.6063 31.9736 44.7981 30.3003 43.3185 29.9599C43.1322 29.9164 42.9609 30.0449 42.8727 30.1998C42.1386 31.4972 43.7304 33.7531 44.2107 34.9197C45.1512 37.2243 46.2365 38.058 43.1302 37.8114C42.1933 37.7372 41.4095 37.4937 40.4664 37.6446C40.0947 37.7021 39.9931 38.1249 40.2441 38.3802C42.0337 40.1979 45.3969 41.0024 43.6275 44.1689C43.3699 44.6285 42.4672 44.9494 42.1073 45.5365C41.9866 45.7363 42.1303 45.9989 42.3085 46.0913C43.7746 46.8503 46.1477 46.9624 46.5069 49.0824C46.6401 49.8583 45.9657 51.2849 45.9853 52.2178C45.9922 52.5518 46.3963 52.6756 46.6415 52.5154C48.7876 51.1011 49.0942 53.1998 49.7484 54.8977C49.8536 55.1665 50.2769 55.2871 50.4594 55.016C51.0576 54.1231 51.4977 53.2039 52.0119 52.2531C52.2654 51.7802 51.512 51.4287 51.2585 51.9016L51.2697 51.9098Z" fill="#211E1F"/>
<path d="M28.1278 58.097C26.1203 59.6914 24.5996 61.8126 22.5425 63.3673C22.2709 63.5734 22.3436 63.9246 22.6099 64.0883L22.6616 64.1157C23.1212 64.3932 23.4671 63.6279 23.0125 63.3575L22.9608 63.3301L23.0282 64.0511C25.0854 62.4964 26.6131 60.3701 28.6135 58.7808C29.031 58.4483 28.5514 57.7655 28.1278 58.097Z" fill="#211E1F"/>
<path d="M20.4004 48.9162C19.0025 49.1736 17.5724 48.9859 16.1957 49.4164C15.682 49.5759 15.9824 50.3607 16.4899 50.2002C17.7877 49.7943 19.1589 49.9973 20.486 49.7533C21.0076 49.6579 20.9282 48.8218 20.3994 48.9223L20.4004 48.9162Z" fill="#211E1F"/>
<path d="M27.2386 51.5047C26.2743 51.6709 25.2918 51.7587 24.3466 52.0349C23.1988 52.3653 22.1066 52.8494 20.9245 53.0484C20.3977 53.1366 20.4772 53.9727 21.011 53.8793C22.0007 53.7111 22.9287 53.3881 23.881 53.0692C25.0187 52.6869 26.1542 52.5429 27.3303 52.3428C27.857 52.2546 27.7775 51.4185 27.2437 51.5119L27.2386 51.5047Z" fill="#211E1F"/>
<path d="M21.2293 54.7071C20.3681 55.0788 19.4372 55.1941 18.5346 55.4396C18.018 55.5798 18.3193 56.3585 18.8289 56.2234C19.7315 55.9779 20.6563 55.8617 21.5236 55.4909C22.0149 55.2774 21.7207 54.4936 21.2293 54.7071Z" fill="#211E1F"/>
<path d="M31.5486 52.7368C31.0298 53.0399 30.4736 53.2677 29.9589 53.5841C29.5049 53.8729 29.9856 54.5495 30.4446 54.2679C30.9533 53.9505 31.5105 53.7166 32.0343 53.4206C32.4974 53.1522 32.0106 52.4745 31.5486 52.7368Z" fill="#211E1F"/>
<path d="M40.2813 65.8221C40.1198 66.4548 39.8865 67.0692 39.8091 67.7221C39.752 68.2528 40.5714 68.3954 40.6294 67.8586C40.7008 67.2046 40.9341 66.5902 41.1016 65.9586C41.2387 65.4349 40.4113 65.3036 40.2813 65.8221Z" fill="#211E1F"/>
<path d="M30.2347 38.8631C24.4115 37.5678 18.6493 36.0565 12.8617 34.6225C12.3401 34.4918 12.2089 35.3179 12.7244 35.4477C18.512 36.8816 24.2803 38.3939 30.0974 39.6883C30.621 39.8068 30.7582 38.9817 30.2347 38.8631Z" fill="#211E1F"/>
<path d="M20.4272 38.7328C19.1956 38.5907 17.9497 38.6849 16.7426 38.3585C16.2292 38.2165 16.0909 39.0478 16.6054 39.1836C17.8125 39.51 19.0584 39.4158 20.2899 39.5579C20.8226 39.6214 20.9599 38.7963 20.4272 38.7328Z" fill="#211E1F"/>
<path d="M18.5523 40.5062C18.0326 40.627 17.5201 40.6673 16.9924 40.611C16.4647 40.5546 16.3214 41.3787 16.8551 41.4361C17.4567 41.4985 18.0483 41.4712 18.6389 41.3371C18.8597 41.2859 19.031 41.1197 19.0088 40.8773C18.9928 40.6737 18.7731 40.455 18.5523 40.5062Z" fill="#211E1F"/>
<path d="M66.4633 25.6323C67.4148 23.3661 68.2904 21.0685 69.3644 18.854C70.2397 17.0462 71.1696 15.2852 71.5811 13.2997C71.6938 12.7721 70.8674 12.6346 70.7607 13.1633C70.3147 15.3189 69.2014 17.2064 68.2865 19.1772C67.3544 21.1766 66.561 23.2429 65.7109 25.2748C65.503 25.7741 66.2563 26.1255 66.4643 25.6262L66.4633 25.6323Z" fill="#211E1F"/>
<path d="M72.2963 19.3229C72.7505 18.7704 73.241 18.2616 73.7862 17.7995C74.1936 17.4528 73.7079 16.769 73.3005 17.1158C72.7097 17.6267 72.1553 18.1814 71.6555 18.783C71.3119 19.1969 71.9527 19.7369 72.2974 19.3168L72.2963 19.3229Z" fill="#211E1F"/>
<path d="M35.0966 56.0719C33.0974 60.4313 29.8174 64.1944 27.4618 68.3689C27.1962 68.8397 27.9566 69.1861 28.2152 68.7203C30.5707 64.5458 33.8437 60.7878 35.8499 56.4233C36.0751 55.9332 35.3218 55.5817 35.0966 56.0719Z" fill="#211E1F"/>
<path d="M67.072 43.1071C68.216 43.8878 69.5223 44.2936 70.781 44.8358C71.4098 45.11 72.4752 45.3501 72.9823 45.8302C73.37 46.2024 73.9022 45.5561 73.5145 45.1838C73.0235 44.719 72.1111 44.4981 71.4995 44.233C70.2014 43.6654 68.7816 43.2658 67.6041 42.4607C67.1668 42.1618 66.6295 42.8011 67.072 43.1071Z" fill="#211E1F"/>
<path d="M76.8283 47.2614C78.6254 48.3204 80.4226 49.3794 82.3374 50.2192C82.454 49.9685 82.5717 49.7118 82.6883 49.4611C80.7127 48.7995 78.5739 49.7188 76.6124 49.0847C76.1091 48.9193 75.7511 49.6825 76.2615 49.8428C78.2402 50.4861 80.385 49.5678 82.3374 50.2192C82.8346 50.3836 83.1896 49.6764 82.6883 49.4611C80.7735 48.6212 78.9764 47.5622 77.1792 46.5032C76.7185 46.2319 76.3666 46.9961 76.8283 47.2614Z" fill="#211E1F"/>
<path d="M72.4619 48.658C71.3649 48.8335 70.3066 48.5884 69.2076 48.55C68.1087 48.5117 67.1049 48.6524 66.0555 48.6537C65.5937 48.6523 65.6237 49.2603 65.9233 49.4483C67.3246 50.3346 68.516 51.5441 70.0916 52.1328C70.5908 52.3227 70.9428 51.5584 70.4425 51.3747C68.8851 50.789 67.6705 49.5694 66.2743 48.6901L66.1421 49.4847C67.3849 49.4842 68.6258 49.3074 69.8664 49.4322C70.7749 49.5268 71.6378 49.6327 72.5485 49.489C73.0752 49.4007 72.9947 48.5708 72.4619 48.658Z" fill="#211E1F"/>
<path d="M72.6104 54.0719C73.1105 54.4817 73.6501 54.8415 74.1593 55.234C74.5349 55.5289 75.0159 55.7534 75.3225 56.1247C75.3885 55.9159 75.4494 55.6999 75.5154 55.491L75.3746 55.5116C74.8398 55.498 74.9314 56.336 75.4611 56.3425C75.604 56.3474 75.6759 56.328 75.8106 56.2688C76.0457 56.1697 76.1806 55.8467 76.0035 55.635C75.6715 55.2281 75.2179 54.9893 74.8018 54.6751C74.2521 54.2633 73.675 53.8658 73.1425 53.4255C72.7315 53.0808 72.1933 53.7261 72.6104 54.0719Z" fill="#211E1F"/>
<path d="M75.2408 55.5647C74.2817 55.5119 73.3479 55.3817 72.4253 55.1089C71.9129 54.9608 71.7817 55.787 72.2881 55.934C73.2106 56.2068 74.1454 56.3309 75.1036 56.3898C75.6353 56.4217 75.7726 55.5966 75.2408 55.5647Z" fill="#211E1F"/>
<path d="M67.3832 53.7362C66.0979 53.7296 64.9568 53.0059 63.6593 52.9973C63.4102 52.9936 63.1962 53.3411 63.3156 53.562C63.5088 53.9396 63.7669 54.2652 64.0665 54.5663C64.4532 54.9446 64.9803 54.2912 64.5987 53.9199C64.3993 53.7297 64.2171 53.511 64.0896 53.2636C63.9771 53.4522 63.8585 53.6397 63.7459 53.8283C65.0302 53.8409 66.1713 54.5647 67.4698 54.5671C68.0066 54.5685 67.9139 53.7365 67.3832 53.7362Z" fill="#211E1F"/>
<path d="M65.4288 57.789C65.9378 58.5206 66.5896 59.3325 66.9689 60.1305L67.5314 59.6022C65.094 58.6754 62.7631 57.4837 60.3247 56.563C59.4316 56.226 57.6719 55.28 56.6629 55.489C56.1453 55.5976 56.2247 56.4336 56.7495 56.3199C57.9398 56.072 60.386 57.4714 61.4188 57.907C63.3448 58.7173 65.2241 59.6204 67.1744 60.3594C67.4792 60.4792 67.9088 60.1863 67.7368 59.8311C67.312 58.9313 66.6613 58.1133 66.0915 57.2962C65.7839 56.8556 65.11 57.3402 65.4106 57.7859L65.4288 57.789Z" fill="#211E1F"/>
</g>
<defs>
<clipPath id="clip0_32_1060">
<rect width="125" height="111" fill="white" transform="translate(18.2156) rotate(9.44521)"/>
</clipPath>
</defs>
</svg>
