<?xml version="1.0" encoding="utf-8"?>
<!-- Generator: Adobe Illustrator 25.4.0, SVG Export Plug-In . SVG Version: 6.00 Build 0)  -->
<svg version="1.1" id="Capa_1" xmlns="http://www.w3.org/2000/svg" xmlns:xlink="http://www.w3.org/1999/xlink" x="0px" y="0px"
	 viewBox="0 0 266.22 164.43" style="enable-background:new 0 0 266.22 164.43;" xml:space="preserve">
<style type="text/css">
	.st0{fill:#C8D12A;}
	.st1{fill:url(#);}
	.st2{fill:#050504;}
	.st3{fill:#FFFFFF;}
	.st4{fill:none;stroke:#FFFFFF;stroke-width:22.4065;}
	.st5{fill:none;stroke:#FFFFFF;stroke-width:11.3663;}
	.st6{fill:#C9D22A;}
	.st7{fill:#C8D12A;stroke:#000000;stroke-width:5.1402;stroke-miterlimit:10;}
	.st8{fill:#C4224F;stroke:#000000;stroke-width:5.1402;stroke-miterlimit:10;}
	.st9{fill:#030405;}
	.st10{fill:#C6CF31;}
	.st11{fill:#C4224F;}
	.st12{stroke:#000000;stroke-width:5.1402;stroke-miterlimit:10;}
	.st13{stroke:#FFFFFF;stroke-width:4;stroke-linecap:round;stroke-linejoin:round;stroke-miterlimit:10;}
	.st14{fill:none;stroke:#FFFFFF;stroke-width:4;stroke-linejoin:round;stroke-miterlimit:10;}
	.st15{fill:#C4224F;stroke:#000000;stroke-width:5.5;stroke-miterlimit:10;}
	.st16{stroke:#FFFFFF;stroke-width:2.9639;stroke-miterlimit:10;}
	.st17{clip-path:url(#SVGID_00000042705920880319470260000013033614817809909121_);}
	.st18{fill:#C8D12A;stroke:#000000;stroke-width:5.6822;stroke-miterlimit:10;}
	.st19{fill:#00993D;}
	.st20{clip-path:url(#SVGID_00000012460098682679853980000001885545231852136329_);}
	.st21{stroke:#FFFFFF;stroke-width:4;stroke-miterlimit:10;}
	.st22{stroke:#000000;stroke-width:2.5698;stroke-miterlimit:10;}
	.st23{fill:#C8D12A;stroke:#000000;stroke-width:2.569;stroke-miterlimit:10;}
	.st24{stroke:#000000;stroke-width:2.569;stroke-miterlimit:10;}
	.st25{stroke:#FFFFFF;stroke-width:1.9992;stroke-linecap:round;stroke-linejoin:round;stroke-miterlimit:10;}
	.st26{clip-path:url(#SVGID_00000090281260201214200220000006715499536935348413_);}
	.st27{fill:#C8D12A;stroke:#000000;stroke-width:2.8287;stroke-miterlimit:10;}
	.st28{stroke:#FFFFFF;stroke-width:1.4755;stroke-miterlimit:10;}
	.st29{clip-path:url(#SVGID_00000002374192642655086920000006888542185425109639_);}
	.st30{clip-path:url(#SVGID_00000108998801019486665170000006073125731564669881_);}
	.st31{clip-path:url(#SVGID_00000039132456006621946680000008514218869575048627_);}
	.st32{clip-path:url(#SVGID_00000112606972427725096230000000812073418537041588_);}
	.st33{fill:#C8D12A;stroke:#000000;stroke-width:2.4552;stroke-miterlimit:10;}
	.st34{stroke:#FFFFFF;stroke-width:1.2719;stroke-miterlimit:10;}
	.st35{fill:#C8D12A;stroke:#000000;stroke-width:2.1112;stroke-miterlimit:10;}
	.st36{stroke:#000000;stroke-width:2.1112;stroke-miterlimit:10;}
	.st37{stroke:#FFFFFF;stroke-width:1.6429;stroke-linecap:round;stroke-linejoin:round;stroke-miterlimit:10;}
	.st38{clip-path:url(#SVGID_00000056423228228277153510000014650610268196786849_);}
	.st39{stroke:#000000;stroke-width:2.1118;stroke-miterlimit:10;}
	.st40{clip-path:url(#SVGID_00000081605979294236173930000011480677803899866777_);}
	.st41{clip-path:url(#SVGID_00000097500454563997088340000000740185687193099958_);}
	.st42{clip-path:url(#SVGID_00000173843225741634309870000013853117063543512477_);}
	.st43{stroke:#FFFFFF;stroke-width:2.0202;stroke-miterlimit:10;}
	.st44{opacity:0.9;fill:#00993D;}
	.st45{opacity:0.9;}
	.st46{opacity:0.9;fill:#FFFFFF;}
	.st47{clip-path:url(#SVGID_00000080918639819845230200000001980194092332226225_);}
	.st48{opacity:0.16;}
	.st49{fill:none;}
	.st50{fill:#222221;}
	.st51{fill:#FFFFFF;stroke:#FFFFFF;stroke-width:8.5919;stroke-linejoin:round;stroke-miterlimit:10;}
	.st52{stroke:#000000;stroke-width:8.5919;stroke-linejoin:round;stroke-miterlimit:10;}
	.st53{fill:#FFFFFF;stroke:#FFFFFF;stroke-width:8.5634;stroke-linejoin:round;stroke-miterlimit:10;}
	.st54{stroke:#000000;stroke-width:8.5634;stroke-linejoin:round;stroke-miterlimit:10;}
	.st55{fill:#FFFFFF;stroke:#FFFFFF;stroke-width:8.5806;stroke-linejoin:round;stroke-miterlimit:10;}
	.st56{stroke:#000000;stroke-width:8.5806;stroke-linejoin:round;stroke-miterlimit:10;}
	.st57{fill:#FFFFFF;stroke:#FFFFFF;stroke-width:7.4042;stroke-linejoin:round;stroke-miterlimit:10;}
	.st58{stroke:#000000;stroke-width:7.4042;stroke-linejoin:round;stroke-miterlimit:10;}
	.st59{fill:#FFFFFF;stroke:#FFFFFF;stroke-width:8.5749;stroke-linejoin:round;stroke-miterlimit:10;}
	.st60{stroke:#000000;stroke-width:8.5749;stroke-linejoin:round;stroke-miterlimit:10;}
	.st61{fill:#FFFFFF;stroke:#FFFFFF;stroke-width:7.4433;stroke-linejoin:round;stroke-miterlimit:10;}
	.st62{stroke:#000000;stroke-width:7.4433;stroke-linejoin:round;stroke-miterlimit:10;}
	.st63{fill:#FFFFFF;stroke:#FFFFFF;stroke-width:7.3602;stroke-linejoin:round;stroke-miterlimit:10;}
	.st64{stroke:#000000;stroke-width:7.3602;stroke-linejoin:round;stroke-miterlimit:10;}
	.st65{fill:#FFFFFF;stroke:#FFFFFF;stroke-width:8.0592;stroke-linejoin:round;stroke-miterlimit:10;}
	.st66{stroke:#000000;stroke-width:8.0592;stroke-linejoin:round;stroke-miterlimit:10;}
	.st67{fill:#FFFFFF;stroke:#FFFFFF;stroke-width:8.5637;stroke-linejoin:round;stroke-miterlimit:10;}
	.st68{stroke:#000000;stroke-width:8.5637;stroke-linejoin:round;stroke-miterlimit:10;}
	.st69{fill:#FFFFFF;stroke:#FFFFFF;stroke-width:7.8456;stroke-linejoin:round;stroke-miterlimit:10;}
	.st70{stroke:#000000;stroke-width:7.8456;stroke-linejoin:round;stroke-miterlimit:10;}
	.st71{fill:#FFFFFF;stroke:#FFFFFF;stroke-width:7.9249;stroke-linejoin:round;stroke-miterlimit:10;}
	.st72{stroke:#000000;stroke-width:7.9249;stroke-linejoin:round;stroke-miterlimit:10;}
	.st73{fill:#FFFFFF;stroke:#FFFFFF;stroke-width:7.8723;stroke-linejoin:round;stroke-miterlimit:10;}
	.st74{stroke:#000000;stroke-width:7.8723;stroke-linejoin:round;stroke-miterlimit:10;}
	.st75{fill:#FFFFFF;stroke:#FFFFFF;stroke-width:8.5875;stroke-linejoin:round;stroke-miterlimit:10;}
	.st76{fill:#FFFFFF;stroke:#FFFFFF;stroke-width:10.3776;stroke-linejoin:round;stroke-miterlimit:10;}
	.st77{stroke:#000000;stroke-width:8.5875;stroke-linejoin:round;stroke-miterlimit:10;}
	.st78{stroke:#000000;stroke-width:10.3776;stroke-linejoin:round;stroke-miterlimit:10;}
	.st79{fill:#FFFFFF;stroke:#FFFFFF;stroke-width:8.4886;stroke-linejoin:round;stroke-miterlimit:10;}
	.st80{stroke:#000000;stroke-width:8.4886;stroke-linejoin:round;stroke-miterlimit:10;}
</style>
<g>
	<g>
		<g>
			<g>
				<path d="M76.25,25.6c0,1.18-0.77,1.93-2.3,2.23c-2,0.39-3.23,0.85-3.7,1.38c-4.76,5.16-7.14,11.84-7.14,20.02
					c0,3.85,0.59,7.48,1.79,10.89c0.98,2.8,1.68,4.64,2.1,5.51c1.06,2.14,2.36,3.68,3.89,4.59c0.64,0.31,1.28,0.59,1.91,0.85
					c0.68,0.39,1.02,0.94,1.02,1.64c0,0.7-0.22,1.33-0.67,1.9c-0.45,0.57-0.92,0.79-1.43,0.66c-0.55-0.09-1.4-0.37-2.55-0.85
					c-2.04-1.23-4.25-3.83-6.63-7.81c-0.6-1.01-1.2-2.04-1.82-3.12c-0.62-1.07-1.07-2.09-1.37-3.05c-0.21-0.7-0.57-3.52-1.08-8.47
					c-0.17-1.53-0.25-3.02-0.25-4.46c0-7.74,2.19-14.33,6.57-19.75c2.55-3.15,5.21-4.73,7.97-4.73c1.19,0,2.27,0.37,3.25,1.12
					C76.1,24.37,76.25,24.86,76.25,25.6z"/>
				<path d="M98.32,62.02c0.25,0.7,0.38,1.31,0.38,1.84c0,0.88-0.36,1.64-1.08,2.3c-0.72,0.66-1.21,0.96-1.47,0.92
					c-2.08-0.39-3.4-2.12-3.95-5.18c-0.6-3.32-1.3-6.1-2.1-8.33c-1.45,0.13-2.89,0.26-4.34,0.39c-1.66,0.22-2.96,0.74-3.89,1.57
					c-0.47,1.36-1.08,3.76-1.85,7.22c-0.72,3.19-1.42,5.62-2.1,7.28c-0.34,0.79-1.06,1.01-2.17,0.66c-1.4-0.48-2.15-1.14-2.23-1.97
					c-0.13-1.66,0.34-3.89,1.4-6.69c1.28-3.19,1.98-5.47,2.1-6.83c0.04-0.39-0.23-0.83-0.83-1.31c-0.6-0.48-0.89-0.85-0.89-1.12
					c0-0.22,0.1-0.45,0.29-0.69c0.19-0.24,0.64-0.44,1.34-0.59c0.7-0.15,1.09-0.38,1.18-0.69c0.77-2.19,1.98-6.26,3.63-12.21
					c1.4-5.16,2.66-9.12,3.76-11.88c0.25-0.61,0.79-0.92,1.59-0.92c0.6,0,1.13,0.2,1.59,0.59c1.19,1.05,1.96,2.62,2.3,4.73
					c0.25,1.79,0.49,3.59,0.7,5.38C93.81,46.82,96.02,55.33,98.32,62.02z M89.01,49.49c-0.13-1.62-0.4-3.43-0.83-5.45
					c-0.43-1.75-0.83-3.5-1.21-5.25c-1.28,3.63-2.38,7.26-3.32,10.89C84.33,49.55,86.12,49.49,89.01,49.49z"/>
				<path d="M131.99,66.29c0.17,0.87-0.45,1.36-1.85,1.44c-0.94,0.04-1.89-0.37-2.87-1.25c-0.81-0.74-1.45-1.95-1.91-3.61
					c-0.42-1.53-0.68-3.7-0.76-6.5c-0.09-3.15-0.23-5.32-0.45-6.5c-0.55,1.97-1.47,4.9-2.74,8.79c-0.77,2.14-1.23,3.37-1.4,3.68
					c-0.68,1.36-1.53,1.97-2.55,1.84c-2.04-0.48-3.61-1.66-4.72-3.54c-0.72-1.22-1.4-3.17-2.04-5.84c-0.68-2.93-1.25-4.9-1.72-5.91
					c-1.83,9.14-3.78,15.97-5.87,20.48c-0.3,0.66-1.19,0.61-2.68-0.13c-1.23-0.61-1.85-1.49-1.85-2.62c0-0.39,0.45-1.79,1.34-4.2
					c0.38-1.05,1.87-6.1,4.46-15.16c0.89-3.15,1.83-8.68,2.81-16.6c0.08-0.09,0.3-0.55,0.64-1.38c0.21-0.61,0.59-0.92,1.15-0.92
					c1.44,0,2.44,0.29,3,0.85c0,1.27,0.2,3.31,0.61,6.14c0.4,2.82,0.61,4.95,0.61,6.4c0.38,2.45,0.74,4.92,1.08,7.42
					c0.47,2.8,1.32,5.1,2.55,6.89c4.08-11.68,6.67-20.91,7.78-27.69c0.17-0.7,0.81-1.05,1.91-1.05c1.57,0,2.46,0.53,2.68,1.58
					c0.3,1.57,0.45,3.39,0.45,5.45c0,0.66-0.04,2.08-0.13,4.27c-0.04,1.84-0.04,3.33,0,4.46C129.88,52.29,130.71,60.03,131.99,66.29
					z"/>
				<path d="M157.05,36.62c-0.55,2.36-1.96,4.51-4.21,6.43c-2.17,1.57-4.34,3.13-6.5,4.66c0.13,0.66,0.56,1.15,1.31,1.48
					s1.46,0.65,2.14,0.95c3.53,2.36,5.29,5.16,5.29,8.4c0,2.49-0.83,4.79-2.49,6.89c-1.28,1.62-3.17,3.22-5.68,4.79
					c-2.04,1.22-4.08,2.45-6.12,3.68c-0.51,0.31-1.06,0.46-1.66,0.46c-1.4,0-2.38-0.59-2.93-1.77c0.08-3.68,0.17-7.33,0.26-10.96
					c0.08-4.37,0.32-7.98,0.7-10.83c-0.89-0.61-1.34-1.31-1.34-2.1c0-0.39,0.16-0.75,0.48-1.08c0.32-0.33,0.75-0.69,1.31-1.08
					c0.51-6.65,0.62-12.77,0.32-18.38c-2-0.39-3.32-1.31-3.95-2.76c-0.04-0.17,0.03-0.44,0.22-0.79c0.19-0.35,0.29-0.63,0.29-0.85
					c0.98-0.74,2.06-1.12,3.25-1.12c0.55,0,1.28,0.09,2.17,0.26c1.28,0.22,2.1,0.35,2.49,0.39c2.04,0.26,4.08,0.92,6.12,1.97
					c4.59,2.45,7.29,4.83,8.1,7.15C157.15,34.09,157.3,35.49,157.05,36.62z M149.14,59.07c0.08-0.48,0.13-0.94,0.13-1.38
					c0-1.31-0.4-2.47-1.21-3.48c-2.17-1.09-3.55-1.64-4.15-1.64c-0.34,0-0.66,0.07-0.96,0.2c0.04,0.44,0.06,0.92,0.06,1.44
					c0,0.92-0.12,2.33-0.35,4.23c-0.23,1.9-0.35,3.34-0.35,4.3c0,1.4,0.17,2.67,0.51,3.81c0.51-0.61,1.31-1.26,2.39-1.94
					s1.84-1.28,2.26-1.8C148.25,61.89,148.8,60.64,149.14,59.07z M151.05,33.34c-0.21-1.62-1.49-2.87-3.83-3.74
					c-0.34-0.13-0.87-0.42-1.59-0.85c-0.51-0.35-0.94-0.52-1.28-0.52c-0.17,0-0.36,0.04-0.57,0.13c-0.04,0.74-0.06,1.53-0.06,2.36
					c0,1.14,0.08,3.06,0.25,5.78c0.13,2.49,0.17,4.44,0.13,5.84c0.3,0,0.74-0.23,1.34-0.69c0.59-0.46,0.93-0.71,1.02-0.75
					c1.28-0.61,2.4-1.64,3.38-3.08C150.82,36.36,151.22,34.87,151.05,33.34z"/>
				<path d="M166.87,31.96c0.08,1.27,0.13,2.58,0.13,3.94c0,2.98-0.3,7.46-0.89,13.45c-0.6,5.99-0.89,10.52-0.89,13.58
					c0,1.14,0.02,2.25,0.06,3.35c-0.38,1.22-1.21,1.81-2.49,1.77c-1.83-0.09-2.83-0.9-3-2.43c-0.17-1.53-0.25-3.15-0.25-4.86
					c0-2.97,0.35-7.42,1.05-13.32c0.7-5.91,1.05-10.32,1.05-13.26c0-1.14-0.04-2.25-0.13-3.35c0.42-0.83,1.15-1.25,2.17-1.25
					c0.81,0,1.62,0.24,2.42,0.72c0.17-0.13,0.3-0.2,0.38-0.2c0.13,0,0.19,0.22,0.19,0.66c-0.04,0.53-0.04,0.83,0,0.92
					C166.72,31.83,166.78,31.92,166.87,31.96z"/>
				<path d="M193.46,62.02c0.25,0.7,0.38,1.31,0.38,1.84c0,0.88-0.36,1.64-1.08,2.3c-0.72,0.66-1.21,0.96-1.47,0.92
					c-2.08-0.39-3.4-2.12-3.95-5.18c-0.6-3.32-1.3-6.1-2.1-8.33c-1.45,0.13-2.89,0.26-4.34,0.39c-1.66,0.22-2.96,0.74-3.89,1.57
					c-0.47,1.36-1.08,3.76-1.85,7.22c-0.72,3.19-1.42,5.62-2.1,7.28c-0.34,0.79-1.06,1.01-2.17,0.66c-1.4-0.48-2.15-1.14-2.23-1.97
					c-0.13-1.66,0.34-3.89,1.4-6.69c1.28-3.19,1.98-5.47,2.1-6.83c0.04-0.39-0.23-0.83-0.83-1.31c-0.6-0.48-0.89-0.85-0.89-1.12
					c0-0.22,0.1-0.45,0.29-0.69c0.19-0.24,0.64-0.44,1.34-0.59c0.7-0.15,1.09-0.38,1.18-0.69c0.77-2.19,1.98-6.26,3.63-12.21
					c1.4-5.16,2.66-9.12,3.76-11.88c0.25-0.61,0.79-0.92,1.59-0.92c0.6,0,1.13,0.2,1.59,0.59c1.19,1.05,1.96,2.62,2.3,4.73
					c0.25,1.79,0.49,3.59,0.7,5.38C188.95,46.82,191.16,55.33,193.46,62.02z M184.15,49.49c-0.13-1.62-0.4-3.43-0.83-5.45
					c-0.43-1.75-0.83-3.5-1.21-5.25c-1.28,3.63-2.38,7.26-3.32,10.89C179.47,49.55,181.25,49.49,184.15,49.49z"/>
				<path d="M77.27,100.53c-0.43,1.01-0.83,2.01-1.21,3.02c-0.51,1.18-1.06,2.12-1.66,2.82c-1.32,1.71-2.64,3.39-3.95,5.05
					c-1.57,2.01-3,3.41-4.27,4.2c-0.43,0.53-0.89,1.07-1.4,1.64c-0.51,0.57-1.02,0.85-1.53,0.85c-0.25,0-0.55-0.07-0.89-0.2
					c-0.34-0.13-0.71-0.29-1.12-0.46c-0.4-0.18-0.69-0.46-0.86-0.85c-0.13-1.84-0.19-3.81-0.19-5.91c0-2.14,0.08-5.34,0.25-9.58
					c0.17-4.24,0.25-7.44,0.25-9.58c0-2.84-0.11-5.45-0.32-7.81c-0.04-0.04-0.51-0.55-1.4-1.51c-0.55-0.57-0.83-1.09-0.83-1.57
					c0-0.22,0.04-0.44,0.13-0.66c0.21-0.52,0.68-0.83,1.4-0.92c0.55-0.09,1.1-0.15,1.66-0.2c3.57,0.79,7.31,2.84,11.22,6.17
					c1.02,0.88,1.85,1.79,2.49,2.76c2.04,3.11,3.06,6.02,3.06,8.73C78.1,97.93,77.83,99.26,77.27,100.53z M72.68,93.51
					c-0.38-2.76-2.66-5.18-6.82-7.28c-0.3,7.31-0.38,15.05-0.25,23.23c4.8-4.94,7.21-9.65,7.21-14.11
					C72.81,94.74,72.77,94.12,72.68,93.51z"/>
				<path d="M103.04,82.22c-1.57,0.66-3.89,1.42-6.95,2.3c-3.06,0.88-5.38,1.64-6.95,2.3c-0.38,1.14-0.66,3.68-0.83,7.61
					c0.68,0.26,1.47,0.39,2.36,0.39c0.64,0,1.64-0.11,3-0.33c1.36-0.22,2.36-0.33,3-0.33c1.19,0,2.21,0.26,3.06,0.79
					c0.59,0.88,0.89,1.44,0.89,1.71c0,0.31-0.15,0.55-0.45,0.72c-0.08,0.04-0.38,0.35-0.89,0.92c-0.34,0.39-0.76,0.57-1.28,0.53
					c-0.89,0.22-2.53,0.35-4.91,0.39c-2,0.04-3.59,0.31-4.78,0.79c-0.81,3.24-1.21,5.8-1.21,7.68c0,1.27,0.17,2.28,0.51,3.02
					c2,1.44,5.46,2.06,10.39,1.84c0.34,0,0.7-0.16,1.08-0.49c0.38-0.33,0.7-0.49,0.96-0.49c1.19-0.26,1.98,0.66,2.36,2.76
					c0.13,0.7,0.01,1.35-0.35,1.94c-0.36,0.59-0.88,0.91-1.56,0.95c-5.14,0.17-9.61-0.24-13.39-1.25c-1.19-0.31-2.27-0.98-3.25-2.03
					c-0.98-1.05-1.53-2.23-1.66-3.54c-0.38-3.81-0.38-7.22,0-10.24c-1.19-0.83-1.72-1.64-1.59-2.43c0.04-0.39,0.37-0.75,0.99-1.08
					s0.97-0.67,1.05-1.02c0.08-0.35,0.26-2.43,0.51-6.23c-2.38-0.48-3.55-1.4-3.51-2.76c0.04-1.27,0.79-2.27,2.23-3.02
					c1.36-0.57,2.72-1.14,4.08-1.71c1.62-0.83,3.61-1.57,5.99-2.23c2.04-0.57,4.1-1.12,6.19-1.64c0.21-0.04,0.47-0.07,0.76-0.07
					c1.15,0,2.49,0.46,4.02,1.38c0.04,0.18,0.15,0.5,0.32,0.98c0.17,0.48,0.25,0.83,0.25,1.05C103.48,81.72,103.33,82,103.04,82.22z
					"/>
				<path d="M147.42,75.27c-0.6,5.86-1.17,11.75-1.72,17.65c-0.72,7-1.08,12.84-1.08,17.52c0,1.53,0.04,3.04,0.13,4.53
					c0.04,0.7-0.2,1.31-0.73,1.84c-0.53,0.52-1.14,0.79-1.82,0.79c-1.32,0-2.42-0.92-3.32-2.76c-2.72-5.47-6.1-14.04-10.14-25.73
					c-0.08-0.26-0.19-0.39-0.32-0.39c-0.3,0-0.49,0.31-0.57,0.92c-0.72,6.26-1.08,12.84-1.08,19.75c0,3.33,0.08,6.72,0.25,10.17
					c0.04,1.27-0.32,2.14-1.08,2.62c-0.3,0.31-0.62,0.46-0.96,0.46c-0.3,0-0.68-0.13-1.15-0.39c-0.64-0.31-1.04-0.5-1.21-0.59
					c-0.55-0.18-0.89-0.7-1.02-1.58c-0.04-0.7-0.09-1.42-0.13-2.17c-0.13-2.45-0.19-5.01-0.19-7.68c0-4.64,0.25-10.43,0.76-17.39
					c0.81-10.59,1.25-16.45,1.34-17.59c0.04-0.96,0.83-1.44,2.36-1.44c0.72-0.09,1.79,0.46,3.19,1.64c1.36,2.67,3.04,7,5.04,12.99
					c1.91,5.73,3.66,10.08,5.23,13.06c0.64-5.82,1.64-14.61,3-26.38c0.13-0.87,0.74-1.31,1.85-1.31c0.38,0,0.83,0.07,1.34,0.2
					c0.68,0.18,1.08,0.28,1.21,0.33C147.01,74.52,147.29,74.83,147.42,75.27z"/>
				<path d="M157.94,81.83c0.08,1.27,0.13,2.58,0.13,3.94c0,2.98-0.3,7.46-0.89,13.45c-0.6,5.99-0.89,10.52-0.89,13.58
					c0,1.14,0.02,2.25,0.06,3.35c-0.38,1.22-1.21,1.81-2.49,1.77c-1.83-0.09-2.83-0.9-3-2.43c-0.17-1.53-0.25-3.15-0.25-4.86
					c0-2.97,0.35-7.42,1.05-13.32c0.7-5.91,1.05-10.32,1.05-13.26c0-1.14-0.04-2.25-0.13-3.35c0.42-0.83,1.15-1.25,2.17-1.25
					c0.81,0,1.62,0.24,2.42,0.72c0.17-0.13,0.3-0.2,0.38-0.2c0.13,0,0.19,0.22,0.19,0.66c-0.04,0.53-0.04,0.83,0,0.92
					C157.79,81.7,157.85,81.79,157.94,81.83z"/>
				<path d="M189.82,77.37c-1.66,3.19-4.02,9.17-7.08,17.92c-0.89,2.58-1.96,6.85-3.19,12.8c-1.19,5.69-2.34,10-3.44,12.93
					c-0.38,0.44-0.83,0.66-1.34,0.66c-0.6,0-1.36-0.33-2.29-0.98c-1.66-4.07-3.59-10.76-5.8-20.08c-2.08-8.88-4.17-15.64-6.25-20.28
					c0.55-1.09,1.02-1.64,1.4-1.64c0.34-0.22,0.68-0.33,1.02-0.33c0.68,0,1.87,0.66,3.57,1.97c1.53,3.59,3,7.98,4.4,13.19
					c1.1,4.51,2.23,8.99,3.38,13.45c1.57-5.34,3.15-10.7,4.72-16.08c1.87-6.04,3.78-11.24,5.74-15.62c0.64-1.14,1.74-1.51,3.32-1.12
					c0.17,0.04,0.38,0.21,0.64,0.49c0.25,0.29,0.57,0.44,0.96,0.46c0.38,0.02,0.57,0.34,0.57,0.95
					C190.14,76.49,190.03,76.93,189.82,77.37z"/>
				<path d="M212.97,82.22c-1.57,0.66-3.89,1.42-6.95,2.3c-3.06,0.88-5.38,1.64-6.95,2.3c-0.38,1.14-0.66,3.68-0.83,7.61
					c0.68,0.26,1.47,0.39,2.36,0.39c0.64,0,1.64-0.11,3-0.33c1.36-0.22,2.36-0.33,3-0.33c1.19,0,2.21,0.26,3.06,0.79
					c0.59,0.88,0.89,1.44,0.89,1.71c0,0.31-0.15,0.55-0.45,0.72c-0.08,0.04-0.38,0.35-0.89,0.92c-0.34,0.39-0.76,0.57-1.28,0.53
					c-0.89,0.22-2.53,0.35-4.91,0.39c-2,0.04-3.59,0.31-4.78,0.79c-0.81,3.24-1.21,5.8-1.21,7.68c0,1.27,0.17,2.28,0.51,3.02
					c2,1.44,5.46,2.06,10.39,1.84c0.34,0,0.7-0.16,1.08-0.49c0.38-0.33,0.7-0.49,0.96-0.49c1.19-0.26,1.98,0.66,2.36,2.76
					c0.13,0.7,0.01,1.35-0.35,1.94c-0.36,0.59-0.88,0.91-1.56,0.95c-5.14,0.17-9.61-0.24-13.39-1.25c-1.19-0.31-2.27-0.98-3.25-2.03
					c-0.98-1.05-1.53-2.23-1.66-3.54c-0.38-3.81-0.38-7.22,0-10.24c-1.19-0.83-1.72-1.64-1.59-2.43c0.04-0.39,0.37-0.75,0.99-1.08
					s0.97-0.67,1.05-1.02c0.08-0.35,0.26-2.43,0.51-6.23c-2.38-0.48-3.55-1.4-3.51-2.76c0.04-1.27,0.79-2.27,2.23-3.02
					c1.36-0.57,2.72-1.14,4.08-1.71c1.62-0.83,3.61-1.57,5.99-2.23c2.04-0.57,4.1-1.12,6.19-1.64c0.21-0.04,0.47-0.07,0.76-0.07
					c1.15,0,2.49,0.46,4.02,1.38c0.04,0.18,0.15,0.5,0.32,0.98c0.17,0.48,0.25,0.83,0.25,1.05C213.42,81.72,213.27,82,212.97,82.22z
					"/>
				<path d="M232.8,107.44c-0.08,0.04-2.57,1.87-7.46,5.47c-2.85,2.11-5.38,3.67-7.59,4.68c-0.25,0.13-0.51,0.2-0.76,0.2
					c-0.6,0-1.15-0.39-1.66-1.18c-0.77-1.05-1.17-1.6-1.21-1.64c-0.09-3.86,0.15-9.22,0.7-16.1c0.64-7.32,0.96-12.6,0.96-15.84
					c0-2.23-0.09-4.34-0.25-6.31c0.55-0.57,1.25-0.85,2.1-0.85c1.61,0,2.55,0.61,2.81,1.84c0.13,3.59-0.02,8.96-0.45,16.11
					c-0.43,7.15-0.6,12.52-0.51,16.11c1.19-0.52,2.74-1.44,4.66-2.76c2.08-1.49,3.59-2.47,4.53-2.95c0.21,0,0.58-0.04,1.12-0.13
					c0.53-0.09,0.92-0.13,1.18-0.13c0.85,0,1.47,0.35,1.85,1.06C233.31,105.97,233.31,106.78,232.8,107.44z"/>
			</g>
		</g>
	</g>
	<g>
		<path d="M266.22,131.03c-16.5,1.9-33,3.26-49.5,4.59c-8.25-0.12-16.5-0.08-24.75-0.09h-24.75H68.23l4.5-4.5v28.89
			c0,2.49-2.01,4.5-4.5,4.5c-1.42,0-2.69-0.67-3.52-1.7L0.98,82.77c-1.3-1.63-1.28-3.9-0.09-5.5l7.47-10c2.48-3.33,5-6.64,7.4-10.05
			c2.39-3.41,5.2-6.5,7.86-9.7l8.06-9.55c5.36-6.38,10.77-12.72,16.2-19.05C53.28,12.58,58.75,6.28,64.24,0
			c-4.47,7.05-8.96,14.07-13.51,21.06c-4.53,7-9.07,13.99-13.67,20.93l-6.87,10.44c-2.32,3.46-4.48,7.03-7.08,10.29
			c-2.58,3.26-5.04,6.61-7.54,9.94l-7.47,10l-0.09-5.5l63.73,79.96l-8.02,2.8v-28.89c0-2.48,2.01-4.5,4.5-4.5h98.99h24.75
			c8.25-0.01,16.5,0.03,24.75-0.09C233.22,127.78,249.72,129.14,266.22,131.03z"/>
	</g>
</g>
</svg>
