<?xml version="1.0" encoding="utf-8"?>
<!-- Generator: Adobe Illustrator 25.4.0, SVG Export Plug-In . SVG Version: 6.00 Build 0)  -->
<svg version="1.1" id="Capa_1" xmlns="http://www.w3.org/2000/svg" xmlns:xlink="http://www.w3.org/1999/xlink" x="0px" y="0px"
	 viewBox="0 0 271.19 239.81" style="enable-background:new 0 0 271.19 239.81;" xml:space="preserve">
<style type="text/css">
	.st0{fill:#C8D12A;}
	.st1{fill:url(#);}
	.st2{fill:#050504;}
	.st3{fill:#FFFFFF;}
	.st4{fill:none;stroke:#FFFFFF;stroke-width:22.4065;}
	.st5{fill:none;stroke:#FFFFFF;stroke-width:11.3663;}
	.st6{fill:#C9D22A;}
	.st7{fill:#C8D12A;stroke:#000000;stroke-width:5.1402;stroke-miterlimit:10;}
	.st8{fill:#C4224F;stroke:#000000;stroke-width:5.1402;stroke-miterlimit:10;}
	.st9{fill:#030405;}
	.st10{fill:#C6CF31;}
	.st11{fill:#C4224F;}
	.st12{stroke:#000000;stroke-width:5.1402;stroke-miterlimit:10;}
	.st13{stroke:#FFFFFF;stroke-width:4;stroke-linecap:round;stroke-linejoin:round;stroke-miterlimit:10;}
	.st14{fill:none;stroke:#FFFFFF;stroke-width:4;stroke-linejoin:round;stroke-miterlimit:10;}
	.st15{fill:#C4224F;stroke:#000000;stroke-width:5.5;stroke-miterlimit:10;}
	.st16{stroke:#FFFFFF;stroke-width:2.9639;stroke-miterlimit:10;}
	.st17{clip-path:url(#SVGID_00000058591061365407260910000009833386403776692099_);}
	.st18{fill:#C8D12A;stroke:#000000;stroke-width:5.6822;stroke-miterlimit:10;}
	.st19{fill:#00993D;}
	.st20{clip-path:url(#SVGID_00000089572970833533378690000008730664958045618085_);}
	.st21{stroke:#FFFFFF;stroke-width:4;stroke-miterlimit:10;}
	.st22{stroke:#000000;stroke-width:2.5698;stroke-miterlimit:10;}
	.st23{fill:#C8D12A;stroke:#000000;stroke-width:2.569;stroke-miterlimit:10;}
	.st24{stroke:#000000;stroke-width:2.569;stroke-miterlimit:10;}
	.st25{stroke:#FFFFFF;stroke-width:1.9992;stroke-linecap:round;stroke-linejoin:round;stroke-miterlimit:10;}
	.st26{clip-path:url(#SVGID_00000000912564098590707040000011235671974732339346_);}
	.st27{fill:#C8D12A;stroke:#000000;stroke-width:2.8287;stroke-miterlimit:10;}
	.st28{stroke:#FFFFFF;stroke-width:1.4755;stroke-miterlimit:10;}
	.st29{clip-path:url(#SVGID_00000023985726751164384050000015573369117262031790_);}
	.st30{clip-path:url(#SVGID_00000072262016212964995630000013628076351203516571_);}
	.st31{clip-path:url(#SVGID_00000105427467311392915210000009006212871849258914_);}
	.st32{clip-path:url(#SVGID_00000113314990093599778490000009941623947860748171_);}
	.st33{fill:#C8D12A;stroke:#000000;stroke-width:2.4552;stroke-miterlimit:10;}
	.st34{stroke:#FFFFFF;stroke-width:1.2719;stroke-miterlimit:10;}
	.st35{fill:#C8D12A;stroke:#000000;stroke-width:2.1112;stroke-miterlimit:10;}
	.st36{stroke:#000000;stroke-width:2.1112;stroke-miterlimit:10;}
	.st37{stroke:#FFFFFF;stroke-width:1.6429;stroke-linecap:round;stroke-linejoin:round;stroke-miterlimit:10;}
	.st38{clip-path:url(#SVGID_00000103253451380448140020000004487472762412582077_);}
	.st39{stroke:#000000;stroke-width:2.1118;stroke-miterlimit:10;}
	.st40{clip-path:url(#SVGID_00000029022182873241663830000017173426876296384932_);}
	.st41{clip-path:url(#SVGID_00000005235794519123731130000006524946639256262832_);}
	.st42{clip-path:url(#SVGID_00000000912629928507856860000007488716808927203490_);}
	.st43{stroke:#FFFFFF;stroke-width:2.0202;stroke-miterlimit:10;}
	.st44{opacity:0.9;fill:#00993D;}
	.st45{opacity:0.9;}
	.st46{opacity:0.9;fill:#FFFFFF;}
	.st47{clip-path:url(#SVGID_00000018231349905359694450000011787234418686515617_);}
	.st48{opacity:0.16;}
	.st49{fill:none;}
	.st50{fill:#222221;}
	.st51{fill:#FFFFFF;stroke:#FFFFFF;stroke-width:8.5919;stroke-linejoin:round;stroke-miterlimit:10;}
	.st52{stroke:#000000;stroke-width:8.5919;stroke-linejoin:round;stroke-miterlimit:10;}
	.st53{fill:#FFFFFF;stroke:#FFFFFF;stroke-width:8.5634;stroke-linejoin:round;stroke-miterlimit:10;}
	.st54{stroke:#000000;stroke-width:8.5634;stroke-linejoin:round;stroke-miterlimit:10;}
	.st55{fill:#FFFFFF;stroke:#FFFFFF;stroke-width:8.5806;stroke-linejoin:round;stroke-miterlimit:10;}
	.st56{stroke:#000000;stroke-width:8.5806;stroke-linejoin:round;stroke-miterlimit:10;}
	.st57{fill:#FFFFFF;stroke:#FFFFFF;stroke-width:7.4042;stroke-linejoin:round;stroke-miterlimit:10;}
	.st58{stroke:#000000;stroke-width:7.4042;stroke-linejoin:round;stroke-miterlimit:10;}
	.st59{fill:#FFFFFF;stroke:#FFFFFF;stroke-width:8.5749;stroke-linejoin:round;stroke-miterlimit:10;}
	.st60{stroke:#000000;stroke-width:8.5749;stroke-linejoin:round;stroke-miterlimit:10;}
	.st61{fill:#FFFFFF;stroke:#FFFFFF;stroke-width:7.4433;stroke-linejoin:round;stroke-miterlimit:10;}
	.st62{stroke:#000000;stroke-width:7.4433;stroke-linejoin:round;stroke-miterlimit:10;}
	.st63{fill:#FFFFFF;stroke:#FFFFFF;stroke-width:7.3602;stroke-linejoin:round;stroke-miterlimit:10;}
	.st64{stroke:#000000;stroke-width:7.3602;stroke-linejoin:round;stroke-miterlimit:10;}
	.st65{fill:#FFFFFF;stroke:#FFFFFF;stroke-width:8.0592;stroke-linejoin:round;stroke-miterlimit:10;}
	.st66{stroke:#000000;stroke-width:8.0592;stroke-linejoin:round;stroke-miterlimit:10;}
	.st67{fill:#FFFFFF;stroke:#FFFFFF;stroke-width:8.5637;stroke-linejoin:round;stroke-miterlimit:10;}
	.st68{stroke:#000000;stroke-width:8.5637;stroke-linejoin:round;stroke-miterlimit:10;}
	.st69{fill:#FFFFFF;stroke:#FFFFFF;stroke-width:7.8456;stroke-linejoin:round;stroke-miterlimit:10;}
	.st70{stroke:#000000;stroke-width:7.8456;stroke-linejoin:round;stroke-miterlimit:10;}
	.st71{fill:#FFFFFF;stroke:#FFFFFF;stroke-width:7.9249;stroke-linejoin:round;stroke-miterlimit:10;}
	.st72{stroke:#000000;stroke-width:7.9249;stroke-linejoin:round;stroke-miterlimit:10;}
	.st73{fill:#FFFFFF;stroke:#FFFFFF;stroke-width:7.8723;stroke-linejoin:round;stroke-miterlimit:10;}
	.st74{stroke:#000000;stroke-width:7.8723;stroke-linejoin:round;stroke-miterlimit:10;}
	.st75{fill:#FFFFFF;stroke:#FFFFFF;stroke-width:8.5875;stroke-linejoin:round;stroke-miterlimit:10;}
	.st76{fill:#FFFFFF;stroke:#FFFFFF;stroke-width:10.3776;stroke-linejoin:round;stroke-miterlimit:10;}
	.st77{stroke:#000000;stroke-width:8.5875;stroke-linejoin:round;stroke-miterlimit:10;}
	.st78{stroke:#000000;stroke-width:10.3776;stroke-linejoin:round;stroke-miterlimit:10;}
	.st79{fill:#FFFFFF;stroke:#FFFFFF;stroke-width:8.4886;stroke-linejoin:round;stroke-miterlimit:10;}
	.st80{stroke:#000000;stroke-width:8.4886;stroke-linejoin:round;stroke-miterlimit:10;}
</style>
<g>
	<path class="st2" d="M3.97,161.36C0.87,140.95-26.27,19.11,119.22,1.58C187.58-6.66,228.7,19.1,249.44,38.71
		c11.01,10.41,17.85,24.46,19.48,39.52c4.15,38.34,7.64,120.61-37.62,127.46c-59.18,8.96-170.91,2.93-170.91,2.93
		S9.19,195.71,3.97,161.36z"/>
	<g>
		<path class="st3" d="M70.78,42.53c-0.04,1.48-1.02,2.41-2.95,2.77c-2.53,0.47-4.09,1.02-4.69,1.68
			c-6.14,6.42-9.33,14.78-9.58,25.06c-0.11,4.84,0.52,9.42,1.92,13.72c1.15,3.54,1.97,5.86,2.48,6.96c1.27,2.71,2.86,4.66,4.75,5.83
			c0.79,0.39,1.59,0.76,2.38,1.1c0.84,0.51,1.26,1.2,1.23,2.08c-0.02,0.88-0.32,1.67-0.9,2.38c-0.58,0.71-1.19,0.98-1.82,0.8
			c-0.69-0.12-1.75-0.49-3.18-1.11c-2.53-1.57-5.23-4.88-8.11-9.92c-0.72-1.28-1.45-2.59-2.19-3.95c-0.74-1.36-1.29-2.64-1.63-3.86
			c-0.25-0.88-0.62-4.44-1.11-10.66c-0.17-1.93-0.23-3.8-0.19-5.62c0.23-9.74,3.18-17.98,8.85-24.74c3.3-3.92,6.69-5.86,10.17-5.82
			c1.5,0.02,2.85,0.5,4.06,1.45C70.63,40.98,70.8,41.59,70.78,42.53z"/>
		<path class="st3" d="M97.45,88.65c0.3,0.88,0.44,1.66,0.43,2.32c-0.03,1.1-0.5,2.06-1.43,2.87c-0.93,0.81-1.55,1.19-1.87,1.13
			c-2.61-0.53-4.22-2.72-4.82-6.58c-0.65-4.19-1.45-7.69-2.4-10.51c-1.82,0.14-3.64,0.29-5.46,0.43c-2.09,0.25-3.74,0.89-4.94,1.92
			c-0.63,1.7-1.47,4.72-2.54,9.05c-1,4-1.96,7.05-2.86,9.13c-0.45,0.99-1.37,1.25-2.75,0.79c-1.75-0.63-2.67-1.46-2.75-2.51
			c-0.11-2.09,0.54-4.89,1.96-8.4c1.7-4,2.65-6.85,2.85-8.55c0.06-0.49-0.27-1.05-1-1.66c-0.73-0.61-1.1-1.09-1.09-1.42
			c0.01-0.27,0.13-0.56,0.38-0.86c0.25-0.3,0.81-0.54,1.7-0.72c0.89-0.18,1.39-0.46,1.5-0.85c1.03-2.74,2.67-7.84,4.93-15.29
			c1.92-6.47,3.61-11.43,5.08-14.88c0.34-0.77,1.01-1.14,2.03-1.13c0.75,0.01,1.41,0.26,1.99,0.77c1.46,1.34,2.38,3.33,2.75,5.98
			c0.27,2.26,0.51,4.52,0.72,6.78C92.23,69.47,94.76,80.2,97.45,88.65z M86.11,72.75c-0.11-2.04-0.41-4.32-0.88-6.86
			c-0.48-2.21-0.94-4.41-1.37-6.62c-1.71,4.55-3.21,9.1-4.49,13.65C80.23,72.76,82.47,72.71,86.11,72.75z"/>
		<path class="st3" d="M139.66,94.51c0.19,1.1-0.6,1.7-2.37,1.79c-1.18,0.04-2.37-0.5-3.57-1.61c-0.99-0.95-1.76-2.47-2.3-4.57
			c-0.49-1.93-0.75-4.66-0.77-8.18c-0.01-3.96-0.14-6.69-0.37-8.18c-0.75,2.47-1.99,6.14-3.71,11.02c-1.03,2.69-1.65,4.22-1.87,4.6
			c-0.9,1.7-1.98,2.45-3.26,2.27c-2.55-0.63-4.5-2.14-5.83-4.53c-0.87-1.55-1.67-4.01-2.39-7.37c-0.77-3.7-1.43-6.18-1.99-7.45
			c-2.57,11.47-5.23,20.02-7.99,25.66c-0.39,0.82-1.52,0.75-3.37-0.2c-1.53-0.79-2.28-1.9-2.25-3.33c0.01-0.5,0.61-2.25,1.81-5.26
			c0.51-1.31,2.53-7.65,6.06-18.99c1.22-3.95,2.56-10.89,4.02-20.83c0.11-0.11,0.39-0.68,0.84-1.72c0.28-0.77,0.77-1.15,1.47-1.14
			c1.82,0.02,3.07,0.4,3.74,1.12c-0.04,1.6,0.16,4.17,0.58,7.72c0.42,3.55,0.61,6.24,0.57,8.05c0.41,3.09,0.79,6.2,1.14,9.34
			c0.5,3.53,1.5,6.43,3,8.7c5.48-14.63,9.01-26.2,10.61-34.71c0.23-0.88,1.05-1.31,2.44-1.29c1.98,0.02,3.08,0.7,3.32,2.02
			c0.33,1.98,0.46,4.27,0.4,6.86c-0.02,0.82-0.12,2.64-0.29,5.44c-0.11,2.26-0.15,4.1-0.13,5.53
			C137.43,76.88,138.24,86.62,139.66,94.51z"/>
		<path class="st3" d="M172.06,57.58c-0.77,2.96-2.59,5.64-5.49,8.02c-2.77,1.95-5.54,3.87-8.32,5.76c0.14,0.83,0.67,1.45,1.6,1.88
			s1.81,0.83,2.66,1.23c4.37,3.02,6.5,6.57,6.41,10.64c-0.07,3.14-1.18,6.01-3.33,8.63c-1.65,2.02-4.08,4-7.28,5.94
			c-2.6,1.51-5.21,3.02-7.81,4.53c-0.65,0.38-1.35,0.56-2.1,0.55c-1.76-0.02-2.98-0.78-3.64-2.27c0.22-4.62,0.43-9.21,0.65-13.78
			c0.24-5.5,0.64-10.03,1.2-13.6c-1.11-0.78-1.65-1.67-1.62-2.66c0.01-0.5,0.22-0.95,0.63-1.35c0.41-0.41,0.97-0.85,1.67-1.34
			c0.84-8.35,1.15-16.05,0.95-23.1c-2.5-0.52-4.13-1.7-4.89-3.52c-0.05-0.22,0.05-0.55,0.3-0.99c0.25-0.44,0.38-0.79,0.39-1.07
			c1.25-0.92,2.63-1.37,4.12-1.35c1.07,0.01,3.52,0.4,7.35,1.16c1.97,0.35,4.01,1.12,6.12,2.3c5.7,3.15,9.02,6.19,9.97,9.11
			C172.27,54.39,172.41,56.16,172.06,57.58z M161.45,85.69c0.12-0.6,0.19-1.18,0.2-1.73c0.04-1.65-0.44-3.11-1.42-4.39
			c-2.69-1.41-4.42-2.12-5.16-2.12c-0.43,0-0.83,0.07-1.21,0.23c0.04,0.55,0.05,1.16,0.04,1.82c-0.03,1.16-0.22,2.93-0.57,5.32
			c-0.35,2.39-0.54,4.19-0.57,5.4c-0.04,1.76,0.13,3.36,0.53,4.79c0.66-0.76,1.68-1.56,3.06-2.4c1.38-0.84,2.35-1.58,2.9-2.24
			C160.24,89.22,160.97,87.66,161.45,85.69z M164.62,53.37c-0.22-2.04-1.79-3.62-4.7-4.76c-0.42-0.17-1.08-0.54-1.98-1.1
			c-0.63-0.45-1.16-0.67-1.59-0.68c-0.21,0-0.46,0.05-0.73,0.16c-0.08,0.94-0.12,1.93-0.15,2.97c-0.03,1.43,0.02,3.85,0.15,7.26
			c0.09,3.14,0.08,5.59-0.01,7.35c0.37,0,0.94-0.28,1.71-0.85c0.76-0.57,1.2-0.88,1.31-0.93c1.62-0.75,3.07-2.03,4.34-3.83
			C164.24,57.16,164.79,55.3,164.62,53.37z"/>
		<path class="st3" d="M184.55,51.87c0.07,1.6,0.08,3.25,0.04,4.95c-0.09,3.74-0.6,9.37-1.52,16.9c-0.93,7.53-1.43,13.22-1.53,17.07
			c-0.03,1.43-0.04,2.83-0.02,4.21c-0.52,1.53-1.58,2.26-3.18,2.19c-2.3-0.14-3.53-1.17-3.7-3.1c-0.17-1.93-0.23-3.96-0.18-6.11
			c0.09-3.74,0.66-9.32,1.72-16.74c1.06-7.42,1.63-12.97,1.72-16.65c0.03-1.43,0.01-2.83-0.06-4.21c0.56-1.04,1.48-1.55,2.76-1.54
			c1.01,0.01,2.02,0.33,3.03,0.94c0.22-0.16,0.38-0.24,0.49-0.24c0.16,0,0.23,0.28,0.22,0.83c-0.07,0.66-0.08,1.04-0.03,1.16
			C184.36,51.7,184.44,51.81,184.55,51.87z"/>
		<path class="st3" d="M217.1,90.06c0.3,0.88,0.44,1.66,0.43,2.32c-0.03,1.1-0.5,2.06-1.43,2.87c-0.93,0.81-1.55,1.19-1.87,1.13
			c-2.61-0.53-4.22-2.72-4.82-6.58c-0.65-4.19-1.45-7.69-2.4-10.51c-1.82,0.14-3.64,0.29-5.47,0.43c-2.09,0.25-3.74,0.89-4.94,1.92
			c-0.63,1.7-1.47,4.72-2.54,9.05c-1,4-1.96,7.05-2.86,9.13c-0.45,0.99-1.37,1.25-2.75,0.79c-1.75-0.63-2.67-1.46-2.75-2.51
			c-0.11-2.09,0.54-4.89,1.96-8.4c1.7-4,2.65-6.85,2.85-8.55c0.06-0.49-0.27-1.05-1-1.66c-0.73-0.61-1.1-1.09-1.09-1.42
			c0.01-0.27,0.13-0.56,0.38-0.86c0.25-0.3,0.81-0.54,1.7-0.72c0.89-0.18,1.39-0.46,1.5-0.85c1.03-2.74,2.67-7.84,4.93-15.29
			c1.92-6.47,3.61-11.43,5.08-14.88c0.34-0.77,1.02-1.14,2.03-1.13c0.75,0.01,1.41,0.26,1.99,0.77c1.46,1.34,2.38,3.33,2.75,5.98
			c0.27,2.26,0.51,4.52,0.72,6.78C211.88,70.87,214.41,81.6,217.1,90.06z M205.76,74.16c-0.11-2.04-0.41-4.32-0.88-6.86
			c-0.48-2.21-0.94-4.41-1.37-6.62c-1.71,4.55-3.21,9.1-4.49,13.65C199.88,74.17,202.12,74.11,205.76,74.16z"/>
		<path class="st3" d="M55.29,141.52c-0.56,1.26-1.1,2.52-1.61,3.78c-0.68,1.48-1.4,2.65-2.17,3.52c-1.71,2.13-3.42,4.22-5.12,6.29
			c-2.04,2.51-3.87,4.25-5.5,5.22c-0.55,0.65-1.15,1.33-1.81,2.04c-0.66,0.71-1.31,1.06-1.95,1.05c-0.32,0-0.69-0.09-1.12-0.26
			c-0.42-0.17-0.89-0.37-1.39-0.59c-0.5-0.23-0.86-0.59-1.06-1.08c-0.11-2.31-0.13-4.79-0.07-7.43c0.06-2.69,0.26-6.71,0.61-12.04
			c0.34-5.33,0.54-9.35,0.61-12.04c0.08-3.58,0.03-6.85-0.17-9.82c-0.05-0.05-0.62-0.69-1.72-1.92c-0.68-0.72-1.01-1.39-1-1.99
			c0.01-0.27,0.07-0.55,0.18-0.82c0.28-0.66,0.88-1.03,1.79-1.13c0.7-0.1,1.39-0.18,2.09-0.22c4.47,1.04,9.11,3.69,13.93,7.92
			c1.26,1.12,2.27,2.28,3.05,3.5c2.47,3.94,3.67,7.61,3.59,11.02C56.41,138.26,56.02,139.94,55.29,141.52z M49.72,132.63
			c-0.4-3.47-3.19-6.56-8.37-9.26c-0.59,9.18-0.93,18.92-1.01,29.21c6.19-6.15,9.35-12.02,9.48-17.63
			C49.85,134.17,49.81,133.4,49.72,132.63z"/>
		<path class="st3" d="M88.23,118.88c-2,0.8-4.93,1.73-8.81,2.79c-3.88,1.06-6.81,1.98-8.81,2.79c-0.51,1.43-0.94,4.61-1.27,9.56
			c0.85,0.34,1.83,0.52,2.96,0.53c0.8,0.01,2.06-0.11,3.78-0.37c1.72-0.25,2.98-0.38,3.78-0.37c1.5,0.02,2.77,0.36,3.83,1.04
			c0.72,1.11,1.08,1.83,1.07,2.16c-0.01,0.39-0.2,0.69-0.58,0.9c-0.11,0.05-0.49,0.44-1.15,1.14c-0.44,0.49-0.98,0.7-1.62,0.64
			c-1.13,0.26-3.19,0.4-6.19,0.42c-2.51,0.03-4.53,0.33-6.04,0.92c-1.11,4.06-1.7,7.27-1.75,9.64c-0.04,1.6,0.14,2.86,0.55,3.8
			c2.47,1.84,6.81,2.67,13.02,2.46c0.43,0,0.89-0.2,1.38-0.6c0.49-0.41,0.9-0.61,1.22-0.6c1.5-0.31,2.47,0.85,2.89,3.5
			c0.14,0.88-0.03,1.69-0.5,2.43c-0.47,0.74-1.14,1.13-1.99,1.17c-6.47,0.14-12.08-0.44-16.8-1.77c-1.49-0.4-2.83-1.27-4.03-2.61
			c-1.2-1.33-1.86-2.83-1.98-4.48c-0.37-4.79-0.27-9.08,0.3-12.87c-1.47-1.06-2.12-2.09-1.93-3.08c0.06-0.49,0.49-0.94,1.27-1.35
			c0.78-0.4,1.24-0.82,1.35-1.26c0.12-0.44,0.39-3.05,0.83-7.83c-2.98-0.64-4.42-1.81-4.33-3.52c0.09-1.59,1.06-2.85,2.9-3.76
			c1.73-0.69,3.46-1.39,5.18-2.08c2-1.02,4.51-1.93,7.52-2.72c2.64-0.68,5.27-1.34,7.91-1.97c0.27-0.05,0.59-0.08,0.96-0.07
			c1.44,0.02,3.11,0.61,5.01,1.79c0.05,0.22,0.17,0.63,0.37,1.24c0.2,0.61,0.3,1.05,0.29,1.32
			C88.81,118.26,88.61,118.61,88.23,118.88z"/>
		<path class="st3" d="M144.25,110.79c-0.92,7.36-1.82,14.75-2.69,22.17c-1.12,8.79-1.75,16.13-1.88,22.02
			c-0.05,1.93-0.04,3.82,0.03,5.7c0.03,0.88-0.29,1.65-0.98,2.3c-0.68,0.65-1.45,0.97-2.31,0.96c-1.66-0.02-3.02-1.19-4.09-3.51
			c-3.26-6.92-7.26-17.75-11.99-32.5c-0.1-0.33-0.23-0.5-0.39-0.5c-0.37,0-0.62,0.38-0.75,1.15c-1.09,7.86-1.74,16.13-1.95,24.82
			c-0.1,4.18-0.09,8.44,0.02,12.79c0.01,1.6-0.46,2.69-1.44,3.28c-0.38,0.38-0.79,0.57-1.22,0.56c-0.38,0-0.85-0.18-1.43-0.51
			c-0.79-0.39-1.3-0.65-1.51-0.76c-0.69-0.23-1.1-0.89-1.24-2c-0.03-0.88-0.07-1.79-0.1-2.72c-0.09-3.08-0.09-6.3-0.01-9.66
			c0.14-5.83,0.63-13.12,1.48-21.86c1.33-13.3,2.06-20.66,2.21-22.09c0.08-1.21,1.09-1.8,3.01-1.78c0.91-0.1,2.23,0.6,3.96,2.11
			c1.63,3.38,3.61,8.85,5.95,16.41c2.24,7.24,4.3,12.73,6.19,16.5c0.97-7.31,2.49-18.35,4.55-33.13c0.19-1.1,0.97-1.64,2.36-1.62
			c0.48,0.01,1.04,0.09,1.68,0.27c0.85,0.23,1.36,0.37,1.51,0.43C143.76,109.85,144.1,110.24,144.25,110.79z"/>
		<path class="st3" d="M157.29,119.2c0.07,1.6,0.08,3.25,0.04,4.95c-0.09,3.74-0.6,9.38-1.52,16.9c-0.93,7.53-1.43,13.22-1.53,17.07
			c-0.03,1.43-0.04,2.83-0.02,4.21c-0.52,1.53-1.58,2.26-3.18,2.19c-2.3-0.14-3.53-1.17-3.7-3.1c-0.17-1.93-0.23-3.96-0.18-6.11
			c0.09-3.74,0.66-9.32,1.72-16.73c1.06-7.42,1.63-12.97,1.72-16.65c0.03-1.43,0.01-2.83-0.06-4.21c0.56-1.04,1.48-1.55,2.76-1.54
			c1.01,0.01,2.02,0.33,3.03,0.94c0.22-0.16,0.38-0.24,0.49-0.24c0.16,0,0.23,0.28,0.22,0.83c-0.07,0.66-0.08,1.04-0.03,1.15
			C157.1,119.03,157.18,119.15,157.29,119.2z"/>
		<path class="st3" d="M197.52,114.06c-2.18,3.99-5.32,11.47-9.43,22.42c-1.2,3.23-2.66,8.58-4.39,16.04
			c-1.67,7.13-3.24,12.53-4.71,16.21c-0.49,0.54-1.06,0.81-1.7,0.8c-0.75-0.01-1.7-0.43-2.86-1.27c-1.96-5.14-4.2-13.59-6.7-25.34
			c-2.36-11.2-4.78-19.73-7.26-25.59c0.73-1.37,1.33-2.05,1.81-2.04c0.43-0.27,0.86-0.4,1.29-0.4c0.85,0.01,2.33,0.85,4.43,2.53
			c1.82,4.53,3.53,10.08,5.14,16.65c1.26,5.68,2.54,11.34,3.85,16.97c2.13-6.69,4.27-13.4,6.41-20.15
			c2.53-7.56,5.09-14.08,7.68-19.55c0.84-1.42,2.24-1.87,4.2-1.35c0.21,0.06,0.47,0.27,0.79,0.63c0.31,0.36,0.71,0.56,1.19,0.59
			c0.48,0.03,0.71,0.44,0.69,1.21C197.94,112.97,197.8,113.52,197.52,114.06z"/>
		<path class="st3" d="M226.48,120.51c-2,0.8-4.93,1.73-8.81,2.79c-3.88,1.06-6.81,1.98-8.81,2.79c-0.51,1.43-0.94,4.61-1.27,9.56
			c0.85,0.34,1.83,0.52,2.96,0.53c0.8,0.01,2.06-0.11,3.78-0.37c1.72-0.25,2.98-0.38,3.78-0.37c1.5,0.02,2.77,0.36,3.83,1.04
			c0.72,1.11,1.08,1.83,1.07,2.16c-0.01,0.39-0.2,0.69-0.58,0.9c-0.11,0.05-0.49,0.44-1.15,1.14c-0.44,0.49-0.98,0.7-1.62,0.64
			c-1.13,0.26-3.19,0.4-6.19,0.42c-2.51,0.03-4.53,0.33-6.04,0.92c-1.11,4.06-1.7,7.27-1.75,9.64c-0.04,1.6,0.14,2.86,0.55,3.8
			c2.47,1.84,6.81,2.67,13.02,2.46c0.43,0,0.89-0.2,1.38-0.6c0.49-0.41,0.9-0.61,1.22-0.6c1.5-0.31,2.47,0.85,2.89,3.5
			c0.14,0.88-0.03,1.69-0.5,2.43c-0.47,0.74-1.14,1.13-1.99,1.17c-6.47,0.14-12.08-0.44-16.8-1.77c-1.49-0.4-2.83-1.27-4.03-2.61
			c-1.2-1.33-1.86-2.83-1.98-4.48c-0.37-4.79-0.27-9.08,0.3-12.87c-1.47-1.06-2.12-2.09-1.93-3.08c0.06-0.49,0.49-0.94,1.27-1.35
			c0.78-0.4,1.24-0.82,1.35-1.26c0.12-0.44,0.39-3.05,0.83-7.83c-2.98-0.64-4.42-1.81-4.33-3.52c0.09-1.59,1.06-2.85,2.9-3.76
			c1.73-0.69,3.46-1.39,5.18-2.08c2-1.02,4.51-1.93,7.52-2.72c2.64-0.68,5.27-1.34,7.91-1.97c0.27-0.05,0.59-0.08,0.96-0.07
			c1.44,0.02,3.11,0.61,5.01,1.79c0.05,0.22,0.17,0.63,0.37,1.24c0.2,0.61,0.3,1.05,0.29,1.32
			C227.06,119.88,226.86,120.24,226.48,120.51z"/>
		<path class="st3" d="M250.68,152.51c-0.11,0.05-3.29,2.31-9.54,6.77c-3.65,2.61-6.87,4.54-9.68,5.77
			c-0.32,0.16-0.65,0.24-0.97,0.24c-0.75-0.01-1.43-0.51-2.05-1.51c-0.93-1.33-1.42-2.03-1.47-2.08c0.01-4.85,0.46-11.59,1.36-20.24
			c1.02-9.19,1.58-15.83,1.67-19.9c0.07-2.81,0.02-5.45-0.13-7.94c0.71-0.71,1.6-1.06,2.67-1.04c2.03,0.02,3.19,0.81,3.47,2.35
			c0.05,4.51-0.29,11.26-1.04,20.25c-0.75,8.99-1.12,15.74-1.12,20.25c1.51-0.64,3.49-1.77,5.94-3.4c2.66-1.84,4.59-3.05,5.78-3.65
			c0.27,0,0.74-0.05,1.41-0.15c0.67-0.1,1.17-0.15,1.49-0.15c1.07,0.01,1.83,0.46,2.29,1.35
			C251.36,150.67,251.34,151.69,250.68,152.51z"/>
	</g>
	<polygon class="st43" points="185.43,182.75 223.84,193.72 213.78,199.39 228.64,222.91 200.16,238.45 185.76,213.27 
		173.94,220.07 	"/>
</g>
</svg>
