<?xml version="1.0" encoding="utf-8"?>
<!-- Generator: Adobe Illustrator 25.4.0, SVG Export Plug-In . SVG Version: 6.00 Build 0)  -->
<svg version="1.1" id="Capa_1" xmlns="http://www.w3.org/2000/svg" xmlns:xlink="http://www.w3.org/1999/xlink" x="0px" y="0px"
	 viewBox="0 0 704 411.95" style="enable-background:new 0 0 704 411.95;" xml:space="preserve">
<style type="text/css">
	.st1{fill:url(#);}
	.st2{fill:#050504;}
	.st3{fill:#FFFFFF;}
	.st4{fill:none;stroke:#FFFFFF;stroke-width:22.4065;}
	.st5{fill:none;stroke:#FFFFFF;stroke-width:11.3663;}
	.st6{fill:transparent;stroke:#000000;stroke-width:5.1402;stroke-miterlimit:10;}
	.st7{fill:#030405;}
	.st8{fill:#C6CF31;}
	.st9{stroke:#000000;stroke-width:5.1402;stroke-miterlimit:10;}
	.st10{stroke:#FFFFFF;stroke-width:4;stroke-linecap:round;stroke-linejoin:round;stroke-miterlimit:10;}
	.st11{fill:none;stroke:#FFFFFF;stroke-width:4;stroke-linejoin:round;stroke-miterlimit:10;}
	.st12{clip-path:url(#SVGID_00000110435414265064064380000007367245971123508132_);}
	.st13{fill:#C8D12A;stroke:#000000;stroke-width:5.6822;stroke-miterlimit:10;}
	.st14{stroke:#FFFFFF;stroke-width:2.9639;stroke-miterlimit:10;}
	.st15{fill:#00993D;}
	.st16{clip-path:url(#SVGID_00000099653255935486537470000012242235134471803557_);}
	.st17{fill:#C8D12A;stroke:#000000;stroke-width:5.5;stroke-miterlimit:10;}
	.st18{clip-path:url(#SVGID_00000054967772260908021940000011056334649959850880_);}
	.st19{stroke:#FFFFFF;stroke-width:4;stroke-miterlimit:10;}
	.st20{stroke:#000000;stroke-width:2.5698;stroke-miterlimit:10;}
	.st21{fill:#C8D12A;stroke:#000000;stroke-width:2.569;stroke-miterlimit:10;}
	.st22{stroke:#000000;stroke-width:2.569;stroke-miterlimit:10;}
	.st23{stroke:#FFFFFF;stroke-width:1.9992;stroke-linecap:round;stroke-linejoin:round;stroke-miterlimit:10;}
	.st24{clip-path:url(#SVGID_00000047028279560927262190000004886446204822868395_);}
	.st25{fill:#C8D12A;stroke:#000000;stroke-width:2.8287;stroke-miterlimit:10;}
	.st26{stroke:#FFFFFF;stroke-width:1.4755;stroke-miterlimit:10;}
	.st27{clip-path:url(#SVGID_00000153694264234218075290000014652442667890779011_);}
	.st28{clip-path:url(#SVGID_00000138565400723978524320000010919982654881502904_);}
	.st29{clip-path:url(#SVGID_00000164501007906949692760000007082536173107765376_);}
	.st30{clip-path:url(#SVGID_00000030488699040943290750000018135255665945060541_);}
	.st31{fill:#C8D12A;stroke:#000000;stroke-width:2.4552;stroke-miterlimit:10;}
	.st32{stroke:#FFFFFF;stroke-width:1.2719;stroke-miterlimit:10;}
	.st33{fill:#C8D12A;stroke:#000000;stroke-width:2.1112;stroke-miterlimit:10;}
	.st34{stroke:#000000;stroke-width:2.1112;stroke-miterlimit:10;}
	.st35{stroke:#FFFFFF;stroke-width:1.6429;stroke-linecap:round;stroke-linejoin:round;stroke-miterlimit:10;}
	.st36{clip-path:url(#SVGID_00000101078431711982149470000011851153282712125571_);}
	.st37{stroke:#000000;stroke-width:2.1118;stroke-miterlimit:10;}
	.st38{clip-path:url(#SVGID_00000168837657098106053620000018375205622184293761_);}
	.st39{clip-path:url(#SVGID_00000177459590295941461580000011367663397656224944_);}
	.st40{clip-path:url(#SVGID_00000124152489752338645350000016285058608709794474_);}
	.st41{opacity:0.9;fill:#00993D;}
	.st42{opacity:0.9;fill:#FFFFFF;}
</style>
<g>
	<path class="st6" d="M183.71,110.76H51.95c-27.27,0-49.38,22.11-49.38,49.38v199.85c0,27.27,22.11,49.38,49.38,49.38h600.1
		c27.27,0,49.38-22.11,49.38-49.38V160.14c0-27.27-22.11-49.38-49.38-49.38H516.92"/>
	<g>
		<path d="M83.86,215.85c20.4-0.13,40.73,0.14,61.01,0.81c8.4,0.08,13.34,0.78,14.81,2.11c1.34,0.93,2.02,2.66,2.03,5.19l0.03,4.2
			c-0.21,10.14-1.17,16.08-2.89,17.82l-1.99,2.01l-13.4-0.51l-13.6-0.31l0.39,29.4l0.09,14.2c0.07,10.4-0.29,16.94-1.07,19.61
			c-0.79,2.41-2.04,4.68-3.76,6.82l-2.19,2.21l-10.4-0.53c-10.14-0.6-15.81-1.43-17.02-2.49c-0.4-0.53-0.81-11.86-1.22-33.99
			c-0.28-22-0.61-33.2-1.01-33.59c-0.27-0.4-4.14-0.84-11.61-1.33c-8.27-0.48-13.68-1.31-16.22-2.5c-2.28-1.05-3.42-3.64-3.45-7.78
			l0.19-2l-0.01-2c0.23-5.73,0.77-9.71,1.62-11.91c0.85-2.21,2.54-3.85,5.07-4.93C70.33,216.07,75.2,215.9,83.86,215.85z"/>
		<path d="M180.93,226.43c1.19-0.81,4.06-1.23,8.59-1.25c4.67-0.03,9.1,0.28,13.31,0.92c4.2,0.64,6.71,1.49,7.52,2.55
			c0.94,1.06,1.41,1.99,1.42,2.79c0,0.13,0.13,0.2,0.4,0.2c0.8-0.01,2.66-0.75,5.59-2.24c5.58-2.84,10.64-4.27,15.17-4.3
			c4.67-0.03,9.47,1.27,14.43,3.91c4.95,2.64,7.43,5.42,7.45,8.35c0.01,1.6-1.1,4.84-3.34,9.72c-2.24,4.88-4.21,8.6-5.93,11.14
			c-1.32,2.01-2.71,3.02-4.18,3.03c-0.53,0-2-0.32-4.41-0.97c-2.41-0.79-4.68-1.17-6.81-1.16c-4.53,0.03-8.19,1.85-10.97,5.47
			c-4.76,6.16-7.07,19.51-6.94,40.04l0.02,2.8c0.02,2.93-0.14,5-0.46,6.2c-0.33,1.2-1.12,2.01-2.38,2.42
			c-1.27,0.41-3.37,0.62-6.3,0.64l-3.4-0.18l-4.4,0.03c-9.34-0.21-14.67-0.77-16.01-1.7c-1.61-1.06-2.48-2.18-2.62-3.38
			c-0.41-1.46-0.64-6.46-0.7-15c-0.08-12.93,0.13-26.93,0.63-42.01c0.5-15.07,1.08-23.41,1.74-25.01
			C179.01,228.11,179.87,227.1,180.93,226.43z"/>
		<path d="M337.14,226.83c7.47-0.05,13.27,0.38,17.41,1.29c2.94,0.65,5.11,1.7,6.52,3.16c1.41,1.46,2.46,3.72,3.14,6.78
			c0.41,1.73,0.65,7.67,0.71,17.8c0.14,22.8-0.22,38.34-1.1,46.61c-0.37,4.4-0.95,7.41-1.74,9.01c-0.79,1.6-2.35,2.68-4.68,3.23
			c-2.33,0.55-6.76,0.98-13.29,1.29c-1.73,0.15-4.6,0.23-8.6,0.25c-2.93,0.02-4.87-0.27-5.81-0.86c-0.94-0.59-1.88-1.95-2.83-4.08
			c-0.95-2.12-1.69-3.19-2.22-3.19c-0.53,0-2.59,0.89-6.18,2.64c-5.58,2.7-10.91,4.07-15.97,4.1c-5.33,0.03-10.95-1.93-16.84-5.89
			c-5.89-3.96-10.83-9.13-14.8-15.51c-3.98-6.38-5.98-12.89-6.02-19.56c-0.02-2.93,0.23-5.27,0.75-7l0.58-3l0.39-2.2
			c0.38-3.07,2.68-7.88,6.91-14.44c6.47-10.17,14.76-16.49,24.88-18.96c2-0.41,4.06-0.63,6.2-0.64c7.47-0.05,13.68,1.78,18.64,5.48
			c1.34,0.93,2.34,1.39,3.01,1.38c0.67,0,1-0.47,0.99-1.41c0-0.67,0.55-1.7,1.68-3.11c1.12-1.41,2.15-2.31,3.08-2.72
			C332.47,227,334.2,226.85,337.14,226.83z M316.13,256.97c-3.2,0.02-6.06,0.97-8.58,2.86c-2.52,1.88-4.24,4.43-5.15,7.63
			c-0.39,1.2-0.58,2.47-0.58,3.8c0.02,3.47,1.44,6.23,4.25,8.27c2.81,2.05,6.62,3.06,11.42,3.03c2.53-0.02,4.23-0.16,5.1-0.43
			c0.86-0.27,1.43-0.88,1.69-1.81c0.26-0.93,0.58-2.94,0.96-6.01c0.51-3.6,0.75-7.14,0.73-10.6c-0.01-2-0.15-3.23-0.42-3.7
			c-0.27-0.46-1.21-1.02-2.81-1.68C320.86,257.41,318.66,256.95,316.13,256.97z"/>
		<path d="M440.71,222.57c9.2-0.06,16.42,2.43,21.65,7.46c5.23,5.04,9,11.41,11.32,19.13c1.09,3.59,1.76,14.26,2,31.99l0.08,12.6
			c0.06,9.2-0.31,14.2-1.1,15.01c-0.53,0.8-1.59,1.28-3.19,1.42c-1.6,0.28-6.4,0.51-14.4,0.69l-16.4,0.5l-0.81-1.79
			c-0.14-0.53-0.58-7-1.32-19.39c-0.2-10-0.71-17.66-1.55-22.99c-0.82-3.86-2.38-7.05-4.66-9.57c-1.21-1.19-2.81-1.78-4.81-1.77
			c-9.73,0.06-14.54,9.23-14.42,27.49c0.03,5.2,0.12,8.73,0.27,10.6c0.15,2.53,0.24,6.6,0.28,12.2c0.02,3.47-0.17,5.4-0.56,5.8
			s-4.16,0.76-11.29,1.07c-7.13,0.31-13.37,0.48-18.7,0.52c-2.13,0.01-3.57-0.11-4.3-0.37c-0.74-0.26-1.24-0.86-1.51-1.79
			c-0.27-0.93-0.49-2.6-0.63-5c-0.14-1.6-0.25-7.67-0.32-18.2l-0.32-18l-0.13-19.8l-0.29-14.4c-0.02-3.73,0.19-6.37,0.65-7.9
			c0.46-1.53,1.42-2.54,2.88-3.02c1.46-0.47,3.93-0.72,7.4-0.75l10-0.06c7.33-0.05,11.8,0.26,13.41,0.91
			c1.33,0.53,2.02,2.66,2.04,6.39c0.02,3.2,0.23,4.8,0.63,4.8s1.92-1.28,4.58-3.83c4.64-4.3,9.49-7.19,14.55-8.69
			C434.65,223.01,437.64,222.59,440.71,222.57z"/>
		<path d="M509.63,209.33c4.67-0.03,8.13,0.22,10.4,0.73c2.27,0.52,3.81,1.58,4.62,3.17c0.67,1.46,1.2,5.53,1.58,12.19
			c0.38,6.67,0.58,13,0.62,19c0.04,5.87,0.12,8.8,0.26,8.8c0.4,0,3.18-3.49,8.33-10.45c3.83-5.23,8.76-11.32,14.78-18.3
			c6.02-6.97,9.7-10.79,11.03-11.47c0.93-0.54,1.79-0.81,2.6-0.82c1.6-0.01,4.61,1.4,9.03,4.24c4.42,2.84,8.04,5.78,10.86,8.83
			c2.82,3.18,4.24,5.71,4.25,7.57c0.01,0.93-0.58,2.34-1.77,4.21c-1.72,2.41-5.55,7.2-11.51,14.37c-5.96,7.17-10.59,12.5-13.9,15.99
			l-6.36,7.04l6.04,6.76c3.76,4.11,8.19,9.22,13.3,15.31c5.1,6.1,7.93,9.62,8.47,10.55l0.41,1.4c0.01,1.73-4.11,3.23-12.37,4.48
			c-7.33,1.12-11.52,1.87-12.59,2.28c-2.13,0.55-3.86,0.82-5.19,0.83c-2,0.01-3.74-0.51-5.21-1.57c-1.07-0.79-4.16-4.57-9.27-11.34
			c-4.84-6.37-7.53-9.55-8.06-9.55c-0.54,0-1.27,0.68-2.19,2.01c-1.19,1.61-1.84,5.21-1.93,10.81c-0.1,5.87-0.67,9.34-1.73,10.41
			c-0.93,0.94-2.86,1.42-5.79,1.44c-3.73,0.02-6.33-0.03-7.8-0.15c-6.67-0.09-11.74-0.52-15.21-1.3c-2.67-0.51-4.41-1.34-5.22-2.47
			c-0.81-1.13-1.36-3.29-1.64-6.49c-0.15-3.06-0.41-11.66-0.76-25.8l-0.05-8.2c-0.17-26.67,0.31-45.67,1.44-57.01
			c0.25-2.53,0.84-4.24,1.77-5.11c0.93-0.87,2.92-1.45,5.99-1.74C500.7,209.59,504.96,209.36,509.63,209.33z"/>
		<path d="M623.2,235.61l5.4-0.03l2.2-0.01c1.87-0.01,3.4,0.18,4.6,0.57c1.07,0.39,1.77,0.86,2.11,1.39c0.33,0.53,0.58,1.6,0.72,3.2
			c0.29,3.47,0.5,15.8,0.64,37c0.14,22.27-0.05,33.67-0.58,34.2c-1.06,1.08-5.26,1.63-12.59,1.68l-7.2,0.05l-5.4-0.17
			c-3.2,0.02-5.07-0.03-5.6-0.16c-1.33-0.12-2.4-0.58-3.21-1.38l-1.61-1.59l-0.37-27l-0.05-8.4c-0.15-23.33,0.57-35.87,2.16-37.61
			c0.66-0.8,4.92-1.3,12.79-1.48C619.73,235.83,621.73,235.75,623.2,235.61z M620.16,198.63c4.4-0.03,8.21,1.48,11.43,4.53
			c3.22,3.05,4.84,6.44,4.87,10.17l0.02,2.6c-0.24,3.87-1.76,6.91-4.54,9.13c-2.79,2.22-6.51,3.34-11.18,3.37l-1.2,0.01
			c-4.67-0.24-8.45-1.58-11.33-4.03c-2.88-2.45-4.34-5.6-4.36-9.47c-0.01-2,0.31-3.83,0.96-5.51c0.66-1.67,1.91-3.51,3.76-5.52
			C611.9,200.41,615.76,198.65,620.16,198.63z"/>
	</g>
	<g>
		<path class="st7" d="M444.67,107.41c0-0.21,0-0.42-0.01-0.62c0-0.21-0.01-0.41-0.01-0.61c-0.86-27.08-13.77-51.07-33.52-66.84
			h-0.01c-0.09,0.13-0.18,0.26-0.28,0.39c-0.19,0.26-0.4,0.52-0.61,0.78c-0.33,0.38-0.69,0.77-1.09,1.18
			c-0.13,0.13-0.27,0.26-0.41,0.41c-0.29,0.27-0.6,0.55-0.93,0.85c-0.38,0.32-0.78,0.64-1.19,0.96c-0.11,0.08-0.23,0.17-0.34,0.26
			c8.16,6.42,15.09,14.34,20.36,23.36c-6.59-8.44-14.77-15.57-24.1-20.93c-0.57,0.32-1.18,0.65-1.8,0.97
			c-4.18,2.15-9,3.88-15.17,5.48c-0.96,0.24-1.92,0.47-2.9,0.68c-0.86,0.19-1.72,0.37-2.6,0.54c-0.46,0.1-0.93,0.19-1.4,0.27
			c-0.34,0.07-0.69,0.13-1.04,0.19c-0.82,0.14-1.65,0.28-2.48,0.4c-0.36,0.07-0.73,0.13-1.11,0.17c-0.39,0.06-0.78,0.12-1.17,0.17
			c-0.96,0.14-1.94,0.26-2.92,0.37c-0.95,0.11-1.91,0.21-2.87,0.29c-0.84,0.08-1.68,0.15-2.53,0.21c-0.06,0.01-0.12,0.01-0.18,0.01
			c-0.41,0.04-0.82,0.06-1.24,0.09c-0.89,0.06-1.79,0.11-2.69,0.15c-0.7,0.03-1.4,0.06-2.1,0.08c-0.71,0.02-1.41,0.04-2.13,0.06
			c-0.71,0.01-1.43,0.02-2.15,0.03h-1.21c-0.41,0-0.81-0.01-1.21-0.01c-0.49,0-0.98-0.01-1.47-0.02c-0.47-0.01-0.94-0.02-1.41-0.04
			c-0.7-0.02-1.4-0.05-2.1-0.08c-8.66-0.35-16.61-1.41-24.14-3.2c-3.31-0.81-6.24-1.67-8.89-2.63
			c-21.35,15.08-35.22,40.03-35.04,68.16c0.09,15.02,4.18,29.08,11.25,41.18c-10.84-13.89-17.36-31.35-17.48-50.35
			c-0.16-25.93,11.61-49.15,30.18-64.44c-0.84-0.57-1.62-1.17-2.35-1.79c-0.92-0.8-1.72-1.59-2.4-2.4
			c-18.32,15.59-30.23,38.46-31.31,64.1c-0.01,0.23-0.02,0.45-0.02,0.68v0.01c-0.01,0.24-0.02,0.47-0.03,0.71
			c-0.03,0.98-0.04,1.98-0.03,2.97c0.01,1.84,0.08,3.67,0.2,5.48c0.02,0.24,0.03,0.49,0.06,0.73c0.01,0.24,0.03,0.47,0.05,0.71
			c3.82,45.97,42.5,81.96,89.42,81.66c46.59-0.29,84.6-36.29,88.27-81.89c0.03-0.21,0.04-0.42,0.05-0.63
			c0.02-0.2,0.04-0.4,0.04-0.61c0.16-2.17,0.22-4.36,0.21-6.58C444.69,108.12,444.68,107.76,444.67,107.41z M302.87,99.52
			c-1.06-0.72-1.46-2.04-0.97-3.22c2.55-6.13,8.5-10.13,15.15-10.18c6.79-0.04,12.83,4,15.4,10.29c0.47,1.17,0.09,2.5-0.97,3.2
			c-0.45,0.31-0.96,0.47-1.47,0.47c-0.68,0-1.34-0.25-1.86-0.75c-9.22-8.84-17.02-4.94-21.93-0.11
			C305.3,100.11,303.92,100.23,302.87,99.52z M396.97,126.29c-6.69,16.07-22.48,27.41-40.98,27.53
			c-18.81,0.12-34.98-11.4-41.66-27.82c-1.21-2.96,2.45-5.46,4.76-3.24c32.56,31.23,60.14,13.06,73.11,0.32
			C394.47,120.86,398.19,123.36,396.97,126.29z M408.08,99.12c-0.45,0.31-0.97,0.47-1.48,0.47c-0.67,0.01-1.33-0.25-1.86-0.75
			c-9.22-8.84-17.02-4.94-21.93-0.11c-0.91,0.89-2.29,1.01-3.35,0.3c-1.06-0.72-1.46-2.05-0.96-3.22
			c2.55-6.13,8.49-10.13,15.15-10.17c6.78-0.04,12.82,3.99,15.4,10.28C409.53,97.09,409.13,98.42,408.08,99.12z"/>
		<path class="st0" d="M411.13,39.34c-0.09,0.13-0.18,0.26-0.28,0.39c-0.19,0.26-0.4,0.52-0.62,0.78c0.21-0.26,0.42-0.52,0.61-0.78
			C410.94,39.6,411.03,39.47,411.13,39.34L411.13,39.34z"/>
		<path class="st7" d="M413.41,19.11c-0.07-0.4-0.15-0.79-0.26-1.18c-0.06-0.22-0.13-0.44-0.2-0.66c-0.26-0.84-0.64-1.65-1.11-2.43
			c-1.44-2.33-3.51-4.36-6.34-6.16c-4.05-2.51-8.65-4.35-14.96-5.95c-9.69-2.27-20.07-3.13-30.88-2.56
			c-0.96,0.06-1.7,0.83-1.74,1.78c-0.04,0.96,0.67,1.78,1.61,1.89c11.76,1.45,20.75,3.38,28.31,6.09c4.96,1.76,8.66,3.63,11.31,5.71
			c0.62,0.49,1.21,1.05,1.82,1.7c0.03,0.03,0.05,0.06,0.07,0.09c0.47,0.54,0.81,1.04,1.02,1.47c0.4,0.92,0.43,1.66,0.06,2.47
			c-0.55,1.31-2.2,2.8-4.59,4.22c-0.87,0.51-1.85,1.01-2.9,1.49c-0.66,0.29-1.34,0.57-2.04,0.85c-11.45-5.24-24.19-8.13-37.61-8.04
			c-13.8,0.09-26.85,3.31-38.48,8.98c-1.19-0.42-2.31-0.86-3.36-1.32c-1.02-0.44-1.97-0.92-2.82-1.4c-2.45-1.4-4.13-2.9-4.68-4.24
			c-0.34-0.77-0.32-1.55,0.06-2.4c0.22-0.46,0.56-0.96,0.99-1.47c0.52-0.61,1.18-1.25,1.96-1.89c2.65-2.11,6.34-4.02,11.29-5.83
			c7.56-2.81,16.53-4.84,28.24-6.42c0.94-0.12,1.64-0.95,1.59-1.91c-0.05-0.94-0.81-1.71-1.77-1.75
			c-10.8-0.44-21.18,0.55-30.87,2.94c-6.14,1.6-10.85,3.55-14.87,6.09c-2.83,1.85-4.88,3.87-6.3,6.19
			c-0.86,1.46-1.41,2.99-1.62,4.52c-0.24,1.57-0.1,3.24,0.44,4.95c0.24,0.75,0.55,1.5,0.95,2.23c0.97,1.79,2.41,3.52,4.37,5.22
			c1.4,1.18,2.94,2.26,4.76,3.31c0.73,0.41,1.5,0.83,2.33,1.24c1.37,0.69,2.81,1.33,4.34,1.94c3.17,1.26,6.74,2.36,10.91,3.39
			c1.42,0.34,2.86,0.65,4.32,0.93c6.24,1.23,12.8,1.98,19.82,2.27c2.42,0.1,4.88,0.16,7.4,0.15c11.57-0.1,21.87-1.32,31.51-3.72
			c0.9-0.23,1.76-0.47,2.6-0.71c0.59-0.16,1.17-0.33,1.73-0.51c0.01,0.01,0.01,0.01,0.01,0c2.75-0.82,5.2-1.71,7.45-2.67
			c0.61-0.26,1.2-0.52,1.78-0.8c0.55-0.25,1.08-0.51,1.6-0.78c0.35-0.18,0.69-0.37,1.03-0.55c0.67-0.37,1.3-0.74,1.92-1.12
			c0.22-0.13,0.43-0.26,0.63-0.39c0.68-0.43,1.33-0.88,1.94-1.35c0.54-0.4,1.05-0.8,1.55-1.22c0.23-0.2,0.45-0.4,0.65-0.59
			c0.2-0.19,0.4-0.37,0.58-0.56c0.58-0.58,1.07-1.13,1.51-1.68c0.1-0.13,0.2-0.26,0.3-0.39c0.13-0.17,0.25-0.34,0.37-0.51
			c0.24-0.33,0.46-0.68,0.66-1.02c0.07-0.12,0.14-0.23,0.2-0.35c0.05-0.09,0.1-0.17,0.15-0.26c0.07-0.15,0.14-0.29,0.21-0.44
			c0.14-0.3,0.27-0.6,0.38-0.9c0.09-0.23,0.17-0.45,0.24-0.67c0.09-0.25,0.17-0.5,0.24-0.76c0.05-0.22,0.11-0.45,0.15-0.68
			c0.02-0.12,0.04-0.25,0.06-0.37c0.04-0.25,0.07-0.51,0.09-0.77C413.61,20.94,413.57,20.02,413.41,19.11z M354.6,26.47
			c9.67-0.06,18.97,1.54,27.62,4.54c-0.06,0.02-0.12,0.04-0.19,0.05c-4.55,1-9.21,1.74-13.87,2.17c-4.48,0.47-9.14,0.72-14.25,0.75
			c-4.91,0.05-9.7-0.16-14.28-0.57c-4.34-0.37-8.75-0.99-13.11-1.86C335.28,28.32,344.73,26.53,354.6,26.47z"/>
		<path class="st7" d="M448.11,108.34c0,0,12.95-16.67,20.94-16.11c7.99,0.57,32.86,23.6,32.86,23.6s10.21,9.76,1.79,13.81
			c-8.43,4.04-17.86-5.26-17.86-5.26s-1,10.45-13.83-0.22c0,0-5.32,8.8-12.45-1.45c-7.13-10.25-10.51-9.76-11.43-9.3
			c-0.92,0.47-4.11,4.63-5.67,0.34C440.9,109.46,442.41,104.08,448.11,108.34L448.11,108.34z"/>
		<path class="st7" d="M499.19,131.29c-5.72,0.04-10.99-4.01-12.96-5.72c-0.33,1.16-1.13,2.9-2.96,3.66
			c-2.62,1.08-6.37-0.32-11.12-4.17c-0.8,1.05-2.7,3.13-5.44,3.22c-2.61,0.08-5.17-1.68-7.65-5.22c-7.25-10.43-10.32-9.26-10.64-9.1
			c-0.12,0.05-0.4,0.31-0.65,0.52c-0.97,0.84-2.43,2.11-3.89,1.74c-0.87-0.23-1.54-0.99-2-2.26c-0.94-2.58-0.93-5.89,0.89-7.24
			c0.91-0.68,2.53-1.05,5.22,0.77c2.22-2.77,13.56-16.4,21.1-15.87c8.11,0.57,32.22,22.81,33.24,23.75
			c0.25,0.25,5.99,5.8,5.24,10.52c-0.29,1.84-1.51,3.29-3.61,4.3C502.37,130.97,500.77,131.28,499.19,131.29L499.19,131.29z
			 M485.37,123.04l0.91,0.91c0.09,0.09,9.23,8.95,17.15,5.14c1.75-0.84,2.71-1.95,2.94-3.39c0.65-4.09-4.81-9.37-4.87-9.43
			c-0.23-0.22-24.8-22.88-32.48-23.42c-7.58-0.54-20.29,15.7-20.42,15.86l-0.37,0.49l-0.49-0.37c-1.85-1.39-3.36-1.78-4.24-1.13
			c-1.14,0.86-1.35,3.41-0.46,5.84c0.31,0.87,0.7,1.37,1.15,1.48c0.84,0.22,2.04-0.84,2.78-1.48c0.38-0.33,0.65-0.57,0.89-0.69
			c1.25-0.63,4.93-0.97,12.21,9.49c2.22,3.19,4.44,4.77,6.59,4.7c2.89-0.1,4.81-3.18,4.83-3.21l0.36-0.62l0.55,0.46
			c5.75,4.8,8.82,5.04,10.37,4.4c2.12-0.87,2.44-3.73,2.44-3.77L485.37,123.04z"/>
		<path class="st8" d="M490.05,126.92c0,0-4.42-3.02-11.41-14.15C478.65,112.76,485.61,127.64,490.05,126.92L490.05,126.92z"/>
		<path class="st8" d="M471.86,123.23c0,0-5.98-5.9-6.73-10.76c0,0,0.4,5.58,6.13,12.14L471.86,123.23z"/>
		<path class="st8" d="M459.53,99.23L459.53,99.23c-0.27-0.23-0.28-0.64-0.04-0.89c1.16-1.21,4.49-4.35,8.14-5
			c0.36-0.05,0.68,0.2,0.72,0.56c0.03,0.32-0.19,0.6-0.51,0.65c-3.26,0.59-6.38,3.54-7.46,4.65
			C460.15,99.43,459.78,99.44,459.53,99.23L459.53,99.23z"/>
		<path class="st8" d="M504.83,127.26L504.83,127.26c-0.31-0.09-0.49-0.41-0.43-0.72c1.28-6.14-6.67-11.25-8.79-12.51
			c-0.28-0.17-0.38-0.53-0.23-0.81l0.01-0.01c0.16-0.31,0.54-0.41,0.84-0.24c2.33,1.35,10.87,6.83,9.37,13.84
			C505.53,127.14,505.17,127.36,504.83,127.26L504.83,127.26z"/>
		<path class="st8" d="M480.97,127.94c-0.56,0-1.16-0.1-1.8-0.3c-0.34-0.1-0.52-0.47-0.39-0.81c0.12-0.3,0.45-0.46,0.76-0.36
			c1.12,0.35,2.06,0.31,2.79-0.11c0.91-0.54,1.35-1.56,1.53-2.18c0.09-0.29,0.38-0.47,0.68-0.43c0.37,0.05,0.61,0.41,0.51,0.77
			c-0.25,0.83-0.83,2.15-2.1,2.89C482.35,127.77,481.7,127.93,480.97,127.94L480.97,127.94z"/>
		<path class="st8" d="M469.15,124.53c-2.39-2.19-4.3-6.64-4.94-8.26c-0.12-0.32,0.04-0.68,0.36-0.8h0.01
			c0.31-0.12,0.66,0.04,0.78,0.36c0.6,1.53,2.43,5.8,4.6,7.78c0.24,0.21,0.28,0.57,0.09,0.82
			C469.83,124.72,469.41,124.77,469.15,124.53L469.15,124.53z"/>
		<path class="st8" d="M457.72,100c0,0.33,0.28,0.6,0.61,0.6c0.33-0.01,0.6-0.28,0.6-0.61c-0.01-0.33-0.28-0.6-0.61-0.6
			C457.99,99.39,457.72,99.67,457.72,100L457.72,100z"/>
		<path class="st8" d="M462.89,114.59c0.01,0.42,0.34,0.76,0.76,0.75c0.42,0,0.76-0.34,0.76-0.76c0-0.41-0.34-0.75-0.76-0.74
			C463.22,113.84,462.89,114.17,462.89,114.59L462.89,114.59z"/>
		<path class="st8" d="M477.08,125.94c0,0.33,0.27,0.6,0.61,0.6c0.33,0,0.6-0.28,0.6-0.6c0-0.34-0.28-0.6-0.61-0.6
			S477.07,125.6,477.08,125.94L477.08,125.94z"/>
		<path class="st8" d="M502.74,128.01c0.01,0.31,0.27,0.57,0.58,0.57c0.32,0,0.57-0.26,0.57-0.57c-0.01-0.32-0.26-0.57-0.58-0.57
			C503,127.43,502.74,127.69,502.74,128.01L502.74,128.01z"/>
		<path class="st7" d="M262.84,107.69c0,0-14.75-18.5-23.7-17.75c-8.94,0.74-36.5,26.92-36.5,26.92s-11.3,11.09-1.79,15.51
			c9.49,4.41,19.92-6.16,19.92-6.16s1.29,11.7,15.5-0.44c0,0,6.09,9.78,13.93-1.81c7.84-11.58,11.64-11.09,12.67-10.59
			c1.04,0.52,4.68,5.13,6.38,0.31C270.94,108.84,269.18,102.83,262.84,107.69L262.84,107.69z"/>
		<path class="st7" d="M205.92,134.15c-1.77,0.01-3.58-0.33-5.36-1.16c-2.37-1.1-3.76-2.71-4.11-4.76
			c-0.91-5.29,5.45-11.6,5.71-11.86c1.14-1.08,27.85-26.36,36.93-27.12c8.45-0.71,21.35,14.43,23.88,17.5
			c2.98-2.09,4.81-1.69,5.84-0.95c2.06,1.5,2.11,5.21,1.09,8.11c-0.49,1.44-1.24,2.3-2.21,2.56c-1.63,0.44-3.29-0.97-4.38-1.9
			c-0.28-0.23-0.61-0.51-0.74-0.57c-0.36-0.18-3.81-1.42-11.79,10.35c-2.72,4.01-5.57,6.01-8.5,5.97c-3.05-0.07-5.23-2.38-6.13-3.53
			c-5.28,4.37-9.45,6-12.4,4.83c-2.07-0.83-2.99-2.77-3.37-4.06C218.18,129.5,212.33,134.1,205.92,134.15L205.92,134.15z
			 M239.66,90.6c-0.15,0-0.31,0.01-0.46,0.02c-8.61,0.72-35.81,26.47-36.08,26.73c-0.05,0.06-6.1,6.06-5.32,10.64
			c0.28,1.6,1.37,2.83,3.34,3.74c8.94,4.16,19.05-5.91,19.14-6.01l1.03-1.03l0.16,1.44c0,0.03,0.39,3.25,2.78,4.19
			c1.77,0.7,5.2,0.38,11.58-5.07l0.61-0.52l0.42,0.68c0.01,0.03,2.21,3.47,5.45,3.52h0.12c2.38-0.01,4.8-1.82,7.2-5.36
			c8.02-11.84,12.15-11.5,13.55-10.82c0.28,0.14,0.59,0.41,1.02,0.77c0.82,0.7,2.21,1.86,3.13,1.62c0.5-0.14,0.93-0.71,1.27-1.69
			c0.95-2.73,0.68-5.6-0.61-6.54c-0.99-0.72-2.68-0.25-4.73,1.32l-0.54,0.41l-0.42-0.53C262.16,107.94,248.19,90.55,239.66,90.6
			L239.66,90.6z"/>
		<path class="st8" d="M216.1,129.11c0,0,4.91-3.45,12.58-16.02C228.68,113.09,221.1,129.86,216.1,129.11L216.1,129.11z"/>
		<path class="st8" d="M236.45,124.71c0,0,6.61-6.7,7.39-12.16c0,0-0.36,6.25-6.69,13.7L236.45,124.71z"/>
		<path class="st8" d="M249.92,97.64L249.92,97.64c0.29-0.27,0.31-0.73,0.03-1c-1.33-1.34-5.1-4.82-9.2-5.5
			c-0.39-0.07-0.75,0.23-0.78,0.63c-0.03,0.36,0.22,0.68,0.57,0.73c3.66,0.6,7.2,3.87,8.43,5.1
			C249.23,97.87,249.64,97.89,249.92,97.64L249.92,97.64z"/>
		<path class="st8" d="M199.55,129.7L199.55,129.7c0.35-0.11,0.54-0.46,0.47-0.81c-1.52-6.86,7.31-12.72,9.68-14.16
			c0.31-0.19,0.41-0.6,0.25-0.92l-0.01-0.01c-0.19-0.33-0.62-0.46-0.95-0.26c-2.59,1.55-12.07,7.82-10.31,15.65
			C198.76,129.6,199.16,129.82,199.55,129.7L199.55,129.7z"/>
		<path class="st8" d="M226.79,129.76c0.63-0.01,1.31-0.12,2.01-0.36c0.38-0.12,0.57-0.54,0.43-0.92c-0.14-0.33-0.51-0.5-0.86-0.39
			c-1.25,0.41-2.31,0.37-3.13-0.08c-1.03-0.59-1.53-1.74-1.74-2.43c-0.11-0.32-0.43-0.52-0.77-0.47c-0.41,0.06-0.68,0.49-0.55,0.88
			c0.28,0.91,0.95,2.41,2.38,3.21C225.23,129.59,225.97,129.77,226.79,129.76L226.79,129.76z"/>
		<path class="st8" d="M239.5,126.14c2.65-2.49,4.72-7.51,5.41-9.32c0.15-0.37-0.05-0.77-0.41-0.89c-0.35-0.13-0.73,0.05-0.87,0.4
			c-0.65,1.72-2.65,6.54-5.05,8.78c-0.26,0.25-0.3,0.65-0.08,0.93C238.74,126.37,239.21,126.41,239.5,126.14L239.5,126.14z"/>
		<path class="st8" d="M251.96,98.49c0.01,0.37-0.3,0.68-0.68,0.68c-0.38,0-0.68-0.3-0.68-0.68c0-0.38,0.3-0.69,0.68-0.69
			S251.96,98.11,251.96,98.49L251.96,98.49z"/>
		<path class="st8" d="M246.37,114.91c0.01,0.47-0.37,0.85-0.84,0.85c-0.47,0-0.85-0.38-0.86-0.84c0-0.47,0.37-0.84,0.84-0.85
			C245.98,114.06,246.37,114.44,246.37,114.91L246.37,114.91z"/>
		<path class="st8" d="M231.3,127.39c0,0.38-0.3,0.69-0.68,0.69s-0.68-0.31-0.68-0.68c0-0.38,0.3-0.68,0.68-0.69
			C230.99,126.71,231.3,127.02,231.3,127.39L231.3,127.39z"/>
		<path class="st8" d="M201.89,130.51c0.01,0.36-0.28,0.65-0.64,0.65c-0.36,0-0.65-0.29-0.65-0.65c-0.01-0.35,0.28-0.65,0.64-0.65
			C201.6,129.87,201.89,130.16,201.89,130.51L201.89,130.51z"/>
	</g>
</g>
</svg>
