<?xml version="1.0" encoding="utf-8"?>
<!-- Generator: Adobe Illustrator 25.4.0, SVG Export Plug-In . SVG Version: 6.00 Build 0)  -->
<svg version="1.1" id="Capa_1" xmlns="http://www.w3.org/2000/svg" xmlns:xlink="http://www.w3.org/1999/xlink" x="0px" y="0px"
	 viewBox="0 0 835.45 503.16" style="enable-background:new 0 0 835.45 503.16;" xml:space="preserve">
<style type="text/css">
	.st0{fill:#C8D12A;}
	.st1{fill:url(#);}
	.st2{fill:#050504;}
	.st3{fill:#FFFFFF;}
	.st4{fill:none;stroke:#FFFFFF;stroke-width:22.4065;}
	.st5{fill:none;stroke:#FFFFFF;stroke-width:11.3663;}
	.st6{fill:#C8D12A;stroke:#000000;stroke-width:5.1402;stroke-miterlimit:10;}
	.st7{fill:#030405;}
	.st8{fill:#C6CF31;}
	.st9{stroke:#000000;stroke-width:5.1402;stroke-miterlimit:10;}
	.st10{stroke:#FFFFFF;stroke-width:4;stroke-linecap:round;stroke-linejoin:round;stroke-miterlimit:10;}
	.st11{fill:none;stroke:#FFFFFF;stroke-width:4;stroke-linejoin:round;stroke-miterlimit:10;}
	.st12{clip-path:url(#SVGID_00000172424068799224595770000006915267584969763458_);}
	.st13{fill:#C8D12A;stroke:#000000;stroke-width:5.6822;stroke-miterlimit:10;}
	.st14{stroke:#FFFFFF;stroke-width:2.9639;stroke-miterlimit:10;}
	.st15{fill:#00993D;}
	.st16{clip-path:url(#SVGID_00000049940199924091542440000004799002917910547388_);}
	.st17{fill:#C8D12A;stroke:#000000;stroke-width:5.5;stroke-miterlimit:10;}
	.st18{clip-path:url(#SVGID_00000145765576235987737000000016680607431188735638_);}
	.st19{stroke:#FFFFFF;stroke-width:4;stroke-miterlimit:10;}
	.st20{stroke:#000000;stroke-width:2.5698;stroke-miterlimit:10;}
	.st21{fill:#C8D12A;stroke:#000000;stroke-width:2.569;stroke-miterlimit:10;}
	.st22{stroke:#000000;stroke-width:2.569;stroke-miterlimit:10;}
	.st23{stroke:#FFFFFF;stroke-width:1.9992;stroke-linecap:round;stroke-linejoin:round;stroke-miterlimit:10;}
	.st24{clip-path:url(#SVGID_00000036958330624711803200000008519712541531745923_);}
	.st25{fill:#C8D12A;stroke:#000000;stroke-width:2.8287;stroke-miterlimit:10;}
	.st26{stroke:#FFFFFF;stroke-width:1.4755;stroke-miterlimit:10;}
	.st27{clip-path:url(#SVGID_00000116923130109184642950000012985624191382170521_);}
	.st28{clip-path:url(#SVGID_00000075158266276427917050000009497502871024920464_);}
	.st29{clip-path:url(#SVGID_00000084511047770051383090000014015879748048292495_);}
	.st30{clip-path:url(#SVGID_00000113353340137584526190000004509479441635647395_);}
	.st31{fill:#C8D12A;stroke:#000000;stroke-width:2.4552;stroke-miterlimit:10;}
	.st32{stroke:#FFFFFF;stroke-width:1.2719;stroke-miterlimit:10;}
	.st33{fill:#C8D12A;stroke:#000000;stroke-width:2.1112;stroke-miterlimit:10;}
	.st34{stroke:#000000;stroke-width:2.1112;stroke-miterlimit:10;}
	.st35{stroke:#FFFFFF;stroke-width:1.6429;stroke-linecap:round;stroke-linejoin:round;stroke-miterlimit:10;}
	.st36{clip-path:url(#SVGID_00000061460299178837635570000013853543573194052743_);}
	.st37{stroke:#000000;stroke-width:2.1118;stroke-miterlimit:10;}
	.st38{clip-path:url(#SVGID_00000132803464158251076340000006107509230541760652_);}
	.st39{clip-path:url(#SVGID_00000041290505009417410070000009165315555511647105_);}
	.st40{clip-path:url(#SVGID_00000047763517005388108830000012803443800716043397_);}
	.st41{opacity:0.9;fill:#00993D;}
	.st42{opacity:0.9;fill:#FFFFFF;}
</style>
<g>
	<polygon class="st2" points="227.14,286.48 139.21,285.52 68.07,215.34 77.29,280.95 22.73,283.4 59.65,323.31 9.98,330.43 
		68.01,362.06 0,389.56 102.01,384.99 185.59,398.37 620.74,432.74 654.81,436.06 681.07,439.78 794.75,503.16 740.37,437.12 
		815.82,419.08 757.63,382.56 835.45,364.4 753.77,336.27 806.22,267.9 705.31,306.65 650.67,306.65 565.58,320.24 539.25,314.08 	
		"/>
	<polygon class="st3" points="128.14,292.36 74.75,240.11 101.34,297.57 38.06,290.51 96.37,326.44 34.28,329.4 86.51,365.36 
		21.92,385.89 110.81,377.72 	"/>
	<g>
		<path class="st2" d="M580.58,491.52l-385.39-20.86c-30.29-1.64-47.98-35.55-32.72-62.72l217-386.64
			c16.91-30.13,59.76-27.81,72.88,3.95l168.4,407.51C632.58,461.39,610.87,493.16,580.58,491.52z"/>
	</g>
	<g>
		<path class="st3" d="M415.17,35.26c1.85,0.1,4.34,0.89,5.65,4.06l168.4,407.5c0.95,2.3,0.72,4.52-0.69,6.58
			c-1.41,2.07-3.36,3.04-5.79,2.91l-385.39-20.86c-2.43-0.13-4.25-1.31-5.4-3.52c-1.15-2.2-1.11-4.42,0.12-6.61l217-386.64
			C410.75,35.67,413.32,35.16,415.17,35.26L415.17,35.26z M415.56,28.82c-2.38-0.13-8.31,0.26-11.92,6.68l-217,386.65
			c-3.13,5.58-1.49,10.47-0.22,12.88c1.26,2.42,4.3,6.52,10.53,6.86l385.39,20.86c6.22,0.34,9.75-3.41,11.29-5.67
			c1.55-2.26,3.78-6.94,1.35-12.82L426.59,36.75C423.79,29.98,417.95,28.95,415.56,28.82L415.56,28.82z"/>
	</g>
	<g>
		<g>
			<polygon class="st3" points="463.43,258.43 436.27,283.38 343.42,175.91 370.58,150.96 			"/>
		</g>
		<g>
			<polygon class="st3" points="362.72,279.4 338.78,251.69 444.13,154.95 468.07,182.65 			"/>
		</g>
	</g>
	<g>
		<g>
			<path class="st4" d="M143.71,299.61c6.26,0.38,12.46,1.75,18.59,4.11c2.74,1.06,4.6,2.07,5.6,3.03c1,0.96,1.46,2.13,1.36,3.52
				c-0.07,1.09-1,3.7-2.77,7.83c-1.78,4.13-3.37,7.35-4.78,9.66c-0.46,0.97-1.16,1.43-2.13,1.37c-0.58-0.03-1.76-0.5-3.53-1.41
				c-3.65-1.91-7.3-2.98-10.96-3.2l-0.87-0.05l-0.73,0.1c-2.82,0.23-5.67,1.31-8.56,3.22c-2.89,1.92-5.05,4.18-6.48,6.79
				c-1.22,2.32-1.93,4.92-2.12,7.8c-0.34,5.07,0.77,9.17,3.31,12.31c2.55,3.15,6.95,4.91,13.22,5.29c3.76,0.22,7.28-0.31,10.56-1.61
				c1.3-0.62,2.67-0.88,4.12-0.8c1.06,0.06,1.86,0.41,2.4,1.04c0.71,0.94,1.74,3.22,3.1,6.84c1.35,3.62,2.09,6.03,2.2,7.24
				c0.08,0.21,0.1,0.66,0.05,1.35c-0.11,1.69-0.97,2.99-2.58,3.88c-1.62,1.1-4.75,2.26-9.37,3.47c-6.61,1.9-12.28,2.7-17,2.42
				l-2.6-0.16c-5.76-0.65-10.35-1.84-13.77-3.59c-3.41-1.75-6.82-4.67-10.22-8.77c-7.54-8.73-10.88-19.65-10-32.75
				c0.22-3.28,0.57-5.65,1.06-7.12c1.3-5.01,3.75-9.77,7.34-14.29c3.59-4.52,7.83-8.33,12.74-11.42c4.9-3.1,9.94-5.03,15.12-5.82
				C138.73,299.56,141.3,299.47,143.71,299.61z"/>
			<path class="st4" d="M198.5,302.76c3.27,0.2,5.24,0.47,5.9,0.8c1.04,0.36,1.68,0.95,1.92,1.76c0.23,0.81,0.27,2.41,0.11,4.8
				l-0.9,9.07c-0.83,8.03-1.44,15.02-1.84,20.97c-0.46,6.85-0.52,10.64-0.18,11.36c0.32,1.02,1.01,2.21,2.08,3.56
				c1.07,1.36,2.07,2.32,3,2.87c1.22,0.57,2.21,0.88,2.99,0.93c4.05,0.24,7.52-2.49,10.42-8.2l1.81-3.18l1.41-16.67
				c0.55-6.85,1.13-11.84,1.73-15c0.38-2.77,0.9-4.7,1.55-5.81c0.65-1.11,1.82-1.91,3.5-2.41c1.78-0.59,5.22-0.73,10.33-0.43
				c3.95,0.24,6.73,0.61,8.35,1.1c1.61,0.5,2.73,1.41,3.37,2.75c0.64,1.34,1.04,3.55,1.22,6.65c0.15,2.2,0.06,5.59-0.24,10.15
				c-0.76,11.42-2.09,20.71-3.97,27.88c-1.88,7.16-5.01,13.01-9.37,17.53c-4.88,4.99-11.69,8.32-20.4,9.99
				c-3.83,0.77-7.43,1.05-10.8,0.85c-2.31-0.14-4.75-0.59-7.31-1.34c-6.73-2.1-12.27-5.42-16.6-9.97
				c-4.34-4.55-7.24-9.71-8.69-15.48c-1.48-5.37-1.91-12.73-1.28-22.06c0.07-1.09,0.19-2.08,0.34-2.97l0.22-3.28
				c1.6-15.16,3.75-23.55,6.47-25.18C185.83,302.65,190.79,302.3,198.5,302.76z"/>
			<path class="st4" d="M282.26,309c4.72,0.28,7.51,0.65,8.34,1.1c1.42,0.49,2.24,1.28,2.45,2.39c0.46,1.82,0.23,9.63-0.7,23.44
				l-0.43,6.41c-1.27,18.97-2.35,30.81-3.25,35.54c-0.61,3.36-1.13,5.62-1.54,6.79c-0.42,1.17-1.07,1.88-1.95,2.13
				c-0.89,0.24-2.49,0.3-4.8,0.16l-3.17-0.34l-3.9-0.23l-4.91-0.45c-2.8-0.17-4.43-0.31-4.9-0.44c-1.14-0.27-1.99-0.62-2.54-1.05
				l-1.22-1.27l1.94-24.56c2.1-27.09,3.86-42.59,5.28-46.49c0.47-1.27,1.09-2.1,1.84-2.51c0.75-0.4,2.15-0.64,4.19-0.72
				C275.69,308.75,278.79,308.79,282.26,309z"/>
			<path class="st4" d="M325.12,312.62c8.67,0.52,15.39,1.25,20.17,2.18c4.77,0.94,9.13,2.42,13.05,4.45
				c3.64,1.92,7.09,4.69,10.33,8.32c3.24,3.64,5.31,6.68,6.21,9.12c1.73,4.59,2.41,9.47,2.07,14.63c-0.5,7.45-2.87,14.38-7.13,20.8
				c-4.25,6.43-9.67,11.18-16.27,14.28c-5.48,2.36-10.81,3.96-16,4.79c-5.19,0.83-11.44,1.04-18.76,0.59
				c-7.42-0.45-12.31-1.09-14.67-1.93c-1.81-0.51-3.04-0.93-3.69-1.27c-0.65-0.34-1.09-1.06-1.3-2.17
				c-0.31-1.11-0.36-3.26-0.15-6.44l0.85-8.32c0.27-2.67,0.56-6.15,0.84-10.42l3.83-44.18c0.23-1.98,0.56-3.26,0.98-3.83
				c0.42-0.57,1.37-0.91,2.83-1.03C310.75,311.96,316.35,312.09,325.12,312.62z M332.68,336.26c-0.87-0.05-1.43,0.09-1.69,0.42
				c-0.27,0.33-0.5,1.24-0.69,2.73c-0.65,3.85-1.2,9.3-1.68,16.35c-0.51,7.65-0.59,11.68-0.23,12.1c0.18,0.21,0.7,0.34,1.57,0.39
				c3.18,0.19,6.36-0.41,9.56-1.82c3.19-1.4,5.89-3.43,8.1-6.09c2.12-2.76,3.28-5.58,3.47-8.46c0.1-1.49-0.1-2.9-0.59-4.22
				c-1.26-4.36-5.25-7.64-11.97-9.84C335.31,336.81,333.36,336.3,332.68,336.26z"/>
			<path class="st4" d="M419.97,317.88c3.66,0.22,7.46,0.57,11.39,1.06c3.94,0.48,6.41,1.01,7.44,1.57c0.94,0.46,1.85,1.96,2.75,4.5
				c0.98,2.75,2.64,8.29,4.99,16.6c3.18,10.36,5.86,18.7,8.05,25.01c5.24,15.67,7.78,24.7,7.62,27.08
				c-0.07,0.99-0.71,1.85-1.91,2.57c-2.22,1.36-6.7,1.84-13.45,1.43c-0.48-0.03-0.87-0.1-1.15-0.22l-1.01-0.06
				c-2.01-0.32-3.44-0.98-4.29-1.98c-0.85-1-1.57-2.86-2.17-5.59l-0.9-3.95l-3.3-0.5c-3.44-0.61-8.34-1.1-14.7-1.48
				c-3.18-0.19-5.11-0.26-5.79-0.2l-4.66,0.17l-1.73,4.09c-1.03,2.43-1.86,3.98-2.48,4.63c-0.63,0.66-1.77,1.09-3.43,1.29
				c-1.76,0.2-4.46,0.18-8.13-0.04c-3.66-0.22-6.18-0.57-7.55-1.05c-1.37-0.48-2-1.52-1.9-3.11c0.13-1.99,1.86-6.92,5.2-14.79
				c4.15-10.02,7.98-19.51,11.48-28.47c6.77-17.34,11.7-26.71,14.8-28.12C416.34,317.91,417.95,317.76,419.97,317.88z
				 M425.59,344.54c-0.29-0.02-1.6,2.54-3.93,7.69c-2.33,5.15-3.52,8.16-3.58,9.06c-0.06,0.89,2.46,1.49,7.57,1.8
				c1.73,0.1,3.04,0.09,3.92-0.06c0.88-0.15,1.34-0.61,1.4-1.41c0.11-1.59-0.94-5.49-3.14-11.7
				C426.44,346.34,425.69,344.54,425.59,344.54z"/>
			<path class="st4" d="M498.72,323.07c8.67,0.52,15.39,1.25,20.17,2.19c4.78,0.94,9.13,2.42,13.05,4.45
				c3.65,1.92,7.09,4.69,10.33,8.32c3.24,3.64,5.31,6.68,6.21,9.12c1.73,4.59,2.41,9.47,2.07,14.63c-0.5,7.45-2.87,14.38-7.13,20.8
				c-4.25,6.42-9.67,11.18-16.27,14.27c-5.48,2.36-10.81,3.96-15.99,4.8c-5.19,0.83-11.44,1.03-18.76,0.59
				c-7.42-0.45-12.31-1.09-14.67-1.93c-1.81-0.5-3.04-0.93-3.69-1.27c-0.66-0.34-1.09-1.06-1.31-2.17
				c-0.31-1.11-0.36-3.26-0.15-6.44l0.85-8.32c0.27-2.67,0.56-6.15,0.84-10.42l3.83-44.18c0.23-1.98,0.56-3.26,0.98-3.83
				c0.43-0.57,1.37-0.91,2.83-1.03C484.35,322.4,489.95,322.54,498.72,323.07z M506.29,346.7c-0.87-0.05-1.43,0.09-1.7,0.42
				c-0.26,0.33-0.5,1.24-0.69,2.73c-0.65,3.85-1.21,9.3-1.68,16.35c-0.51,7.65-0.59,11.68-0.23,12.1c0.18,0.21,0.7,0.34,1.57,0.39
				c3.18,0.19,6.36-0.41,9.55-1.82c3.19-1.4,5.89-3.43,8.1-6.09c2.12-2.76,3.27-5.58,3.47-8.46c0.1-1.49-0.1-2.9-0.59-4.23
				c-1.26-4.36-5.25-7.64-11.97-9.84C508.91,347.26,506.96,346.74,506.29,346.7z"/>
			<path class="st4" d="M600.61,329.5c9.44,0.57,17.86,3.09,25.25,7.58c7.39,4.48,12.45,10.2,15.18,17.14
				c1.88,5.2,2.56,11.62,2.05,19.26c-0.32,4.77-1.35,9.02-3.1,12.75c-1.75,3.74-4.79,7.56-9.11,11.49
				c-4.53,4.01-9.44,6.93-14.74,8.76c-5.3,1.83-10.55,2.58-15.75,2.27c-0.58-0.03-1.1-0.12-1.58-0.25l-1.73-0.11
				c-7.4-0.84-13.93-3.23-19.62-7.16c-5.69-3.93-10.07-8.95-13.14-15.07c-3.07-6.11-4.57-12.72-4.48-19.79l0.16-2.38
				c0.99-14.8,8.51-25.26,22.56-31.39c3.29-1.4,6.3-2.31,9.04-2.75C594.42,329.42,597.43,329.31,600.61,329.5z M601.41,352.27
				c-0.48-0.03-1.41,0.02-2.77,0.13c-4.93,1.4-8.77,4.51-11.51,9.33c-0.97,1.54-1.51,3.1-1.62,4.69c-0.08,1.19-0.09,2.04-0.03,2.54
				c0.09,3,0.52,5.26,1.29,6.81c2.72,5.65,7.24,8.86,13.58,9.64l1.01,0.06c2.7,0.16,5.18-0.48,7.46-1.94
				c2.28-1.46,4.09-3.27,5.44-5.43c1.35-2.17,2.09-4.09,2.2-5.78c0.07-1.09,0.07-1.84,0.01-2.24c-0.07-7.58-2.67-12.87-7.79-15.87
				C606.92,353.11,604.49,352.46,601.41,352.27z"/>
			<path class="st4" d="M668.76,388.93c4.43,0.27,7.77,1.66,10.02,4.2c2.25,2.53,3.24,5.83,2.97,9.9
				c-0.29,4.37-2.01,7.95-5.15,10.76c-3.14,2.8-6.78,4.08-10.92,3.83c-1.54-0.09-2.83-0.37-3.86-0.83
				c-2.64-0.95-4.99-2.81-7.03-5.58c-2.04-2.76-2.98-5.39-2.81-7.87c0.21-3.08,1.41-5.92,3.62-8.53c2.21-2.61,4.94-4.41,8.2-5.41
				C665.08,388.96,666.74,388.81,668.76,388.93z M691.81,317.79c1.74,0.11,2.83,0.32,3.3,0.65c0.28,0.11,0.39,0.72,0.31,1.81
				c-0.13,1.99-0.74,5.94-1.81,11.85c-4.14,25.67-7.79,42.7-10.97,51.08l-1.2,2.77l-8.53-0.51l-5.36-0.17
				c-1.83-0.11-3.09-0.41-3.78-0.9c-0.69-0.49-1.09-1.44-1.19-2.84c-0.1-1.4-0.03-3.84,0.2-7.32l0.32-4.77
				c0.5-7.45,1.19-16.08,2.09-25.9c0.9-9.82,1.52-15.86,1.87-18.13c0.23-2.08,0.67-3.55,1.31-4.41c1.36-1.61,5.3-2.62,11.81-3.03
				C684.85,317.67,688.72,317.6,691.81,317.79z"/>
		</g>
	</g>
	<g>
		<g>
			<path class="st2" d="M143.71,299.61c6.26,0.38,12.46,1.75,18.59,4.11c2.74,1.06,4.6,2.07,5.6,3.03c1,0.96,1.46,2.13,1.36,3.52
				c-0.07,1.09-1,3.7-2.77,7.83c-1.78,4.13-3.37,7.35-4.78,9.66c-0.46,0.97-1.16,1.43-2.13,1.37c-0.58-0.03-1.76-0.5-3.53-1.41
				c-3.65-1.91-7.3-2.98-10.96-3.2l-0.87-0.05l-0.73,0.1c-2.82,0.23-5.67,1.31-8.56,3.22c-2.89,1.92-5.05,4.18-6.48,6.79
				c-1.22,2.32-1.93,4.92-2.12,7.8c-0.34,5.07,0.77,9.17,3.31,12.31c2.55,3.15,6.95,4.91,13.22,5.29c3.76,0.22,7.28-0.31,10.56-1.61
				c1.3-0.62,2.67-0.88,4.12-0.8c1.06,0.06,1.86,0.41,2.4,1.04c0.71,0.94,1.74,3.22,3.1,6.84c1.35,3.62,2.09,6.03,2.2,7.24
				c0.08,0.21,0.1,0.66,0.05,1.35c-0.11,1.69-0.97,2.99-2.58,3.88c-1.62,1.1-4.75,2.26-9.37,3.47c-6.61,1.9-12.28,2.7-17,2.42
				l-2.6-0.16c-5.76-0.65-10.35-1.84-13.77-3.59c-3.41-1.75-6.82-4.67-10.22-8.77c-7.54-8.73-10.88-19.65-10-32.75
				c0.22-3.28,0.57-5.65,1.06-7.12c1.3-5.01,3.75-9.77,7.34-14.29c3.59-4.52,7.83-8.33,12.74-11.42c4.9-3.1,9.94-5.03,15.12-5.82
				C138.73,299.56,141.3,299.47,143.71,299.61z"/>
			<path class="st2" d="M198.5,302.76c3.27,0.2,5.24,0.47,5.9,0.8c1.04,0.36,1.68,0.95,1.92,1.76c0.23,0.81,0.27,2.41,0.11,4.8
				l-0.9,9.07c-0.83,8.03-1.44,15.02-1.84,20.97c-0.46,6.85-0.52,10.64-0.18,11.36c0.32,1.02,1.01,2.21,2.08,3.56
				c1.07,1.36,2.07,2.32,3,2.87c1.22,0.57,2.21,0.88,2.99,0.93c4.05,0.24,7.52-2.49,10.42-8.2l1.81-3.18l1.41-16.67
				c0.55-6.85,1.13-11.84,1.73-15c0.38-2.77,0.9-4.7,1.55-5.81c0.65-1.11,1.82-1.91,3.5-2.41c1.78-0.59,5.22-0.73,10.33-0.43
				c3.95,0.24,6.73,0.61,8.35,1.1c1.61,0.5,2.73,1.41,3.37,2.75c0.64,1.34,1.04,3.55,1.22,6.65c0.15,2.2,0.06,5.59-0.24,10.15
				c-0.76,11.42-2.09,20.71-3.97,27.88c-1.88,7.16-5.01,13.01-9.37,17.53c-4.88,4.99-11.69,8.32-20.4,9.99
				c-3.83,0.77-7.43,1.05-10.8,0.85c-2.31-0.14-4.75-0.59-7.31-1.34c-6.73-2.1-12.27-5.42-16.6-9.97
				c-4.34-4.55-7.24-9.71-8.69-15.48c-1.48-5.37-1.91-12.73-1.28-22.06c0.07-1.09,0.19-2.08,0.34-2.97l0.22-3.28
				c1.6-15.16,3.75-23.55,6.47-25.18C185.83,302.65,190.79,302.3,198.5,302.76z"/>
			<path class="st2" d="M282.26,309c4.72,0.28,7.51,0.65,8.34,1.1c1.42,0.49,2.24,1.28,2.45,2.39c0.46,1.82,0.23,9.63-0.7,23.44
				l-0.43,6.41c-1.27,18.97-2.35,30.81-3.25,35.54c-0.61,3.36-1.13,5.62-1.54,6.79c-0.42,1.17-1.07,1.88-1.95,2.13
				c-0.89,0.24-2.49,0.3-4.8,0.16l-3.17-0.34l-3.9-0.23l-4.91-0.45c-2.8-0.17-4.43-0.31-4.9-0.44c-1.14-0.27-1.99-0.62-2.54-1.05
				l-1.22-1.27l1.94-24.56c2.1-27.09,3.86-42.59,5.28-46.49c0.47-1.27,1.09-2.1,1.84-2.51c0.75-0.4,2.15-0.64,4.19-0.72
				C275.69,308.75,278.79,308.79,282.26,309z"/>
			<path class="st2" d="M325.12,312.62c8.67,0.52,15.39,1.25,20.17,2.18c4.77,0.94,9.13,2.42,13.05,4.45
				c3.64,1.92,7.09,4.69,10.33,8.32c3.24,3.64,5.31,6.68,6.21,9.12c1.73,4.59,2.41,9.47,2.07,14.63c-0.5,7.45-2.87,14.38-7.13,20.8
				c-4.25,6.43-9.67,11.18-16.27,14.28c-5.48,2.36-10.81,3.96-16,4.79c-5.19,0.83-11.44,1.04-18.76,0.59
				c-7.42-0.45-12.31-1.09-14.67-1.93c-1.81-0.51-3.04-0.93-3.69-1.27c-0.65-0.34-1.09-1.06-1.3-2.17
				c-0.31-1.11-0.36-3.26-0.15-6.44l0.85-8.32c0.27-2.67,0.56-6.15,0.84-10.42l3.83-44.18c0.23-1.98,0.56-3.26,0.98-3.83
				c0.42-0.57,1.37-0.91,2.83-1.03C310.75,311.96,316.35,312.09,325.12,312.62z M332.68,336.26c-0.87-0.05-1.43,0.09-1.69,0.42
				c-0.27,0.33-0.5,1.24-0.69,2.73c-0.65,3.85-1.2,9.3-1.68,16.35c-0.51,7.65-0.59,11.68-0.23,12.1c0.18,0.21,0.7,0.34,1.57,0.39
				c3.18,0.19,6.36-0.41,9.56-1.82c3.19-1.4,5.89-3.43,8.1-6.09c2.12-2.76,3.28-5.58,3.47-8.46c0.1-1.49-0.1-2.9-0.59-4.22
				c-1.26-4.36-5.25-7.64-11.97-9.84C335.31,336.81,333.36,336.3,332.68,336.26z"/>
			<path class="st2" d="M419.97,317.88c3.66,0.22,7.46,0.57,11.39,1.06c3.94,0.48,6.41,1.01,7.44,1.57c0.94,0.46,1.85,1.96,2.75,4.5
				c0.98,2.75,2.64,8.29,4.99,16.6c3.18,10.36,5.86,18.7,8.05,25.01c5.24,15.67,7.78,24.7,7.62,27.08
				c-0.07,0.99-0.71,1.85-1.91,2.57c-2.22,1.36-6.7,1.84-13.45,1.43c-0.48-0.03-0.87-0.1-1.15-0.22l-1.01-0.06
				c-2.01-0.32-3.44-0.98-4.29-1.98c-0.85-1-1.57-2.86-2.17-5.59l-0.9-3.95l-3.3-0.5c-3.44-0.61-8.34-1.1-14.7-1.48
				c-3.18-0.19-5.11-0.26-5.79-0.2l-4.66,0.17l-1.73,4.09c-1.03,2.43-1.86,3.98-2.48,4.63c-0.63,0.66-1.77,1.09-3.43,1.29
				c-1.76,0.2-4.46,0.18-8.13-0.04c-3.66-0.22-6.18-0.57-7.55-1.05c-1.37-0.48-2-1.52-1.9-3.11c0.13-1.99,1.86-6.92,5.2-14.79
				c4.15-10.02,7.98-19.51,11.48-28.47c6.77-17.34,11.7-26.71,14.8-28.12C416.34,317.91,417.95,317.76,419.97,317.88z
				 M425.59,344.54c-0.29-0.02-1.6,2.54-3.93,7.69c-2.33,5.15-3.52,8.16-3.58,9.06c-0.06,0.89,2.46,1.49,7.57,1.8
				c1.73,0.1,3.04,0.09,3.92-0.06c0.88-0.15,1.34-0.61,1.4-1.41c0.11-1.59-0.94-5.49-3.14-11.7
				C426.44,346.34,425.69,344.54,425.59,344.54z"/>
			<path class="st2" d="M498.72,323.07c8.67,0.52,15.39,1.25,20.17,2.19c4.78,0.94,9.13,2.42,13.05,4.45
				c3.65,1.92,7.09,4.69,10.33,8.32c3.24,3.64,5.31,6.68,6.21,9.12c1.73,4.59,2.41,9.47,2.07,14.63c-0.5,7.45-2.87,14.38-7.13,20.8
				c-4.25,6.42-9.67,11.18-16.27,14.27c-5.48,2.36-10.81,3.96-15.99,4.8c-5.19,0.83-11.44,1.03-18.76,0.59
				c-7.42-0.45-12.31-1.09-14.67-1.93c-1.81-0.5-3.04-0.93-3.69-1.27c-0.66-0.34-1.09-1.06-1.31-2.17
				c-0.31-1.11-0.36-3.26-0.15-6.44l0.85-8.32c0.27-2.67,0.56-6.15,0.84-10.42l3.83-44.18c0.23-1.98,0.56-3.26,0.98-3.83
				c0.43-0.57,1.37-0.91,2.83-1.03C484.35,322.4,489.95,322.54,498.72,323.07z M506.29,346.7c-0.87-0.05-1.43,0.09-1.7,0.42
				c-0.26,0.33-0.5,1.24-0.69,2.73c-0.65,3.85-1.21,9.3-1.68,16.35c-0.51,7.65-0.59,11.68-0.23,12.1c0.18,0.21,0.7,0.34,1.57,0.39
				c3.18,0.19,6.36-0.41,9.55-1.82c3.19-1.4,5.89-3.43,8.1-6.09c2.12-2.76,3.27-5.58,3.47-8.46c0.1-1.49-0.1-2.9-0.59-4.23
				c-1.26-4.36-5.25-7.64-11.97-9.84C508.91,347.26,506.96,346.74,506.29,346.7z"/>
			<path class="st2" d="M600.61,329.5c9.44,0.57,17.86,3.09,25.25,7.58c7.39,4.48,12.45,10.2,15.18,17.14
				c1.88,5.2,2.56,11.62,2.05,19.26c-0.32,4.77-1.35,9.02-3.1,12.75c-1.75,3.74-4.79,7.56-9.11,11.49
				c-4.53,4.01-9.44,6.93-14.74,8.76c-5.3,1.83-10.55,2.58-15.75,2.27c-0.58-0.03-1.1-0.12-1.58-0.25l-1.73-0.11
				c-7.4-0.84-13.93-3.23-19.62-7.16c-5.69-3.93-10.07-8.95-13.14-15.07c-3.07-6.11-4.57-12.72-4.48-19.79l0.16-2.38
				c0.99-14.8,8.51-25.26,22.56-31.39c3.29-1.4,6.3-2.31,9.04-2.75C594.42,329.42,597.43,329.31,600.61,329.5z M601.41,352.27
				c-0.48-0.03-1.41,0.02-2.77,0.13c-4.93,1.4-8.77,4.51-11.51,9.33c-0.97,1.54-1.51,3.1-1.62,4.69c-0.08,1.19-0.09,2.04-0.03,2.54
				c0.09,3,0.52,5.26,1.29,6.81c2.72,5.65,7.24,8.86,13.58,9.64l1.01,0.06c2.7,0.16,5.18-0.48,7.46-1.94
				c2.28-1.46,4.09-3.27,5.44-5.43c1.35-2.17,2.09-4.09,2.2-5.78c0.07-1.09,0.07-1.84,0.01-2.24c-0.07-7.58-2.67-12.87-7.79-15.87
				C606.92,353.11,604.49,352.46,601.41,352.27z"/>
			<path class="st2" d="M668.76,388.93c4.43,0.27,7.77,1.66,10.02,4.2c2.25,2.53,3.24,5.83,2.97,9.9
				c-0.29,4.37-2.01,7.95-5.15,10.76c-3.14,2.8-6.78,4.08-10.92,3.83c-1.54-0.09-2.83-0.37-3.86-0.83
				c-2.64-0.95-4.99-2.81-7.03-5.58c-2.04-2.76-2.98-5.39-2.81-7.87c0.21-3.08,1.41-5.92,3.62-8.53c2.21-2.61,4.94-4.41,8.2-5.41
				C665.08,388.96,666.74,388.81,668.76,388.93z M691.81,317.79c1.74,0.11,2.83,0.32,3.3,0.65c0.28,0.11,0.39,0.72,0.31,1.81
				c-0.13,1.99-0.74,5.94-1.81,11.85c-4.14,25.67-7.79,42.7-10.97,51.08l-1.2,2.77l-8.53-0.51l-5.36-0.17
				c-1.83-0.11-3.09-0.41-3.78-0.9c-0.69-0.49-1.09-1.44-1.19-2.84c-0.1-1.4-0.03-3.84,0.2-7.32l0.32-4.77
				c0.5-7.45,1.19-16.08,2.09-25.9c0.9-9.82,1.52-15.86,1.87-18.13c0.23-2.08,0.67-3.55,1.31-4.41c1.36-1.61,5.3-2.62,11.81-3.03
				C684.85,317.67,688.72,317.6,691.81,317.79z"/>
		</g>
	</g>
	<polygon class="st3" points="708.18,319.51 799.76,286.07 737.35,340.22 816.57,366.01 727.85,377.32 800.3,414.42 718.82,429.07 
		784.86,488.47 683.23,430.66 	"/>
	<polygon class="st2" points="602.07,212.57 659.98,219.29 617.95,246.22 641.51,248.95 580.5,293.17 606.91,246.99 585.32,244.48 	
		"/>
	<polygon class="st2" points="682.12,241.99 717.6,267.85 680.76,270.09 695.19,280.61 639.91,287.25 673.28,266.52 660.05,256.87 	
		"/>
	<polygon class="st2" points="223.67,189.54 165.69,183.41 200.57,218.87 176.99,216.38 226.46,272.85 211.16,222.04 232.78,224.32 
			"/>
	<polygon class="st2" points="138.97,200.7 98.52,218.15 133.94,228.4 117.49,235.5 169.88,254.07 142.04,226.55 157.12,220.04 	"/>
</g>
</svg>
