<?xml version="1.0" encoding="utf-8"?>
<!-- Generator: Adobe Illustrator 25.4.0, SVG Export Plug-In . SVG Version: 6.00 Build 0)  -->
<svg version="1.1" id="Capa_1" xmlns="http://www.w3.org/2000/svg" xmlns:xlink="http://www.w3.org/1999/xlink" x="0px" y="0px"
	 viewBox="0 0 766.8 211.94" style="enable-background:new 0 0 766.8 211.94;" xml:space="preserve">
<style type="text/css">
	.st0{fill:#C8D12A;}
	.st1{fill:url(#);}
	.st2{fill:#050504;}
	.st3{fill:#FFFFFF;}
	.st4{fill:none;stroke:#FFFFFF;stroke-width:22.4065;}
	.st5{fill:none;stroke:#FFFFFF;stroke-width:11.3663;}
	.st6{fill:#C8D12A;stroke:#000000;stroke-width:5.1402;stroke-miterlimit:10;}
	.st7{fill:#030405;}
	.st8{fill:#C6CF31;}
	.st9{stroke:#000000;stroke-width:5.1402;stroke-miterlimit:10;}
	.st10{stroke:#FFFFFF;stroke-width:4;stroke-linecap:round;stroke-linejoin:round;stroke-miterlimit:10;}
	.st11{fill:none;stroke:#FFFFFF;stroke-width:4;stroke-linejoin:round;stroke-miterlimit:10;}
	.st12{clip-path:url(#SVGID_00000145031638594236996500000005580908569992081563_);}
	.st13{fill:#C8D12A;stroke:#000000;stroke-width:5.6822;stroke-miterlimit:10;}
	.st14{stroke:#FFFFFF;stroke-width:2.9639;stroke-miterlimit:10;}
	.st15{fill:#00993D;}
	.st16{clip-path:url(#SVGID_00000031178722381688480060000005065727159074183852_);}
	.st17{fill:#C8D12A;stroke:#000000;stroke-width:5.5;stroke-miterlimit:10;}
	.st18{clip-path:url(#SVGID_00000026870746506950067800000004435905956858361007_);}
	.st19{stroke:#FFFFFF;stroke-width:4;stroke-miterlimit:10;}
	.st20{stroke:#000000;stroke-width:2.5698;stroke-miterlimit:10;}
	.st21{fill:#C8D12A;stroke:#000000;stroke-width:2.569;stroke-miterlimit:10;}
	.st22{stroke:#000000;stroke-width:2.569;stroke-miterlimit:10;}
	.st23{stroke:#FFFFFF;stroke-width:1.9992;stroke-linecap:round;stroke-linejoin:round;stroke-miterlimit:10;}
	.st24{clip-path:url(#SVGID_00000052064528746340034420000006087170681787207808_);}
	.st25{fill:#C8D12A;stroke:#000000;stroke-width:2.8287;stroke-miterlimit:10;}
	.st26{stroke:#FFFFFF;stroke-width:1.4755;stroke-miterlimit:10;}
	.st27{clip-path:url(#SVGID_00000049185231512848163030000007134281353007946376_);}
	.st28{clip-path:url(#SVGID_00000123426616272006300070000015962907903110318506_);}
	.st29{clip-path:url(#SVGID_00000072277438174877968560000016035182757744088247_);}
	.st30{clip-path:url(#SVGID_00000013160891745968871520000005658831520429079708_);}
	.st31{fill:#C8D12A;stroke:#000000;stroke-width:2.4552;stroke-miterlimit:10;}
	.st32{stroke:#FFFFFF;stroke-width:1.2719;stroke-miterlimit:10;}
	.st33{fill:#C8D12A;stroke:#000000;stroke-width:2.1112;stroke-miterlimit:10;}
	.st34{stroke:#000000;stroke-width:2.1112;stroke-miterlimit:10;}
	.st35{stroke:#FFFFFF;stroke-width:1.6429;stroke-linecap:round;stroke-linejoin:round;stroke-miterlimit:10;}
	.st36{clip-path:url(#SVGID_00000082342832269047560330000007024676007511194508_);}
	.st37{stroke:#000000;stroke-width:2.1118;stroke-miterlimit:10;}
	.st38{clip-path:url(#SVGID_00000013890033145827894430000015952082641913776516_);}
	.st39{clip-path:url(#SVGID_00000177451125459962496590000010301035250215220885_);}
	.st40{clip-path:url(#SVGID_00000140001619473777717680000007547852246151241107_);}
	.st41{opacity:0.9;fill:#00993D;}
	.st42{opacity:0.9;fill:#FFFFFF;}
</style>
<g>
	<g>
		<path d="M50,43.3l4.06,0.43c4.51,0.58,10.83,1.01,18.95,1.27l13.3,0.39l0.47,3.38c0.46,2.86,0.72,10.22,0.77,22.09
			c0.07,17.29-0.51,30.1-1.75,38.45c-1.24,8.35-4.1,16.82-8.57,25.4c-8.94,17.63-22.36,26.48-40.25,26.55
			c-4.36,0.02-8.76-0.67-13.2-2.09c-4.44-1.41-8.09-3.08-10.96-5.03c-2.87-1.94-4.3-3.66-4.31-5.17c-0.01-1.95,1.06-6.39,3.21-13.32
			c2.15-6.92,3.67-10.84,4.57-11.74c1.04-1.36,2.25-1.81,3.6-1.37c3.76,0.74,6.39,1.1,7.9,1.09c7.22-0.03,12.24-2.72,15.07-8.07
			c2.83-5.35,4.23-13.06,4.19-23.13l-0.33-23.45c-0.16-1.2-0.24-3.16-0.25-5.86c-0.16-1.8-0.25-5.11-0.27-9.92
			c-0.02-4.36,0.27-7.06,0.87-8.12C47.82,43.91,48.8,43.3,50,43.3z"/>
		<path d="M118.6,57.44c13.83-0.06,21.5,0.66,23.01,2.16c0.3,0.3,0.46,1.95,0.47,4.96c0.02,3.61-0.12,7.97-0.4,13.08
			c-0.28,5.11-0.41,10.45-0.38,16.01c0.05,11.72,0.95,20.1,2.7,25.13c1.75,5.03,5.11,7.53,10.07,7.51c4.21-0.02,7.43-2.21,9.67-6.58
			c2.83-5.27,4.29-17.08,4.36-35.42c0.39-15.18,0.88-23.08,1.48-23.68c0.75-0.75,3.83-1.52,9.23-2.29
			c5.41-0.77,10.67-1.17,15.78-1.19c3.91-0.02,7.06,0.16,9.47,0.52c2.4,0.37,3.99,1.15,4.74,2.35c1.66,2.4,2.54,14.05,2.63,34.94
			c0.16,38.48-0.35,59.15-1.54,62.01c-0.89,2.26-4.42,3.4-10.58,3.43c-2.56,0.01-7.52-0.27-14.89-0.84
			c-2.56,0.01-4.59-0.09-6.09-0.31c-1.51-0.22-2.93-0.55-4.29-1c-1.51-0.44-2.6-1-3.28-1.68c-0.68-0.67-1.33-1.76-1.93-3.26
			c-1.22-2.85-2.5-3.45-3.84-1.79c-0.9,1.06-3.75,2.57-8.55,4.55c-4.8,1.98-8.71,3.27-11.71,3.88c-2.11,0.31-4.36,0.47-6.76,0.48
			c-6.31,0.03-12.18-1.26-17.6-3.87c-5.42-2.61-9.5-6.16-12.22-10.66c-1.06-1.8-2.43-5.25-4.1-10.35
			c-1.23-5.1-1.85-11.64-1.89-19.61l-0.05-11.5c0.17-29.16,1.99-44.5,5.44-46.02C109.21,57.78,112.89,57.46,118.6,57.44z"/>
		<path d="M280.69,50.66l2.93-0.01c6.16,0.28,11.05,1.31,14.67,3.09c3.61,1.79,8.06,5.3,13.35,10.54
			c8.15,8.08,13.37,16.78,15.67,26.09c0.77,3.76,1.16,6.91,1.17,9.47c0.04,9.17-1.44,14.36-4.44,15.58l-37.43,0.16
			c-11.88,0.05-17.81,0.15-17.81,0.3c0.01,1.8,1.74,3.71,5.21,5.73c3.46,2.01,7.53,3.54,12.2,4.57c2.56,0.44,4.89,0.66,6.99,0.65
			c3.46-0.01,8.04-0.94,13.74-2.76c4.35-1.22,7.13-1.83,8.33-1.84c1.5-0.01,2.71,0.44,3.61,1.34c1.06,1.5,2.65,4.27,4.77,8.32
			c2.12,4.05,3.19,6.9,3.19,8.55c0.01,3.31-2.76,6.55-8.3,9.73c-5.4,3.33-11.06,5.68-16.99,7.06c-5.93,1.38-12.96,2.08-21.07,2.12
			c-9.92,0.04-17.59-0.83-23.01-2.61c-5.42-1.78-11.22-5.66-17.41-11.65c-6.19-5.98-10.42-11.83-12.7-17.53
			c-2.28-5.7-3.44-12.39-3.47-20.05c-0.04-8.42,1.17-16.09,3.62-23.01c2.45-6.92,7.12-13.33,14.01-19.23
			c7.19-6.34,16.34-10.81,27.45-13.42C272.72,51.07,276.63,50.67,280.69,50.66z M280.14,81.32c-3.31,0.01-6.2,1.01-8.67,2.97
			c-2.47,1.97-3.78,4.45-3.91,7.46l-0.21,2.71l11.05,0.63l9.25,0.41l1.13,0c0.6,0,0.98-0.08,1.13-0.23l0.45,0l0.45,0
			c0.6-0.15,0.9-1.05,0.89-2.71c-0.01-1.95-0.47-3.83-1.38-5.63C288.34,83.17,284.95,81.3,280.14,81.32z"/>
		<path d="M385.58,61.71c8.12-0.03,13.23,0.47,15.34,1.51c2.26,1.2,4.52,2.54,6.78,4.03l3.39,2.01c0.45,0.15,0.9-0.15,1.35-0.91
			c1.04-1.96,1.98-3.31,2.8-4.07c0.82-0.75,1.91-1.25,3.26-1.48c1.35-0.23,3.83-0.43,7.44-0.6L430,62.2
			c9.92-0.04,16.61,0.91,20.08,2.85c2.11,1.2,3.4,3.97,3.87,8.33c0.47,4.21,0.75,16.46,0.83,36.75c0.1,23.45-0.21,39.16-0.93,47.13
			c-0.87,7.22-3.32,14.9-7.34,23.03c-7.45,15.51-18.76,24.96-33.93,28.33c-4.81,1.07-11.42,1.63-19.83,1.66
			c-7.52,0.03-13.42-0.43-17.71-1.39c-4.29-0.96-8.84-2.63-13.66-5.01c-4.07-1.94-7.01-3.8-8.82-5.6c-1.51-1.5-2.27-3-2.27-4.5
			c0-1.05,0.07-1.73,0.22-2.03c0.44-3.01,2.26-7.56,5.47-13.66c3.21-6.1,5.41-9.15,6.61-9.16c1.05,0,3.99,0.96,8.81,2.89
			c6.62,2.83,12.64,4.23,18.06,4.21c5.41-0.02,9.8-1.88,13.17-5.58c3.37-3.7,5.63-8.93,6.81-15.7l0.44-3.16l-4.05,2.05
			c-7.05,3.34-14.79,5.02-23.2,5.06c-17.74,0.08-30.4-8.36-37.99-25.32c-3.79-8.1-5.71-16.89-5.75-26.36
			c-0.07-16.23,5.52-28.36,16.76-36.37c5.09-3.63,11.1-6.28,18-7.97C375.89,62.05,379.87,61.73,385.58,61.71z M404,97.93
			c-5.86,0.02-10.4,1.44-13.62,4.23c-3.22,2.8-4.82,6.37-4.8,10.73c0.01,1.96,0.47,3.76,1.38,5.41c2.73,5.4,7.32,8.09,13.79,8.06
			c2.55-0.01,5.03-0.47,7.44-1.38l2.25-0.69l-0.04-8.79c-0.04-10.07-0.9-15.7-2.55-16.9C406.93,98.15,405.65,97.93,404,97.93z"/>
		<path d="M547.46,58.31c8.42-0.04,14.96,0.46,19.62,1.49c3.31,0.74,5.76,1.93,7.34,3.58c1.58,1.65,2.76,4.2,3.53,7.65
			c0.46,1.95,0.71,8.64,0.76,20.06c0.11,25.7-0.34,43.22-1.35,52.54c-0.43,4.96-1.09,8.35-1.99,10.16
			c-0.89,1.81-2.66,3.02-5.28,3.63c-2.63,0.61-7.63,1.09-14.99,1.42c-1.96,0.16-5.19,0.25-9.69,0.27c-3.31,0.01-5.49-0.31-6.54-0.99
			c-1.06-0.67-2.12-2.21-3.18-4.61c-1.06-2.4-1.9-3.6-2.5-3.6c-0.6,0-2.93,0.99-6.98,2.96c-6.3,3.04-12.31,4.56-18.02,4.59
			c-6.01,0.03-12.34-2.2-18.97-6.68c-6.64-4.48-12.19-10.32-16.65-17.52c-4.47-7.2-6.71-14.55-6.75-22.07
			c-0.01-3.3,0.27-5.94,0.87-7.9l0.66-3.39l0.44-2.48c0.44-3.46,3.04-8.88,7.82-16.27c7.31-11.45,16.68-18.56,28.09-21.31
			c2.25-0.46,4.58-0.7,6.99-0.71c8.42-0.04,15.42,2.04,21,6.22c1.51,1.05,2.64,1.57,3.39,1.56c0.75,0,1.12-0.53,1.12-1.58
			c0-0.75,0.63-1.92,1.9-3.5c1.27-1.58,2.43-2.6,3.48-3.06C542.19,58.49,544.15,58.33,547.46,58.31z M523.7,92.24
			c-3.61,0.02-6.84,1.08-9.68,3.2c-2.85,2.12-4.79,4.98-5.83,8.59c-0.45,1.35-0.66,2.79-0.66,4.29c0.02,3.91,1.61,7.02,4.77,9.34
			c3.17,2.32,7.46,3.46,12.87,3.44c2.85-0.01,4.77-0.17,5.75-0.48c0.98-0.3,1.61-0.98,1.91-2.04c0.3-1.05,0.66-3.31,1.1-6.77
			c0.58-4.06,0.87-8.04,0.85-11.95c-0.01-2.25-0.17-3.64-0.47-4.17c-0.31-0.52-1.36-1.16-3.17-1.9
			C529.04,92.74,526.55,92.22,523.7,92.24z"/>
		<path d="M604.4,35.07l5.41-0.02c11.57,0.1,17.89,1.65,18.96,4.65c0.46,2.7,0.84,21.57,1.14,56.59l0.12,29.31
			c0.05,12.78-0.06,21.27-0.34,25.48c-0.14,3.31-0.96,5.19-2.46,5.65c-1.95,0.46-6.91,0.78-14.88,0.97
			c-1.5,0.16-4.28,0.24-8.34,0.26c-4.21,0.02-7.1-0.31-8.69-0.98c-1.58-0.67-2.49-1.64-2.72-2.92c-0.23-1.27-0.35-3.87-0.37-7.78
			l0.2-4.96l-0.02-5.86c-0.01-2.1,0.06-3.98,0.2-5.64l-0.02-5.86c-0.03-7.51-0.28-13.83-0.76-18.94
			c-1.11-12.62-1.68-24.94-1.74-36.97c-0.04-8.26,0.35-15.56,1.15-21.88c0.8-6.32,2.25-9.85,4.35-10.62
			C597.11,35.26,600.04,35.09,604.4,35.07z"/>
		<path d="M700.76,53.38c5.11-0.02,10.07,0.33,14.89,1.06c11.28,2.06,20.92,6.45,28.92,13.18c7.99,6.73,12.91,14.6,14.76,23.61
			c0.46,1.95,0.7,4.51,0.71,7.66c0.04,9.17-1.32,17.25-4.07,24.26c-2.75,7-7.27,13.6-13.56,19.79c-5.84,5.74-11.83,9.71-17.99,11.91
			c-6.16,2.21-12.54,3.32-19.15,3.35c-11.58,0.05-22.11-2.69-31.6-8.21c-9.49-5.52-16.93-12.4-22.3-20.65
			c-5.37-8.24-8.07-16.12-8.11-23.64c-0.01-2.4,0.35-6.01,1.08-10.83c4.86-24.22,18.63-37.73,41.32-40.54
			C691.06,53.72,696.09,53.4,700.76,53.38z M702.71,89.22c-2.11,0.01-3.91,0.55-5.4,1.6c-5.4,3.33-8.08,8.08-8.06,14.24
			c0.01,2.25,0.62,4.81,1.84,7.66c2.73,5.55,7.03,8.31,12.89,8.29c3.16-0.01,5.86-1.04,8.1-3.08c2.25-2.04,3.59-4.64,4.03-7.8
			c0.15-0.45,0.22-1.35,0.21-2.71c-0.02-3.61-0.86-7.06-2.52-10.36c-1.67-3.3-3.71-5.54-6.12-6.74
			C705.87,89.58,704.21,89.21,702.71,89.22z"/>
	</g>
	<g>
		<path d="M277.01,8.59l14.55-7.77l1.79,1.59c0.97,0.84,3.16,4.16,6.58,9.97c0.65,1.01,1.67,2.84,3.08,5.48
			c1.2,2.25,1.77,3.81,1.71,4.68c-0.21,0.79-2.76,2.83-7.65,6.12c-4.9,3.29-9.63,6.15-14.19,8.59c-4.32,2.31-7.11,3.46-8.37,3.45
			c-1.41-0.09-2.8-0.88-4.16-2.36c-1.36-1.47-3.14-4.17-5.34-8.09l-1.58-2.97c-1.55-2.9-2.46-5.05-2.72-6.43
			c-0.27-1.38,0.02-2.47,0.86-3.25C262.81,16.42,267.96,13.42,277.01,8.59z"/>
	</g>
</g>
</svg>
