<svg width="219" height="233" viewBox="0 0 219 233" fill="none" xmlns="http://www.w3.org/2000/svg">
<g clip-path="url(#clip0_10_1311)">
<path d="M79.7667 50.4112C80.4838 47.6319 80.2129 44.2935 80.2766 41.4183C80.3404 38.4314 80.2607 35.4763 80.3563 32.5053C80.436 30.1094 80.1014 27.8412 80.0057 25.4771C79.9261 23.3527 80.7387 20.5734 79.7986 18.6087C76.2293 19.1198 73.0106 19.3754 69.6326 20.7491C68.0232 21.404 66.127 21.7235 64.7089 22.4263C62.3825 23.5604 62.4781 24.9181 62.5896 27.2502C62.9721 35.6361 62.1116 43.9421 61.9682 52.344C61.9045 56.3532 61.7133 60.4104 62.0957 64.3877C62.3188 66.7517 62.8605 67.6462 65.5375 67.183C67.4496 66.8635 69.4095 66.2246 71.2579 65.5378C75.0024 64.1321 78.8266 63.3335 82.7942 62.7425C86.0608 62.2473 91.6855 61.8639 94.2031 59.6437C95.7806 58.254 94.5696 55.6983 94.5696 53.8135C94.5696 52.3599 95.701 48.8938 94.0279 47.9993C92.6416 47.2485 89.9806 49.2452 88.674 49.6285C86.6663 50.2355 84.547 50.539 82.5393 50.9543C81.7426 51.114 80.8343 51.4335 80.0217 51.721L79.7667 50.4112Z" fill="#030404"/>
<path d="M109.803 158.805C108.942 158.421 108.353 157.607 108.273 156.664C107.907 152.575 108.879 147.927 109.086 143.966C109.309 139.973 108.592 135.963 108.735 132.05C106.058 132.05 101.963 135.867 101.565 131.491C101.421 129.893 101.947 127.993 102.043 126.379C102.107 125.133 101.676 123.217 101.995 122.067C102.696 119.415 107.636 119.335 110.201 118.76C113.818 117.962 117.148 117.275 120.909 116.875C123.841 116.556 128.988 114.543 129.975 117.978C130.82 120.901 130.438 122.498 130.23 125.581C130.055 128.089 129.928 127.833 127.633 128.456C125.817 128.951 123.952 129.574 122.184 130.229C120.176 130.964 120.256 130.932 120.112 133.232C119.985 135.165 120.144 140.611 120.367 142.592C120.765 146.202 121.897 151.09 120.941 154.572C120.272 157.032 118.726 156.585 116.415 157.335C114.822 157.846 113.26 158.374 111.699 158.917C111.077 159.124 110.408 159.092 109.819 158.837L109.803 158.805Z" fill="#030404"/>
<path d="M134.565 153.102C133.29 148.774 134.007 142.528 134.007 137.992C134.007 133.759 133.784 129.51 133.608 125.309C133.497 122.434 132.876 116.955 134.756 115.23C137.178 113.01 141.894 113.361 144.762 112.243C146.595 116.189 146.085 121.923 146.292 126.236C146.404 128.504 146.547 130.82 146.945 133.104C147.392 135.66 148.188 136.602 150.77 137.065C155.853 137.976 154.976 129.271 154.674 125.629C154.45 122.945 154.371 120.278 154.132 117.626C154.004 116.173 152.793 112.962 153.51 111.86C154.084 110.981 158.418 110.247 159.47 110.007C162.131 109.4 162.657 109.799 163.374 112.674C164.489 117.115 164.856 122.019 165.62 126.523C166.433 131.331 166.529 136.011 166.991 140.771C167.501 146.01 164.68 148.662 160.665 150.659C157.797 152.08 134.341 160.37 134.549 153.086L134.565 153.102Z" fill="#030404"/>
<path d="M125.657 11.3729C123.729 11.1173 121.403 11.884 119.491 12.2833C117.34 12.7306 115.3 12.6827 113.181 12.9063C112.145 13.0181 110.966 13.2737 109.962 13.4813C109.261 13.6251 107.891 13.7049 107.253 13.9605C105.309 14.7592 105.74 17.5864 105.596 19.2476C105.23 23.4006 104.449 27.9689 103.429 32.0101C101.262 40.6037 101.055 49.4368 100.003 58.27C99.8757 59.2922 100.736 60.1548 101.756 60.043C105.118 59.6756 109.373 59.6277 112.177 58.0463C114.105 56.9602 114.981 43.4469 115.953 40.8113C117.403 40.8752 119.013 51.8168 119.013 52.9829C119.013 53.5579 118.471 55.874 118.742 56.2574C119.379 57.1359 123.984 55.1872 124.877 54.8517C125.912 54.4524 130.135 53.6218 131.202 53.0308C130.438 50.2834 130.294 45.2998 129.864 42.4406C129.099 37.2653 128.382 31.9782 127.84 26.771C127.299 21.7075 126.948 16.3724 125.657 11.4048V11.3729ZM118.296 32.4574C117.531 32.697 116.686 32.9046 115.89 32.9685C115.22 33.0164 114.185 32.7609 113.611 33.1442L113.468 32.7928C112.878 31.8983 114.009 28.8155 114.392 27.7293C114.679 26.9147 115.842 22.5381 116.862 22.8575C117.435 23.0332 117.834 24.6785 117.945 25.1736C118.168 26.1161 118.375 27.0585 118.614 28.0169C118.837 28.9273 119.061 29.8218 119.252 30.7483C119.475 31.8025 119.379 32.1379 118.328 32.4734L118.296 32.4574Z" fill="#030404"/>
<path d="M87.1283 150.675C86.013 145.978 85.3278 141.027 83.7503 136.506C82.9695 134.254 82.3162 132.018 81.153 129.925C79.5118 126.938 78.7469 127.082 75.592 127.418C70.8276 127.929 66.0633 129.159 61.4583 130.133C55.9132 131.299 53.6027 132.257 52.4873 138.136C51.6269 142.704 51.4994 147.288 51.0851 152C50.7983 155.307 50.5752 158.565 50.2247 161.872C49.906 164.907 48.9499 168.261 48.9181 171.232L51.8978 170.194C53.6027 169.299 57.0923 169.267 59.0204 169.076C61.6655 168.804 64.438 168.692 67.115 168.293C67.354 165.673 66.9875 162.67 66.7325 160.067C66.382 156.457 65.6968 156.521 69.1067 155.498C72.915 154.348 72.5326 154.907 73.2815 158.549C73.5365 159.795 74.1898 165.338 75.0183 166.073C76.7711 167.606 85.9014 164.395 87.3992 163.165C90.4427 160.658 87.9091 153.933 87.1283 150.659V150.675ZM70.8276 147.592C69.4414 148.055 68.2622 148.63 66.7485 148.342C66.3979 144.94 67.5133 141.186 68.5012 137.96C70.9232 138.439 70.4611 144.637 71.5606 146.521L70.8436 147.608L70.8276 147.592Z" fill="#030404"/>
<path d="M41.0466 92.9476C40.9988 89.7211 41.2696 86.4625 41.3175 83.2519C41.3175 82.6609 41.4609 81.4629 41.174 80.9358C40.6163 79.8816 40.7916 80.3448 39.6284 80.233C38.1943 80.1052 36.6328 80.3608 35.2306 80.6004C29.3508 81.5907 23.7579 83.236 17.8304 83.8749C15.1375 84.1624 11.6001 84.5138 9.38526 86.3188C6.80392 88.4113 7.37755 93.1393 7.39348 96.0624C7.39348 99.3209 6.88359 102.755 6.75611 106.014C6.62864 109.272 6.80392 112.706 6.64457 116.125C6.4693 119.623 7.01106 122.977 7.01106 126.459C7.01106 128.073 6.5171 129.654 6.38963 131.267C6.26215 133.024 7.10667 134.158 7.40942 135.835C8.04679 139.366 6.91546 142.353 11.9188 141.602C13.4963 141.362 15.2331 141.234 16.7628 140.787C18.0057 140.42 20.6189 139.957 21.5909 139.142C23.3118 137.688 22.0848 132.337 22.3239 129.893C22.6425 126.571 21.8299 122.945 22.5469 119.607C23.264 116.268 27.5343 116.939 30.3547 116.476C31.5179 116.284 33.6531 115.869 34.6251 115.262C36.1866 114.288 35.9158 112.531 35.9158 110.869C35.9158 109.192 36.0432 107.371 35.8361 105.694C35.5652 103.458 34.8004 103.442 32.697 103.538C30.9602 103.618 24.0448 105.518 22.9294 104.416C22.3398 103.825 22.4832 99.7202 22.7859 98.9535C23.5189 97.0527 25.2239 97.2444 27.1041 97.0208C30.0838 96.6694 33.3185 95.8547 36.4256 95.3596C38.1784 95.088 39.2938 94.7047 40.8076 93.922L41.0306 92.9636L41.0466 92.9476Z" fill="#030404"/>
<path d="M55.8495 76.9106C53.9214 77.294 52.0093 77.8211 50.0813 78.2843C47.9939 78.7954 47.1653 78.5079 47.245 80.856C47.3724 84.4339 46.9741 87.8362 46.8466 91.4302C46.5279 99.8161 46.0021 108.09 46.4164 116.476C46.5439 119.016 45.2213 126.22 48.1373 127.338C49.6351 127.913 51.9137 126.779 53.4275 126.315C55.0527 125.82 57.4747 125.677 58.9248 124.75C61.3308 123.201 61.0281 116.684 61.1077 113.968C61.2352 109.687 61.6017 105.423 61.522 101.126C61.4264 96.3818 61.1715 91.4941 60.7572 86.7341C60.5979 84.8812 61.5858 73.4924 57.5704 74.9938L55.8495 76.9266V76.9106Z" fill="#030404"/>
<path d="M67.2902 121.332C68.6765 107.691 66.7485 93.7463 67.8479 80.1851C68.087 77.2301 68.2782 74.7223 71.2419 73.9077C74.1898 73.093 77.1695 72.4222 80.181 71.7832C83.1607 71.1603 85.7421 70.6971 88.6899 70.5853C89.9328 70.5373 91.5899 69.4512 92.4982 70.154C93.1834 70.6971 93.502 73.5083 93.6295 74.323C93.8845 75.9203 94.2509 78.1885 93.8367 79.7698C93.3586 81.5907 92.1636 81.6866 90.3152 81.9741C87.1283 82.4852 83.7662 83.2999 80.8662 84.418C80.5316 86.175 81.3442 87.9161 80.9299 89.7211C82.5712 90.0086 83.5113 89.1141 84.9772 88.7467C85.8695 88.5231 87.3674 88.555 88.2915 88.6189C89.1361 90.328 88.5624 93.1233 88.5943 95.0082C88.6421 97.8194 88.8014 98.4584 86.0767 99.5765C84.6585 100.167 80.9618 100.375 80.0695 101.27C79.1931 102.132 79.3843 106.349 79.7189 107.643C80.7387 107.707 81.6151 107.068 82.603 106.876C83.814 106.637 84.9294 106.748 86.1245 106.301C88.1322 105.566 89.7416 104.624 91.9086 104.544C92.6416 106.157 93.4064 111.636 92.5141 113.074C91.7652 114.288 89.5822 114.32 88.3712 114.655C86.8256 115.086 85.4075 115.805 83.8778 116.3C78.5398 118.025 72.9469 118.632 67.7364 120.709" fill="#030404"/>
<path d="M97.7724 88.9224C96.1949 86.8778 96.8164 82.8207 96.8482 80.4407C96.8801 77.5495 97.3103 73.668 98.8241 71.1762C101.82 66.2725 109.596 65.362 114.886 65.2981C122.295 65.2023 123.857 71.943 122.662 78.1086C122.056 81.2233 118.901 81.7505 115.985 81.9581C114.551 82.0539 113.499 82.2137 112.91 80.9198C112.32 79.642 113.404 77.7731 111.715 76.8786C109.149 75.505 109.357 81.7984 110.137 83.204C111.492 85.6479 115.22 85.2965 117.563 86.1431C124.287 88.555 124.972 96.7333 122.741 102.883C120.351 109.48 114.774 113.713 107.715 114.048C100.067 114.416 97.5334 107.531 98.9197 100.918C99.6845 97.2923 101.342 96.7971 104.752 96.302C109.914 95.5353 104.831 100.136 107.046 102.244C109.373 104.448 111.476 97.5639 110.249 95.7589C108.751 93.5546 104.194 93.6185 101.995 92.3566C100.736 91.6378 99.4774 90.6155 98.7444 89.3057L97.7565 88.9064L97.7724 88.9224Z" fill="#030404"/>
<path d="M125.801 75.9682C125.131 72.7257 125.625 69.1157 125.625 65.8253C125.625 61.4167 128.239 61.3688 131.999 60.3944C138.452 58.7172 144.715 56.6886 151.359 55.6344C154.849 55.0754 158.004 53.9093 161.509 53.494C162.147 56.5768 162.37 60.2506 162.131 63.3494C161.987 65.2183 161.748 66.576 159.948 67.2149C158.275 67.8059 156.442 68.0615 154.753 68.5886C153.845 68.8761 150.929 69.3553 150.308 70.0262C149.591 70.7929 149.782 73.8598 149.798 74.914C149.845 78.3482 149.654 81.7345 149.575 85.2007C149.511 88.4752 149.463 91.7816 149.67 95.0561C149.782 96.909 150.069 98.3466 148.348 99.2251C146.914 99.9598 145.145 100.088 143.615 100.806C142.309 101.429 140.189 103.57 139.6 101.381C139.424 100.759 139.902 99.4966 139.982 98.8577C140.126 97.6917 139.95 96.6374 139.982 95.5193C140.062 91.5101 140.556 87.5327 140.524 83.5075C140.524 81.415 140.731 79.3545 140.604 77.262C140.54 76.2078 140.444 74.9779 140.253 73.9556C139.918 72.1985 140.014 72.4541 138.405 72.4861C136.493 72.534 134.118 73.0132 132.35 73.6202C130.724 74.1952 128.94 75.4251 127.187 75.521C126.741 75.1536 127.187 75.4091 127.187 75.3772L125.801 75.9682Z" fill="#030404"/>
<path d="M191.832 75.9043C191.29 72.4701 190.557 69.1317 189.856 65.7614C189.123 62.2473 188.374 58.9089 187.498 55.4587C187.052 53.7176 186.813 51.8967 186.303 50.1716C185.729 48.2708 185.65 47.9354 183.769 47.8874C181.013 47.8235 178.129 49.0535 175.436 49.6764C173.524 50.1237 168.265 51.0341 167.118 52.6474C166.513 53.494 167.007 55.9858 167.023 56.9761C167.038 58.3658 167.134 59.7714 167.086 61.1611C166.991 64.3398 166.991 67.4865 167.054 70.6971C167.118 74.5306 166.975 78.3642 166.959 82.2137C166.959 86.0632 166.672 88.8905 166.401 92.6921C166.401 92.6921 174.623 92.117 175.85 89.1301C177.157 85.9514 174.289 80.1691 179.802 80.3448C179.897 82.2936 179.881 84.1944 180.184 86.175C180.503 88.1557 180.264 90.1523 182.59 89.4495C186.064 88.4113 189.681 86.4466 193.442 86.0792C193.76 82.9644 192.342 79.0191 191.848 75.8564L191.832 75.9043ZM177.714 69.4032L176.487 69.7866C175.484 68.3969 175.691 60.0749 177.746 60.1867C179.18 60.2666 179.547 64.212 179.866 65.1704C180.63 67.5184 180.407 68.7483 177.73 69.4032H177.714Z" fill="#030404"/>
<path d="M52.6148 223.448C52.8379 223.081 52.9813 222.649 52.9972 222.218C53.4753 211.644 53.6665 200.91 52.9016 190.32C52.7264 187.876 52.6786 185.368 52.5033 182.86C52.2643 179.538 52.5989 178.787 49.189 178.436C46.5439 178.164 44.3449 177.989 41.6839 178.196C39.9312 178.324 35.5015 177.461 34.4179 178.867C33.8443 179.618 34.0355 182.221 33.8284 183.244C33.5097 184.777 33.0316 186.279 32.6333 187.796C32.1393 189.713 31.5498 196.182 29.4942 196.565C28.0602 194.473 27.8052 190.943 27.4865 188.403C27.3113 187.029 27.2953 185.544 26.9926 184.202C26.5146 182.126 26.6898 182.094 24.5228 181.918C21.7183 181.71 19.376 182.605 16.9062 183.483C14.7232 184.266 11.2177 183.803 9.32152 185.16C6.4693 187.205 6.48523 195.958 6.0072 199.44C5.27423 204.744 4.33411 210.142 3.52146 215.414C2.69288 220.797 2.07145 226.882 0.095605 231.978C-0.557698 233.974 5.13082 232.441 7.39348 232.137C10.166 231.77 13.1776 231.866 14.771 229.406C17.7667 224.742 18.1331 218.017 20.4436 213.066C20.6189 216.979 19.631 220.828 19.6628 224.71C19.7106 229.071 23.4552 228.144 27.0563 227.889C28.5382 227.777 31.6294 227.585 32.7448 226.563C34.0355 225.381 34.0674 223.224 34.5135 221.515C35.6608 217.235 36.2663 212.634 38.0191 208.513C39.5169 210.063 38.3377 214.487 38.2581 216.548C38.1784 218.608 37.4614 222.058 38.1465 224.039C38.7839 225.892 38.5608 225.253 40.5526 225.333C42.0504 225.397 43.5323 225.141 45.0301 225.029C46.8626 224.918 49.2686 225.077 51.1489 224.566C51.7703 224.39 52.3121 223.991 52.6626 223.448H52.6148Z" fill="#030404"/>
<path d="M90.9685 214.264C89.63 211.452 90.3789 205.782 90.2993 202.603C90.1877 198.786 89.6938 195.048 89.4069 191.198C89.1361 187.588 89.2157 183.978 89.1042 180.416C89.0564 178.931 88.7058 176.87 89.0405 175.417C89.5344 173.165 90.6339 173.117 92.546 172.35C95.8922 171.024 99.3977 169.012 102.855 168.293C103.891 171.839 105.309 175.289 106.504 178.707C107.747 182.205 108.416 186.039 110.185 189.298C112.814 187.141 111.699 177.206 111.635 173.804C111.603 171.983 111.157 167.973 111.986 166.392C113.006 164.427 116.479 163.916 118.28 163.517C121.323 162.83 121.355 163.357 121.753 166.743C122.088 169.635 122.056 172.446 122.295 175.273C122.757 180.944 122.853 186.486 123.108 192.125C123.235 195.032 123.331 197.859 123.411 200.75C123.506 203.881 122.901 207.14 123.076 210.126C120.431 211.452 117.802 211.772 115.013 212.682C113.691 213.113 112.464 214.04 111.316 213.161C110.631 212.634 109.755 209.679 109.42 208.673C107.413 202.715 106.871 195.926 104.321 190.32C103.031 192.86 103.764 197.3 103.636 200.175C103.509 203.05 103.206 206.261 103.047 209.216C102.824 213.305 102.489 214.407 98.8559 215.398C96.8642 215.941 93.6454 217.602 91.7971 217.027L90.9844 214.264H90.9685Z" fill="#030404"/>
<path d="M84.0849 178.436C83.7822 177.27 83.6069 173.42 82.9217 172.494C81.9019 171.12 79.6393 172.27 78.1096 172.59C74.1738 173.388 70.2062 174.906 66.2226 175.752C64.0237 176.216 63.1155 175.081 62.271 177.637C61.777 179.123 61.9841 181.327 61.777 182.94C61.2193 187.317 60.6935 191.662 60.0561 196.054C59.4347 200.319 59.0363 204.76 58.6539 209.072C58.3033 212.906 56.9489 217.57 57.7934 221.356C59.8808 221.356 61.3946 220.445 63.3385 219.838C65.0754 219.279 67.8001 218.385 69.2183 217.314C70.7958 216.116 69.9513 213.369 69.9353 211.388C69.9034 208.673 71.2897 207.986 74.2216 207.986C75.098 211.5 73.6002 216.068 74.7156 219.247C77.4563 219.199 85.4234 217.426 86.252 214.918C87.463 211.261 85.6146 205.654 85.6943 201.804C85.8536 194.409 86.0448 185.672 84.1008 178.436H84.0849ZM75.4804 198.019L74.7793 198.099C70.9392 199.233 69.2183 199.856 70.3815 195.032C71.0348 192.348 71.6243 187.109 73.4568 185.208C74.1579 189.457 74.9705 193.69 75.4804 198.019Z" fill="#030404"/>
<path d="M128.398 210.35C127.41 207.363 128.207 203.577 128.43 200.511C128.685 197.14 128.972 193.674 128.972 190.272C128.972 183.755 129.163 177.142 129.577 170.657C129.657 169.555 129.434 167.558 129.736 166.552C130.342 164.619 130.788 165.082 132.477 164.619C135.218 163.884 137.974 163.165 140.906 162.638C142.866 162.287 146.818 160.897 148.889 161.648C151.216 162.479 150.61 167.43 150.642 170.098C150.658 171.951 151.184 173.74 149.893 175.002C148.873 175.992 146.356 175.976 145.065 176.279C141.114 177.19 139.154 177.813 139.998 182.892C143.249 183.116 146.547 181.087 149.909 180.991C150.371 182.972 149.989 185.368 149.814 187.317C149.559 190.304 149.112 189.92 146.42 190.416C145.288 190.623 141.894 190.703 141.161 191.725C140.476 192.684 140.827 196.406 140.827 197.62C143.153 197.699 145.591 196.054 147.662 195.479C149.622 194.936 151.774 194.92 153.702 194.393C154.211 197.604 153.956 202.252 153.351 205.43C152.618 209.248 149.001 208.385 145.926 209.184C140.317 210.638 134.15 209.823 128.35 210.366" fill="#030404"/>
<path d="M179.993 158.581C176.456 153.023 169.381 155.147 164.585 156.473C161.876 157.223 158.322 157.431 157.239 160.897C156.586 162.974 157.207 166.504 157.191 168.772C157.127 181.087 156.378 193.866 157.446 206.133L158.147 206.069C160.187 205.303 162.051 204.009 164.075 203.386C166.879 202.523 167.485 202.827 167.787 199.281C168.154 194.872 166.353 188.643 167.787 184.601C169.397 188.499 170.417 193.291 171.181 197.556C171.357 198.498 171.42 202.619 172.09 203.114C172.966 203.769 175.739 201.98 176.727 201.725C180.057 200.846 183.546 201.134 182.192 196.374C180.152 189.282 177.061 182.78 173.779 176.375C179.085 172.526 184.901 166.312 179.993 158.597V158.581ZM171.165 167.319C170.64 170.242 169.03 171.567 167.07 173.213L166.146 173.564C165.859 170.321 164.441 163.725 167.915 163.165C170.767 162.718 171.643 164.667 171.15 167.319H171.165Z" fill="#030404"/>
<path d="M207.464 147.783C203.209 147.815 199.003 149.972 195.115 151.297C193.25 151.936 191.019 151.888 189.187 152.623C187.068 153.47 187.386 154.444 187.052 157.112C186.43 161.952 186.59 166.759 186.638 171.695C186.685 176.823 186.319 181.854 186.128 186.949C185.984 191.039 185.044 196.613 185.905 200.575L186.749 202.108C187.944 203.498 193.808 200.559 195.704 200.207C197.712 199.824 199.194 199.92 199.847 197.891C200.261 196.581 200.07 193.866 200.118 192.412C200.229 189.489 198.652 183.994 200.468 181.774C203.831 177.653 203.91 185.576 203.926 187.844C203.942 190.655 202.667 197.124 203.862 199.472C205.536 198.386 207.495 197.843 209.392 197.38C210.81 197.045 214.124 196.821 215.176 195.783C216.737 194.249 214.714 186.854 214.331 184.346C213.71 180.305 213.296 176.327 212.77 172.222C211.702 163.9 209.487 155.834 207.464 147.751V147.783ZM202.89 172.717C202.381 173.564 200.15 173.564 199.369 173.676L198.54 173.756C197.568 172.733 198.365 168.197 198.493 166.616C198.636 164.779 198.843 161.025 199.975 159.779C201.536 162.207 202.078 165.961 202.46 168.884C202.588 169.906 203.321 172.031 202.906 172.717H202.89Z" fill="#030404"/>
<path d="M83.0173 44.613C83.7344 41.8336 83.4635 38.4952 83.5272 35.6201C83.5909 32.6331 83.5113 29.6781 83.6069 26.7071C83.6866 24.3111 83.3519 22.0429 83.2563 19.6789C83.1767 17.5545 83.9893 14.7752 83.0492 12.8105C79.4799 13.3216 76.2612 13.5772 72.8832 14.9509C71.2738 15.6058 69.3776 15.9252 67.9595 16.628C65.6331 17.7621 65.7287 19.1198 65.8402 21.4519C66.2226 29.8378 65.3622 38.1438 65.2188 46.5457C65.155 50.555 64.9638 54.6121 65.3463 58.5894C65.5693 60.9535 66.1111 61.848 68.788 61.3847C70.7002 61.0653 72.6601 60.4264 74.5084 59.7395C78.253 58.3339 82.0772 57.5352 86.0448 56.9442C89.3113 56.449 94.9361 56.0657 97.4537 53.8454C99.0312 52.4558 97.8202 49.9001 97.8202 48.0152C97.8202 46.5617 98.9515 43.0955 97.2784 42.201C95.8922 41.4503 93.2311 43.4469 91.9245 43.8303C89.9168 44.4372 87.7976 44.7407 85.7899 45.156C84.9932 45.3158 84.0849 45.6352 83.2723 45.9227L83.0173 44.613Z" fill="white"/>
<path d="M113.037 153.007C112.177 152.623 111.587 151.809 111.508 150.866C111.141 146.777 112.113 142.129 112.32 138.168C112.543 134.174 111.826 130.165 111.97 126.252C109.293 126.252 105.198 130.069 104.799 125.693C104.656 124.095 105.182 122.194 105.277 120.581C105.341 119.335 104.911 117.418 105.23 116.268C105.931 113.617 110.87 113.537 113.436 112.962C117.053 112.163 120.383 111.476 124.144 111.077C127.075 110.758 132.222 108.745 133.21 112.179C134.055 115.102 133.672 116.7 133.465 119.782C133.29 122.29 133.162 122.035 130.868 122.658C129.051 123.153 127.187 123.776 125.418 124.431C123.411 125.165 123.49 125.133 123.347 127.434C123.219 129.366 123.379 134.813 123.602 136.794C124 140.404 125.131 145.292 124.175 148.774C123.506 151.234 121.961 150.786 119.65 151.537C118.057 152.048 116.495 152.575 114.934 153.118C114.312 153.326 113.643 153.294 113.053 153.039L113.037 153.007Z" fill="white"/>
<path d="M137.799 147.304C136.524 142.975 137.241 136.73 137.241 132.194C137.241 127.961 137.018 123.712 136.843 119.511C136.732 116.636 136.11 111.157 137.99 109.432C140.412 107.212 145.129 107.563 147.997 106.445C149.83 110.39 149.32 116.125 149.527 120.437C149.638 122.706 149.782 125.022 150.18 127.306C150.626 129.862 151.423 130.804 154.004 131.267C159.087 132.178 158.211 123.472 157.908 119.83C157.685 117.147 157.605 114.479 157.366 111.828C157.239 110.374 156.028 107.164 156.745 106.062C157.319 105.183 161.653 104.448 162.704 104.209C165.365 103.602 165.891 104.001 166.608 106.876C167.724 111.317 168.09 116.22 168.855 120.725C169.668 125.533 169.763 130.213 170.225 134.973C170.735 140.212 167.915 142.864 163.899 144.86C161.031 146.282 137.576 154.572 137.783 147.288L137.799 147.304Z" fill="white"/>
<path d="M128.892 5.57461C126.964 5.31904 124.638 6.08575 122.725 6.48508C120.574 6.93233 118.535 6.88441 116.415 7.10803C115.38 7.21984 114.201 7.47541 113.197 7.68307C112.496 7.82682 111.125 7.90669 110.488 8.16226C108.544 8.96092 108.974 11.7882 108.831 13.4494C108.464 17.6024 107.684 22.1707 106.664 26.2119C104.497 34.8054 104.29 43.6386 103.238 52.4717C103.11 53.494 103.971 54.3565 104.991 54.2447C108.353 53.8773 112.607 53.8294 115.412 52.2481C117.34 51.1619 118.216 37.6486 119.188 35.0131C120.638 35.077 122.247 46.0186 122.247 47.1846C122.247 47.7596 121.706 50.0757 121.977 50.4591C122.614 51.3376 127.219 49.3889 128.111 49.0535C129.147 48.6541 133.369 47.8235 134.437 47.2325C133.672 44.4851 133.529 39.5015 133.099 36.6423C132.334 31.4671 131.617 26.1799 131.075 20.9727C130.533 15.9092 130.183 10.5742 128.892 5.60656V5.57461ZM121.53 26.6432C120.765 26.8828 119.921 27.0904 119.124 27.1543C118.455 27.2022 117.419 26.9467 116.846 27.33L116.702 26.9786C116.113 26.0841 117.244 23.0013 117.626 21.9151C117.913 21.1005 119.076 16.7239 120.096 17.0433C120.67 17.219 121.068 18.8643 121.18 19.3594C121.403 20.3018 121.61 21.2442 121.849 22.2026C122.072 23.1131 122.295 24.0076 122.486 24.934C122.709 25.9883 122.614 26.3237 121.562 26.6591L121.53 26.6432Z" fill="white"/>
<path d="M90.363 144.876C89.2476 140.18 88.5624 135.228 86.9849 130.708C86.2042 128.456 85.5509 126.22 84.3877 124.127C82.7464 121.14 81.9816 121.284 78.8266 121.619C74.0623 122.131 69.2979 123.36 64.693 124.335C59.1478 125.501 56.8374 126.459 55.722 132.337C54.8615 136.906 54.7341 141.49 54.3198 146.202C54.033 149.508 53.8099 152.767 53.4593 156.073C53.1406 159.108 52.1846 162.463 52.1527 165.434L55.1324 164.395C56.8374 163.501 60.327 163.469 62.255 163.277C64.9001 163.006 67.6727 162.894 70.3496 162.495C70.5886 159.875 70.2221 156.872 69.9672 154.268C69.6166 150.659 68.9315 150.722 72.3414 149.7C76.1497 148.55 75.7672 149.109 76.5162 152.751C76.7711 153.997 77.4244 159.54 78.253 160.274C80.0057 161.808 89.1361 158.597 90.6339 157.367C93.6773 154.859 91.1438 148.135 90.363 144.86V144.876ZM74.0623 141.777C72.676 142.241 71.4969 142.816 69.9831 142.528C69.6326 139.126 70.748 135.372 71.7359 132.146C74.1579 132.625 73.6958 138.822 74.7953 140.707L74.0782 141.793L74.0623 141.777Z" fill="white"/>
<path d="M44.2812 87.1494C44.2334 83.9228 44.5043 80.6643 44.5521 77.4537C44.5521 76.8627 44.6955 75.6647 44.4087 75.1376C43.851 74.0834 44.0263 74.5466 42.8631 74.4348C41.429 74.307 39.8674 74.5626 38.4652 74.8022C32.5855 75.7925 26.9926 77.4377 21.065 78.0767C18.3722 78.3642 14.8348 78.7156 12.6199 80.5205C10.0386 82.613 10.6122 87.3411 10.6281 90.2642C10.6281 93.5227 10.1182 96.9569 9.99076 100.215C9.86328 103.618 10.0386 106.908 9.87922 110.326C9.70394 113.825 10.2457 117.179 10.2457 120.661C10.2457 122.274 9.75174 123.856 9.62427 125.469C9.49679 127.226 10.3413 128.36 10.6441 130.037C11.2814 133.567 10.1501 136.554 15.1534 135.804C16.7309 135.564 18.4678 135.436 19.9975 134.989C21.2403 134.622 23.8535 134.158 24.8255 133.344C26.5464 131.89 25.3195 126.539 25.5585 124.095C25.8772 120.773 25.0645 117.147 25.7816 113.809C26.4986 110.47 30.769 111.141 33.5893 110.678C34.7525 110.486 36.8877 110.071 37.8597 109.464C39.4213 108.489 39.1504 106.732 39.1504 105.071C39.1504 103.394 39.2779 101.573 39.0707 99.896C38.7998 97.6597 38.035 97.6437 35.9317 97.7396C34.1948 97.8194 27.2794 99.7202 26.164 98.6181C25.5744 98.0271 25.7178 93.922 26.0206 93.1553C26.7536 91.2545 28.4585 91.4462 30.3388 91.2225C33.3185 90.8711 36.5531 90.0565 39.6603 89.5613C41.413 89.2898 42.5284 88.9064 44.0422 88.1238L44.2653 87.1654L44.2812 87.1494Z" fill="#DD4C97"/>
<path d="M59.0841 71.1124C57.1561 71.4957 55.244 72.0228 53.3159 72.486C51.2285 72.9972 50.4 72.7097 50.4796 75.0577C50.6071 78.6357 50.2087 82.038 50.0813 85.6319C49.7626 94.0178 49.2368 102.292 49.651 110.678C49.7785 113.218 48.456 120.421 51.3719 121.54C52.8698 122.115 55.1484 120.98 56.6621 120.517C58.2874 120.022 60.7094 119.878 62.1594 118.952C64.5655 117.402 64.2627 110.885 64.3424 108.17C64.4699 103.889 64.8364 99.6244 64.7567 95.3276C64.6611 90.5836 64.4061 85.6958 63.9918 80.9358C63.8325 79.0829 64.8204 67.6941 60.805 69.1956L59.0841 71.1283V71.1124Z" fill="#DD4C97"/>
<path d="M70.5249 115.518C71.9112 101.877 69.9831 87.9321 71.0826 74.3709C71.3216 71.4159 71.5128 68.9081 74.4766 68.0935C77.4244 67.2788 80.4041 66.608 83.4157 65.969C86.3954 65.3461 88.9767 64.8829 91.9245 64.771C93.1674 64.7231 94.8246 63.6369 95.7328 64.3398C96.418 64.8829 96.7367 67.6941 96.8642 68.5088C97.1191 70.1061 97.4856 72.3743 97.0713 73.9556C96.5933 75.7765 95.3982 75.8724 93.5498 76.1599C90.363 76.671 87.0009 77.4857 84.1008 78.6038C83.7662 80.3608 84.5789 82.1019 84.1646 83.9068C85.8058 84.1944 86.7459 83.2999 88.2119 82.9325C89.1042 82.7089 90.602 82.7408 91.5262 82.8047C92.3707 84.5138 91.7971 87.3091 91.8289 89.194C91.8767 92.0052 92.0361 92.6442 89.3113 93.7623C87.8932 94.3533 84.1964 94.5609 83.3041 95.4554C82.4277 96.318 82.619 100.535 82.9536 101.829C83.9734 101.893 84.8497 101.254 85.8377 101.062C87.0487 100.822 88.1641 100.934 89.3591 100.487C91.3669 99.7522 92.9762 98.8098 95.1433 98.7299C95.8762 100.343 96.6411 105.822 95.7488 107.26C94.9999 108.474 92.8169 108.505 91.6059 108.841C90.0602 109.272 88.6421 109.991 87.1124 110.486C81.7744 112.211 76.1815 112.818 70.971 114.895" fill="#DD4C97"/>
<path d="M101.023 83.1242C99.4455 81.0796 100.067 77.0224 100.099 74.6424C100.131 71.7513 100.561 67.8698 102.075 65.378C105.07 60.4743 112.846 59.5638 118.136 59.4999C125.546 59.4041 127.107 66.1447 125.912 72.3104C125.307 75.4251 122.152 75.9522 119.236 76.1599C117.802 76.2557 116.75 76.4155 116.161 75.1216C115.571 73.8438 116.654 71.9749 114.965 71.0804C112.4 69.7067 112.607 76.0002 113.388 77.4058C114.742 79.8497 118.471 79.4983 120.813 80.3448C127.538 82.7568 128.223 90.935 125.992 97.0847C123.602 103.682 118.025 107.914 110.966 108.25C103.318 108.617 100.784 101.733 102.17 95.12C102.935 91.4941 104.592 90.9989 108.002 90.5038C113.165 89.737 108.082 94.3373 110.297 96.4458C112.623 98.65 114.726 91.7656 113.499 89.9607C112.002 87.7564 107.444 87.8203 105.246 86.5584C103.987 85.8396 102.728 84.8173 101.995 83.5075L101.007 83.1082L101.023 83.1242Z" fill="#DD4C97"/>
<path d="M129.035 70.17C128.366 66.9274 128.86 63.3175 128.86 60.027C128.86 55.6184 131.473 55.5705 135.234 54.5962C141.687 52.919 147.949 50.8904 154.594 49.8362C158.083 49.2771 161.238 48.1111 164.744 47.6958C165.381 50.7786 165.604 54.4524 165.365 57.5512C165.222 59.42 164.983 60.7778 163.182 61.4167C161.509 62.0077 159.677 62.2633 157.988 62.7904C157.08 63.0779 154.164 63.5571 153.542 64.228C152.825 64.9947 153.016 68.0615 153.032 69.1157C153.08 72.55 152.889 75.9363 152.809 79.4024C152.745 82.6769 152.698 85.9834 152.905 89.2579C153.016 91.1107 153.303 92.5483 151.582 93.4268C150.148 94.1616 148.38 94.2894 146.85 95.0082C145.543 95.6311 143.424 97.7715 142.834 95.5832C142.659 94.9603 143.137 93.6984 143.217 93.0595C143.36 91.8934 143.185 90.8392 143.217 89.7211C143.296 85.7118 143.79 81.7345 143.759 77.7093C143.759 75.6168 143.966 73.5563 143.838 71.4638C143.775 70.4096 143.679 69.1796 143.488 68.1573C143.153 66.4003 143.249 66.6559 141.639 66.6878C139.727 66.7357 137.353 67.2149 135.584 67.8219C133.959 68.3969 132.174 69.6269 130.422 69.7227C129.975 69.3553 130.422 69.6109 130.422 69.579L129.035 70.17Z" fill="#DD4C97"/>
<path d="M195.083 70.1061C194.541 66.6718 193.808 63.3334 193.107 59.9631C192.374 56.449 191.625 53.1106 190.749 49.6604C190.302 47.9194 190.063 46.0984 189.554 44.3733C188.98 42.4725 188.9 42.1371 187.02 42.0892C184.263 42.0253 181.379 43.2552 178.686 43.8782C176.774 44.3254 171.516 45.2359 170.369 46.8492C169.763 47.6958 170.257 50.1876 170.273 51.1779C170.289 52.5676 170.385 53.9732 170.337 55.3629C170.241 58.5415 170.241 61.6882 170.305 64.8988C170.369 68.7324 170.225 72.5659 170.209 76.4154C170.209 80.265 169.923 83.0922 169.652 86.8938C169.652 86.8938 177.874 86.3188 179.101 83.3318C180.407 80.1531 177.539 74.3709 183.052 74.5466C183.148 76.4953 183.132 78.3961 183.435 80.3768C183.753 82.3574 183.514 84.3541 185.841 83.6513C189.315 82.613 192.932 80.6483 196.692 80.2809C197.011 77.1662 195.593 73.2208 195.099 70.0581L195.083 70.1061ZM180.949 63.589L179.722 63.9724C178.718 62.5827 178.925 54.2607 180.981 54.3725C182.415 54.4524 182.782 58.3977 183.1 59.3561C183.865 61.7042 183.642 62.9341 180.965 63.589H180.949Z" fill="#DD4C97"/>
<path d="M55.8495 217.65C56.0725 217.282 56.216 216.851 56.2319 216.42C56.7099 205.846 56.9011 195.112 56.1363 184.522C55.961 182.078 55.9132 179.57 55.7379 177.062C55.4989 173.74 55.8335 172.989 52.4236 172.638C49.7785 172.366 47.5796 172.19 44.9186 172.398C43.1658 172.526 38.7361 171.663 37.6526 173.069C37.0789 173.82 37.2702 176.423 37.063 177.445C36.7443 178.979 36.2663 180.48 35.8679 181.998C35.374 183.915 34.7844 190.384 32.7289 190.767C31.2948 188.675 31.0399 185.145 30.7212 182.605C30.5459 181.231 30.53 179.746 30.2272 178.404C29.7492 176.327 29.9245 176.295 27.7574 176.12C24.953 175.912 22.6107 176.807 20.1409 177.685C17.9579 178.468 14.4523 178.005 12.5562 179.362C9.70395 181.407 9.71988 190.16 9.24185 193.642C8.50888 198.945 7.56876 204.344 6.75611 209.615C5.92753 214.998 5.3061 221.084 3.33025 226.179C2.67695 228.176 8.36547 226.643 10.6281 226.339C13.4007 225.972 16.4123 226.068 18.0057 223.608C21.0013 218.944 21.3678 212.219 23.6783 207.267C23.8535 211.181 22.8656 215.03 22.8975 218.912C22.9453 223.272 26.6898 222.346 30.291 222.09C31.7728 221.979 34.8641 221.787 35.9795 220.765C37.2702 219.583 37.302 217.426 37.7482 215.717C38.8954 211.436 39.5009 206.836 41.2537 202.715C42.7515 204.264 41.5724 208.689 41.4927 210.749C41.4131 212.81 40.696 216.26 41.3812 218.241C42.0186 220.094 41.7955 219.455 43.7873 219.535C45.2851 219.599 46.767 219.343 48.2648 219.231C50.0972 219.119 52.5033 219.279 54.3835 218.768C55.005 218.592 55.5467 218.193 55.8973 217.65H55.8495Z" fill="#DD4C97"/>
<path d="M94.2031 208.465C92.8647 205.654 93.6136 199.984 93.5339 196.805C93.4224 192.987 92.9284 189.25 92.6416 185.4C92.3707 181.79 92.4504 178.18 92.3388 174.618C92.291 173.133 91.9405 171.072 92.2751 169.619C92.7691 167.366 93.8685 167.319 95.7806 166.552C99.1268 165.226 102.632 163.213 106.09 162.495C107.126 166.041 108.544 169.491 109.739 172.909C110.982 176.407 111.651 180.241 113.42 183.499C116.049 181.343 114.934 171.408 114.87 168.005C114.838 166.184 114.392 162.175 115.22 160.594C116.24 158.629 119.714 158.118 121.514 157.719C124.558 157.032 124.59 157.559 124.988 160.945C125.323 163.836 125.291 166.648 125.53 169.475C125.992 175.145 126.088 180.688 126.342 186.327C126.47 189.234 126.566 192.061 126.645 194.952C126.741 198.083 126.135 201.341 126.311 204.328C123.666 205.654 121.036 205.973 118.248 206.884C116.925 207.315 115.698 208.242 114.551 207.363C113.866 206.836 112.99 203.881 112.655 202.875C110.647 196.917 110.106 190.128 107.556 184.522C106.265 187.061 106.998 191.502 106.871 194.377C106.743 197.396 106.441 200.463 106.281 203.418C106.058 207.507 105.724 208.609 102.091 209.599C100.099 210.142 96.8801 211.804 95.0317 211.229L94.2191 208.465H94.2031Z" fill="#DD4C97"/>
<path d="M87.3196 172.638C87.0168 171.472 86.8415 167.622 86.1564 166.696C85.1366 165.322 82.8739 166.472 81.3442 166.791C77.4085 167.59 73.4409 169.108 69.4573 169.954C67.2584 170.417 66.3501 169.283 65.5056 171.839C65.0116 173.324 65.2188 175.529 65.0116 177.142C64.4539 181.519 63.9281 185.863 63.2908 190.256C62.6693 194.521 62.271 198.961 61.8885 203.274C61.538 207.108 60.1836 211.772 61.0281 215.557C63.1155 215.557 64.6292 214.647 66.5732 214.04C68.31 213.481 71.0348 212.586 72.4529 211.516C74.0304 210.318 73.1859 207.571 73.17 205.59C73.1381 202.875 74.5244 202.188 77.4563 202.188C78.3327 205.702 76.8348 210.27 77.9502 213.449C80.6909 213.401 88.658 211.628 89.4866 209.12C90.6976 205.462 88.8493 199.856 88.9289 196.006C89.0883 188.611 89.2795 179.873 87.3355 172.638H87.3196ZM78.7151 192.205L78.014 192.285C74.1738 193.419 72.4529 194.042 73.6161 189.218C74.2694 186.534 74.859 181.295 76.6914 179.394C77.3925 183.643 78.2052 187.876 78.7151 192.205Z" fill="#DD4C97"/>
<path d="M131.633 204.552C130.645 201.565 131.441 197.779 131.665 194.712C131.919 191.342 132.206 187.876 132.206 184.474C132.206 177.957 132.397 171.344 132.812 164.859C132.891 163.756 132.668 161.76 132.971 160.754C133.577 158.821 134.023 159.284 135.712 158.821C138.452 158.086 141.209 157.367 144.141 156.84C146.101 156.489 150.053 155.099 152.124 155.85C154.45 156.68 153.845 161.632 153.877 164.3C153.893 166.152 154.419 167.941 153.128 169.203C152.108 170.194 149.591 170.178 148.3 170.481C144.348 171.392 142.388 172.015 143.233 177.094C146.483 177.318 149.782 175.289 153.144 175.193C153.606 177.174 153.224 179.57 153.048 181.519C152.793 184.506 152.347 184.122 149.654 184.617C148.523 184.825 145.129 184.905 144.396 185.927C143.711 186.886 144.061 190.607 144.061 191.821C146.388 191.901 148.826 190.256 150.897 189.681C152.857 189.138 155.008 189.122 156.936 188.595C157.446 191.805 157.191 196.453 156.586 199.632C155.853 203.45 152.236 202.587 149.16 203.386C143.551 204.839 137.385 204.025 131.585 204.568" fill="#DD4C97"/>
<path d="M183.228 152.783C179.69 147.224 172.615 149.349 167.819 150.675C165.11 151.425 161.557 151.633 160.474 155.099C159.82 157.176 160.442 160.706 160.426 162.974C160.362 175.289 159.613 188.068 160.681 200.335L161.382 200.271C163.421 199.504 165.286 198.211 167.309 197.588C170.114 196.725 170.719 197.029 171.022 193.482C171.389 189.074 169.588 182.844 171.022 178.803C172.631 182.701 173.651 187.493 174.416 191.757C174.591 192.7 174.655 196.821 175.324 197.316C176.201 197.971 178.973 196.182 179.961 195.926C183.291 195.048 186.781 195.335 185.427 190.575C183.387 183.483 180.296 176.982 177.013 170.577C182.319 166.728 188.135 160.514 183.228 152.799V152.783ZM174.4 161.52C173.874 164.443 172.265 165.769 170.305 167.414L169.381 167.766C169.094 164.523 167.676 157.926 171.15 157.367C174.002 156.92 174.878 158.869 174.384 161.52H174.4Z" fill="#DD4C97"/>
<path d="M210.698 141.985C206.444 142.017 202.237 144.173 198.349 145.499C196.485 146.138 194.254 146.09 192.422 146.825C190.302 147.672 190.621 148.646 190.287 151.313C189.665 156.153 189.824 160.961 189.872 165.897C189.92 171.024 189.554 176.056 189.362 181.151C189.219 185.24 188.279 190.815 189.139 194.776L189.984 196.31C191.179 197.699 197.043 194.76 198.939 194.409C200.947 194.026 202.428 194.121 203.082 192.093C203.496 190.783 203.305 188.068 203.353 186.614C203.464 183.691 201.887 178.196 203.703 175.976C207.065 171.855 207.145 179.778 207.161 182.046C207.177 184.857 205.902 191.326 207.097 193.674C208.77 192.588 210.73 192.045 212.626 191.582C214.044 191.246 217.359 191.023 218.41 189.984C219.972 188.451 217.948 181.055 217.566 178.548C216.944 174.506 216.53 170.529 216.004 166.424C214.937 158.102 212.722 150.036 210.698 141.953V141.985ZM206.141 166.919C205.631 167.766 203.4 167.766 202.62 167.878L201.791 167.957C200.819 166.935 201.616 162.399 201.743 160.817C201.887 158.981 202.094 155.227 203.225 153.981C204.787 156.409 205.328 160.163 205.711 163.086C205.838 164.108 206.571 166.232 206.157 166.919H206.141Z" fill="#DD4C97"/>
<path d="M111.412 0.6709C111.842 0.750766 111.954 0.0798945 111.524 2.88459e-05C111.093 -0.0798368 110.982 0.591034 111.412 0.6709Z" fill="#030404"/>
<path d="M180.838 63.2695C180.423 63.3973 180.009 63.5251 179.611 63.6529L180.009 63.7807C179.77 63.4293 179.69 62.9341 179.627 62.5188C179.531 61.8639 179.483 61.193 179.483 60.5222C179.467 59.0846 179.563 57.5831 179.961 56.1935C180.152 55.5226 180.758 54.0531 181.523 55.1073C182.367 56.2733 182.399 57.9185 182.734 59.2603C182.941 60.0589 183.307 60.9215 183.084 61.7521C182.829 62.7265 181.698 63.0459 180.838 63.2695C180.423 63.3814 180.662 64.0203 181.077 63.9085C181.985 63.6689 182.989 63.3175 183.499 62.4709C183.945 61.7202 183.833 60.8097 183.626 59.9951C183.419 59.1804 183.228 58.4457 183.068 57.647C182.893 56.7685 182.686 55.874 182.272 55.0753C181.985 54.5163 181.491 53.9412 180.806 54.0371C180.28 54.101 179.929 54.5322 179.69 54.9635C178.957 56.3053 178.862 58.0623 178.798 59.5638C178.766 60.5062 178.798 61.4486 178.909 62.3751C178.989 62.9661 179.085 63.6689 179.435 64.164C179.531 64.2918 179.69 64.3238 179.834 64.2918L181.061 63.9085C181.475 63.7807 181.236 63.1418 180.822 63.2695H180.838Z" fill="#030404"/>
</g>
<defs>
<clipPath id="clip0_10_1311">
<rect width="219" height="233" fill="white"/>
</clipPath>
</defs>
</svg>
