<?xml version="1.0" encoding="utf-8"?>
<!-- Generator: Adobe Illustrator 25.4.0, SVG Export Plug-In . SVG Version: 6.00 Build 0)  -->
<svg version="1.1" id="Capa_1" xmlns="http://www.w3.org/2000/svg" xmlns:xlink="http://www.w3.org/1999/xlink" x="0px" y="0px"
	 viewBox="0 0 103.57 148.65" style="enable-background:new 0 0 103.57 148.65;" xml:space="preserve">
<style type="text/css">
	.st0{fill:#C8D12A;}
	.st1{fill:url(#);}
	.st2{fill:#050504;}
	.st3{fill:#FFFFFF;}
	.st4{fill:none;stroke:#FFFFFF;stroke-width:22.4065;}
	.st5{fill:none;stroke:#FFFFFF;stroke-width:11.3663;}
	.st6{fill:#C8D12A;stroke:#000000;stroke-width:5.1402;stroke-miterlimit:10;}
	.st7{fill:#030405;}
	.st8{fill:#C6CF31;}
	.st9{stroke:#000000;stroke-width:5.1402;stroke-miterlimit:10;}
	.st10{stroke:#FFFFFF;stroke-width:4;stroke-linecap:round;stroke-linejoin:round;stroke-miterlimit:10;}
	.st11{fill:none;stroke:#FFFFFF;stroke-width:4;stroke-linejoin:round;stroke-miterlimit:10;}
	.st12{clip-path:url(#SVGID_00000033349679715835651540000017873560774031184552_);}
	.st13{fill:#C8D12A;stroke:#000000;stroke-width:5.6822;stroke-miterlimit:10;}
	.st14{stroke:#FFFFFF;stroke-width:2.9639;stroke-miterlimit:10;}
	.st15{fill:#00993D;}
	.st16{clip-path:url(#SVGID_00000071519389405738318520000012004606843342274495_);}
	.st17{fill:#C8D12A;stroke:#000000;stroke-width:5.5;stroke-miterlimit:10;}
	.st18{clip-path:url(#SVGID_00000035490522469766243250000006065312758229389712_);}
	.st19{stroke:#FFFFFF;stroke-width:4;stroke-miterlimit:10;}
	.st20{stroke:#000000;stroke-width:2.5698;stroke-miterlimit:10;}
	.st21{fill:#C8D12A;stroke:#000000;stroke-width:2.569;stroke-miterlimit:10;}
	.st22{stroke:#000000;stroke-width:2.569;stroke-miterlimit:10;}
	.st23{stroke:#FFFFFF;stroke-width:1.9992;stroke-linecap:round;stroke-linejoin:round;stroke-miterlimit:10;}
	.st24{clip-path:url(#SVGID_00000113313517585512834800000000211286790840675490_);}
	.st25{fill:#C8D12A;stroke:#000000;stroke-width:2.8287;stroke-miterlimit:10;}
	.st26{stroke:#FFFFFF;stroke-width:1.4755;stroke-miterlimit:10;}
	.st27{clip-path:url(#SVGID_00000182527762436623620660000008995057752366232972_);}
	.st28{clip-path:url(#SVGID_00000083785450118877622210000015517305964820263604_);}
	.st29{clip-path:url(#SVGID_00000065058301773024928290000004065039687186123663_);}
	.st30{clip-path:url(#SVGID_00000056397316782546520910000008265542931356512898_);}
	.st31{fill:#C8D12A;stroke:#000000;stroke-width:2.4552;stroke-miterlimit:10;}
	.st32{stroke:#FFFFFF;stroke-width:1.2719;stroke-miterlimit:10;}
	.st33{fill:#C8D12A;stroke:#000000;stroke-width:2.1112;stroke-miterlimit:10;}
	.st34{stroke:#000000;stroke-width:2.1112;stroke-miterlimit:10;}
	.st35{stroke:#FFFFFF;stroke-width:1.6429;stroke-linecap:round;stroke-linejoin:round;stroke-miterlimit:10;}
	.st36{clip-path:url(#SVGID_00000082358868915245367070000011869927061277899408_);}
	.st37{stroke:#000000;stroke-width:2.1118;stroke-miterlimit:10;}
	.st38{clip-path:url(#SVGID_00000123429885776937117500000011366032173815242661_);}
	.st39{clip-path:url(#SVGID_00000101785154523725003040000011884313229693440387_);}
	.st40{clip-path:url(#SVGID_00000102530516724920933720000004995377570835791752_);}
	.st41{opacity:0.9;fill:#00993D;}
	.st42{opacity:0.9;fill:#FFFFFF;}
</style>
<g>
	<path d="M48.19,30.38c10.46,0.04,19.94,2.24,28.41,6.6c8.47,4.36,14.46,10.17,17.96,17.45c2.43,5.46,3.64,12.3,3.61,20.52
		c-0.02,5.13-0.87,9.74-2.54,13.85c-1.67,4.11-4.76,8.39-9.26,12.86c-4.72,4.58-9.94,8-15.66,10.27c-5.72,2.28-11.47,3.4-17.23,3.38
		c-0.64,0-1.23-0.06-1.76-0.17l-1.92-0.01c-8.22-0.46-15.61-2.62-22.16-6.49c-6.55-3.87-11.74-8.99-15.56-15.36
		c-3.82-6.37-5.93-13.34-6.33-20.93l0.01-2.56c0.06-15.91,7.63-27.58,22.72-35c3.53-1.69,6.79-2.86,9.78-3.49
		C41.35,30.67,44.66,30.36,48.19,30.38z M50.66,54.74c-0.54,0-1.55,0.1-3.04,0.31c-5.35,1.8-9.37,5.36-12.06,10.69
		c-0.97,1.71-1.45,3.41-1.46,5.12c0,1.28,0.04,2.19,0.15,2.72c0.31,3.21,0.94,5.61,1.89,7.22c3.39,5.89,8.62,9.06,15.66,9.51l1.12,0
		c2.99,0.01,5.69-0.83,8.1-2.53c2.41-1.7,4.28-3.75,5.63-6.15c1.34-2.4,2.02-4.5,2.03-6.32c0-1.17-0.05-1.98-0.15-2.4
		c-0.61-8.12-3.85-13.63-9.71-16.54C56.79,55.3,54.07,54.75,50.66,54.74z"/>
</g>
</svg>
