<svg width="190" height="110" viewBox="0 0 190 110" fill="none" xmlns="http://www.w3.org/2000/svg">
<g clip-path="url(#clip0_32_255)">
<path d="M113.129 14.4534L112.404 7.38447L112.369 7.00758L112.749 6.97252L146.929 3.53666L147.309 3.49722L147.349 3.87412L148.07 10.943L148.109 11.3199L147.729 11.3594L134.744 12.661L138.542 49.8024L138.577 50.1749L138.202 50.2144L130.747 50.9638L130.367 51.0032L130.327 50.6263L126.534 13.4893L113.545 14.7908L113.169 14.8303L113.129 14.4534Z" fill="#030404"/>
<path d="M119.102 63.2084L121.419 85.8789L121.432 86.0235L121.348 86.1375L112.877 97.6896L112.78 97.8299L112.607 97.843L90.8331 100.034L90.6651 100.047L90.5413 99.9335L79.9039 90.3008L79.7934 90.2044L79.7801 90.0598L77.4634 67.3893L77.4413 67.1701L77.6226 67.043L96.9077 53.6502L96.9873 53.5932L97.0846 53.5845L106.877 52.6028L107.045 52.5853L107.169 52.6948L118.974 62.9586L119.084 63.0594L119.102 63.2084Z" fill="#030404"/>
<path d="M163.844 95.3012L155.236 96.1689L155.024 96.1865L154.891 96.0199L143.065 80.6769L134.461 98.0753L134.368 98.2638L134.156 98.2857L125.871 99.1183L125.177 99.1885L125.491 98.5705L137.658 74.708L121.68 54.3207L121.26 53.7817L121.94 53.7116L130.487 52.8526L130.703 52.8307L130.831 53.0016L141.942 67.753L149.842 51.0952L149.935 50.898L150.148 50.8761L158.504 50.0391L159.189 49.9689L158.884 50.5825L147.291 73.7394L164.105 94.692L164.538 95.2311L163.844 95.3012Z" fill="#030404"/>
<path d="M177.913 38.6665L179.632 55.5127L179.672 55.8896L179.292 55.9291L171.838 56.6785L171.462 56.7135L171.422 56.341L169.698 39.4904L152.274 13.3972L151.929 12.8757L152.553 12.8143L160.78 11.9861L161.01 11.9641L161.134 12.157L173.116 30.4363L181.087 10.1542L181.171 9.93945L181.405 9.91315L189.372 9.11554L190 9.0498L189.766 9.63267L177.913 38.6665Z" fill="#030404"/>
<path d="M75.8762 56.5032L54.4865 13.612L54.3672 13.3753L54.1019 13.4016L46.9042 14.1247L46.6434 14.151L46.577 14.4008L34.2375 60.6841L34.0961 61.21L34.6443 61.153L42.2266 60.3904L42.4919 60.3641L42.5582 60.1056L45.1357 49.9952L62.7851 48.2203L67.3566 57.612L67.4715 57.8486L67.7368 57.8223L75.5755 57.0335L76.1238 56.9765L75.8806 56.49L75.8762 56.5032ZM47.0722 42.1638L51.4978 24.7478L59.2968 40.9323L47.0722 42.1594V42.1638Z" fill="#030404"/>
<path d="M113.107 43.2374L100.736 26.6016C106.4 23.8494 109.539 18.6123 108.947 12.8319C108.102 4.56652 101.117 -0.788854 92.3318 0.0920222L75.045 1.82748L74.6648 1.86692L74.7046 2.24381L79.2628 46.8267L79.3026 47.2036L79.6828 47.1641L87.1369 46.4147L87.5171 46.3753L87.4774 45.9984L85.7708 29.3056L92.6236 28.6175L103.88 44.539L104.008 44.7187L104.229 44.6968L112.842 43.8335L113.505 43.7677L113.111 43.2374H113.107ZM94.3258 20.8693L85.0015 21.8072L83.6707 8.80437L92.995 7.86652C97.0934 7.45457 100.352 9.91752 100.741 13.7215C101.121 17.451 98.4242 20.4617 94.3258 20.8737V20.8693Z" fill="#030404"/>
<path d="M27.9905 29.6868C24.8028 27.1932 20.6999 26.0582 16.4424 26.4833L0.380221 28.1004L0 28.1398L0.0397906 28.5167L4.59802 73.0996L4.63781 73.4765L5.01803 73.4371L12.4721 72.6876L12.8524 72.6482L12.8126 72.2713L11.2828 57.2964L19.5151 56.4681C28.2646 55.5873 34.4454 48.2992 33.5877 39.8761C33.1721 35.796 31.1826 32.1805 27.9993 29.6868H27.9905ZM18.5822 48.6629L10.4782 49.4781L9.01035 35.1343L17.1144 34.3191C21.4029 33.8896 24.9531 36.6331 25.3687 40.7C25.7887 44.8064 22.8707 48.2291 18.5822 48.6629Z" fill="#030404"/>
<path d="M66.3884 83.153C69.0101 81.5096 71.371 78.2797 70.8891 73.5904C70.1685 66.5478 63.8108 62.0163 55.7731 62.8271L37.8452 64.6283L37.465 64.6677L37.5048 65.0446L42.0631 109.627L42.1028 110.004L42.4831 109.965L61.1802 108.085C69.8104 107.217 75.5137 101.047 74.7311 93.4123C74.1298 87.5311 70.0491 84.2968 66.3884 83.1574V83.153ZM46.4135 71.0267L55.866 70.0757C59.5797 69.7032 62.396 71.6709 62.7232 74.8613C63.0592 78.1307 60.6983 80.6681 56.9845 81.045L47.532 81.996L46.4091 71.0267H46.4135ZM59.8008 100.963L49.579 101.989L48.2439 88.9203L58.4656 87.8948C62.7807 87.4609 66.07 89.8319 66.4635 93.6621C66.857 97.5275 64.1203 100.529 59.8052 100.963H59.8008Z" fill="#030404"/>
</g>
<defs>
<clipPath id="clip0_32_255">
<rect width="190" height="110" fill="white"/>
</clipPath>
</defs>
</svg>
