<svg width="375" height="41" viewBox="0 0 375 41" fill="none" xmlns="http://www.w3.org/2000/svg">
<rect width="454" height="41" transform="translate(-40)" fill="#030404"/>
<path d="M-38.894 25V15.76H-37.368V25H-38.894ZM-38.488 25V23.684H-33.21V25H-38.488ZM-31.853 25V15.76H-30.299V25H-31.853ZM-24.7472 25.182C-25.3539 25.182 -25.8952 25.1213 -26.3712 25C-26.8379 24.8693 -27.2346 24.678 -27.5612 24.426C-27.8786 24.174 -28.1212 23.866 -28.2892 23.502C-28.4479 23.1287 -28.5226 22.6993 -28.5132 22.214L-27.1412 21.85C-27.1599 22.326 -27.0712 22.718 -26.8752 23.026C-26.6792 23.334 -26.3899 23.5673 -26.0072 23.726C-25.6246 23.8753 -25.1812 23.95 -24.6772 23.95C-24.2012 23.95 -23.7952 23.8893 -23.4592 23.768C-23.1232 23.6467 -22.8712 23.4833 -22.7032 23.278C-22.5259 23.0633 -22.4372 22.8207 -22.4372 22.55C-22.4372 22.242 -22.5446 21.9993 -22.7592 21.822C-22.9646 21.6353 -23.2399 21.4907 -23.5852 21.388C-23.9306 21.276 -24.3179 21.1733 -24.7472 21.08C-25.1859 20.9773 -25.6199 20.8653 -26.0492 20.744C-26.4692 20.6227 -26.8566 20.464 -27.2112 20.268C-27.5566 20.072 -27.8319 19.8153 -28.0372 19.498C-28.2426 19.1807 -28.3452 18.7793 -28.3452 18.294C-28.3452 17.734 -28.2052 17.2533 -27.9252 16.852C-27.6452 16.4507 -27.2486 16.138 -26.7352 15.914C-26.2219 15.69 -25.6059 15.578 -24.8872 15.578C-24.1872 15.578 -23.5712 15.69 -23.0392 15.914C-22.4979 16.1287 -22.0732 16.446 -21.7652 16.866C-21.4572 17.2767 -21.2986 17.7853 -21.2892 18.392L-22.6892 18.742C-22.6892 18.4247 -22.7452 18.1447 -22.8572 17.902C-22.9599 17.6593 -23.1092 17.4587 -23.3052 17.3C-23.4919 17.132 -23.7252 17.0107 -24.0052 16.936C-24.2759 16.852 -24.5792 16.81 -24.9152 16.81C-25.3166 16.81 -25.6666 16.8707 -25.9652 16.992C-26.2546 17.104 -26.4832 17.2627 -26.6512 17.468C-26.8099 17.664 -26.8892 17.902 -26.8892 18.182C-26.8892 18.5087 -26.7726 18.77 -26.5392 18.966C-26.2966 19.1527 -25.9839 19.302 -25.6012 19.414C-25.2092 19.526 -24.7892 19.6333 -24.3412 19.736C-23.9399 19.8293 -23.5432 19.9367 -23.1512 20.058C-22.7499 20.17 -22.3859 20.324 -22.0592 20.52C-21.7232 20.716 -21.4572 20.9727 -21.2612 21.29C-21.0652 21.6073 -20.9672 22.0133 -20.9672 22.508C-20.9672 23.0493 -21.1072 23.5207 -21.3872 23.922C-21.6672 24.3233 -22.0919 24.636 -22.6612 24.86C-23.2212 25.0747 -23.9166 25.182 -24.7472 25.182ZM-17.4106 25V15.76H-15.8706V25H-17.4106ZM-20.1686 17.076V15.76H-13.0986V17.076H-20.1686ZM-8.17844 25.182C-8.85044 25.182 -9.44777 25.0747 -9.97044 24.86C-10.4838 24.636 -10.9178 24.3187 -11.2724 23.908C-11.6271 23.4973 -11.8978 22.998 -12.0844 22.41C-12.2711 21.822 -12.3644 21.1593 -12.3644 20.422C-12.3644 19.3393 -12.1824 18.4433 -11.8184 17.734C-11.4544 17.0153 -10.9551 16.4787 -10.3204 16.124C-9.68577 15.76 -8.96244 15.578 -8.15044 15.578C-7.51577 15.578 -6.94177 15.6853 -6.42844 15.9C-5.9151 16.1053 -5.47644 16.418 -5.11244 16.838C-4.74844 17.2487 -4.46844 17.7527 -4.27244 18.35C-4.07644 18.9473 -3.97844 19.6333 -3.97844 20.408C-3.97844 21.1547 -4.07177 21.8267 -4.25844 22.424C-4.4451 23.012 -4.72044 23.5113 -5.08444 23.922C-5.4391 24.3327 -5.87777 24.6453 -6.40044 24.86C-6.9231 25.0747 -7.51577 25.182 -8.17844 25.182ZM-8.16444 23.908C-7.88444 23.908 -7.59044 23.8613 -7.28244 23.768C-6.97444 23.6653 -6.68977 23.4927 -6.42844 23.25C-6.15777 22.998 -5.9431 22.648 -5.78444 22.2C-5.61644 21.7427 -5.53244 21.164 -5.53244 20.464C-5.53244 19.624 -5.65377 18.9427 -5.89644 18.42C-6.12977 17.8973 -6.4471 17.51 -6.84844 17.258C-7.24044 17.006 -7.6791 16.88 -8.16444 16.88C-8.42577 16.88 -8.71044 16.9313 -9.01844 17.034C-9.3171 17.1273 -9.60644 17.3 -9.88644 17.552C-10.1571 17.7947 -10.3764 18.1493 -10.5444 18.616C-10.7124 19.0733 -10.7964 19.6707 -10.7964 20.408C-10.7964 21.0987 -10.7218 21.668 -10.5724 22.116C-10.4231 22.564 -10.2224 22.9233 -9.97044 23.194C-9.7091 23.4553 -9.42444 23.642 -9.11644 23.754C-8.7991 23.8567 -8.48177 23.908 -8.16444 23.908ZM2.23898 22.228V20.968H4.29698C4.48365 20.968 4.68898 20.9633 4.91298 20.954C5.14632 20.9447 5.37498 20.9073 5.59898 20.842C5.83232 20.7767 6.04698 20.674 6.24298 20.534C6.43898 20.394 6.59298 20.198 6.70498 19.946C6.82632 19.6847 6.88698 19.3533 6.88698 18.952C6.88698 18.56 6.82632 18.2427 6.70498 18C6.58365 17.7573 6.42965 17.566 6.24298 17.426C6.05632 17.286 5.85098 17.188 5.62698 17.132C5.41232 17.0667 5.21165 17.0293 5.02498 17.02C4.83832 17.0013 4.68432 16.992 4.56298 16.992H2.23898V15.76H4.67498C5.22565 15.76 5.72965 15.8253 6.18698 15.956C6.65365 16.0867 7.05498 16.2873 7.39098 16.558C7.72698 16.8193 7.98365 17.1553 8.16098 17.566C8.34765 17.9673 8.44098 18.4433 8.44098 18.994C8.44098 19.694 8.28232 20.2867 7.96498 20.772C7.65698 21.248 7.18565 21.612 6.55098 21.864C5.92565 22.1067 5.14165 22.228 4.19898 22.228H2.23898ZM1.31498 25V15.76H2.84098V25H1.31498ZM8.65241 25L11.8724 15.76H14.0984L17.3184 25H15.6664L13.0764 17.006H12.9084L10.3044 25H8.65241ZM10.2764 23.012V21.906H15.9044V23.012H10.2764ZM18.7603 25V15.76H22.1483C22.6056 15.76 23.0256 15.7973 23.4083 15.872C23.791 15.9373 24.1363 16.0447 24.4443 16.194C24.7616 16.334 25.0276 16.5113 25.2423 16.726C25.4663 16.9407 25.6343 17.1927 25.7463 17.482C25.8676 17.7713 25.9283 18.098 25.9283 18.462C25.9283 18.7887 25.877 19.0873 25.7743 19.358C25.681 19.6193 25.5363 19.8527 25.3403 20.058C25.1443 20.2633 24.897 20.4313 24.5983 20.562C24.2996 20.6833 23.9496 20.7673 23.5483 20.814V20.996C23.9216 21.0427 24.239 21.1407 24.5003 21.29C24.771 21.43 24.995 21.6353 25.1723 21.906C25.359 22.1767 25.513 22.5313 25.6343 22.97L26.2223 25H24.5423L24.0943 23.18C24.0103 22.788 23.8703 22.4753 23.6743 22.242C23.4783 22.0087 23.245 21.8453 22.9743 21.752C22.7036 21.6493 22.4003 21.598 22.0643 21.598H20.2863V25H18.7603ZM20.2863 20.394H21.7423C21.9196 20.394 22.1203 20.3893 22.3443 20.38C22.5776 20.3613 22.811 20.3287 23.0443 20.282C23.2776 20.226 23.4923 20.1373 23.6883 20.016C23.8843 19.8947 24.043 19.7313 24.1643 19.526C24.295 19.3113 24.3603 19.0313 24.3603 18.686C24.3603 18.35 24.2996 18.0747 24.1783 17.86C24.057 17.6453 23.8983 17.4773 23.7023 17.356C23.5156 17.2347 23.315 17.1507 23.1003 17.104C22.8856 17.048 22.6803 17.0153 22.4843 17.006C22.2883 16.9967 22.1296 16.992 22.0083 16.992H20.2863V20.394ZM27.1778 25L30.3978 15.76H32.6238L35.8438 25H34.1918L31.6018 17.006H31.4338L28.8298 25H27.1778ZM28.8018 23.012V21.906H34.4298V23.012H28.8018ZM42.65 25V15.76H44.19V25H42.65ZM39.892 17.076V15.76H46.962V17.076H39.892ZM51.8821 25.182C51.2101 25.182 50.6128 25.0747 50.0901 24.86C49.5768 24.636 49.1428 24.3187 48.7881 23.908C48.4334 23.4973 48.1628 22.998 47.9761 22.41C47.7894 21.822 47.6961 21.1593 47.6961 20.422C47.6961 19.3393 47.8781 18.4433 48.2421 17.734C48.6061 17.0153 49.1054 16.4787 49.7401 16.124C50.3748 15.76 51.0981 15.578 51.9101 15.578C52.5448 15.578 53.1188 15.6853 53.6321 15.9C54.1454 16.1053 54.5841 16.418 54.9481 16.838C55.3121 17.2487 55.5921 17.7527 55.7881 18.35C55.9841 18.9473 56.0821 19.6333 56.0821 20.408C56.0821 21.1547 55.9888 21.8267 55.8021 22.424C55.6154 23.012 55.3401 23.5113 54.9761 23.922C54.6214 24.3327 54.1828 24.6453 53.6601 24.86C53.1374 25.0747 52.5448 25.182 51.8821 25.182ZM51.8961 23.908C52.1761 23.908 52.4701 23.8613 52.7781 23.768C53.0861 23.6653 53.3708 23.4927 53.6321 23.25C53.9028 22.998 54.1174 22.648 54.2761 22.2C54.4441 21.7427 54.5281 21.164 54.5281 20.464C54.5281 19.624 54.4068 18.9427 54.1641 18.42C53.9308 17.8973 53.6134 17.51 53.2121 17.258C52.8201 17.006 52.3814 16.88 51.8961 16.88C51.6348 16.88 51.3501 16.9313 51.0421 17.034C50.7434 17.1273 50.4541 17.3 50.1741 17.552C49.9034 17.7947 49.6841 18.1493 49.5161 18.616C49.3481 19.0733 49.2641 19.6707 49.2641 20.408C49.2641 21.0987 49.3388 21.668 49.4881 22.116C49.6374 22.564 49.8381 22.9233 50.0901 23.194C50.3514 23.4553 50.6361 23.642 50.9441 23.754C51.2614 23.8567 51.5788 23.908 51.8961 23.908ZM57.9712 25V15.76H60.3092L63.1792 23.334H63.2492L66.0912 15.76H68.3312V25H66.8752L66.9732 17.3H66.8612L63.8372 25H62.4232L59.4412 17.3H59.3292L59.4132 25H57.9712ZM69.7794 25L72.9994 15.76H75.2254L78.4454 25H76.7934L74.2034 17.006H74.0354L71.4314 25H69.7794ZM71.4034 23.012V21.906H77.0314V23.012H71.4034ZM79.8873 25V15.76H83.2753C83.7326 15.76 84.1526 15.7973 84.5353 15.872C84.9179 15.9373 85.2633 16.0447 85.5713 16.194C85.8886 16.334 86.1546 16.5113 86.3693 16.726C86.5933 16.9407 86.7613 17.1927 86.8733 17.482C86.9946 17.7713 87.0553 18.098 87.0553 18.462C87.0553 18.7887 87.0039 19.0873 86.9013 19.358C86.8079 19.6193 86.6633 19.8527 86.4673 20.058C86.2713 20.2633 86.0239 20.4313 85.7253 20.562C85.4266 20.6833 85.0766 20.7673 84.6753 20.814V20.996C85.0486 21.0427 85.3659 21.1407 85.6273 21.29C85.8979 21.43 86.1219 21.6353 86.2993 21.906C86.4859 22.1767 86.6399 22.5313 86.7613 22.97L87.3493 25H85.6693L85.2213 23.18C85.1373 22.788 84.9973 22.4753 84.8013 22.242C84.6053 22.0087 84.3719 21.8453 84.1013 21.752C83.8306 21.6493 83.5273 21.598 83.1913 21.598H81.4133V25H79.8873ZM81.4133 20.394H82.8693C83.0466 20.394 83.2473 20.3893 83.4713 20.38C83.7046 20.3613 83.9379 20.3287 84.1713 20.282C84.4046 20.226 84.6193 20.1373 84.8153 20.016C85.0113 19.8947 85.1699 19.7313 85.2913 19.526C85.4219 19.3113 85.4873 19.0313 85.4873 18.686C85.4873 18.35 85.4266 18.0747 85.3053 17.86C85.1839 17.6453 85.0253 17.4773 84.8293 17.356C84.6426 17.2347 84.4419 17.1507 84.2273 17.104C84.0126 17.048 83.8073 17.0153 83.6113 17.006C83.4153 16.9967 83.2566 16.992 83.1353 16.992H81.4133V20.394Z" fill="white"/>
<g clip-path="url(#clip0_32_277)">
<path d="M98 17.5L97.1255 20.5043L98 23.5L95.0043 22.6255L92 23.5L92.8745 20.5043L92 17.5L95.0043 18.3745L98 17.5Z" fill="white"/>
</g>
<path d="M104.59 22.452V20.716H106.41C106.569 20.716 106.737 20.7113 106.914 20.702C107.101 20.6927 107.283 20.6647 107.46 20.618C107.637 20.562 107.796 20.478 107.936 20.366C108.085 20.2447 108.202 20.0813 108.286 19.876C108.37 19.6707 108.412 19.4047 108.412 19.078C108.412 18.7607 108.365 18.504 108.272 18.308C108.188 18.1027 108.071 17.9487 107.922 17.846C107.782 17.734 107.633 17.6547 107.474 17.608C107.315 17.552 107.161 17.5193 107.012 17.51C106.872 17.5007 106.755 17.496 106.662 17.496H104.59V15.76H106.774C107.371 15.76 107.908 15.83 108.384 15.97C108.86 16.11 109.271 16.32 109.616 16.6C109.961 16.8707 110.223 17.216 110.4 17.636C110.587 18.056 110.68 18.5507 110.68 19.12C110.68 19.848 110.512 20.4593 110.176 20.954C109.849 21.4487 109.364 21.822 108.72 22.074C108.076 22.326 107.273 22.452 106.312 22.452H104.59ZM102.938 25V15.76H105.192V25H102.938ZM110.618 25L113.754 15.76H117.03L120.152 25H117.688L115.504 17.538H115.294L113.082 25H110.618ZM112.466 23.278V21.752H118.64V23.278H112.466ZM121.272 25V15.76H125.192C125.649 15.76 126.074 15.7973 126.466 15.872C126.867 15.9373 127.231 16.04 127.558 16.18C127.885 16.32 128.169 16.4973 128.412 16.712C128.655 16.9267 128.841 17.1833 128.972 17.482C129.103 17.7713 129.168 18.1073 129.168 18.49C129.168 18.8073 129.117 19.0967 129.014 19.358C128.911 19.6193 128.753 19.8527 128.538 20.058C128.333 20.254 128.071 20.4127 127.754 20.534C127.437 20.6553 127.068 20.744 126.648 20.8V20.996C127.18 21.052 127.591 21.1733 127.88 21.36C128.179 21.5373 128.407 21.78 128.566 22.088C128.734 22.3867 128.874 22.7413 128.986 23.152L129.518 25H127.012L126.606 23.292C126.531 22.928 126.419 22.6433 126.27 22.438C126.13 22.2327 125.948 22.088 125.724 22.004C125.5 21.92 125.22 21.878 124.884 21.878H123.526V25H121.272ZM123.526 20.212H124.744C124.893 20.212 125.057 20.2073 125.234 20.198C125.421 20.1887 125.603 20.1653 125.78 20.128C125.967 20.0813 126.135 20.0113 126.284 19.918C126.443 19.8153 126.569 19.68 126.662 19.512C126.765 19.344 126.816 19.12 126.816 18.84C126.816 18.5693 126.769 18.35 126.676 18.182C126.583 18.0047 126.461 17.8693 126.312 17.776C126.163 17.6827 126.009 17.6173 125.85 17.58C125.701 17.5333 125.551 17.5053 125.402 17.496C125.262 17.4867 125.155 17.482 125.08 17.482H123.526V20.212ZM132.747 25V15.76H135.015V25H132.747ZM130.087 17.636V15.76H137.675V17.636H130.087ZM141.648 25V22.13L138.232 15.76H140.948L142.754 20.114H142.824L144.63 15.76H147.318L143.916 22.102V25H141.648ZM151.405 25V15.76H155.367C155.945 15.76 156.463 15.8113 156.921 15.914C157.378 16.0073 157.77 16.1567 158.097 16.362C158.423 16.558 158.671 16.8147 158.839 17.132C159.016 17.44 159.105 17.8087 159.105 18.238C159.105 18.602 159.025 18.9193 158.867 19.19C158.717 19.4607 158.475 19.6847 158.139 19.862C157.812 20.03 157.378 20.1373 156.837 20.184V20.422C157.742 20.4687 158.409 20.6833 158.839 21.066C159.268 21.4393 159.483 21.9433 159.483 22.578C159.483 23.1193 159.338 23.5673 159.049 23.922C158.759 24.2767 158.335 24.5473 157.775 24.734C157.224 24.9113 156.538 25 155.717 25H151.405ZM153.561 23.208H155.661C155.866 23.208 156.062 23.194 156.249 23.166C156.445 23.138 156.617 23.0913 156.767 23.026C156.925 22.9513 157.047 22.8487 157.131 22.718C157.224 22.578 157.271 22.4007 157.271 22.186C157.271 21.9993 157.238 21.8407 157.173 21.71C157.107 21.5793 157.009 21.472 156.879 21.388C156.757 21.2947 156.613 21.2247 156.445 21.178C156.286 21.122 156.109 21.0847 155.913 21.066C155.717 21.038 155.511 21.024 155.297 21.024H153.561V23.208ZM153.561 19.638H154.961C155.231 19.638 155.483 19.624 155.717 19.596C155.95 19.5587 156.155 19.5027 156.333 19.428C156.51 19.3533 156.65 19.246 156.753 19.106C156.855 18.9567 156.907 18.77 156.907 18.546C156.907 18.3407 156.86 18.1727 156.767 18.042C156.673 17.902 156.547 17.7993 156.389 17.734C156.239 17.6593 156.062 17.608 155.857 17.58C155.661 17.5427 155.46 17.524 155.255 17.524H153.561V19.638ZM165.063 25.196C164.391 25.196 163.784 25.0933 163.243 24.888C162.701 24.6827 162.239 24.3793 161.857 23.978C161.474 23.5767 161.175 23.082 160.961 22.494C160.755 21.8967 160.653 21.206 160.653 20.422C160.653 19.3207 160.844 18.4153 161.227 17.706C161.619 16.9873 162.155 16.4507 162.837 16.096C163.518 15.7413 164.288 15.564 165.147 15.564C165.8 15.564 166.397 15.6667 166.939 15.872C167.48 16.0773 167.942 16.3807 168.325 16.782C168.707 17.1833 169.001 17.6873 169.207 18.294C169.421 18.8913 169.529 19.582 169.529 20.366C169.529 21.178 169.417 21.8873 169.193 22.494C168.978 23.0913 168.675 23.5907 168.283 23.992C167.891 24.3933 167.419 24.6967 166.869 24.902C166.318 25.098 165.716 25.196 165.063 25.196ZM165.133 23.418C165.385 23.418 165.632 23.376 165.875 23.292C166.117 23.1987 166.341 23.0447 166.547 22.83C166.752 22.6153 166.915 22.3213 167.037 21.948C167.158 21.5653 167.219 21.0847 167.219 20.506C167.219 19.806 167.13 19.2273 166.953 18.77C166.775 18.3127 166.523 17.972 166.197 17.748C165.879 17.524 165.506 17.412 165.077 17.412C164.843 17.412 164.601 17.454 164.349 17.538C164.106 17.622 163.877 17.7713 163.663 17.986C163.457 18.2007 163.289 18.504 163.159 18.896C163.028 19.2787 162.963 19.778 162.963 20.394C162.963 20.9727 163.023 21.4533 163.145 21.836C163.266 22.2187 163.425 22.5267 163.621 22.76C163.826 22.9933 164.059 23.1613 164.321 23.264C164.582 23.3667 164.853 23.418 165.133 23.418ZM169.708 25L172.886 20.366L169.792 15.76H172.424L174.426 19.176H174.51L176.526 15.76H179.186L176.05 20.324L179.27 25H176.624L174.51 21.472H174.426L172.34 25H169.708Z" fill="white"/>
<g clip-path="url(#clip1_32_277)">
<path d="M190 17.5L189.126 20.5043L190 23.5L187.004 22.6255L184 23.5L184.874 20.5043L184 17.5L187.004 18.3745L190 17.5Z" fill="white"/>
</g>
<path d="M195.106 25V15.76H196.632V25H195.106ZM195.512 25V23.684H200.79V25H195.512ZM202.147 25V15.76H203.701V25H202.147ZM209.253 25.182C208.646 25.182 208.105 25.1213 207.629 25C207.162 24.8693 206.765 24.678 206.439 24.426C206.121 24.174 205.879 23.866 205.711 23.502C205.552 23.1287 205.477 22.6993 205.487 22.214L206.859 21.85C206.84 22.326 206.929 22.718 207.125 23.026C207.321 23.334 207.61 23.5673 207.993 23.726C208.375 23.8753 208.819 23.95 209.323 23.95C209.799 23.95 210.205 23.8893 210.541 23.768C210.877 23.6467 211.129 23.4833 211.297 23.278C211.474 23.0633 211.563 22.8207 211.563 22.55C211.563 22.242 211.455 21.9993 211.241 21.822C211.035 21.6353 210.76 21.4907 210.415 21.388C210.069 21.276 209.682 21.1733 209.253 21.08C208.814 20.9773 208.38 20.8653 207.951 20.744C207.531 20.6227 207.143 20.464 206.789 20.268C206.443 20.072 206.168 19.8153 205.963 19.498C205.757 19.1807 205.655 18.7793 205.655 18.294C205.655 17.734 205.795 17.2533 206.075 16.852C206.355 16.4507 206.751 16.138 207.265 15.914C207.778 15.69 208.394 15.578 209.113 15.578C209.813 15.578 210.429 15.69 210.961 15.914C211.502 16.1287 211.927 16.446 212.235 16.866C212.543 17.2767 212.701 17.7853 212.711 18.392L211.311 18.742C211.311 18.4247 211.255 18.1447 211.143 17.902C211.04 17.6593 210.891 17.4587 210.695 17.3C210.508 17.132 210.275 17.0107 209.995 16.936C209.724 16.852 209.421 16.81 209.085 16.81C208.683 16.81 208.333 16.8707 208.035 16.992C207.745 17.104 207.517 17.2627 207.349 17.468C207.19 17.664 207.111 17.902 207.111 18.182C207.111 18.5087 207.227 18.77 207.461 18.966C207.703 19.1527 208.016 19.302 208.399 19.414C208.791 19.526 209.211 19.6333 209.659 19.736C210.06 19.8293 210.457 19.9367 210.849 20.058C211.25 20.17 211.614 20.324 211.941 20.52C212.277 20.716 212.543 20.9727 212.739 21.29C212.935 21.6073 213.033 22.0133 213.033 22.508C213.033 23.0493 212.893 23.5207 212.613 23.922C212.333 24.3233 211.908 24.636 211.339 24.86C210.779 25.0747 210.083 25.182 209.253 25.182ZM216.589 25V15.76H218.129V25H216.589ZM213.831 17.076V15.76H220.901V17.076H213.831ZM225.822 25.182C225.15 25.182 224.552 25.0747 224.03 24.86C223.516 24.636 223.082 24.3187 222.728 23.908C222.373 23.4973 222.102 22.998 221.916 22.41C221.729 21.822 221.636 21.1593 221.636 20.422C221.636 19.3393 221.818 18.4433 222.182 17.734C222.546 17.0153 223.045 16.4787 223.68 16.124C224.314 15.76 225.038 15.578 225.85 15.578C226.484 15.578 227.058 15.6853 227.572 15.9C228.085 16.1053 228.524 16.418 228.888 16.838C229.252 17.2487 229.532 17.7527 229.728 18.35C229.924 18.9473 230.022 19.6333 230.022 20.408C230.022 21.1547 229.928 21.8267 229.742 22.424C229.555 23.012 229.28 23.5113 228.916 23.922C228.561 24.3327 228.122 24.6453 227.6 24.86C227.077 25.0747 226.484 25.182 225.822 25.182ZM225.836 23.908C226.116 23.908 226.41 23.8613 226.718 23.768C227.026 23.6653 227.31 23.4927 227.572 23.25C227.842 22.998 228.057 22.648 228.216 22.2C228.384 21.7427 228.468 21.164 228.468 20.464C228.468 19.624 228.346 18.9427 228.104 18.42C227.87 17.8973 227.553 17.51 227.152 17.258C226.76 17.006 226.321 16.88 225.836 16.88C225.574 16.88 225.29 16.9313 224.982 17.034C224.683 17.1273 224.394 17.3 224.114 17.552C223.843 17.7947 223.624 18.1493 223.456 18.616C223.288 19.0733 223.204 19.6707 223.204 20.408C223.204 21.0987 223.278 21.668 223.428 22.116C223.577 22.564 223.778 22.9233 224.03 23.194C224.291 23.4553 224.576 23.642 224.884 23.754C225.201 23.8567 225.518 23.908 225.836 23.908ZM236.239 22.228V20.968H238.297C238.484 20.968 238.689 20.9633 238.913 20.954C239.146 20.9447 239.375 20.9073 239.599 20.842C239.832 20.7767 240.047 20.674 240.243 20.534C240.439 20.394 240.593 20.198 240.705 19.946C240.826 19.6847 240.887 19.3533 240.887 18.952C240.887 18.56 240.826 18.2427 240.705 18C240.584 17.7573 240.43 17.566 240.243 17.426C240.056 17.286 239.851 17.188 239.627 17.132C239.412 17.0667 239.212 17.0293 239.025 17.02C238.838 17.0013 238.684 16.992 238.563 16.992H236.239V15.76H238.675C239.226 15.76 239.73 15.8253 240.187 15.956C240.654 16.0867 241.055 16.2873 241.391 16.558C241.727 16.8193 241.984 17.1553 242.161 17.566C242.348 17.9673 242.441 18.4433 242.441 18.994C242.441 19.694 242.282 20.2867 241.965 20.772C241.657 21.248 241.186 21.612 240.551 21.864C239.926 22.1067 239.142 22.228 238.199 22.228H236.239ZM235.315 25V15.76H236.841V25H235.315ZM242.652 25L245.872 15.76H248.098L251.318 25H249.666L247.076 17.006H246.908L244.304 25H242.652ZM244.276 23.012V21.906H249.904V23.012H244.276ZM252.76 25V15.76H256.148C256.606 15.76 257.026 15.7973 257.408 15.872C257.791 15.9373 258.136 16.0447 258.444 16.194C258.762 16.334 259.028 16.5113 259.242 16.726C259.466 16.9407 259.634 17.1927 259.746 17.482C259.868 17.7713 259.928 18.098 259.928 18.462C259.928 18.7887 259.877 19.0873 259.774 19.358C259.681 19.6193 259.536 19.8527 259.34 20.058C259.144 20.2633 258.897 20.4313 258.598 20.562C258.3 20.6833 257.95 20.7673 257.548 20.814V20.996C257.922 21.0427 258.239 21.1407 258.5 21.29C258.771 21.43 258.995 21.6353 259.172 21.906C259.359 22.1767 259.513 22.5313 259.634 22.97L260.222 25H258.542L258.094 23.18C258.01 22.788 257.87 22.4753 257.674 22.242C257.478 22.0087 257.245 21.8453 256.974 21.752C256.704 21.6493 256.4 21.598 256.064 21.598H254.286V25H252.76ZM254.286 20.394H255.742C255.92 20.394 256.12 20.3893 256.344 20.38C256.578 20.3613 256.811 20.3287 257.044 20.282C257.278 20.226 257.492 20.1373 257.688 20.016C257.884 19.8947 258.043 19.7313 258.164 19.526C258.295 19.3113 258.36 19.0313 258.36 18.686C258.36 18.35 258.3 18.0747 258.178 17.86C258.057 17.6453 257.898 17.4773 257.702 17.356C257.516 17.2347 257.315 17.1507 257.1 17.104C256.886 17.048 256.68 17.0153 256.484 17.006C256.288 16.9967 256.13 16.992 256.008 16.992H254.286V20.394ZM261.178 25L264.398 15.76H266.624L269.844 25H268.192L265.602 17.006H265.434L262.83 25H261.178ZM262.802 23.012V21.906H268.43V23.012H262.802ZM276.65 25V15.76H278.19V25H276.65ZM273.892 17.076V15.76H280.962V17.076H273.892ZM285.882 25.182C285.21 25.182 284.613 25.0747 284.09 24.86C283.577 24.636 283.143 24.3187 282.788 23.908C282.433 23.4973 282.163 22.998 281.976 22.41C281.789 21.822 281.696 21.1593 281.696 20.422C281.696 19.3393 281.878 18.4433 282.242 17.734C282.606 17.0153 283.105 16.4787 283.74 16.124C284.375 15.76 285.098 15.578 285.91 15.578C286.545 15.578 287.119 15.6853 287.632 15.9C288.145 16.1053 288.584 16.418 288.948 16.838C289.312 17.2487 289.592 17.7527 289.788 18.35C289.984 18.9473 290.082 19.6333 290.082 20.408C290.082 21.1547 289.989 21.8267 289.802 22.424C289.615 23.012 289.34 23.5113 288.976 23.922C288.621 24.3327 288.183 24.6453 287.66 24.86C287.137 25.0747 286.545 25.182 285.882 25.182ZM285.896 23.908C286.176 23.908 286.47 23.8613 286.778 23.768C287.086 23.6653 287.371 23.4927 287.632 23.25C287.903 22.998 288.117 22.648 288.276 22.2C288.444 21.7427 288.528 21.164 288.528 20.464C288.528 19.624 288.407 18.9427 288.164 18.42C287.931 17.8973 287.613 17.51 287.212 17.258C286.82 17.006 286.381 16.88 285.896 16.88C285.635 16.88 285.35 16.9313 285.042 17.034C284.743 17.1273 284.454 17.3 284.174 17.552C283.903 17.7947 283.684 18.1493 283.516 18.616C283.348 19.0733 283.264 19.6707 283.264 20.408C283.264 21.0987 283.339 21.668 283.488 22.116C283.637 22.564 283.838 22.9233 284.09 23.194C284.351 23.4553 284.636 23.642 284.944 23.754C285.261 23.8567 285.579 23.908 285.896 23.908ZM291.971 25V15.76H294.309L297.179 23.334H297.249L300.091 15.76H302.331V25H300.875L300.973 17.3H300.861L297.837 25H296.423L293.441 17.3H293.329L293.413 25H291.971ZM303.779 25L306.999 15.76H309.225L312.445 25H310.793L308.203 17.006H308.035L305.431 25H303.779ZM305.403 23.012V21.906H311.031V23.012H305.403ZM313.887 25V15.76H317.275C317.733 15.76 318.153 15.7973 318.535 15.872C318.918 15.9373 319.263 16.0447 319.571 16.194C319.889 16.334 320.155 16.5113 320.369 16.726C320.593 16.9407 320.761 17.1927 320.873 17.482C320.995 17.7713 321.055 18.098 321.055 18.462C321.055 18.7887 321.004 19.0873 320.901 19.358C320.808 19.6193 320.663 19.8527 320.467 20.058C320.271 20.2633 320.024 20.4313 319.725 20.562C319.427 20.6833 319.077 20.7673 318.675 20.814V20.996C319.049 21.0427 319.366 21.1407 319.627 21.29C319.898 21.43 320.122 21.6353 320.299 21.906C320.486 22.1767 320.64 22.5313 320.761 22.97L321.349 25H319.669L319.221 23.18C319.137 22.788 318.997 22.4753 318.801 22.242C318.605 22.0087 318.372 21.8453 318.101 21.752C317.831 21.6493 317.527 21.598 317.191 21.598H315.413V25H313.887ZM315.413 20.394H316.869C317.047 20.394 317.247 20.3893 317.471 20.38C317.705 20.3613 317.938 20.3287 318.171 20.282C318.405 20.226 318.619 20.1373 318.815 20.016C319.011 19.8947 319.17 19.7313 319.291 19.526C319.422 19.3113 319.487 19.0313 319.487 18.686C319.487 18.35 319.427 18.0747 319.305 17.86C319.184 17.6453 319.025 17.4773 318.829 17.356C318.643 17.2347 318.442 17.1507 318.227 17.104C318.013 17.048 317.807 17.0153 317.611 17.006C317.415 16.9967 317.257 16.992 317.135 16.992H315.413V20.394Z" fill="white"/>
<g clip-path="url(#clip2_32_277)">
<path d="M332 17.5L331.126 20.5043L332 23.5L329.004 22.6255L326 23.5L326.874 20.5043L326 17.5L329.004 18.3745L332 17.5Z" fill="white"/>
</g>
<path d="M338.59 22.452V20.716H340.41C340.569 20.716 340.737 20.7113 340.914 20.702C341.101 20.6927 341.283 20.6647 341.46 20.618C341.637 20.562 341.796 20.478 341.936 20.366C342.085 20.2447 342.202 20.0813 342.286 19.876C342.37 19.6707 342.412 19.4047 342.412 19.078C342.412 18.7607 342.365 18.504 342.272 18.308C342.188 18.1027 342.071 17.9487 341.922 17.846C341.782 17.734 341.633 17.6547 341.474 17.608C341.315 17.552 341.161 17.5193 341.012 17.51C340.872 17.5007 340.755 17.496 340.662 17.496H338.59V15.76H340.774C341.371 15.76 341.908 15.83 342.384 15.97C342.86 16.11 343.271 16.32 343.616 16.6C343.961 16.8707 344.223 17.216 344.4 17.636C344.587 18.056 344.68 18.5507 344.68 19.12C344.68 19.848 344.512 20.4593 344.176 20.954C343.849 21.4487 343.364 21.822 342.72 22.074C342.076 22.326 341.273 22.452 340.312 22.452H338.59ZM336.938 25V15.76H339.192V25H336.938ZM344.618 25L347.754 15.76H351.03L354.152 25H351.688L349.504 17.538H349.294L347.082 25H344.618ZM346.466 23.278V21.752H352.64V23.278H346.466ZM355.272 25V15.76H359.192C359.649 15.76 360.074 15.7973 360.466 15.872C360.867 15.9373 361.231 16.04 361.558 16.18C361.885 16.32 362.169 16.4973 362.412 16.712C362.655 16.9267 362.841 17.1833 362.972 17.482C363.103 17.7713 363.168 18.1073 363.168 18.49C363.168 18.8073 363.117 19.0967 363.014 19.358C362.911 19.6193 362.753 19.8527 362.538 20.058C362.333 20.254 362.071 20.4127 361.754 20.534C361.437 20.6553 361.068 20.744 360.648 20.8V20.996C361.18 21.052 361.591 21.1733 361.88 21.36C362.179 21.5373 362.407 21.78 362.566 22.088C362.734 22.3867 362.874 22.7413 362.986 23.152L363.518 25H361.012L360.606 23.292C360.531 22.928 360.419 22.6433 360.27 22.438C360.13 22.2327 359.948 22.088 359.724 22.004C359.5 21.92 359.22 21.878 358.884 21.878H357.526V25H355.272ZM357.526 20.212H358.744C358.893 20.212 359.057 20.2073 359.234 20.198C359.421 20.1887 359.603 20.1653 359.78 20.128C359.967 20.0813 360.135 20.0113 360.284 19.918C360.443 19.8153 360.569 19.68 360.662 19.512C360.765 19.344 360.816 19.12 360.816 18.84C360.816 18.5693 360.769 18.35 360.676 18.182C360.583 18.0047 360.461 17.8693 360.312 17.776C360.163 17.6827 360.009 17.6173 359.85 17.58C359.701 17.5333 359.551 17.5053 359.402 17.496C359.262 17.4867 359.155 17.482 359.08 17.482H357.526V20.212ZM366.747 25V15.76H369.015V25H366.747ZM364.087 17.636V15.76H371.675V17.636H364.087ZM375.648 25V22.13L372.232 15.76H374.948L376.754 20.114H376.824L378.63 15.76H381.318L377.916 22.102V25H375.648ZM385.405 25V15.76H389.367C389.945 15.76 390.463 15.8113 390.921 15.914C391.378 16.0073 391.77 16.1567 392.097 16.362C392.423 16.558 392.671 16.8147 392.839 17.132C393.016 17.44 393.105 17.8087 393.105 18.238C393.105 18.602 393.025 18.9193 392.867 19.19C392.717 19.4607 392.475 19.6847 392.139 19.862C391.812 20.03 391.378 20.1373 390.837 20.184V20.422C391.742 20.4687 392.409 20.6833 392.839 21.066C393.268 21.4393 393.483 21.9433 393.483 22.578C393.483 23.1193 393.338 23.5673 393.049 23.922C392.759 24.2767 392.335 24.5473 391.775 24.734C391.224 24.9113 390.538 25 389.717 25H385.405ZM387.561 23.208H389.661C389.866 23.208 390.062 23.194 390.249 23.166C390.445 23.138 390.617 23.0913 390.767 23.026C390.925 22.9513 391.047 22.8487 391.131 22.718C391.224 22.578 391.271 22.4007 391.271 22.186C391.271 21.9993 391.238 21.8407 391.173 21.71C391.107 21.5793 391.009 21.472 390.879 21.388C390.757 21.2947 390.613 21.2247 390.445 21.178C390.286 21.122 390.109 21.0847 389.913 21.066C389.717 21.038 389.511 21.024 389.297 21.024H387.561V23.208ZM387.561 19.638H388.961C389.231 19.638 389.483 19.624 389.717 19.596C389.95 19.5587 390.155 19.5027 390.333 19.428C390.51 19.3533 390.65 19.246 390.753 19.106C390.855 18.9567 390.907 18.77 390.907 18.546C390.907 18.3407 390.86 18.1727 390.767 18.042C390.673 17.902 390.547 17.7993 390.389 17.734C390.239 17.6593 390.062 17.608 389.857 17.58C389.661 17.5427 389.46 17.524 389.255 17.524H387.561V19.638ZM399.063 25.196C398.391 25.196 397.784 25.0933 397.243 24.888C396.701 24.6827 396.239 24.3793 395.857 23.978C395.474 23.5767 395.175 23.082 394.961 22.494C394.755 21.8967 394.653 21.206 394.653 20.422C394.653 19.3207 394.844 18.4153 395.227 17.706C395.619 16.9873 396.155 16.4507 396.837 16.096C397.518 15.7413 398.288 15.564 399.147 15.564C399.8 15.564 400.397 15.6667 400.939 15.872C401.48 16.0773 401.942 16.3807 402.325 16.782C402.707 17.1833 403.001 17.6873 403.207 18.294C403.421 18.8913 403.529 19.582 403.529 20.366C403.529 21.178 403.417 21.8873 403.193 22.494C402.978 23.0913 402.675 23.5907 402.283 23.992C401.891 24.3933 401.419 24.6967 400.869 24.902C400.318 25.098 399.716 25.196 399.063 25.196ZM399.133 23.418C399.385 23.418 399.632 23.376 399.875 23.292C400.117 23.1987 400.341 23.0447 400.547 22.83C400.752 22.6153 400.915 22.3213 401.037 21.948C401.158 21.5653 401.219 21.0847 401.219 20.506C401.219 19.806 401.13 19.2273 400.953 18.77C400.775 18.3127 400.523 17.972 400.197 17.748C399.879 17.524 399.506 17.412 399.077 17.412C398.843 17.412 398.601 17.454 398.349 17.538C398.106 17.622 397.877 17.7713 397.663 17.986C397.457 18.2007 397.289 18.504 397.159 18.896C397.028 19.2787 396.963 19.778 396.963 20.394C396.963 20.9727 397.023 21.4533 397.145 21.836C397.266 22.2187 397.425 22.5267 397.621 22.76C397.826 22.9933 398.059 23.1613 398.321 23.264C398.582 23.3667 398.853 23.418 399.133 23.418ZM403.708 25L406.886 20.366L403.792 15.76H406.424L408.426 19.176H408.51L410.526 15.76H413.186L410.05 20.324L413.27 25H410.624L408.51 21.472H408.426L406.34 25H403.708Z" fill="white"/>
<defs>
<clipPath id="clip0_32_277">
<rect width="6" height="6" fill="white" transform="translate(92 17.5)"/>
</clipPath>
<clipPath id="clip1_32_277">
<rect width="6" height="6" fill="white" transform="translate(184 17.5)"/>
</clipPath>
<clipPath id="clip2_32_277">
<rect width="6" height="6" fill="white" transform="translate(326 17.5)"/>
</clipPath>
</defs>
</svg>
