<?xml version="1.0" encoding="utf-8"?>
<!-- Generator: Adobe Illustrator 25.4.0, SVG Export Plug-In . SVG Version: 6.00 Build 0)  -->
<svg version="1.1" id="Capa_1" xmlns="http://www.w3.org/2000/svg" xmlns:xlink="http://www.w3.org/1999/xlink" x="0px" y="0px"
	 viewBox="0 0 481.1 160.15" style="enable-background:new 0 0 481.1 160.15;" xml:space="preserve">
<style type="text/css">
	.st0{fill:#C8D12A;}
	.st1{fill:url(#);}
	.st2{fill:#050504;}
	.st3{fill:#FFFFFF;}
	.st4{fill:none;stroke:#FFFFFF;stroke-width:22.4065;}
	.st5{fill:none;stroke:#FFFFFF;stroke-width:11.3663;}
	.st6{fill:#C8D12A;stroke:#000000;stroke-width:5.1402;stroke-miterlimit:10;}
	.st7{fill:#030405;}
	.st8{fill:#C6CF31;}
	.st9{stroke:#000000;stroke-width:5.1402;stroke-miterlimit:10;}
	.st10{stroke:#FFFFFF;stroke-width:4;stroke-linecap:round;stroke-linejoin:round;stroke-miterlimit:10;}
	.st11{fill:none;stroke:#FFFFFF;stroke-width:4;stroke-linejoin:round;stroke-miterlimit:10;}
	.st12{clip-path:url(#SVGID_00000043421317913241951310000006202675287177972662_);}
	.st13{fill:#C8D12A;stroke:#000000;stroke-width:5.6822;stroke-miterlimit:10;}
	.st14{stroke:#FFFFFF;stroke-width:2.9639;stroke-miterlimit:10;}
	.st15{fill:#00993D;}
	.st16{clip-path:url(#SVGID_00000170243566628906500660000012022232901948239794_);}
	.st17{fill:#C8D12A;stroke:#000000;stroke-width:5.5;stroke-miterlimit:10;}
	.st18{clip-path:url(#SVGID_00000054256033168647819790000011677094430271854780_);}
	.st19{stroke:#FFFFFF;stroke-width:4;stroke-miterlimit:10;}
	.st20{stroke:#000000;stroke-width:2.5698;stroke-miterlimit:10;}
	.st21{fill:#C8D12A;stroke:#000000;stroke-width:2.569;stroke-miterlimit:10;}
	.st22{stroke:#000000;stroke-width:2.569;stroke-miterlimit:10;}
	.st23{stroke:#FFFFFF;stroke-width:1.9992;stroke-linecap:round;stroke-linejoin:round;stroke-miterlimit:10;}
	.st24{clip-path:url(#SVGID_00000016042451764141709280000007985157186928877488_);}
	.st25{fill:#C8D12A;stroke:#000000;stroke-width:2.8287;stroke-miterlimit:10;}
	.st26{stroke:#FFFFFF;stroke-width:1.4755;stroke-miterlimit:10;}
	.st27{clip-path:url(#SVGID_00000015355474105192936620000016945814088606878609_);}
	.st28{clip-path:url(#SVGID_00000098179864608275891250000016866895830898458256_);}
	.st29{clip-path:url(#SVGID_00000105398257901638737310000007664636553527951790_);}
	.st30{clip-path:url(#SVGID_00000101090995108604685880000009074235795974647431_);}
	.st31{fill:#C8D12A;stroke:#000000;stroke-width:2.4552;stroke-miterlimit:10;}
	.st32{stroke:#FFFFFF;stroke-width:1.2719;stroke-miterlimit:10;}
	.st33{fill:#C8D12A;stroke:#000000;stroke-width:2.1112;stroke-miterlimit:10;}
	.st34{stroke:#000000;stroke-width:2.1112;stroke-miterlimit:10;}
	.st35{stroke:#FFFFFF;stroke-width:1.6429;stroke-linecap:round;stroke-linejoin:round;stroke-miterlimit:10;}
	.st36{clip-path:url(#SVGID_00000132088341753060973800000013942254409971499151_);}
	.st37{stroke:#000000;stroke-width:2.1118;stroke-miterlimit:10;}
	.st38{clip-path:url(#SVGID_00000105389259807865941150000001775869962218264766_);}
	.st39{clip-path:url(#SVGID_00000013888725752656094930000009441592940051945400_);}
	.st40{clip-path:url(#SVGID_00000177459584018837226730000015217124641597219731_);}
	.st41{opacity:0.9;fill:#00993D;}
	.st42{opacity:0.9;fill:#FFFFFF;}
</style>
<g>
	<g>
		<g>
			<path d="M251.51,24.94l2.15-0.01c2.24,0.05,3.88,0.15,4.91,0.3c1.03,0.15,1.86,0.47,2.48,0.96c0.62,0.5,1.41,1.36,2.35,2.6
				l11.87,15.62c0.25,0.37,0.44,0.5,0.56,0.37c0.12-0.12,0.3-2.12,0.52-5.98c0.06-0.5,0.09-1.21,0.08-2.15
				c0.28-4.11,0.55-6.9,0.79-8.37c0.24-1.46,0.73-2.45,1.47-2.95c0.74-0.5,2.05-0.76,3.92-0.77l4.58,0.06
				c2.62-0.02,4.3,0.1,5.05,0.34c0.81,0.24,1.31,0.83,1.51,1.77c0.26,1.62,0.45,7.44,0.58,17.47c0.01,1.93,0.05,3.58,0.12,4.95
				l0.03,4.39c0.04,6.73-0.11,11.3-0.47,13.74c-0.24,1.62-0.56,2.76-0.96,3.42c-0.4,0.66-0.96,1.08-1.67,1.27
				c-0.72,0.19-2.04,0.42-3.97,0.68c-2.68,0.33-4.82,0.5-6.44,0.51c-1.25,0.01-2.04-0.05-2.38-0.17c-0.34-0.12-0.77-0.46-1.27-1.02
				c-0.88-0.87-2.23-2.69-4.05-5.49c-6.29-9.3-9.59-13.98-9.9-14.04c-0.12,0-0.24,1.47-0.34,4.39c-0.25,8.97-0.66,13.74-1.22,14.3
				c-0.62,0.63-2.42,0.95-5.41,0.97c-0.44,0-0.84-0.02-1.21-0.09l-1.4,0.01c-0.62-0.06-1.84-0.13-3.65-0.21
				c-1.81-0.08-2.82-0.39-3.04-0.92c-0.22-0.53-0.4-1.57-0.53-3.13c-0.2-2.18-0.34-8.75-0.41-19.71
				c-0.07-10.4-0.05-16.91,0.06-19.53c0.05-1.87,0.54-2.99,1.47-3.37C248.3,25.02,249.58,24.95,251.51,24.94z"/>
			<path d="M310.53,36.43l2.52-0.02l1.03-0.01c0.87-0.01,1.59,0.08,2.15,0.27c0.5,0.18,0.83,0.4,0.99,0.65
				c0.16,0.25,0.27,0.75,0.34,1.49c0.13,1.62,0.23,7.38,0.3,17.28c0.07,10.4-0.03,15.73-0.27,15.98c-0.5,0.5-2.46,0.76-5.88,0.78
				l-3.36,0.02l-2.52-0.08c-1.5,0.01-2.37-0.02-2.62-0.08c-0.62-0.06-1.12-0.27-1.5-0.65l-0.75-0.74l-0.17-12.61l-0.03-3.92
				c-0.07-10.9,0.27-16.75,1.01-17.57c0.31-0.38,2.3-0.61,5.97-0.69C308.91,36.53,309.84,36.49,310.53,36.43z M309.11,19.15
				c2.05-0.01,3.83,0.69,5.34,2.11c1.5,1.42,2.26,3.01,2.27,4.75l0.01,1.21c-0.11,1.81-0.82,3.23-2.12,4.26
				c-1.3,1.04-3.04,1.56-5.22,1.57l-0.56,0c-2.18-0.11-3.94-0.74-5.29-1.88c-1.35-1.14-2.03-2.62-2.04-4.42
				c-0.01-0.93,0.14-1.79,0.45-2.57c0.31-0.78,0.89-1.64,1.76-2.58C305.25,19.99,307.06,19.17,309.11,19.15z"/>
			<path d="M358.7,30.42c0.75,0,2.43,0.37,5.05,1.14c2.62,0.76,4.37,1.39,5.24,1.88c0.87,0.55,1.32,1.33,1.32,2.33
				c0.01,1-0.67,2.99-2.02,5.99l-1.2,2.81c-1.29,2.87-2.12,4.84-2.48,5.9c-1.47,3.69-3.38,7.99-5.71,12.93
				c-2.34,4.94-3.75,7.68-4.24,8.25c-0.5,0.44-0.96,0.72-1.4,0.85c-0.5,0.13-1.65,0.23-3.45,0.3l-1.4,0.01
				c-5.67,0.04-9.22-0.47-10.66-1.52c-0.5-0.37-1.9-3.18-4.21-8.43c-2.31-5.25-4.46-10.56-6.45-15.93c-1.99-5.37-3-8.87-3.01-10.49
				c-0.01-0.93,0.74-1.79,2.23-2.58c1.49-0.79,3.21-1.44,5.17-1.95c1.96-0.51,3.5-0.77,4.62-0.78c0.56,0,1.03,0.06,1.4,0.18
				c0.81,0.24,1.56,1.14,2.26,2.69c0.51,1.18,1.71,4.79,3.62,10.81c1.53,4.91,2.35,7.43,2.48,7.55l0.28-0.38
				c0.43-0.56,0.89-1.44,1.38-2.62c0.86-1.94,2.64-5.4,5.35-10.4c2.71-5,4.25-7.69,4.62-8.06C357.79,30.58,358.2,30.42,358.7,30.42z
				"/>
			<path d="M397.72,27.28l1.21-0.01c2.55,0.11,4.58,0.53,6.08,1.27c1.5,0.74,3.35,2.19,5.54,4.36c3.38,3.34,5.56,6.94,6.52,10.8
				c0.32,1.56,0.48,2.86,0.49,3.92c0.02,3.8-0.58,5.95-1.83,6.46l-15.51,0.1c-4.92,0.03-7.38,0.08-7.38,0.14
				c0,0.75,0.72,1.54,2.16,2.37c1.44,0.83,3.12,1.46,5.06,1.88c1.06,0.18,2.03,0.27,2.9,0.26c1.43-0.01,3.33-0.4,5.69-1.16
				c1.8-0.51,2.95-0.77,3.45-0.77c0.62,0,1.12,0.18,1.5,0.55c0.44,0.62,1.1,1.77,1.98,3.44c0.88,1.68,1.33,2.86,1.33,3.54
				c0.01,1.37-1.14,2.72-3.43,4.04c-2.23,1.38-4.58,2.36-7.03,2.94s-5.37,0.88-8.73,0.9c-4.11,0.03-7.29-0.33-9.54-1.06
				c-2.25-0.73-4.66-2.34-7.22-4.81c-2.57-2.47-4.33-4.89-5.28-7.25c-0.95-2.36-1.43-5.13-1.45-8.31c-0.02-3.49,0.47-6.67,1.48-9.54
				c1.01-2.87,2.94-5.53,5.79-7.98c2.97-2.63,6.76-4.5,11.36-5.58C394.42,27.45,396.04,27.29,397.72,27.28z M397.53,39.98
				c-1.37,0.01-2.57,0.42-3.59,1.24c-1.02,0.82-1.56,1.85-1.62,3.09l-0.09,1.12l4.58,0.25l3.83,0.16l0.47,0
				c0.25,0,0.4-0.03,0.47-0.1l0.19,0l0.19,0c0.25-0.06,0.37-0.44,0.37-1.12c0-0.81-0.2-1.59-0.58-2.33
				C400.92,40.74,399.52,39.97,397.53,39.98z"/>
			<path d="M428.51,21.19l2.24-0.01c4.8,0.03,7.42,0.67,7.86,1.91c0.19,1.12,0.37,8.94,0.52,23.44l0.08,12.14
				c0.03,5.29-0.01,8.81-0.12,10.56c-0.05,1.37-0.39,2.15-1.01,2.34c-0.81,0.19-2.86,0.33-6.16,0.41c-0.62,0.07-1.77,0.1-3.46,0.12
				c-1.74,0.01-2.94-0.12-3.6-0.4c-0.66-0.28-1.03-0.68-1.13-1.21c-0.1-0.53-0.15-1.6-0.16-3.22l0.08-2.06l-0.02-2.43
				c-0.01-0.87,0.02-1.65,0.08-2.34l-0.02-2.43c-0.02-3.11-0.13-5.73-0.33-7.85c-0.47-5.23-0.72-10.33-0.75-15.32
				c-0.02-3.42,0.13-6.45,0.46-9.06c0.32-2.62,0.92-4.08,1.79-4.4C425.49,21.28,426.7,21.21,428.51,21.19z"/>
		</g>
		<g>
			<path d="M217.97,91.51c9.53-0.06,19.02,0.07,28.49,0.38c3.92,0.04,6.23,0.37,6.92,0.98c0.62,0.43,0.94,1.24,0.95,2.42l0.01,1.96
				c-0.1,4.73-0.54,7.51-1.35,8.32l-0.93,0.94l-6.26-0.24l-6.35-0.15l0.18,13.73l0.04,6.63c0.03,4.86-0.14,7.91-0.5,9.16
				c-0.37,1.12-0.95,2.19-1.75,3.19l-1.02,1.03l-4.86-0.25c-4.73-0.28-7.38-0.67-7.95-1.16c-0.19-0.25-0.38-5.54-0.57-15.88
				c-0.13-10.28-0.29-15.51-0.47-15.69c-0.13-0.19-1.93-0.39-5.42-0.62c-3.86-0.22-6.39-0.61-7.58-1.17
				c-1.06-0.49-1.6-1.7-1.61-3.63l0.09-0.94l-0.01-0.93c0.11-2.68,0.36-4.53,0.76-5.56c0.4-1.03,1.19-1.8,2.37-2.3
				C211.65,91.61,213.92,91.53,217.97,91.51z"/>
			<path d="M263.31,96.45c0.56-0.38,1.9-0.57,4.01-0.59c2.18-0.01,4.25,0.13,6.21,0.43c1.96,0.3,3.13,0.7,3.51,1.19
				c0.44,0.5,0.66,0.93,0.66,1.3c0,0.06,0.06,0.09,0.19,0.09c0.37,0,1.24-0.35,2.61-1.04c2.61-1.32,4.97-1.99,7.09-2.01
				c2.18-0.01,4.43,0.6,6.74,1.83c2.31,1.23,3.47,2.53,3.48,3.9c0,0.75-0.51,2.26-1.56,4.54c-1.04,2.28-1.97,4.02-2.77,5.2
				c-0.62,0.94-1.27,1.41-1.95,1.41c-0.25,0-0.93-0.15-2.06-0.45c-1.12-0.37-2.18-0.55-3.18-0.54c-2.12,0.01-3.83,0.87-5.12,2.56
				c-2.22,2.88-3.3,9.11-3.24,18.71l0.01,1.31c0.01,1.37-0.06,2.34-0.21,2.9c-0.15,0.56-0.52,0.94-1.11,1.13
				c-0.59,0.19-1.57,0.29-2.94,0.3l-1.59-0.08l-2.05,0.01c-4.36-0.1-6.85-0.36-7.48-0.79c-0.75-0.49-1.16-1.02-1.23-1.58
				c-0.19-0.68-0.3-3.02-0.32-7c-0.04-6.04,0.06-12.58,0.29-19.62c0.24-7.04,0.51-10.93,0.81-11.68
				C262.41,97.23,262.82,96.76,263.31,96.45z"/>
			<path d="M336.28,96.64c3.49-0.02,6.2,0.18,8.13,0.6c1.37,0.3,2.39,0.79,3.04,1.47c0.66,0.68,1.15,1.74,1.47,3.17
				c0.19,0.81,0.3,3.58,0.33,8.31c0.07,10.65-0.11,17.91-0.51,21.77c-0.17,2.06-0.45,3.46-0.81,4.21c-0.37,0.75-1.1,1.25-2.19,1.51
				c-1.09,0.26-3.16,0.46-6.21,0.6c-0.81,0.07-2.15,0.11-4.02,0.12c-1.37,0.01-2.28-0.13-2.71-0.4c-0.44-0.28-0.88-0.91-1.32-1.91
				c-0.44-0.99-0.79-1.49-1.04-1.49c-0.25,0-1.21,0.41-2.89,1.23c-2.61,1.26-5.09,1.9-7.46,1.92c-2.49,0.02-5.11-0.9-7.86-2.75
				c-2.75-1.85-5.06-4.27-6.91-7.24c-1.86-2.98-2.79-6.02-2.81-9.14c-0.01-1.37,0.11-2.46,0.35-3.27l0.27-1.4l0.18-1.03
				c0.18-1.43,1.25-3.68,3.23-6.75c3.02-4.75,6.89-7.71,11.62-8.86c0.93-0.19,1.9-0.29,2.89-0.3c3.49-0.02,6.39,0.83,8.7,2.56
				c0.62,0.43,1.09,0.65,1.41,0.64c0.31,0,0.47-0.22,0.46-0.66c0-0.31,0.26-0.8,0.79-1.45c0.52-0.66,1-1.08,1.44-1.27
				C334.1,96.71,334.91,96.65,336.28,96.64z M326.46,110.71c-1.49,0.01-2.83,0.45-4.01,1.33c-1.18,0.88-1.98,2.07-2.41,3.57
				c-0.18,0.56-0.27,1.15-0.27,1.78c0.01,1.62,0.67,2.91,1.99,3.86c1.31,0.96,3.09,1.43,5.33,1.41c1.18-0.01,1.98-0.07,2.38-0.2
				c0.4-0.13,0.67-0.41,0.79-0.84c0.12-0.44,0.27-1.37,0.45-2.81c0.24-1.68,0.35-3.33,0.34-4.95c-0.01-0.93-0.07-1.51-0.2-1.73
				c-0.13-0.22-0.56-0.48-1.31-0.79C328.67,110.92,327.65,110.7,326.46,110.71z"/>
			<path d="M384.66,94.65c4.3-0.03,7.67,1.13,10.11,3.48c2.44,2.35,4.21,5.33,5.29,8.94c0.51,1.68,0.82,6.66,0.94,14.94l0.04,5.89
				c0.03,4.3-0.14,6.63-0.52,7.01c-0.25,0.38-0.74,0.6-1.49,0.66c-0.75,0.13-2.99,0.24-6.72,0.32l-7.66,0.24l-0.38-0.84
				c-0.06-0.25-0.27-3.27-0.62-9.06c-0.09-4.67-0.33-8.25-0.72-10.74c-0.38-1.8-1.11-3.29-2.18-4.47c-0.56-0.56-1.31-0.83-2.25-0.83
				c-4.55,0.03-6.79,4.31-6.74,12.84c0.02,2.43,0.06,4.08,0.13,4.95c0.07,1.18,0.11,3.08,0.13,5.7c0.01,1.62-0.08,2.52-0.26,2.71
				c-0.19,0.19-1.94,0.36-5.27,0.5c-3.33,0.15-6.24,0.23-8.73,0.24c-1,0.01-1.67-0.05-2.01-0.17c-0.34-0.12-0.58-0.4-0.71-0.84
				c-0.13-0.43-0.23-1.21-0.29-2.33c-0.07-0.75-0.12-3.58-0.15-8.5l-0.15-8.41l-0.06-9.25l-0.14-6.73c-0.01-1.74,0.09-2.97,0.3-3.69
				c0.21-0.72,0.66-1.19,1.35-1.41c0.68-0.22,1.83-0.34,3.46-0.35l4.67-0.03c3.42-0.02,5.51,0.12,6.26,0.43
				c0.62,0.25,0.94,1.24,0.95,2.98c0.01,1.49,0.11,2.24,0.29,2.24c0.19,0,0.9-0.6,2.14-1.79c2.17-2.01,4.43-3.36,6.79-4.06
				C381.82,94.85,383.22,94.66,384.66,94.65z"/>
			<path d="M416.85,88.46c2.18-0.01,3.8,0.1,4.86,0.34c1.06,0.24,1.78,0.74,2.16,1.48c0.32,0.68,0.56,2.58,0.74,5.69
				c0.17,3.11,0.27,6.07,0.29,8.87c0.02,2.74,0.06,4.11,0.12,4.11c0.19,0,1.48-1.63,3.89-4.88c1.79-2.44,4.09-5.29,6.91-8.54
				c2.81-3.26,4.53-5.04,5.15-5.36c0.43-0.25,0.84-0.38,1.21-0.38c0.75,0,2.15,0.66,4.22,1.98c2.06,1.33,3.75,2.7,5.07,4.12
				c1.32,1.49,1.98,2.67,1.98,3.54c0,0.44-0.27,1.09-0.83,1.97c-0.8,1.13-2.59,3.36-5.38,6.71c-2.78,3.35-4.95,5.84-6.49,7.47
				l-2.97,3.29l2.82,3.16c1.75,1.92,3.83,4.31,6.21,7.15c2.38,2.85,3.7,4.49,3.96,4.93l0.19,0.65c0,0.81-1.92,1.51-5.78,2.09
				c-3.42,0.52-5.38,0.87-5.88,1.06c-0.99,0.26-1.8,0.38-2.43,0.39c-0.93,0.01-1.75-0.24-2.43-0.73c-0.5-0.37-1.94-2.14-4.33-5.3
				c-2.26-2.97-3.52-4.46-3.77-4.46c-0.25,0-0.59,0.32-1.02,0.94c-0.56,0.75-0.86,2.43-0.9,5.05c-0.04,2.74-0.32,4.36-0.81,4.86
				c-0.43,0.44-1.34,0.66-2.71,0.67c-1.74,0.01-2.96-0.01-3.64-0.07c-3.12-0.04-5.48-0.25-7.1-0.61c-1.25-0.24-2.06-0.62-2.44-1.15
				c-0.38-0.53-0.63-1.54-0.77-3.03c-0.07-1.43-0.19-5.45-0.36-12.05l-0.02-3.83c-0.08-12.46,0.14-21.33,0.67-26.63
				c0.12-1.18,0.39-1.98,0.83-2.39c0.43-0.41,1.37-0.68,2.8-0.81C412.67,88.58,414.66,88.48,416.85,88.46z"/>
			<path d="M469.89,100.74l2.52-0.02l1.03-0.01c0.87-0.01,1.59,0.08,2.15,0.27c0.5,0.18,0.83,0.4,0.99,0.65
				c0.16,0.25,0.27,0.75,0.33,1.49c0.13,1.62,0.24,7.38,0.3,17.28c0.07,10.4-0.03,15.73-0.27,15.98c-0.5,0.5-2.46,0.76-5.88,0.78
				l-3.36,0.02l-2.52-0.08c-1.5,0.01-2.37-0.02-2.62-0.08c-0.62-0.06-1.12-0.27-1.5-0.65l-0.75-0.74l-0.17-12.61l-0.03-3.92
				c-0.07-10.9,0.27-16.76,1.01-17.57c0.31-0.38,2.3-0.61,5.97-0.69C468.27,100.84,469.21,100.8,469.89,100.74z M468.48,83.46
				c2.05-0.01,3.83,0.69,5.34,2.11c1.5,1.42,2.26,3.01,2.27,4.75l0.01,1.21c-0.11,1.81-0.82,3.23-2.12,4.26s-3.04,1.56-5.22,1.57
				l-0.56,0c-2.18-0.11-3.94-0.74-5.29-1.88c-1.35-1.14-2.03-2.62-2.04-4.42c-0.01-0.93,0.14-1.79,0.45-2.57
				c0.31-0.78,0.89-1.64,1.76-2.58C464.62,84.3,466.42,83.47,468.48,83.46z"/>
		</g>
	</g>
	<g>
		<g>
			<path d="M222.92,66.45c-0.89-0.54-21.81-13.36-27.84-12.59c-5.61,0.71-11.95,12.36-13.18,14.71c-1.16-0.49-2.02-0.59-2.65-0.48
				c-4.57-19.75-17.53-35.47-34.32-44.17c-0.05,0.11-0.09,0.22-0.15,0.33c-0.1,0.22-0.22,0.44-0.34,0.66
				c-0.19,0.33-0.39,0.67-0.63,1.02c-0.08,0.11-0.16,0.23-0.24,0.36c-0.17,0.24-0.36,0.49-0.56,0.76c-0.23,0.29-0.48,0.58-0.73,0.88
				c-0.07,0.07-0.14,0.16-0.21,0.24c6.92,3.52,13.16,8.33,18.34,14.18c-6.06-5.23-13.1-9.28-20.73-11.85
				c-0.37,0.32-0.77,0.65-1.18,0.97c-2.75,2.19-6.04,4.16-10.33,6.23c-0.67,0.32-1.34,0.62-2.03,0.92c-0.6,0.26-1.21,0.52-1.83,0.77
				c-0.32,0.14-0.65,0.27-0.99,0.4c-0.24,0.1-0.49,0.2-0.74,0.29c-0.58,0.22-1.17,0.45-1.76,0.65c-0.25,0.1-0.52,0.2-0.79,0.29
				c-0.28,0.1-0.55,0.2-0.83,0.29c-0.68,0.24-1.39,0.47-2.09,0.7c-0.68,0.22-1.37,0.43-2.06,0.63c-0.6,0.18-1.21,0.35-1.83,0.52
				c-0.04,0.02-0.09,0.02-0.13,0.03c-0.3,0.09-0.59,0.16-0.9,0.25c-0.64,0.17-1.3,0.34-1.95,0.5c-0.51,0.12-1.02,0.25-1.53,0.36
				c-0.52,0.12-1.03,0.23-1.55,0.35c-0.52,0.11-1.05,0.22-1.57,0.33l-0.89,0.18c-0.3,0.06-0.6,0.11-0.89,0.17
				c-0.36,0.07-0.72,0.14-1.08,0.2c-0.35,0.06-0.69,0.12-1.04,0.18c-0.52,0.09-1.03,0.17-1.55,0.25c-6.41,1-12.39,1.38-18.18,1.16
				c-2.55-0.11-4.82-0.32-6.91-0.64c-13.47,14.17-20.02,34.5-15.8,55.11c2.25,11.01,7.3,20.73,14.24,28.58
				c-9.97-8.62-17.3-20.48-20.15-34.4c-3.89-19,1.37-37.75,12.78-51.67c-0.7-0.3-1.36-0.62-1.98-0.97
				c-0.79-0.45-1.49-0.92-2.11-1.41C50.84,55.82,45.43,74.33,48.36,93.3c-0.67,0.21-1.45,0.69-2.35,1.62
				c-2.3-1.88-13.97-11.12-20.07-9.37c-6.55,1.87-22.48,24.3-23.16,25.26c-0.16,0.24-3.9,5.79-2.47,9.53
				c0.56,1.46,1.81,2.43,3.71,2.9c1.43,0.34,2.8,0.33,4.1,0.06c4.7-0.96,8.32-5.19,9.64-6.94c0.47,0.89,1.43,2.18,3.07,2.49
				c2.33,0.43,5.16-1.37,8.4-5.34c0.83,0.71,2.76,2.09,5.01,1.7c2.16-0.4,3.96-2.28,5.37-5.62c4.14-9.8,6.86-9.39,7.15-9.31
				c0.1,0.03,0.39,0.18,0.63,0.31c0.75,0.42,1.8,1.01,2.77,0.95c9.49,33.18,43.1,53.96,77.49,46.92
				c34.15-6.99,56.8-38.93,52.86-72.93c0.95-0.18,1.71-1.15,2.22-1.82c0.15-0.2,0.32-0.43,0.4-0.48c0.21-0.16,2.3-1.46,9.13,5.14
				c2.33,2.24,4.46,3.16,6.37,2.72c1.99-0.46,3.08-2.27,3.52-3.15c4.04,2.13,7,2.61,8.76,1.44c1.23-0.82,1.56-2.22,1.64-3.12
				c1.7,0.97,6.15,3.17,10.34,2.32c1.16-0.24,2.29-0.71,3.35-1.5c1.39-1.05,2.07-2.29,2.02-3.68
				C228.16,69.83,223.14,66.59,222.92,66.45z M4.28,121.81c-0.26,0.05-0.52-0.12-0.57-0.38c-0.05-0.26,0.12-0.52,0.38-0.57
				c0.26-0.05,0.52,0.11,0.57,0.38C4.71,121.5,4.54,121.76,4.28,121.81z M8.08,108.54c-1.52,1.39-7.16,6.98-5.05,11.79
				c0.11,0.25,0.02,0.53-0.22,0.66c-0.27,0.14-0.6,0.03-0.72-0.24c-2.43-5.49,3.61-11.47,5.29-12.98c0.21-0.19,0.55-0.16,0.73,0.05
				l0.01,0.01C8.3,108.04,8.28,108.35,8.08,108.54z M18.24,114.75c-0.11,0.21-0.23,0.42-0.34,0.62c-0.01-0.01-0.01-0.02-0.01-0.02
				s-0.7,1.06-1.92,2.39c-0.35,0.25-0.72,0.39-1.08,0.41c0,0,0.09-0.1,0.28-0.33c0.01-0.01,0.02-0.03,0.03-0.04
				c0.16-0.21,0.39-0.5,0.67-0.9c0.05-0.07,0.09-0.14,0.15-0.21c0.25-0.38,0.54-0.82,0.86-1.36c0.15-0.25,0.31-0.53,0.47-0.82
				c0.21-0.36,0.42-0.76,0.65-1.2c0.12-0.21,0.23-0.44,0.35-0.67c0.08-0.15,0.16-0.31,0.23-0.47c0.24-0.48,0.49-1,0.74-1.56
				c0.6-1.29,1.23-2.78,1.89-4.5c0.18-0.47,0.37-0.96,0.56-1.47c0,0.02-0.01,0.06-0.02,0.1c-0.02,0.06-0.03,0.14-0.06,0.23
				c0,0.03-0.01,0.06-0.02,0.09c-0.02,0.06-0.03,0.14-0.06,0.22c0,0.01,0,0.03-0.01,0.05c-0.03,0.13-0.07,0.28-0.12,0.45
				c-0.05,0.21-0.11,0.43-0.18,0.68c-0.03,0.14-0.07,0.28-0.12,0.44c-0.44,1.57-1.11,3.71-1.93,5.71c-0.09,0.22-0.19,0.45-0.29,0.67
				C18.73,113.77,18.49,114.27,18.24,114.75z M24.24,116.51c-0.49,0.27-0.97,0.46-1.43,0.55c-0.59,0.13-1.17,0.1-1.71-0.08
				c-1.17-0.38-1.88-1.38-2.22-2.01c-0.14-0.27-0.01-0.62,0.28-0.73c0.25-0.09,0.51,0.01,0.64,0.23c0.25,0.48,0.78,1.25,1.62,1.53
				c0.67,0.21,1.46,0.08,2.32-0.4c0.24-0.13,0.54-0.06,0.68,0.16C24.58,116.03,24.5,116.37,24.24,116.51z M25.39,115.27
				c-0.28,0.06-0.54-0.12-0.6-0.39c-0.06-0.28,0.11-0.55,0.39-0.6c0.27-0.05,0.55,0.12,0.6,0.39
				C25.84,114.95,25.67,115.22,25.39,115.27z M30.01,112.81c-0.27-0.23-0.43-0.4-0.44-0.4l-0.35-0.38l-0.02-0.02l-0.03-0.05
				c0,0,0.01-0.01,0.02-0.04c0.01-0.02,0.02-0.03,0.03-0.04c0.16-0.25,0.65-1.04,1.24-2.14c0.08-0.16,0.17-0.33,0.26-0.5
				c0.17-0.34,0.35-0.71,0.52-1.1c0.11-0.23,0.22-0.49,0.33-0.74c0.47-1.12,0.89-2.33,1.1-3.5c0.05-0.23,0.08-0.47,0.11-0.69
				c0.02-0.11,0.03-0.22,0.03-0.33c0.01-0.16,0.02-0.32,0.02-0.48c0.01-0.11,0-0.22,0-0.33c0.02,0.13,0.03,0.35,0.03,0.67
				c0,0.09,0,0.2,0,0.31c0,0.01,0.01,0.03,0,0.05c0,0.11-0.01,0.22-0.01,0.34c-0.02,0.41-0.06,0.9-0.14,1.47
				c-0.01,0.11-0.03,0.22-0.05,0.33c-0.02,0.17-0.05,0.34-0.09,0.53c0,0.05-0.02,0.11-0.03,0.17c-0.04,0.24-0.1,0.5-0.16,0.76
				c-0.03,0.13-0.06,0.26-0.1,0.4c-0.03,0.14-0.07,0.27-0.11,0.41c-0.15,0.57-0.35,1.18-0.59,1.83c-0.08,0.21-0.17,0.44-0.25,0.65
				c-0.09,0.22-0.19,0.45-0.29,0.67c-0.04,0.11-0.09,0.22-0.15,0.34c-0.05,0.12-0.11,0.23-0.16,0.34c-0.11,0.23-0.22,0.47-0.35,0.72
				C30.27,112.32,30.14,112.56,30.01,112.81z M34.23,104.94c-0.24,1.43-1.03,5.42-2.61,7.63c-0.17,0.24-0.52,0.28-0.75,0.07
				c-0.2-0.17-0.24-0.46-0.08-0.69c1.44-1.99,2.19-5.82,2.42-7.18c0.05-0.28,0.31-0.47,0.58-0.42
				C34.08,104.38,34.28,104.64,34.23,104.94z M34.54,104.07c-0.35,0.07-0.68-0.16-0.75-0.49c-0.07-0.34,0.15-0.67,0.49-0.75
				c0.34-0.07,0.68,0.16,0.75,0.49C35.1,103.67,34.87,104,34.54,104.07z M35.12,90.13c-0.16,0.22-0.47,0.28-0.7,0.12
				c-1.07-0.73-4.15-2.61-6.93-2.52c-0.27,0.01-0.5-0.19-0.53-0.46c-0.03-0.3,0.19-0.56,0.48-0.58c3.11-0.1,6.38,1.91,7.55,2.7
				C35.24,89.56,35.29,89.89,35.12,90.13z M36.34,91.06c-0.27,0.05-0.54-0.12-0.6-0.39c-0.06-0.28,0.12-0.55,0.4-0.61
				c0.28-0.06,0.54,0.12,0.6,0.4C36.8,90.73,36.61,91,36.34,91.06z M74.24,83.81c-0.88-0.37-1.37-1.28-1.18-2.22
				c0.98-4.87,4.76-8.67,9.64-9.67c4.98-1.02,10,1.07,12.8,5.31c0.52,0.79,0.43,1.82-0.25,2.49c-0.29,0.29-0.64,0.48-1.01,0.56
				c-0.5,0.1-1.02,0.01-1.47-0.28c-8.05-5.15-13.21-1.15-16.11,3.11C76.11,83.89,75.12,84.18,74.24,83.81z M147.19,89.77
				c-2.57,12.76-12.51,23.38-26.07,26.16c-13.79,2.82-27.33-3.28-34.62-14.36c-1.32-2,1-4.36,3.02-3.07
				c28.43,18.18,46.03,0.84,53.69-10.4C144.56,86.15,147.66,87.45,147.19,89.77z M151.39,68.22c-0.29,0.29-0.64,0.49-1.02,0.56
				c-0.49,0.1-1.01,0.01-1.47-0.28c-8.05-5.15-13.21-1.15-16.11,3.11c-0.54,0.79-1.53,1.07-2.41,0.71
				c-0.88-0.37-1.37-1.29-1.17-2.22c0.98-4.87,4.76-8.67,9.64-9.67c4.97-1.02,9.99,1.06,12.8,5.3
				C152.16,66.52,152.06,67.55,151.39,68.22z M211.56,75.67c-0.07,0.65-0.3,1.7-1.12,2.43c-0.38,0.34-0.84,0.56-1.37,0.67
				c-0.41,0.08-0.87,0.1-1.37,0.05c-0.27-0.03-0.44-0.28-0.4-0.54c0.04-0.24,0.26-0.4,0.5-0.37c0.87,0.09,1.56-0.07,2.04-0.49
				c0.58-0.53,0.76-1.35,0.8-1.83c0.02-0.23,0.21-0.4,0.44-0.41C211.36,75.17,211.58,75.4,211.56,75.67z M200.54,77.78
				c-0.11,0.24-0.41,0.35-0.64,0.21c-2.07-1.26-4.12-4.25-4.82-5.34c-0.14-0.22-0.08-0.5,0.14-0.64l0.01,0
				c0.21-0.13,0.49-0.07,0.63,0.14c0.66,1.04,2.63,3.9,4.5,5.04C200.56,77.31,200.65,77.58,200.54,77.78z M194.52,72.04
				c-0.31,0.07-0.6-0.13-0.67-0.44c-0.06-0.31,0.14-0.6,0.45-0.66c0.3-0.07,0.6,0.13,0.66,0.43
				C195.03,71.68,194.83,71.98,194.52,72.04z M189.78,60.68c-0.14,0.2-0.41,0.26-0.62,0.15c-0.23-0.13-0.3-0.43-0.16-0.65
				c0.68-1.06,2.66-3.84,5.24-4.86c0.25-0.09,0.53,0.06,0.61,0.31c0.06,0.23-0.05,0.48-0.28,0.56
				C192.27,57.09,190.41,59.7,189.78,60.68z M188.84,61.47c0.05,0.24-0.11,0.48-0.36,0.54c-0.24,0.05-0.49-0.11-0.54-0.36
				c-0.05-0.24,0.11-0.49,0.36-0.54C188.54,61.07,188.78,61.22,188.84,61.47z M195.19,69.72c1.26,3.46,6.5,6.92,6.5,6.92l-0.01,0.06
				l-0.23,1.04c-0.05-0.04-0.1-0.08-0.15-0.12C196.27,73.68,195.19,69.72,195.19,69.72z M206.46,78.22
				c-0.26,0.05-0.49-0.11-0.53-0.35c-0.06-0.24,0.1-0.49,0.34-0.53c0.25-0.05,0.49,0.1,0.53,0.35
				C206.86,77.93,206.7,78.17,206.46,78.22z M217.51,65.87L217.51,65.87c0.08-0.26,0.33-0.39,0.58-0.31
				c1.91,0.64,8.97,3.42,8.89,8.79c0.01,0.27-0.23,0.47-0.5,0.45c-0.23-0.02-0.41-0.22-0.42-0.47c0.05-4.68-6.52-7.29-8.27-7.9
				C217.56,66.35,217.44,66.1,217.51,65.87z M225.9,75.49c0.05,0.23-0.1,0.45-0.34,0.5c-0.23,0.05-0.46-0.1-0.51-0.33
				s0.11-0.46,0.33-0.51C225.63,75.1,225.85,75.25,225.9,75.49z M214.53,76.74c-0.72-0.16-1.54-0.62-2.4-1.26
				c-0.16-0.12-0.33-0.26-0.5-0.39c0,0,0,0,0-0.01c-2.99-2.45-6.17-6.71-6.45-7.09c5.64,5.97,9.13,8.04,10.12,8.56
				c0.04,0.01,0.07,0.03,0.1,0.04c0.13,0.07,0.19,0.1,0.19,0.1c-0.31,0.12-0.66,0.12-1.04,0.05
				C214.54,76.75,214.54,76.75,214.53,76.74z"/>
			<path d="M143.67,8.74c-0.11-0.28-0.22-0.56-0.36-0.83c-0.08-0.15-0.16-0.3-0.24-0.46c-0.31-0.58-0.71-1.12-1.17-1.62
				c-1.4-1.5-3.21-2.69-5.55-3.6c-3.34-1.25-6.98-1.93-11.84-2.19c-7.44-0.26-15.18,0.62-23.03,2.61c-0.7,0.18-1.13,0.86-1.02,1.56
				c0.11,0.71,0.75,1.21,1.46,1.15c8.84-0.65,15.72-0.54,21.66,0.35c3.9,0.57,6.88,1.4,9.13,2.55c0.53,0.27,1.04,0.59,1.58,0.98
				c0.03,0.02,0.05,0.04,0.06,0.06c0.42,0.33,0.75,0.65,0.96,0.93c0.43,0.62,0.56,1.16,0.4,1.8c-0.21,1.04-1.21,2.37-2.75,3.76
				c-0.56,0.5-1.21,1.01-1.91,1.52c-0.44,0.31-0.9,0.61-1.37,0.92c-9.16-2.18-18.93-2.45-28.77-0.43
				c-10.11,2.07-19.22,6.33-26.93,12.18c-0.93-0.14-1.82-0.3-2.66-0.48c-0.81-0.17-1.58-0.39-2.27-0.62c-2-0.67-3.45-1.53-4.05-2.43
				c-0.36-0.52-0.46-1.09-0.3-1.77c0.09-0.37,0.27-0.79,0.51-1.22c0.29-0.52,0.68-1.09,1.16-1.67c1.64-1.93,4.07-3.87,7.44-5.92
				c5.14-3.16,11.43-5.96,19.79-8.82c0.67-0.22,1.07-0.94,0.89-1.63c-0.17-0.68-0.84-1.14-1.55-1.03
				c-7.99,1.25-15.46,3.48-22.22,6.65c-4.27,2.07-7.45,4.18-10.03,6.63c-1.81,1.77-3.02,3.55-3.72,5.46c-0.42,1.2-0.6,2.4-0.53,3.55
				c0.05,1.19,0.4,2.39,1.04,3.57c0.29,0.52,0.62,1.02,1.02,1.5c0.97,1.17,2.28,2.23,3.97,3.19c1.2,0.66,2.49,1.23,3.97,1.74
				c0.6,0.19,1.22,0.39,1.89,0.57c1.11,0.31,2.26,0.57,3.47,0.79c2.51,0.46,5.29,0.75,8.5,0.9c1.09,0.04,2.19,0.06,3.31,0.05
				c4.76,0,9.68-0.41,14.87-1.22c1.79-0.28,3.6-0.59,5.45-0.97c8.48-1.76,15.86-4.15,22.58-7.31c0.63-0.3,1.22-0.6,1.8-0.9
				c0.41-0.2,0.81-0.41,1.2-0.63c0.01,0.01,0.01,0.01,0.01,0c1.9-1,3.57-2.01,5.08-3.04c0.41-0.28,0.8-0.56,1.19-0.85
				c0.37-0.26,0.72-0.53,1.06-0.81c0.23-0.18,0.45-0.37,0.68-0.55c0.44-0.37,0.85-0.73,1.25-1.1c0.14-0.13,0.28-0.25,0.41-0.38
				c0.44-0.41,0.85-0.84,1.23-1.27c0.34-0.37,0.65-0.74,0.96-1.12c0.14-0.18,0.27-0.36,0.39-0.53c0.12-0.17,0.24-0.33,0.34-0.5
				c0.34-0.51,0.62-0.98,0.86-1.45c0.05-0.11,0.11-0.22,0.16-0.33c0.07-0.14,0.13-0.29,0.2-0.43c0.13-0.28,0.24-0.57,0.34-0.84
				c0.03-0.1,0.07-0.19,0.1-0.29c0.02-0.07,0.05-0.14,0.07-0.21c0.03-0.12,0.06-0.23,0.09-0.35c0.06-0.24,0.11-0.48,0.15-0.72
				c0.03-0.18,0.06-0.35,0.08-0.53c0.03-0.2,0.05-0.39,0.07-0.59c0-0.17,0.02-0.35,0.01-0.52c0-0.09-0.01-0.19-0.01-0.28
				c-0.01-0.19-0.02-0.38-0.05-0.58C144.08,10.05,143.92,9.38,143.67,8.74z M101.58,22.69c7.09-1.45,14.14-1.63,20.93-0.68
				c-0.04,0.02-0.08,0.05-0.13,0.06c-3.19,1.4-6.51,2.62-9.86,3.61c-3.22,1-6.6,1.86-10.35,2.62c-3.6,0.75-7.14,1.29-10.56,1.66
				c-3.24,0.36-6.56,0.55-9.89,0.54C87.68,26.86,94.35,24.17,101.58,22.69z"/>
		</g>
	</g>
</g>
</svg>
