<svg width="375" height="41" viewBox="0 0 375 41" fill="none" xmlns="http://www.w3.org/2000/svg">
<rect width="518" height="41" transform="translate(-71)" fill="#030404"/>
<path d="M-69.852 25V15.76H-68.326V25H-69.852ZM-69.446 25V23.684H-64.154V25H-69.446ZM-62.7426 25V15.76H-61.2166V25H-62.7426ZM-61.8466 25V23.712H-56.0506V25H-61.8466ZM-61.8466 20.898V19.708H-56.7226V20.898H-61.8466ZM-61.8466 17.034V15.76H-56.0646V17.034H-61.8466ZM-54.3618 25V15.76H-52.0238L-49.1258 23.334H-49.0558L-46.1718 15.76H-43.9318V25H-45.3878L-45.2898 17.3H-45.4158L-48.4678 25H-49.8678L-52.8918 17.3H-53.0178L-52.9198 25H-54.3618ZM-37.7969 25.182C-38.4689 25.182 -39.0663 25.0747 -39.5889 24.86C-40.1023 24.636 -40.5409 24.3187 -40.9049 23.908C-41.2596 23.4973 -41.5303 22.998 -41.7169 22.41C-41.8943 21.822 -41.9829 21.1593 -41.9829 20.422C-41.9829 19.3393 -41.8009 18.4433 -41.4369 17.734C-41.0729 17.0153 -40.5736 16.4787 -39.9389 16.124C-39.3043 15.76 -38.5809 15.578 -37.7689 15.578C-37.1343 15.578 -36.5603 15.6853 -36.0469 15.9C-35.5336 16.1053 -35.0949 16.418 -34.7309 16.838C-34.3576 17.2487 -34.0729 17.7573 -33.8769 18.364C-33.6809 18.9613 -33.5829 19.6427 -33.5829 20.408C-33.5829 21.1547 -33.6763 21.8267 -33.8629 22.424C-34.0496 23.012 -34.3249 23.5113 -34.6889 23.922C-35.0529 24.3327 -35.4963 24.6453 -36.0189 24.86C-36.5323 25.0747 -37.1249 25.182 -37.7969 25.182ZM-37.7689 23.908C-37.2089 23.908 -36.7329 23.7727 -36.3409 23.502C-35.9489 23.2313 -35.6503 22.844 -35.4449 22.34C-35.2396 21.8267 -35.1369 21.2013 -35.1369 20.464C-35.1369 19.708 -35.2443 19.064 -35.4589 18.532C-35.6643 18 -35.9676 17.594 -36.3689 17.314C-36.7609 17.0247 -37.2369 16.88 -37.7969 16.88C-38.3383 16.88 -38.8096 17.02 -39.2109 17.3C-39.6029 17.5707 -39.9063 17.9673 -40.1209 18.49C-40.3263 19.0127 -40.4289 19.6567 -40.4289 20.422C-40.4289 20.982 -40.3683 21.4813 -40.2469 21.92C-40.1256 22.3493 -39.9529 22.7133 -39.7289 23.012C-39.5049 23.3013 -39.2296 23.5253 -38.9029 23.684C-38.5669 23.8333 -38.1889 23.908 -37.7689 23.908ZM-31.6254 25V15.76H-29.6094L-24.9754 22.97H-24.8494L-24.9474 15.76H-23.4634V25H-25.2974L-30.1134 17.566H-30.2394L-30.1414 25H-31.6254ZM-16.9648 25V23.712H-14.2488C-13.6515 23.712 -13.1568 23.5767 -12.7648 23.306C-12.3728 23.0353 -12.0835 22.6527 -11.8968 22.158C-11.7008 21.6633 -11.6028 21.08 -11.6028 20.408C-11.6028 19.8293 -11.6635 19.33 -11.7848 18.91C-11.9061 18.4807 -12.0928 18.1307 -12.3448 17.86C-12.5875 17.5893 -12.9001 17.3887 -13.2828 17.258C-13.6561 17.118 -14.0948 17.048 -14.5988 17.048H-16.9648V15.76H-14.6408C-13.5768 15.76 -12.7041 15.942 -12.0228 16.306C-11.3415 16.67 -10.8375 17.1927 -10.5108 17.874C-10.1841 18.546 -10.0208 19.358 -10.0208 20.31C-10.0208 20.9633 -10.0955 21.5467 -10.2448 22.06C-10.3941 22.564 -10.5995 23.0027 -10.8608 23.376C-11.1128 23.74 -11.4161 24.0433 -11.7708 24.286C-12.1161 24.5287 -12.4988 24.7107 -12.9188 24.832C-13.3295 24.944 -13.7588 25 -14.2068 25H-16.9648ZM-17.7348 25V15.76H-16.2088V25H-17.7348ZM-9.22194 25L-6.00194 15.76H-3.77594L-0.555937 25H-2.20794L-4.79794 17.006H-4.97994L-7.56994 25H-9.22194ZM-7.61194 23.012V21.892H-1.96994V23.012H-7.61194ZM0.954641 25V15.76H2.97064L7.60464 22.97H7.73064L7.63264 15.76H9.11664V25H7.28264L2.46664 17.566H2.34064L2.43864 25H0.954641ZM14.998 25.182C14.242 25.182 13.5653 25.0093 12.968 24.664C12.38 24.3093 11.9133 23.782 11.568 23.082C11.232 22.382 11.064 21.5047 11.064 20.45C11.064 19.6847 11.1573 19.0033 11.344 18.406C11.5306 17.8087 11.8106 17.3 12.184 16.88C12.5573 16.46 13.01 16.138 13.542 15.914C14.0833 15.69 14.7086 15.578 15.418 15.578C15.95 15.578 16.4306 15.6433 16.86 15.774C17.2893 15.9047 17.6626 16.0913 17.98 16.334C18.2973 16.5767 18.5493 16.8707 18.736 17.216C18.932 17.5613 19.044 17.958 19.072 18.406L17.616 18.84C17.588 18.3733 17.4666 17.9953 17.252 17.706C17.0373 17.4167 16.762 17.2067 16.426 17.076C16.0993 16.9453 15.7493 16.88 15.376 16.88C14.8253 16.88 14.3446 17.0013 13.934 17.244C13.5326 17.4867 13.22 17.8693 12.996 18.392C12.772 18.9053 12.66 19.5727 12.66 20.394C12.66 21.0287 12.7253 21.57 12.856 22.018C12.996 22.4567 13.1826 22.816 13.416 23.096C13.6586 23.3667 13.9433 23.5673 14.27 23.698C14.606 23.8193 14.9653 23.88 15.348 23.88C15.8146 23.88 16.216 23.796 16.552 23.628C16.888 23.46 17.1586 23.2033 17.364 22.858C17.5693 22.5127 17.6953 22.074 17.742 21.542H15.754V20.38H19.254V21.864V25H18.092L18.274 22.536H18.05C17.9193 23.124 17.7233 23.614 17.462 24.006C17.21 24.398 16.8833 24.692 16.482 24.888C16.0806 25.084 15.586 25.182 14.998 25.182ZM21.2847 25V15.76H22.8107V25H21.2847ZM22.1807 25V23.712H27.9767V25H22.1807ZM22.1807 20.898V19.708H27.3047V20.898H22.1807ZM22.1807 17.034V15.76H27.9627V17.034H22.1807ZM29.6656 25V15.76H33.0536C33.5389 15.76 33.9776 15.7973 34.3696 15.872C34.7616 15.9467 35.1116 16.0587 35.4196 16.208C35.7276 16.3573 35.9889 16.544 36.2036 16.768C36.4182 16.9827 36.5769 17.2347 36.6796 17.524C36.7916 17.804 36.8476 18.1167 36.8476 18.462C36.8476 18.7887 36.7962 19.0873 36.6936 19.358C36.6002 19.6193 36.4509 19.8527 36.2456 20.058C36.0496 20.2633 35.8022 20.4313 35.5036 20.562C35.2142 20.6833 34.8736 20.7673 34.4816 20.814V20.996C34.8642 21.0427 35.1862 21.1407 35.4476 21.29C35.7089 21.4393 35.9282 21.6493 36.1056 21.92C36.2829 22.1907 36.4322 22.5453 36.5536 22.984L37.1276 25H35.4616L35.0136 23.152C34.9202 22.7787 34.7802 22.48 34.5936 22.256C34.4069 22.0227 34.1736 21.8547 33.8936 21.752C33.6136 21.6493 33.2822 21.598 32.8996 21.598H31.1916V25H29.6656ZM31.1916 20.394H32.9416C33.7069 20.394 34.2856 20.254 34.6776 19.974C35.0789 19.694 35.2796 19.2647 35.2796 18.686C35.2796 18.1073 35.0882 17.6827 34.7056 17.412C34.3322 17.132 33.7536 16.992 32.9696 16.992H31.1916V20.394Z" fill="white"/>
<g clip-path="url(#clip0_32_277)">
<path d="M48 17.5L47.1255 20.5043L48 23.5L45.0043 22.6255L42 23.5L42.8745 20.5043L42 17.5L45.0043 18.3745L48 17.5Z" fill="white"/>
</g>
<path d="M53.792 25V18.924H52.42V16.95C52.8773 16.95 53.246 16.8707 53.526 16.712C53.806 16.544 53.988 16.2267 54.072 15.76H56.074V25H53.792ZM57.6189 25V22.76L61.3009 20.45C61.4503 20.3567 61.6043 20.2493 61.7629 20.128C61.9216 20.0067 62.0663 19.8667 62.1969 19.708C62.3369 19.5493 62.4489 19.3767 62.5329 19.19C62.6169 18.994 62.6589 18.7793 62.6589 18.546C62.6589 18.3033 62.6029 18.098 62.4909 17.93C62.3883 17.762 62.2343 17.636 62.0289 17.552C61.8329 17.4587 61.5903 17.412 61.3009 17.412C60.9743 17.412 60.7083 17.4633 60.5029 17.566C60.3069 17.6687 60.1529 17.8133 60.0409 18C59.9383 18.1773 59.8683 18.3827 59.8309 18.616C59.7936 18.8493 59.7749 19.092 59.7749 19.344L57.6049 18.882C57.5863 18.182 57.7263 17.5847 58.0249 17.09C58.3236 16.586 58.7529 16.1987 59.3129 15.928C59.8823 15.6573 60.5589 15.522 61.3429 15.522C62.0336 15.522 62.6449 15.6293 63.1769 15.844C63.7183 16.0587 64.1383 16.3807 64.4369 16.81C64.7449 17.23 64.8989 17.7573 64.8989 18.392C64.8989 18.8587 64.8196 19.2833 64.6609 19.666C64.5023 20.0393 64.2969 20.3707 64.0449 20.66C63.7929 20.9493 63.5129 21.206 63.2049 21.43C62.9063 21.6447 62.6169 21.8313 62.3369 21.99L60.2789 23.138V23.264L65.0109 23.18V25H57.6189ZM68.6689 20.548C68.1462 20.548 67.6795 20.4547 67.2689 20.268C66.8582 20.072 66.5362 19.778 66.3029 19.386C66.0695 18.9847 65.9529 18.4807 65.9529 17.874C65.9529 17.342 66.0322 16.8987 66.1909 16.544C66.3589 16.1893 66.5782 15.9093 66.8489 15.704C67.1195 15.4987 67.4182 15.354 67.7449 15.27C68.0809 15.1767 68.4122 15.13 68.7389 15.13C69.2709 15.13 69.7422 15.228 70.1529 15.424C70.5635 15.6107 70.8855 15.9047 71.1189 16.306C71.3615 16.698 71.4829 17.202 71.4829 17.818C71.4829 18.5087 71.3429 19.0547 71.0629 19.456C70.7829 19.8573 70.4282 20.142 69.9989 20.31C69.5695 20.4687 69.1262 20.548 68.6689 20.548ZM68.7389 18.896C68.8975 18.896 69.0469 18.868 69.1869 18.812C69.3269 18.7467 69.4389 18.644 69.5229 18.504C69.6162 18.3547 69.6629 18.1493 69.6629 17.888C69.6629 17.6173 69.6162 17.4027 69.5229 17.244C69.4389 17.0853 69.3222 16.9687 69.1729 16.894C69.0235 16.8193 68.8602 16.782 68.6829 16.782C68.5242 16.782 68.3749 16.8147 68.2349 16.88C68.0949 16.9453 67.9829 17.0527 67.8989 17.202C67.8149 17.342 67.7729 17.5427 67.7729 17.804C67.7729 18.0653 67.8149 18.28 67.8989 18.448C67.9922 18.6067 68.1135 18.7233 68.2629 18.798C68.4122 18.8633 68.5709 18.896 68.7389 18.896ZM76.3829 25.672C75.8602 25.672 75.3935 25.574 74.9829 25.378C74.5722 25.1913 74.2502 24.902 74.0169 24.51C73.7835 24.1087 73.6669 23.6047 73.6669 22.998C73.6669 22.466 73.7462 22.0227 73.9049 21.668C74.0729 21.3133 74.2922 21.0333 74.5629 20.828C74.8335 20.6227 75.1322 20.478 75.4589 20.394C75.7949 20.3007 76.1262 20.254 76.4529 20.254C76.9849 20.254 77.4562 20.352 77.8669 20.548C78.2775 20.7347 78.5995 21.0287 78.8329 21.43C79.0755 21.822 79.1969 22.326 79.1969 22.942C79.1969 23.6327 79.0569 24.1787 78.7769 24.58C78.4969 24.9813 78.1422 25.2613 77.7129 25.42C77.2835 25.588 76.8402 25.672 76.3829 25.672ZM76.4529 24.02C76.6115 24.02 76.7609 23.992 76.9009 23.936C77.0409 23.8707 77.1529 23.768 77.2369 23.628C77.3302 23.4787 77.3769 23.2733 77.3769 23.012C77.3769 22.7413 77.3302 22.5267 77.2369 22.368C77.1529 22.2093 77.0362 22.0927 76.8869 22.018C76.7375 21.9433 76.5742 21.906 76.3969 21.906C76.2382 21.906 76.0889 21.9387 75.9489 22.004C75.8089 22.0693 75.6969 22.1767 75.6129 22.326C75.5289 22.466 75.4869 22.6667 75.4869 22.928C75.4869 23.1893 75.5289 23.404 75.6129 23.572C75.7062 23.7307 75.8275 23.8473 75.9769 23.922C76.1262 23.9873 76.2849 24.02 76.4529 24.02ZM68.6829 25L74.1429 15.76H76.3129L70.8669 25H68.6829ZM85.8447 25L82.8347 15.76H85.2987L87.3287 23.11H87.5247L89.5547 15.76H91.9907L88.9807 25H85.8447ZM96.8662 25.196C96.1942 25.196 95.5875 25.0933 95.0462 24.888C94.5048 24.6827 94.0382 24.3793 93.6462 23.978C93.2635 23.5767 92.9695 23.082 92.7642 22.494C92.5588 21.8967 92.4562 21.206 92.4562 20.422C92.4562 19.3207 92.6475 18.4153 93.0302 17.706C93.4222 16.9873 93.9588 16.4507 94.6402 16.096C95.3215 15.7413 96.0915 15.564 96.9502 15.564C97.6128 15.564 98.2148 15.6667 98.7562 15.872C99.2975 16.0773 99.7595 16.3807 100.142 16.782C100.534 17.1833 100.833 17.6873 101.038 18.294C101.253 18.8913 101.36 19.582 101.36 20.366C101.36 21.178 101.248 21.8873 101.024 22.494C100.81 23.0913 100.502 23.5907 100.1 23.992C99.7082 24.3933 99.2368 24.6967 98.6862 24.902C98.1355 25.098 97.5288 25.196 96.8662 25.196ZM96.9362 23.432C97.3935 23.432 97.7762 23.32 98.0842 23.096C98.4015 22.8627 98.6395 22.5313 98.7982 22.102C98.9662 21.6633 99.0502 21.1313 99.0502 20.506C99.0502 19.8433 98.9662 19.2833 98.7982 18.826C98.6302 18.3593 98.3828 18.0093 98.0562 17.776C97.7388 17.5333 97.3468 17.412 96.8802 17.412C96.4322 17.412 96.0495 17.5287 95.7322 17.762C95.4242 17.986 95.1862 18.322 95.0182 18.77C94.8502 19.2087 94.7662 19.75 94.7662 20.394C94.7662 20.8793 94.8128 21.3133 94.9062 21.696C95.0088 22.0693 95.1488 22.3867 95.3262 22.648C95.5035 22.9 95.7275 23.096 95.9982 23.236C96.2782 23.3667 96.5908 23.432 96.9362 23.432ZM102.937 25V15.76H105.191V25H102.937ZM103.343 25V23.11H108.957V25H103.343ZM111.281 25.182C110.796 25.182 110.432 25.0793 110.189 24.874C109.956 24.6687 109.839 24.3513 109.839 23.922C109.839 23.4833 109.956 23.1613 110.189 22.956C110.432 22.7507 110.796 22.648 111.281 22.648C111.776 22.648 112.145 22.7507 112.387 22.956C112.63 23.1613 112.751 23.4833 112.751 23.922C112.751 24.762 112.261 25.182 111.281 25.182ZM116.372 25L119.508 15.76H122.812L125.948 25H123.484L121.272 17.524H121.048L118.836 25H116.372ZM118.234 23.264V21.752H124.422V23.264H118.234ZM127.109 25V15.76H129.363V25H127.109ZM127.515 25V23.11H133.129V25H127.515ZM138.435 25.196C137.707 25.196 137.054 25.098 136.475 24.902C135.896 24.706 135.402 24.4073 134.991 24.006C134.59 23.6047 134.282 23.1147 134.067 22.536C133.862 21.948 133.759 21.262 133.759 20.478C133.759 19.6753 133.866 18.9707 134.081 18.364C134.296 17.7573 134.604 17.244 135.005 16.824C135.416 16.404 135.896 16.0913 136.447 15.886C136.998 15.6713 137.609 15.564 138.281 15.564C138.813 15.564 139.298 15.6293 139.737 15.76C140.185 15.8907 140.572 16.0867 140.899 16.348C141.226 16.6 141.478 16.908 141.655 17.272C141.842 17.6267 141.94 18.0327 141.949 18.49L139.863 19.064C139.863 18.6813 139.779 18.3687 139.611 18.126C139.452 17.8833 139.247 17.7013 138.995 17.58C138.752 17.4493 138.486 17.384 138.197 17.384C137.964 17.384 137.721 17.4353 137.469 17.538C137.226 17.6313 137.002 17.7947 136.797 18.028C136.592 18.252 136.428 18.5507 136.307 18.924C136.186 19.2973 136.125 19.764 136.125 20.324C136.125 21.052 136.228 21.64 136.433 22.088C136.638 22.536 136.923 22.8673 137.287 23.082C137.651 23.2873 138.052 23.39 138.491 23.39C138.976 23.39 139.35 23.2873 139.611 23.082C139.882 22.8673 140.073 22.6013 140.185 22.284C140.297 21.9667 140.358 21.6447 140.367 21.318L142.327 21.626C142.318 22.13 142.243 22.6013 142.103 23.04C141.963 23.4787 141.739 23.8613 141.431 24.188C141.132 24.5053 140.736 24.7527 140.241 24.93C139.746 25.1073 139.144 25.196 138.435 25.196ZM147.753 25.196C147.081 25.196 146.474 25.0933 145.933 24.888C145.392 24.6827 144.925 24.3793 144.533 23.978C144.15 23.5767 143.856 23.082 143.651 22.494C143.446 21.8967 143.343 21.206 143.343 20.422C143.343 19.3207 143.534 18.4153 143.917 17.706C144.309 16.9873 144.846 16.4507 145.527 16.096C146.208 15.7413 146.978 15.564 147.837 15.564C148.5 15.564 149.102 15.6667 149.643 15.872C150.184 16.0773 150.646 16.3807 151.029 16.782C151.421 17.1833 151.72 17.6873 151.925 18.294C152.14 18.8913 152.247 19.582 152.247 20.366C152.247 21.178 152.135 21.8873 151.911 22.494C151.696 23.0913 151.388 23.5907 150.987 23.992C150.595 24.3933 150.124 24.6967 149.573 24.902C149.022 25.098 148.416 25.196 147.753 25.196ZM147.823 23.432C148.28 23.432 148.663 23.32 148.971 23.096C149.288 22.8627 149.526 22.5313 149.685 22.102C149.853 21.6633 149.937 21.1313 149.937 20.506C149.937 19.8433 149.853 19.2833 149.685 18.826C149.517 18.3593 149.27 18.0093 148.943 17.776C148.626 17.5333 148.234 17.412 147.767 17.412C147.319 17.412 146.936 17.5287 146.619 17.762C146.311 17.986 146.073 18.322 145.905 18.77C145.737 19.2087 145.653 19.75 145.653 20.394C145.653 20.8793 145.7 21.3133 145.793 21.696C145.896 22.0693 146.036 22.3867 146.213 22.648C146.39 22.9 146.614 23.096 146.885 23.236C147.165 23.3667 147.478 23.432 147.823 23.432ZM159.843 25V15.76H162.097V25H159.843ZM153.823 25V15.76H156.077V25H153.823ZM155.195 21.248V19.428H160.753V21.248H155.195ZM168.124 25.196C167.452 25.196 166.845 25.0933 166.304 24.888C165.763 24.6827 165.296 24.3793 164.904 23.978C164.521 23.5767 164.227 23.082 164.022 22.494C163.817 21.8967 163.714 21.206 163.714 20.422C163.714 19.3207 163.905 18.4153 164.288 17.706C164.68 16.9873 165.217 16.4507 165.898 16.096C166.579 15.7413 167.349 15.564 168.208 15.564C168.871 15.564 169.473 15.6667 170.014 15.872C170.555 16.0773 171.017 16.3807 171.4 16.782C171.792 17.1833 172.091 17.6873 172.296 18.294C172.511 18.8913 172.618 19.582 172.618 20.366C172.618 21.178 172.506 21.8873 172.282 22.494C172.067 23.0913 171.759 23.5907 171.358 23.992C170.966 24.3933 170.495 24.6967 169.944 24.902C169.393 25.098 168.787 25.196 168.124 25.196ZM168.194 23.432C168.651 23.432 169.034 23.32 169.342 23.096C169.659 22.8627 169.897 22.5313 170.056 22.102C170.224 21.6633 170.308 21.1313 170.308 20.506C170.308 19.8433 170.224 19.2833 170.056 18.826C169.888 18.3593 169.641 18.0093 169.314 17.776C168.997 17.5333 168.605 17.412 168.138 17.412C167.69 17.412 167.307 17.5287 166.99 17.762C166.682 17.986 166.444 18.322 166.276 18.77C166.108 19.2087 166.024 19.75 166.024 20.394C166.024 20.8793 166.071 21.3133 166.164 21.696C166.267 22.0693 166.407 22.3867 166.584 22.648C166.761 22.9 166.985 23.096 167.256 23.236C167.536 23.3667 167.849 23.432 168.194 23.432ZM174.195 25V15.76H176.449V25H174.195ZM174.601 25V23.11H180.215V25H174.601Z" fill="white"/>
<g clip-path="url(#clip1_32_277)">
<path d="M191 17.5L190.126 20.5043L191 23.5L188.004 22.6255L185 23.5L185.874 20.5043L185 17.5L188.004 18.3745L191 17.5Z" fill="white"/>
</g>
<path d="M196.148 25V15.76H197.674V25H196.148ZM196.554 25V23.684H201.846V25H196.554ZM203.257 25V15.76H204.783V25H203.257ZM204.153 25V23.712H209.949V25H204.153ZM204.153 20.898V19.708H209.277V20.898H204.153ZM204.153 17.034V15.76H209.935V17.034H204.153ZM211.638 25V15.76H213.976L216.874 23.334H216.944L219.828 15.76H222.068V25H220.612L220.71 17.3H220.584L217.532 25H216.132L213.108 17.3H212.982L213.08 25H211.638ZM228.203 25.182C227.531 25.182 226.934 25.0747 226.411 24.86C225.898 24.636 225.459 24.3187 225.095 23.908C224.74 23.4973 224.47 22.998 224.283 22.41C224.106 21.822 224.017 21.1593 224.017 20.422C224.017 19.3393 224.199 18.4433 224.563 17.734C224.927 17.0153 225.426 16.4787 226.061 16.124C226.696 15.76 227.419 15.578 228.231 15.578C228.866 15.578 229.44 15.6853 229.953 15.9C230.466 16.1053 230.905 16.418 231.269 16.838C231.642 17.2487 231.927 17.7573 232.123 18.364C232.319 18.9613 232.417 19.6427 232.417 20.408C232.417 21.1547 232.324 21.8267 232.137 22.424C231.95 23.012 231.675 23.5113 231.311 23.922C230.947 24.3327 230.504 24.6453 229.981 24.86C229.468 25.0747 228.875 25.182 228.203 25.182ZM228.231 23.908C228.791 23.908 229.267 23.7727 229.659 23.502C230.051 23.2313 230.35 22.844 230.555 22.34C230.76 21.8267 230.863 21.2013 230.863 20.464C230.863 19.708 230.756 19.064 230.541 18.532C230.336 18 230.032 17.594 229.631 17.314C229.239 17.0247 228.763 16.88 228.203 16.88C227.662 16.88 227.19 17.02 226.789 17.3C226.397 17.5707 226.094 17.9673 225.879 18.49C225.674 19.0127 225.571 19.6567 225.571 20.422C225.571 20.982 225.632 21.4813 225.753 21.92C225.874 22.3493 226.047 22.7133 226.271 23.012C226.495 23.3013 226.77 23.5253 227.097 23.684C227.433 23.8333 227.811 23.908 228.231 23.908ZM234.375 25V15.76H236.391L241.025 22.97H241.151L241.053 15.76H242.537V25H240.703L235.887 17.566H235.761L235.859 25H234.375ZM249.035 25V23.712H251.751C252.349 23.712 252.843 23.5767 253.235 23.306C253.627 23.0353 253.917 22.6527 254.103 22.158C254.299 21.6633 254.397 21.08 254.397 20.408C254.397 19.8293 254.337 19.33 254.215 18.91C254.094 18.4807 253.907 18.1307 253.655 17.86C253.413 17.5893 253.1 17.3887 252.717 17.258C252.344 17.118 251.905 17.048 251.401 17.048H249.035V15.76H251.359C252.423 15.76 253.296 15.942 253.977 16.306C254.659 16.67 255.163 17.1927 255.489 17.874C255.816 18.546 255.979 19.358 255.979 20.31C255.979 20.9633 255.905 21.5467 255.755 22.06C255.606 22.564 255.401 23.0027 255.139 23.376C254.887 23.74 254.584 24.0433 254.229 24.286C253.884 24.5287 253.501 24.7107 253.081 24.832C252.671 24.944 252.241 25 251.793 25H249.035ZM248.265 25V15.76H249.791V25H248.265ZM256.778 25L259.998 15.76H262.224L265.444 25H263.792L261.202 17.006H261.02L258.43 25H256.778ZM258.388 23.012V21.892H264.03V23.012H258.388ZM266.955 25V15.76H268.971L273.605 22.97H273.731L273.633 15.76H275.117V25H273.283L268.467 17.566H268.341L268.439 25H266.955ZM280.998 25.182C280.242 25.182 279.565 25.0093 278.968 24.664C278.38 24.3093 277.913 23.782 277.568 23.082C277.232 22.382 277.064 21.5047 277.064 20.45C277.064 19.6847 277.157 19.0033 277.344 18.406C277.531 17.8087 277.811 17.3 278.184 16.88C278.557 16.46 279.01 16.138 279.542 15.914C280.083 15.69 280.709 15.578 281.418 15.578C281.95 15.578 282.431 15.6433 282.86 15.774C283.289 15.9047 283.663 16.0913 283.98 16.334C284.297 16.5767 284.549 16.8707 284.736 17.216C284.932 17.5613 285.044 17.958 285.072 18.406L283.616 18.84C283.588 18.3733 283.467 17.9953 283.252 17.706C283.037 17.4167 282.762 17.2067 282.426 17.076C282.099 16.9453 281.749 16.88 281.376 16.88C280.825 16.88 280.345 17.0013 279.934 17.244C279.533 17.4867 279.22 17.8693 278.996 18.392C278.772 18.9053 278.66 19.5727 278.66 20.394C278.66 21.0287 278.725 21.57 278.856 22.018C278.996 22.4567 279.183 22.816 279.416 23.096C279.659 23.3667 279.943 23.5673 280.27 23.698C280.606 23.8193 280.965 23.88 281.348 23.88C281.815 23.88 282.216 23.796 282.552 23.628C282.888 23.46 283.159 23.2033 283.364 22.858C283.569 22.5127 283.695 22.074 283.742 21.542H281.754V20.38H285.254V21.864V25H284.092L284.274 22.536H284.05C283.919 23.124 283.723 23.614 283.462 24.006C283.21 24.398 282.883 24.692 282.482 24.888C282.081 25.084 281.586 25.182 280.998 25.182ZM287.285 25V15.76H288.811V25H287.285ZM288.181 25V23.712H293.977V25H288.181ZM288.181 20.898V19.708H293.305V20.898H288.181ZM288.181 17.034V15.76H293.963V17.034H288.181ZM295.666 25V15.76H299.054C299.539 15.76 299.978 15.7973 300.37 15.872C300.762 15.9467 301.112 16.0587 301.42 16.208C301.728 16.3573 301.989 16.544 302.204 16.768C302.418 16.9827 302.577 17.2347 302.68 17.524C302.792 17.804 302.848 18.1167 302.848 18.462C302.848 18.7887 302.796 19.0873 302.694 19.358C302.6 19.6193 302.451 19.8527 302.246 20.058C302.05 20.2633 301.802 20.4313 301.504 20.562C301.214 20.6833 300.874 20.7673 300.482 20.814V20.996C300.864 21.0427 301.186 21.1407 301.448 21.29C301.709 21.4393 301.928 21.6493 302.106 21.92C302.283 22.1907 302.432 22.5453 302.554 22.984L303.128 25H301.462L301.014 23.152C300.92 22.7787 300.78 22.48 300.594 22.256C300.407 22.0227 300.174 21.8547 299.894 21.752C299.614 21.6493 299.282 21.598 298.9 21.598H297.192V25H295.666ZM297.192 20.394H298.942C299.707 20.394 300.286 20.254 300.678 19.974C301.079 19.694 301.28 19.2647 301.28 18.686C301.28 18.1073 301.088 17.6827 300.706 17.412C300.332 17.132 299.754 16.992 298.97 16.992H297.192V20.394Z" fill="white"/>
<g clip-path="url(#clip2_32_277)">
<path d="M314 17.5L313.126 20.5043L314 23.5L311.004 22.6255L308 23.5L308.874 20.5043L308 17.5L311.004 18.3745L314 17.5Z" fill="white"/>
</g>
<path d="M319.792 25V18.924H318.42V16.95C318.877 16.95 319.246 16.8707 319.526 16.712C319.806 16.544 319.988 16.2267 320.072 15.76H322.074V25H319.792ZM323.619 25V22.76L327.301 20.45C327.45 20.3567 327.604 20.2493 327.763 20.128C327.922 20.0067 328.066 19.8667 328.197 19.708C328.337 19.5493 328.449 19.3767 328.533 19.19C328.617 18.994 328.659 18.7793 328.659 18.546C328.659 18.3033 328.603 18.098 328.491 17.93C328.388 17.762 328.234 17.636 328.029 17.552C327.833 17.4587 327.59 17.412 327.301 17.412C326.974 17.412 326.708 17.4633 326.503 17.566C326.307 17.6687 326.153 17.8133 326.041 18C325.938 18.1773 325.868 18.3827 325.831 18.616C325.794 18.8493 325.775 19.092 325.775 19.344L323.605 18.882C323.586 18.182 323.726 17.5847 324.025 17.09C324.324 16.586 324.753 16.1987 325.313 15.928C325.882 15.6573 326.559 15.522 327.343 15.522C328.034 15.522 328.645 15.6293 329.177 15.844C329.718 16.0587 330.138 16.3807 330.437 16.81C330.745 17.23 330.899 17.7573 330.899 18.392C330.899 18.8587 330.82 19.2833 330.661 19.666C330.502 20.0393 330.297 20.3707 330.045 20.66C329.793 20.9493 329.513 21.206 329.205 21.43C328.906 21.6447 328.617 21.8313 328.337 21.99L326.279 23.138V23.264L331.011 23.18V25H323.619ZM334.669 20.548C334.146 20.548 333.68 20.4547 333.269 20.268C332.858 20.072 332.536 19.778 332.303 19.386C332.07 18.9847 331.953 18.4807 331.953 17.874C331.953 17.342 332.032 16.8987 332.191 16.544C332.359 16.1893 332.578 15.9093 332.849 15.704C333.12 15.4987 333.418 15.354 333.745 15.27C334.081 15.1767 334.412 15.13 334.739 15.13C335.271 15.13 335.742 15.228 336.153 15.424C336.564 15.6107 336.886 15.9047 337.119 16.306C337.362 16.698 337.483 17.202 337.483 17.818C337.483 18.5087 337.343 19.0547 337.063 19.456C336.783 19.8573 336.428 20.142 335.999 20.31C335.57 20.4687 335.126 20.548 334.669 20.548ZM334.739 18.896C334.898 18.896 335.047 18.868 335.187 18.812C335.327 18.7467 335.439 18.644 335.523 18.504C335.616 18.3547 335.663 18.1493 335.663 17.888C335.663 17.6173 335.616 17.4027 335.523 17.244C335.439 17.0853 335.322 16.9687 335.173 16.894C335.024 16.8193 334.86 16.782 334.683 16.782C334.524 16.782 334.375 16.8147 334.235 16.88C334.095 16.9453 333.983 17.0527 333.899 17.202C333.815 17.342 333.773 17.5427 333.773 17.804C333.773 18.0653 333.815 18.28 333.899 18.448C333.992 18.6067 334.114 18.7233 334.263 18.798C334.412 18.8633 334.571 18.896 334.739 18.896ZM342.383 25.672C341.86 25.672 341.394 25.574 340.983 25.378C340.572 25.1913 340.25 24.902 340.017 24.51C339.784 24.1087 339.667 23.6047 339.667 22.998C339.667 22.466 339.746 22.0227 339.905 21.668C340.073 21.3133 340.292 21.0333 340.563 20.828C340.834 20.6227 341.132 20.478 341.459 20.394C341.795 20.3007 342.126 20.254 342.453 20.254C342.985 20.254 343.456 20.352 343.867 20.548C344.278 20.7347 344.6 21.0287 344.833 21.43C345.076 21.822 345.197 22.326 345.197 22.942C345.197 23.6327 345.057 24.1787 344.777 24.58C344.497 24.9813 344.142 25.2613 343.713 25.42C343.284 25.588 342.84 25.672 342.383 25.672ZM342.453 24.02C342.612 24.02 342.761 23.992 342.901 23.936C343.041 23.8707 343.153 23.768 343.237 23.628C343.33 23.4787 343.377 23.2733 343.377 23.012C343.377 22.7413 343.33 22.5267 343.237 22.368C343.153 22.2093 343.036 22.0927 342.887 22.018C342.738 21.9433 342.574 21.906 342.397 21.906C342.238 21.906 342.089 21.9387 341.949 22.004C341.809 22.0693 341.697 22.1767 341.613 22.326C341.529 22.466 341.487 22.6667 341.487 22.928C341.487 23.1893 341.529 23.404 341.613 23.572C341.706 23.7307 341.828 23.8473 341.977 23.922C342.126 23.9873 342.285 24.02 342.453 24.02ZM334.683 25L340.143 15.76H342.313L336.867 25H334.683ZM351.845 25L348.835 15.76H351.299L353.329 23.11H353.525L355.555 15.76H357.991L354.981 25H351.845ZM362.866 25.196C362.194 25.196 361.588 25.0933 361.046 24.888C360.505 24.6827 360.038 24.3793 359.646 23.978C359.264 23.5767 358.97 23.082 358.764 22.494C358.559 21.8967 358.456 21.206 358.456 20.422C358.456 19.3207 358.648 18.4153 359.03 17.706C359.422 16.9873 359.959 16.4507 360.64 16.096C361.322 15.7413 362.092 15.564 362.95 15.564C363.613 15.564 364.215 15.6667 364.756 15.872C365.298 16.0773 365.76 16.3807 366.142 16.782C366.534 17.1833 366.833 17.6873 367.038 18.294C367.253 18.8913 367.36 19.582 367.36 20.366C367.36 21.178 367.248 21.8873 367.024 22.494C366.81 23.0913 366.502 23.5907 366.1 23.992C365.708 24.3933 365.237 24.6967 364.686 24.902C364.136 25.098 363.529 25.196 362.866 25.196ZM362.936 23.432C363.394 23.432 363.776 23.32 364.084 23.096C364.402 22.8627 364.64 22.5313 364.798 22.102C364.966 21.6633 365.05 21.1313 365.05 20.506C365.05 19.8433 364.966 19.2833 364.798 18.826C364.63 18.3593 364.383 18.0093 364.056 17.776C363.739 17.5333 363.347 17.412 362.88 17.412C362.432 17.412 362.05 17.5287 361.732 17.762C361.424 17.986 361.186 18.322 361.018 18.77C360.85 19.2087 360.766 19.75 360.766 20.394C360.766 20.8793 360.813 21.3133 360.906 21.696C361.009 22.0693 361.149 22.3867 361.326 22.648C361.504 22.9 361.728 23.096 361.998 23.236C362.278 23.3667 362.591 23.432 362.936 23.432ZM368.937 25V15.76H371.191V25H368.937ZM369.343 25V23.11H374.957V25H369.343ZM377.281 25.182C376.796 25.182 376.432 25.0793 376.189 24.874C375.956 24.6687 375.839 24.3513 375.839 23.922C375.839 23.4833 375.956 23.1613 376.189 22.956C376.432 22.7507 376.796 22.648 377.281 22.648C377.776 22.648 378.145 22.7507 378.387 22.956C378.63 23.1613 378.751 23.4833 378.751 23.922C378.751 24.762 378.261 25.182 377.281 25.182ZM382.372 25L385.508 15.76H388.812L391.948 25H389.484L387.272 17.524H387.048L384.836 25H382.372ZM384.234 23.264V21.752H390.422V23.264H384.234ZM393.109 25V15.76H395.363V25H393.109ZM393.515 25V23.11H399.129V25H393.515ZM404.435 25.196C403.707 25.196 403.054 25.098 402.475 24.902C401.896 24.706 401.402 24.4073 400.991 24.006C400.59 23.6047 400.282 23.1147 400.067 22.536C399.862 21.948 399.759 21.262 399.759 20.478C399.759 19.6753 399.866 18.9707 400.081 18.364C400.296 17.7573 400.604 17.244 401.005 16.824C401.416 16.404 401.896 16.0913 402.447 15.886C402.998 15.6713 403.609 15.564 404.281 15.564C404.813 15.564 405.298 15.6293 405.737 15.76C406.185 15.8907 406.572 16.0867 406.899 16.348C407.226 16.6 407.478 16.908 407.655 17.272C407.842 17.6267 407.94 18.0327 407.949 18.49L405.863 19.064C405.863 18.6813 405.779 18.3687 405.611 18.126C405.452 17.8833 405.247 17.7013 404.995 17.58C404.752 17.4493 404.486 17.384 404.197 17.384C403.964 17.384 403.721 17.4353 403.469 17.538C403.226 17.6313 403.002 17.7947 402.797 18.028C402.592 18.252 402.428 18.5507 402.307 18.924C402.186 19.2973 402.125 19.764 402.125 20.324C402.125 21.052 402.228 21.64 402.433 22.088C402.638 22.536 402.923 22.8673 403.287 23.082C403.651 23.2873 404.052 23.39 404.491 23.39C404.976 23.39 405.35 23.2873 405.611 23.082C405.882 22.8673 406.073 22.6013 406.185 22.284C406.297 21.9667 406.358 21.6447 406.367 21.318L408.327 21.626C408.318 22.13 408.243 22.6013 408.103 23.04C407.963 23.4787 407.739 23.8613 407.431 24.188C407.132 24.5053 406.736 24.7527 406.241 24.93C405.746 25.1073 405.144 25.196 404.435 25.196ZM413.753 25.196C413.081 25.196 412.474 25.0933 411.933 24.888C411.392 24.6827 410.925 24.3793 410.533 23.978C410.15 23.5767 409.856 23.082 409.651 22.494C409.446 21.8967 409.343 21.206 409.343 20.422C409.343 19.3207 409.534 18.4153 409.917 17.706C410.309 16.9873 410.846 16.4507 411.527 16.096C412.208 15.7413 412.978 15.564 413.837 15.564C414.5 15.564 415.102 15.6667 415.643 15.872C416.184 16.0773 416.646 16.3807 417.029 16.782C417.421 17.1833 417.72 17.6873 417.925 18.294C418.14 18.8913 418.247 19.582 418.247 20.366C418.247 21.178 418.135 21.8873 417.911 22.494C417.696 23.0913 417.388 23.5907 416.987 23.992C416.595 24.3933 416.124 24.6967 415.573 24.902C415.022 25.098 414.416 25.196 413.753 25.196ZM413.823 23.432C414.28 23.432 414.663 23.32 414.971 23.096C415.288 22.8627 415.526 22.5313 415.685 22.102C415.853 21.6633 415.937 21.1313 415.937 20.506C415.937 19.8433 415.853 19.2833 415.685 18.826C415.517 18.3593 415.27 18.0093 414.943 17.776C414.626 17.5333 414.234 17.412 413.767 17.412C413.319 17.412 412.936 17.5287 412.619 17.762C412.311 17.986 412.073 18.322 411.905 18.77C411.737 19.2087 411.653 19.75 411.653 20.394C411.653 20.8793 411.7 21.3133 411.793 21.696C411.896 22.0693 412.036 22.3867 412.213 22.648C412.39 22.9 412.614 23.096 412.885 23.236C413.165 23.3667 413.478 23.432 413.823 23.432ZM425.843 25V15.76H428.097V25H425.843ZM419.823 25V15.76H422.077V25H419.823ZM421.195 21.248V19.428H426.753V21.248H421.195ZM434.124 25.196C433.452 25.196 432.845 25.0933 432.304 24.888C431.763 24.6827 431.296 24.3793 430.904 23.978C430.521 23.5767 430.227 23.082 430.022 22.494C429.817 21.8967 429.714 21.206 429.714 20.422C429.714 19.3207 429.905 18.4153 430.288 17.706C430.68 16.9873 431.217 16.4507 431.898 16.096C432.579 15.7413 433.349 15.564 434.208 15.564C434.871 15.564 435.473 15.6667 436.014 15.872C436.555 16.0773 437.017 16.3807 437.4 16.782C437.792 17.1833 438.091 17.6873 438.296 18.294C438.511 18.8913 438.618 19.582 438.618 20.366C438.618 21.178 438.506 21.8873 438.282 22.494C438.067 23.0913 437.759 23.5907 437.358 23.992C436.966 24.3933 436.495 24.6967 435.944 24.902C435.393 25.098 434.787 25.196 434.124 25.196ZM434.194 23.432C434.651 23.432 435.034 23.32 435.342 23.096C435.659 22.8627 435.897 22.5313 436.056 22.102C436.224 21.6633 436.308 21.1313 436.308 20.506C436.308 19.8433 436.224 19.2833 436.056 18.826C435.888 18.3593 435.641 18.0093 435.314 17.776C434.997 17.5333 434.605 17.412 434.138 17.412C433.69 17.412 433.307 17.5287 432.99 17.762C432.682 17.986 432.444 18.322 432.276 18.77C432.108 19.2087 432.024 19.75 432.024 20.394C432.024 20.8793 432.071 21.3133 432.164 21.696C432.267 22.0693 432.407 22.3867 432.584 22.648C432.761 22.9 432.985 23.096 433.256 23.236C433.536 23.3667 433.849 23.432 434.194 23.432ZM440.195 25V15.76H442.449V25H440.195ZM440.601 25V23.11H446.215V25H440.601Z" fill="white"/>
<defs>
<clipPath id="clip0_32_277">
<rect width="6" height="6" fill="white" transform="translate(42 17.5)"/>
</clipPath>
<clipPath id="clip1_32_277">
<rect width="6" height="6" fill="white" transform="translate(185 17.5)"/>
</clipPath>
<clipPath id="clip2_32_277">
<rect width="6" height="6" fill="white" transform="translate(308 17.5)"/>
</clipPath>
</defs>
</svg>
