<?xml version="1.0" encoding="utf-8"?>
<!-- Generator: Adobe Illustrator 25.4.0, SVG Export Plug-In . SVG Version: 6.00 Build 0)  -->
<svg version="1.1" id="Capa_1" xmlns="http://www.w3.org/2000/svg" xmlns:xlink="http://www.w3.org/1999/xlink" x="0px" y="0px"
	 viewBox="0 0 355.49 198.37" style="enable-background:new 0 0 355.49 198.37;" xml:space="preserve">
<style type="text/css">
	.st0{fill:#C8D12A;}
	.st1{fill:url(#);}
	.st2{fill:#050504;}
	.st3{fill:#FFFFFF;}
	.st4{fill:none;stroke:#FFFFFF;stroke-width:22.4065;}
	.st5{fill:none;stroke:#FFFFFF;stroke-width:11.3663;}
	.st6{fill:#C8D12A;stroke:#000000;stroke-width:5.1402;stroke-miterlimit:10;}
	.st7{fill:#030405;}
	.st8{fill:#C6CF31;}
	.st9{stroke:#000000;stroke-width:5.1402;stroke-miterlimit:10;}
	.st10{stroke:#FFFFFF;stroke-width:4;stroke-linecap:round;stroke-linejoin:round;stroke-miterlimit:10;}
	.st11{fill:none;stroke:#FFFFFF;stroke-width:4;stroke-linejoin:round;stroke-miterlimit:10;}
	.st12{clip-path:url(#SVGID_00000076586117212206046470000007017642120548516016_);}
	.st13{fill:#C8D12A;stroke:#000000;stroke-width:5.6822;stroke-miterlimit:10;}
	.st14{stroke:#FFFFFF;stroke-width:2.9639;stroke-miterlimit:10;}
	.st15{fill:#00993D;}
	.st16{clip-path:url(#SVGID_00000075843578127354693560000007247022250911789195_);}
	.st17{fill:#C8D12A;stroke:#000000;stroke-width:5.5;stroke-miterlimit:10;}
	.st18{clip-path:url(#SVGID_00000042727159202259134440000007416159893653028762_);}
	.st19{stroke:#FFFFFF;stroke-width:4;stroke-miterlimit:10;}
	.st20{stroke:#000000;stroke-width:2.5698;stroke-miterlimit:10;}
	.st21{fill:#C8D12A;stroke:#000000;stroke-width:2.569;stroke-miterlimit:10;}
	.st22{stroke:#000000;stroke-width:2.569;stroke-miterlimit:10;}
	.st23{stroke:#FFFFFF;stroke-width:1.9992;stroke-linecap:round;stroke-linejoin:round;stroke-miterlimit:10;}
	.st24{clip-path:url(#SVGID_00000128472787856320252820000013858123064781639339_);}
	.st25{fill:#C8D12A;stroke:#000000;stroke-width:2.8287;stroke-miterlimit:10;}
	.st26{stroke:#FFFFFF;stroke-width:1.4755;stroke-miterlimit:10;}
	.st27{clip-path:url(#SVGID_00000121991915946181890690000002595333958009086091_);}
	.st28{clip-path:url(#SVGID_00000073716233909475458070000009089904803232919430_);}
	.st29{clip-path:url(#SVGID_00000157998657117901960410000013658406247688324256_);}
	.st30{clip-path:url(#SVGID_00000049212613756961031010000008372003120108386179_);}
	.st31{fill:#C8D12A;stroke:#000000;stroke-width:2.4552;stroke-miterlimit:10;}
	.st32{stroke:#FFFFFF;stroke-width:1.2719;stroke-miterlimit:10;}
	.st33{fill:#C8D12A;stroke:#000000;stroke-width:2.1112;stroke-miterlimit:10;}
	.st34{stroke:#000000;stroke-width:2.1112;stroke-miterlimit:10;}
	.st35{stroke:#FFFFFF;stroke-width:1.6429;stroke-linecap:round;stroke-linejoin:round;stroke-miterlimit:10;}
	.st36{clip-path:url(#SVGID_00000133522387003890398430000018246149036094294162_);}
	.st37{stroke:#000000;stroke-width:2.1118;stroke-miterlimit:10;}
	.st38{clip-path:url(#SVGID_00000025431182807203584120000017164678710119168958_);}
	.st39{clip-path:url(#SVGID_00000050660354566791744180000015661274234925205678_);}
	.st40{clip-path:url(#SVGID_00000139272108762435880070000011191805988911890859_);}
	.st41{opacity:0.9;fill:#00993D;}
	.st42{opacity:0.9;fill:#FFFFFF;}
</style>
<g>
	<g>
		<path d="M167.29,51.59l2.12-0.01c2.21,0.05,3.82,0.15,4.83,0.29c1.01,0.15,1.83,0.46,2.44,0.95c0.62,0.49,1.39,1.34,2.32,2.56
			l11.69,15.38c0.25,0.37,0.43,0.49,0.55,0.36c0.12-0.12,0.29-2.09,0.51-5.89c0.06-0.49,0.08-1.2,0.08-2.12
			c0.28-4.05,0.54-6.8,0.78-8.24c0.24-1.44,0.72-2.41,1.46-2.91c0.73-0.49,2.02-0.75,3.86-0.76l4.51,0.06
			c2.58-0.02,4.23,0.1,4.97,0.34c0.8,0.24,1.29,0.82,1.48,1.74c0.26,1.59,0.45,7.33,0.57,17.2c0.01,1.9,0.05,3.53,0.12,4.88
			l0.03,4.32c0.04,6.62-0.11,11.13-0.47,13.53c-0.24,1.6-0.55,2.72-0.94,3.36c-0.4,0.65-0.94,1.06-1.65,1.25
			c-0.7,0.19-2.01,0.41-3.91,0.67c-2.64,0.32-4.75,0.49-6.34,0.5c-1.23,0.01-2.01-0.05-2.35-0.17c-0.34-0.12-0.75-0.46-1.25-1
			c-0.86-0.85-2.19-2.65-3.99-5.4c-6.19-9.16-9.44-13.77-9.75-13.83c-0.12,0-0.24,1.44-0.34,4.33c-0.25,8.83-0.65,13.53-1.2,14.08
			c-0.61,0.62-2.39,0.94-5.33,0.95c-0.43,0-0.83-0.02-1.2-0.08l-1.38,0.01c-0.62-0.06-1.81-0.13-3.59-0.21
			c-1.78-0.08-2.78-0.38-3-0.9c-0.22-0.52-0.39-1.55-0.53-3.08c-0.2-2.14-0.33-8.61-0.4-19.41c-0.07-10.24-0.04-16.65,0.06-19.23
			c0.05-1.84,0.53-2.95,1.45-3.32C164.13,51.67,165.39,51.6,167.29,51.59z"/>
		<path d="M225.41,62.91l2.48-0.02l1.01-0.01c0.86-0.01,1.57,0.08,2.12,0.26c0.49,0.18,0.82,0.39,0.97,0.64
			c0.15,0.24,0.27,0.73,0.33,1.47c0.13,1.59,0.23,7.27,0.29,17.02c0.07,10.24-0.02,15.49-0.27,15.73c-0.49,0.49-2.42,0.75-5.79,0.77
			l-3.31,0.02l-2.49-0.08c-1.47,0.01-2.33-0.02-2.58-0.08c-0.61-0.06-1.1-0.27-1.48-0.63l-0.74-0.73l-0.17-12.42L215.78,81
			c-0.07-10.73,0.26-16.5,0.99-17.3c0.3-0.37,2.26-0.6,5.88-0.68C223.82,63.01,224.74,62.97,225.41,62.91z M224.02,45.89
			c2.02-0.01,3.78,0.68,5.26,2.08c1.48,1.4,2.23,2.96,2.24,4.68l0.01,1.2c-0.11,1.78-0.81,3.18-2.09,4.2
			c-1.28,1.02-3,1.54-5.14,1.55l-0.55,0c-2.15-0.11-3.88-0.73-5.21-1.85c-1.33-1.13-2-2.58-2.01-4.36
			c-0.01-0.92,0.14-1.76,0.44-2.53c0.3-0.77,0.88-1.62,1.73-2.54C220.22,46.72,221.99,45.91,224.02,45.89z"/>
		<path d="M272.85,56.99c0.74,0,2.39,0.37,4.97,1.12c2.58,0.75,4.3,1.37,5.16,1.85c0.86,0.55,1.3,1.31,1.3,2.29
			c0.01,0.98-0.66,2.95-1.99,5.9l-1.18,2.77c-1.27,2.83-2.08,4.77-2.45,5.81c-1.45,3.63-3.32,7.87-5.62,12.73
			c-2.3,4.86-3.69,7.57-4.18,8.12c-0.49,0.43-0.95,0.71-1.38,0.84c-0.49,0.13-1.62,0.23-3.4,0.3l-1.38,0.01
			c-5.58,0.04-9.08-0.46-10.5-1.5c-0.49-0.36-1.88-3.13-4.15-8.3c-2.27-5.17-4.39-10.4-6.36-15.69c-1.97-5.29-2.95-8.74-2.96-10.33
			c-0.01-0.92,0.72-1.77,2.19-2.54c1.47-0.78,3.17-1.41,5.09-1.92c1.93-0.5,3.44-0.76,4.55-0.77c0.55,0,1.01,0.06,1.38,0.18
			c0.8,0.24,1.54,1.13,2.23,2.65c0.5,1.16,1.69,4.71,3.56,10.65c1.5,4.84,2.31,7.32,2.44,7.44l0.27-0.37
			c0.42-0.55,0.88-1.42,1.36-2.58c0.85-1.91,2.6-5.32,5.27-10.25c2.67-4.92,4.18-7.57,4.55-7.94
			C271.96,57.15,272.36,56.99,272.85,56.99z"/>
		<path d="M311.28,53.89l1.2-0.01c2.52,0.11,4.51,0.52,5.99,1.25s3.29,2.16,5.46,4.29c3.33,3.29,5.47,6.84,6.42,10.63
			c0.32,1.53,0.48,2.82,0.49,3.86c0.02,3.74-0.58,5.86-1.8,6.36l-15.27,0.1c-4.85,0.03-7.27,0.08-7.27,0.14
			c0,0.74,0.71,1.51,2.13,2.33c1.42,0.82,3.08,1.44,4.98,1.85c1.04,0.18,1.99,0.26,2.85,0.26c1.41-0.01,3.28-0.39,5.6-1.14
			c1.78-0.5,2.91-0.75,3.4-0.76c0.61,0,1.11,0.18,1.48,0.54c0.43,0.61,1.08,1.74,1.95,3.39c0.87,1.65,1.31,2.81,1.31,3.49
			c0.01,1.35-1.12,2.68-3.38,3.98c-2.2,1.36-4.51,2.33-6.93,2.9c-2.42,0.57-5.28,0.86-8.6,0.88c-4.05,0.03-7.18-0.32-9.39-1.04
			c-2.21-0.72-4.58-2.3-7.11-4.74c-2.53-2.44-4.26-4.82-5.2-7.14c-0.93-2.32-1.41-5.05-1.43-8.18c-0.02-3.43,0.46-6.57,1.46-9.39
			c0.99-2.83,2.89-5.45,5.7-7.86c2.93-2.59,6.66-4.43,11.19-5.5C308.03,54.07,309.63,53.9,311.28,53.89z M311.09,66.41
			c-1.35,0.01-2.53,0.42-3.53,1.22c-1.01,0.8-1.54,1.82-1.59,3.05l-0.08,1.1l4.51,0.25l3.77,0.16l0.46,0c0.24,0,0.4-0.03,0.46-0.09
			l0.18,0l0.18,0c0.25-0.06,0.37-0.43,0.36-1.11c0-0.8-0.19-1.56-0.57-2.3C314.44,67.15,313.05,66.4,311.09,66.41z"/>
		<path d="M341.61,47.9l2.21-0.01c4.72,0.03,7.3,0.66,7.74,1.88c0.19,1.1,0.36,8.8,0.52,23.09l0.08,11.96
			c0.03,5.21-0.01,8.68-0.12,10.4c-0.05,1.35-0.39,2.12-1,2.31c-0.8,0.19-2.82,0.33-6.07,0.41c-0.61,0.07-1.75,0.1-3.4,0.11
			c-1.72,0.01-2.9-0.12-3.54-0.39c-0.65-0.27-1.02-0.67-1.11-1.19c-0.09-0.52-0.15-1.58-0.16-3.17l0.08-2.02l-0.01-2.39
			c-0.01-0.86,0.02-1.62,0.08-2.3l-0.02-2.39c-0.02-3.07-0.13-5.64-0.33-7.73c-0.46-5.15-0.71-10.18-0.74-15.08
			c-0.02-3.37,0.13-6.35,0.45-8.93c0.32-2.58,0.91-4.02,1.77-4.34C338.63,47.98,339.83,47.92,341.61,47.9z"/>
	</g>
	<g>
		<path d="M172.04,114.58l3.05-0.02c3.71,0.12,5.96,0.25,6.76,0.39c1.02,0.21,1.75,0.72,2.19,1.51c0.37,0.73,0.61,3.88,0.71,9.48
			c0.1,3.92,0.22,6.39,0.38,7.41c0.08,0.87,0.34,1.45,0.77,1.74c0.51,0.29,3.13,0.42,7.85,0.39c3.12-0.02,5.05-0.1,5.77-0.25
			l1.52-0.34l-0.05-7.85c-0.03-4.21,0.03-7.07,0.16-8.56c0.14-1.49,0.49-2.49,1.07-3c0.58-0.51,1.7-0.77,3.38-0.78l4.14,0.08
			c5.09-0.03,8.25,0.2,9.49,0.7c1.09,0.43,1.82,1.04,2.19,1.84c0.29,0.8,0.45,2.98,0.48,6.54c0.02,3.13-0.05,8.47-0.22,16.02
			c-0.31,20.06-0.79,30.6-1.43,31.62c-0.58,0.8-1.41,1.32-2.5,1.54c-1.16,0.23-3.56,0.35-7.19,0.37l-0.54,0
			c-2.98,0.02-5.07-0.08-6.27-0.29c-1.2-0.21-2-0.71-2.41-1.51c-0.41-0.8-0.61-2.18-0.63-4.14l0.18-6.21c0.06-1.16,0.09-3.16,0.07-6
			c-0.01-1.67-0.09-2.58-0.24-2.72c-0.29-0.29-3.24-0.42-8.83-0.38c-1.53,0.01-2.74-0.02-3.65-0.09c-0.91-0.07-1.62-0.1-2.13-0.1
			c-1.02,0.01-1.63,0.23-1.85,0.67c-0.22,0.44-0.36,1.6-0.41,3.49c0.01,1.6-0.02,2.98-0.08,4.14c-0.05,3.2-0.18,5.96-0.38,8.29
			c-0.21,1.31-0.57,2.15-1.07,2.51c-0.43,0.44-2.14,0.67-5.12,0.69l-4.03,0.03l-5.56,0.04c-1.89,0.01-3.09-0.22-3.6-0.69
			c-0.51-0.47-0.77-1.68-0.79-3.65l0.07-5.45c-0.04-6.76-0.04-11.59,0.02-14.5c0.09-19.33,0.54-29.8,1.33-31.4
			c0.07-0.22,0.23-0.42,0.49-0.6c0.25-0.18,0.52-0.31,0.81-0.39c-0.07,0,0.25-0.07,0.98-0.22c0.14-0.07,0.29-0.11,0.43-0.11
			c0.15,0,0.25-0.04,0.33-0.11C167.82,114.64,169.27,114.6,172.04,114.58z"/>
		<path d="M256.56,122.54c2.47-0.02,4.87,0.15,7.2,0.5c5.46,0.98,10.12,3.1,13.99,6.34c3.87,3.25,6.26,7.05,7.16,11.4
			c0.22,0.94,0.34,2.18,0.35,3.7c0.03,4.43-0.62,8.34-1.94,11.73c-1.32,3.39-3.5,6.58-6.53,9.58c-2.82,2.78-5.71,4.71-8.68,5.78
			c-2.97,1.07-6.06,1.62-9.26,1.64c-5.6,0.04-10.69-1.28-15.28-3.94c-4.6-2.66-8.2-5.98-10.8-9.96c-2.61-3.98-3.92-7.79-3.94-11.42
			c-0.01-1.16,0.16-2.91,0.51-5.24c2.32-11.71,8.97-18.26,19.93-19.64C251.88,122.72,254.31,122.56,256.56,122.54z M257.54,139.87
			c-1.02,0.01-1.89,0.27-2.61,0.78c-2.61,1.62-3.9,3.91-3.88,6.89c0.01,1.09,0.3,2.32,0.9,3.7c1.33,2.68,3.41,4.01,6.24,3.99
			c1.53-0.01,2.83-0.51,3.91-1.5c1.08-0.99,1.73-2.25,1.94-3.77c0.07-0.22,0.1-0.65,0.1-1.31c-0.01-1.74-0.42-3.41-1.23-5.01
			c-0.81-1.59-1.8-2.68-2.96-3.25C259.07,140.04,258.27,139.86,257.54,139.87z"/>
		<path d="M312.4,109.32c4.07-0.03,6.61,0.03,7.63,0.17c1.24,0.28,1.98,0.55,2.24,0.8c0.25,0.25,0.39,0.81,0.39,1.69l-0.18,5.78
			l-0.2,3.49l-0.1,1.31l5.23,0.08c1.02-0.01,1.74,0.03,2.18,0.1c1.82-0.01,3.02,0.13,3.6,0.41c0.58,0.29,0.95,1.05,1.11,2.28
			c0.15,1.24,0.24,3.78,0.27,7.63l0.01,1.85c0.01,2.04-0.07,3.42-0.25,4.14c-0.18,0.73-0.58,1.2-1.19,1.42
			c-0.62,0.22-1.8,0.34-3.54,0.35l-6.98,0.04l-0.31,2.29c-0.14,1.74-0.2,2.84-0.2,3.27c0.05,7.56,2,11.32,5.85,11.3
			c0.8-0.01,1.85-0.39,3.15-1.16c1.3-0.77,2.1-1.34,2.39-1.7c0.22-0.29,0.47-0.44,0.76-0.44c0.65,0,1.49,0.5,2.52,1.51
			c1.17,1.16,2.29,2.55,3.35,4.18c1.06,1.63,1.6,2.73,1.6,3.31c0,0.87-0.99,2.11-2.97,3.72c-1.99,1.61-4.32,3.04-7,4.3
			c-3.48,1.62-7.25,2.44-11.32,2.47c-2.54,0.02-4.74-0.41-6.6-1.27c-1.86-0.86-3.85-2.37-5.97-4.54c-2.49-2.45-4.28-5.1-5.39-7.92
			c-1.11-2.83-1.68-7.11-1.72-12.85l-0.02-2.51l-0.01-1.53c-0.08-0.22-0.11-0.58-0.12-1.09c0-0.36-0.08-0.62-0.22-0.76l-0.44-0.43
			c-0.08-0.22-0.59-0.32-1.53-0.32l-1.31-0.1l-1.74,0.01c-1.53-0.14-2.51-0.24-2.95-0.31c-0.44-0.07-0.84-0.39-1.21-0.97
			c-0.29-0.51-0.45-1.45-0.45-2.83c-0.01-1.96,0.01-3.31,0.08-4.03c0.13-2.18,0.2-3.56,0.19-4.14c0.07-0.94,0.12-1.74,0.15-2.4
			c0.03-0.65,0.08-1.09,0.16-1.31l0.43-1.53l4.47-0.25c2.18-0.09,3.49-0.2,3.92-0.35c0.36-0.15,0.58-0.37,0.65-0.66
			c0.06-1.6,0.21-3.82,0.45-6.65c0.24-2.84,0.46-4.36,0.68-4.58c0.36-0.44,1.19-0.77,2.5-1C305.75,109.44,308.4,109.35,312.4,109.32
			z"/>
	</g>
	<path d="M31.92,30.83c23.03,21.17-22.72,49.35,2.06,76.19C11.13,81.76,69.02,32.74,54.86,0c51.85,22.16,16.48,65.97,46.43,86.55
		c-12.64-8.56-2.35-41.47,15.75-50.32c-24.4,27.7,69.44,91.45-14.93,134.47c40.26-52.99-35.92-64.91-36.61-83.69
		c-0.03,18.68,35.76,53.4,7.47,90.91c-1.84-21.11-36.94-28.07-39.79-51.92c1.83,16.01-2.3,36.15,10.56,49.06
		c-33.51-13.2-52.4-40.58-39.84-81.49C10.17,73.2,39.98,50.16,31.92,30.83"/>
</g>
</svg>
