<?xml version="1.0" encoding="utf-8"?>
<!-- Generator: Adobe Illustrator 25.4.0, SVG Export Plug-In . SVG Version: 6.00 Build 0)  -->
<svg version="1.1" id="Capa_1" xmlns="http://www.w3.org/2000/svg" xmlns:xlink="http://www.w3.org/1999/xlink" x="0px" y="0px"
	 viewBox="0 0 835.1 208.37" style="enable-background:new 0 0 835.1 208.37;" xml:space="preserve">
<style type="text/css">
	.st0{fill:#C8D12A;}
	.st1{fill:url(#);}
	.st2{fill:#050504;}
	.st3{fill:#FFFFFF;}
	.st4{fill:none;stroke:#FFFFFF;stroke-width:22.4065;}
	.st5{fill:none;stroke:#FFFFFF;stroke-width:11.3663;}
	.st6{fill:#C8D12A;stroke:#000000;stroke-width:5.1402;stroke-miterlimit:10;}
	.st7{fill:#030405;}
	.st8{fill:#C6CF31;}
	.st9{stroke:#000000;stroke-width:5.1402;stroke-miterlimit:10;}
	.st10{stroke:#FFFFFF;stroke-width:4;stroke-linecap:round;stroke-linejoin:round;stroke-miterlimit:10;}
	.st11{fill:none;stroke:#FFFFFF;stroke-width:4;stroke-linejoin:round;stroke-miterlimit:10;}
	.st12{clip-path:url(#SVGID_00000039103801832710556790000008786551894562019214_);}
	.st13{fill:#C8D12A;stroke:#000000;stroke-width:5.6822;stroke-miterlimit:10;}
	.st14{stroke:#FFFFFF;stroke-width:2.9639;stroke-miterlimit:10;}
	.st15{fill:#00993D;}
	.st16{clip-path:url(#SVGID_00000029034289359326337610000017387630537068553386_);}
	.st17{fill:#C8D12A;stroke:#000000;stroke-width:5.5;stroke-miterlimit:10;}
	.st18{clip-path:url(#SVGID_00000080919267521998139130000013749377480344714399_);}
	.st19{stroke:#FFFFFF;stroke-width:4;stroke-miterlimit:10;}
	.st20{stroke:#000000;stroke-width:2.5698;stroke-miterlimit:10;}
	.st21{fill:#C8D12A;stroke:#000000;stroke-width:2.569;stroke-miterlimit:10;}
	.st22{stroke:#000000;stroke-width:2.569;stroke-miterlimit:10;}
	.st23{stroke:#FFFFFF;stroke-width:1.9992;stroke-linecap:round;stroke-linejoin:round;stroke-miterlimit:10;}
	.st24{clip-path:url(#SVGID_00000093145969668741086620000012805034652956115115_);}
	.st25{fill:#C8D12A;stroke:#000000;stroke-width:2.8287;stroke-miterlimit:10;}
	.st26{stroke:#FFFFFF;stroke-width:1.4755;stroke-miterlimit:10;}
	.st27{clip-path:url(#SVGID_00000183945601845096859990000010193814184605935793_);}
	.st28{clip-path:url(#SVGID_00000053529754428222380150000007932843308510177678_);}
	.st29{clip-path:url(#SVGID_00000013889561761129476430000000224685502007115182_);}
	.st30{clip-path:url(#SVGID_00000177455576881219217810000004510329302616948113_);}
	.st31{fill:#C8D12A;stroke:#000000;stroke-width:2.4552;stroke-miterlimit:10;}
	.st32{stroke:#FFFFFF;stroke-width:1.2719;stroke-miterlimit:10;}
	.st33{fill:#C8D12A;stroke:#000000;stroke-width:2.1112;stroke-miterlimit:10;}
	.st34{stroke:#000000;stroke-width:2.1112;stroke-miterlimit:10;}
	.st35{stroke:#FFFFFF;stroke-width:1.6429;stroke-linecap:round;stroke-linejoin:round;stroke-miterlimit:10;}
	.st36{clip-path:url(#SVGID_00000019679636587435105820000010858968327775825059_);}
	.st37{stroke:#000000;stroke-width:2.1118;stroke-miterlimit:10;}
	.st38{clip-path:url(#SVGID_00000180365750965203061890000010211664672109056420_);}
	.st39{clip-path:url(#SVGID_00000008140199824569064400000015345081555885050024_);}
	.st40{clip-path:url(#SVGID_00000022525302868482364570000012664657627836417726_);}
	.st41{opacity:0.9;fill:#00993D;}
	.st42{opacity:0.9;fill:#FFFFFF;}
</style>
<g>
	<path class="st2" d="M10.26,0l7.43,0.59c9.48,0.76,16.89,1.67,22.2,2.75c5.32,1.07,9.57,2.74,12.76,5
		c3.19,2.26,5.54,5.41,7.06,9.45c0.68,1.97,1.06,3.38,1.17,4.2c0.09,0.84,0.03,2.6-0.2,5.27c-0.32,3.81-0.86,6.6-1.6,8.37
		c-3.81,9.02-10.5,14.58-20.05,16.7c-2.42,0.59-5.43,0.74-9.04,0.46l-5.29-0.42l-0.39,1.54c-0.01,0.09-0.17,0.99-0.48,2.7
		l-0.71,3.87c-0.6,3.09-1.24,5.12-1.91,6.12c-0.57,0.73-1.49,1.05-2.74,0.95l-4.26-0.6c-8.11-1.08-12.66-2.18-13.66-3.3
		c-0.46-0.56-0.63-1.57-0.5-3.05c0.24-2.85,0.74-6.74,1.5-11.64c1.29-8.17,2.34-17.1,3.17-26.79C5.38,14.2,5.99,9.02,6.53,6.63
		C7,4.05,7.78,2.28,8.88,1.32L10.26,0z M29.57,20.47c-1.01-0.08-1.7,0.04-2.07,0.36c-0.45,0.4-0.86,2.67-1.21,6.83
		c-0.23,2.77-0.31,4.68-0.23,5.73c0.1,0.79,0.57,1.22,1.41,1.29l1.79-0.12c2.04-0.19,3.79-0.94,5.26-2.26
		c1.47-1.32,2.28-2.93,2.44-4.83c0.13-1.47,0.07-2.52-0.17-3.15c-0.25-0.62-0.8-1.28-1.67-1.96C33.76,21.29,31.91,20.66,29.57,20.47
		z"/>
	<path class="st2" d="M114.03,16.99c4.69,0.37,8.32,0.97,10.88,1.78c1.8,0.58,3.11,1.38,3.92,2.4c0.8,1.03,1.32,2.54,1.58,4.57
		c0.15,1.14-0.05,5-0.61,11.57c-1.26,14.8-2.41,24.85-3.46,30.17c-0.49,2.84-1.03,4.75-1.63,5.75c-0.59,0.99-1.64,1.61-3.13,1.84
		c-1.5,0.23-4.31,0.27-8.44,0.11c-1.1,0-2.91-0.1-5.42-0.3c-1.85-0.15-3.05-0.44-3.61-0.87c-0.55-0.44-1.07-1.37-1.53-2.8
		c-0.47-1.43-0.88-2.15-1.21-2.18c-0.34-0.03-1.69,0.43-4.05,1.37c-3.67,1.45-7.1,2.05-10.29,1.8c-3.36-0.26-6.77-1.84-10.25-4.73
		c-3.47-2.89-6.27-6.5-8.39-10.86c-2.12-4.35-3-8.68-2.63-13.01c0.16-1.9,0.46-3.4,0.89-4.5l0.54-1.92l0.37-1.41
		c0.42-1.97,2.15-4.96,5.2-8.99c4.67-6.25,10.26-9.9,16.78-10.95c1.28-0.15,2.59-0.18,3.93-0.07c4.7,0.37,8.5,1.9,11.4,4.56
		c0.78,0.68,1.39,1.03,1.81,1.06c0.42,0.03,0.65-0.25,0.71-0.86c0.03-0.43,0.45-1.07,1.24-1.93s1.49-1.38,2.1-1.6
		C111.08,16.85,112.18,16.84,114.03,16.99z M99.03,35.4c-2.02-0.16-3.87,0.3-5.57,1.38c-1.7,1.09-2.93,2.65-3.69,4.68
		c-0.32,0.76-0.51,1.57-0.59,2.43c-0.19,2.25,0.54,4.11,2.19,5.59c1.65,1.49,3.98,2.35,7,2.59c1.6,0.13,2.67,0.13,3.23-0.01
		c0.56-0.13,0.95-0.49,1.17-1.08c0.22-0.59,0.54-1.88,0.96-3.84c0.53-2.31,0.9-4.59,1.09-6.84c0.11-1.3,0.09-2.1-0.05-2.42
		c-0.14-0.32-0.7-0.73-1.67-1.25C101.98,35.94,100.62,35.52,99.03,35.4z"/>
	<path class="st2" d="M142.43,18.34c0.8-0.46,2.63-0.58,5.48-0.35c2.94,0.23,5.71,0.67,8.32,1.31c2.61,0.65,4.13,1.33,4.58,2.06
		c0.53,0.74,0.77,1.37,0.73,1.89c-0.01,0.09,0.07,0.14,0.24,0.15c0.51,0.04,1.72-0.34,3.65-1.15c3.68-1.54,6.95-2.19,9.8-1.97
		c2.94,0.24,5.89,1.34,8.85,3.31c2.96,1.98,4.36,3.92,4.2,5.82c-0.09,1.04-0.98,3.08-2.68,6.13c-1.69,3.04-3.16,5.34-4.39,6.9
		c-0.95,1.23-1.89,1.81-2.81,1.73c-0.34-0.03-1.24-0.31-2.71-0.87c-1.47-0.64-2.88-1.01-4.22-1.12c-2.85-0.23-5.26,0.76-7.22,2.96
		c-3.36,3.74-5.61,12.27-6.74,25.58l-0.15,1.82c-0.16,1.9-0.38,3.24-0.65,4c-0.28,0.76-0.83,1.24-1.64,1.44
		c-0.83,0.19-2.16,0.22-4,0.07l-2.13-0.3l-2.77-0.22c-5.86-0.64-9.18-1.3-9.97-1.97c-0.95-0.77-1.44-1.55-1.45-2.33
		c-0.17-0.98-0.02-4.23,0.45-9.76c0.71-8.39,1.68-17.46,2.88-27.2c1.21-9.75,2.06-15.12,2.58-16.13
		C141.12,19.32,141.73,18.71,142.43,18.34z"/>
	<path class="st2" d="M228.03,20.95l1.63,0.13c3.43,0.45,6.1,1.27,8.03,2.47c1.93,1.19,4.23,3.42,6.91,6.69
		c4.13,5.03,6.6,10.28,7.4,15.74c0.24,2.2,0.29,4.03,0.17,5.5c-0.45,5.27-1.54,8.19-3.28,8.75L228,58.58
		c-6.63-0.53-9.95-0.75-9.96-0.66c-0.09,1.04,0.78,2.22,2.62,3.54c1.83,1.32,4.02,2.39,6.57,3.2c1.41,0.37,2.7,0.61,3.87,0.7
		c1.93,0.15,4.53-0.16,7.81-0.95c2.49-0.5,4.07-0.72,4.75-0.67c0.84,0.07,1.49,0.38,1.95,0.94c0.51,0.91,1.26,2.58,2.24,5.01
		c0.97,2.43,1.42,4.12,1.34,5.08c-0.16,1.9-1.88,3.64-5.13,5.21c-3.19,1.67-6.47,2.75-9.85,3.27s-7.34,0.59-11.87,0.23
		c-5.54-0.44-9.78-1.3-12.71-2.58c-2.93-1.28-5.98-3.78-9.12-7.52c-3.15-3.73-5.21-7.29-6.19-10.68c-0.98-3.39-1.28-7.29-0.91-11.7
		c0.41-4.84,1.48-9.2,3.2-13.07c1.73-3.87,4.66-7.34,8.81-10.41c4.34-3.31,9.68-5.45,16.02-6.43
		C223.56,20.81,225.76,20.77,228.03,20.95z M226.15,38.57c-1.85-0.15-3.51,0.28-4.99,1.3c-1.48,1.01-2.34,2.38-2.57,4.11l-0.26,1.55
		l6.14,0.88l5.14,0.67l0.63,0.05c0.34,0.03,0.55,0,0.64-0.08l0.25,0.02l0.25,0.02c0.34-0.06,0.56-0.57,0.64-1.52
		c0.1-1.12-0.06-2.23-0.48-3.3C230.63,40.01,228.83,38.78,226.15,38.57z"/>
	<path class="st2" d="M283.49,30.58c17.63,1.4,28.08,2.67,31.36,3.8c2.63,0.9,3.81,2.91,3.54,6.03l-0.06,0.78
		c-0.24,2.77-0.92,4.85-2.06,6.25c-1.12,1.3-4.93,4.87-11.43,10.71L292.66,68.8l5.83,0.07c3.72-0.05,6.72,0.01,8.98,0.19
		c1.93,0.15,3.24,0.7,3.92,1.62c0.68,0.92,0.94,2.39,0.77,4.37l-0.13,1.56c-0.13,0.51-0.22,1.16-0.29,1.93
		c-0.48,3.62-0.94,6.11-1.39,7.47c-0.55,1.52-1.36,2.59-2.43,3.2c-1.42,0.76-12.33,0.41-32.74-1.04l-3.4-0.27
		c-8.31-0.66-13.19-1.88-14.65-3.65c-0.61-0.74-0.88-1.59-0.8-2.54c0.1-1.12,0.21-1.94,0.34-2.45c0.37-2.41,1-4.3,1.87-5.67
		c0.88-1.37,2.4-2.88,4.57-4.53c2.69-1.88,6.32-5.01,10.88-9.39c4.56-4.39,6.86-6.93,6.92-7.62c0.03-0.35-2.17-0.78-6.61-1.31
		c-3.26-0.35-5.43-0.74-6.49-1.17c-0.9-0.33-1.56-1.04-1.98-2.12c-0.42-1.07-0.55-2.4-0.42-3.95c0.16-1.9,0.67-4.17,1.53-6.8
		s1.7-4.39,2.54-5.28c0.92-0.97,2.19-1.44,3.79-1.4C274.96,29.99,278.37,30.18,283.49,30.58z"/>
	<path class="st2" d="M357.2,34.22c3.27,0.26,6.29,0.81,9.05,1.63c2.76,0.83,5.74,2.24,8.96,4.24c3.37,2.1,5.02,3.62,4.93,4.58
		c-0.05,0.6-1.04,2.27-2.96,4.99c-1.93,2.72-3.71,4.93-5.38,6.63c-1.21,1.29-2.28,1.91-3.2,1.83c-0.76-0.06-1.81-0.62-3.15-1.69
		c-2.93-2.32-5.86-3.6-8.8-3.83c-1.85-0.15-3.32,0-4.41,0.43c-1.1,0.44-2.25,1.3-3.46,2.6c-2.71,3.09-4.22,6.41-4.52,9.96
		c-0.08,0.95,0,1.92,0.26,2.89c1.12,3.74,3.9,5.8,8.35,6.15l0.76-0.07l0.76,0.06c2.54-0.06,5.85-1.28,9.95-3.66
		c1.69-1,2.74-1.48,3.16-1.44c0.25,0.02,0.58,0.18,0.97,0.47c0.79,0.59,1.96,2.13,3.47,4.65c1.52,2.51,2.69,4.89,3.51,7.14
		c0.83,2.24,1.21,3.71,1.15,4.4c-0.1,1.21-1.17,2.35-3.21,3.4c-6.49,3.76-14.68,5.23-24.59,4.45c-2.1-0.17-4.47-0.57-7.12-1.22
		c-4.78-1.43-9.05-3.88-12.81-7.36c-3.76-3.48-6.06-7.3-6.89-11.45c-0.46-2.56-0.54-5.62-0.24-9.17c0.24-2.77,0.58-4.87,1.05-6.32
		c1.62-5.18,4.2-9.72,7.75-13.62c3.54-3.9,6.98-6.67,10.34-8.32c2.73-1.36,6.05-2.18,9.97-2.48
		C352.66,33.99,354.77,34.02,357.2,34.22z"/>
	<path class="st2" d="M420.06,38.82c2.85,0.23,5.6,0.67,8.25,1.31c6.19,1.71,11.35,4.69,15.47,8.94c4.11,4.25,6.46,9.01,7.02,14.28
		c0.16,1.14,0.16,2.62,0,4.44c-0.45,5.28-1.62,9.87-3.51,13.76c-1.9,3.9-4.76,7.48-8.59,10.75c-3.55,3.03-7.1,5.03-10.65,6.01
		c-3.55,0.99-7.17,1.32-10.86,1.03c-6.46-0.51-12.2-2.58-17.22-6.2c-5.01-3.62-8.81-7.93-11.39-12.92
		c-2.58-4.99-3.68-9.65-3.31-13.98c0.12-1.38,0.5-3.44,1.16-6.18c3.95-13.7,12.34-20.84,25.14-21.38
		C414.63,38.56,417.46,38.62,420.06,38.82z M419.32,59.53c-1.18-0.09-2.21,0.13-3.1,0.67c-3.18,1.67-4.93,4.27-5.23,7.82
		c-0.11,1.3,0.1,2.8,0.63,4.49c1.24,3.32,3.49,5.11,6.77,5.37c1.76,0.14,3.32-0.32,4.68-1.38c1.36-1.07,2.24-2.5,2.64-4.3
		c0.11-0.25,0.2-0.77,0.26-1.55c0.17-2.07-0.12-4.1-0.88-6.08c-0.76-1.98-1.79-3.36-3.07-4.16
		C421.06,59.89,420.15,59.6,419.32,59.53z"/>
	<path class="st2" d="M516.38,45.03l2.26,0.18c2.43,0.19,5.15,0.74,8.17,1.63c3.01,0.89,5.74,1.83,8.19,2.81
		c2.45,0.98,3.88,1.61,4.28,1.9c0.78,0.68,1.12,1.66,1.01,2.96c-0.12,1.38-0.66,3.39-1.65,6.01c-0.99,2.62-1.78,4.52-2.39,5.69
		c-0.5,0.92-1.17,1.34-2.01,1.28c-0.84-0.07-2.11-0.6-3.79-1.61c-3.57-1.85-6.47-2.87-8.74-3.05c-0.67-0.05-1.36,0.03-2.05,0.23
		c-0.69,0.21-1.06,0.53-1.09,0.96c-0.04,0.44,0.22,0.93,0.76,1.5c0.78,0.76,3.49,1.67,8.14,2.73c3.82,0.83,6.78,2,8.89,3.52
		c2.11,1.51,3.76,3.76,4.94,6.72c1.06,2.44,1.46,5.26,1.19,8.46c-0.32,3.72-1.56,7.21-3.74,10.48c-2.18,3.27-5,5.81-8.44,7.63
		c-3.8,1.88-8.42,2.6-13.88,2.17c-5.37-0.43-10.57-1.87-15.61-4.31c-5.03-2.44-8.92-5.44-11.66-8.96c-1.13-1.57-1.67-2.7-1.61-3.39
		c0.06-0.69,0.92-1.91,2.59-3.65c1.67-1.74,3.43-3.41,5.3-5c1.86-1.6,2.97-2.38,3.31-2.35c0.25,0.02,1.24,0.84,2.96,2.45
		c3.45,3.15,7.14,5.01,11.06,5.58l1.64,0.13c1.34,0.11,2.37-0.09,3.09-0.6c0.72-0.51,1.12-1.19,1.19-2.06
		c0.1-1.12-0.53-2.15-1.89-3.09c-1.36-0.93-3.73-1.8-7.13-2.59c-8.69-2.17-14.1-6.13-16.23-11.87c-0.7-1.71-0.96-3.61-0.78-5.68
		c0.2-2.42,1.09-4.86,2.65-7.3c1.56-2.45,3.57-4.53,6.04-6.25c2.47-1.72,5.12-2.82,7.95-3.29C511.24,44.8,513.61,44.81,516.38,45.03
		z"/>
	<path class="st2" d="M563.14,51.1c7.72,0.61,11.96,1.38,12.73,2.31c0.15,0.19,0.16,1.14,0.01,2.88c-0.18,2.07-0.48,4.58-0.89,7.5
		c-0.42,2.93-0.77,6-1.04,9.2c-0.57,6.75-0.5,11.61,0.22,14.58c0.72,2.97,2.46,4.58,5.23,4.79c2.35,0.19,4.26-0.93,5.74-3.34
		c1.85-2.9,3.27-9.62,4.25-20.17c0.99-8.72,1.67-13.24,2.04-13.56c0.45-0.4,2.22-0.7,5.27-0.89c3.06-0.2,6.01-0.18,8.87,0.05
		c2.19,0.17,3.94,0.42,5.26,0.74c1.32,0.33,2.17,0.85,2.53,1.57c0.81,1.46,0.7,8.2-0.32,20.22c-1.88,22.14-3.23,34.02-4.04,35.6
		c-0.62,1.26-2.64,1.75-6.09,1.48c-1.42-0.11-4.18-0.51-8.26-1.17c-1.43-0.12-2.56-0.27-3.38-0.47c-0.83-0.2-1.61-0.46-2.34-0.77
		c-0.82-0.33-1.4-0.7-1.74-1.12s-0.65-1.08-0.91-1.97c-0.53-1.7-1.21-2.1-2.05-1.21c-0.55,0.56-2.23,1.31-5,2.22
		c-2.79,0.91-5.03,1.47-6.74,1.68c-1.19,0.08-2.46,0.07-3.8-0.04c-3.52-0.28-6.73-1.3-9.63-3.05c-2.89-1.76-4.98-3.99-6.27-6.71
		c-0.5-1.08-1.09-3.13-1.76-6.15c-0.42-2.99-0.44-6.79-0.05-11.37l0.56-6.62c1.59-16.77,3.39-25.51,5.4-26.22
		C557.88,50.86,559.95,50.85,563.14,51.1z"/>
	<path class="st2" d="M666.63,60.88c4.7,0.37,8.33,0.97,10.88,1.78c1.81,0.58,3.11,1.38,3.92,2.4c0.8,1.03,1.33,2.54,1.58,4.57
		c0.16,1.14-0.04,5-0.61,11.57c-1.26,14.8-2.41,24.85-3.45,30.16c-0.5,2.84-1.04,4.76-1.63,5.76c-0.59,0.99-1.64,1.61-3.13,1.84
		c-1.5,0.23-4.31,0.27-8.44,0.11c-1.1,0-2.91-0.1-5.42-0.3c-1.84-0.15-3.05-0.44-3.6-0.87c-0.55-0.44-1.07-1.37-1.53-2.8
		c-0.47-1.43-0.87-2.16-1.21-2.18c-0.34-0.03-1.69,0.42-4.05,1.37c-3.67,1.45-7.1,2.05-10.3,1.8c-3.36-0.27-6.77-1.85-10.24-4.73
		c-3.48-2.89-6.27-6.51-8.39-10.86c-2.12-4.35-3-8.68-2.63-13.01c0.16-1.9,0.45-3.4,0.89-4.5l0.54-1.92l0.37-1.41
		c0.43-1.96,2.16-4.97,5.2-8.99c4.67-6.25,10.26-9.9,16.78-10.95c1.28-0.15,2.59-0.18,3.93-0.07c4.7,0.37,8.5,1.9,11.4,4.56
		c0.79,0.68,1.39,1.03,1.81,1.06c0.42,0.03,0.66-0.25,0.71-0.86c0.03-0.43,0.45-1.07,1.24-1.92c0.79-0.85,1.49-1.38,2.1-1.6
		C663.68,60.74,664.79,60.74,666.63,60.88z M651.63,79.29c-2.01-0.16-3.87,0.3-5.57,1.39c-1.7,1.09-2.93,2.65-3.69,4.67
		c-0.32,0.76-0.52,1.57-0.59,2.43c-0.19,2.25,0.54,4.12,2.19,5.6c1.65,1.49,3.98,2.35,7.01,2.58c1.59,0.13,2.67,0.13,3.23,0
		c0.56-0.13,0.95-0.49,1.17-1.08c0.21-0.59,0.53-1.88,0.96-3.84c0.53-2.31,0.9-4.59,1.09-6.84c0.11-1.3,0.09-2.1-0.05-2.42
		c-0.14-0.31-0.7-0.72-1.67-1.24C654.58,79.83,653.22,79.42,651.63,79.29z"/>
	<path class="st2" d="M737.35,65.46c1.01,0.08,3.23,0.8,6.66,2.16c3.43,1.36,5.71,2.44,6.82,3.22c1.11,0.87,1.61,2,1.49,3.38
		c-0.12,1.38-1.28,4.08-3.48,8.09l-1.97,3.77c-2.1,3.84-3.47,6.47-4.1,7.9c-2.44,4.94-5.56,10.71-9.33,17.28
		c-3.77,6.58-6.02,10.24-6.77,10.96c-0.72,0.55-1.38,0.89-1.99,1.02c-0.69,0.12-2.25,0.12-4.69,0.02l-1.89-0.15
		c-7.64-0.61-12.36-1.73-14.17-3.35c-0.63-0.57-2.16-4.64-4.6-12.19c-2.45-7.55-4.67-15.17-6.68-22.87
		c-2.01-7.69-2.92-12.66-2.73-14.92c0.11-1.3,1.22-2.4,3.33-3.33c2.11-0.92,4.51-1.62,7.22-2.11c2.7-0.47,4.81-0.66,6.32-0.54
		c0.75,0.06,1.38,0.19,1.87,0.41c1.06,0.43,1.96,1.77,2.7,4c0.53,1.7,1.7,6.85,3.51,15.44c1.43,7,2.22,10.58,2.38,10.77l0.42-0.49
		c0.65-0.74,1.38-1.89,2.2-3.49c1.41-2.59,4.24-7.19,8.53-13.82c4.28-6.63,6.7-10.18,7.25-10.66
		C736.12,65.58,736.68,65.41,737.35,65.46z"/>
	<path class="st2" d="M790.2,65.61l1.64,0.13c3.42,0.45,6.1,1.27,8.03,2.47c1.92,1.19,4.23,3.42,6.91,6.69
		c4.14,5.03,6.61,10.28,7.41,15.74c0.23,2.19,0.29,4.03,0.17,5.5c-0.45,5.27-1.55,8.19-3.28,8.75l-20.9-1.66
		c-6.63-0.53-9.95-0.75-9.96-0.66c-0.09,1.04,0.79,2.21,2.62,3.53c1.83,1.32,4.02,2.39,6.57,3.2c1.4,0.37,2.7,0.61,3.87,0.7
		c1.93,0.15,4.53-0.16,7.81-0.95c2.49-0.5,4.07-0.72,4.75-0.66c0.84,0.07,1.49,0.37,1.95,0.94c0.51,0.91,1.26,2.58,2.24,5.01
		c0.98,2.43,1.43,4.12,1.35,5.07c-0.16,1.9-1.88,3.64-5.14,5.21c-3.18,1.67-6.47,2.75-9.85,3.27c-3.39,0.52-7.34,0.59-11.87,0.23
		c-5.54-0.44-9.78-1.3-12.71-2.58c-2.93-1.27-5.97-3.78-9.12-7.51s-5.21-7.29-6.19-10.68c-0.98-3.39-1.28-7.29-0.9-11.7
		c0.41-4.84,1.48-9.2,3.2-13.07c1.72-3.87,4.66-7.34,8.81-10.41c4.34-3.31,9.67-5.45,16.01-6.44
		C785.73,65.47,787.93,65.43,790.2,65.61z M788.32,83.23c-1.85-0.15-3.51,0.28-4.99,1.3c-1.48,1.01-2.34,2.38-2.57,4.11l-0.26,1.55
		l6.14,0.88l5.14,0.68l0.63,0.05c0.34,0.03,0.55,0,0.64-0.08l0.25,0.02l0.25,0.02c0.34-0.06,0.56-0.57,0.64-1.52
		c0.09-1.12-0.06-2.22-0.48-3.3C792.8,84.67,791.01,83.44,788.32,83.23z"/>
	<path class="st2" d="M827.18,119.62c1.93,0.15,3.41,0.71,4.42,1.66c2.6,2.21,3.76,5.09,3.45,8.63c-0.16,1.9-0.73,3.64-1.71,5.22
		c-1.97,3.24-5.02,5.31-9.15,6.2c-1.55,0.32-2.62,0.44-3.2,0.4c-1.6-0.13-2.32-1.1-2.16-2.91c0.1-1.12,0.33-1.94,0.71-2.43
		c0.38-0.49,1.18-0.99,2.41-1.51c1.14-0.43,1.71-0.73,1.73-0.91c0.02-0.26-0.45-0.68-1.41-1.29c-2.41-1.49-3.5-3.63-3.26-6.39
		c0.26-3.03,1.87-5.13,4.84-6.28C824.98,119.67,826.09,119.54,827.18,119.62z"/>
	<path class="st2" d="M97.77,91.86l3.77,0.3c5.61,0.62,8.82,1.09,9.64,1.42c1.14,0.53,1.63,1.7,1.48,3.51
		c-0.13,1.47-0.03,2.22,0.31,2.25l4.49-0.69c2.84-0.56,5.64-0.73,8.41-0.51c4.87,0.39,9.05,1.85,12.56,4.39
		c1.27,0.89,2.77,2.46,4.48,4.73c1.71,2.27,2.99,4.31,3.85,6.12c1.61,3.96,2.23,7.97,1.89,12.04c-0.63,7.45-3.96,13.8-9.99,19.06
		c-3.01,2.64-5.77,4.44-8.26,5.42c-2.49,0.98-5.29,1.34-8.4,1.1c-2.77-0.22-6.85-1.46-12.23-3.72l-0.13-0.01
		c-0.42-0.03-1,3.32-1.74,10.05l-1.01,10.37l-1.5,1.19l-1.48,1.06l-9.43-0.88c-4.44-0.53-7.16-0.88-8.15-1.04
		c-1.16-0.27-1.89-0.63-2.19-1.09c-0.29-0.55-0.36-2.73-0.2-6.55c0.13-2.51,0.95-12.59,2.44-30.24c2.03-23.87,3.2-36.19,3.52-36.95
		c0.4-0.75,1-1.27,1.78-1.55C92.56,91.53,94.58,91.6,97.77,91.86z M121.57,113.08c-0.92-0.07-1.77-0.01-2.55,0.19
		c-1.22,0.42-2.6,1.23-4.14,2.41l-2.59,2.15l0.1,4.84c0.15,3.15,0.33,4.99,0.54,5.53c0.18,0.8,0.74,1.41,1.68,1.83
		c0.94,0.42,2.03,0.69,3.3,0.79c2.6,0.21,4.86-0.51,6.77-2.14c1.91-1.64,2.99-3.84,3.22-6.61c0.28-3.28-0.48-5.78-2.27-7.49
		C124.69,113.72,123.34,113.22,121.57,113.08z"/>
	<path class="st2" d="M190.53,93.74l1.63,0.13c3.43,0.45,6.1,1.26,8.03,2.47c1.93,1.19,4.23,3.42,6.91,6.69
		c4.13,5.03,6.6,10.28,7.4,15.75c0.24,2.2,0.3,4.03,0.17,5.5c-0.45,5.28-1.54,8.2-3.28,8.75l-20.9-1.66
		c-6.63-0.53-9.95-0.75-9.96-0.66c-0.09,1.04,0.78,2.22,2.62,3.54c1.83,1.32,4.02,2.39,6.57,3.2c1.4,0.37,2.69,0.6,3.87,0.69
		c1.93,0.15,4.53-0.16,7.81-0.95c2.49-0.5,4.08-0.71,4.75-0.66c0.83,0.07,1.49,0.37,1.95,0.93c0.51,0.92,1.26,2.58,2.24,5.01
		c0.97,2.43,1.42,4.12,1.34,5.07c-0.16,1.9-1.88,3.64-5.13,5.21c-3.19,1.66-6.47,2.75-9.85,3.26c-3.38,0.52-7.34,0.59-11.87,0.23
		c-5.54-0.44-9.78-1.3-12.71-2.58c-2.93-1.28-5.97-3.78-9.12-7.52c-3.15-3.73-5.21-7.29-6.19-10.68c-0.98-3.39-1.28-7.29-0.91-11.7
		c0.41-4.84,1.48-9.2,3.2-13.07c1.73-3.87,4.66-7.34,8.81-10.41c4.34-3.31,9.67-5.45,16.01-6.44
		C186.06,93.59,188.26,93.56,190.53,93.74z M188.65,111.35c-1.85-0.15-3.51,0.29-4.99,1.3c-1.48,1.01-2.34,2.38-2.57,4.1l-0.26,1.55
		l6.14,0.88l5.14,0.67l0.63,0.05c0.34,0.03,0.55,0,0.64-0.08l0.25,0.02l0.25,0.02c0.35-0.06,0.55-0.56,0.64-1.52
		c0.1-1.12-0.06-2.23-0.48-3.3C193.13,112.8,191.33,111.56,188.65,111.35z"/>
	<path class="st2" d="M228.2,100.91c0.8-0.46,2.63-0.57,5.48-0.35c2.94,0.24,5.71,0.67,8.32,1.31c2.6,0.65,4.13,1.33,4.57,2.07
		c0.53,0.73,0.77,1.37,0.73,1.88c-0.01,0.09,0.07,0.14,0.24,0.15c0.51,0.04,1.72-0.34,3.65-1.15c3.68-1.54,6.95-2.19,9.81-1.96
		c2.93,0.23,5.88,1.34,8.85,3.31c2.95,1.98,4.35,3.92,4.19,5.82c-0.09,1.04-0.98,3.08-2.67,6.12c-1.7,3.05-3.16,5.34-4.39,6.9
		c-0.95,1.23-1.88,1.8-2.81,1.73c-0.34-0.03-1.24-0.31-2.71-0.87c-1.47-0.64-2.87-1.02-4.21-1.12c-2.85-0.23-5.26,0.76-7.22,2.95
		c-3.36,3.75-5.61,12.27-6.74,25.59l-0.16,1.82c-0.16,1.9-0.38,3.24-0.65,4c-0.28,0.76-0.82,1.24-1.64,1.44
		c-0.82,0.19-2.16,0.22-4,0.07l-2.13-0.3l-2.77-0.22c-5.86-0.64-9.19-1.3-9.97-1.97c-0.95-0.77-1.43-1.55-1.45-2.33
		c-0.17-0.97-0.02-4.23,0.45-9.76c0.71-8.39,1.68-17.46,2.88-27.2c1.21-9.74,2.06-15.12,2.58-16.13
		C226.89,101.89,227.49,101.29,228.2,100.91z"/>
	<path class="st2" d="M313.95,106.15c2.85,0.23,5.6,0.67,8.25,1.31c6.19,1.71,11.35,4.69,15.46,8.93s6.46,9.01,7.03,14.27
		c0.16,1.14,0.16,2.62,0,4.44c-0.45,5.28-1.62,9.87-3.52,13.76c-1.9,3.9-4.76,7.48-8.58,10.75c-3.55,3.03-7.1,5.03-10.66,6.01
		c-3.55,0.99-7.17,1.33-10.86,1.04c-6.47-0.51-12.2-2.58-17.22-6.2c-5.02-3.61-8.81-7.93-11.39-12.92
		c-2.58-4.99-3.68-9.65-3.31-13.98c0.12-1.38,0.5-3.44,1.15-6.18c3.96-13.7,12.34-20.83,25.15-21.39
		C308.52,105.9,311.34,105.95,313.95,106.15z M313.2,126.86c-1.18-0.09-2.21,0.13-3.1,0.67c-3.19,1.67-4.93,4.27-5.23,7.81
		c-0.11,1.3,0.1,2.8,0.63,4.5c1.24,3.32,3.5,5.11,6.77,5.37c1.76,0.14,3.32-0.32,4.68-1.39c1.36-1.07,2.24-2.5,2.65-4.3
		c0.1-0.25,0.19-0.77,0.26-1.55c0.18-2.07-0.11-4.1-0.88-6.08c-0.76-1.98-1.79-3.36-3.07-4.16
		C314.94,127.22,314.04,126.93,313.2,126.86z"/>
	<path class="st2" d="M411.32,98.47c4.7,0.37,7.63,0.69,8.79,0.96c1.4,0.46,2.23,0.85,2.5,1.17c0.27,0.33,0.36,1.01,0.27,2.05
		l-0.84,6.86l-0.6,4.13l-0.26,1.55l6.04,0.61c1.17,0.09,2.01,0.2,2.5,0.33c2.1,0.17,3.47,0.45,4.11,0.85
		c0.64,0.4,0.98,1.35,1.03,2.82c0.04,1.49-0.13,4.52-0.52,9.1l-0.18,2.21c-0.21,2.42-0.46,4.06-0.74,4.91
		c-0.29,0.85-0.79,1.37-1.53,1.58c-0.73,0.2-2.11,0.22-4.13,0.06l-8.06-0.64l-0.61,2.7c-0.35,2.06-0.54,3.35-0.58,3.87
		c-0.77,9,1.07,13.67,5.52,14.03c0.92,0.07,2.18-0.29,3.77-1.07c1.59-0.79,2.57-1.38,2.94-1.79c0.28-0.32,0.59-0.47,0.92-0.45
		c0.76,0.06,1.67,0.74,2.74,2.05c1.23,1.49,2.36,3.26,3.42,5.3c1.05,2.04,1.55,3.41,1.49,4.1c-0.09,1.04-1.37,2.42-3.84,4.14
		s-5.32,3.19-8.55,4.42c-4.19,1.58-8.64,2.19-13.34,1.81c-2.94-0.23-5.43-0.95-7.49-2.16c-2.05-1.21-4.18-3.21-6.4-5.99
		c-2.6-3.17-4.39-6.49-5.36-9.96c-0.98-3.48-1.17-8.63-0.59-15.47l0.26-2.98l0.15-1.81c-0.06-0.27-0.06-0.7-0.01-1.31
		c0.04-0.43-0.02-0.74-0.17-0.93l-0.46-0.55c-0.06-0.26-0.64-0.44-1.72-0.53l-1.5-0.25l-2.02-0.16c-1.75-0.31-2.87-0.53-3.36-0.66
		c-0.5-0.13-0.93-0.56-1.29-1.28c-0.28-0.63-0.35-1.77-0.21-3.41c0.2-2.34,0.37-3.93,0.54-4.79c0.38-2.58,0.61-4.21,0.67-4.91
		c0.18-1.12,0.32-2.06,0.43-2.84c0.11-0.78,0.21-1.29,0.32-1.54l0.66-1.77l5.19,0.15c2.52,0.11,4.05,0.1,4.57-0.03
		c0.43-0.14,0.71-0.38,0.82-0.72c0.24-1.89,0.66-4.52,1.24-7.87c0.58-3.36,1.01-5.15,1.28-5.39c0.46-0.49,1.46-0.8,2.99-0.93
		C403.63,97.95,406.7,98.1,411.32,98.47z"/>
	<path class="st2" d="M454.32,118.87c0.8-0.46,2.63-0.57,5.48-0.35c2.94,0.23,5.71,0.67,8.32,1.31c2.61,0.64,4.13,1.33,4.58,2.06
		c0.53,0.74,0.77,1.37,0.73,1.88c-0.01,0.09,0.07,0.14,0.24,0.15c0.51,0.04,1.72-0.34,3.65-1.15c3.68-1.54,6.95-2.19,9.8-1.96
		c2.94,0.24,5.89,1.34,8.85,3.31c2.96,1.98,4.36,3.92,4.19,5.82c-0.09,1.04-0.98,3.08-2.68,6.12c-1.69,3.04-3.16,5.34-4.39,6.9
		c-0.95,1.23-1.89,1.81-2.81,1.74c-0.34-0.03-1.24-0.32-2.72-0.87c-1.46-0.64-2.87-1.02-4.21-1.12c-2.85-0.23-5.26,0.76-7.22,2.95
		c-3.36,3.74-5.61,12.27-6.74,25.59l-0.15,1.82c-0.16,1.9-0.38,3.24-0.65,4c-0.28,0.77-0.83,1.24-1.64,1.44
		c-0.83,0.19-2.16,0.22-4,0.08l-2.13-0.3l-2.77-0.22c-5.86-0.64-9.19-1.29-9.97-1.96c-0.95-0.77-1.44-1.55-1.45-2.34
		c-0.17-0.97-0.02-4.23,0.45-9.76c0.71-8.39,1.68-17.46,2.88-27.2c1.21-9.74,2.06-15.12,2.58-16.13
		C453.01,119.86,453.61,119.25,454.32,118.87z"/>
	<path class="st2" d="M539.92,121.49l1.63,0.13c3.43,0.45,6.1,1.27,8.03,2.47c1.93,1.19,4.23,3.43,6.91,6.69
		c4.13,5.03,6.6,10.28,7.4,15.74c0.24,2.2,0.29,4.03,0.17,5.5c-0.45,5.27-1.54,8.2-3.28,8.75l-20.9-1.66
		c-6.63-0.53-9.95-0.75-9.96-0.66c-0.09,1.04,0.78,2.21,2.61,3.53c1.83,1.32,4.02,2.39,6.57,3.2c1.4,0.37,2.7,0.6,3.88,0.7
		c1.93,0.15,4.53-0.16,7.81-0.94c2.49-0.5,4.07-0.72,4.75-0.66c0.84,0.07,1.49,0.37,1.95,0.93c0.51,0.91,1.25,2.58,2.24,5.01
		c0.97,2.43,1.42,4.12,1.34,5.07c-0.16,1.9-1.88,3.64-5.13,5.21c-3.19,1.67-6.47,2.75-9.85,3.27c-3.38,0.51-7.34,0.59-11.87,0.23
		c-5.54-0.44-9.78-1.3-12.71-2.58c-2.93-1.27-5.98-3.78-9.12-7.51c-3.15-3.73-5.21-7.29-6.19-10.68c-0.98-3.39-1.28-7.29-0.91-11.7
		c0.41-4.84,1.48-9.2,3.2-13.07c1.72-3.87,4.66-7.34,8.81-10.41c4.34-3.3,9.68-5.45,16.02-6.43
		C535.45,121.35,537.65,121.31,539.92,121.49z M538.04,139.11c-1.85-0.15-3.51,0.29-4.99,1.3c-1.48,1.01-2.34,2.38-2.57,4.11
		l-0.26,1.55l6.14,0.88l5.14,0.67l0.63,0.05c0.33,0.03,0.55,0,0.64-0.08l0.25,0.02l0.25,0.02c0.34-0.06,0.55-0.56,0.63-1.51
		c0.1-1.13-0.06-2.23-0.48-3.31C542.52,140.55,540.72,139.32,538.04,139.11z"/>
	<path class="st2" d="M581.51,130.28l3.77,0.3c5.61,0.62,8.82,1.09,9.64,1.41c1.14,0.53,1.63,1.7,1.48,3.52
		c-0.13,1.47-0.03,2.22,0.31,2.24l4.49-0.69c2.84-0.56,5.64-0.72,8.41-0.5c4.87,0.39,9.06,1.85,12.56,4.39
		c1.27,0.89,2.77,2.46,4.48,4.73c1.71,2.27,2.99,4.31,3.85,6.12c1.61,3.96,2.24,7.97,1.89,12.03c-0.63,7.45-3.96,13.8-9.99,19.07
		c-3.01,2.64-5.77,4.44-8.26,5.42c-2.49,0.98-5.29,1.34-8.4,1.09c-2.77-0.22-6.85-1.46-12.23-3.72l-0.13-0.01
		c-0.42-0.03-1,3.32-1.74,10.05l-1.01,10.37l-1.5,1.18l-1.48,1.06l-9.43-0.88c-4.44-0.53-7.15-0.88-8.15-1.04
		c-1.16-0.27-1.89-0.63-2.19-1.09c-0.29-0.55-0.36-2.73-0.2-6.55c0.13-2.51,0.95-12.59,2.44-30.24c2.03-23.87,3.2-36.19,3.52-36.95
		c0.4-0.75,1-1.27,1.78-1.55C576.29,129.95,578.31,130.03,581.51,130.28z M605.31,151.51c-0.93-0.07-1.77-0.02-2.55,0.19
		c-1.22,0.42-2.6,1.23-4.14,2.41l-2.59,2.14l0.1,4.85c0.15,3.15,0.34,4.99,0.54,5.53c0.19,0.8,0.74,1.41,1.68,1.83
		c0.94,0.43,2.03,0.69,3.3,0.79c2.6,0.21,4.86-0.5,6.77-2.14c1.91-1.63,2.99-3.83,3.22-6.6c0.28-3.28-0.47-5.79-2.27-7.5
		C608.42,152.14,607.07,151.64,605.31,151.51z"/>
	<path class="st2" d="M674.42,134.79c2.85,0.22,5.6,0.66,8.25,1.31c6.19,1.71,11.35,4.69,15.47,8.94c4.12,4.25,6.46,9.01,7.02,14.28
		c0.16,1.14,0.16,2.62,0,4.44c-0.45,5.28-1.62,9.87-3.52,13.76c-1.9,3.9-4.76,7.48-8.59,10.75c-3.55,3.03-7.1,5.03-10.65,6.01
		c-3.55,0.98-7.17,1.33-10.86,1.04c-6.46-0.52-12.2-2.58-17.21-6.2c-5.02-3.62-8.81-7.93-11.39-12.92
		c-2.58-4.99-3.68-9.65-3.31-13.98c0.12-1.38,0.5-3.44,1.16-6.18c3.96-13.71,12.34-20.84,25.14-21.39
		C668.99,134.53,671.81,134.58,674.42,134.79z M673.67,155.5c-1.18-0.09-2.21,0.13-3.1,0.67c-3.19,1.66-4.93,4.27-5.23,7.81
		c-0.11,1.3,0.1,2.8,0.63,4.5c1.24,3.32,3.5,5.11,6.77,5.36c1.76,0.14,3.32-0.32,4.68-1.38c1.36-1.07,2.24-2.5,2.65-4.3
		c0.1-0.25,0.19-0.76,0.26-1.55c0.18-2.07-0.11-4.1-0.88-6.08c-0.77-1.97-1.79-3.36-3.07-4.15
		C675.41,155.85,674.51,155.56,673.67,155.5z"/>
	<path class="st2" d="M724.36,180.95c2.68,0.21,4.82,1.45,6.4,3.71c1.58,2.26,2.27,4.64,2.05,7.15c-0.23,2.68-1.29,4.91-3.17,6.67
		c-1.88,1.76-4.17,2.54-6.85,2.33c-2.35-0.19-4.39-1.26-6.13-3.23c-1.73-1.97-2.48-4.38-2.23-7.23c0.38-4.41,2.36-7.35,5.95-8.8
		C721.52,181.03,722.85,180.83,724.36,180.95z"/>
</g>
</svg>
