<svg width="122" height="136" viewBox="0 0 122 136" fill="none" xmlns="http://www.w3.org/2000/svg">
<g clip-path="url(#clip0_32_817)">
<path d="M52.2983 27.5703C50.8912 29.7447 47.5091 31.384 45.1696 32.4202C40.7195 34.4077 35.8625 36.3188 31.0903 37.5673C28.4372 38.2638 25.9705 38.3997 23.3428 38.7904C22.1053 38.9773 17.2568 39.9455 16.621 39.2151L16.816 39.4359C13.1287 40.4127 9.48388 42.0604 5.9153 43.377C2.45692 44.651 -1.16252 44.8379 -4.68024 45.7467C-8.46073 46.7235 -12.487 48.1589 -16.3438 48.677C-18.1069 48.9148 -20.1582 49.1272 -21.9298 48.8299C-22.8961 48.6685 -23.8794 48.4052 -24.8202 48.023C-25.5323 47.7342 -26.4308 46.7489 -27.2869 47.2501C-28.5244 47.9805 -26.6766 50.5456 -28.1684 51.7857C-29.4399 52.8389 -32.0845 53.0087 -32.9915 54.2573C-32.1269 55.8626 -29.1263 55.8456 -27.8972 57.0432C-27.2275 57.6972 -27.2275 58.8099 -27.431 59.6592C-27.609 60.4067 -28.5753 61.273 -28.16 61.978C-27.3971 61.8081 -25.456 61.0012 -24.7524 61.358C-23.4725 62.012 -25.1847 63.4644 -24.3201 64.2713C-23.4894 65.0442 -19.87 62.598 -18.8783 62.1054L-19.2258 62.3347C-16.4201 61.5958 -13.6144 60.9843 -10.8341 60.3982C-5.07863 59.1836 0.422573 57.1961 6.15264 55.973C9.08548 55.3445 12.0268 54.6735 14.9427 53.9091C17.6043 53.2126 20.7575 51.8621 23.453 51.8111L23.4191 51.6837C24.3939 52.015 24.4702 53.7137 24.894 54.5801C25.4196 55.6588 25.6315 56.8564 25.9281 58.0115C26.4961 60.2028 27.0386 62.5471 28.1235 64.4412C30.3359 68.3058 36.7441 64.9168 40.0329 64.3647C44.4915 63.6258 49.0264 62.3687 53.2646 60.7974C55.3753 60.016 57.4181 58.9203 59.3931 57.8161C61.4952 56.644 63.3346 55.4719 63.1821 52.9323C63.0464 50.724 62.648 48.4137 62.1564 46.2478C61.6817 44.1499 60.6476 42.3917 60.0288 40.4552L59.9017 40.4891C60.4696 39.2915 62.0293 39.0452 63.1821 38.6885C64.6231 38.2468 65.9284 37.6523 67.3016 37.0662C70.0056 35.9196 72.6757 34.8918 75.2864 33.4649C79.9993 30.8828 85.0173 28.7764 89.654 25.9395C92.1715 24.4022 94.7568 22.8139 97.1132 21.0302C99.1645 19.4844 100.148 18.1339 102.742 17.8706C105.912 17.5478 101.987 15.2546 103.462 13.4879C104.335 12.4347 105.674 12.3667 103.818 11.373C102.564 10.702 101.614 10.9058 102.072 9.16462C102.241 8.51061 103.657 6.34474 102.903 5.80114C102.513 5.52085 100.453 6.76092 99.9613 6.89682C98.6729 7.25355 97.7489 7.48288 96.9522 6.30227C96.3588 5.42742 96.5877 3.8646 95.7061 3.21059C94.299 4.44216 94.3923 7.31301 93.4938 8.91831C92.7055 10.3282 90.6542 11.2541 89.2725 11.993C86.1362 13.6832 83.1102 15.6368 79.923 17.2166C76.8037 18.7624 73.447 19.8156 70.1836 21.0132C66.8439 22.2363 63.4024 23.3999 60.0458 24.623C58.5963 25.1496 56.9943 25.4384 55.5872 26.05C54.2818 26.6105 53.0697 27.6298 51.7134 28.012L52.2814 27.5958L52.2983 27.5703Z" fill="white"/>
<path d="M67.5474 93.6678C68.7256 89.7777 69.6157 86.9578 70.9041 83.6708C71.5568 81.9975 72.0484 80.0695 72.201 78.3028C72.3197 76.9523 71.9043 75.6273 72.2349 74.4891C72.6757 72.9603 73.8878 71.3125 74.5235 69.7837C75.2864 67.9406 76.1764 66.5476 77.4309 65.0697C79.7789 62.2838 81.7878 59.8461 84.7122 57.5698C86.4075 56.2533 90.5694 53.4249 92.7479 55.4464C94.7313 57.298 92.5614 62.8529 91.9595 64.9338C89.9337 71.9326 88.1112 78.9058 85.6955 85.7432C85.1275 87.357 84.5596 89.4379 83.2542 90.6101C82.093 91.6633 71.6331 93.4299 67.5474 93.6678Z" fill="white"/>
<path d="M26.3858 105.839C30.9377 104.947 36.6338 103.104 40.5754 100.633C38.2698 100.565 37.4137 99.97 35.854 98.4582C34.1587 96.8189 32.4973 95.4684 30.3698 94.3303C27.9031 93.0138 24.6312 90.3977 23.5886 87.5948C20.0624 86.1424 16.6125 84.9023 13.1965 83.2206C11.586 82.4222 9.87375 81.9805 8.2039 81.4624C7.35626 81.1991 6.55947 80.8084 5.71182 80.5621C4.40646 80.1799 4.5336 80.4262 3.55034 81.0632C0.719209 82.8893 -2.74765 86.2188 1.18541 88.9028C5.11848 91.5868 9.64489 93.8207 13.6797 96.5981C16.2735 98.3817 18.9266 100.148 21.5288 101.949C23.1817 103.096 25.1737 104.157 26.3774 105.839" fill="white"/>
<path d="M13.5187 10.8379C13.3152 15.1187 22.0205 12.715 24.2159 12.1119C27.9625 11.0842 31.9125 9.35148 34.8284 6.77791C35.7778 5.94554 36.5661 4.96028 36.9475 3.75418C37.3035 2.63302 37.0153 1.42693 38.3631 0.934296C39.838 4.06845 42.3894 5.52935 44.6441 8.11991C46.7971 10.5916 48.823 13.4709 50.5437 16.2908C51.8915 18.5076 54.7395 21.5568 54.3666 24.2578C53.9004 27.6298 50.0267 30.1014 47.3735 31.6642C41.974 34.8494 35.1505 37.2785 28.8271 38.4422C25.7841 39.0027 22.2155 39.6313 19.1046 39.4274C16.9092 39.283 16.4261 38.7904 15.909 36.7689C15.5361 35.3335 15.4598 33.7367 15.214 32.2843C14.6121 28.7424 14.5019 25.345 13.9086 21.7777C13.383 18.618 12.7219 14.3882 13.2898 11.2371" fill="#DD4C97"/>
<path d="M84.7291 103.435C84.0425 103.266 82.8982 105.083 82.5422 105.576C81.8556 106.519 81.3047 107.419 80.8978 108.523C80.5248 109.534 80.2197 110.409 80.4146 111.504C80.6181 112.676 81.6522 113.135 82.7372 113.373C84.9665 113.849 87.0856 112.77 88.6283 111.233C90.1964 109.678 90.6372 106.969 90.0778 104.913C89.7641 103.758 89.1538 102.798 87.84 102.722C86.6448 102.654 85.7802 102.934 84.763 103.546L84.7376 103.444L84.7291 103.435Z" fill="#DD4C97"/>
<path d="M95.9604 101.371C96.63 102.662 99.1815 102.391 100.258 101.958C101.801 101.337 102.445 99.6048 102.674 98.0929C102.886 96.717 103.14 94.4661 101.809 93.4724C100.673 92.623 98.6644 93.9141 97.8252 94.7125C96.7657 95.7232 94.9687 97.6003 95.8078 99.1461C96.3927 98.9933 99.2408 97.1416 99.2577 98.662C99.2662 99.8511 96.9013 100.853 96.0791 101.405" fill="#DD4C97"/>
<path d="M44.9407 111.836C45.2629 112.099 46.7886 111.836 46.5513 112.532C46.3987 112.974 45.0001 113.458 44.6102 113.806C45.017 114.528 45.4239 115.411 46.2122 115.743C46.9242 116.048 48.0262 115.794 48.7212 115.53C50.1961 114.97 50.9929 112.396 50.6623 110.935C49.8995 110.663 48.5517 111.224 47.7719 111.394C46.7971 111.606 45.8901 111.853 44.9153 111.997" fill="#DD4C97"/>
<path d="M19.13 122.062C20.1133 120.253 22.8851 119.183 24.9364 119.531C27.4963 119.956 28.0472 122.385 27.9879 124.423C27.9285 126.632 27.0046 128.942 24.7414 130.148C22.4189 131.379 20.0709 131.082 18.5028 129.231C17.7314 128.322 17.2398 127.252 17.3584 126.045C17.4686 124.941 18.0789 123.03 19.1131 122.274" fill="#DD4C97"/>
<path d="M24.2583 108.098C24.894 107.784 22.8597 108.319 22.1646 108.421C16.4854 109.296 6.83073 108.515 2.56709 112.872C0.710747 115.029 0.998946 115.862 20.4863 114.103C36.9136 112.031 52.4848 108.294 68.4629 103.351C82.7965 98.9168 100.326 93.6338 109.396 81.369C103.971 85.998 96.3079 88.9368 89.3912 91.3745C89.3912 91.3745 91.7646 91.1961 91.6459 91.5783C91.5272 91.9605 89.3488 93.2856 80.1688 97.0822C70.9888 100.879 65.0638 101.465 64.8095 101.431C64.5552 101.397 64.5722 99.7492 64.5722 99.7492C57.986 101.745 51.315 103.478 44.5254 104.667C44.4406 104.684 44.3559 104.692 44.2711 104.709C44.2711 104.709 46.3563 106.281 42.5758 107.41C38.7953 108.54 24.8601 111.402 20.9609 110.774C20.9609 110.774 21.478 109.457 24.2583 108.09V108.098Z" fill="#211E1F"/>
<path d="M32.6923 64.3647C31.6412 64.5006 30.6156 63.9485 30.1579 63.0142C29.395 61.4344 28.4287 59.7612 28.0049 58.2408C27.7167 57.1876 26.9877 54.3168 27.7675 53.4419C28.6575 53.8581 29.4289 55.302 30.1579 56.0834C31.1581 57.1536 32.4719 57.9096 33.6162 58.8099C34.7606 59.7102 35.9897 60.4492 37.2357 61.1966C38.2783 61.8251 39.7701 62.1649 40.3635 63.2181C38.7445 63.9401 36.9729 63.8381 35.2607 64.059C34.7945 64.1184 33.6756 64.2543 32.6838 64.3817L32.6923 64.3647Z" fill="#FAD230"/>
<path d="M21.9527 50.2313C20.961 49.0422 19.876 49.1102 18.5028 49.4584C17.1042 49.8151 15.7056 49.934 14.3154 50.3672C11.9759 51.0977 9.72121 51.8876 7.30543 52.3972C4.93203 52.8898 2.9994 53.943 0.642958 54.4612C-1.66263 54.9708 -3.90888 55.336 -6.19752 56.0495C-7.33336 56.3977 -8.46073 56.8394 -9.67286 56.9838C-10.4273 57.0772 -11.9276 57.4424 -12.4531 58.1134C-10.4527 58.6485 -7.85042 57.8926 -5.85846 57.4339C-3.41725 56.8733 -0.99299 56.5081 1.38041 55.7437C5.82206 54.3168 10.4926 53.0172 15.0359 52.0575C17.4517 51.5478 19.7743 50.707 22.1985 50.3842" fill="#FAD230"/>
<path d="M59.1388 37.5334C59.1557 36.6415 58.5539 35.6308 59.3253 35.0702C60.0373 34.5436 61.6478 34.3567 62.4954 34.0255C65.0553 33.0317 67.7678 32.3947 70.3192 31.3585C74.7693 29.5493 79.0245 27.4429 83.4492 25.6678C85.5429 24.8269 87.645 23.7737 89.8574 23.2895C88.1282 25.0902 85.5344 26.3048 83.3644 27.5024C81.347 28.6065 79.2788 29.7702 77.1681 30.679C73.091 32.4202 68.9969 34.034 64.9028 35.7327C62.8938 36.5651 60.9697 37.0577 58.8421 37.6098" fill="#FAD230"/>
<path d="M69.4885 92.037C69.141 90.9668 70.0649 88.8943 70.3701 87.8071C70.8193 86.2103 71.3109 84.6815 71.9467 83.1441C73.0995 80.3582 73.7267 77.7082 73.8962 74.71C73.9895 73.1132 74.515 71.7287 76.151 70.9048C76.8037 71.4399 76.0069 74.4127 75.9391 75.347C75.8204 77.1391 75.422 78.9313 75.1253 80.715C74.5998 83.8576 73.5572 87.2975 72.3959 90.2278C71.8365 91.6378 70.6243 92.4022 69.0477 92.3597" fill="#FAD230"/>
<path d="M28.9119 102.892C27.242 101.915 25.801 100.42 24.1566 99.3585C22.2918 98.1439 20.5202 96.8019 18.6215 95.6383C15.6717 93.8291 12.6541 92.02 9.53475 90.4911C8.00899 89.7437 6.44085 89.302 4.90662 88.6395C7.77165 91.281 11.5776 93.0562 14.6291 95.409C16.3498 96.734 18.2655 97.8126 19.9608 99.1716C21.5713 100.454 23.1225 101.864 24.8771 103.002C25.7925 103.588 26.3605 104.166 27.4031 104.021C27.9964 103.945 29.3611 103.716 29.395 103.079" fill="#FAD230"/>
<path d="M52.4593 27.8421C56.0364 25.7867 59.6728 24.9543 63.555 23.7992C68.3866 22.3637 73.1079 20.3507 77.6682 18.2358C81.7369 16.3502 85.7209 14.2693 89.5692 11.976C90.9678 11.1436 92.485 10.2603 93.409 8.89284C93.8413 8.24732 94.0956 7.55084 94.3583 6.83738C94.5194 6.38721 94.5787 5.81814 94.8415 5.41894C94.9517 4.8074 95.4179 4.51012 96.2316 4.5441C96.274 4.76493 96.3164 4.98576 96.3588 5.2066C96.8928 6.06446 96.63 7.43193 97.8421 7.86511C98.7067 8.17088 99.8595 7.44042 100.622 7.10068C101.479 6.70997 101.614 6.20035 102.097 7.09219C102.547 7.92456 102.046 7.81414 101.835 8.5446C101.682 9.08819 101.25 9.44492 101.258 10.0565C101.275 10.9568 101.75 11.1861 102.318 11.6957C102.886 12.2054 104.428 11.6448 103.343 13.2161C103.089 13.5898 102.504 13.6153 102.267 14.057C101.504 15.4754 104.157 16.3417 102.165 17.6922C101.979 17.8196 100.792 17.8621 100.512 17.9725C99.8595 18.2273 99.2831 18.686 98.7237 19.0767C96.808 20.4272 94.9432 21.8456 93.0021 23.1621C88.1282 26.4746 82.8558 29.2606 77.5157 31.7662C71.8788 34.4077 65.9369 37.321 59.8169 38.629C59.3422 38.731 59.5456 39.4444 60.0203 39.3425C65.4537 38.1789 70.7091 35.6563 75.7441 33.397C81.0927 30.9933 86.3142 28.2923 91.2729 25.1836C93.392 23.8586 95.4179 22.3977 97.4353 20.9283C98.1982 20.3762 98.9526 19.7222 99.7663 19.2551C100.902 18.6095 101.945 18.669 103.131 18.3802C104.098 18.1424 104.522 17.8961 104.42 16.8684C104.31 15.6708 102.436 15.6708 103.445 14.0315C103.742 13.5558 104.691 13.4794 104.988 12.9528C105.284 12.4177 105.217 11.9336 104.733 11.5089C104.386 11.2116 103.869 11.373 103.53 11.1691C101.114 9.72521 102.869 8.85886 103.335 7.35549C104.505 3.63528 99.5459 7.17712 98.605 7.10917C96.1553 6.94779 97.9269 3.84762 96.3333 3.05771C95.3501 2.57357 94.8754 3.4739 94.5109 4.18736C93.9515 5.27455 93.765 6.52311 93.231 7.61879C92.4681 9.17312 91.3068 10.048 89.8574 10.9568C87.7637 12.2648 85.5768 13.4539 83.3983 14.609C77.6937 17.6158 71.7602 20.2233 65.6571 22.3383C61.0121 23.952 56.4094 24.7419 52.0864 27.2306C51.671 27.4684 52.044 28.1054 52.4678 27.8676L52.4593 27.8421Z" fill="#1D1D1D"/>
<path d="M59.2999 39.1217C61.1731 45.8061 63.1566 52.652 63.3431 59.6338C63.3516 60.1094 64.106 60.1094 64.0975 59.6338C63.911 52.5925 61.9276 45.6787 60.0288 38.9263C59.9017 38.4676 59.1727 38.663 59.2999 39.1217Z" fill="#1D1D1D"/>
<path d="M30.8445 68.4077C28.1914 63.0992 26.3689 57.4339 24.8093 51.7347C24.6821 51.2761 23.9616 51.4714 24.0803 51.9301C25.6569 57.6972 27.5048 63.4135 30.1918 68.7814C30.4037 69.2061 31.0564 68.8324 30.8445 68.4077Z" fill="#1D1D1D"/>
<path d="M16.7821 38.9348C3.99112 42.3323 -8.38447 47.8956 -21.7857 48.5581C-22.2689 48.5836 -22.2689 49.3225 -21.7857 49.297C-8.30818 48.626 4.11827 43.0627 16.9855 39.6483C17.4517 39.5209 17.2567 38.8074 16.7821 38.9348Z" fill="#1D1D1D"/>
<path d="M-21.5399 48.8469C-23.0656 47.955 -25.5662 45.7127 -27.5497 46.3837C-28.8805 46.8339 -28.3719 47.5983 -27.9481 48.5921C-27.4225 49.8236 -26.8292 51.1571 -28.1091 52.2358C-28.6347 52.6775 -29.5416 52.8134 -30.1774 53.0937C-30.7792 53.357 -31.9066 53.6797 -32.2287 54.2743C-33.1441 55.9815 -30.3045 56.2024 -29.4569 56.6185C-28.4058 57.1282 -29.1348 55.8201 -28.4312 58.2068C-27.8972 60.0075 -28.0667 59.345 -28.4821 60.6955C-28.5753 61.0013 -28.7279 61.1117 -28.6855 61.4259C-28.6347 61.8081 -28.5584 62.0884 -28.1515 62.2753C-26.8461 62.8868 -25.7357 60.9928 -24.7101 62.2158C-24.1252 62.9208 -24.7525 63.7107 -24.1506 64.3902C-23.7183 64.8828 -23.2352 64.8489 -22.6588 64.7215C-21.0398 64.3562 -19.5818 62.5811 -18.0561 61.9525C-14.1654 60.3557 -9.89327 60.1264 -5.77373 59.4639C4.18608 57.8586 13.9679 54.5461 23.6819 51.9131C24.1481 51.7857 23.9531 51.0722 23.4784 51.1996C13.6203 53.8751 3.68597 57.2556 -6.43489 58.8184C-10.4527 59.4384 -14.6146 59.7017 -18.4036 61.273C-19.2089 61.6043 -19.9548 61.9865 -20.6838 62.4622C-21.2008 62.9208 -21.7518 63.337 -22.3367 63.7192C-23.4301 63.6088 -23.8116 63.1926 -23.4895 62.4791C-23.7268 61.9016 -23.0826 61.3835 -23.8031 60.8738C-24.7355 60.2113 -25.9137 61.5788 -26.7953 61.358C-28.5584 60.8993 -26.5325 59.0052 -26.7953 57.7482C-26.9563 57.0008 -27.431 56.5506 -28.1176 56.2193C-28.8042 55.8881 -29.8553 56.058 -30.4656 55.6503C-31.9235 54.6735 -30.6944 54.1129 -29.7196 53.7052C-27.8887 52.9323 -26.2274 52.4652 -26.5834 50.1634C-26.7359 49.1696 -28.1091 47.6323 -26.8546 47.0462C-25.812 46.5621 -22.8622 48.9573 -21.9383 49.5009C-21.5229 49.7472 -21.1415 49.1017 -21.5568 48.8639L-21.5399 48.8469Z" fill="#1D1D1D"/>
<path d="M15.8242 37.7882C16.4939 40.3023 20.7321 39.7502 22.6138 39.5463C26.9453 39.0707 31.2174 37.941 35.3793 36.718C38.9479 35.6648 42.4826 34.5351 45.7884 32.8109C48.3568 31.4774 51.1794 29.7617 52.8747 27.375C54.2479 25.4469 53.8834 23.2641 52.9171 21.2426C52.1881 19.7222 51.1964 18.3462 50.2555 16.9448C49.2214 15.4075 48.3144 13.8022 47.2548 12.2818C44.7967 8.76543 41.974 5.52087 39.7786 1.82614C39.5328 1.41844 38.8801 1.78367 39.1259 2.19986C40.7873 4.98577 42.7962 7.53386 44.7458 10.1159C46.5004 12.4432 47.9753 14.9063 49.5943 17.3185C51.0353 19.4504 53.1459 22.007 53.0442 24.708C52.934 27.7062 49.2214 29.9825 46.8903 31.35C40.711 34.9768 33.0738 36.9303 26.0638 38.2723C24.3346 38.6036 17.2652 40.3193 16.5447 37.5928C16.426 37.1342 15.6971 37.3295 15.8157 37.7882H15.8242Z" fill="#1D1D1D"/>
<path d="M16.2227 36.3952C15.1377 32.1909 15.2648 27.8081 14.5782 23.5359C13.9255 19.4759 13.1372 15.331 13.5017 11.2031C13.5441 10.7275 12.7897 10.736 12.7473 11.2031C12.3913 15.2631 13.1372 19.357 13.7899 23.349C14.5019 27.7402 14.3748 32.2588 15.4937 36.5906C15.6124 37.0492 16.3413 36.8539 16.2227 36.3952Z" fill="#1D1D1D"/>
<path d="M13.2728 10.7699C13.2474 13.5558 17.8925 13.0972 19.664 12.9358C23.5039 12.5706 27.3183 11.5768 30.7851 9.91207C32.9805 8.85886 35.2607 7.47439 37.0577 5.84362C38.202 4.80739 39.5497 2.82838 38.4817 1.31651C37.4137 -0.195355 34.8707 -0.0424694 33.2857 0.0679478C30.2341 0.280289 27.2843 1.1976 24.4447 2.25081C21.817 3.22758 19.3335 4.5356 16.9685 6.01349C15.6547 6.82888 13.3406 8.17937 13.4932 9.98001C13.5356 10.4472 14.29 10.4557 14.2476 9.98001C14.112 8.43417 16.4599 7.1941 17.5873 6.50612C19.1894 5.52935 20.8338 4.60355 22.546 3.82213C24.7923 2.7944 27.1996 1.98751 29.5984 1.40994C31.726 0.89183 34.43 0.348238 36.5999 0.976766C39.3463 1.77517 37.5832 4.48464 36.1253 5.67374C34.5571 6.94779 32.7516 8.08593 30.9546 9.01174C27.9964 10.5236 24.7245 11.4919 21.4271 11.993C20.02 12.2053 14.0103 13.2416 14.0357 10.7869C14.0357 10.3113 13.2898 10.3113 13.2813 10.7869L13.2728 10.7699Z" fill="#1D1D1D"/>
<path d="M29.9544 69.1551C33.8451 68.4332 37.651 67.3035 41.5417 66.5816C44.8645 65.9615 48.2551 65.8851 51.5863 65.265C54.4174 64.7469 57.257 64.0165 59.8847 62.8359C61.6139 62.0545 63.5042 60.9928 64.2331 59.1751C64.4111 58.7334 63.6822 58.5381 63.5042 58.9798C62.665 61.0947 59.7745 62.1734 57.791 62.8868C55.1294 63.8466 52.3322 64.4582 49.5265 64.8659C46.3987 65.3245 43.2624 65.4689 40.1516 66.1059C36.6678 66.8194 33.2518 67.7962 29.751 68.4417C29.2763 68.5266 29.4798 69.2401 29.9544 69.1551Z" fill="#1D1D1D"/>
<path d="M29.5815 68.5351C28.7762 69.4524 29.0559 69.996 29.6408 71.0237L30.1579 70.5226C29.1746 70.0809 28.6152 69.5119 27.5302 69.4014C27.3267 69.3845 27.1487 69.5883 27.1572 69.7667C27.1742 70.633 27.4115 70.9898 27.9286 71.7457C28.0727 71.5673 28.2083 71.3805 28.3524 71.2021C27.4708 70.9813 26.9707 70.4547 26.3096 71.2446C26.2333 71.338 26.1655 71.4739 26.2163 71.6013C26.6995 72.8074 23.648 73.0027 22.5121 73.3C20.927 73.7077 19.3335 74.0645 17.7568 74.4806C13.4508 75.6018 8.90745 76.7399 5.03372 78.9568C4.84724 79.0672 4.81333 79.2795 4.8981 79.4579C5.27106 80.2818 8.05981 80.9103 8.79726 81.1906C11.5351 82.2438 14.3408 83.1696 16.977 84.4691C20.393 86.1594 23.6564 88.3253 27.6488 87.8751C31.4971 87.4419 35.2098 85.2591 38.7445 83.8491C43.0166 82.1419 47.3226 80.613 51.7812 79.4409C55.104 78.5661 58.4607 77.8186 61.8258 77.1137C64.1314 76.6295 66.437 76.1624 68.7426 75.7122C70.4294 75.381 71.4296 75.347 72.5654 74.1069C75.1253 71.304 76.3968 67.5328 78.9058 64.628C80.8045 62.4367 82.8304 60.4407 85.1868 58.725C86.7211 57.6123 88.2129 56.5931 89.3403 55.0557C89.4929 54.8519 89.3233 54.5801 89.1114 54.5121C86.2888 53.6203 83.0253 55.2256 80.4061 56.0749C76.3798 57.383 72.1925 57.969 68.3866 59.8971C68.573 60.033 68.751 60.1774 68.9375 60.3133C68.9969 59.8886 69.0562 59.4724 69.1155 59.0477C69.1494 58.8014 68.8528 58.64 68.6409 58.691C67.2846 59.0222 66.259 59.5913 65.1486 60.4407C65.3011 60.636 65.4537 60.8314 65.6063 61.0182C66.437 60.0839 66.5641 59.5064 66.4455 58.2238C66.42 57.969 66.2251 57.8246 65.9708 57.8671C65.0384 58.02 64.4535 58.2323 63.6991 58.7504C63.3007 59.0222 63.6821 59.6593 64.0805 59.3875C65.0638 58.725 67.0303 58.2918 65.0807 60.4916C64.818 60.7889 65.174 61.341 65.5385 61.0692C65.4283 61.1541 68.3866 59.0052 68.2255 60.1094C68.1831 60.4237 68.4628 60.687 68.7765 60.5256C71.7008 59.0392 74.8286 58.3427 77.9904 57.5443C80.2197 56.9753 82.3388 56.0919 84.5596 55.5059C85.3479 55.2935 87.84 54.4527 87.7806 55.4294C87.7128 56.5676 85.2886 57.7312 84.424 58.3512C82.2964 59.8886 80.457 61.7317 78.7363 63.6852C77.4055 65.1886 76.2188 66.692 75.227 68.4247C74.0064 70.5481 72.9554 73.283 70.6921 74.3957C68.1153 75.6612 64.462 75.8056 61.6308 76.4002C59.2744 76.8928 56.9264 77.4109 54.5869 77.9715C48.7297 79.3815 43.1353 81.284 37.5663 83.5264C35.1929 84.4776 32.8703 85.6498 30.4461 86.4567C26.5215 87.7477 23.3428 86.8898 19.7912 85.0722C16.4515 83.365 13.1287 82.04 9.62795 80.7065C8.84812 80.4092 8.06828 80.1119 7.29693 79.7976C6.93244 79.6533 6.41538 79.5174 6.0848 79.2965C5.29649 78.7869 5.84746 79.3984 5.98308 79.2626C7.56818 77.6827 11.603 76.9863 13.7305 76.3577C18.1976 75.0242 22.741 74.039 27.1826 72.6205C27.4624 72.5271 27.5386 72.2128 27.3522 72.0005C26.8351 71.4144 28.7677 72.043 28.1744 71.8986C28.4795 71.975 28.7847 71.6353 28.5982 71.355C27.6488 69.945 29.217 70.8708 29.8103 71.1341C30.1409 71.287 30.5223 70.9728 30.3274 70.633C29.9544 70.1659 29.8951 69.6393 30.1579 69.0362C30.4715 68.6795 29.9459 68.1529 29.6238 68.5181L29.5815 68.5351Z" fill="#1D1D1D"/>
<path d="M37.6934 6.97327C39.1768 10.3367 41.3976 13.284 43.4319 16.3332C45.5256 19.4844 47.2972 22.8394 49.3654 26.0075C49.6282 26.4067 50.2809 26.033 50.0181 25.6338C47.9499 22.4656 46.1783 19.1107 44.0846 15.9595C42.0588 12.9103 39.8295 9.96303 38.3461 6.59955C38.1511 6.16637 37.5069 6.54009 37.6934 6.97327Z" fill="#1D1D1D"/>
<path d="M39.3378 19.9346C40.7703 23.0432 42.4741 26.0245 43.9236 29.1247C44.127 29.5578 44.7712 29.1841 44.5763 28.7509C43.1268 25.6508 41.423 22.6695 39.9905 19.5608C39.7955 19.1277 39.1429 19.5014 39.3378 19.9346Z" fill="#1D1D1D"/>
<path d="M34.3113 10.0055C34.6588 12.1289 35.8116 14.04 36.9475 15.8406C37.2018 16.2483 37.8545 15.8746 37.6002 15.4669C36.4982 13.7087 35.3793 11.8741 35.0403 9.81014C34.964 9.34299 34.235 9.53834 34.3113 10.0055Z" fill="#1D1D1D"/>
<path d="M28.505 13.2161C30.4122 20.1129 33.6417 26.5681 35.5489 33.4649C35.6761 33.9236 36.405 33.7282 36.2779 33.2696C34.3707 26.3727 31.1412 19.9176 29.234 13.0207C29.1068 12.5621 28.3779 12.7574 28.505 13.2161Z" fill="#1D1D1D"/>
<path d="M22.9275 13.7427C23.809 16.9533 24.3176 20.2403 25.1907 23.4509C25.3178 23.9096 26.0383 23.7142 25.9197 23.2556C25.0551 20.045 24.538 16.7579 23.6565 13.5473C23.5293 13.0887 22.8003 13.284 22.9275 13.7427Z" fill="#1D1D1D"/>
<path d="M25.6824 25.948C26.3181 29.1416 28.3016 32.1824 28.1066 35.5119C28.0812 35.9875 28.8356 35.9875 28.861 35.5119C29.056 32.1059 27.0555 29.0142 26.4113 25.7527C26.3181 25.2855 25.5891 25.4809 25.6824 25.948Z" fill="#1D1D1D"/>
<path d="M17.0957 15.4584C18.2485 22.2618 17.8416 29.2521 19.6217 35.962C19.7403 36.4207 20.4693 36.2253 20.3506 35.7667C18.5621 29.0567 18.9774 22.0664 17.8246 15.2631C17.7484 14.7959 17.0194 14.9913 17.0957 15.4584Z" fill="#1D1D1D"/>
<path d="M63.0973 55.3445C57.8758 58.1049 52.3831 60.3387 46.7123 62.046C41.1518 63.7192 35.142 65.2735 29.3018 65.3925C28.8186 65.4009 28.8186 66.1399 29.3018 66.1314C35.2183 66.0125 41.2874 64.4497 46.9158 62.7594C52.6458 61.0352 58.2064 58.7759 63.4787 55.9815C63.9025 55.7522 63.5296 55.1152 63.0973 55.3445Z" fill="#1D1D1D"/>
<path d="M62.5972 59.3875C62.6142 58.6825 62.3683 58.02 62.1903 57.3575C62.1395 57.1706 61.9191 57.0347 61.7241 57.1027C61.5292 57.1706 61.4105 57.3575 61.4614 57.5528C61.5461 57.8671 61.6478 58.1814 61.7241 58.4956C61.7665 58.6485 61.7919 58.8014 61.8174 58.9543C61.8174 58.9968 61.8174 59.0052 61.8174 58.9543C61.8174 58.9713 61.8174 58.9883 61.8174 59.0052C61.8174 59.0477 61.8174 59.0902 61.8259 59.1326C61.8259 59.2176 61.8259 59.3025 61.8259 59.3875C61.8259 59.5828 62.0039 59.7697 62.1988 59.7527C62.4022 59.7442 62.5718 59.5913 62.5718 59.3875H62.5972Z" fill="#1D1D1D"/>
<path d="M59.8423 57.7737C59.6728 58.3937 59.7915 59.0477 59.8423 59.6762C59.8678 59.948 59.8847 60.3218 59.8423 60.5341C59.8169 60.67 59.7915 60.7634 59.7491 60.8484C59.7237 60.8993 59.6982 60.9418 59.6643 60.9928C59.6474 61.0182 59.5456 61.1541 59.6219 61.0692C59.5965 61.0947 59.5796 61.1202 59.5541 61.1456C59.4948 61.2136 59.6219 61.1117 59.5541 61.1456C59.5033 61.1711 59.6474 61.1117 59.605 61.1287C59.5711 61.1371 59.5456 61.1287 59.6643 61.1287C59.6135 61.1287 59.766 61.1456 59.7237 61.1371C59.6982 61.1371 59.8254 61.1966 59.766 61.1541C59.8678 61.2221 59.8169 61.1966 59.7915 61.1541C59.8847 61.2645 59.8169 61.1796 59.7999 61.1541C59.7915 61.1456 59.7915 61.1287 59.783 61.1202C59.7576 61.0947 59.8084 61.2136 59.7999 61.1541C59.7915 61.1117 59.7745 61.0777 59.7576 61.0352C59.7067 60.8653 59.6813 60.6955 59.6558 60.5171C59.6728 60.6105 59.6558 60.4746 59.6474 60.4492C59.6474 60.3982 59.6389 60.3557 59.6304 60.3048C59.6219 60.1944 59.6135 60.0924 59.5965 59.982C59.5626 59.5998 59.5541 59.2091 59.4948 58.8269C59.4694 58.6315 59.2066 58.5211 59.0286 58.5721C58.8082 58.6315 58.7404 58.8269 58.7658 59.0222C58.7404 58.8693 58.7658 58.9883 58.7658 59.0222C58.7658 59.0562 58.7658 59.0817 58.7743 59.1157C58.7743 59.2006 58.7912 59.294 58.7912 59.379C58.8082 59.5913 58.8167 59.7952 58.8421 60.0075C58.876 60.4322 58.9099 60.8738 59.0455 61.2815C59.1133 61.4684 59.1981 61.6638 59.3761 61.7742C59.5541 61.8846 59.783 61.8761 59.961 61.7572C60.1559 61.6298 60.2831 61.4259 60.3848 61.2221C60.5459 60.9078 60.5967 60.5681 60.6052 60.2198C60.6052 59.8206 60.5543 59.4214 60.5204 59.0222C60.5035 58.8269 60.4865 58.6315 60.495 58.4362C60.5035 58.2408 60.5035 58.1474 60.5543 57.969C60.6815 57.5104 59.9525 57.315 59.8254 57.7737H59.8423Z" fill="#1D1D1D"/>
<path d="M56.2568 59.7017C56.2144 60.5681 56.2398 61.4599 56.4348 62.3093C56.4772 62.5046 56.706 62.615 56.901 62.5641C57.1044 62.5131 57.2061 62.3008 57.1638 62.1139C56.9857 61.3495 56.9688 60.5171 57.0112 59.7017C57.0197 59.5064 56.8332 59.3365 56.6382 59.3365C56.4263 59.3365 56.2737 59.5064 56.2652 59.7017H56.2568Z" fill="#1D1D1D"/>
<path d="M54.5276 60.8144C54.2987 61.1626 54.2309 61.5703 54.2394 61.9865C54.2394 62.3602 54.2987 62.7255 54.2733 63.0907C54.4343 62.9718 54.5869 62.8529 54.748 62.734C54.6717 62.717 54.6039 62.7 54.5276 62.683C54.5106 62.683 54.4937 62.6745 54.4767 62.666C54.4174 62.649 54.553 62.7 54.5361 62.6915L54.6717 62.8274V63.2011C54.5954 63.2606 54.5191 63.3115 54.4428 63.371C54.375 63.3965 54.3157 63.371 54.375 63.3795C54.392 63.3795 54.4089 63.3795 54.4259 63.3795C54.5361 63.3795 54.6632 63.354 54.7395 63.2691C54.8666 63.1247 54.9006 62.8868 54.7395 62.7509C54.5954 62.6235 54.3411 62.5981 54.2055 62.7509C54.4004 62.5301 54.553 62.6575 54.4259 62.649C54.4089 62.649 54.392 62.649 54.375 62.649C54.2224 62.649 54.1038 62.7085 54.0105 62.8359C53.9342 62.9378 53.9512 63.0992 54.0105 63.2096C54.1122 63.388 54.3496 63.4134 54.5361 63.4559C54.7904 63.5154 54.9938 63.3455 55.0107 63.0992C55.0362 62.7509 54.9853 62.4112 54.9768 62.063C54.9768 61.978 54.9768 61.8931 54.9768 61.7997C54.9768 61.7657 54.9768 61.7317 54.9768 61.6977C54.9768 61.6723 54.9768 61.6553 54.9768 61.6298C54.9768 61.6723 54.9768 61.6723 54.9768 61.6298C54.9938 61.5533 55.0192 61.4769 55.0362 61.4005C55.0531 61.358 55.0531 61.358 55.0362 61.392C55.0447 61.3665 55.0531 61.3495 55.0701 61.324C55.0955 61.2815 55.1209 61.2391 55.1464 61.1966C55.2481 61.0352 55.1888 60.7804 55.0107 60.6955C54.8243 60.6021 54.6124 60.653 54.4937 60.8314L54.5276 60.8144Z" fill="#1D1D1D"/>
<path d="M52.2135 63.6682C52.1881 63.5918 52.1627 63.5069 52.1373 63.4304C52.1373 63.3965 52.1203 63.3625 52.1118 63.3285C52.1118 63.3115 52.0864 63.1756 52.0949 63.2521C52.0779 63.1077 52.0694 62.9548 52.061 62.8104C52.0525 62.4791 52.0355 62.1479 51.9593 61.8251C51.9169 61.6383 51.688 61.5109 51.4931 61.5703C51.2896 61.6298 51.1794 61.8251 51.2303 62.0205C51.2388 62.0629 51.2472 62.1139 51.2557 62.1564C51.2557 62.1734 51.2727 62.2753 51.2557 62.1989C51.2642 62.2753 51.2727 62.3602 51.2811 62.4367C51.2896 62.5811 51.2896 62.7339 51.2981 62.8783C51.315 63.2096 51.349 63.5493 51.4591 63.8636C51.527 64.042 51.7134 64.1864 51.9254 64.1184C52.1034 64.059 52.2644 63.8551 52.1881 63.6682H52.2135Z" fill="#1D1D1D"/>
<path d="M50.0605 64.042C50.0012 63.974 49.9503 63.9061 49.891 63.8126C49.8656 63.7702 49.8317 63.7192 49.8063 63.6682C49.7978 63.6428 49.7808 63.6173 49.7723 63.6003C49.7723 63.5918 49.7469 63.5408 49.7639 63.5833C49.7215 63.4899 49.6961 63.388 49.6706 63.286C49.6621 63.2351 49.6452 63.1841 49.6367 63.1332C49.6367 63.1162 49.6367 63.0737 49.6367 63.1162C49.6367 63.0822 49.6367 63.0482 49.6282 63.0227C49.6282 62.9208 49.6198 62.8104 49.6282 62.7085C49.6282 62.6575 49.6282 62.6065 49.6452 62.5471C49.6452 62.4791 49.6452 62.5896 49.6452 62.5301C49.6452 62.5046 49.6537 62.4791 49.6621 62.4537C49.7045 62.2328 49.7723 62.0205 49.8571 61.8166C49.9334 61.6298 49.7723 61.4089 49.5943 61.3665C49.3824 61.307 49.2044 61.4429 49.1281 61.6213C48.9417 62.0799 48.8399 62.5981 48.8908 63.0992C48.9501 63.6513 49.1705 64.1524 49.5435 64.5771C49.6791 64.73 49.9419 64.713 50.0775 64.5771C50.2301 64.4242 50.2131 64.2033 50.0775 64.059L50.0605 64.042Z" fill="#1D1D1D"/>
<path d="M48.0856 64.4327C48.0856 64.4327 48.0347 64.3817 48.0177 64.3562C48.0517 64.3987 48.0516 64.3987 48.0262 64.3732C48.0177 64.3562 48.0093 64.3477 47.9923 64.3307C47.9499 64.2798 47.916 64.2203 47.8821 64.1609C47.8482 64.1014 47.8143 64.042 47.7804 63.9825C47.7635 63.9485 47.7465 63.9231 47.738 63.8891C47.738 63.8806 47.6956 63.7872 47.7126 63.8381C47.7295 63.8891 47.6956 63.7956 47.6956 63.7872C47.6872 63.7532 47.6702 63.7277 47.6617 63.6937C47.6363 63.6258 47.6194 63.5663 47.6024 63.4984C47.5685 63.371 47.5346 63.2351 47.5092 63.1077C47.4753 62.9208 47.2294 62.7934 47.043 62.8529C46.831 62.9208 46.7463 63.0992 46.7802 63.303C46.8819 63.9061 47.1362 64.4836 47.5431 64.9508C47.6702 65.0952 47.9415 65.0867 48.0771 64.9508C48.2212 64.7894 48.2127 64.5856 48.0771 64.4327H48.0856Z" fill="#1D1D1D"/>
<path d="M45.2289 64.7639C45.0848 64.4582 44.9238 64.1524 44.7288 63.8721C44.6695 63.7956 44.6017 63.7277 44.5 63.7022C44.4067 63.6767 44.2881 63.6852 44.2118 63.7362C44.1355 63.7872 44.0592 63.8636 44.0422 63.957C44.0253 64.0505 44.0253 64.1609 44.0761 64.2458C44.2711 64.5261 44.4322 64.8234 44.5763 65.1376C44.6102 65.2141 44.7204 65.282 44.8051 65.3075C44.8984 65.333 45.017 65.3245 45.0933 65.2735C45.1696 65.2226 45.2459 65.1461 45.2629 65.0527L45.2798 64.9508C45.2798 64.8828 45.2629 64.8234 45.2289 64.7639Z" fill="#1D1D1D"/>
<path d="M42.4402 65.1546C42.4402 65.1546 42.3978 65.0952 42.3724 65.0697C42.3385 65.0357 42.4317 65.1461 42.3724 65.0782C42.3639 65.0697 42.3554 65.0527 42.347 65.0442C42.3046 64.9848 42.2622 64.9253 42.2198 64.8659C42.135 64.7469 42.0588 64.628 41.9825 64.5091C41.8129 64.2543 41.6265 63.991 41.4145 63.7702C41.2789 63.6258 41.0162 63.6258 40.8805 63.7702C40.7364 63.9231 40.7364 64.1439 40.8805 64.2883C40.9314 64.3392 40.9738 64.3987 41.0246 64.4497C41.0331 64.4582 41.0416 64.4751 41.0585 64.4836C40.9907 64.4157 41.0331 64.4582 41.0585 64.4751C41.084 64.5006 41.1009 64.5346 41.1263 64.5601C41.2111 64.679 41.2959 64.7979 41.3722 64.9168C41.5417 65.1716 41.7197 65.4349 41.9231 65.6727C42.0503 65.8256 42.33 65.8086 42.4571 65.6727C42.6012 65.5114 42.5928 65.3075 42.4571 65.1546H42.4402Z" fill="#1D1D1D"/>
<path d="M40.1601 65.7152C39.8719 65.1546 39.5752 64.5261 38.9988 64.1949C38.8293 64.0929 38.575 64.1524 38.4818 64.3307C38.3885 64.5091 38.4394 64.7299 38.6174 64.8319C38.6428 64.8489 38.6767 64.8658 38.7021 64.8828C38.7106 64.8828 38.7615 64.9253 38.7106 64.8828C38.6598 64.8404 38.7106 64.8828 38.7191 64.8828C38.77 64.9253 38.8208 64.9763 38.8632 65.0187C38.8886 65.0442 38.9056 65.0697 38.931 65.0952C38.948 65.1122 38.9564 65.1291 38.9734 65.1461C38.9649 65.1376 38.9225 65.0782 38.9564 65.1207C38.9988 65.1801 39.0412 65.2396 39.0836 65.3075C39.2446 65.5538 39.3718 65.8171 39.5074 66.0719C39.6006 66.2418 39.8549 66.3098 40.0245 66.2078C40.2025 66.0974 40.2533 65.8851 40.1601 65.7067V65.7152Z" fill="#1D1D1D"/>
<path d="M37.8036 66.2418C37.7189 66.1399 37.6341 66.0465 37.5493 65.9446C37.5069 65.8936 37.473 65.8511 37.4307 65.8002C37.4222 65.7917 37.4137 65.7747 37.4052 65.7662C37.473 65.8426 37.4307 65.8002 37.4137 65.7832C37.3968 65.7577 37.3713 65.7322 37.3544 65.7067C37.2781 65.6048 37.2103 65.5029 37.1509 65.401C37.117 65.35 37.0831 65.2905 37.0662 65.2311C37.0662 65.2481 37.1001 65.3075 37.0746 65.2566C37.0746 65.2396 37.0662 65.2311 37.0577 65.2141C37.0407 65.1801 37.0323 65.1462 37.0238 65.1122C36.9645 64.9253 36.761 64.7894 36.5576 64.8574C36.3711 64.9168 36.227 65.1122 36.2948 65.3075C36.4813 65.8766 36.8797 66.3183 37.2611 66.7684C37.3883 66.9128 37.6595 66.9043 37.7951 66.7684C37.9392 66.6071 37.9308 66.4032 37.7951 66.2503L37.8036 66.2418Z" fill="#1D1D1D"/>
<path d="M36.3711 66.9213C36.3711 66.9213 36.3457 66.8958 36.3287 66.8873C36.2948 66.8619 36.405 66.9468 36.3457 66.8958C36.3202 66.8788 36.2948 66.8534 36.2694 66.8364C36.2185 66.7939 36.1677 66.7429 36.1168 66.7005C36.066 66.658 36.0236 66.5986 35.9812 66.5476C35.9727 66.5306 35.9558 66.5221 35.9473 66.5051C35.9558 66.5136 35.9981 66.5731 35.9642 66.5306C35.9473 66.5051 35.9219 66.4711 35.9049 66.4457C35.871 66.3947 35.8371 66.3352 35.8032 66.2758C35.7862 66.2418 35.7693 66.2078 35.7523 66.1824C35.7269 66.1399 35.7523 66.1993 35.7608 66.2078C35.7608 66.1909 35.7438 66.1739 35.7438 66.1569C35.7184 66.0889 35.7015 66.0295 35.6845 65.9615C35.676 65.9276 35.6676 65.8936 35.6591 65.8511C35.6591 65.8341 35.6591 65.8256 35.6591 65.8086C35.6845 65.9106 35.6591 65.8511 35.6591 65.8171C35.6506 65.7152 35.6252 65.6303 35.5489 65.5538C35.4811 65.4859 35.3794 65.4434 35.2861 65.4434C35.0996 65.4434 34.8877 65.6048 34.9132 65.8086C34.9471 66.1654 35.0657 66.5051 35.2607 66.8024C35.4556 67.0997 35.7099 67.3375 36.0066 67.5498C36.0829 67.6008 36.21 67.6093 36.2948 67.5838C36.3796 67.5583 36.4728 67.4904 36.5237 67.4139C36.6254 67.2186 36.5576 67.0317 36.3881 66.9128L36.3711 66.9213Z" fill="#1D1D1D"/>
<path d="M34.1588 67.3715C34.091 67.346 34.0316 67.312 33.9723 67.2696C33.9638 67.2696 33.9553 67.2526 33.9469 67.2526L33.9977 67.2865C33.9977 67.2865 33.9723 67.2611 33.9553 67.2526C33.9299 67.2271 33.9045 67.2016 33.8791 67.1761C33.8706 67.1676 33.8536 67.1507 33.8452 67.1422C33.7943 67.0827 33.8875 67.1931 33.8621 67.1676C33.8451 67.1422 33.8197 67.1167 33.8028 67.0827C33.7689 67.0232 33.735 66.9638 33.7095 66.8958L33.7434 66.9808C33.6841 66.8449 33.6502 66.7005 33.6248 66.5476L33.6417 66.6495C33.6417 66.5901 33.6248 66.5306 33.6248 66.4712C33.6163 66.2758 33.4637 66.0889 33.2518 66.1059C33.0568 66.1144 32.8619 66.2673 32.8788 66.4712C32.9127 67.0827 33.1755 67.7367 33.7858 68C33.8791 68.0425 33.9723 68.068 34.074 68.034C34.1588 68.0085 34.252 67.9406 34.3029 67.8641C34.3453 67.7792 34.3707 67.6773 34.3368 67.5753C34.3114 67.4904 34.252 67.3885 34.1673 67.3545L34.1588 67.3715Z" fill="#1D1D1D"/>
<path d="M30.7936 66.004C30.8784 66.692 31.1581 67.3205 31.5989 67.8641C31.726 68.017 32.0058 68 32.1329 67.8641C32.2855 67.7027 32.2685 67.5074 32.1329 67.346C32.1075 67.312 32.1075 67.3205 32.1414 67.363C32.1329 67.346 32.116 67.3375 32.1075 67.3205C32.0821 67.295 32.0651 67.2611 32.0481 67.2356C32.0058 67.1761 31.9719 67.1167 31.9295 67.0572C31.8617 66.9383 31.7939 66.8194 31.743 66.692C31.726 66.658 31.726 66.658 31.743 66.7005C31.743 66.6835 31.726 66.6665 31.726 66.6495C31.7091 66.6155 31.7006 66.5816 31.6837 66.5476C31.6582 66.4881 31.6413 66.4287 31.6243 66.3607C31.6074 66.2928 31.5819 66.2163 31.5735 66.1484C31.5735 66.1144 31.5565 66.0804 31.5565 66.038C31.5565 66.021 31.5565 66.004 31.548 65.987C31.548 66.038 31.548 66.0465 31.548 66.004C31.5396 65.9021 31.5141 65.8171 31.4378 65.7407C31.37 65.6728 31.2683 65.6303 31.1751 65.6303C30.9886 65.6303 30.7767 65.7917 30.8021 65.9955L30.7936 66.004Z" fill="#1D1D1D"/>
<path d="M46.0512 65.5538C44.8814 65.1377 43.5252 65.9276 42.5589 66.5051C41.1179 67.363 39.8125 68.4247 38.4648 69.4184C36.9729 70.5226 35.3709 71.4994 33.8367 72.5441C31.8108 73.9201 29.6917 75.296 27.2674 75.8566C26.7927 75.967 26.9962 76.6805 27.4709 76.5701C29.6069 76.069 31.5141 74.9733 33.3196 73.7842C34.9895 72.6885 36.6847 71.5758 38.3292 70.4377C39.5498 69.5883 40.6941 68.637 41.9232 67.7962C42.898 67.1337 44.5933 65.8171 45.8647 66.2673C46.3224 66.4287 46.5174 65.7152 46.0681 65.5538H46.0512Z" fill="#1D1D1D"/>
<path d="M44.9831 65.8936C42.6945 69.1127 40.6263 72.5101 38.0155 75.4914C35.6675 78.1754 32.6584 79.959 29.6578 81.8446C29.2509 82.0994 29.6239 82.7365 30.0392 82.4817C33.0907 80.5621 36.1592 78.7445 38.5495 76.0095C41.2027 72.9773 43.3133 69.5289 45.6358 66.2588C45.9155 65.8681 45.2629 65.5029 44.9831 65.8851V65.8936Z" fill="#1D1D1D"/>
<path d="M27.4031 76.1963C27.2335 75.6952 26.869 75.2451 26.3011 75.1856C25.7501 75.1261 25.3179 75.5678 25.1059 76.018C25.0381 76.1539 25.0297 76.3577 25.1653 76.4681C25.4874 76.723 25.8773 76.8758 26.2926 76.8419C26.708 76.8079 27.0979 76.621 27.4285 76.3577C27.5811 76.2303 27.5726 75.9585 27.4285 75.8396C27.2674 75.6952 27.0555 75.7037 26.8945 75.8396C26.886 75.8481 26.8606 75.8736 26.8521 75.8736C26.869 75.8736 26.9029 75.8396 26.8521 75.8736C26.8182 75.8906 26.7927 75.9161 26.7588 75.933C26.691 75.9755 26.6232 76.0095 26.5554 76.0435C26.513 76.0689 26.6232 76.018 26.5724 76.0435C26.5554 76.0435 26.5385 76.052 26.5215 76.0605C26.4876 76.0689 26.4537 76.0859 26.4198 76.0944C26.3859 76.1029 26.352 76.1114 26.3181 76.1199C26.3011 76.1199 26.2842 76.1199 26.2672 76.1284C26.2163 76.1369 26.3604 76.1284 26.2757 76.1284C26.2079 76.1284 26.1401 76.1284 26.0723 76.1284C26.0553 76.1284 26.0383 76.1284 26.0214 76.1284C26.0383 76.1284 26.0977 76.1454 26.0468 76.1284C26.0129 76.1284 25.979 76.1114 25.9451 76.1029C25.9112 76.0944 25.8773 76.0859 25.8519 76.0689C25.7841 76.0435 25.9027 76.0944 25.8519 76.0689C25.8349 76.0689 25.818 76.052 25.8095 76.0435C25.7756 76.0265 25.7501 76.0095 25.7162 75.9925C25.6993 75.984 25.6908 75.9755 25.6739 75.967C25.6315 75.9415 25.7417 76.0265 25.6739 75.967C25.6908 76.1199 25.7162 76.2643 25.7332 76.4172C25.7586 76.3577 25.7841 76.3068 25.818 76.2558C25.8264 76.2303 25.8434 76.2133 25.8603 76.1963C25.8688 76.1794 25.9112 76.1369 25.9112 76.1199C25.8603 76.1794 25.9112 76.1454 25.9112 76.1199C25.9282 76.1029 25.9366 76.0859 25.9536 76.0774C25.9705 76.0605 25.9875 76.0435 26.0044 76.0265C26.0383 76.001 26.0892 75.984 26.0044 76.0265C26.0383 76.0095 26.0723 75.984 26.1062 75.967C26.174 75.9246 26.0299 75.9925 26.0892 75.967C26.1062 75.967 26.1231 75.9585 26.1401 75.95C26.157 75.95 26.174 75.9415 26.1994 75.933C26.2757 75.9161 26.1062 75.933 26.174 75.933C26.2079 75.933 26.2418 75.933 26.2757 75.933C26.3011 75.933 26.1655 75.9076 26.2503 75.933C26.2672 75.933 26.2842 75.933 26.3011 75.9415C26.3181 75.9415 26.335 75.9585 26.352 75.9585C26.2842 75.933 26.2757 75.9246 26.3096 75.9415C26.3181 75.9415 26.3265 75.95 26.3435 75.9585C26.3774 75.9755 26.4028 75.9925 26.4283 76.0095C26.352 75.9415 26.4791 76.0435 26.4283 76.0095C26.4452 76.018 26.4537 76.035 26.4706 76.0435C26.4876 76.052 26.4961 76.0689 26.513 76.0859C26.5385 76.1114 26.5724 76.1794 26.513 76.0859C26.53 76.1199 26.5639 76.1539 26.5808 76.1879C26.6063 76.2303 26.6317 76.2728 26.6486 76.3238C26.6147 76.2388 26.6826 76.3917 26.6486 76.3238C26.6571 76.3492 26.6741 76.3832 26.6826 76.4087C26.7419 76.5955 26.9453 76.7314 27.1488 76.6635C27.3352 76.604 27.4793 76.4087 27.4115 76.2133L27.4031 76.1963Z" fill="#1D1D1D"/>
<path d="M29.3187 81.7597C28.8864 81.7172 28.3948 81.8361 28.115 82.1759C27.8014 82.5496 27.7675 83.0507 27.9455 83.4839C27.9794 83.5603 28.0133 83.6198 28.0811 83.6792C28.1405 83.7217 28.2337 83.7642 28.31 83.7557C28.5473 83.7217 28.7593 83.6707 28.9796 83.5773C29.1661 83.5009 29.3272 83.382 29.4798 83.2546C29.7764 83.0082 30.0053 82.6855 30.1663 82.3457C30.2087 82.2523 30.2342 82.1589 30.2002 82.057C30.1748 81.972 30.107 81.8786 30.0307 81.8361C29.8612 81.7512 29.6069 81.7852 29.5137 81.972C29.4458 82.1249 29.3611 82.2693 29.2594 82.4052C29.2509 82.4222 29.2339 82.4392 29.217 82.4562C29.1746 82.5156 29.2678 82.3882 29.217 82.4562C29.1916 82.4816 29.1661 82.5156 29.1407 82.5411C29.0898 82.6006 29.0305 82.66 28.9712 82.711C28.9542 82.728 28.9373 82.7364 28.9203 82.7534C28.9118 82.7619 28.861 82.8044 28.9118 82.7619C28.9627 82.7195 28.9034 82.7619 28.8949 82.7789C28.8779 82.7874 28.8694 82.7959 28.8525 82.8044C28.7847 82.8469 28.7084 82.8893 28.6321 82.9233C28.6152 82.9233 28.5558 82.9573 28.6152 82.9233C28.6745 82.8893 28.6067 82.9233 28.5897 82.9233C28.5558 82.9403 28.5134 82.9488 28.4795 82.9573C28.4371 82.9658 28.3948 82.9828 28.3524 82.9913C28.3185 82.9913 28.1744 83.0167 28.3015 82.9998L28.666 83.2715C28.6321 83.1866 28.5982 83.1017 28.5813 83.0082C28.5643 82.9063 28.5813 83.0762 28.5813 83.0082C28.5813 82.9913 28.5813 82.9743 28.5813 82.9488C28.5813 82.9148 28.5813 82.8808 28.5813 82.8384C28.5813 82.7449 28.5643 82.9148 28.5813 82.8469C28.5813 82.8299 28.5813 82.8129 28.5897 82.7959C28.5897 82.7619 28.6067 82.7365 28.6152 82.7025C28.6321 82.643 28.5728 82.7959 28.6152 82.7195C28.6152 82.7025 28.6321 82.694 28.6406 82.677C28.6491 82.66 28.6575 82.6515 28.666 82.6345C28.7169 82.5666 28.6321 82.6685 28.6491 82.6515C28.6745 82.626 28.6999 82.6006 28.7253 82.5751C28.7338 82.5666 28.7508 82.5581 28.7593 82.5411C28.6745 82.6175 28.7169 82.5751 28.7423 82.5581C28.7762 82.5411 28.8016 82.5241 28.8355 82.5071C28.8694 82.4901 28.9118 82.4901 28.8101 82.5156C28.8271 82.5156 28.8525 82.4986 28.8694 82.4986C28.9034 82.4901 28.9457 82.4731 28.9881 82.4646C29.0051 82.4646 29.022 82.4647 29.0475 82.4562C28.9373 82.4901 28.9966 82.4562 29.039 82.4562C29.1322 82.4562 29.2255 82.4562 29.3187 82.4562C29.5137 82.4731 29.7001 82.2693 29.6917 82.0909C29.6832 81.8701 29.5221 81.7427 29.3187 81.7257V81.7597Z" fill="#1D1D1D"/>
<path d="M29.0983 83.1102C30.6495 83.4329 32.2176 82.4816 33.4298 81.6493C35.1081 80.5026 36.6084 79.1182 38.0494 77.6997C39.643 76.1284 41.1009 74.4891 42.347 72.6375C43.966 70.2253 45.2883 67.6433 46.7547 65.1376C47.0005 64.7215 46.3478 64.3562 46.102 64.7639C44.7627 67.0487 43.5421 69.393 42.1096 71.6268C40.8975 73.5124 39.4904 75.2026 37.9053 76.7909C36.6338 78.065 35.3115 79.322 33.8705 80.4177C32.7008 81.3095 30.9038 82.728 29.3017 82.3967C28.827 82.2948 28.6236 83.0082 29.0983 83.1102Z" fill="#1D1D1D"/>
<path d="M26.7419 76.035C29.8019 74.5061 32.8534 72.9178 35.7184 71.0577C37.1425 70.1404 38.5326 69.1636 39.9482 68.2463C41.3044 67.363 42.7878 66.1229 44.4661 65.9785C44.9408 65.9361 44.9493 65.1971 44.4661 65.2396C42.9573 65.367 41.7791 66.1909 40.5415 66.9808C38.9819 67.983 37.4561 69.0277 35.9049 70.047C32.8619 72.0515 29.6239 73.7587 26.3605 75.3895C25.9282 75.6018 26.3096 76.2473 26.7419 76.0265V76.035Z" fill="#1D1D1D"/>
<path d="M56.8162 22.5166C61.6224 22.7884 65.9284 19.7987 69.8869 17.5393C70.3022 17.3015 69.9293 16.6645 69.5054 16.9023C65.6656 19.1022 61.4783 22.0495 56.8162 21.7862C56.3331 21.7607 56.3331 22.4996 56.8162 22.5251V22.5166Z" fill="#1D1D1D"/>
<path d="M11.7216 37.8731C8.99221 38.5186 6.44081 39.7332 3.7114 40.3617C3.23672 40.4721 3.44015 41.1856 3.91483 41.0752C6.64424 40.4382 9.19564 39.2321 11.9251 38.5866C12.3997 38.4761 12.1963 37.7627 11.7216 37.8731Z" fill="#1D1D1D"/>
<path d="M8.84811 37.4484C10.2128 37.0917 11.3402 36.1829 11.9929 34.9598C12.0861 34.7814 12.0352 34.5606 11.8572 34.4587C11.6877 34.3652 11.4419 34.4162 11.3402 34.5946C10.7638 35.6647 9.83138 36.4292 8.64468 36.7434C8.17847 36.8623 8.37343 37.5758 8.84811 37.4569V37.4484Z" fill="#1D1D1D"/>
<path d="M24.7245 67.9915C24.2583 69.1636 23.097 69.6902 21.9527 70.0555C20.7491 70.4377 19.4522 70.7095 18.3841 71.4144C17.9857 71.6777 18.3587 72.3233 18.7656 72.0515C20.9355 70.599 24.3515 70.9728 25.4535 68.1869C25.6315 67.7452 24.9025 67.5498 24.7245 67.9915Z" fill="#1D1D1D"/>
<path d="M23.1733 67.312C23.7243 66.2333 23.8684 65.0103 23.5293 63.8381C23.3937 63.3795 22.6732 63.5748 22.8004 64.0335C23.0886 65.0018 22.9784 66.0295 22.5206 66.9383C22.4274 67.1167 22.4698 67.3375 22.6563 67.4394C22.8258 67.5329 23.0801 67.4819 23.1733 67.3035V67.312Z" fill="#1D1D1D"/>
<path d="M65.3266 54.6225C65.9369 55.2256 66.6489 55.7607 67.4711 56.041C68.3357 56.3383 69.2342 56.2533 70.0564 55.8881C70.2429 55.8032 70.2853 55.5399 70.192 55.387C70.0818 55.2001 69.8615 55.1746 69.675 55.2511C69.0053 55.5483 68.2933 55.5568 67.6067 55.3105C66.9286 55.0642 66.3522 54.5971 65.8521 54.1044C65.513 53.7647 64.979 54.2913 65.3181 54.6225H65.3266Z" fill="#1D1D1D"/>
<path d="M67.6068 52.3377C67.4796 52.3208 67.361 52.2953 67.2338 52.2698C67.1745 52.2528 67.1067 52.2358 67.0473 52.2103C67.0219 52.2018 66.9965 52.1934 66.9711 52.1849C66.9541 52.1849 66.8693 52.1509 66.9626 52.1849C66.8524 52.1509 66.7507 52.0829 66.6574 52.032C66.6066 52.0065 66.5642 51.9725 66.5133 51.9385C66.437 51.8876 66.5557 51.9725 66.4964 51.93C66.4794 51.9131 66.454 51.8961 66.437 51.8791C66.3523 51.8026 66.276 51.7262 66.1997 51.6413C66.1234 51.5733 66.1827 51.6243 66.1997 51.6413C66.1827 51.6243 66.1658 51.5988 66.1573 51.5818C66.1234 51.5308 66.0895 51.4799 66.0556 51.4289C66.0302 51.3865 66.0047 51.3355 65.9793 51.293C65.9708 51.2675 65.9539 51.2421 65.9454 51.2166C65.9454 51.1996 65.9284 51.1826 65.92 51.1656C65.9369 51.2081 65.9454 51.2166 65.92 51.1741C65.8776 51.0552 65.8352 50.9448 65.8013 50.8259C65.7504 50.639 65.5301 50.5031 65.3351 50.5711C65.1401 50.639 65.0215 50.8259 65.0723 51.0212C65.2079 51.5393 65.4792 52.0405 65.903 52.4057C66.3268 52.7709 66.8524 52.9918 67.4033 53.0682C67.5983 53.0937 67.8187 53.0257 67.8696 52.8134C67.9119 52.6435 67.8187 52.3887 67.6068 52.3632V52.3377Z" fill="#1D1D1D"/>
<path d="M90.6287 79.7807C90.9593 78.5576 91.1712 77.3005 91.2306 76.035C91.256 75.5593 90.5016 75.5593 90.4762 76.035C90.4168 77.2326 90.2134 78.4217 89.8998 79.5853C89.7726 80.044 90.5016 80.2393 90.6287 79.7807Z" fill="#1D1D1D"/>
<path d="M92.8156 77.6573C93.4259 75.4149 93.0954 72.9773 94.0532 70.8199C94.2481 70.3867 93.5955 70.013 93.4005 70.4462C92.4088 72.68 92.7139 75.1431 92.0867 77.4619C91.9595 77.9206 92.6885 78.1159 92.8156 77.6573Z" fill="#1D1D1D"/>
<path d="M86.8906 109.169C87.5009 108.667 87.7891 107.929 87.8146 107.164C87.823 106.79 87.6959 106.4 87.2721 106.315C86.9076 106.238 86.5092 106.391 86.204 106.578C85.5514 106.977 85.1106 107.597 84.8648 108.311C84.8054 108.489 84.7631 108.667 84.7037 108.846C84.6359 109.05 84.5766 109.262 84.5596 109.474C84.5342 109.806 84.7037 110.247 85.0597 110.349C85.2377 110.4 85.4836 110.349 85.6616 110.29C85.8904 110.213 86.0769 110.052 86.2634 109.908C86.6194 109.619 86.8652 109.262 87.0941 108.88C87.3399 108.464 86.6872 108.098 86.4414 108.506C86.3058 108.744 86.1617 108.982 85.9667 109.177C85.7972 109.347 85.5768 109.568 85.331 109.619C85.3055 109.619 85.2801 109.627 85.2547 109.636C85.2377 109.636 85.2377 109.636 85.2377 109.636H85.2208C85.2208 109.636 85.2886 109.653 85.314 109.67L85.3564 109.695C85.3564 109.695 85.331 109.619 85.314 109.593C85.3055 109.517 85.314 109.576 85.314 109.593C85.314 109.568 85.314 109.542 85.314 109.508C85.3225 109.372 85.3818 109.237 85.4157 109.101C85.4666 108.948 85.5005 108.803 85.5514 108.651C85.6955 108.166 85.9498 107.725 86.3481 107.393C86.4329 107.317 86.5346 107.258 86.6279 107.198C86.755 107.122 86.7804 107.105 86.9245 107.071C86.9923 107.054 87.0008 107.045 87.0517 107.045H87.1364C87.1364 107.045 87.1025 107.045 87.0941 107.037C87.0941 107.037 87.0602 106.994 87.0517 106.994C87.0178 106.969 87.0517 106.969 87.0517 107.02C87.0602 107.079 87.0517 106.969 87.0517 107.037C87.0517 107.071 87.0517 107.105 87.0517 107.139C87.0517 107.733 86.8228 108.277 86.3481 108.659C86.1956 108.786 86.2125 109.05 86.3481 109.177C86.5007 109.33 86.7211 109.305 86.8822 109.177L86.8906 109.169Z" fill="#1D1D1D"/>
<path d="M99.2408 98.2118C99.3849 97.8721 99.529 97.5239 99.69 97.1926C99.8341 96.8783 100.055 96.6065 100.216 96.3008C100.377 95.995 100.114 95.6892 99.7918 95.7572C98.444 96.046 97.2403 97.2181 97.0284 98.5771C97.003 98.7385 97.0454 98.9083 97.198 98.9933C97.3421 99.0782 97.537 99.0527 97.6557 98.9338C97.6811 98.9083 97.7066 98.8828 97.7405 98.8574C97.7489 98.8489 97.7828 98.8234 97.7489 98.8489C97.7998 98.8064 97.8676 98.7724 97.927 98.7469C97.9524 98.73 97.9863 98.7215 98.0117 98.7045C98.1134 98.6535 97.9778 98.713 98.0456 98.6875C98.1134 98.662 98.1728 98.6365 98.2406 98.6195C98.4949 98.5346 98.7661 98.4497 98.995 98.2883C99.1645 98.1694 99.2408 97.9655 99.1306 97.7872C99.0374 97.6258 98.7831 97.5409 98.6135 97.6513C98.5627 97.6852 98.5033 97.7192 98.444 97.7532C98.4186 97.7702 98.3932 97.7787 98.3592 97.7957C98.2575 97.8466 98.4271 97.7787 98.3169 97.8127C98.1897 97.8551 98.0626 97.8976 97.9354 97.9485C97.6387 98.059 97.3506 98.1864 97.1302 98.4242C97.3421 98.5431 97.5455 98.662 97.7574 98.7809C97.7828 98.6365 97.8168 98.4921 97.8591 98.3562C97.8846 98.2883 97.91 98.2203 97.9354 98.1524C97.91 98.2118 97.9524 98.1184 97.9609 98.1014C97.9778 98.0675 97.9948 98.0335 98.0117 97.9995C98.0795 97.8636 98.1643 97.7362 98.249 97.6173C98.2914 97.5578 98.2914 97.5578 98.3508 97.4814C98.4016 97.4219 98.461 97.354 98.5203 97.303C98.9356 96.8868 99.4103 96.6065 99.9952 96.4791L99.5714 95.9356C99.4018 96.2583 99.1815 96.5386 99.0289 96.8699C98.8509 97.2521 98.6898 97.6343 98.5203 98.025C98.444 98.2119 98.6051 98.4327 98.7831 98.4752C99.0035 98.5346 99.1645 98.3987 99.2493 98.2203L99.2408 98.2118Z" fill="#1D1D1D"/>
<path d="M47.0005 112.821C47.1785 112.744 47.3057 112.609 47.4498 112.481C47.4668 112.464 47.4837 112.447 47.5007 112.43C47.5007 112.43 47.5515 112.396 47.5176 112.422C47.4837 112.447 47.5685 112.388 47.5854 112.388C47.6617 112.337 47.7465 112.294 47.8143 112.226C48.0601 112.006 48.111 111.598 48.0431 111.292C47.9414 110.816 47.382 110.85 47.009 110.91C46.831 110.935 46.653 110.995 46.475 111.046C46.3902 111.071 46.297 111.097 46.2038 111.114C46.2038 111.114 46.136 111.114 46.1783 111.114C46.2207 111.114 46.1444 111.114 46.1444 111.114C46.1105 111.114 46.0681 111.114 46.0342 111.114C45.6782 111.148 45.2544 111.267 45.0001 111.521C44.8391 111.691 44.856 111.989 45.0764 112.099C45.1951 112.158 45.2968 112.175 45.4239 112.192C45.4663 112.192 45.5002 112.192 45.5426 112.201C45.568 112.201 45.585 112.201 45.6104 112.201C45.5595 112.201 45.5596 112.201 45.6019 112.201C45.7206 112.226 45.8393 112.243 45.9579 112.252C46.0258 112.252 45.9579 112.252 46.0258 112.26C46.0681 112.26 46.1105 112.277 46.1529 112.294C46.2122 112.311 46.2631 112.328 46.3224 112.345C46.3394 112.345 46.3563 112.354 46.3733 112.362C46.3224 112.345 46.3224 112.337 46.3563 112.362C46.3818 112.371 46.4072 112.388 46.4326 112.396C46.4581 112.405 46.5428 112.481 46.4665 112.413C46.4665 112.413 46.5259 112.464 46.5174 112.464C46.4835 112.422 46.475 112.413 46.5004 112.447C46.5174 112.481 46.5174 112.473 46.492 112.422C46.5004 112.464 46.5004 112.447 46.492 112.388C46.492 112.43 46.492 112.422 46.492 112.362C46.4496 112.549 46.5428 112.77 46.7547 112.812C46.9412 112.855 47.1785 112.753 47.2209 112.558C47.3226 112.065 46.9412 111.785 46.5174 111.632C46.3309 111.564 46.136 111.53 45.9325 111.513C45.8478 111.504 45.7291 111.479 45.6104 111.462C45.5595 111.462 45.5087 111.453 45.4578 111.453C45.3985 111.453 45.5172 111.453 45.4578 111.453C45.3731 111.419 45.4324 111.453 45.4578 111.453L45.5341 112.031C45.6019 111.963 45.4917 112.048 45.5511 112.014C45.585 111.997 45.6189 111.972 45.6528 111.955C45.6782 111.938 45.7376 111.921 45.6782 111.938C45.7206 111.921 45.7545 111.904 45.7969 111.895C45.8647 111.87 45.9325 111.853 46.0088 111.836C46.0258 111.836 46.0427 111.836 46.0681 111.827C46.1105 111.827 46.102 111.827 46.0427 111.827C46.0681 111.819 46.1275 111.827 46.1529 111.827C46.3563 111.819 46.5598 111.768 46.7547 111.708C46.8564 111.674 46.9582 111.649 47.0599 111.623C47.1023 111.615 47.1362 111.606 47.1785 111.598C47.1446 111.598 47.1531 111.598 47.1955 111.598C47.2209 111.598 47.2464 111.598 47.2803 111.598C47.3566 111.598 47.4244 111.598 47.5007 111.598C47.4498 111.589 47.4413 111.589 47.4837 111.598C47.3989 111.572 47.3481 111.521 47.3226 111.436C47.3226 111.368 47.3566 111.521 47.3226 111.436C47.3226 111.504 47.3226 111.564 47.3226 111.632C47.3226 111.649 47.3226 111.666 47.3226 111.683C47.3226 111.623 47.3311 111.615 47.3226 111.657C47.3226 111.657 47.3057 111.7 47.3142 111.708C47.2972 111.683 47.3905 111.615 47.3142 111.691C47.382 111.632 47.2803 111.708 47.2633 111.717C47.187 111.768 47.1107 111.81 47.0344 111.87C46.9666 111.921 46.9073 111.98 46.848 112.039C46.8395 112.048 46.7293 112.133 46.7886 112.099C46.7462 112.124 46.7039 112.15 46.6615 112.167C46.4835 112.243 46.4241 112.515 46.5259 112.668C46.6445 112.855 46.848 112.88 47.0429 112.804L47.0005 112.821Z" fill="#1D1D1D"/>
<path d="M46.2207 112.702C46.1614 112.804 46.1105 112.914 46.0681 113.025C46.0258 113.135 46.0003 113.246 45.9919 113.364C45.9749 113.5 46.0088 113.636 45.9919 113.772L46.0088 113.67C46.0088 113.67 46.0088 113.704 46.0003 113.713L46.0342 113.628C46.0342 113.628 46.0342 113.645 46.0258 113.645L46.0851 113.568C46.0851 113.568 46.0766 113.577 46.0681 113.585L46.1444 113.526C46.1444 113.526 46.1275 113.526 46.1275 113.534L46.2207 113.5C46.2207 113.5 46.2038 113.5 46.1953 113.5L46.297 113.483C46.297 113.483 46.2546 113.483 46.2377 113.483L46.3394 113.5C46.28 113.492 46.2207 113.466 46.1614 113.449L46.2546 113.483C46.2122 113.466 46.1699 113.441 46.1275 113.415L46.2038 113.475C46.2038 113.475 46.1614 113.441 46.1444 113.415L46.2038 113.492C46.2038 113.492 46.1868 113.458 46.1783 113.441L46.2122 113.526C46.2122 113.526 46.2038 113.492 46.1953 113.475L46.2122 113.577C46.2122 113.577 46.2122 113.534 46.2122 113.517L46.1953 113.619C46.1953 113.619 46.2122 113.56 46.2207 113.534L46.1868 113.619C46.2038 113.577 46.2377 113.534 46.2631 113.492L46.2038 113.568C46.2716 113.483 46.3479 113.415 46.4326 113.356L46.3563 113.415C46.4665 113.33 46.5852 113.254 46.7208 113.203C46.7971 113.169 46.8734 113.059 46.8904 112.982C46.9158 112.897 46.9073 112.778 46.8564 112.693C46.8056 112.609 46.7293 112.549 46.6276 112.524L46.5259 112.507C46.4581 112.507 46.3987 112.524 46.3394 112.558C46.1614 112.634 46.0088 112.736 45.8647 112.855C45.6952 112.991 45.5596 113.152 45.4833 113.356C45.4409 113.466 45.4409 113.602 45.4833 113.713C45.5341 113.866 45.6358 113.976 45.7715 114.069C45.8308 114.112 45.8986 114.137 45.9664 114.163C46.0173 114.18 46.0597 114.197 46.1105 114.214C46.297 114.256 46.475 114.231 46.6191 114.103C46.7378 114.001 46.7717 113.84 46.7717 113.687C46.7717 113.577 46.7547 113.466 46.7717 113.356L46.7547 113.458C46.7717 113.364 46.7971 113.28 46.831 113.195L46.7971 113.28C46.831 113.203 46.8649 113.135 46.9073 113.067C47.009 112.897 46.9497 112.66 46.7717 112.566C46.5937 112.473 46.3648 112.524 46.2546 112.702H46.2207Z" fill="#1D1D1D"/>
<path d="M25.0042 125.103C25.1907 124.551 25.3009 123.633 24.7923 123.209C24.4109 122.894 23.9023 123.047 23.5547 123.336C23.1818 123.65 22.8258 124.058 22.6054 124.491C22.4019 124.873 22.2748 125.307 22.1731 125.723C22.0714 126.139 22.012 126.572 22.0798 126.988C22.1476 127.404 22.4358 127.795 22.8681 127.897C23.2835 127.999 23.6819 127.753 23.9362 127.447C24.2159 127.124 24.4024 126.75 24.5465 126.351C24.7414 125.833 24.9618 125.273 24.911 124.712C24.894 124.517 24.7499 124.347 24.538 124.347C24.3515 124.347 24.1396 124.517 24.165 124.712C24.1989 125.086 24.0803 125.459 23.9531 125.808C23.8429 126.122 23.7666 126.343 23.6225 126.606C23.5039 126.818 23.3343 127.065 23.1394 127.158C23.1479 127.158 23.0377 127.184 23.0885 127.175C23.0461 127.175 23.0631 127.175 23.0292 127.167C22.9275 127.107 22.8851 127.048 22.8597 126.963C22.7664 126.699 22.8088 126.385 22.8597 126.113C22.919 125.816 22.9953 125.527 23.097 125.247C23.2242 124.873 23.4276 124.534 23.6988 124.245C23.809 124.126 23.9192 123.99 24.0548 123.888C24.1057 123.846 24.1566 123.803 24.2159 123.778C24.2413 123.778 24.2583 123.761 24.2837 123.761C24.3685 123.735 24.2837 123.761 24.3176 123.761C24.3685 123.761 24.2583 123.718 24.3346 123.761C24.2837 123.727 24.3346 123.761 24.3515 123.786C24.3261 123.744 24.3685 123.829 24.3685 123.829C24.4193 123.982 24.4193 124.024 24.4193 124.177C24.4193 124.44 24.3939 124.636 24.3007 124.899C24.1481 125.349 24.8771 125.544 25.0296 125.094L25.0042 125.103Z" fill="#1D1D1D"/>
<path d="M23.8684 87.2381C24.0379 89.5144 25.8518 91.349 27.6404 92.623C28.0303 92.9033 28.4117 92.2663 28.0218 91.986C26.4791 90.8818 24.7669 89.2256 24.6228 87.2381C24.5889 86.7624 23.8345 86.7624 23.8684 87.2381Z" fill="#1D1D1D"/>
<path d="M5.09306 79.271C2.23651 81.318 -2.84935 84.0614 0.371692 87.9091C2.00764 89.8541 4.77944 91.2386 6.86464 92.64C9.39909 94.3387 12.12 95.7062 14.629 97.4474C17.3585 99.3415 20.1133 101.202 22.7579 103.206C24.1481 104.259 25.5128 105.975 27.4285 105.865C28.6406 105.797 29.7171 105.126 30.8445 104.76C32.1074 104.353 33.3365 104.038 34.591 103.605C36.0236 103.104 37.4815 102.62 38.931 102.136C39.9566 101.796 41.3044 101.108 42.3978 101.142C42.2876 100.955 42.1774 100.768 42.0757 100.59C41.8892 101.168 41.5417 101.643 41.0416 102.017C40.8043 102.238 40.9907 102.654 41.3044 102.646C42.1435 102.637 43.3641 102.544 44.1525 102.883C44.1864 102.662 44.2118 102.433 44.2457 102.212C41.6095 103.07 38.8801 103.784 36.1338 104.174C34.5741 104.395 33.0229 104.692 31.4887 105.049C31.2005 105.117 26.4791 106.34 26.5808 105.822C26.335 105.788 26.0892 105.754 25.8434 105.72C25.8434 106.969 23.097 108.285 22.19 108.939C21.5034 109.432 20.9101 109.891 20.5965 110.672C20.5286 110.842 20.6727 111.097 20.8592 111.122C26.4621 112.073 32.7686 110.579 38.1342 109.101C40.1516 108.549 43.3641 108.175 44.8475 106.51C45.9325 105.296 44.1864 103.877 43.4828 102.832C43.2201 102.433 42.5674 102.807 42.8301 103.206C43.5676 104.31 44.6102 105.228 43.6947 106.4C42.9064 107.41 40.2618 107.767 39.0581 108.081C35.6421 108.99 32.3363 109.882 28.8016 110.264C27.2081 110.434 25.6399 110.485 24.0464 110.519C23.4445 110.528 22.4613 110.808 22.1392 110.273C21.7747 109.661 22.9783 109.322 23.4276 108.99C24.716 108.064 26.5808 107.419 26.5893 105.712C26.5893 105.304 25.9366 105.194 25.8518 105.61C25.7416 106.162 25.7501 106.196 25.9959 106.714C26.0468 106.824 26.1994 106.901 26.318 106.901C29.4035 106.782 32.4804 105.457 35.5489 104.99C38.6004 104.523 41.5163 103.869 44.4407 102.917C44.7119 102.832 44.8475 102.382 44.5339 102.246C43.5422 101.822 42.3724 101.898 41.3044 101.907C41.3891 102.119 41.4824 102.323 41.5671 102.535C42.1181 102.034 42.4063 101.643 42.7115 100.955C42.8301 100.7 42.6945 100.412 42.3894 100.403C40.9738 100.352 39.3717 101.202 38.0494 101.652C36.0405 102.34 34.0231 103.181 31.9803 103.716C30.9377 103.988 29.9968 104.336 28.9796 104.701C27.2844 105.304 25.6315 104.497 24.3007 103.444C22.563 102.076 20.7406 100.794 18.9266 99.5368C16.977 98.1864 15.0613 96.7934 13.0779 95.5024C11.0605 94.1859 8.89898 93.1242 6.90702 91.7652C5.0083 90.4656 2.41451 89.1746 0.965042 87.3994C0.134352 86.3802 -0.0267004 85.9555 0.44798 84.6985C0.854848 83.6283 1.20238 83.3055 1.99917 82.5836C3.09263 81.5898 4.27933 80.7744 5.4745 79.9166C5.86442 79.6363 5.48298 78.9992 5.09306 79.2795V79.271Z" fill="#1D1D1D"/>
<path d="M27.6319 92.623C31.192 95.1796 34.7097 97.8041 38.3292 100.284C38.8886 100.666 39.4904 101.185 40.1431 101.414C40.6008 101.575 40.7958 100.862 40.3465 100.7C40.4228 100.726 40.2787 100.667 40.2194 100.633C40.1092 100.565 39.999 100.497 39.8888 100.429C39.5582 100.216 39.2277 99.9955 38.8971 99.7747C37.9392 99.1207 36.9984 98.4582 36.049 97.7872C33.9384 96.2923 31.8532 94.7804 29.7595 93.2601C29.1746 92.8354 28.5897 92.4107 28.0049 91.986C27.6149 91.7057 27.242 92.3427 27.6234 92.623H27.6319Z" fill="#1D1D1D"/>
<path d="M72.0992 74.2173C72.6587 75.0157 71.9721 76.8079 71.7602 77.6403C71.4126 78.9653 70.9888 80.2733 70.565 81.5813C69.2511 85.5733 68.4289 89.7012 66.9879 93.6508C66.8862 93.931 67.1914 94.1604 67.4541 94.1009C70.6921 93.4554 73.981 93.0392 77.2275 92.4871C78.66 92.2408 80.1094 92.1219 81.5335 91.8331C82.771 91.5783 84.034 91.1961 85.314 91.2895L85.0512 90.661C82.0506 92.9967 78.0666 93.4044 74.4981 94.4067C71.4889 95.2561 68.0984 97.2521 64.8773 96.7764L65.1401 97.2266C65.4961 96.3772 66.6319 96.1309 67.3694 95.7062C67.7 95.5194 67.5474 95.0267 67.1829 95.0182C66.9117 95.0352 66.6489 94.9758 66.4115 94.8568C66.3013 94.3557 66.4963 94.1519 66.9879 94.2368C67.4626 94.1943 67.4711 93.4554 66.9879 93.4979C66.3098 93.5573 65.3096 93.7951 65.4198 94.67C65.513 95.4939 66.5048 95.7402 67.1914 95.7572C67.132 95.5278 67.0642 95.2985 67.0049 95.0692C66.0047 95.6383 64.9027 95.9016 64.4281 97.0312C64.3602 97.2011 64.5043 97.4559 64.6908 97.4814C68.1068 97.991 71.5228 96.012 74.71 95.1117C78.4226 94.0669 82.4659 93.6083 85.5937 91.1791C85.8734 90.9583 85.6191 90.5676 85.3309 90.5506C84.1527 90.4571 82.983 90.7714 81.8386 91.0177C80.3892 91.332 78.9227 91.4849 77.4563 91.7057C74.0658 92.2323 70.6243 92.7164 67.2677 93.3874L67.7339 93.8376C69.2511 89.6672 70.1581 85.31 71.5313 81.0972C72.006 79.6363 72.4807 78.1584 72.7858 76.655C72.9553 75.8396 73.3029 74.591 72.7773 73.8351C72.5061 73.4444 71.8534 73.8181 72.1247 74.2088L72.0992 74.2173Z" fill="#1D1D1D"/>
<path d="M84.3731 92.2408C86.7719 91.6293 89.264 91.7142 91.7222 91.8246L91.4001 91.2725C90.3744 92.8608 88.001 93.5318 86.3481 94.3218C83.9408 95.4684 81.4233 96.2668 78.9058 97.1331C76.507 97.9655 74.1166 98.8319 71.6754 99.5453C69.48 100.182 66.776 101.405 64.462 101.023L64.7248 101.473C64.996 100.259 64.8689 99.0187 65.0892 97.7872C65.174 97.32 64.445 97.1247 64.3603 97.5918C64.1399 98.8149 64.2585 100.055 63.9958 101.278C63.9534 101.456 64.0466 101.694 64.2585 101.728C66.5048 102.102 68.7511 101.125 70.8786 100.531C73.8284 99.7152 76.6935 98.662 79.5839 97.6682C82.2116 96.7679 84.78 95.8676 87.289 94.67C88.9504 93.8801 91.0017 93.2431 92.0443 91.6293C92.2053 91.383 91.9934 91.0857 91.7222 91.0772C89.1962 90.9668 86.6363 90.8988 84.1782 91.5274C83.712 91.6463 83.9069 92.3597 84.3816 92.2408H84.3731Z" fill="#1D1D1D"/>
<path d="M88.9165 55.5229C89.9506 55.302 91.985 54.682 92.7309 55.7946C93.5446 57.0092 92.4766 59.5828 92.146 60.8738C91.239 64.3902 90.0947 67.8471 89.0606 71.3295C88.0434 74.7269 87.0517 78.1244 86.1447 81.5473C85.2801 84.8004 83.7798 87.8156 82.8559 91.0517C82.7202 91.5104 83.4492 91.7057 83.5848 91.2471C84.1443 89.285 84.9665 87.4334 85.6955 85.5308C86.4583 83.5179 86.95 81.4284 87.5264 79.3645C88.7555 74.9223 90.1032 70.5056 91.434 66.0889C92.0697 63.9825 92.7309 61.8761 93.2225 59.7272C93.4853 58.5551 94.0193 56.9583 93.5531 55.7607C92.8157 53.8836 90.2643 54.5036 88.747 54.8264C88.2723 54.9283 88.4757 55.6418 88.9504 55.5398L88.9165 55.5229Z" fill="#1D1D1D"/>
<path d="M109.243 82.0909C111.286 79.7382 113.32 77.4959 116.253 76.2048C117.66 75.5848 117.762 75.4914 119.296 76.1029C121.83 77.1137 120.601 76.4002 119.805 76.706C118.779 77.0967 117.88 77.1476 116.889 77.7082C114.778 78.8973 113.21 80.8339 111.464 82.4477C108.997 84.724 106.403 86.9068 103.725 88.9368C98.5288 92.8693 92.6461 95.8251 86.755 98.6195C83.2373 100.284 79.5161 101.754 75.8119 102.968C56.0279 109.466 35.7608 113.534 15.0614 115.938C11.247 116.38 7.27152 116.898 3.42322 116.618C1.37192 116.465 -0.696329 116.15 2.5671 113.449C2.94006 113.144 2.40605 112.626 2.03308 112.931C-0.653945 115.157 0.0835025 117.034 2.99092 117.323C6.35606 117.654 9.85683 117.238 13.1965 116.889C19.3759 116.244 25.5806 115.479 31.726 114.528C50.1453 111.666 69.0562 107.122 86.1871 99.6982C92.4596 96.9803 98.7915 93.6253 104.216 89.5059C107.149 87.272 110.006 84.8768 112.676 82.3372C114.134 80.9528 115.473 79.3305 117.262 78.3537C118.779 77.5299 120.033 77.7762 121.525 77.377C121.669 77.3345 121.822 77.1816 121.805 77.0202C121.508 74.642 119.347 74.3872 117.296 74.9988C113.634 76.0859 111.116 78.8209 108.709 81.5813C108.395 81.938 108.929 82.4647 109.243 82.0994V82.0909Z" fill="#1D1D1D"/>
<path d="M121.034 77.1731C122.687 80.7235 114.388 85.4714 111.989 86.8559C106.463 90.0495 100.758 92.9373 94.9263 95.5533C85.9498 99.5793 76.6681 102.977 67.2084 105.746C50.3064 110.697 32.65 114.146 15.1038 115.921C14.6291 115.972 14.6206 116.711 15.1038 116.66C47.3142 113.398 80.1434 105.109 108.573 89.6163C111.659 87.9345 124.102 82.0145 121.678 76.7994C121.474 76.3662 120.83 76.7399 121.025 77.1731H121.034Z" fill="#1D1D1D"/>
<path d="M91.4171 97.5748C91.5696 98.1269 91.7053 98.6875 91.7815 99.2566C91.8409 99.7237 91.9172 100.335 91.6883 100.76C91.4679 101.159 91.061 101.499 90.7305 101.813C90.3914 102.144 90.0354 102.459 89.6794 102.773C89.3234 103.087 89.8489 103.614 90.2134 103.291C90.6033 102.943 90.9932 102.595 91.3662 102.238C91.7392 101.881 92.146 101.516 92.3749 101.066C92.6546 100.522 92.6122 99.8426 92.5359 99.265C92.4597 98.628 92.3071 98.008 92.146 97.388C92.0189 96.9293 91.2984 97.1246 91.4171 97.5833V97.5748Z" fill="#1D1D1D"/>
<path d="M89.8574 110.723C91.4764 108.99 91.9256 106.264 90.9 104.132C90.4338 103.164 89.6031 102.374 88.552 102.068C87.3653 101.728 86.0006 102.017 84.9326 102.586C83.0423 103.597 81.6268 105.737 80.7876 107.623C80.0586 109.245 79.3381 111.776 80.9995 113.118C82.1015 114.01 83.7459 113.959 85.0597 113.738C87.0602 113.407 88.7978 112.32 89.9167 110.655C90.188 110.256 89.5353 109.891 89.264 110.281C88.3571 111.623 87.0008 112.541 85.4073 112.914C84.2968 113.178 82.8304 113.331 81.7793 112.753C80.2027 111.887 80.7537 109.704 81.2708 108.379C81.9573 106.612 83.1356 104.82 84.6613 103.648C86.1956 102.467 88.6537 102.178 89.8913 103.894C91.2221 105.746 90.8406 108.574 89.3234 110.205C89.0013 110.553 89.5268 111.08 89.8574 110.723Z" fill="#1D1D1D"/>
<path d="M85.8481 110.63C87.0093 109.653 87.9163 108.217 87.9926 106.688C88.018 106.145 87.9332 105.508 87.5179 105.117C87.1534 104.769 86.6194 104.718 86.1532 104.854C85.5599 105.032 85.0682 105.431 84.6359 105.856C84.1528 106.332 83.7205 106.867 83.3645 107.444C83.0084 108.022 82.7287 108.676 82.644 109.364C82.5761 109.942 82.6863 110.638 83.1102 111.071C84.0171 111.997 85.4836 111.037 86.1447 110.29C86.4584 109.933 85.9328 109.406 85.6107 109.772C85.331 110.086 85.0004 110.358 84.619 110.545C84.4833 110.613 84.263 110.689 84.1528 110.697C84.0765 110.706 83.9832 110.706 83.9069 110.697C83.9578 110.697 83.8646 110.689 83.8476 110.68C83.7968 110.663 83.7798 110.655 83.7713 110.655C83.4577 110.485 83.3645 109.984 83.3729 109.61C83.3899 109.075 83.5933 108.549 83.8476 108.09C84.1189 107.597 84.4494 107.139 84.8309 106.722C85.1699 106.349 85.5429 105.975 85.9922 105.729C86.1447 105.644 86.3736 105.559 86.5007 105.542C86.577 105.533 86.6703 105.525 86.7466 105.542C86.6957 105.542 86.7805 105.55 86.7974 105.559C86.8652 105.584 86.8398 105.567 86.8822 105.593C86.9839 105.644 87.0602 105.729 87.1195 105.856C87.2043 106.034 87.2297 106.264 87.2382 106.476C87.2721 107.895 86.3821 109.228 85.314 110.12C84.9411 110.426 85.4751 110.952 85.8481 110.638V110.63Z" fill="#1D1D1D"/>
<path d="M85.5598 110.043C85.4835 110.035 85.4157 110.018 85.3394 109.992C85.2801 109.976 85.3818 110.026 85.314 109.976C85.2971 109.967 85.2123 109.908 85.2547 109.942C85.297 109.976 85.2292 109.916 85.2208 109.908C85.1784 109.874 85.2462 109.967 85.2208 109.899C85.2123 109.874 85.1953 109.848 85.1784 109.823C85.2292 109.908 85.1784 109.823 85.1784 109.797C85.1784 109.763 85.1614 109.729 85.153 109.695C85.1614 109.763 85.153 109.729 85.153 109.687C85.153 109.61 85.1529 109.534 85.1614 109.457C85.1614 109.534 85.1614 109.449 85.1699 109.415C85.1699 109.381 85.1869 109.338 85.1953 109.305C85.2123 109.22 85.2377 109.135 85.2716 109.058C85.492 108.43 85.9667 107.767 86.5177 107.292C86.6533 107.173 86.738 107.113 86.9245 107.011C86.9584 106.994 87.0008 106.977 87.0347 106.952C87.0602 106.943 87.0771 106.935 87.1025 106.926C87.1364 106.918 87.1704 106.901 87.2127 106.892C87.2297 106.892 87.2382 106.892 87.2551 106.884C87.1703 106.884 87.3399 106.858 87.2551 106.884L86.933 106.697C86.9669 106.773 86.9754 106.867 87.0093 106.943C87.0856 107.13 87.2636 107.258 87.4755 107.198C87.6535 107.147 87.8146 106.926 87.7383 106.748C87.6789 106.604 87.6535 106.468 87.5857 106.323C87.5348 106.213 87.3823 106.128 87.2636 106.136C86.3905 106.221 85.7124 106.969 85.2292 107.623C84.763 108.251 84.2545 109.16 84.4579 109.959C84.5681 110.392 84.941 110.68 85.3818 110.748C85.5853 110.782 85.7887 110.697 85.848 110.494C85.8989 110.315 85.7887 110.069 85.5852 110.043H85.5598Z" fill="#1D1D1D"/>
<path d="M91.1713 104.896C92.1376 103.979 93.2141 103.189 94.3499 102.493C95.3671 101.864 96.4266 101.236 97.5201 100.734C98.2575 100.395 99.2832 100.021 99.5968 99.2056C99.8765 98.4666 99.3849 97.8126 98.5881 97.8806C97.7151 97.9655 96.8674 98.4921 96.13 98.9338C95.7231 99.1886 96.0961 99.8256 96.5114 99.5708C96.8759 99.35 97.2404 99.1376 97.6218 98.9593C97.9015 98.8234 98.4695 98.5091 98.7916 98.611C99.0967 98.7045 98.817 99.0952 98.6644 99.2396C98.3084 99.5708 97.8253 99.7747 97.3845 99.9785C94.9602 101.083 92.5614 102.544 90.6288 104.37C90.2812 104.701 90.8152 105.219 91.1628 104.888L91.1713 104.896Z" fill="#1D1D1D"/>
<path d="M96.1299 98.9423C96.0706 98.9763 95.9689 99.0357 95.935 99.0442C95.8926 99.0612 95.8502 99.0697 95.8078 99.0782C95.8332 99.0782 95.8417 99.0782 95.8417 99.0952L95.8078 99.0612C95.8417 99.1037 95.8502 99.1122 95.8248 99.0782C95.8078 99.0527 95.7909 99.0272 95.7739 99.0017C95.74 98.9508 95.7146 98.8913 95.6891 98.8319C95.7231 98.9083 95.6807 98.7979 95.6722 98.7809C95.6552 98.7469 95.6468 98.7045 95.6298 98.6705C95.6044 98.5941 95.5789 98.5176 95.562 98.4412C95.5111 98.2628 95.4772 98.0929 95.4433 97.9146C95.3247 97.303 95.2568 96.683 95.2568 96.0375C95.2568 95.5618 94.5024 95.5618 94.5024 96.0375C94.5024 96.8104 94.6042 97.6003 94.7737 98.3562C94.85 98.713 94.9517 99.1037 95.1551 99.4179C95.2992 99.6473 95.5111 99.8086 95.7909 99.8256C96.0536 99.8426 96.291 99.7152 96.5114 99.5963C96.9352 99.367 96.5537 98.73 96.1299 98.9593V98.9423Z" fill="#1D1D1D"/>
<path d="M95.2315 101.558C95.562 102.059 95.918 102.476 96.4775 102.747C97.0369 103.019 97.6811 103.096 98.3253 103.104C99.724 103.13 100.995 102.747 102.055 101.83C103.945 100.199 104.488 97.4899 103.954 95.1456C103.682 93.9395 102.852 92.7504 101.504 92.64C101.021 92.5975 101.021 93.3365 101.504 93.379C102.818 93.4894 103.25 95.0947 103.343 96.1479C103.462 97.4049 103.301 98.713 102.691 99.8426C102.055 101.015 100.962 101.975 99.6223 102.255C98.9441 102.399 98.1728 102.416 97.4862 102.306C96.7487 102.178 96.2741 101.779 95.8757 101.185C95.6129 100.785 94.9602 101.159 95.223 101.558H95.2315Z" fill="#1D1D1D"/>
<path d="M95.4772 98.008C95.7654 97.371 96.1469 96.7934 96.6385 96.2838C96.8758 96.0375 97.1047 95.7742 97.376 95.5703C97.6726 95.358 98.0286 95.2645 98.3084 95.0267C98.4609 94.8993 98.444 94.636 98.3084 94.5086C98.1558 94.3557 97.9269 94.3812 97.7743 94.5086C97.6557 94.6105 97.4946 94.67 97.3505 94.7379C97.181 94.8144 97.0369 94.8993 96.8843 95.0097C96.5792 95.2391 96.3164 95.5279 96.0536 95.7997C95.5366 96.3432 95.1212 96.9548 94.8161 97.6343C94.7313 97.8126 94.7652 98.0335 94.9517 98.1354C95.1127 98.2288 95.384 98.1864 95.4688 97.9995L95.4772 98.008Z" fill="#1D1D1D"/>
<path d="M97.2997 98.8998C97.5709 98.1694 98.0117 97.4729 98.5712 96.9208C99.0628 96.4282 99.8596 95.9016 100.606 96.1054C101.156 96.2583 100.978 97.1077 100.885 97.5578C100.682 98.4582 100.182 99.2141 99.4612 99.8087C99.1899 100.029 98.8933 100.25 98.5712 100.378C98.4949 100.403 98.4186 100.429 98.3423 100.446C98.3169 100.446 98.2236 100.446 98.2491 100.454C98.1728 100.454 98.1728 100.437 98.1389 100.403C98.1134 100.369 98.0711 100.267 98.0541 100.208C97.927 99.7492 97.198 99.9445 97.3251 100.403C97.4523 100.862 97.7998 101.21 98.3084 101.193C98.7407 101.176 99.1476 100.947 99.4951 100.709C100.394 100.097 101.106 99.2651 101.47 98.2458C101.724 97.5069 101.97 96.3517 101.36 95.7232C100.631 94.9843 99.3086 95.4259 98.5881 95.944C97.6472 96.6235 96.9691 97.6428 96.5707 98.713C96.4012 99.1631 97.1302 99.35 97.2997 98.9083V98.8998Z" fill="#1D1D1D"/>
<path d="M99.0289 98.1099C99.0458 98.0505 99.0628 97.9825 99.0882 97.9231C99.0882 97.9061 99.1052 97.8891 99.1052 97.8721C99.1391 97.7957 99.0713 97.94 99.1052 97.8891C99.1221 97.8466 99.1475 97.7957 99.1645 97.7532C99.2577 97.5578 99.3679 97.371 99.4781 97.1926C99.5375 97.0992 99.6053 97.0057 99.6731 96.9123C99.6816 96.8953 99.69 96.8868 99.707 96.8699C99.7324 96.8359 99.6561 96.9293 99.6816 96.8953C99.6985 96.8783 99.7155 96.8529 99.7324 96.8359C99.7663 96.7934 99.8087 96.7509 99.8426 96.7085C99.9104 96.632 99.9867 96.5641 100.071 96.4961C100.114 96.4622 99.9952 96.5471 100.063 96.4961C100.08 96.4876 100.097 96.4706 100.114 96.4622C100.131 96.4537 100.148 96.4367 100.165 96.4282C100.207 96.4112 100.275 96.3942 100.156 96.4282C100.199 96.4197 100.233 96.4027 100.275 96.3942C100.326 96.3772 100.216 96.3942 100.216 96.3942C100.224 96.3942 100.241 96.3942 100.258 96.3942C100.275 96.3942 100.351 96.3942 100.275 96.3942C100.199 96.3942 100.275 96.3942 100.292 96.4027C100.351 96.4112 100.207 96.3517 100.266 96.4027C100.266 96.4027 100.283 96.4112 100.292 96.4197C100.326 96.4367 100.317 96.4622 100.266 96.3942C100.283 96.4112 100.309 96.4282 100.326 96.4452C100.461 96.5811 100.724 96.5896 100.86 96.4452C100.995 96.3008 101.004 96.0714 100.86 95.9271C100.648 95.7232 100.377 95.6383 100.088 95.6892C99.8426 95.7402 99.6307 95.8931 99.4527 96.0545C99.0797 96.3942 98.7915 96.8444 98.5711 97.286C98.4694 97.4814 98.3677 97.6937 98.3084 97.9146C98.266 98.1014 98.3677 98.3223 98.5711 98.3647C98.7746 98.4072 98.9865 98.3053 99.0374 98.1099H99.0289Z" fill="#1D1D1D"/>
<path d="M92.9343 96.7424C93.2141 97.8126 93.248 98.9338 93.5362 100.004C93.6548 100.463 94.3838 100.267 94.2651 99.8086C93.9769 98.7384 93.943 97.6173 93.6633 96.5471C93.5446 96.0884 92.8157 96.2838 92.9343 96.7424Z" fill="#1D1D1D"/>
<path d="M92.9852 100.921C92.6546 101.456 92.2986 101.881 91.8493 102.331C91.6205 102.569 91.3746 102.79 91.1119 103.002C91.0186 103.079 90.9339 103.138 90.7982 103.232C90.6796 103.308 90.5524 103.384 90.4253 103.452C90.2473 103.546 90.1879 103.792 90.2897 103.954C90.3999 104.132 90.6202 104.174 90.8067 104.089C91.4001 103.784 91.9171 103.333 92.3749 102.858C92.8411 102.382 93.2818 101.864 93.6294 101.295C93.7311 101.125 93.6718 100.887 93.4937 100.794C93.3157 100.7 93.0869 100.751 92.9767 100.93L92.9852 100.921Z" fill="#1D1D1D"/>
<path d="M33.7689 113.891C33.701 114.494 33.8028 115.131 33.4128 115.641C33.1755 115.955 32.8788 116.244 32.6245 116.541C32.3702 116.847 32.1075 117.144 31.8278 117.424C31.2429 118.002 30.497 118.435 29.8273 118.919C29.0729 119.463 28.3185 119.998 27.5302 120.499C27.1233 120.754 27.5048 121.399 27.9116 121.136C28.7508 120.601 29.5561 120.032 30.3613 119.446C31.0903 118.919 31.8871 118.444 32.5143 117.79C32.8195 117.475 33.0907 117.136 33.3705 116.813C33.6248 116.516 33.9299 116.235 34.1418 115.896C34.5233 115.284 34.447 114.579 34.5233 113.9C34.5741 113.424 33.8197 113.432 33.7689 113.9V113.891Z" fill="#1D1D1D"/>
<path d="M28.0812 123.039C29.8612 122.045 31.5141 120.864 33.3196 119.922C35.8117 118.614 38.3122 117.314 40.8552 116.099C42.0673 115.522 43.2709 114.953 44.4661 114.341C45.1527 113.985 45.9495 113.67 46.5513 113.178C46.9158 112.88 47.1786 112.439 46.7971 112.022C46.5937 111.802 45.4409 111.683 45.4409 111.734C45.407 111.258 44.6611 111.258 44.6865 111.734C44.7119 112.209 44.9747 112.413 45.4324 112.481C45.585 112.507 46.1868 112.464 46.1868 112.532C46.1868 112.66 45.3477 113.05 45.2205 113.118C43.2455 114.163 41.2197 115.106 39.2107 116.074C36.8712 117.204 34.5572 118.401 32.277 119.633C30.7089 120.482 29.2594 121.535 27.6997 122.402C27.2759 122.64 27.6574 123.277 28.0812 123.039Z" fill="#1D1D1D"/>
<path d="M44.2542 114.239C44.3474 115.862 46.0936 116.278 47.4752 116.108C48.2296 116.014 48.9501 115.794 49.5519 115.327C50.2555 114.783 50.6454 113.968 50.8149 113.118C51.0014 112.175 50.9675 111.207 51.0607 110.256C51.1116 109.78 50.3572 109.789 50.3063 110.256C50.1622 111.598 50.3911 113.263 49.4672 114.384C48.7128 115.301 47.2379 115.598 46.102 115.335C45.5256 115.199 45.0425 114.868 45.0086 114.248C44.9831 113.772 44.2287 113.772 44.2542 114.248V114.239Z" fill="#1D1D1D"/>
<path d="M45.4494 113.229C45.3392 113.594 45.3815 114.002 45.6867 114.265C45.9495 114.494 46.3224 114.571 46.67 114.537C47.0599 114.503 47.4244 114.375 47.7295 114.137C48.1364 113.823 48.3313 113.297 48.3907 112.804C48.4585 112.201 48.2805 111.598 48.1194 111.02C48.0686 110.825 47.8482 110.706 47.6532 110.765C47.4583 110.825 47.3396 111.029 47.3905 111.216C47.4498 111.436 47.5091 111.657 47.56 111.878C47.6108 112.099 47.6363 112.252 47.6447 112.481C47.6447 112.583 47.6447 112.685 47.6363 112.787C47.6363 112.855 47.6363 112.744 47.6363 112.812C47.6363 112.829 47.6363 112.855 47.6278 112.872C47.6108 112.94 47.5939 113.008 47.5769 113.067C47.543 113.161 47.5261 113.203 47.4752 113.288C47.4413 113.339 47.4159 113.39 47.382 113.441C47.3311 113.517 47.3565 113.475 47.3735 113.458C47.365 113.475 47.3481 113.483 47.3396 113.5C47.3226 113.526 47.2972 113.543 47.2718 113.568C47.2379 113.594 47.204 113.619 47.2718 113.577C47.2124 113.619 47.1616 113.653 47.0938 113.687C47.0683 113.704 47.0429 113.713 47.0175 113.721C47.1023 113.67 47.0175 113.721 46.9921 113.73C46.9327 113.755 46.8649 113.772 46.7971 113.781C46.7632 113.781 46.7293 113.789 46.6954 113.798C46.636 113.806 46.7717 113.798 46.67 113.798C46.6021 113.798 46.5428 113.798 46.475 113.798C46.458 113.798 46.4411 113.798 46.4241 113.798C46.3648 113.798 46.458 113.798 46.458 113.798C46.458 113.798 46.3818 113.781 46.3733 113.781C46.3479 113.781 46.3224 113.772 46.297 113.764C46.28 113.764 46.2716 113.755 46.2546 113.747C46.2122 113.738 46.3309 113.789 46.28 113.755C46.2631 113.747 46.2207 113.713 46.2038 113.713C46.1614 113.713 46.2546 113.764 46.2292 113.738C46.2207 113.73 46.2038 113.713 46.1953 113.704C46.1359 113.653 46.2122 113.747 46.1953 113.704C46.1953 113.696 46.1783 113.679 46.1783 113.67C46.1275 113.602 46.1953 113.687 46.1783 113.687C46.1699 113.687 46.1614 113.619 46.1529 113.611C46.1275 113.551 46.1698 113.645 46.1529 113.645C46.1529 113.645 46.1529 113.594 46.1529 113.585C46.1529 113.543 46.1698 113.466 46.1529 113.551C46.1614 113.509 46.1698 113.458 46.1868 113.415C46.2461 113.22 46.119 113.016 45.924 112.965C45.7291 112.914 45.5172 113.033 45.4578 113.22L45.4494 113.229Z" fill="#1D1D1D"/>
<path d="M24.0888 130.479C26.5469 129.366 27.598 127.082 28.0557 124.602C28.4711 122.342 28.4372 119.624 25.7756 118.843C21.0542 117.45 16.4261 123.056 17.2483 127.396C17.8077 130.318 21.4865 131.592 24.0888 130.479C24.5295 130.292 24.1481 129.655 23.7073 129.842C21.6645 130.717 18.613 129.74 18.0366 127.489C17.528 125.51 18.418 123.353 19.698 121.841C20.961 120.346 22.9021 119.115 24.9618 119.412C25.979 119.556 26.9114 120.032 27.2844 121.017C27.6574 122.002 27.5472 123.098 27.3861 124.092C26.9877 126.496 26.1146 128.746 23.7158 129.834C23.275 130.029 23.6565 130.666 24.0973 130.471L24.0888 130.479Z" fill="#1D1D1D"/>
<path d="M23.7073 127.965C24.6991 127.082 25.1568 125.655 25.1822 124.372C25.2076 123.243 24.8008 121.867 23.5378 121.586C22.2663 121.306 21.2322 122.223 20.6473 123.234C20.054 124.262 19.6556 125.629 19.9438 126.81C20.3167 128.322 22.5545 129.239 23.7073 127.974C24.0294 127.617 23.4954 127.099 23.1733 127.455C22.4189 128.288 20.944 127.642 20.6812 126.666C20.4354 125.757 20.7406 124.678 21.1559 123.863C21.5289 123.124 22.2239 122.189 23.1818 122.283C24.1396 122.376 24.4109 123.395 24.4278 124.185C24.4532 125.34 24.0633 126.657 23.1733 127.447C22.8173 127.77 23.3513 128.288 23.7073 127.965Z" fill="#1D1D1D"/>
<path d="M23.2835 127.15C23.4022 127.133 23.097 127.124 23.2326 127.15C23.1987 127.15 23.1648 127.133 23.1309 127.124C23.2242 127.141 23.1309 127.107 23.114 127.116C23.114 127.116 23.0801 127.099 23.0801 127.09C23.1563 127.133 23.1224 127.124 23.1055 127.107C23.0801 127.09 23.0631 127.065 23.0377 127.048C23.0038 127.022 23.0716 127.107 23.0292 127.031C23.0122 126.997 22.9868 126.963 22.9699 126.929C22.919 126.844 22.9699 126.954 22.9529 126.903C22.9444 126.869 22.9275 126.835 22.919 126.801C22.8936 126.716 22.8766 126.632 22.8597 126.547C22.8512 126.479 22.8597 126.53 22.8597 126.547C22.8597 126.53 22.8597 126.504 22.8597 126.487C22.8597 126.445 22.8597 126.402 22.8512 126.36C22.8512 126.258 22.8512 126.156 22.8512 126.054C22.8766 125.357 23.1394 124.491 23.6056 124.007C23.7412 123.863 23.8429 123.786 23.987 123.727C23.9531 123.744 24.0548 123.701 24.0803 123.701C24.1142 123.701 24.2498 123.676 24.1566 123.684C24.2074 123.684 24.2583 123.684 24.3091 123.684C24.3261 123.684 24.3515 123.684 24.3685 123.684C24.4532 123.684 24.3007 123.676 24.3939 123.684C24.5973 123.718 24.8008 123.633 24.8601 123.429C24.911 123.251 24.8008 123.013 24.5973 122.979C23.5124 122.792 22.7919 123.659 22.4274 124.559C22.0968 125.374 21.9103 126.487 22.3257 127.311C22.5545 127.761 22.9953 127.965 23.4954 127.88C23.6988 127.846 23.809 127.6 23.7582 127.43C23.6988 127.218 23.4954 127.141 23.292 127.175L23.2835 127.15Z" fill="#1D1D1D"/>
<path d="M15.2309 101.601C14.4172 100.531 13.222 99.8511 12.0183 99.2735C10.7215 98.6535 9.36522 98.1609 8.09376 97.4899C7.66994 97.269 7.2885 97.9061 7.71232 98.1269C8.92445 98.7639 10.2129 99.2396 11.4504 99.8171C12.5863 100.344 13.8153 100.964 14.5867 101.966C14.8749 102.34 15.5276 101.966 15.2394 101.592L15.2309 101.601Z" fill="#1D1D1D"/>
<path d="M10.4502 101.601C9.18719 100.497 7.73773 99.5368 6.07635 99.1206C5.61014 99.0017 5.40671 99.7152 5.87291 99.8341C7.39867 100.225 8.74642 101.108 9.91617 102.127C10.2807 102.442 10.8147 101.924 10.4502 101.609V101.601Z" fill="#1D1D1D"/>
<path d="M17.8755 129.723C12.8236 129.97 7.76317 131.057 2.71122 130.25C2.23654 130.173 2.0331 130.887 2.50778 130.963C7.63602 131.779 12.7473 130.708 17.8755 130.462C18.3587 130.437 18.3587 129.698 17.8755 129.723Z" fill="#1D1D1D"/>
<path d="M6.90703 127.736C8.72098 122.538 -1.46769 121.646 -0.433565 126.657C-0.221654 126.538 -0.018218 126.419 0.193692 126.3C-2.76458 122.631 -9.62201 123.395 -12.4277 126.852C-12.7244 127.218 -12.1988 127.744 -11.8937 127.37C-9.31686 124.202 -3.05278 123.438 -0.331845 126.818C-0.0775528 127.133 0.36322 126.784 0.295408 126.462C-0.458994 122.801 7.62752 123.387 6.18653 127.54C6.02548 127.991 6.75445 128.186 6.9155 127.736H6.90703Z" fill="#1D1D1D"/>
<path d="M8.55996 132.152C5.98312 132.866 3.24523 133.01 0.575159 132.925C-2.0271 132.849 -4.70566 132.56 -7.1723 131.677C-7.63003 131.515 -7.82498 132.229 -7.37573 132.39C-4.85823 133.291 -2.09492 133.588 0.575159 133.664C3.24523 133.741 6.11874 133.588 8.75491 132.857C9.22112 132.73 9.02616 132.016 8.55148 132.144L8.55996 132.152Z" fill="#1D1D1D"/>
<path d="M77.6344 110.553C72.4638 113.263 66.6235 114.613 60.7663 114.588C60.2831 114.588 60.2831 115.327 60.7663 115.327C66.7591 115.352 72.7265 113.959 78.0158 111.19C78.4397 110.969 78.0667 110.332 77.6344 110.553Z" fill="#1D1D1D"/>
<path d="M75.1762 113.135C72.2773 114.562 69.2088 116.082 65.8776 115.964C65.3944 115.947 65.3944 116.685 65.8776 116.702C69.3359 116.821 72.54 115.259 75.5577 113.772C75.99 113.56 75.6085 112.923 75.1762 113.135Z" fill="#1D1D1D"/>
<path d="M65.0468 113.347C63.8008 111.64 61.4444 111.258 59.4439 111.496C57.4435 111.734 55.2396 112.558 54.4174 114.418C54.2309 114.851 54.8751 115.225 55.0701 114.791C55.7821 113.169 57.7741 112.447 59.4355 112.235C61.1307 112.022 63.3177 112.252 64.4026 113.721C64.6824 114.103 65.335 113.738 65.0553 113.347H65.0468Z" fill="#1D1D1D"/>
<path d="M63.3092 112.337C64.4196 111.751 65.6233 111.19 66.8778 111.012C67.3949 110.944 67.9797 110.927 68.4544 111.19C68.98 111.487 69.1749 112.073 69.2342 112.634C69.2851 113.101 70.031 113.11 69.9886 112.634C69.87 111.479 69.2766 110.477 68.0306 110.273C66.8778 110.094 65.6741 110.468 64.6231 110.893C64.0467 111.131 63.4872 111.394 62.9363 111.683C62.5124 111.912 62.8939 112.549 63.3177 112.32L63.3092 112.337Z" fill="#1D1D1D"/>
<path d="M68.6494 95.4684C70.1582 95.4599 71.7263 94.9503 72.9469 94.0839C73.108 93.965 73.1927 93.7612 73.0825 93.5828C72.9893 93.4214 72.735 93.3365 72.5655 93.4469C71.4466 94.2368 70.031 94.7125 68.6494 94.7295C68.1662 94.7295 68.1662 95.4684 68.6494 95.4684Z" fill="#1D1D1D"/>
<path d="M39.0412 102.238C38.7699 102.306 38.5072 102.382 38.2359 102.45C38.1427 102.476 38.0579 102.544 38.007 102.62C37.9562 102.696 37.9392 102.815 37.9731 102.909C38.0325 103.104 38.2359 103.223 38.4393 103.164L39.2446 102.951C39.3379 102.926 39.4226 102.858 39.4735 102.781C39.5243 102.705 39.5413 102.586 39.5074 102.493C39.448 102.297 39.2446 102.178 39.0412 102.238Z" fill="#1D1D1D"/>
<path d="M78.1853 58.8184C76.5833 60.8993 75.3118 63.1926 74.1506 65.5369C73.5826 66.692 72.9893 67.8556 72.5061 69.0532C72.0823 70.1064 71.4466 71.3295 71.4805 72.4846C71.489 72.9603 72.2434 72.9603 72.2349 72.4846C72.2179 71.8476 72.4638 71.287 72.6926 70.701C72.8961 70.1829 73.0656 69.6478 73.2775 69.1382C73.7861 67.8981 74.4049 66.692 75.0067 65.4859C76.1086 63.2945 77.3207 61.1541 78.8295 59.2006C79.1177 58.8184 78.4651 58.4532 78.1769 58.8269L78.1853 58.8184Z" fill="#1D1D1D"/>
<path d="M71.0312 69.7242C70.8278 70.7095 70.3785 71.6607 70.4209 72.68C70.4209 72.8753 70.5904 73.0452 70.7939 73.0452C70.9888 73.0452 71.1753 72.8753 71.1668 72.68C71.1244 71.7287 71.5652 70.8369 71.7517 69.9196C71.7941 69.7242 71.6924 69.5204 71.4889 69.4694C71.3024 69.4184 71.0651 69.5288 71.0227 69.7242H71.0312Z" fill="#1D1D1D"/>
<path d="M69.3783 72.3742C69.3953 72.4252 69.4037 72.4846 69.4122 72.5356L69.3953 72.4337C69.4122 72.5696 69.4122 72.7055 69.3953 72.8414L69.4122 72.7394C69.3953 72.8414 69.3698 72.9433 69.3275 73.0452L69.3614 72.9603C69.3614 72.9603 69.3359 73.0112 69.3275 73.0282C69.2851 73.1132 69.2596 73.2151 69.2935 73.317C69.319 73.402 69.3868 73.4954 69.4631 73.5379C69.5478 73.5803 69.658 73.6058 69.7513 73.5718C69.8445 73.5463 69.9293 73.4869 69.9801 73.402C70.1836 73.0197 70.2005 72.5866 70.1073 72.1704C70.0649 71.9835 69.836 71.8561 69.6411 71.9156C69.4376 71.975 69.3274 72.1704 69.3783 72.3657V72.3742Z" fill="#1D1D1D"/>
<path d="M25.8603 85.3185C24.0972 84.8514 22.8003 83.4754 21.0966 82.8724C20.1557 82.5411 19.147 82.3882 18.1807 82.1334C17.1381 81.8531 16.104 81.5134 15.1376 81.0207C14.7053 80.7999 14.3239 81.4369 14.7562 81.6578C15.6632 82.1164 16.6295 82.4647 17.6128 82.7449C18.6469 83.0422 19.7149 83.2121 20.7406 83.5349C22.5206 84.1039 23.826 85.5563 25.6569 86.032C26.1231 86.1594 26.3265 85.4459 25.8603 85.3185Z" fill="#1D1D1D"/>
<path d="M27.6574 86.0575C28.1405 86.0575 28.1405 85.3185 27.6574 85.3185C27.1742 85.3185 27.1742 86.0575 27.6574 86.0575Z" fill="#1D1D1D"/>
<path d="M13.7221 79.8996C13.6204 79.8741 13.5271 79.8401 13.4339 79.8062L13.5271 79.8401C13.205 79.7042 12.9168 79.5004 12.6202 79.322C12.4506 79.2201 12.1963 79.2796 12.1031 79.4579C12.0099 79.6363 12.0607 79.8571 12.2387 79.959C12.6541 80.2054 13.044 80.4941 13.5271 80.6131C13.7221 80.6555 13.9425 80.5536 13.9933 80.3582C14.0357 80.1714 13.934 79.9505 13.7306 79.9081L13.7221 79.8996Z" fill="#1D1D1D"/>
<path d="M62.843 61.8591C61.4953 62.8868 60.1306 63.9485 58.5285 64.5771C57.7063 64.8998 56.8756 65.1631 56.0703 65.5199C55.2142 65.8936 54.375 66.2843 53.4765 66.5476C53.0103 66.6835 53.2138 67.3885 53.68 67.2611C54.587 67.0063 55.4431 66.6155 56.2992 66.2333C57.1553 65.8511 58.0877 65.5623 58.9693 65.1971C60.5968 64.5261 61.9869 63.4474 63.377 62.3857C63.7585 62.0969 63.2244 61.5703 62.843 61.8676V61.8591Z" fill="#1D1D1D"/>
<path d="M50.3911 66.9468C49.5011 67.4564 48.3822 67.2865 47.4074 67.2271C47.204 67.2101 47.0344 67.4055 47.0344 67.5923C47.0344 67.8047 47.204 67.949 47.4074 67.9575C48.5432 68.034 49.7469 68.1699 50.7725 67.5753C51.1879 67.3375 50.8149 66.7005 50.3911 66.9383V66.9468Z" fill="#1D1D1D"/>
<path d="M30.2257 70.8709C31.7176 70.8029 33.1162 70.2423 34.4809 69.6817C34.6674 69.6053 34.803 69.4354 34.7436 69.2316C34.6928 69.0617 34.4724 68.8918 34.2774 68.9768C32.989 69.5034 31.6413 70.0725 30.2257 70.1404C29.7426 70.1659 29.7426 70.9048 30.2257 70.8793V70.8709Z" fill="#1D1D1D"/>
<path d="M51.7643 24.64C51.5524 25.0052 51.3659 25.3875 51.1455 25.7527C51.0438 25.9311 50.9336 26.1009 50.8064 26.2623C50.7895 26.2793 50.7556 26.3218 50.7895 26.2878C50.7725 26.3048 50.7641 26.3218 50.7471 26.3387C50.7132 26.3812 50.6793 26.4152 50.6454 26.4577C50.5691 26.5426 50.4843 26.619 50.3996 26.6955C50.2555 26.8229 50.2555 27.0862 50.3996 27.2136C50.5522 27.358 50.7725 27.3495 50.9336 27.2136C51.6117 26.6105 51.9677 25.7782 52.4085 25.0052C52.5102 24.8354 52.4509 24.5976 52.2729 24.5041C52.0949 24.4107 51.866 24.4617 51.7558 24.64H51.7643Z" fill="#1D1D1D"/>
<path d="M40.8891 32.8704C40.3042 33.1676 39.7278 33.4734 39.126 33.7367C38.948 33.8216 38.8886 34.0849 38.9903 34.2378C39.109 34.4162 39.3124 34.4587 39.5074 34.3737C40.1008 34.1019 40.6856 33.8046 41.2705 33.5074C41.4485 33.4139 41.5078 33.1676 41.4061 33.0062C41.2875 32.8279 41.0755 32.7769 40.8891 32.8704Z" fill="#1D1D1D"/>
<path d="M21.4272 37.304C21.1644 37.27 20.9016 37.27 20.6304 37.2615C20.5032 37.2615 20.3676 37.2615 20.2405 37.2446C20.1811 37.2446 20.1133 37.2361 20.054 37.2276C19.9607 37.2191 20.1133 37.2361 20.0286 37.2276C19.9862 37.2276 19.9438 37.2106 19.9014 37.2106C19.7065 37.1766 19.4861 37.2615 19.4352 37.4654C19.3928 37.6438 19.4945 37.8816 19.698 37.9156C20.2659 38.026 20.8423 37.975 21.4102 38.043C21.495 38.0515 21.6137 37.992 21.673 37.9325C21.7408 37.8646 21.7832 37.7627 21.7832 37.6692C21.7832 37.5758 21.7493 37.4739 21.673 37.4059C21.5967 37.338 21.5119 37.3125 21.4102 37.2955L21.4272 37.304Z" fill="#1D1D1D"/>
</g>
<defs>
<clipPath id="clip0_32_817">
<rect width="155" height="136" fill="white" transform="translate(-33)"/>
</clipPath>
</defs>
</svg>
