<svg width="24" height="28" viewBox="0 0 24 28" fill="none" xmlns="http://www.w3.org/2000/svg">
<g clip-path="url(#clip0_51_14)">
<path d="M20.8667 15.1848C19.2749 14.0335 16.9433 13.1129 16.8546 11.3258C16.7541 9.29596 19.7951 7.8888 19.6313 5.86223C19.4351 3.43666 14.9058 2.4967 14.9658 0.0658649C13.8271 -0.340738 13.0231 1.22596 13.5008 2.20368C13.9785 3.1814 15.0323 3.98173 15.0876 5.04112C15.1588 6.39968 13.6121 7.33818 12.3562 8.16456C11.1004 8.99094 9.88875 10.4569 10.758 11.5933C8.99342 10.8747 8.328 8.68445 9.45821 7.31505C7.53576 6.98046 6.02246 8.93298 6.09099 10.6191C6.12467 11.4458 6.30538 12.2139 6.50629 12.9604C6.8349 14.1813 6.27902 15.4477 5.10985 16.1956C1.501 18.5044 1.78128 22.4176 3.4135 24.3783C5.29612 26.6397 6.13551 27.6777 11.9694 27.9778C17.8032 28.2778 22.023 25.4614 23.181 22.8342C24.3397 20.2069 23.367 16.9927 20.8667 15.1848ZM15.1494 10.6296C15.3591 9.97305 15.7217 9.36124 16.1273 8.77959C16.5362 8.19354 16.9524 7.57646 17.4608 7.05072C17.7229 6.77965 18.1169 7.1277 17.9801 7.39526C17.776 7.79484 17.4664 8.15373 17.1928 8.51993C16.9407 8.85774 16.6929 9.19819 16.4697 9.55093C16.0304 10.245 15.6836 10.9926 15.6555 11.7921C15.6242 12.6826 15.9753 13.4683 16.4967 14.2206C16.996 14.9413 17.6538 15.5645 18.1063 16.3121C18.2208 16.5012 17.9031 16.6625 17.7733 16.4796C17.2839 15.7911 16.6516 15.1927 16.0699 14.5628C15.0425 13.4495 14.7125 11.9987 15.1494 10.6296ZM12.1102 10.7359C12.1621 10.358 12.317 9.99676 12.5516 9.67446C13.048 8.99211 13.7978 8.46431 14.5265 7.97311C14.7265 7.83846 14.9895 8.04864 14.8112 8.21784C14.2649 8.73626 13.635 9.20287 13.2027 9.80268C13.0053 10.0767 12.8456 10.3794 12.7944 10.7014C12.7686 10.863 12.7704 11.0333 12.7964 11.1949C12.8307 11.4086 12.9402 11.6074 12.9467 11.8234C12.9534 12.0462 12.5721 12.2139 12.3967 12.0195C12.0891 11.6797 12.0531 11.1528 12.1102 10.7359ZM5.15612 22.7715C5.3049 23.1901 5.64084 23.4747 5.89681 23.8382C6.08162 24.1008 5.71464 24.4088 5.41151 24.2554C4.45321 23.7709 4.13515 22.5798 4.25347 21.6966C4.36857 20.8366 4.7786 20.0248 5.28733 19.2848C5.81012 18.5246 6.48491 17.8633 7.04841 17.1283C7.63387 16.3642 8.07319 15.5194 8.21612 14.607C8.36812 13.6366 8.14729 12.6627 7.79701 11.7414C7.70709 11.5052 8.14378 11.3451 8.26561 11.5717C8.79074 12.5482 9.06605 13.6094 8.92869 14.6869C8.81593 15.5721 8.44954 16.4143 7.93261 17.1827C7.42007 17.9447 6.73444 18.6042 6.19115 19.3495C5.6795 20.0515 5.21704 20.8205 5.07382 21.6492C5.0091 22.023 5.02755 22.4094 5.15612 22.7715ZM19.7968 23.0438C19.2166 24.6005 17.795 25.9081 16.0284 26.5109C16.0284 26.5109 5.9179 28.3712 7.77328 22.9047C9.1381 23.7045 10.8517 24.0522 12.4883 23.8617C12.7215 23.1383 12.5472 22.369 12.3618 21.6354C12.1764 20.9019 11.9808 20.1405 12.1741 19.4083C12.3674 18.6762 13.0764 17.9851 13.9492 17.9933C14.9216 18.0027 15.6248 18.8513 15.7888 19.6756C15.9528 20.4999 15.7519 21.3454 15.804 22.1802C15.8181 22.4047 15.9024 22.6805 16.1587 22.7244C16.4252 22.7701 16.6252 22.5259 16.7474 22.3169C17.5232 20.9906 18.2993 19.6639 19.0752 18.3375C20.1049 19.7119 20.3773 21.487 19.7968 23.0438Z" fill="white"/>
<path d="M5.3298 13.1571C3.55291 12.0353 2.24696 10.3665 1.72505 8.52345C0.733661 9.47775 0.224931 10.7909 0.352626 12.0658C0.480321 13.3409 1.24239 14.5598 2.40893 15.3543C3.23074 15.9693 4.79384 15.676 5.56176 14.9401C6.11501 14.41 5.99727 13.5783 5.3298 13.1571ZM2.45051 13.5403C2.76302 13.4691 3.09865 13.4425 3.38568 13.3073C3.60123 13.2057 3.84959 13.4604 3.65512 13.6076C3.35756 13.833 2.97184 13.9217 2.587 13.9662C2.27069 14.0028 2.12103 13.6152 2.45051 13.5403ZM4.72091 14.1237C4.20574 14.7188 3.34145 14.8745 2.51876 14.8576C2.20918 14.8511 2.21153 14.4562 2.51876 14.4454C3.19062 14.422 3.91169 14.3526 4.3964 13.9082C4.55514 13.763 4.86178 13.9609 4.72091 14.1237Z" fill="white"/>
<path d="M22.2749 7.57646C21.753 9.41979 20.4473 11.0884 18.6701 12.2101C18.4871 12.3257 18.3456 12.4721 18.2478 12.6349C19.1833 13.0139 20.4743 13.6281 21.5134 14.4612C21.5398 14.4442 21.5658 14.4261 21.591 14.4073C22.7575 13.6129 23.5196 12.3939 23.6473 11.1188C23.775 9.84395 23.2663 8.53106 22.2749 7.57646ZM20.9795 12.9463C20.5885 12.7476 20.2435 12.5608 19.7957 12.4654C19.53 12.4089 19.5836 12.0333 19.861 12.0509C20.4022 12.0857 20.9982 12.2543 21.3096 12.6627C21.444 12.8398 21.1804 13.0485 20.9795 12.9463ZM21.5702 12.0831C21.417 11.9276 21.2097 11.8225 20.9704 11.8029C20.6532 11.7769 20.6459 11.3896 20.9704 11.3735C21.4012 11.3521 21.7307 11.5163 21.9779 11.8123C22.1507 12.0192 21.7585 12.2745 21.5702 12.0831Z" fill="white"/>
</g>
<defs>
<clipPath id="clip0_51_14">
<rect width="23.3333" height="28" fill="white" transform="translate(0.333313)"/>
</clipPath>
</defs>
</svg>
