<svg width="44" height="28" viewBox="0 0 44 28" fill="none" xmlns="http://www.w3.org/2000/svg">
<g clip-path="url(#clip0_51_20)">
<path d="M35.8097 15.2474C35.4959 12.7086 34.0941 10.5549 32.3899 9.2655C30.6856 7.9761 28.7032 7.45317 26.7421 7.21103C21.2272 6.52964 15.4632 8.0236 10.8992 12.1219C9.61108 13.2784 8.40363 14.6663 7.63467 16.4432C6.86571 18.2201 6.58428 20.4376 7.16953 22.3301C10.5829 28.9037 23.4879 29.0139 28.8922 26.4227C30.762 25.5261 32.5814 24.2828 33.9356 22.3755C35.2898 20.4678 36.127 17.8149 35.8097 15.2474ZM8.00743 20.0803C7.683 20.1019 7.55152 19.5322 7.84042 19.3599C8.41251 19.0185 9.0834 19.2276 9.69672 19.1287C10.083 19.0663 10.2646 19.7102 9.86302 19.8335C9.56311 19.9257 9.26569 19.9573 8.9569 19.9739C8.63745 19.9913 8.3251 20.059 8.00743 20.0803ZM10.2102 21.7604C9.72443 22.0731 9.19888 22.3124 8.68186 22.5435C8.33576 22.6981 8.14388 22.0766 8.43845 21.8692C8.89223 21.5494 9.40854 21.3722 9.89429 21.1293C10.2539 20.9492 10.5726 21.5271 10.2102 21.7604ZM31.2272 12.2676C31.6639 11.8741 32.1276 11.4671 32.6301 11.1941C33.0679 10.9566 33.4211 11.6387 33.011 11.9553C32.5483 12.3119 32.0981 12.7289 31.596 13.0043C31.1615 13.2436 30.8594 12.5991 31.2272 12.2676ZM30.9706 19.4872C30.2653 20.5096 29.2977 21.1538 28.3198 21.6643C18.102 26.1969 11.4962 21.8447 11.0175 19.9746C10.7372 18.8791 11.0364 17.6369 11.5918 16.7389C12.1472 15.8409 12.9261 15.2311 13.7121 14.7057C18.1513 11.7376 23.4044 10.913 28.2537 12.4225C29.7198 12.8788 31.3402 13.7878 31.7744 15.6767C32.0775 16.9963 31.676 18.4647 30.9706 19.4872ZM34.3005 12.6133C33.9665 12.9355 33.6129 13.2103 33.231 13.4496C32.8735 13.6733 32.4567 13.9817 32.0537 14.0544C31.7435 14.1101 31.3803 13.641 31.6994 13.344C32.0143 13.0511 32.4215 12.9121 32.7822 12.7058C33.1602 12.4896 33.5227 12.2403 33.8667 11.9571C34.1993 11.683 34.6111 12.3137 34.3005 12.6133Z" fill="white"/>
<path d="M40.1978 8.86312C41.9311 8.52703 43.387 6.85331 43.6364 4.91052C42.0303 5.32319 40.4668 5.94112 38.9853 6.74731C38.904 6.87565 38.8134 6.99973 38.7167 7.11885C39.0045 7.11566 39.2877 7.15998 39.5688 7.32661C39.9277 7.53932 40.1491 7.9137 40.024 8.33204C39.7973 9.09037 38.6481 9.65583 37.909 9.52678C37.5661 9.46687 37.5921 8.93827 37.909 8.86099C38.3738 8.74754 38.8979 8.5717 39.2014 8.17924C39.2163 8.15974 39.2334 8.13067 39.2437 8.10231C39.1758 8.01793 39.0273 7.96652 38.9299 7.94348C38.5373 7.84988 38.0831 8.0002 37.683 8.00481C37.2957 8.00942 37.1298 7.45069 37.4819 7.26385C38.1112 6.92989 38.7732 5.96878 38.6666 5.23846C38.6112 4.8577 39.1012 4.71837 39.2444 5.07963C39.4516 5.60255 39.3393 6.11449 39.0848 6.57927C40.4589 5.37885 41.5843 3.82497 42.3415 2.07042C42.6343 1.39186 42.7708 0.371187 42.1532 0.067359C41.5392 -0.234696 40.9657 0.542422 40.6203 1.18411C39.0646 4.07242 36.7701 6.45908 34.0788 7.98886L34.0962 8.53022C34.7795 8.3019 35.5236 8.72166 35.9895 9.32435C36.4553 9.92704 36.7137 10.6882 37.0228 11.4054C37.3316 12.1226 37.7281 12.8416 38.3543 13.2231C38.9804 13.6045 39.8854 13.5131 40.2649 12.8395C40.5588 12.318 40.2852 11.5352 39.8271 11.3044C39.7955 11.3703 39.7554 11.4327 39.7046 11.4891C39.1595 12.0928 38.1357 11.5724 37.8024 10.9959C37.6439 10.7219 37.9765 10.3383 38.2615 10.5379C38.404 10.6379 38.5223 10.7637 38.6638 10.8637C38.7217 10.9045 38.7835 10.941 38.8471 10.9729C38.8844 10.9913 38.8834 10.992 38.9495 11.0108C38.9754 11.0183 39.0013 11.0239 39.0276 11.0296C39.0319 11.03 39.0362 11.03 39.0408 11.03C39.0838 11.0296 39.1772 11.0083 39.0966 11.0325C39.1129 11.0275 39.1342 11.0211 39.1524 11.0176C39.1559 11.014 39.1691 11.0048 39.1797 10.9981C39.1804 10.997 39.1808 10.9959 39.1815 10.9949C39.1804 10.9818 39.1954 10.9243 39.1964 10.9555C39.1975 10.9275 39.1975 10.8995 39.1964 10.8715C39.1957 10.9034 39.1787 10.7974 39.1698 10.7708C39.1683 10.7662 39.1662 10.7612 39.1648 10.757C39.1527 10.7315 39.1392 10.7063 39.125 10.6818C39.0987 10.6368 39.0674 10.5925 39.0379 10.5563C38.9455 10.445 38.8329 10.3511 38.7146 10.2685C38.4019 10.0511 38.6762 9.56082 39.017 9.75226C39.372 9.9515 39.6985 10.2287 39.8478 10.6166C39.9284 10.8261 39.9291 11.0594 39.8456 11.2625C40.2749 11.2923 40.7031 11.3944 41.1323 11.4476C41.7133 11.5192 42.3458 11.4841 42.8152 11.0952C43.2846 10.7063 43.4797 9.86394 43.0799 9.38817C42.3881 8.56602 40.9593 9.60301 40.1978 8.86312Z" fill="white"/>
<path d="M10.8668 8.89858C7.51916 7.75453 5.01152 4.05648 4.93583 0.151392C4.52222 0.107431 4.13632 0.448483 3.95758 0.866822C3.77884 1.28516 3.76605 1.76519 3.77493 2.22855C3.80656 3.90297 4.07875 5.57136 4.57658 7.15148C4.59257 7.12241 4.60927 7.09298 4.62811 7.0632C5.17746 6.21022 6.22927 7.06072 6.81097 7.39858C7.08423 7.55706 6.84437 7.94172 6.56756 7.81409C6.32131 7.70064 5.31889 7.02562 5.18351 7.47126C5.03853 7.94881 6.12445 8.48166 6.42222 8.73443C6.69655 8.96735 6.45882 9.39278 6.14399 9.40484C5.8519 9.41583 5.5726 9.30699 5.29224 9.24247C5.21264 9.22403 5.06411 9.16695 4.98416 9.20382C5.00264 9.19531 4.9902 9.25523 5.0204 9.30415C5.20554 9.6055 5.9315 9.65194 6.23603 9.78808C6.57573 9.94017 6.39095 10.4645 6.05303 10.462C5.39422 10.4571 4.29089 10.1178 4.22551 9.33039C4.19104 8.91772 4.43125 8.52881 4.84664 8.44585L4.85304 8.44479C4.56024 8.13387 4.36906 7.78005 4.4849 7.37306C3.7028 6.74236 2.92069 6.11166 2.13859 5.48131C1.98579 5.35794 1.80812 5.22818 1.62334 5.27002C1.22358 5.36042 1.28826 6.02374 1.47232 6.43002C2.06432 7.73538 2.85531 8.92836 3.80123 9.94159C3.07136 9.69945 2.29743 9.45589 1.56045 9.6686C0.82347 9.88132 0.179592 10.7386 0.41163 11.5472C1.82731 12.1368 3.42208 12.1733 4.85943 11.6532C4.88964 11.555 4.93868 11.4604 5.00939 11.3763C5.33772 10.9857 5.90982 10.7517 6.39451 10.6258C6.71538 10.5429 6.83655 11.0094 6.52989 11.1158C6.20404 11.2289 5.83947 11.4058 5.59002 11.6483C5.31356 11.917 5.56088 11.9131 5.79896 11.8245C6.40339 11.5993 6.93249 11.1292 7.44987 10.7542C7.72526 10.5546 8.03867 10.9892 7.80557 11.2143C7.46977 11.5384 7.12935 11.8433 6.73848 12.1017C6.34725 12.3605 5.80535 12.6732 5.3164 12.5339C4.91522 12.4194 4.75745 12.0329 4.8502 11.683C4.51298 11.9259 4.17363 12.1903 3.98316 12.5814C3.7792 12.9997 3.81651 13.606 4.17825 13.8594C4.60181 14.1562 5.14371 13.8247 5.55164 13.5017C7.34611 12.0801 9.14094 10.6584 10.9354 9.23679L10.8668 8.89858Z" fill="white"/>
</g>
<defs>
<clipPath id="clip0_51_20">
<rect width="43.2727" height="28" fill="white" transform="translate(0.363647)"/>
</clipPath>
</defs>
</svg>
