<svg width="28" height="28" viewBox="0 0 28 28" fill="none" xmlns="http://www.w3.org/2000/svg">
<g clip-path="url(#clip0_10_1306)">
<path d="M14.8138 28H13.1726C12.9747 27.9775 12.7768 27.955 12.5789 27.9331C9.63296 27.6049 7.00662 26.5138 4.79636 24.5338C1.23921 21.3471 -0.356546 17.3373 0.0671981 12.5856C0.354993 9.35504 1.68269 6.54649 3.96751 4.23827C7.11242 1.06091 10.9497 -0.335965 15.3976 0.0679177C18.4187 0.34247 21.0751 1.54152 23.3309 3.57299C25.7259 5.72995 27.2219 8.40314 27.7832 11.5849C27.8759 12.111 27.9291 12.6442 28.0003 13.1736V14.8149C27.9778 15.0121 27.9548 15.2094 27.9329 15.4067C27.627 18.1736 26.6249 20.6583 24.8565 22.812C22.6512 25.4967 19.833 27.1659 16.4052 27.7813C15.8784 27.8761 15.3445 27.9282 14.8138 28ZM4.83966 9.5863C4.83363 10.3146 5.43718 10.7634 6.21889 10.5831C7.92044 10.1908 9.63954 9.9562 11.3871 9.92277C13.4302 9.88387 15.4437 10.0998 17.4297 10.5776C19.1275 10.9865 20.7495 11.6013 22.3223 12.3559C22.9236 12.6442 23.4844 12.3998 23.776 11.7646C24.015 11.244 23.7963 10.6544 23.2514 10.3853C20.1498 8.85361 16.8717 7.9757 13.4198 7.76362C10.8373 7.60469 8.28608 7.84582 5.76664 8.43328C5.1894 8.56809 4.84405 8.99554 4.83912 9.58684L4.83966 9.5863ZM11.9452 13.2377C10.0655 13.2508 8.32884 13.4772 6.60864 13.8821C6.04073 14.0159 5.77486 14.3447 5.66851 14.8724C5.49967 15.7103 6.03415 16.2408 6.86026 16.0271C8.50974 15.6002 10.1861 15.3749 11.8876 15.3831C14.5041 15.3963 17.0274 15.8933 19.4322 16.9422C19.8406 17.1203 20.2408 17.3187 20.6448 17.5061C21.1091 17.722 21.2763 17.6848 21.5767 17.2831C21.6803 17.145 21.7741 16.9987 21.8574 16.8474C22.143 16.3296 21.9868 15.8374 21.4561 15.5662C18.4335 14.0208 15.2206 13.2596 11.9441 13.2371L11.9452 13.2377ZM11.8065 18.3972C10.174 18.3939 8.57662 18.6449 7.0132 19.1069C6.8641 19.1507 6.681 19.2795 6.62948 19.4132C6.51052 19.7212 6.41788 20.0544 6.39869 20.3821C6.37512 20.781 6.72924 21.0759 7.13325 21.0523C7.27688 21.0441 7.41721 20.992 7.55974 20.9657C8.58758 20.7756 9.60829 20.5092 10.6449 20.4139C12.9083 20.2056 15.1175 20.5366 17.2406 21.3564C17.893 21.6085 18.5168 21.9324 19.1532 22.225C19.7184 22.4848 20.2255 22.1801 20.2299 21.5581C20.2315 21.3258 20.2063 21.0792 20.1262 20.8638C20.0616 20.6906 19.9278 20.4972 19.771 20.4122C17.2889 19.0663 14.6285 18.4038 11.8065 18.3972Z" fill="white"/>
</g>
<defs>
<clipPath id="clip0_10_1306">
<rect width="28" height="28" fill="white"/>
</clipPath>
</defs>
</svg>
